%TF.GenerationSoftware,KiCad,Pcbnew,8.0.1*%
%TF.CreationDate,2024-12-16T22:11:12-05:00*%
%TF.ProjectId,cm,636d2e6b-6963-4616-945f-706362585858,rev?*%
%TF.SameCoordinates,Original*%
%TF.FileFunction,Legend,Top*%
%TF.FilePolarity,Positive*%
%FSLAX46Y46*%
G04 Gerber Fmt 4.6, Leading zero omitted, Abs format (unit mm)*
G04 Created by KiCad (PCBNEW 8.0.1) date 2024-12-16 22:11:12*
%MOMM*%
%LPD*%
G01*
G04 APERTURE LIST*
%ADD10C,0.254000*%
%ADD11C,0.375000*%
%ADD12C,0.381000*%
%ADD13C,0.150000*%
%ADD14C,0.127000*%
%ADD15C,0.120000*%
%ADD16C,0.200000*%
%ADD17C,0.000000*%
G04 APERTURE END LIST*
D10*
X102514400Y-60045600D02*
X136575800Y-60045600D01*
X136575800Y-63423800D01*
X102514400Y-63423800D01*
X102514400Y-60045600D01*
D11*
X96265024Y-77636985D02*
X96336452Y-77565557D01*
X96336452Y-77565557D02*
X96479310Y-77494128D01*
X96479310Y-77494128D02*
X96836452Y-77494128D01*
X96836452Y-77494128D02*
X96979310Y-77565557D01*
X96979310Y-77565557D02*
X97050738Y-77636985D01*
X97050738Y-77636985D02*
X97122167Y-77779842D01*
X97122167Y-77779842D02*
X97122167Y-77922700D01*
X97122167Y-77922700D02*
X97050738Y-78136985D01*
X97050738Y-78136985D02*
X96193595Y-78994128D01*
X96193595Y-78994128D02*
X97122167Y-78994128D01*
X97765023Y-78851271D02*
X97836452Y-78922700D01*
X97836452Y-78922700D02*
X97765023Y-78994128D01*
X97765023Y-78994128D02*
X97693595Y-78922700D01*
X97693595Y-78922700D02*
X97765023Y-78851271D01*
X97765023Y-78851271D02*
X97765023Y-78994128D01*
X99193595Y-77494128D02*
X98479309Y-77494128D01*
X98479309Y-77494128D02*
X98407881Y-78208414D01*
X98407881Y-78208414D02*
X98479309Y-78136985D01*
X98479309Y-78136985D02*
X98622167Y-78065557D01*
X98622167Y-78065557D02*
X98979309Y-78065557D01*
X98979309Y-78065557D02*
X99122167Y-78136985D01*
X99122167Y-78136985D02*
X99193595Y-78208414D01*
X99193595Y-78208414D02*
X99265024Y-78351271D01*
X99265024Y-78351271D02*
X99265024Y-78708414D01*
X99265024Y-78708414D02*
X99193595Y-78851271D01*
X99193595Y-78851271D02*
X99122167Y-78922700D01*
X99122167Y-78922700D02*
X98979309Y-78994128D01*
X98979309Y-78994128D02*
X98622167Y-78994128D01*
X98622167Y-78994128D02*
X98479309Y-78922700D01*
X98479309Y-78922700D02*
X98407881Y-78851271D01*
X99693595Y-77494128D02*
X100193595Y-78994128D01*
X100193595Y-78994128D02*
X100693595Y-77494128D01*
D10*
X132723466Y-67299452D02*
X132723466Y-66283452D01*
X133207276Y-67299452D02*
X133207276Y-66283452D01*
X133207276Y-66283452D02*
X133787848Y-67299452D01*
X133787848Y-67299452D02*
X133787848Y-66283452D01*
X134271657Y-67299452D02*
X134271657Y-66283452D01*
X134610324Y-66283452D02*
X135190896Y-66283452D01*
X134900610Y-67299452D02*
X134900610Y-66283452D01*
X135529562Y-67299452D02*
X135529562Y-66283452D01*
X135529562Y-66283452D02*
X136110134Y-67299452D01*
X136110134Y-67299452D02*
X136110134Y-66283452D01*
D11*
X99946338Y-62330328D02*
X99232052Y-62330328D01*
X99232052Y-62330328D02*
X99160624Y-63044614D01*
X99160624Y-63044614D02*
X99232052Y-62973185D01*
X99232052Y-62973185D02*
X99374910Y-62901757D01*
X99374910Y-62901757D02*
X99732052Y-62901757D01*
X99732052Y-62901757D02*
X99874910Y-62973185D01*
X99874910Y-62973185D02*
X99946338Y-63044614D01*
X99946338Y-63044614D02*
X100017767Y-63187471D01*
X100017767Y-63187471D02*
X100017767Y-63544614D01*
X100017767Y-63544614D02*
X99946338Y-63687471D01*
X99946338Y-63687471D02*
X99874910Y-63758900D01*
X99874910Y-63758900D02*
X99732052Y-63830328D01*
X99732052Y-63830328D02*
X99374910Y-63830328D01*
X99374910Y-63830328D02*
X99232052Y-63758900D01*
X99232052Y-63758900D02*
X99160624Y-63687471D01*
X100446338Y-62330328D02*
X100946338Y-63830328D01*
X100946338Y-63830328D02*
X101446338Y-62330328D01*
D12*
X104178098Y-60781862D02*
X104008765Y-60697195D01*
X104008765Y-60697195D02*
X103754765Y-60697195D01*
X103754765Y-60697195D02*
X103500765Y-60781862D01*
X103500765Y-60781862D02*
X103331432Y-60951195D01*
X103331432Y-60951195D02*
X103246765Y-61120529D01*
X103246765Y-61120529D02*
X103162098Y-61459195D01*
X103162098Y-61459195D02*
X103162098Y-61713195D01*
X103162098Y-61713195D02*
X103246765Y-62051862D01*
X103246765Y-62051862D02*
X103331432Y-62221195D01*
X103331432Y-62221195D02*
X103500765Y-62390529D01*
X103500765Y-62390529D02*
X103754765Y-62475195D01*
X103754765Y-62475195D02*
X103924098Y-62475195D01*
X103924098Y-62475195D02*
X104178098Y-62390529D01*
X104178098Y-62390529D02*
X104262765Y-62305862D01*
X104262765Y-62305862D02*
X104262765Y-61713195D01*
X104262765Y-61713195D02*
X103924098Y-61713195D01*
X105278765Y-62475195D02*
X105109432Y-62390529D01*
X105109432Y-62390529D02*
X105024765Y-62305862D01*
X105024765Y-62305862D02*
X104940098Y-62136529D01*
X104940098Y-62136529D02*
X104940098Y-61628529D01*
X104940098Y-61628529D02*
X105024765Y-61459195D01*
X105024765Y-61459195D02*
X105109432Y-61374529D01*
X105109432Y-61374529D02*
X105278765Y-61289862D01*
X105278765Y-61289862D02*
X105532765Y-61289862D01*
X105532765Y-61289862D02*
X105702098Y-61374529D01*
X105702098Y-61374529D02*
X105786765Y-61459195D01*
X105786765Y-61459195D02*
X105871432Y-61628529D01*
X105871432Y-61628529D02*
X105871432Y-62136529D01*
X105871432Y-62136529D02*
X105786765Y-62305862D01*
X105786765Y-62305862D02*
X105702098Y-62390529D01*
X105702098Y-62390529D02*
X105532765Y-62475195D01*
X105532765Y-62475195D02*
X105278765Y-62475195D01*
X107310765Y-62390529D02*
X107141432Y-62475195D01*
X107141432Y-62475195D02*
X106802765Y-62475195D01*
X106802765Y-62475195D02*
X106633432Y-62390529D01*
X106633432Y-62390529D02*
X106548765Y-62221195D01*
X106548765Y-62221195D02*
X106548765Y-61543862D01*
X106548765Y-61543862D02*
X106633432Y-61374529D01*
X106633432Y-61374529D02*
X106802765Y-61289862D01*
X106802765Y-61289862D02*
X107141432Y-61289862D01*
X107141432Y-61289862D02*
X107310765Y-61374529D01*
X107310765Y-61374529D02*
X107395432Y-61543862D01*
X107395432Y-61543862D02*
X107395432Y-61713195D01*
X107395432Y-61713195D02*
X106548765Y-61882529D01*
X108411432Y-62475195D02*
X108242099Y-62390529D01*
X108242099Y-62390529D02*
X108157432Y-62221195D01*
X108157432Y-62221195D02*
X108157432Y-60697195D01*
X108919432Y-61289862D02*
X109850765Y-61289862D01*
X109850765Y-61289862D02*
X108919432Y-62475195D01*
X108919432Y-62475195D02*
X109850765Y-62475195D01*
X111205431Y-62390529D02*
X111036098Y-62475195D01*
X111036098Y-62475195D02*
X110697431Y-62475195D01*
X110697431Y-62475195D02*
X110528098Y-62390529D01*
X110528098Y-62390529D02*
X110443431Y-62221195D01*
X110443431Y-62221195D02*
X110443431Y-61543862D01*
X110443431Y-61543862D02*
X110528098Y-61374529D01*
X110528098Y-61374529D02*
X110697431Y-61289862D01*
X110697431Y-61289862D02*
X111036098Y-61289862D01*
X111036098Y-61289862D02*
X111205431Y-61374529D01*
X111205431Y-61374529D02*
X111290098Y-61543862D01*
X111290098Y-61543862D02*
X111290098Y-61713195D01*
X111290098Y-61713195D02*
X110443431Y-61882529D01*
X112052098Y-62475195D02*
X112052098Y-61289862D01*
X112052098Y-61628529D02*
X112136765Y-61459195D01*
X112136765Y-61459195D02*
X112221431Y-61374529D01*
X112221431Y-61374529D02*
X112390765Y-61289862D01*
X112390765Y-61289862D02*
X112560098Y-61289862D01*
X115523432Y-62305862D02*
X115438765Y-62390529D01*
X115438765Y-62390529D02*
X115184765Y-62475195D01*
X115184765Y-62475195D02*
X115015432Y-62475195D01*
X115015432Y-62475195D02*
X114761432Y-62390529D01*
X114761432Y-62390529D02*
X114592099Y-62221195D01*
X114592099Y-62221195D02*
X114507432Y-62051862D01*
X114507432Y-62051862D02*
X114422765Y-61713195D01*
X114422765Y-61713195D02*
X114422765Y-61459195D01*
X114422765Y-61459195D02*
X114507432Y-61120529D01*
X114507432Y-61120529D02*
X114592099Y-60951195D01*
X114592099Y-60951195D02*
X114761432Y-60781862D01*
X114761432Y-60781862D02*
X115015432Y-60697195D01*
X115015432Y-60697195D02*
X115184765Y-60697195D01*
X115184765Y-60697195D02*
X115438765Y-60781862D01*
X115438765Y-60781862D02*
X115523432Y-60866529D01*
X116539432Y-62475195D02*
X116370099Y-62390529D01*
X116370099Y-62390529D02*
X116285432Y-62305862D01*
X116285432Y-62305862D02*
X116200765Y-62136529D01*
X116200765Y-62136529D02*
X116200765Y-61628529D01*
X116200765Y-61628529D02*
X116285432Y-61459195D01*
X116285432Y-61459195D02*
X116370099Y-61374529D01*
X116370099Y-61374529D02*
X116539432Y-61289862D01*
X116539432Y-61289862D02*
X116793432Y-61289862D01*
X116793432Y-61289862D02*
X116962765Y-61374529D01*
X116962765Y-61374529D02*
X117047432Y-61459195D01*
X117047432Y-61459195D02*
X117132099Y-61628529D01*
X117132099Y-61628529D02*
X117132099Y-62136529D01*
X117132099Y-62136529D02*
X117047432Y-62305862D01*
X117047432Y-62305862D02*
X116962765Y-62390529D01*
X116962765Y-62390529D02*
X116793432Y-62475195D01*
X116793432Y-62475195D02*
X116539432Y-62475195D01*
X117894099Y-62475195D02*
X117894099Y-61289862D01*
X117894099Y-61459195D02*
X117978766Y-61374529D01*
X117978766Y-61374529D02*
X118148099Y-61289862D01*
X118148099Y-61289862D02*
X118402099Y-61289862D01*
X118402099Y-61289862D02*
X118571432Y-61374529D01*
X118571432Y-61374529D02*
X118656099Y-61543862D01*
X118656099Y-61543862D02*
X118656099Y-62475195D01*
X118656099Y-61543862D02*
X118740766Y-61374529D01*
X118740766Y-61374529D02*
X118910099Y-61289862D01*
X118910099Y-61289862D02*
X119164099Y-61289862D01*
X119164099Y-61289862D02*
X119333432Y-61374529D01*
X119333432Y-61374529D02*
X119418099Y-61543862D01*
X119418099Y-61543862D02*
X119418099Y-62475195D01*
X120264766Y-61289862D02*
X120264766Y-63067862D01*
X120264766Y-61374529D02*
X120434099Y-61289862D01*
X120434099Y-61289862D02*
X120772766Y-61289862D01*
X120772766Y-61289862D02*
X120942099Y-61374529D01*
X120942099Y-61374529D02*
X121026766Y-61459195D01*
X121026766Y-61459195D02*
X121111433Y-61628529D01*
X121111433Y-61628529D02*
X121111433Y-62136529D01*
X121111433Y-62136529D02*
X121026766Y-62305862D01*
X121026766Y-62305862D02*
X120942099Y-62390529D01*
X120942099Y-62390529D02*
X120772766Y-62475195D01*
X120772766Y-62475195D02*
X120434099Y-62475195D01*
X120434099Y-62475195D02*
X120264766Y-62390529D01*
X122635433Y-61289862D02*
X122635433Y-62475195D01*
X121873433Y-61289862D02*
X121873433Y-62221195D01*
X121873433Y-62221195D02*
X121958100Y-62390529D01*
X121958100Y-62390529D02*
X122127433Y-62475195D01*
X122127433Y-62475195D02*
X122381433Y-62475195D01*
X122381433Y-62475195D02*
X122550766Y-62390529D01*
X122550766Y-62390529D02*
X122635433Y-62305862D01*
X123228100Y-61289862D02*
X123905433Y-61289862D01*
X123482100Y-60697195D02*
X123482100Y-62221195D01*
X123482100Y-62221195D02*
X123566767Y-62390529D01*
X123566767Y-62390529D02*
X123736100Y-62475195D01*
X123736100Y-62475195D02*
X123905433Y-62475195D01*
X125175433Y-62390529D02*
X125006100Y-62475195D01*
X125006100Y-62475195D02*
X124667433Y-62475195D01*
X124667433Y-62475195D02*
X124498100Y-62390529D01*
X124498100Y-62390529D02*
X124413433Y-62221195D01*
X124413433Y-62221195D02*
X124413433Y-61543862D01*
X124413433Y-61543862D02*
X124498100Y-61374529D01*
X124498100Y-61374529D02*
X124667433Y-61289862D01*
X124667433Y-61289862D02*
X125006100Y-61289862D01*
X125006100Y-61289862D02*
X125175433Y-61374529D01*
X125175433Y-61374529D02*
X125260100Y-61543862D01*
X125260100Y-61543862D02*
X125260100Y-61713195D01*
X125260100Y-61713195D02*
X124413433Y-61882529D01*
X127376767Y-62475195D02*
X127376767Y-60697195D01*
X127376767Y-60697195D02*
X127969434Y-61967195D01*
X127969434Y-61967195D02*
X128562100Y-60697195D01*
X128562100Y-60697195D02*
X128562100Y-62475195D01*
X129662767Y-62475195D02*
X129493434Y-62390529D01*
X129493434Y-62390529D02*
X129408767Y-62305862D01*
X129408767Y-62305862D02*
X129324100Y-62136529D01*
X129324100Y-62136529D02*
X129324100Y-61628529D01*
X129324100Y-61628529D02*
X129408767Y-61459195D01*
X129408767Y-61459195D02*
X129493434Y-61374529D01*
X129493434Y-61374529D02*
X129662767Y-61289862D01*
X129662767Y-61289862D02*
X129916767Y-61289862D01*
X129916767Y-61289862D02*
X130086100Y-61374529D01*
X130086100Y-61374529D02*
X130170767Y-61459195D01*
X130170767Y-61459195D02*
X130255434Y-61628529D01*
X130255434Y-61628529D02*
X130255434Y-62136529D01*
X130255434Y-62136529D02*
X130170767Y-62305862D01*
X130170767Y-62305862D02*
X130086100Y-62390529D01*
X130086100Y-62390529D02*
X129916767Y-62475195D01*
X129916767Y-62475195D02*
X129662767Y-62475195D01*
X131779434Y-62475195D02*
X131779434Y-60697195D01*
X131779434Y-62390529D02*
X131610101Y-62475195D01*
X131610101Y-62475195D02*
X131271434Y-62475195D01*
X131271434Y-62475195D02*
X131102101Y-62390529D01*
X131102101Y-62390529D02*
X131017434Y-62305862D01*
X131017434Y-62305862D02*
X130932767Y-62136529D01*
X130932767Y-62136529D02*
X130932767Y-61628529D01*
X130932767Y-61628529D02*
X131017434Y-61459195D01*
X131017434Y-61459195D02*
X131102101Y-61374529D01*
X131102101Y-61374529D02*
X131271434Y-61289862D01*
X131271434Y-61289862D02*
X131610101Y-61289862D01*
X131610101Y-61289862D02*
X131779434Y-61374529D01*
X133388101Y-61289862D02*
X133388101Y-62475195D01*
X132626101Y-61289862D02*
X132626101Y-62221195D01*
X132626101Y-62221195D02*
X132710768Y-62390529D01*
X132710768Y-62390529D02*
X132880101Y-62475195D01*
X132880101Y-62475195D02*
X133134101Y-62475195D01*
X133134101Y-62475195D02*
X133303434Y-62390529D01*
X133303434Y-62390529D02*
X133388101Y-62305862D01*
X134488768Y-62475195D02*
X134319435Y-62390529D01*
X134319435Y-62390529D02*
X134234768Y-62221195D01*
X134234768Y-62221195D02*
X134234768Y-60697195D01*
X135843434Y-62390529D02*
X135674101Y-62475195D01*
X135674101Y-62475195D02*
X135335434Y-62475195D01*
X135335434Y-62475195D02*
X135166101Y-62390529D01*
X135166101Y-62390529D02*
X135081434Y-62221195D01*
X135081434Y-62221195D02*
X135081434Y-61543862D01*
X135081434Y-61543862D02*
X135166101Y-61374529D01*
X135166101Y-61374529D02*
X135335434Y-61289862D01*
X135335434Y-61289862D02*
X135674101Y-61289862D01*
X135674101Y-61289862D02*
X135843434Y-61374529D01*
X135843434Y-61374529D02*
X135928101Y-61543862D01*
X135928101Y-61543862D02*
X135928101Y-61713195D01*
X135928101Y-61713195D02*
X135081434Y-61882529D01*
D10*
X127318104Y-67248652D02*
X127318104Y-66232652D01*
X127318104Y-66232652D02*
X127560009Y-66232652D01*
X127560009Y-66232652D02*
X127705152Y-66281033D01*
X127705152Y-66281033D02*
X127801914Y-66377795D01*
X127801914Y-66377795D02*
X127850295Y-66474557D01*
X127850295Y-66474557D02*
X127898676Y-66668081D01*
X127898676Y-66668081D02*
X127898676Y-66813224D01*
X127898676Y-66813224D02*
X127850295Y-67006748D01*
X127850295Y-67006748D02*
X127801914Y-67103510D01*
X127801914Y-67103510D02*
X127705152Y-67200272D01*
X127705152Y-67200272D02*
X127560009Y-67248652D01*
X127560009Y-67248652D02*
X127318104Y-67248652D01*
X128527628Y-66232652D02*
X128721152Y-66232652D01*
X128721152Y-66232652D02*
X128817914Y-66281033D01*
X128817914Y-66281033D02*
X128914676Y-66377795D01*
X128914676Y-66377795D02*
X128963057Y-66571319D01*
X128963057Y-66571319D02*
X128963057Y-66909986D01*
X128963057Y-66909986D02*
X128914676Y-67103510D01*
X128914676Y-67103510D02*
X128817914Y-67200272D01*
X128817914Y-67200272D02*
X128721152Y-67248652D01*
X128721152Y-67248652D02*
X128527628Y-67248652D01*
X128527628Y-67248652D02*
X128430866Y-67200272D01*
X128430866Y-67200272D02*
X128334104Y-67103510D01*
X128334104Y-67103510D02*
X128285723Y-66909986D01*
X128285723Y-66909986D02*
X128285723Y-66571319D01*
X128285723Y-66571319D02*
X128334104Y-66377795D01*
X128334104Y-66377795D02*
X128430866Y-66281033D01*
X128430866Y-66281033D02*
X128527628Y-66232652D01*
X129398485Y-67248652D02*
X129398485Y-66232652D01*
X129398485Y-66232652D02*
X129979057Y-67248652D01*
X129979057Y-67248652D02*
X129979057Y-66232652D01*
X130462866Y-66716462D02*
X130801533Y-66716462D01*
X130946676Y-67248652D02*
X130462866Y-67248652D01*
X130462866Y-67248652D02*
X130462866Y-66232652D01*
X130462866Y-66232652D02*
X130946676Y-66232652D01*
D11*
X97147567Y-69926328D02*
X96290424Y-69926328D01*
X96718995Y-69926328D02*
X96718995Y-68426328D01*
X96718995Y-68426328D02*
X96576138Y-68640614D01*
X96576138Y-68640614D02*
X96433281Y-68783471D01*
X96433281Y-68783471D02*
X96290424Y-68854900D01*
X97790423Y-69783471D02*
X97861852Y-69854900D01*
X97861852Y-69854900D02*
X97790423Y-69926328D01*
X97790423Y-69926328D02*
X97718995Y-69854900D01*
X97718995Y-69854900D02*
X97790423Y-69783471D01*
X97790423Y-69783471D02*
X97790423Y-69926328D01*
X99290424Y-69926328D02*
X98433281Y-69926328D01*
X98861852Y-69926328D02*
X98861852Y-68426328D01*
X98861852Y-68426328D02*
X98718995Y-68640614D01*
X98718995Y-68640614D02*
X98576138Y-68783471D01*
X98576138Y-68783471D02*
X98433281Y-68854900D01*
X99718995Y-68426328D02*
X100218995Y-69926328D01*
X100218995Y-69926328D02*
X100718995Y-68426328D01*
X95888795Y-85825328D02*
X96817367Y-85825328D01*
X96817367Y-85825328D02*
X96317367Y-86396757D01*
X96317367Y-86396757D02*
X96531652Y-86396757D01*
X96531652Y-86396757D02*
X96674510Y-86468185D01*
X96674510Y-86468185D02*
X96745938Y-86539614D01*
X96745938Y-86539614D02*
X96817367Y-86682471D01*
X96817367Y-86682471D02*
X96817367Y-87039614D01*
X96817367Y-87039614D02*
X96745938Y-87182471D01*
X96745938Y-87182471D02*
X96674510Y-87253900D01*
X96674510Y-87253900D02*
X96531652Y-87325328D01*
X96531652Y-87325328D02*
X96103081Y-87325328D01*
X96103081Y-87325328D02*
X95960224Y-87253900D01*
X95960224Y-87253900D02*
X95888795Y-87182471D01*
X97460223Y-87182471D02*
X97531652Y-87253900D01*
X97531652Y-87253900D02*
X97460223Y-87325328D01*
X97460223Y-87325328D02*
X97388795Y-87253900D01*
X97388795Y-87253900D02*
X97460223Y-87182471D01*
X97460223Y-87182471D02*
X97460223Y-87325328D01*
X98031652Y-85825328D02*
X98960224Y-85825328D01*
X98960224Y-85825328D02*
X98460224Y-86396757D01*
X98460224Y-86396757D02*
X98674509Y-86396757D01*
X98674509Y-86396757D02*
X98817367Y-86468185D01*
X98817367Y-86468185D02*
X98888795Y-86539614D01*
X98888795Y-86539614D02*
X98960224Y-86682471D01*
X98960224Y-86682471D02*
X98960224Y-87039614D01*
X98960224Y-87039614D02*
X98888795Y-87182471D01*
X98888795Y-87182471D02*
X98817367Y-87253900D01*
X98817367Y-87253900D02*
X98674509Y-87325328D01*
X98674509Y-87325328D02*
X98245938Y-87325328D01*
X98245938Y-87325328D02*
X98103081Y-87253900D01*
X98103081Y-87253900D02*
X98031652Y-87182471D01*
X99388795Y-85825328D02*
X99888795Y-87325328D01*
X99888795Y-87325328D02*
X100388795Y-85825328D01*
D12*
X117794314Y-66123324D02*
X117286314Y-65397610D01*
X116923457Y-66123324D02*
X116923457Y-64599324D01*
X116923457Y-64599324D02*
X117504028Y-64599324D01*
X117504028Y-64599324D02*
X117649171Y-64671895D01*
X117649171Y-64671895D02*
X117721742Y-64744467D01*
X117721742Y-64744467D02*
X117794314Y-64889610D01*
X117794314Y-64889610D02*
X117794314Y-65107324D01*
X117794314Y-65107324D02*
X117721742Y-65252467D01*
X117721742Y-65252467D02*
X117649171Y-65325038D01*
X117649171Y-65325038D02*
X117504028Y-65397610D01*
X117504028Y-65397610D02*
X116923457Y-65397610D01*
X119028028Y-66050753D02*
X118882885Y-66123324D01*
X118882885Y-66123324D02*
X118592600Y-66123324D01*
X118592600Y-66123324D02*
X118447457Y-66050753D01*
X118447457Y-66050753D02*
X118374885Y-65905610D01*
X118374885Y-65905610D02*
X118374885Y-65325038D01*
X118374885Y-65325038D02*
X118447457Y-65179895D01*
X118447457Y-65179895D02*
X118592600Y-65107324D01*
X118592600Y-65107324D02*
X118882885Y-65107324D01*
X118882885Y-65107324D02*
X119028028Y-65179895D01*
X119028028Y-65179895D02*
X119100600Y-65325038D01*
X119100600Y-65325038D02*
X119100600Y-65470181D01*
X119100600Y-65470181D02*
X118374885Y-65615324D01*
X119608600Y-65107324D02*
X119971457Y-66123324D01*
X119971457Y-66123324D02*
X120334314Y-65107324D01*
X122874314Y-66123324D02*
X122003457Y-66123324D01*
X122438886Y-66123324D02*
X122438886Y-64599324D01*
X122438886Y-64599324D02*
X122293743Y-64817038D01*
X122293743Y-64817038D02*
X122148600Y-64962181D01*
X122148600Y-64962181D02*
X122003457Y-65034753D01*
X114673742Y-68576879D02*
X114673742Y-67052879D01*
X114673742Y-67052879D02*
X115036599Y-67052879D01*
X115036599Y-67052879D02*
X115254313Y-67125450D01*
X115254313Y-67125450D02*
X115399456Y-67270593D01*
X115399456Y-67270593D02*
X115472027Y-67415736D01*
X115472027Y-67415736D02*
X115544599Y-67706022D01*
X115544599Y-67706022D02*
X115544599Y-67923736D01*
X115544599Y-67923736D02*
X115472027Y-68214022D01*
X115472027Y-68214022D02*
X115399456Y-68359165D01*
X115399456Y-68359165D02*
X115254313Y-68504308D01*
X115254313Y-68504308D02*
X115036599Y-68576879D01*
X115036599Y-68576879D02*
X114673742Y-68576879D01*
X116778313Y-68504308D02*
X116633170Y-68576879D01*
X116633170Y-68576879D02*
X116342885Y-68576879D01*
X116342885Y-68576879D02*
X116197742Y-68504308D01*
X116197742Y-68504308D02*
X116125170Y-68359165D01*
X116125170Y-68359165D02*
X116125170Y-67778593D01*
X116125170Y-67778593D02*
X116197742Y-67633450D01*
X116197742Y-67633450D02*
X116342885Y-67560879D01*
X116342885Y-67560879D02*
X116633170Y-67560879D01*
X116633170Y-67560879D02*
X116778313Y-67633450D01*
X116778313Y-67633450D02*
X116850885Y-67778593D01*
X116850885Y-67778593D02*
X116850885Y-67923736D01*
X116850885Y-67923736D02*
X116125170Y-68068879D01*
X118157171Y-68504308D02*
X118012028Y-68576879D01*
X118012028Y-68576879D02*
X117721742Y-68576879D01*
X117721742Y-68576879D02*
X117576599Y-68504308D01*
X117576599Y-68504308D02*
X117504028Y-68431736D01*
X117504028Y-68431736D02*
X117431456Y-68286593D01*
X117431456Y-68286593D02*
X117431456Y-67851165D01*
X117431456Y-67851165D02*
X117504028Y-67706022D01*
X117504028Y-67706022D02*
X117576599Y-67633450D01*
X117576599Y-67633450D02*
X117721742Y-67560879D01*
X117721742Y-67560879D02*
X118012028Y-67560879D01*
X118012028Y-67560879D02*
X118157171Y-67633450D01*
X119898885Y-67198022D02*
X119971457Y-67125450D01*
X119971457Y-67125450D02*
X120116600Y-67052879D01*
X120116600Y-67052879D02*
X120479457Y-67052879D01*
X120479457Y-67052879D02*
X120624600Y-67125450D01*
X120624600Y-67125450D02*
X120697171Y-67198022D01*
X120697171Y-67198022D02*
X120769742Y-67343165D01*
X120769742Y-67343165D02*
X120769742Y-67488308D01*
X120769742Y-67488308D02*
X120697171Y-67706022D01*
X120697171Y-67706022D02*
X119826314Y-68576879D01*
X119826314Y-68576879D02*
X120769742Y-68576879D01*
X121713171Y-67052879D02*
X121858314Y-67052879D01*
X121858314Y-67052879D02*
X122003457Y-67125450D01*
X122003457Y-67125450D02*
X122076029Y-67198022D01*
X122076029Y-67198022D02*
X122148600Y-67343165D01*
X122148600Y-67343165D02*
X122221171Y-67633450D01*
X122221171Y-67633450D02*
X122221171Y-67996308D01*
X122221171Y-67996308D02*
X122148600Y-68286593D01*
X122148600Y-68286593D02*
X122076029Y-68431736D01*
X122076029Y-68431736D02*
X122003457Y-68504308D01*
X122003457Y-68504308D02*
X121858314Y-68576879D01*
X121858314Y-68576879D02*
X121713171Y-68576879D01*
X121713171Y-68576879D02*
X121568029Y-68504308D01*
X121568029Y-68504308D02*
X121495457Y-68431736D01*
X121495457Y-68431736D02*
X121422886Y-68286593D01*
X121422886Y-68286593D02*
X121350314Y-67996308D01*
X121350314Y-67996308D02*
X121350314Y-67633450D01*
X121350314Y-67633450D02*
X121422886Y-67343165D01*
X121422886Y-67343165D02*
X121495457Y-67198022D01*
X121495457Y-67198022D02*
X121568029Y-67125450D01*
X121568029Y-67125450D02*
X121713171Y-67052879D01*
X122801743Y-67198022D02*
X122874315Y-67125450D01*
X122874315Y-67125450D02*
X123019458Y-67052879D01*
X123019458Y-67052879D02*
X123382315Y-67052879D01*
X123382315Y-67052879D02*
X123527458Y-67125450D01*
X123527458Y-67125450D02*
X123600029Y-67198022D01*
X123600029Y-67198022D02*
X123672600Y-67343165D01*
X123672600Y-67343165D02*
X123672600Y-67488308D01*
X123672600Y-67488308D02*
X123600029Y-67706022D01*
X123600029Y-67706022D02*
X122729172Y-68576879D01*
X122729172Y-68576879D02*
X123672600Y-68576879D01*
X124978887Y-67560879D02*
X124978887Y-68576879D01*
X124616029Y-66980308D02*
X124253172Y-68068879D01*
X124253172Y-68068879D02*
X125196601Y-68068879D01*
D13*
X102784123Y-66081639D02*
X102723647Y-66051401D01*
X102723647Y-66051401D02*
X102663171Y-65990925D01*
X102663171Y-65990925D02*
X102572457Y-65900210D01*
X102572457Y-65900210D02*
X102511980Y-65869972D01*
X102511980Y-65869972D02*
X102451504Y-65869972D01*
X102481742Y-66021163D02*
X102421266Y-65990925D01*
X102421266Y-65990925D02*
X102360790Y-65930448D01*
X102360790Y-65930448D02*
X102330552Y-65809496D01*
X102330552Y-65809496D02*
X102330552Y-65597829D01*
X102330552Y-65597829D02*
X102360790Y-65476877D01*
X102360790Y-65476877D02*
X102421266Y-65416401D01*
X102421266Y-65416401D02*
X102481742Y-65386163D01*
X102481742Y-65386163D02*
X102602695Y-65386163D01*
X102602695Y-65386163D02*
X102663171Y-65416401D01*
X102663171Y-65416401D02*
X102723647Y-65476877D01*
X102723647Y-65476877D02*
X102753885Y-65597829D01*
X102753885Y-65597829D02*
X102753885Y-65809496D01*
X102753885Y-65809496D02*
X102723647Y-65930448D01*
X102723647Y-65930448D02*
X102663171Y-65990925D01*
X102663171Y-65990925D02*
X102602695Y-66021163D01*
X102602695Y-66021163D02*
X102481742Y-66021163D01*
X103358647Y-66021163D02*
X102995790Y-66021163D01*
X103177218Y-66021163D02*
X103177218Y-65386163D01*
X103177218Y-65386163D02*
X103116742Y-65476877D01*
X103116742Y-65476877D02*
X103056266Y-65537353D01*
X103056266Y-65537353D02*
X102995790Y-65567591D01*
X97499109Y-82023163D02*
X97499109Y-81388163D01*
X97499109Y-81388163D02*
X97650299Y-81388163D01*
X97650299Y-81388163D02*
X97741014Y-81418401D01*
X97741014Y-81418401D02*
X97801490Y-81478877D01*
X97801490Y-81478877D02*
X97831728Y-81539353D01*
X97831728Y-81539353D02*
X97861966Y-81660305D01*
X97861966Y-81660305D02*
X97861966Y-81751020D01*
X97861966Y-81751020D02*
X97831728Y-81871972D01*
X97831728Y-81871972D02*
X97801490Y-81932448D01*
X97801490Y-81932448D02*
X97741014Y-81992925D01*
X97741014Y-81992925D02*
X97650299Y-82023163D01*
X97650299Y-82023163D02*
X97499109Y-82023163D01*
X98103871Y-81448639D02*
X98134109Y-81418401D01*
X98134109Y-81418401D02*
X98194585Y-81388163D01*
X98194585Y-81388163D02*
X98345776Y-81388163D01*
X98345776Y-81388163D02*
X98406252Y-81418401D01*
X98406252Y-81418401D02*
X98436490Y-81448639D01*
X98436490Y-81448639D02*
X98466728Y-81509115D01*
X98466728Y-81509115D02*
X98466728Y-81569591D01*
X98466728Y-81569591D02*
X98436490Y-81660305D01*
X98436490Y-81660305D02*
X98073633Y-82023163D01*
X98073633Y-82023163D02*
X98466728Y-82023163D01*
X97549909Y-72904563D02*
X97549909Y-72269563D01*
X97549909Y-72269563D02*
X97701099Y-72269563D01*
X97701099Y-72269563D02*
X97791814Y-72299801D01*
X97791814Y-72299801D02*
X97852290Y-72360277D01*
X97852290Y-72360277D02*
X97882528Y-72420753D01*
X97882528Y-72420753D02*
X97912766Y-72541705D01*
X97912766Y-72541705D02*
X97912766Y-72632420D01*
X97912766Y-72632420D02*
X97882528Y-72753372D01*
X97882528Y-72753372D02*
X97852290Y-72813848D01*
X97852290Y-72813848D02*
X97791814Y-72874325D01*
X97791814Y-72874325D02*
X97701099Y-72904563D01*
X97701099Y-72904563D02*
X97549909Y-72904563D01*
X98517528Y-72904563D02*
X98154671Y-72904563D01*
X98336099Y-72904563D02*
X98336099Y-72269563D01*
X98336099Y-72269563D02*
X98275623Y-72360277D01*
X98275623Y-72360277D02*
X98215147Y-72420753D01*
X98215147Y-72420753D02*
X98154671Y-72450991D01*
X96899185Y-61474563D02*
X96687518Y-61172182D01*
X96536328Y-61474563D02*
X96536328Y-60839563D01*
X96536328Y-60839563D02*
X96778233Y-60839563D01*
X96778233Y-60839563D02*
X96838709Y-60869801D01*
X96838709Y-60869801D02*
X96868947Y-60900039D01*
X96868947Y-60900039D02*
X96899185Y-60960515D01*
X96899185Y-60960515D02*
X96899185Y-61051229D01*
X96899185Y-61051229D02*
X96868947Y-61111705D01*
X96868947Y-61111705D02*
X96838709Y-61141944D01*
X96838709Y-61141944D02*
X96778233Y-61172182D01*
X96778233Y-61172182D02*
X96536328Y-61172182D01*
X97503947Y-61474563D02*
X97141090Y-61474563D01*
X97322518Y-61474563D02*
X97322518Y-60839563D01*
X97322518Y-60839563D02*
X97262042Y-60930277D01*
X97262042Y-60930277D02*
X97201566Y-60990753D01*
X97201566Y-60990753D02*
X97141090Y-61020991D01*
X98048233Y-60839563D02*
X97927280Y-60839563D01*
X97927280Y-60839563D02*
X97866804Y-60869801D01*
X97866804Y-60869801D02*
X97836566Y-60900039D01*
X97836566Y-60900039D02*
X97776090Y-60990753D01*
X97776090Y-60990753D02*
X97745852Y-61111705D01*
X97745852Y-61111705D02*
X97745852Y-61353610D01*
X97745852Y-61353610D02*
X97776090Y-61414086D01*
X97776090Y-61414086D02*
X97806328Y-61444325D01*
X97806328Y-61444325D02*
X97866804Y-61474563D01*
X97866804Y-61474563D02*
X97987757Y-61474563D01*
X97987757Y-61474563D02*
X98048233Y-61444325D01*
X98048233Y-61444325D02*
X98078471Y-61414086D01*
X98078471Y-61414086D02*
X98108709Y-61353610D01*
X98108709Y-61353610D02*
X98108709Y-61202420D01*
X98108709Y-61202420D02*
X98078471Y-61141944D01*
X98078471Y-61141944D02*
X98048233Y-61111705D01*
X98048233Y-61111705D02*
X97987757Y-61081467D01*
X97987757Y-61081467D02*
X97866804Y-61081467D01*
X97866804Y-61081467D02*
X97806328Y-61111705D01*
X97806328Y-61111705D02*
X97776090Y-61141944D01*
X97776090Y-61141944D02*
X97745852Y-61202420D01*
D14*
X126302709Y-65387359D02*
X126302709Y-64752359D01*
X126302709Y-64752359D02*
X126453899Y-64752359D01*
X126453899Y-64752359D02*
X126544614Y-64782597D01*
X126544614Y-64782597D02*
X126605090Y-64843073D01*
X126605090Y-64843073D02*
X126635328Y-64903549D01*
X126635328Y-64903549D02*
X126665566Y-65024501D01*
X126665566Y-65024501D02*
X126665566Y-65115216D01*
X126665566Y-65115216D02*
X126635328Y-65236168D01*
X126635328Y-65236168D02*
X126605090Y-65296644D01*
X126605090Y-65296644D02*
X126544614Y-65357121D01*
X126544614Y-65357121D02*
X126453899Y-65387359D01*
X126453899Y-65387359D02*
X126302709Y-65387359D01*
X127209852Y-64752359D02*
X127088899Y-64752359D01*
X127088899Y-64752359D02*
X127028423Y-64782597D01*
X127028423Y-64782597D02*
X126998185Y-64812835D01*
X126998185Y-64812835D02*
X126937709Y-64903549D01*
X126937709Y-64903549D02*
X126907471Y-65024501D01*
X126907471Y-65024501D02*
X126907471Y-65266406D01*
X126907471Y-65266406D02*
X126937709Y-65326882D01*
X126937709Y-65326882D02*
X126967947Y-65357121D01*
X126967947Y-65357121D02*
X127028423Y-65387359D01*
X127028423Y-65387359D02*
X127149376Y-65387359D01*
X127149376Y-65387359D02*
X127209852Y-65357121D01*
X127209852Y-65357121D02*
X127240090Y-65326882D01*
X127240090Y-65326882D02*
X127270328Y-65266406D01*
X127270328Y-65266406D02*
X127270328Y-65115216D01*
X127270328Y-65115216D02*
X127240090Y-65054740D01*
X127240090Y-65054740D02*
X127209852Y-65024501D01*
X127209852Y-65024501D02*
X127149376Y-64994263D01*
X127149376Y-64994263D02*
X127028423Y-64994263D01*
X127028423Y-64994263D02*
X126967947Y-65024501D01*
X126967947Y-65024501D02*
X126937709Y-65054740D01*
X126937709Y-65054740D02*
X126907471Y-65115216D01*
D13*
X97346709Y-90441963D02*
X97346709Y-89806963D01*
X97346709Y-89806963D02*
X97497899Y-89806963D01*
X97497899Y-89806963D02*
X97588614Y-89837201D01*
X97588614Y-89837201D02*
X97649090Y-89897677D01*
X97649090Y-89897677D02*
X97679328Y-89958153D01*
X97679328Y-89958153D02*
X97709566Y-90079105D01*
X97709566Y-90079105D02*
X97709566Y-90169820D01*
X97709566Y-90169820D02*
X97679328Y-90290772D01*
X97679328Y-90290772D02*
X97649090Y-90351248D01*
X97649090Y-90351248D02*
X97588614Y-90411725D01*
X97588614Y-90411725D02*
X97497899Y-90441963D01*
X97497899Y-90441963D02*
X97346709Y-90441963D01*
X97921233Y-89806963D02*
X98314328Y-89806963D01*
X98314328Y-89806963D02*
X98102661Y-90048867D01*
X98102661Y-90048867D02*
X98193376Y-90048867D01*
X98193376Y-90048867D02*
X98253852Y-90079105D01*
X98253852Y-90079105D02*
X98284090Y-90109344D01*
X98284090Y-90109344D02*
X98314328Y-90169820D01*
X98314328Y-90169820D02*
X98314328Y-90321010D01*
X98314328Y-90321010D02*
X98284090Y-90381486D01*
X98284090Y-90381486D02*
X98253852Y-90411725D01*
X98253852Y-90411725D02*
X98193376Y-90441963D01*
X98193376Y-90441963D02*
X98011947Y-90441963D01*
X98011947Y-90441963D02*
X97951471Y-90411725D01*
X97951471Y-90411725D02*
X97921233Y-90381486D01*
X109270963Y-79173809D02*
X109785010Y-79173809D01*
X109785010Y-79173809D02*
X109845486Y-79143571D01*
X109845486Y-79143571D02*
X109875725Y-79113333D01*
X109875725Y-79113333D02*
X109905963Y-79052857D01*
X109905963Y-79052857D02*
X109905963Y-78931904D01*
X109905963Y-78931904D02*
X109875725Y-78871428D01*
X109875725Y-78871428D02*
X109845486Y-78841190D01*
X109845486Y-78841190D02*
X109785010Y-78810952D01*
X109785010Y-78810952D02*
X109270963Y-78810952D01*
X109905963Y-78478333D02*
X109905963Y-78357381D01*
X109905963Y-78357381D02*
X109875725Y-78296904D01*
X109875725Y-78296904D02*
X109845486Y-78266666D01*
X109845486Y-78266666D02*
X109754772Y-78206190D01*
X109754772Y-78206190D02*
X109633820Y-78175952D01*
X109633820Y-78175952D02*
X109391915Y-78175952D01*
X109391915Y-78175952D02*
X109331439Y-78206190D01*
X109331439Y-78206190D02*
X109301201Y-78236428D01*
X109301201Y-78236428D02*
X109270963Y-78296904D01*
X109270963Y-78296904D02*
X109270963Y-78417857D01*
X109270963Y-78417857D02*
X109301201Y-78478333D01*
X109301201Y-78478333D02*
X109331439Y-78508571D01*
X109331439Y-78508571D02*
X109391915Y-78538809D01*
X109391915Y-78538809D02*
X109543105Y-78538809D01*
X109543105Y-78538809D02*
X109603582Y-78508571D01*
X109603582Y-78508571D02*
X109633820Y-78478333D01*
X109633820Y-78478333D02*
X109664058Y-78417857D01*
X109664058Y-78417857D02*
X109664058Y-78296904D01*
X109664058Y-78296904D02*
X109633820Y-78236428D01*
X109633820Y-78236428D02*
X109603582Y-78206190D01*
X109603582Y-78206190D02*
X109543105Y-78175952D01*
X107821185Y-68246686D02*
X107790947Y-68276925D01*
X107790947Y-68276925D02*
X107700233Y-68307163D01*
X107700233Y-68307163D02*
X107639757Y-68307163D01*
X107639757Y-68307163D02*
X107549042Y-68276925D01*
X107549042Y-68276925D02*
X107488566Y-68216448D01*
X107488566Y-68216448D02*
X107458328Y-68155972D01*
X107458328Y-68155972D02*
X107428090Y-68035020D01*
X107428090Y-68035020D02*
X107428090Y-67944305D01*
X107428090Y-67944305D02*
X107458328Y-67823353D01*
X107458328Y-67823353D02*
X107488566Y-67762877D01*
X107488566Y-67762877D02*
X107549042Y-67702401D01*
X107549042Y-67702401D02*
X107639757Y-67672163D01*
X107639757Y-67672163D02*
X107700233Y-67672163D01*
X107700233Y-67672163D02*
X107790947Y-67702401D01*
X107790947Y-67702401D02*
X107821185Y-67732639D01*
X108425947Y-68307163D02*
X108063090Y-68307163D01*
X108244518Y-68307163D02*
X108244518Y-67672163D01*
X108244518Y-67672163D02*
X108184042Y-67762877D01*
X108184042Y-67762877D02*
X108123566Y-67823353D01*
X108123566Y-67823353D02*
X108063090Y-67853591D01*
X109030709Y-68307163D02*
X108667852Y-68307163D01*
X108849280Y-68307163D02*
X108849280Y-67672163D01*
X108849280Y-67672163D02*
X108788804Y-67762877D01*
X108788804Y-67762877D02*
X108728328Y-67823353D01*
X108728328Y-67823353D02*
X108667852Y-67853591D01*
X92936785Y-82023163D02*
X92725118Y-81720782D01*
X92573928Y-82023163D02*
X92573928Y-81388163D01*
X92573928Y-81388163D02*
X92815833Y-81388163D01*
X92815833Y-81388163D02*
X92876309Y-81418401D01*
X92876309Y-81418401D02*
X92906547Y-81448639D01*
X92906547Y-81448639D02*
X92936785Y-81509115D01*
X92936785Y-81509115D02*
X92936785Y-81599829D01*
X92936785Y-81599829D02*
X92906547Y-81660305D01*
X92906547Y-81660305D02*
X92876309Y-81690544D01*
X92876309Y-81690544D02*
X92815833Y-81720782D01*
X92815833Y-81720782D02*
X92573928Y-81720782D01*
X93541547Y-82023163D02*
X93178690Y-82023163D01*
X93360118Y-82023163D02*
X93360118Y-81388163D01*
X93360118Y-81388163D02*
X93299642Y-81478877D01*
X93299642Y-81478877D02*
X93239166Y-81539353D01*
X93239166Y-81539353D02*
X93178690Y-81569591D01*
X93934642Y-81388163D02*
X93995119Y-81388163D01*
X93995119Y-81388163D02*
X94055595Y-81418401D01*
X94055595Y-81418401D02*
X94085833Y-81448639D01*
X94085833Y-81448639D02*
X94116071Y-81509115D01*
X94116071Y-81509115D02*
X94146309Y-81630067D01*
X94146309Y-81630067D02*
X94146309Y-81781258D01*
X94146309Y-81781258D02*
X94116071Y-81902210D01*
X94116071Y-81902210D02*
X94085833Y-81962686D01*
X94085833Y-81962686D02*
X94055595Y-81992925D01*
X94055595Y-81992925D02*
X93995119Y-82023163D01*
X93995119Y-82023163D02*
X93934642Y-82023163D01*
X93934642Y-82023163D02*
X93874166Y-81992925D01*
X93874166Y-81992925D02*
X93843928Y-81962686D01*
X93843928Y-81962686D02*
X93813690Y-81902210D01*
X93813690Y-81902210D02*
X93783452Y-81781258D01*
X93783452Y-81781258D02*
X93783452Y-81630067D01*
X93783452Y-81630067D02*
X93813690Y-81509115D01*
X93813690Y-81509115D02*
X93843928Y-81448639D01*
X93843928Y-81448639D02*
X93874166Y-81418401D01*
X93874166Y-81418401D02*
X93934642Y-81388163D01*
X125541905Y-92394819D02*
X125541905Y-93204342D01*
X125541905Y-93204342D02*
X125589524Y-93299580D01*
X125589524Y-93299580D02*
X125637143Y-93347200D01*
X125637143Y-93347200D02*
X125732381Y-93394819D01*
X125732381Y-93394819D02*
X125922857Y-93394819D01*
X125922857Y-93394819D02*
X126018095Y-93347200D01*
X126018095Y-93347200D02*
X126065714Y-93299580D01*
X126065714Y-93299580D02*
X126113333Y-93204342D01*
X126113333Y-93204342D02*
X126113333Y-92394819D01*
X127113333Y-93394819D02*
X126541905Y-93394819D01*
X126827619Y-93394819D02*
X126827619Y-92394819D01*
X126827619Y-92394819D02*
X126732381Y-92537676D01*
X126732381Y-92537676D02*
X126637143Y-92632914D01*
X126637143Y-92632914D02*
X126541905Y-92680533D01*
X128065714Y-93394819D02*
X127494286Y-93394819D01*
X127780000Y-93394819D02*
X127780000Y-92394819D01*
X127780000Y-92394819D02*
X127684762Y-92537676D01*
X127684762Y-92537676D02*
X127589524Y-92632914D01*
X127589524Y-92632914D02*
X127494286Y-92680533D01*
X102860323Y-83683839D02*
X102799847Y-83653601D01*
X102799847Y-83653601D02*
X102739371Y-83593125D01*
X102739371Y-83593125D02*
X102648657Y-83502410D01*
X102648657Y-83502410D02*
X102588180Y-83472172D01*
X102588180Y-83472172D02*
X102527704Y-83472172D01*
X102557942Y-83623363D02*
X102497466Y-83593125D01*
X102497466Y-83593125D02*
X102436990Y-83532648D01*
X102436990Y-83532648D02*
X102406752Y-83411696D01*
X102406752Y-83411696D02*
X102406752Y-83200029D01*
X102406752Y-83200029D02*
X102436990Y-83079077D01*
X102436990Y-83079077D02*
X102497466Y-83018601D01*
X102497466Y-83018601D02*
X102557942Y-82988363D01*
X102557942Y-82988363D02*
X102678895Y-82988363D01*
X102678895Y-82988363D02*
X102739371Y-83018601D01*
X102739371Y-83018601D02*
X102799847Y-83079077D01*
X102799847Y-83079077D02*
X102830085Y-83200029D01*
X102830085Y-83200029D02*
X102830085Y-83411696D01*
X102830085Y-83411696D02*
X102799847Y-83532648D01*
X102799847Y-83532648D02*
X102739371Y-83593125D01*
X102739371Y-83593125D02*
X102678895Y-83623363D01*
X102678895Y-83623363D02*
X102557942Y-83623363D01*
X103041752Y-82988363D02*
X103434847Y-82988363D01*
X103434847Y-82988363D02*
X103223180Y-83230267D01*
X103223180Y-83230267D02*
X103313895Y-83230267D01*
X103313895Y-83230267D02*
X103374371Y-83260505D01*
X103374371Y-83260505D02*
X103404609Y-83290744D01*
X103404609Y-83290744D02*
X103434847Y-83351220D01*
X103434847Y-83351220D02*
X103434847Y-83502410D01*
X103434847Y-83502410D02*
X103404609Y-83562886D01*
X103404609Y-83562886D02*
X103374371Y-83593125D01*
X103374371Y-83593125D02*
X103313895Y-83623363D01*
X103313895Y-83623363D02*
X103132466Y-83623363D01*
X103132466Y-83623363D02*
X103071990Y-83593125D01*
X103071990Y-83593125D02*
X103041752Y-83562886D01*
X106602590Y-78879063D02*
X106602590Y-79393110D01*
X106602590Y-79393110D02*
X106632828Y-79453586D01*
X106632828Y-79453586D02*
X106663066Y-79483825D01*
X106663066Y-79483825D02*
X106723542Y-79514063D01*
X106723542Y-79514063D02*
X106844495Y-79514063D01*
X106844495Y-79514063D02*
X106904971Y-79483825D01*
X106904971Y-79483825D02*
X106935209Y-79453586D01*
X106935209Y-79453586D02*
X106965447Y-79393110D01*
X106965447Y-79393110D02*
X106965447Y-78879063D01*
X107358542Y-79151205D02*
X107298066Y-79120967D01*
X107298066Y-79120967D02*
X107267828Y-79090729D01*
X107267828Y-79090729D02*
X107237590Y-79030253D01*
X107237590Y-79030253D02*
X107237590Y-79000015D01*
X107237590Y-79000015D02*
X107267828Y-78939539D01*
X107267828Y-78939539D02*
X107298066Y-78909301D01*
X107298066Y-78909301D02*
X107358542Y-78879063D01*
X107358542Y-78879063D02*
X107479495Y-78879063D01*
X107479495Y-78879063D02*
X107539971Y-78909301D01*
X107539971Y-78909301D02*
X107570209Y-78939539D01*
X107570209Y-78939539D02*
X107600447Y-79000015D01*
X107600447Y-79000015D02*
X107600447Y-79030253D01*
X107600447Y-79030253D02*
X107570209Y-79090729D01*
X107570209Y-79090729D02*
X107539971Y-79120967D01*
X107539971Y-79120967D02*
X107479495Y-79151205D01*
X107479495Y-79151205D02*
X107358542Y-79151205D01*
X107358542Y-79151205D02*
X107298066Y-79181444D01*
X107298066Y-79181444D02*
X107267828Y-79211682D01*
X107267828Y-79211682D02*
X107237590Y-79272158D01*
X107237590Y-79272158D02*
X107237590Y-79393110D01*
X107237590Y-79393110D02*
X107267828Y-79453586D01*
X107267828Y-79453586D02*
X107298066Y-79483825D01*
X107298066Y-79483825D02*
X107358542Y-79514063D01*
X107358542Y-79514063D02*
X107479495Y-79514063D01*
X107479495Y-79514063D02*
X107539971Y-79483825D01*
X107539971Y-79483825D02*
X107570209Y-79453586D01*
X107570209Y-79453586D02*
X107600447Y-79393110D01*
X107600447Y-79393110D02*
X107600447Y-79272158D01*
X107600447Y-79272158D02*
X107570209Y-79211682D01*
X107570209Y-79211682D02*
X107539971Y-79181444D01*
X107539971Y-79181444D02*
X107479495Y-79151205D01*
X97067309Y-65259163D02*
X97067309Y-64624163D01*
X97067309Y-64624163D02*
X97218499Y-64624163D01*
X97218499Y-64624163D02*
X97309214Y-64654401D01*
X97309214Y-64654401D02*
X97369690Y-64714877D01*
X97369690Y-64714877D02*
X97399928Y-64775353D01*
X97399928Y-64775353D02*
X97430166Y-64896305D01*
X97430166Y-64896305D02*
X97430166Y-64987020D01*
X97430166Y-64987020D02*
X97399928Y-65107972D01*
X97399928Y-65107972D02*
X97369690Y-65168448D01*
X97369690Y-65168448D02*
X97309214Y-65228925D01*
X97309214Y-65228925D02*
X97218499Y-65259163D01*
X97218499Y-65259163D02*
X97067309Y-65259163D01*
X97974452Y-64835829D02*
X97974452Y-65259163D01*
X97823261Y-64593925D02*
X97672071Y-65047496D01*
X97672071Y-65047496D02*
X98065166Y-65047496D01*
X107550609Y-97825628D02*
X107550609Y-98301819D01*
X107217276Y-97301819D02*
X107550609Y-97825628D01*
X107550609Y-97825628D02*
X107883942Y-97301819D01*
X108741085Y-98301819D02*
X108169657Y-98301819D01*
X108455371Y-98301819D02*
X108455371Y-97301819D01*
X108455371Y-97301819D02*
X108360133Y-97444676D01*
X108360133Y-97444676D02*
X108264895Y-97539914D01*
X108264895Y-97539914D02*
X108169657Y-97587533D01*
X102803566Y-82023163D02*
X102591899Y-81720782D01*
X102440709Y-82023163D02*
X102440709Y-81388163D01*
X102440709Y-81388163D02*
X102682614Y-81388163D01*
X102682614Y-81388163D02*
X102743090Y-81418401D01*
X102743090Y-81418401D02*
X102773328Y-81448639D01*
X102773328Y-81448639D02*
X102803566Y-81509115D01*
X102803566Y-81509115D02*
X102803566Y-81599829D01*
X102803566Y-81599829D02*
X102773328Y-81660305D01*
X102773328Y-81660305D02*
X102743090Y-81690544D01*
X102743090Y-81690544D02*
X102682614Y-81720782D01*
X102682614Y-81720782D02*
X102440709Y-81720782D01*
X103105947Y-82023163D02*
X103226899Y-82023163D01*
X103226899Y-82023163D02*
X103287376Y-81992925D01*
X103287376Y-81992925D02*
X103317614Y-81962686D01*
X103317614Y-81962686D02*
X103378090Y-81871972D01*
X103378090Y-81871972D02*
X103408328Y-81751020D01*
X103408328Y-81751020D02*
X103408328Y-81509115D01*
X103408328Y-81509115D02*
X103378090Y-81448639D01*
X103378090Y-81448639D02*
X103347852Y-81418401D01*
X103347852Y-81418401D02*
X103287376Y-81388163D01*
X103287376Y-81388163D02*
X103166423Y-81388163D01*
X103166423Y-81388163D02*
X103105947Y-81418401D01*
X103105947Y-81418401D02*
X103075709Y-81448639D01*
X103075709Y-81448639D02*
X103045471Y-81509115D01*
X103045471Y-81509115D02*
X103045471Y-81660305D01*
X103045471Y-81660305D02*
X103075709Y-81720782D01*
X103075709Y-81720782D02*
X103105947Y-81751020D01*
X103105947Y-81751020D02*
X103166423Y-81781258D01*
X103166423Y-81781258D02*
X103287376Y-81781258D01*
X103287376Y-81781258D02*
X103347852Y-81751020D01*
X103347852Y-81751020D02*
X103378090Y-81720782D01*
X103378090Y-81720782D02*
X103408328Y-81660305D01*
X102563385Y-90354363D02*
X102351718Y-90051982D01*
X102200528Y-90354363D02*
X102200528Y-89719363D01*
X102200528Y-89719363D02*
X102442433Y-89719363D01*
X102442433Y-89719363D02*
X102502909Y-89749601D01*
X102502909Y-89749601D02*
X102533147Y-89779839D01*
X102533147Y-89779839D02*
X102563385Y-89840315D01*
X102563385Y-89840315D02*
X102563385Y-89931029D01*
X102563385Y-89931029D02*
X102533147Y-89991505D01*
X102533147Y-89991505D02*
X102502909Y-90021744D01*
X102502909Y-90021744D02*
X102442433Y-90051982D01*
X102442433Y-90051982D02*
X102200528Y-90051982D01*
X103168147Y-90354363D02*
X102805290Y-90354363D01*
X102986718Y-90354363D02*
X102986718Y-89719363D01*
X102986718Y-89719363D02*
X102926242Y-89810077D01*
X102926242Y-89810077D02*
X102865766Y-89870553D01*
X102865766Y-89870553D02*
X102805290Y-89900791D01*
X103712433Y-89931029D02*
X103712433Y-90354363D01*
X103561242Y-89689125D02*
X103410052Y-90142696D01*
X103410052Y-90142696D02*
X103803147Y-90142696D01*
X104341990Y-72842463D02*
X104341990Y-73356510D01*
X104341990Y-73356510D02*
X104372228Y-73416986D01*
X104372228Y-73416986D02*
X104402466Y-73447225D01*
X104402466Y-73447225D02*
X104462942Y-73477463D01*
X104462942Y-73477463D02*
X104583895Y-73477463D01*
X104583895Y-73477463D02*
X104644371Y-73447225D01*
X104644371Y-73447225D02*
X104674609Y-73416986D01*
X104674609Y-73416986D02*
X104704847Y-73356510D01*
X104704847Y-73356510D02*
X104704847Y-72842463D01*
X104946752Y-72842463D02*
X105370085Y-72842463D01*
X105370085Y-72842463D02*
X105097942Y-73477463D01*
D14*
X136310309Y-65438159D02*
X136310309Y-64803159D01*
X136310309Y-64803159D02*
X136461499Y-64803159D01*
X136461499Y-64803159D02*
X136552214Y-64833397D01*
X136552214Y-64833397D02*
X136612690Y-64893873D01*
X136612690Y-64893873D02*
X136642928Y-64954349D01*
X136642928Y-64954349D02*
X136673166Y-65075301D01*
X136673166Y-65075301D02*
X136673166Y-65166016D01*
X136673166Y-65166016D02*
X136642928Y-65286968D01*
X136642928Y-65286968D02*
X136612690Y-65347444D01*
X136612690Y-65347444D02*
X136552214Y-65407921D01*
X136552214Y-65407921D02*
X136461499Y-65438159D01*
X136461499Y-65438159D02*
X136310309Y-65438159D01*
X137247690Y-64803159D02*
X136945309Y-64803159D01*
X136945309Y-64803159D02*
X136915071Y-65105540D01*
X136915071Y-65105540D02*
X136945309Y-65075301D01*
X136945309Y-65075301D02*
X137005785Y-65045063D01*
X137005785Y-65045063D02*
X137156976Y-65045063D01*
X137156976Y-65045063D02*
X137217452Y-65075301D01*
X137217452Y-65075301D02*
X137247690Y-65105540D01*
X137247690Y-65105540D02*
X137277928Y-65166016D01*
X137277928Y-65166016D02*
X137277928Y-65317206D01*
X137277928Y-65317206D02*
X137247690Y-65377682D01*
X137247690Y-65377682D02*
X137217452Y-65407921D01*
X137217452Y-65407921D02*
X137156976Y-65438159D01*
X137156976Y-65438159D02*
X137005785Y-65438159D01*
X137005785Y-65438159D02*
X136945309Y-65407921D01*
X136945309Y-65407921D02*
X136915071Y-65377682D01*
D13*
X102916566Y-72904563D02*
X102704899Y-72602182D01*
X102553709Y-72904563D02*
X102553709Y-72269563D01*
X102553709Y-72269563D02*
X102795614Y-72269563D01*
X102795614Y-72269563D02*
X102856090Y-72299801D01*
X102856090Y-72299801D02*
X102886328Y-72330039D01*
X102886328Y-72330039D02*
X102916566Y-72390515D01*
X102916566Y-72390515D02*
X102916566Y-72481229D01*
X102916566Y-72481229D02*
X102886328Y-72541705D01*
X102886328Y-72541705D02*
X102856090Y-72571944D01*
X102856090Y-72571944D02*
X102795614Y-72602182D01*
X102795614Y-72602182D02*
X102553709Y-72602182D01*
X103460852Y-72481229D02*
X103460852Y-72904563D01*
X103309661Y-72239325D02*
X103158471Y-72692896D01*
X103158471Y-72692896D02*
X103551566Y-72692896D01*
X107617985Y-93707163D02*
X107406318Y-93404782D01*
X107255128Y-93707163D02*
X107255128Y-93072163D01*
X107255128Y-93072163D02*
X107497033Y-93072163D01*
X107497033Y-93072163D02*
X107557509Y-93102401D01*
X107557509Y-93102401D02*
X107587747Y-93132639D01*
X107587747Y-93132639D02*
X107617985Y-93193115D01*
X107617985Y-93193115D02*
X107617985Y-93283829D01*
X107617985Y-93283829D02*
X107587747Y-93344305D01*
X107587747Y-93344305D02*
X107557509Y-93374544D01*
X107557509Y-93374544D02*
X107497033Y-93404782D01*
X107497033Y-93404782D02*
X107255128Y-93404782D01*
X108222747Y-93707163D02*
X107859890Y-93707163D01*
X108041318Y-93707163D02*
X108041318Y-93072163D01*
X108041318Y-93072163D02*
X107980842Y-93162877D01*
X107980842Y-93162877D02*
X107920366Y-93223353D01*
X107920366Y-93223353D02*
X107859890Y-93253591D01*
X108585604Y-93344305D02*
X108525128Y-93314067D01*
X108525128Y-93314067D02*
X108494890Y-93283829D01*
X108494890Y-93283829D02*
X108464652Y-93223353D01*
X108464652Y-93223353D02*
X108464652Y-93193115D01*
X108464652Y-93193115D02*
X108494890Y-93132639D01*
X108494890Y-93132639D02*
X108525128Y-93102401D01*
X108525128Y-93102401D02*
X108585604Y-93072163D01*
X108585604Y-93072163D02*
X108706557Y-93072163D01*
X108706557Y-93072163D02*
X108767033Y-93102401D01*
X108767033Y-93102401D02*
X108797271Y-93132639D01*
X108797271Y-93132639D02*
X108827509Y-93193115D01*
X108827509Y-93193115D02*
X108827509Y-93223353D01*
X108827509Y-93223353D02*
X108797271Y-93283829D01*
X108797271Y-93283829D02*
X108767033Y-93314067D01*
X108767033Y-93314067D02*
X108706557Y-93344305D01*
X108706557Y-93344305D02*
X108585604Y-93344305D01*
X108585604Y-93344305D02*
X108525128Y-93374544D01*
X108525128Y-93374544D02*
X108494890Y-93404782D01*
X108494890Y-93404782D02*
X108464652Y-93465258D01*
X108464652Y-93465258D02*
X108464652Y-93586210D01*
X108464652Y-93586210D02*
X108494890Y-93646686D01*
X108494890Y-93646686D02*
X108525128Y-93676925D01*
X108525128Y-93676925D02*
X108585604Y-93707163D01*
X108585604Y-93707163D02*
X108706557Y-93707163D01*
X108706557Y-93707163D02*
X108767033Y-93676925D01*
X108767033Y-93676925D02*
X108797271Y-93646686D01*
X108797271Y-93646686D02*
X108827509Y-93586210D01*
X108827509Y-93586210D02*
X108827509Y-93465258D01*
X108827509Y-93465258D02*
X108797271Y-93404782D01*
X108797271Y-93404782D02*
X108767033Y-93374544D01*
X108767033Y-93374544D02*
X108706557Y-93344305D01*
X102784123Y-75073239D02*
X102723647Y-75043001D01*
X102723647Y-75043001D02*
X102663171Y-74982525D01*
X102663171Y-74982525D02*
X102572457Y-74891810D01*
X102572457Y-74891810D02*
X102511980Y-74861572D01*
X102511980Y-74861572D02*
X102451504Y-74861572D01*
X102481742Y-75012763D02*
X102421266Y-74982525D01*
X102421266Y-74982525D02*
X102360790Y-74922048D01*
X102360790Y-74922048D02*
X102330552Y-74801096D01*
X102330552Y-74801096D02*
X102330552Y-74589429D01*
X102330552Y-74589429D02*
X102360790Y-74468477D01*
X102360790Y-74468477D02*
X102421266Y-74408001D01*
X102421266Y-74408001D02*
X102481742Y-74377763D01*
X102481742Y-74377763D02*
X102602695Y-74377763D01*
X102602695Y-74377763D02*
X102663171Y-74408001D01*
X102663171Y-74408001D02*
X102723647Y-74468477D01*
X102723647Y-74468477D02*
X102753885Y-74589429D01*
X102753885Y-74589429D02*
X102753885Y-74801096D01*
X102753885Y-74801096D02*
X102723647Y-74922048D01*
X102723647Y-74922048D02*
X102663171Y-74982525D01*
X102663171Y-74982525D02*
X102602695Y-75012763D01*
X102602695Y-75012763D02*
X102481742Y-75012763D01*
X102995790Y-74438239D02*
X103026028Y-74408001D01*
X103026028Y-74408001D02*
X103086504Y-74377763D01*
X103086504Y-74377763D02*
X103237695Y-74377763D01*
X103237695Y-74377763D02*
X103298171Y-74408001D01*
X103298171Y-74408001D02*
X103328409Y-74438239D01*
X103328409Y-74438239D02*
X103358647Y-74498715D01*
X103358647Y-74498715D02*
X103358647Y-74559191D01*
X103358647Y-74559191D02*
X103328409Y-74649905D01*
X103328409Y-74649905D02*
X102965552Y-75012763D01*
X102965552Y-75012763D02*
X103358647Y-75012763D01*
X135840305Y-91094419D02*
X135840305Y-91903942D01*
X135840305Y-91903942D02*
X135887924Y-91999180D01*
X135887924Y-91999180D02*
X135935543Y-92046800D01*
X135935543Y-92046800D02*
X136030781Y-92094419D01*
X136030781Y-92094419D02*
X136221257Y-92094419D01*
X136221257Y-92094419D02*
X136316495Y-92046800D01*
X136316495Y-92046800D02*
X136364114Y-91999180D01*
X136364114Y-91999180D02*
X136411733Y-91903942D01*
X136411733Y-91903942D02*
X136411733Y-91094419D01*
X137411733Y-92094419D02*
X136840305Y-92094419D01*
X137126019Y-92094419D02*
X137126019Y-91094419D01*
X137126019Y-91094419D02*
X137030781Y-91237276D01*
X137030781Y-91237276D02*
X136935543Y-91332514D01*
X136935543Y-91332514D02*
X136840305Y-91380133D01*
X138030781Y-91094419D02*
X138126019Y-91094419D01*
X138126019Y-91094419D02*
X138221257Y-91142038D01*
X138221257Y-91142038D02*
X138268876Y-91189657D01*
X138268876Y-91189657D02*
X138316495Y-91284895D01*
X138316495Y-91284895D02*
X138364114Y-91475371D01*
X138364114Y-91475371D02*
X138364114Y-91713466D01*
X138364114Y-91713466D02*
X138316495Y-91903942D01*
X138316495Y-91903942D02*
X138268876Y-91999180D01*
X138268876Y-91999180D02*
X138221257Y-92046800D01*
X138221257Y-92046800D02*
X138126019Y-92094419D01*
X138126019Y-92094419D02*
X138030781Y-92094419D01*
X138030781Y-92094419D02*
X137935543Y-92046800D01*
X137935543Y-92046800D02*
X137887924Y-91999180D01*
X137887924Y-91999180D02*
X137840305Y-91903942D01*
X137840305Y-91903942D02*
X137792686Y-91713466D01*
X137792686Y-91713466D02*
X137792686Y-91475371D01*
X137792686Y-91475371D02*
X137840305Y-91284895D01*
X137840305Y-91284895D02*
X137887924Y-91189657D01*
X137887924Y-91189657D02*
X137935543Y-91142038D01*
X137935543Y-91142038D02*
X138030781Y-91094419D01*
X93151385Y-90421518D02*
X92939718Y-90119137D01*
X92788528Y-90421518D02*
X92788528Y-89786518D01*
X92788528Y-89786518D02*
X93030433Y-89786518D01*
X93030433Y-89786518D02*
X93090909Y-89816756D01*
X93090909Y-89816756D02*
X93121147Y-89846994D01*
X93121147Y-89846994D02*
X93151385Y-89907470D01*
X93151385Y-89907470D02*
X93151385Y-89998184D01*
X93151385Y-89998184D02*
X93121147Y-90058660D01*
X93121147Y-90058660D02*
X93090909Y-90088899D01*
X93090909Y-90088899D02*
X93030433Y-90119137D01*
X93030433Y-90119137D02*
X92788528Y-90119137D01*
X93756147Y-90421518D02*
X93393290Y-90421518D01*
X93574718Y-90421518D02*
X93574718Y-89786518D01*
X93574718Y-89786518D02*
X93514242Y-89877232D01*
X93514242Y-89877232D02*
X93453766Y-89937708D01*
X93453766Y-89937708D02*
X93393290Y-89967946D01*
X94330671Y-89786518D02*
X94028290Y-89786518D01*
X94028290Y-89786518D02*
X93998052Y-90088899D01*
X93998052Y-90088899D02*
X94028290Y-90058660D01*
X94028290Y-90058660D02*
X94088766Y-90028422D01*
X94088766Y-90028422D02*
X94239957Y-90028422D01*
X94239957Y-90028422D02*
X94300433Y-90058660D01*
X94300433Y-90058660D02*
X94330671Y-90088899D01*
X94330671Y-90088899D02*
X94360909Y-90149375D01*
X94360909Y-90149375D02*
X94360909Y-90300565D01*
X94360909Y-90300565D02*
X94330671Y-90361041D01*
X94330671Y-90361041D02*
X94300433Y-90391280D01*
X94300433Y-90391280D02*
X94239957Y-90421518D01*
X94239957Y-90421518D02*
X94088766Y-90421518D01*
X94088766Y-90421518D02*
X94028290Y-90391280D01*
X94028290Y-90391280D02*
X93998052Y-90361041D01*
X105611385Y-93707163D02*
X105399718Y-93404782D01*
X105248528Y-93707163D02*
X105248528Y-93072163D01*
X105248528Y-93072163D02*
X105490433Y-93072163D01*
X105490433Y-93072163D02*
X105550909Y-93102401D01*
X105550909Y-93102401D02*
X105581147Y-93132639D01*
X105581147Y-93132639D02*
X105611385Y-93193115D01*
X105611385Y-93193115D02*
X105611385Y-93283829D01*
X105611385Y-93283829D02*
X105581147Y-93344305D01*
X105581147Y-93344305D02*
X105550909Y-93374544D01*
X105550909Y-93374544D02*
X105490433Y-93404782D01*
X105490433Y-93404782D02*
X105248528Y-93404782D01*
X106216147Y-93707163D02*
X105853290Y-93707163D01*
X106034718Y-93707163D02*
X106034718Y-93072163D01*
X106034718Y-93072163D02*
X105974242Y-93162877D01*
X105974242Y-93162877D02*
X105913766Y-93223353D01*
X105913766Y-93223353D02*
X105853290Y-93253591D01*
X106427814Y-93072163D02*
X106851147Y-93072163D01*
X106851147Y-93072163D02*
X106579004Y-93707163D01*
X107612185Y-88793263D02*
X107400518Y-88490882D01*
X107249328Y-88793263D02*
X107249328Y-88158263D01*
X107249328Y-88158263D02*
X107491233Y-88158263D01*
X107491233Y-88158263D02*
X107551709Y-88188501D01*
X107551709Y-88188501D02*
X107581947Y-88218739D01*
X107581947Y-88218739D02*
X107612185Y-88279215D01*
X107612185Y-88279215D02*
X107612185Y-88369929D01*
X107612185Y-88369929D02*
X107581947Y-88430405D01*
X107581947Y-88430405D02*
X107551709Y-88460644D01*
X107551709Y-88460644D02*
X107491233Y-88490882D01*
X107491233Y-88490882D02*
X107249328Y-88490882D01*
X108216947Y-88793263D02*
X107854090Y-88793263D01*
X108035518Y-88793263D02*
X108035518Y-88158263D01*
X108035518Y-88158263D02*
X107975042Y-88248977D01*
X107975042Y-88248977D02*
X107914566Y-88309453D01*
X107914566Y-88309453D02*
X107854090Y-88339691D01*
X108519328Y-88793263D02*
X108640280Y-88793263D01*
X108640280Y-88793263D02*
X108700757Y-88763025D01*
X108700757Y-88763025D02*
X108730995Y-88732786D01*
X108730995Y-88732786D02*
X108791471Y-88642072D01*
X108791471Y-88642072D02*
X108821709Y-88521120D01*
X108821709Y-88521120D02*
X108821709Y-88279215D01*
X108821709Y-88279215D02*
X108791471Y-88218739D01*
X108791471Y-88218739D02*
X108761233Y-88188501D01*
X108761233Y-88188501D02*
X108700757Y-88158263D01*
X108700757Y-88158263D02*
X108579804Y-88158263D01*
X108579804Y-88158263D02*
X108519328Y-88188501D01*
X108519328Y-88188501D02*
X108489090Y-88218739D01*
X108489090Y-88218739D02*
X108458852Y-88279215D01*
X108458852Y-88279215D02*
X108458852Y-88430405D01*
X108458852Y-88430405D02*
X108489090Y-88490882D01*
X108489090Y-88490882D02*
X108519328Y-88521120D01*
X108519328Y-88521120D02*
X108579804Y-88551358D01*
X108579804Y-88551358D02*
X108700757Y-88551358D01*
X108700757Y-88551358D02*
X108761233Y-88521120D01*
X108761233Y-88521120D02*
X108791471Y-88490882D01*
X108791471Y-88490882D02*
X108821709Y-88430405D01*
X93442366Y-72879163D02*
X93230699Y-72576782D01*
X93079509Y-72879163D02*
X93079509Y-72244163D01*
X93079509Y-72244163D02*
X93321414Y-72244163D01*
X93321414Y-72244163D02*
X93381890Y-72274401D01*
X93381890Y-72274401D02*
X93412128Y-72304639D01*
X93412128Y-72304639D02*
X93442366Y-72365115D01*
X93442366Y-72365115D02*
X93442366Y-72455829D01*
X93442366Y-72455829D02*
X93412128Y-72516305D01*
X93412128Y-72516305D02*
X93381890Y-72546544D01*
X93381890Y-72546544D02*
X93321414Y-72576782D01*
X93321414Y-72576782D02*
X93079509Y-72576782D01*
X94016890Y-72244163D02*
X93714509Y-72244163D01*
X93714509Y-72244163D02*
X93684271Y-72546544D01*
X93684271Y-72546544D02*
X93714509Y-72516305D01*
X93714509Y-72516305D02*
X93774985Y-72486067D01*
X93774985Y-72486067D02*
X93926176Y-72486067D01*
X93926176Y-72486067D02*
X93986652Y-72516305D01*
X93986652Y-72516305D02*
X94016890Y-72546544D01*
X94016890Y-72546544D02*
X94047128Y-72607020D01*
X94047128Y-72607020D02*
X94047128Y-72758210D01*
X94047128Y-72758210D02*
X94016890Y-72818686D01*
X94016890Y-72818686D02*
X93986652Y-72848925D01*
X93986652Y-72848925D02*
X93926176Y-72879163D01*
X93926176Y-72879163D02*
X93774985Y-72879163D01*
X93774985Y-72879163D02*
X93714509Y-72848925D01*
X93714509Y-72848925D02*
X93684271Y-72818686D01*
X141476185Y-66976686D02*
X141445947Y-67006925D01*
X141445947Y-67006925D02*
X141355233Y-67037163D01*
X141355233Y-67037163D02*
X141294757Y-67037163D01*
X141294757Y-67037163D02*
X141204042Y-67006925D01*
X141204042Y-67006925D02*
X141143566Y-66946448D01*
X141143566Y-66946448D02*
X141113328Y-66885972D01*
X141113328Y-66885972D02*
X141083090Y-66765020D01*
X141083090Y-66765020D02*
X141083090Y-66674305D01*
X141083090Y-66674305D02*
X141113328Y-66553353D01*
X141113328Y-66553353D02*
X141143566Y-66492877D01*
X141143566Y-66492877D02*
X141204042Y-66432401D01*
X141204042Y-66432401D02*
X141294757Y-66402163D01*
X141294757Y-66402163D02*
X141355233Y-66402163D01*
X141355233Y-66402163D02*
X141445947Y-66432401D01*
X141445947Y-66432401D02*
X141476185Y-66462639D01*
X142080947Y-67037163D02*
X141718090Y-67037163D01*
X141899518Y-67037163D02*
X141899518Y-66402163D01*
X141899518Y-66402163D02*
X141839042Y-66492877D01*
X141839042Y-66492877D02*
X141778566Y-66553353D01*
X141778566Y-66553353D02*
X141718090Y-66583591D01*
X142292614Y-66402163D02*
X142715947Y-66402163D01*
X142715947Y-66402163D02*
X142443804Y-67037163D01*
X105585985Y-88803063D02*
X105374318Y-88500682D01*
X105223128Y-88803063D02*
X105223128Y-88168063D01*
X105223128Y-88168063D02*
X105465033Y-88168063D01*
X105465033Y-88168063D02*
X105525509Y-88198301D01*
X105525509Y-88198301D02*
X105555747Y-88228539D01*
X105555747Y-88228539D02*
X105585985Y-88289015D01*
X105585985Y-88289015D02*
X105585985Y-88379729D01*
X105585985Y-88379729D02*
X105555747Y-88440205D01*
X105555747Y-88440205D02*
X105525509Y-88470444D01*
X105525509Y-88470444D02*
X105465033Y-88500682D01*
X105465033Y-88500682D02*
X105223128Y-88500682D01*
X105827890Y-88228539D02*
X105858128Y-88198301D01*
X105858128Y-88198301D02*
X105918604Y-88168063D01*
X105918604Y-88168063D02*
X106069795Y-88168063D01*
X106069795Y-88168063D02*
X106130271Y-88198301D01*
X106130271Y-88198301D02*
X106160509Y-88228539D01*
X106160509Y-88228539D02*
X106190747Y-88289015D01*
X106190747Y-88289015D02*
X106190747Y-88349491D01*
X106190747Y-88349491D02*
X106160509Y-88440205D01*
X106160509Y-88440205D02*
X105797652Y-88803063D01*
X105797652Y-88803063D02*
X106190747Y-88803063D01*
X106583842Y-88168063D02*
X106644319Y-88168063D01*
X106644319Y-88168063D02*
X106704795Y-88198301D01*
X106704795Y-88198301D02*
X106735033Y-88228539D01*
X106735033Y-88228539D02*
X106765271Y-88289015D01*
X106765271Y-88289015D02*
X106795509Y-88409967D01*
X106795509Y-88409967D02*
X106795509Y-88561158D01*
X106795509Y-88561158D02*
X106765271Y-88682110D01*
X106765271Y-88682110D02*
X106735033Y-88742586D01*
X106735033Y-88742586D02*
X106704795Y-88772825D01*
X106704795Y-88772825D02*
X106644319Y-88803063D01*
X106644319Y-88803063D02*
X106583842Y-88803063D01*
X106583842Y-88803063D02*
X106523366Y-88772825D01*
X106523366Y-88772825D02*
X106493128Y-88742586D01*
X106493128Y-88742586D02*
X106462890Y-88682110D01*
X106462890Y-88682110D02*
X106432652Y-88561158D01*
X106432652Y-88561158D02*
X106432652Y-88409967D01*
X106432652Y-88409967D02*
X106462890Y-88289015D01*
X106462890Y-88289015D02*
X106493128Y-88228539D01*
X106493128Y-88228539D02*
X106523366Y-88198301D01*
X106523366Y-88198301D02*
X106583842Y-88168063D01*
D15*
%TO.C,Q1*%
X101171600Y-66348200D02*
X101171600Y-69948200D01*
X101171600Y-69948200D02*
X104771600Y-69948200D01*
X104771600Y-66348200D02*
X101171600Y-66348200D01*
X104771600Y-69948200D02*
X104771600Y-66348200D01*
%TO.C,D2*%
X97230000Y-81075200D02*
X99690000Y-81075200D01*
X99690000Y-79605200D02*
X97230000Y-79605200D01*
X99690000Y-81075200D02*
X99690000Y-79605200D01*
%TO.C,D1*%
X97230000Y-71982000D02*
X99690000Y-71982000D01*
X99690000Y-70512000D02*
X97230000Y-70512000D01*
X99690000Y-71982000D02*
X99690000Y-70512000D01*
%TO.C,R16*%
X98501200Y-60490100D02*
X98501200Y-61887100D01*
X98501200Y-61887100D02*
X101803200Y-61887100D01*
X101803200Y-60490100D02*
X98501200Y-60490100D01*
X101803200Y-61887100D02*
X101803200Y-60490100D01*
%TO.C,D6*%
X128347600Y-65860600D02*
X130807600Y-65860600D01*
X130807600Y-64390600D02*
X128347600Y-64390600D01*
X130807600Y-65860600D02*
X130807600Y-64390600D01*
%TO.C,D3*%
X96990000Y-89457200D02*
X99450000Y-89457200D01*
X99450000Y-87987200D02*
X96990000Y-87987200D01*
X99450000Y-89457200D02*
X99450000Y-87987200D01*
%TO.C,U9*%
X110510000Y-70080000D02*
X110510000Y-86980000D01*
X110510000Y-70080000D02*
X127730000Y-70080000D01*
X127730000Y-70080000D02*
X127730000Y-87300000D01*
X127730000Y-87300000D02*
X110830000Y-87300000D01*
X110510000Y-87800000D02*
X110010000Y-87300000D01*
X110510000Y-87300000D01*
X110510000Y-87800000D01*
G36*
X110510000Y-87800000D02*
G01*
X110010000Y-87300000D01*
X110510000Y-87300000D01*
X110510000Y-87800000D01*
G37*
%TO.C,C11*%
X107719400Y-70555067D02*
X107719400Y-70262533D01*
X108739400Y-70555067D02*
X108739400Y-70262533D01*
%TO.C,R10*%
X91908600Y-79641700D02*
X91908600Y-81038700D01*
X91908600Y-81038700D02*
X95210600Y-81038700D01*
X95210600Y-79641700D02*
X91908600Y-79641700D01*
X95210600Y-81038700D02*
X95210600Y-79641700D01*
D14*
%TO.C,U11*%
X135625000Y-93325000D02*
X130345000Y-93325000D01*
X135625000Y-98605000D02*
X130345000Y-98605000D01*
D16*
X138300000Y-97870000D02*
G75*
G02*
X138100000Y-97870000I-100000J0D01*
G01*
X138100000Y-97870000D02*
G75*
G02*
X138300000Y-97870000I100000J0D01*
G01*
D15*
%TO.C,Q3*%
X101171600Y-84001200D02*
X101171600Y-87601200D01*
X101171600Y-87601200D02*
X104771600Y-87601200D01*
X104771600Y-84001200D02*
X101171600Y-84001200D01*
X104771600Y-87601200D02*
X104771600Y-84001200D01*
%TO.C,U8*%
X105551800Y-81737200D02*
X105551800Y-80937200D01*
X105551800Y-81737200D02*
X105551800Y-82537200D01*
X108671800Y-81737200D02*
X108671800Y-80937200D01*
X108671800Y-81737200D02*
X108671800Y-82537200D01*
X108951800Y-80677200D02*
X108621800Y-80437200D01*
X108951800Y-80197200D01*
X108951800Y-80677200D01*
G36*
X108951800Y-80677200D02*
G01*
X108621800Y-80437200D01*
X108951800Y-80197200D01*
X108951800Y-80677200D01*
G37*
%TO.C,D4*%
X98492200Y-64212800D02*
X98492200Y-65682800D01*
X98492200Y-65682800D02*
X100952200Y-65682800D01*
X100952200Y-64212800D02*
X98492200Y-64212800D01*
D13*
%TO.C,Y1*%
X110017400Y-97968800D02*
X109467400Y-97968800D01*
X110317400Y-94368800D02*
X110317400Y-96568800D01*
X110317400Y-96568800D02*
X109467400Y-96568800D01*
X112617400Y-92968800D02*
X115017400Y-92968800D01*
X112617400Y-97968800D02*
X115017400Y-97968800D01*
X117317400Y-96568800D02*
X117317400Y-94368800D01*
D15*
%TO.C,R9*%
X101360000Y-79641700D02*
X101360000Y-81038700D01*
X101360000Y-81038700D02*
X104662000Y-81038700D01*
X104662000Y-79641700D02*
X101360000Y-79641700D01*
X104662000Y-81038700D02*
X104662000Y-79641700D01*
%TO.C,R14*%
X101320600Y-88023700D02*
X101320600Y-89420700D01*
X101320600Y-89420700D02*
X104622600Y-89420700D01*
X104622600Y-88023700D02*
X101320600Y-88023700D01*
X104622600Y-89420700D02*
X104622600Y-88023700D01*
%TO.C,U7*%
X106614200Y-75855000D02*
X107914200Y-75855000D01*
X107914200Y-72735000D02*
X106644200Y-72735000D01*
X106264200Y-72785000D02*
X106024200Y-72455000D01*
X106504200Y-72455000D01*
X106264200Y-72785000D01*
G36*
X106264200Y-72785000D02*
G01*
X106024200Y-72455000D01*
X106504200Y-72455000D01*
X106264200Y-72785000D01*
G37*
%TO.C,D5*%
X132782200Y-64390600D02*
X132782200Y-65860600D01*
X132782200Y-65860600D02*
X135242200Y-65860600D01*
X135242200Y-64390600D02*
X132782200Y-64390600D01*
%TO.C,R4*%
X101360000Y-70548500D02*
X101360000Y-71945500D01*
X101360000Y-71945500D02*
X104662000Y-71945500D01*
X104662000Y-70548500D02*
X101360000Y-70548500D01*
X104662000Y-71945500D02*
X104662000Y-70548500D01*
%TO.C,R18*%
X107327700Y-89357200D02*
X107327700Y-92659200D01*
X107327700Y-92659200D02*
X108724700Y-92659200D01*
X108724700Y-89357200D02*
X107327700Y-89357200D01*
X108724700Y-92659200D02*
X108724700Y-89357200D01*
%TO.C,Q2*%
X101171600Y-75365200D02*
X101171600Y-78965200D01*
X101171600Y-78965200D02*
X104771600Y-78965200D01*
X104771600Y-75365200D02*
X101171600Y-75365200D01*
X104771600Y-78965200D02*
X104771600Y-75365200D01*
%TO.C,U10*%
X131758400Y-68449600D02*
X131758400Y-68049600D01*
X131758400Y-90649600D02*
X131758400Y-90249600D01*
X142358400Y-68049600D02*
X131758400Y-68049600D01*
X142358400Y-68449600D02*
X142358400Y-68049600D01*
X142358400Y-90249600D02*
X142358400Y-90649600D01*
X142358400Y-90649600D02*
X131758400Y-90649600D01*
X142998400Y-90579600D02*
X142518400Y-90579600D01*
X142758400Y-90249600D01*
X142998400Y-90579600D01*
G36*
X142998400Y-90579600D02*
G01*
X142518400Y-90579600D01*
X142758400Y-90249600D01*
X142998400Y-90579600D01*
G37*
%TO.C,R15*%
X91908600Y-88023700D02*
X91908600Y-89420700D01*
X91908600Y-89420700D02*
X95210600Y-89420700D01*
X95210600Y-88023700D02*
X91908600Y-88023700D01*
X95210600Y-89420700D02*
X95210600Y-88023700D01*
D17*
%TO.C,G\u002A\u002A\u002A*%
G36*
X99109796Y-97792284D02*
G01*
X99187053Y-97821849D01*
X99125677Y-97871825D01*
X99056084Y-97908937D01*
X98991969Y-97921802D01*
X98945387Y-97927543D01*
X98915055Y-97950677D01*
X98897628Y-98000067D01*
X98889756Y-98084576D01*
X98888076Y-98196906D01*
X98887244Y-98295422D01*
X98882275Y-98352955D01*
X98869458Y-98380518D01*
X98845081Y-98389122D01*
X98823081Y-98389765D01*
X98758086Y-98389765D01*
X98758086Y-98087538D01*
X98758086Y-97785312D01*
X98836221Y-97800939D01*
X98913256Y-97803664D01*
X98973448Y-97789643D01*
X99049671Y-97776842D01*
X99109796Y-97792284D01*
G37*
G36*
X101655917Y-96855528D02*
G01*
X101704675Y-96877499D01*
X101710254Y-96899548D01*
X101683893Y-96932733D01*
X101623891Y-96969981D01*
X101567218Y-96980218D01*
X101507157Y-96982897D01*
X101468743Y-97001181D01*
X101447226Y-97044265D01*
X101437855Y-97121340D01*
X101435875Y-97234390D01*
X101435268Y-97340950D01*
X101431407Y-97405845D01*
X101421233Y-97439405D01*
X101401685Y-97451959D01*
X101370881Y-97453838D01*
X101305886Y-97453838D01*
X101305886Y-97151831D01*
X101305886Y-96849824D01*
X101375054Y-96863046D01*
X101453963Y-96864381D01*
X101513670Y-96852059D01*
X101612980Y-96843919D01*
X101655917Y-96855528D01*
G37*
G36*
X101487297Y-97786022D02*
G01*
X101494874Y-97788876D01*
X101543096Y-97812910D01*
X101549411Y-97840321D01*
X101534116Y-97869353D01*
X101477357Y-97913200D01*
X101421822Y-97921802D01*
X101356935Y-97928745D01*
X101315015Y-97955411D01*
X101291378Y-98010552D01*
X101281340Y-98102920D01*
X101279888Y-98186981D01*
X101279151Y-98288557D01*
X101274646Y-98348880D01*
X101262929Y-98378694D01*
X101240557Y-98388740D01*
X101214893Y-98389765D01*
X101149898Y-98389765D01*
X101149898Y-98090788D01*
X101149898Y-97791812D01*
X101214893Y-97791812D01*
X101263757Y-97800300D01*
X101279888Y-97816601D01*
X101299078Y-97822647D01*
X101345836Y-97804168D01*
X101351382Y-97801118D01*
X101419986Y-97775244D01*
X101487297Y-97786022D01*
G37*
G36*
X97358257Y-96866177D02*
G01*
X97438873Y-96930482D01*
X97487335Y-97033948D01*
X97495423Y-97074174D01*
X97497431Y-97211633D01*
X97462700Y-97323124D01*
X97396956Y-97403191D01*
X97305924Y-97446377D01*
X97195333Y-97447226D01*
X97125560Y-97426603D01*
X97065958Y-97377401D01*
X97021319Y-97292214D01*
X96997495Y-97186245D01*
X96997560Y-97144853D01*
X97123588Y-97144853D01*
X97134781Y-97225772D01*
X97175242Y-97293409D01*
X97234351Y-97323832D01*
X97297882Y-97311984D01*
X97322999Y-97292651D01*
X97341604Y-97249445D01*
X97352765Y-97176040D01*
X97354197Y-97137578D01*
X97348886Y-97054582D01*
X97329407Y-97007297D01*
X97302201Y-96985875D01*
X97237153Y-96974293D01*
X97180742Y-97004034D01*
X97140408Y-97064440D01*
X97123588Y-97144853D01*
X96997560Y-97144853D01*
X96997639Y-97094091D01*
X97031286Y-96975341D01*
X97098687Y-96892124D01*
X97195172Y-96849090D01*
X97248739Y-96844068D01*
X97358257Y-96866177D01*
G37*
G36*
X99090889Y-96858542D02*
G01*
X99146139Y-96889411D01*
X99183397Y-96951482D01*
X99206588Y-97051456D01*
X99219639Y-97196038D01*
X99220097Y-97204584D01*
X99233134Y-97453838D01*
X99164597Y-97453838D01*
X99129745Y-97451788D01*
X99109317Y-97438332D01*
X99099460Y-97402508D01*
X99096322Y-97333357D01*
X99096060Y-97258854D01*
X99093633Y-97152187D01*
X99084293Y-97083119D01*
X99064954Y-97037392D01*
X99042158Y-97009967D01*
X98998817Y-96974341D01*
X98962444Y-96975568D01*
X98931667Y-96993544D01*
X98902816Y-97019030D01*
X98884788Y-97056990D01*
X98874373Y-97119870D01*
X98868364Y-97220117D01*
X98867526Y-97242430D01*
X98863029Y-97346637D01*
X98856345Y-97409372D01*
X98843920Y-97441143D01*
X98822201Y-97452457D01*
X98796032Y-97453838D01*
X98732088Y-97453838D01*
X98732088Y-97155458D01*
X98732088Y-96857077D01*
X98829581Y-96856390D01*
X98923113Y-96854885D01*
X99012609Y-96852217D01*
X99013721Y-96852172D01*
X99090889Y-96858542D01*
G37*
G36*
X100801866Y-96858073D02*
G01*
X100822234Y-96871641D01*
X100833580Y-96907097D01*
X100839606Y-96974949D01*
X100843371Y-97067628D01*
X100849722Y-97179788D01*
X100860651Y-97250848D01*
X100878551Y-97291657D01*
X100896418Y-97307976D01*
X100952539Y-97322654D01*
X100987411Y-97307976D01*
X101011584Y-97281831D01*
X101027118Y-97232996D01*
X101036406Y-97150621D01*
X101040458Y-97067628D01*
X101044950Y-96963322D01*
X101051620Y-96900495D01*
X101064014Y-96868649D01*
X101085677Y-96857285D01*
X101111952Y-96855885D01*
X101175896Y-96855885D01*
X101175896Y-97154862D01*
X101175896Y-97453838D01*
X101110901Y-97453838D01*
X101062048Y-97444628D01*
X101045906Y-97426926D01*
X101029992Y-97413292D01*
X100995619Y-97426926D01*
X100902260Y-97452332D01*
X100813110Y-97425956D01*
X100783657Y-97405232D01*
X100755216Y-97377033D01*
X100736480Y-97340048D01*
X100724668Y-97282564D01*
X100717001Y-97192866D01*
X100712681Y-97106256D01*
X100701731Y-96855885D01*
X100768775Y-96855885D01*
X100801866Y-96858073D01*
G37*
G36*
X100482536Y-96876064D02*
G01*
X100554786Y-96944799D01*
X100586800Y-97019328D01*
X100598686Y-97126179D01*
X100590326Y-97235731D01*
X100564636Y-97329736D01*
X100528028Y-97386961D01*
X100455446Y-97425613D01*
X100360915Y-97443751D01*
X100271896Y-97437062D01*
X100252066Y-97430311D01*
X100186054Y-97389529D01*
X100145927Y-97328794D01*
X100126694Y-97236955D01*
X100123538Y-97156162D01*
X100240368Y-97156162D01*
X100252627Y-97252926D01*
X100292025Y-97307570D01*
X100356960Y-97323849D01*
X100416621Y-97309770D01*
X100442754Y-97292651D01*
X100462983Y-97245489D01*
X100472326Y-97170070D01*
X100470149Y-97089110D01*
X100455817Y-97025328D01*
X100450512Y-97015123D01*
X100409693Y-96988416D01*
X100356960Y-96979376D01*
X100292974Y-96992098D01*
X100256237Y-97035689D01*
X100241384Y-97118285D01*
X100240368Y-97156162D01*
X100123538Y-97156162D01*
X100122979Y-97141863D01*
X100128472Y-97024815D01*
X100149370Y-96947010D01*
X100192297Y-96896444D01*
X100263879Y-96861109D01*
X100281201Y-96855148D01*
X100387082Y-96843892D01*
X100482536Y-96876064D01*
G37*
G36*
X102087962Y-96871580D02*
G01*
X102122556Y-96891007D01*
X102169197Y-96925555D01*
X102176388Y-96951698D01*
X102151474Y-96985151D01*
X102117064Y-97015171D01*
X102080673Y-97015444D01*
X102031354Y-96993743D01*
X101972380Y-96969942D01*
X101928627Y-96974911D01*
X101889899Y-96997100D01*
X101844486Y-97041044D01*
X101827092Y-97105075D01*
X101825845Y-97140605D01*
X101836409Y-97220527D01*
X101862971Y-97278883D01*
X101866699Y-97282995D01*
X101930594Y-97317658D01*
X102003685Y-97319035D01*
X102054812Y-97292465D01*
X102087964Y-97276630D01*
X102127834Y-97302750D01*
X102130578Y-97305464D01*
X102160205Y-97342879D01*
X102150586Y-97373041D01*
X102133969Y-97390838D01*
X102074286Y-97423251D01*
X101987526Y-97441972D01*
X101897538Y-97443811D01*
X101837941Y-97430431D01*
X101770190Y-97387657D01*
X101729716Y-97323478D01*
X101711375Y-97226781D01*
X101708854Y-97151457D01*
X101711690Y-97056052D01*
X101723904Y-96994167D01*
X101751052Y-96947469D01*
X101780348Y-96915563D01*
X101871223Y-96858814D01*
X101978968Y-96843779D01*
X102087962Y-96871580D01*
G37*
G36*
X99642017Y-97960798D02*
G01*
X99642017Y-98389765D01*
X99465000Y-98389765D01*
X99360760Y-98384775D01*
X99279650Y-98371406D01*
X99242552Y-98356544D01*
X99197941Y-98295961D01*
X99170005Y-98202326D01*
X99159182Y-98091986D01*
X99160284Y-98073850D01*
X99298153Y-98073850D01*
X99300599Y-98154204D01*
X99309947Y-98216616D01*
X99316207Y-98232426D01*
X99356547Y-98255653D01*
X99417331Y-98256566D01*
X99472333Y-98235778D01*
X99480829Y-98228577D01*
X99501229Y-98181519D01*
X99511129Y-98105752D01*
X99509225Y-98023745D01*
X99496246Y-97962925D01*
X99461175Y-97933428D01*
X99401887Y-97922175D01*
X99343402Y-97930684D01*
X99314521Y-97951880D01*
X99302747Y-97998696D01*
X99298153Y-98073850D01*
X99160284Y-98073850D01*
X99165909Y-97981284D01*
X99190624Y-97886565D01*
X99228417Y-97828666D01*
X99302113Y-97792085D01*
X99394740Y-97784941D01*
X99466531Y-97802888D01*
X99492404Y-97808836D01*
X99506112Y-97789957D01*
X99511374Y-97736006D01*
X99512027Y-97677602D01*
X99513640Y-97594719D01*
X99522226Y-97551206D01*
X99543409Y-97534452D01*
X99577022Y-97531832D01*
X99642017Y-97531832D01*
X99642017Y-97960798D01*
G37*
G36*
X101917148Y-97804654D02*
G01*
X101993873Y-97870980D01*
X102042622Y-97974134D01*
X102052382Y-98023238D01*
X102066673Y-98129785D01*
X101881264Y-98129785D01*
X101771064Y-98134440D01*
X101709157Y-98149673D01*
X101692569Y-98177391D01*
X101718325Y-98219499D01*
X101727053Y-98228577D01*
X101779335Y-98253208D01*
X101849158Y-98258424D01*
X101907954Y-98243188D01*
X101918137Y-98235527D01*
X101957573Y-98230038D01*
X101994831Y-98250212D01*
X102028827Y-98279393D01*
X102026454Y-98302652D01*
X101985685Y-98339263D01*
X101985452Y-98339454D01*
X101898040Y-98380810D01*
X101794095Y-98387091D01*
X101695322Y-98358458D01*
X101661849Y-98337050D01*
X101605469Y-98262107D01*
X101575989Y-98154970D01*
X101575921Y-98029366D01*
X101583453Y-97990326D01*
X101695139Y-97990326D01*
X101732680Y-98015911D01*
X101812846Y-98025793D01*
X101882626Y-98021429D01*
X101924476Y-98010385D01*
X101929837Y-98003825D01*
X101912452Y-97971745D01*
X101877735Y-97934705D01*
X101828519Y-97903204D01*
X101776446Y-97910402D01*
X101760744Y-97917119D01*
X101703492Y-97955306D01*
X101695139Y-97990326D01*
X101583453Y-97990326D01*
X101591140Y-97950484D01*
X101620716Y-97871889D01*
X101665782Y-97825107D01*
X101710604Y-97802404D01*
X101820156Y-97780135D01*
X101917148Y-97804654D01*
G37*
G36*
X98509219Y-96868035D02*
G01*
X98585483Y-96938554D01*
X98634521Y-97043492D01*
X98643118Y-97083660D01*
X98660740Y-97193859D01*
X98463249Y-97193859D01*
X98363415Y-97195028D01*
X98305986Y-97200143D01*
X98281393Y-97211613D01*
X98280068Y-97231846D01*
X98282543Y-97239355D01*
X98311164Y-97288448D01*
X98327224Y-97303952D01*
X98382630Y-97321032D01*
X98452465Y-97320258D01*
X98507616Y-97302675D01*
X98514320Y-97297236D01*
X98549714Y-97290752D01*
X98585170Y-97319507D01*
X98614212Y-97359212D01*
X98605729Y-97386717D01*
X98589741Y-97401310D01*
X98528972Y-97428218D01*
X98440930Y-97442589D01*
X98349209Y-97442666D01*
X98277403Y-97426691D01*
X98273603Y-97424861D01*
X98201601Y-97359562D01*
X98160302Y-97254086D01*
X98150134Y-97143797D01*
X98163774Y-97047157D01*
X98294716Y-97047157D01*
X98299741Y-97074902D01*
X98336718Y-97087499D01*
X98394115Y-97089867D01*
X98463329Y-97085713D01*
X98492048Y-97070081D01*
X98493514Y-97047157D01*
X98465740Y-96998320D01*
X98439611Y-96975796D01*
X98380171Y-96964354D01*
X98324943Y-96992355D01*
X98294716Y-97047157D01*
X98163774Y-97047157D01*
X98168446Y-97014058D01*
X98221121Y-96915831D01*
X98304763Y-96855312D01*
X98308998Y-96853651D01*
X98414225Y-96837784D01*
X98509219Y-96868035D01*
G37*
G36*
X102564725Y-96868639D02*
G01*
X102642324Y-96937496D01*
X102692170Y-97038401D01*
X102702330Y-97087312D01*
X102716621Y-97193859D01*
X102531213Y-97193859D01*
X102434191Y-97195340D01*
X102378223Y-97201714D01*
X102352403Y-97215874D01*
X102345825Y-97240717D01*
X102345804Y-97243073D01*
X102368136Y-97287601D01*
X102422425Y-97317243D01*
X102489609Y-97327153D01*
X102550628Y-97312484D01*
X102568086Y-97299601D01*
X102607784Y-97293795D01*
X102643597Y-97312854D01*
X102678021Y-97344701D01*
X102670685Y-97372738D01*
X102652776Y-97391989D01*
X102594033Y-97423232D01*
X102506946Y-97441292D01*
X102414012Y-97443884D01*
X102337729Y-97428721D01*
X102329283Y-97424861D01*
X102257222Y-97359576D01*
X102216816Y-97254345D01*
X102207860Y-97140845D01*
X102220511Y-97056070D01*
X102345804Y-97056070D01*
X102369819Y-97079914D01*
X102442621Y-97089600D01*
X102462795Y-97089867D01*
X102532585Y-97086399D01*
X102574432Y-97077624D01*
X102579785Y-97072416D01*
X102559800Y-97032320D01*
X102514261Y-96989257D01*
X102464792Y-96962120D01*
X102450966Y-96959877D01*
X102391727Y-96980302D01*
X102351746Y-97028252D01*
X102345804Y-97056070D01*
X102220511Y-97056070D01*
X102227621Y-97008425D01*
X102281033Y-96911260D01*
X102364679Y-96853651D01*
X102468975Y-96838475D01*
X102564725Y-96868639D01*
G37*
G36*
X99899206Y-96855134D02*
G01*
X99986620Y-96886973D01*
X100023614Y-96922749D01*
X100011718Y-96964241D01*
X100002190Y-96974817D01*
X99966366Y-96996153D01*
X99913739Y-96993135D01*
X99870161Y-96981278D01*
X99797897Y-96965110D01*
X99751303Y-96973608D01*
X99731699Y-96986963D01*
X99703600Y-97017330D01*
X99718118Y-97042556D01*
X99735631Y-97056002D01*
X99796348Y-97081588D01*
X99856151Y-97089867D01*
X99929371Y-97109675D01*
X99998526Y-97158973D01*
X100046383Y-97222570D01*
X100057984Y-97267791D01*
X100034193Y-97346584D01*
X99968040Y-97405324D01*
X99867350Y-97437543D01*
X99850000Y-97439664D01*
X99766153Y-97442923D01*
X99696875Y-97437094D01*
X99681014Y-97433069D01*
X99614462Y-97404011D01*
X99577022Y-97383816D01*
X99541380Y-97356520D01*
X99549479Y-97329140D01*
X99567489Y-97309784D01*
X99612895Y-97281301D01*
X99663272Y-97295313D01*
X99731992Y-97317754D01*
X99808945Y-97323278D01*
X99874924Y-97312632D01*
X99910723Y-97286562D01*
X99911078Y-97285684D01*
X99917006Y-97254477D01*
X99898372Y-97233908D01*
X99845055Y-97217574D01*
X99784807Y-97205796D01*
X99682661Y-97181679D01*
X99620901Y-97150224D01*
X99587921Y-97104267D01*
X99579970Y-97079358D01*
X99577922Y-96984732D01*
X99617986Y-96909769D01*
X99692222Y-96860044D01*
X99792691Y-96841135D01*
X99899206Y-96855134D01*
G37*
G36*
X98457406Y-97786303D02*
G01*
X98536602Y-97805463D01*
X98569582Y-97826147D01*
X98591337Y-97866267D01*
X98607221Y-97941085D01*
X98618456Y-98057584D01*
X98622448Y-98128088D01*
X98635048Y-98389765D01*
X98452467Y-98389765D01*
X98340102Y-98385621D01*
X98265152Y-98371330D01*
X98213560Y-98344106D01*
X98210676Y-98341820D01*
X98165019Y-98275946D01*
X98153906Y-98206720D01*
X98271092Y-98206720D01*
X98274687Y-98229833D01*
X98310465Y-98249010D01*
X98376185Y-98259247D01*
X98395649Y-98259775D01*
X98462019Y-98256102D01*
X98491266Y-98238865D01*
X98498089Y-98198741D01*
X98498107Y-98194780D01*
X98488921Y-98147239D01*
X98450878Y-98130793D01*
X98425082Y-98129785D01*
X98354915Y-98141464D01*
X98298880Y-98170239D01*
X98271092Y-98206720D01*
X98153906Y-98206720D01*
X98151623Y-98192496D01*
X98172052Y-98113895D01*
X98192856Y-98085920D01*
X98242121Y-98059313D01*
X98320753Y-98038285D01*
X98366176Y-98031855D01*
X98446559Y-98020455D01*
X98486633Y-98002731D01*
X98498076Y-97973296D01*
X98498107Y-97970985D01*
X98475939Y-97929450D01*
X98422678Y-97904169D01*
X98358191Y-97901061D01*
X98315040Y-97916443D01*
X98263907Y-97929904D01*
X98221471Y-97908837D01*
X98188615Y-97878746D01*
X98195805Y-97851477D01*
X98218032Y-97827424D01*
X98276826Y-97797361D01*
X98363716Y-97783628D01*
X98457406Y-97786303D01*
G37*
G36*
X100846388Y-97783113D02*
G01*
X100919554Y-97801595D01*
X100970428Y-97835074D01*
X101003783Y-97892421D01*
X101024392Y-97982505D01*
X101037027Y-98114199D01*
X101038673Y-98140482D01*
X101053546Y-98389765D01*
X100859710Y-98389765D01*
X100729913Y-98383806D01*
X100642666Y-98366487D01*
X100616000Y-98353296D01*
X100582791Y-98302246D01*
X100566402Y-98224574D01*
X100566756Y-98210560D01*
X100681935Y-98210560D01*
X100691721Y-98242973D01*
X100729847Y-98257239D01*
X100785927Y-98259775D01*
X100852927Y-98256227D01*
X100882706Y-98239494D01*
X100889881Y-98200440D01*
X100889918Y-98194780D01*
X100879026Y-98145149D01*
X100836906Y-98129991D01*
X100827050Y-98129785D01*
X100735031Y-98142335D01*
X100688358Y-98180064D01*
X100681935Y-98210560D01*
X100566756Y-98210560D01*
X100568451Y-98143382D01*
X100590554Y-98081773D01*
X100596502Y-98074829D01*
X100638721Y-98054835D01*
X100712296Y-98037859D01*
X100758398Y-98031815D01*
X100838281Y-98020586D01*
X100878112Y-98003100D01*
X100889832Y-97973716D01*
X100889918Y-97969674D01*
X100869299Y-97919298D01*
X100814442Y-97899190D01*
X100735850Y-97913125D01*
X100734237Y-97913728D01*
X100668834Y-97922261D01*
X100610668Y-97905235D01*
X100579307Y-97869489D01*
X100577943Y-97859113D01*
X100601040Y-97832092D01*
X100658917Y-97806763D01*
X100734456Y-97787976D01*
X100810535Y-97780576D01*
X100846388Y-97783113D01*
G37*
G36*
X99805044Y-97795217D02*
G01*
X99830871Y-97812348D01*
X99852147Y-97853579D01*
X99875319Y-97929286D01*
X99891375Y-97990030D01*
X99942810Y-98188247D01*
X100004974Y-97990030D01*
X100038875Y-97888799D01*
X100066074Y-97828434D01*
X100092299Y-97799313D01*
X100122979Y-97791812D01*
X100153841Y-97799434D01*
X100180021Y-97828707D01*
X100207228Y-97889236D01*
X100241171Y-97990628D01*
X100241220Y-97990783D01*
X100303620Y-98189754D01*
X100352701Y-97990783D01*
X100378411Y-97891212D01*
X100399023Y-97831947D01*
X100420925Y-97802581D01*
X100450506Y-97792708D01*
X100474851Y-97791812D01*
X100547920Y-97791812D01*
X100484892Y-97993296D01*
X100450495Y-98103428D01*
X100418054Y-98207594D01*
X100393954Y-98285283D01*
X100391797Y-98292272D01*
X100363323Y-98359440D01*
X100326543Y-98386996D01*
X100302217Y-98389765D01*
X100270400Y-98383596D01*
X100244878Y-98358513D01*
X100219755Y-98304646D01*
X100189132Y-98212127D01*
X100181969Y-98188584D01*
X100121233Y-97987404D01*
X100061509Y-98188584D01*
X100029441Y-98290183D01*
X100003779Y-98351027D01*
X99978799Y-98380920D01*
X99948772Y-98389669D01*
X99944009Y-98389765D01*
X99911610Y-98382403D01*
X99884693Y-98353708D01*
X99857003Y-98293765D01*
X99825070Y-98201280D01*
X99789558Y-98090928D01*
X99755414Y-97983318D01*
X99730204Y-97902303D01*
X99696500Y-97791812D01*
X99768220Y-97791812D01*
X99805044Y-97795217D01*
G37*
G36*
X97960449Y-96867716D02*
G01*
X98024745Y-96925076D01*
X98062762Y-97026116D01*
X98068941Y-97062416D01*
X98074572Y-97208555D01*
X98049266Y-97323126D01*
X97995973Y-97402029D01*
X97917644Y-97441166D01*
X97817227Y-97436440D01*
X97802662Y-97432377D01*
X97718168Y-97406709D01*
X97718168Y-97615041D01*
X97719185Y-97718003D01*
X97723724Y-97778210D01*
X97734021Y-97804887D01*
X97752308Y-97807258D01*
X97763665Y-97802888D01*
X97856679Y-97783670D01*
X97950005Y-97800274D01*
X98009805Y-97837912D01*
X98036154Y-97872766D01*
X98054032Y-97922228D01*
X98065999Y-97997969D01*
X98074613Y-98111660D01*
X98076187Y-98140511D01*
X98089224Y-98389765D01*
X98020687Y-98389765D01*
X97985835Y-98387715D01*
X97965407Y-98374258D01*
X97955550Y-98338434D01*
X97952412Y-98269283D01*
X97952150Y-98194780D01*
X97949560Y-98087083D01*
X97939861Y-98017327D01*
X97920156Y-97971632D01*
X97900744Y-97948389D01*
X97837146Y-97913894D01*
X97773153Y-97925551D01*
X97738065Y-97958902D01*
X97728892Y-97996862D01*
X97722011Y-98071894D01*
X97718689Y-98169088D01*
X97718566Y-98188281D01*
X97717613Y-98289462D01*
X97712918Y-98349424D01*
X97700984Y-98378944D01*
X97678312Y-98388797D01*
X97653173Y-98389765D01*
X97588178Y-98389765D01*
X97588178Y-97623421D01*
X97588178Y-97137073D01*
X97718566Y-97137073D01*
X97732444Y-97240765D01*
X97774022Y-97303939D01*
X97836717Y-97323849D01*
X97894573Y-97306047D01*
X97928520Y-97252625D01*
X97946132Y-97162727D01*
X97934964Y-97079214D01*
X97900723Y-97013830D01*
X97849117Y-96978317D01*
X97796162Y-96980288D01*
X97746039Y-97013723D01*
X97722444Y-97077066D01*
X97718566Y-97137073D01*
X97588178Y-97137073D01*
X97588178Y-96857077D01*
X97685671Y-96856390D01*
X97778428Y-96854865D01*
X97866556Y-96852142D01*
X97868005Y-96852081D01*
X97960449Y-96867716D01*
G37*
G36*
X100216505Y-92713889D02*
G01*
X100278967Y-93017543D01*
X100458404Y-93090860D01*
X100551611Y-93126723D01*
X100629869Y-93152848D01*
X100677568Y-93164072D01*
X100680078Y-93164176D01*
X100718625Y-93149900D01*
X100787566Y-93111540D01*
X100875396Y-93055804D01*
X100929606Y-93018755D01*
X101022417Y-92954646D01*
X101101632Y-92901761D01*
X101156056Y-92867484D01*
X101171652Y-92859120D01*
X101200636Y-92871328D01*
X101256068Y-92912442D01*
X101328551Y-92973702D01*
X101408689Y-93046349D01*
X101487084Y-93121622D01*
X101554338Y-93190762D01*
X101601056Y-93245010D01*
X101617861Y-93275055D01*
X101604158Y-93304059D01*
X101567082Y-93366122D01*
X101512681Y-93451429D01*
X101461873Y-93528147D01*
X101398075Y-93625110D01*
X101346888Y-93706861D01*
X101314378Y-93763465D01*
X101305886Y-93783771D01*
X101316055Y-93818027D01*
X101344287Y-93891276D01*
X101387172Y-93995157D01*
X101441295Y-94121309D01*
X101474210Y-94196235D01*
X101498995Y-94202939D01*
X101564625Y-94217286D01*
X101660880Y-94237116D01*
X101768156Y-94258430D01*
X102059826Y-94315486D01*
X102059826Y-94621696D01*
X102059826Y-94927906D01*
X101988332Y-94941496D01*
X101929331Y-94953117D01*
X101837100Y-94971727D01*
X101729319Y-94993752D01*
X101703895Y-94998985D01*
X101490952Y-95042884D01*
X101407085Y-95250940D01*
X101369038Y-95348654D01*
X101340134Y-95429230D01*
X101324956Y-95479634D01*
X101323736Y-95487993D01*
X101337988Y-95520592D01*
X101375928Y-95584857D01*
X101431040Y-95670131D01*
X101471058Y-95728994D01*
X101533370Y-95821130D01*
X101582553Y-95897941D01*
X101612160Y-95949129D01*
X101617861Y-95963586D01*
X101600407Y-95990127D01*
X101554233Y-96042841D01*
X101488618Y-96112425D01*
X101412844Y-96189574D01*
X101336191Y-96264985D01*
X101267940Y-96329355D01*
X101217371Y-96373381D01*
X101194564Y-96387922D01*
X101166159Y-96374349D01*
X101104760Y-96337727D01*
X101020399Y-96284201D01*
X100953548Y-96240292D01*
X100731711Y-96092662D01*
X100616224Y-96148770D01*
X100500737Y-96204878D01*
X100464326Y-96133913D01*
X100438673Y-96079243D01*
X100400660Y-95992369D01*
X100353922Y-95882216D01*
X100302093Y-95757708D01*
X100248810Y-95627772D01*
X100197705Y-95501332D01*
X100152414Y-95387313D01*
X100116572Y-95294641D01*
X100093814Y-95232240D01*
X100087687Y-95209070D01*
X100111404Y-95191013D01*
X100163438Y-95150160D01*
X100218024Y-95106882D01*
X100338148Y-94986241D01*
X100412667Y-94848263D01*
X100445546Y-94684501D01*
X100447953Y-94617203D01*
X100443505Y-94511156D01*
X100425277Y-94429894D01*
X100385940Y-94346610D01*
X100363460Y-94308065D01*
X100257486Y-94177123D01*
X100126334Y-94085464D01*
X99978891Y-94033089D01*
X99824043Y-94019997D01*
X99670677Y-94046189D01*
X99527680Y-94111665D01*
X99403937Y-94216425D01*
X99336541Y-94308065D01*
X99287057Y-94399338D01*
X99261520Y-94478202D01*
X99252603Y-94571466D01*
X99252047Y-94617203D01*
X99270827Y-94792384D01*
X99329810Y-94938723D01*
X99432962Y-95064667D01*
X99481977Y-95106882D01*
X99547947Y-95159142D01*
X99595594Y-95196443D01*
X99612313Y-95209070D01*
X99605787Y-95233418D01*
X99582638Y-95296728D01*
X99546501Y-95390075D01*
X99501011Y-95504535D01*
X99449803Y-95631181D01*
X99396511Y-95761089D01*
X99344770Y-95885333D01*
X99298214Y-95994989D01*
X99260480Y-96081131D01*
X99235675Y-96133913D01*
X99199264Y-96204878D01*
X99083777Y-96148770D01*
X98968290Y-96092662D01*
X98746452Y-96240292D01*
X98651897Y-96301971D01*
X98573162Y-96351004D01*
X98520342Y-96381238D01*
X98504251Y-96387922D01*
X98478733Y-96370541D01*
X98425281Y-96323453D01*
X98352197Y-96254240D01*
X98283014Y-96185863D01*
X98201712Y-96102240D01*
X98136200Y-96031350D01*
X98094022Y-95981587D01*
X98082140Y-95962400D01*
X98096094Y-95933167D01*
X98133667Y-95871738D01*
X98188421Y-95788348D01*
X98228942Y-95728994D01*
X98291442Y-95636036D01*
X98340816Y-95557466D01*
X98370550Y-95503942D01*
X98376264Y-95487993D01*
X98367285Y-95451959D01*
X98342895Y-95380961D01*
X98307677Y-95288033D01*
X98292916Y-95250940D01*
X98209048Y-95042884D01*
X97996106Y-94998985D01*
X97887242Y-94976679D01*
X97789814Y-94956955D01*
X97721502Y-94943388D01*
X97711669Y-94941496D01*
X97640174Y-94927906D01*
X97640174Y-94621696D01*
X97640174Y-94315486D01*
X97931845Y-94258430D01*
X98047310Y-94235459D01*
X98141590Y-94215972D01*
X98204464Y-94202131D01*
X98225791Y-94196235D01*
X98284592Y-94061486D01*
X98334007Y-93944464D01*
X98370626Y-93853531D01*
X98391035Y-93797047D01*
X98394115Y-93783771D01*
X98380390Y-93753692D01*
X98343258Y-93690712D01*
X98288781Y-93604767D01*
X98238127Y-93528147D01*
X98174378Y-93431484D01*
X98123214Y-93350377D01*
X98090685Y-93294639D01*
X98082140Y-93275055D01*
X98100081Y-93243522D01*
X98147641Y-93188631D01*
X98215423Y-93119143D01*
X98294029Y-93043816D01*
X98374062Y-92971410D01*
X98446125Y-92910685D01*
X98500821Y-92870400D01*
X98528348Y-92859120D01*
X98563726Y-92879554D01*
X98630248Y-92922786D01*
X98716718Y-92981432D01*
X98770394Y-93018755D01*
X98863849Y-93081407D01*
X98944987Y-93130512D01*
X99002302Y-93159363D01*
X99019923Y-93164176D01*
X99063668Y-93154744D01*
X99139549Y-93129889D01*
X99231955Y-93094775D01*
X99241596Y-93090860D01*
X99421034Y-93017543D01*
X99483495Y-92713889D01*
X99545957Y-92410236D01*
X99850000Y-92410236D01*
X100154044Y-92410236D01*
X100216505Y-92713889D01*
G37*
D15*
%TO.C,R17*%
X105321100Y-89357200D02*
X105321100Y-92659200D01*
X105321100Y-92659200D02*
X106718100Y-92659200D01*
X106718100Y-89357200D02*
X105321100Y-89357200D01*
X106718100Y-92659200D02*
X106718100Y-89357200D01*
%TO.C,R19*%
X107327700Y-84480400D02*
X107327700Y-87782400D01*
X107327700Y-87782400D02*
X108724700Y-87782400D01*
X108724700Y-84480400D02*
X107327700Y-84480400D01*
X108724700Y-87782400D02*
X108724700Y-84480400D01*
%TO.C,R5*%
X91908600Y-70548500D02*
X91908600Y-71945500D01*
X91908600Y-71945500D02*
X95210600Y-71945500D01*
X95210600Y-70548500D02*
X91908600Y-70548500D01*
X95210600Y-71945500D02*
X95210600Y-70548500D01*
%TO.C,R20*%
X105321100Y-84480400D02*
X105321100Y-87782400D01*
X105321100Y-87782400D02*
X106718100Y-87782400D01*
X106718100Y-84480400D02*
X105321100Y-84480400D01*
X106718100Y-87782400D02*
X106718100Y-84480400D01*
%TD*%
M02*
