%TF.GenerationSoftware,KiCad,Pcbnew,8.0.1*%
%TF.CreationDate,2024-12-16T22:11:09-05:00*%
%TF.ProjectId,cm,636d2e6b-6963-4616-945f-706362585858,rev?*%
%TF.SameCoordinates,Original*%
%TF.FileFunction,Copper,L7,Inr*%
%TF.FilePolarity,Positive*%
%FSLAX46Y46*%
G04 Gerber Fmt 4.6, Leading zero omitted, Abs format (unit mm)*
G04 Created by KiCad (PCBNEW 8.0.1) date 2024-12-16 22:11:09*
%MOMM*%
%LPD*%
G01*
G04 APERTURE LIST*
%TA.AperFunction,ViaPad*%
%ADD10C,0.350000*%
%TD*%
%TA.AperFunction,ViaPad*%
%ADD11C,0.403200*%
%TD*%
%TA.AperFunction,Conductor*%
%ADD12C,0.152400*%
%TD*%
G04 APERTURE END LIST*
D10*
%TO.N,GND*%
X128600000Y-75460600D03*
D11*
X100165258Y-78994000D03*
X99187000Y-84912200D03*
D10*
X111861600Y-60147200D03*
D11*
X99187000Y-85928200D03*
X99212400Y-76403200D03*
X99181942Y-67919600D03*
D10*
X111480600Y-61696600D03*
D11*
X99161600Y-77978000D03*
X98125258Y-78994000D03*
D10*
X144195800Y-85394800D03*
X132588000Y-87960200D03*
X115900000Y-73100000D03*
X129958900Y-62280800D03*
D11*
X98795258Y-86929845D03*
D10*
X131495800Y-62458600D03*
X110261400Y-60147200D03*
D11*
X98795258Y-78984000D03*
X99207342Y-66827400D03*
X100160200Y-69443600D03*
D10*
X115900000Y-80300000D03*
X112728000Y-71450000D03*
X123875800Y-60121800D03*
D11*
X99545258Y-86939845D03*
X100165258Y-86939845D03*
D10*
X116700000Y-72300000D03*
X132562600Y-83337400D03*
X115100000Y-75500000D03*
D11*
X98120200Y-69443600D03*
X99540200Y-69443600D03*
D10*
X122300000Y-84300000D03*
X117500400Y-85877400D03*
D11*
X99187000Y-85420200D03*
D10*
X123150000Y-72288400D03*
X124700000Y-84300000D03*
D11*
X98790200Y-69433600D03*
X98125258Y-86939845D03*
X99187000Y-76936600D03*
D10*
X111074200Y-60147200D03*
X115900000Y-73900000D03*
D11*
X99181942Y-67386200D03*
D10*
X115150000Y-81100000D03*
D11*
X99187000Y-84404200D03*
D10*
X115900000Y-79450000D03*
D11*
X99545258Y-78994000D03*
D10*
X115900000Y-72300000D03*
X119913400Y-85902800D03*
D11*
X99161600Y-68453000D03*
X99187000Y-77470000D03*
D10*
X109880400Y-61696600D03*
X144100000Y-80850000D03*
X128618261Y-74704200D03*
X110667800Y-61696600D03*
X113512600Y-83464400D03*
X144068800Y-70916800D03*
%TO.N,+5V*%
X101027200Y-59994800D03*
%TO.N,/Power/3V3_PG*%
X103962200Y-70231000D03*
D11*
X98196400Y-83845400D03*
D10*
%TO.N,/Power/2V5_PG*%
X103971600Y-79425800D03*
D11*
X98120200Y-75869800D03*
%TO.N,/Power/1V1_PG*%
X98094800Y-66294000D03*
D10*
X103971600Y-87579200D03*
D11*
%TO.N,+3V3*%
X119938800Y-81915000D03*
X91770200Y-92430600D03*
D10*
X130657600Y-97891600D03*
X119126000Y-75488800D03*
D11*
X91770200Y-91313000D03*
X92379800Y-91313000D03*
D10*
X133959600Y-67868800D03*
X144094200Y-89763600D03*
X107873800Y-60121800D03*
X132562600Y-80949800D03*
D11*
X92379800Y-91871800D03*
D10*
X119930000Y-75480000D03*
X133100000Y-62550000D03*
X144068800Y-79349600D03*
D11*
X117525800Y-81889600D03*
D10*
X117525800Y-75488800D03*
D11*
X117525800Y-82677000D03*
X91770200Y-91871800D03*
D10*
X122761000Y-78638400D03*
D11*
X115138200Y-78689200D03*
X115138200Y-79502000D03*
D10*
X116738400Y-75488800D03*
X144119600Y-88163400D03*
X135559800Y-62227200D03*
X109070000Y-61694200D03*
X107470000Y-61673800D03*
D11*
X92989400Y-91871800D03*
D10*
X109702600Y-93268800D03*
X108661200Y-60121800D03*
X128485700Y-62280800D03*
X144068800Y-68935600D03*
X132588000Y-85750400D03*
D11*
X92989400Y-91313000D03*
X119938800Y-82677000D03*
D10*
X129159000Y-64795400D03*
X109474000Y-60147200D03*
D11*
X92989400Y-92430600D03*
X92379800Y-92430600D03*
D10*
X108270000Y-61686400D03*
X144170400Y-83337400D03*
D11*
X115138200Y-77901800D03*
D10*
X122761000Y-79451200D03*
%TO.N,/Power/3V3_EN*%
X107086400Y-81864200D03*
X100228400Y-83845400D03*
%TO.N,/Power/2V5_EN*%
X106121200Y-81864200D03*
X100228400Y-75869800D03*
%TO.N,/Power/1V1_EN*%
X100228400Y-66344800D03*
X108026200Y-81864200D03*
%TO.N,ECP5_PRGMN_BTN*%
X126314200Y-85090000D03*
X130898700Y-62179200D03*
%TO.N,ECP5_INITN*%
X132918200Y-66268600D03*
X133070600Y-67147633D03*
X125526800Y-85090000D03*
%TO.N,Net-(D5-A)*%
X135280400Y-66227700D03*
%TO.N,Net-(D6-A)*%
X128051800Y-66852800D03*
%TO.N,IO_D1*%
X113919000Y-88773000D03*
%TO.N,IO_D2*%
X113512600Y-85877400D03*
%TO.N,IO_E6*%
X108650000Y-98450000D03*
X114350800Y-81920800D03*
%TO.N,IO_G1*%
X116840000Y-88773000D03*
%TO.N,IO_A3*%
X111099600Y-89281000D03*
%TO.N,IO_E2*%
X114325400Y-85902800D03*
%TO.N,IO_E8*%
X114325400Y-80264000D03*
X105467428Y-96967428D03*
%TO.N,IO_B3*%
X111912400Y-84302600D03*
X114650000Y-96950000D03*
%TO.N,IO_G5*%
X113050000Y-96950000D03*
X115925600Y-82702400D03*
%TO.N,IO_J1*%
X118338600Y-88773000D03*
%TO.N,IO_D6*%
X113538000Y-81889600D03*
X109550000Y-98724128D03*
%TO.N,IO_B4*%
X111912400Y-83489800D03*
X107050000Y-96950000D03*
%TO.N,IO_D5*%
X113512600Y-82677000D03*
X112895503Y-98702811D03*
%TO.N,IO_B1*%
X112318800Y-88773000D03*
%TO.N,IO_U1*%
X123870000Y-89700000D03*
%TO.N,IO_K1*%
X118350000Y-87750000D03*
%TO.N,IO_E1*%
X114706400Y-89306400D03*
%TO.N,IO_A4*%
X110718600Y-88722200D03*
%TO.N,IO_F2*%
X115112800Y-85902800D03*
%TO.N,IO_R1*%
X122270000Y-89700000D03*
%TO.N,IO_A2*%
X111506000Y-88773000D03*
%TO.N,/Hirose Connectors/IO_P1*%
X121500000Y-88800000D03*
%TO.N,IO_D8*%
X113538000Y-80289400D03*
X105050000Y-98450000D03*
%TO.N,IO_D7*%
X105850000Y-98450000D03*
X113538000Y-81076800D03*
%TO.N,IO_L1*%
X119150000Y-89700000D03*
%TO.N,IO_A5*%
X110312200Y-89281000D03*
%TO.N,IO_C5*%
X112725200Y-82677000D03*
X106250000Y-96950000D03*
%TO.N,IO_V1*%
X124650000Y-88800000D03*
%TO.N,IO_B5*%
X111937800Y-82677000D03*
X113300000Y-98450000D03*
%TO.N,IO_B2*%
X111887000Y-89306400D03*
%TO.N,IO_E5*%
X114325400Y-82677000D03*
X109050000Y-96950000D03*
%TO.N,IO_N1*%
X120221800Y-89700000D03*
%TO.N,IO_F1*%
X115519200Y-88773000D03*
%TO.N,IO_M1*%
X119650000Y-88800000D03*
%TO.N,IO_C4*%
X112725200Y-83489800D03*
X107500000Y-98450000D03*
%TO.N,IO_F4*%
X115112800Y-83489800D03*
X113950000Y-98450000D03*
X108661200Y-95950000D03*
%TO.N,IO_F5*%
X115138200Y-82677000D03*
X106650000Y-98450000D03*
%TO.N,IO_T1*%
X123100000Y-88800000D03*
%TO.N,IO_C3*%
X114650000Y-98450000D03*
X112725200Y-84277200D03*
%TO.N,IO_H1*%
X117525800Y-89700000D03*
%TO.N,IO_C1*%
X113106200Y-89306400D03*
%TO.N,IO_J20*%
X110258484Y-63003434D03*
%TO.N,ECP5_DONE*%
X127152400Y-85090000D03*
X131313552Y-66721352D03*
%TO.N,JTAG_TCK*%
X124485400Y-59944000D03*
X123926600Y-83489800D03*
%TO.N,JTAG_TDI*%
X137355450Y-68874900D03*
X123113800Y-83489800D03*
X137922000Y-65278000D03*
%TO.N,JTAG_TDO*%
X136550400Y-66227700D03*
X133477000Y-62150000D03*
X125526800Y-84302600D03*
X136550400Y-67513200D03*
%TO.N,JTAG_TMS*%
X124663200Y-64389000D03*
X124714000Y-83489800D03*
%TO.N,Net-(U9I-CFG_1)*%
X123926600Y-84302600D03*
%TO.N,/Flash + JTAG/FLASH_IO0*%
X128066800Y-94056200D03*
%TO.N,/Flash + JTAG/FLASH_IO1*%
X135305800Y-96596200D03*
X125526800Y-85877400D03*
%TO.N,/Flash + JTAG/FLASH_IO2*%
X135305800Y-95326200D03*
%TO.N,/Flash + JTAG/FLASH_IO3*%
X128066800Y-96596200D03*
%TO.N,/Flash + JTAG/FLASH_SCK*%
X124714000Y-85064600D03*
X128066800Y-95326200D03*
%TO.N,/Flash + JTAG/FLASH_CSN*%
X123113800Y-85877400D03*
X135280400Y-97866200D03*
%TO.N,/Flash + JTAG/WRITEN*%
X123113800Y-84277200D03*
%TO.N,/Flash + JTAG/CS1N*%
X123926600Y-85902800D03*
%TO.N,/Flash + JTAG/SN_CSN*%
X123113800Y-85090000D03*
%TO.N,SDRAM_A7*%
X116713000Y-73897000D03*
X132511800Y-72158600D03*
%TO.N,SDRAM_D11*%
X132588000Y-84150200D03*
X119126000Y-84277200D03*
%TO.N,SDRAM_CASN*%
X141376400Y-76911200D03*
X119126000Y-73888600D03*
%TO.N,SDRAM_D4*%
X136300000Y-84150200D03*
X119913400Y-72288400D03*
%TO.N,SDRAM_CSN*%
X121513600Y-73888600D03*
X136300000Y-75350000D03*
%TO.N,SDRAM_A11*%
X122326400Y-73888600D03*
X132511800Y-74574400D03*
%TO.N,SDRAM_D6*%
X120726200Y-73896200D03*
X136300000Y-81762600D03*
%TO.N,SDRAM_A2*%
X124714000Y-73101200D03*
X141325600Y-70561200D03*
%TO.N,SDRAM_A5*%
X123926600Y-73101200D03*
X132486400Y-70535800D03*
%TO.N,/Hirose Connectors/IO_E7*%
X113250000Y-60150000D03*
X114325400Y-81076800D03*
%TO.N,CLK_25MHZ*%
X116357400Y-91922600D03*
X115925600Y-85877400D03*
%TO.N,SDRAM_D14*%
X132588000Y-87350600D03*
X119913400Y-83464400D03*
%TO.N,SDRAM_DQM1*%
X117525800Y-84277200D03*
X130022600Y-76123800D03*
%TO.N,SDRAM_A6*%
X123926600Y-73888600D03*
X132486400Y-71348600D03*
%TO.N,SDRAM_D12*%
X132588000Y-84937600D03*
X119126000Y-83489800D03*
%TO.N,SDRAM_A1*%
X124714000Y-73888600D03*
X141325600Y-71374000D03*
%TO.N,SDRAM_A9*%
X132511800Y-73761600D03*
X118331200Y-73101200D03*
%TO.N,SDRAM_A4*%
X132461000Y-69773800D03*
X123926600Y-72288400D03*
%TO.N,SDRAM_D13*%
X132588000Y-86537800D03*
X119913400Y-84277200D03*
%TO.N,SDRAM_WEN*%
X141401800Y-77774800D03*
X119126000Y-73075800D03*
%TO.N,SDRAM_A0*%
X141325600Y-72161400D03*
X116713000Y-71500000D03*
%TO.N,SDRAM_D10*%
X132588000Y-82550000D03*
X118313200Y-83489800D03*
%TO.N,SDRAM_D1*%
X136300000Y-87325200D03*
X121513600Y-73075800D03*
%TO.N,SDRAM_D9*%
X118313200Y-84277200D03*
X132588000Y-81737200D03*
%TO.N,SDRAM_RASN*%
X141376400Y-76123800D03*
X119126000Y-74701400D03*
%TO.N,SDRAM_D8*%
X117525800Y-83464400D03*
X132562600Y-80162400D03*
%TO.N,SDRAM_D3*%
X120726200Y-72288400D03*
X136300000Y-84937600D03*
%TO.N,SDRAM_BA0*%
X141351000Y-74549000D03*
X118338600Y-73888600D03*
%TO.N,SDRAM_A10*%
X117525800Y-72313800D03*
X141325600Y-72948800D03*
%TO.N,SDRAM_D7*%
X141376400Y-80137000D03*
X119913400Y-73075800D03*
%TO.N,SDRAM_D15*%
X132613400Y-88950800D03*
X120726200Y-83515200D03*
%TO.N,SDRAM_CKE*%
X123113800Y-73075800D03*
X132511800Y-76123800D03*
%TO.N,SDRAM_D5*%
X120726200Y-73101200D03*
X136300000Y-82550000D03*
%TO.N,SDRAM_A8*%
X117525800Y-73101200D03*
X132511800Y-72974200D03*
%TO.N,SDRAM_DQM0*%
X119913400Y-73888600D03*
X141427200Y-78511400D03*
%TO.N,SDRAM_A12*%
X132511800Y-75361800D03*
X122326400Y-74676000D03*
%TO.N,SDRAM_BA1*%
X141351000Y-73761600D03*
X117525800Y-73888600D03*
%TO.N,SDRAM_CLK*%
X123113800Y-73888600D03*
X132511800Y-76962000D03*
%TO.N,SDRAM_A3*%
X124714000Y-72288400D03*
X141351000Y-69773800D03*
%TO.N,SDRAM_D2*%
X136300000Y-86537800D03*
X121513600Y-72288400D03*
%TO.N,SDRAM_D0*%
X120726200Y-84302600D03*
X136300000Y-88112600D03*
D11*
%TO.N,+1V1*%
X92354400Y-74422000D03*
X92964000Y-73863200D03*
X92354400Y-73863200D03*
X120726200Y-80314800D03*
X91744800Y-73863200D03*
X92964000Y-73304400D03*
X91744800Y-73304400D03*
X117500400Y-78689200D03*
X119126000Y-80314800D03*
X91744800Y-74422000D03*
X120726200Y-77063600D03*
X117525800Y-77063600D03*
X117500400Y-80289400D03*
X120726200Y-78689200D03*
X119126000Y-77063600D03*
X92964000Y-74422000D03*
X92354400Y-73304400D03*
%TO.N,+2V5*%
X115900200Y-75488800D03*
X92989400Y-81762600D03*
X92379800Y-82321400D03*
D10*
X128752600Y-80695800D03*
D11*
X91770200Y-82321400D03*
X91770200Y-81762600D03*
X92379800Y-82880200D03*
X92379800Y-81762600D03*
X92989400Y-82321400D03*
X115925600Y-81889600D03*
D10*
X128752600Y-81483200D03*
D11*
X91770200Y-82880200D03*
X122402600Y-75488800D03*
D10*
X128752600Y-79883000D03*
D11*
X92989400Y-82880200D03*
X122402600Y-81889600D03*
D10*
%TO.N,IO_C20*%
X107870000Y-63000000D03*
%TO.N,IO_G20*%
X109448600Y-62992000D03*
%TO.N,IO_L20*%
X111048800Y-63017400D03*
%TO.N,IO_E20*%
X108670710Y-63002593D03*
%TO.N,IO_H20*%
X109880400Y-62712600D03*
%TO.N,IO_K20*%
X110667800Y-62712600D03*
%TO.N,IO_M20*%
X111455200Y-62712600D03*
%TO.N,IO_D20*%
X108274372Y-62712600D03*
%TO.N,IO_F20*%
X109063943Y-62709918D03*
%TO.N,IO_B20*%
X105971800Y-62850000D03*
%TO.N,IO_P20*%
X112252110Y-62676607D03*
%TO.N,IO_T20*%
X113055400Y-62687200D03*
%TO.N,IO_R20*%
X112649000Y-62941200D03*
%TO.N,IO_U20*%
X113461800Y-62966600D03*
%TO.N,IO_N20*%
X111840602Y-63012998D03*
%TO.N,IO_N19*%
X120726200Y-71501000D03*
X115070000Y-60147200D03*
%TO.N,IO_A19*%
X111074200Y-71450200D03*
X105079800Y-64439800D03*
%TO.N,IO_L19*%
X119126000Y-71526400D03*
X113487200Y-61661300D03*
%TO.N,IO_T19*%
X115874800Y-60147200D03*
X123139200Y-71501000D03*
%TO.N,IO_M19*%
X119938800Y-71501000D03*
X114274600Y-61671200D03*
%TO.N,IO_B19*%
X105486200Y-64719200D03*
X111912400Y-71475600D03*
%TO.N,IO_K19*%
X112674400Y-60147200D03*
X118313200Y-71501000D03*
%TO.N,IO_J19*%
X112268000Y-61696600D03*
X117525800Y-71501000D03*
%TO.N,IO_P19*%
X121513600Y-71501000D03*
X115466630Y-61678363D03*
%TO.N,IO_U19*%
X123926600Y-71501000D03*
X116281200Y-61671200D03*
%TO.N,IO_A18*%
X111099600Y-72339200D03*
%TO.N,IO_A13*%
X111119572Y-76289572D03*
%TO.N,IO_A16*%
X111099600Y-73914000D03*
%TO.N,IO_A17*%
X111099600Y-73075800D03*
%TO.N,IO_A15*%
X111099600Y-74701400D03*
%TO.N,IO_A14*%
X110337600Y-75539600D03*
%TO.N,IO_A11*%
X111099600Y-77876400D03*
%TO.N,IO_A12*%
X111099600Y-77089000D03*
%TO.N,IO_B18*%
X120675400Y-60198000D03*
X111912400Y-72288400D03*
%TO.N,IO_B16*%
X119862600Y-60172600D03*
X111912400Y-73888600D03*
%TO.N,IO_B15*%
X119481600Y-61722000D03*
X111912400Y-74676000D03*
%TO.N,IO_B11*%
X111912400Y-77901800D03*
X118262400Y-60147200D03*
%TO.N,IO_B17*%
X111912400Y-73101200D03*
X120269000Y-61722000D03*
%TO.N,IO_B13*%
X119075200Y-60147200D03*
X111912400Y-76276200D03*
%TO.N,IO_B12*%
X118668800Y-61747400D03*
X111912400Y-77089000D03*
%TO.N,IO_A6*%
X111099600Y-81889600D03*
%TO.N,IO_A9*%
X111099600Y-79476600D03*
%TO.N,IO_A10*%
X111099600Y-78663800D03*
%TO.N,IO_A8*%
X111099600Y-80289400D03*
%TO.N,IO_A7*%
X110210600Y-81051400D03*
%TO.N,IO_B6*%
X116687600Y-60147200D03*
X111912400Y-81889600D03*
%TO.N,IO_B9*%
X117475000Y-60147200D03*
X111912400Y-79502000D03*
%TO.N,IO_B8*%
X111912400Y-80289400D03*
X117053100Y-61722000D03*
%TO.N,IO_B10*%
X117856000Y-61747400D03*
X111912400Y-78714600D03*
%TO.N,IO_C10*%
X112725200Y-78689200D03*
X124700000Y-96400000D03*
%TO.N,IO_C14*%
X122275600Y-60248800D03*
X112725200Y-75463400D03*
%TO.N,IO_C12*%
X123063000Y-60248800D03*
X112725200Y-77089000D03*
%TO.N,IO_C13*%
X122656600Y-61747400D03*
X112725200Y-76276200D03*
%TO.N,IO_C17*%
X112725200Y-73075800D03*
X121070000Y-61733800D03*
%TO.N,IO_C15*%
X121869200Y-61747400D03*
X112725200Y-74701400D03*
%TO.N,IO_C16*%
X112725200Y-73888600D03*
X121488200Y-60223400D03*
%TO.N,IO_D15*%
X106680000Y-64439800D03*
X113512600Y-74676000D03*
%TO.N,IO_D14*%
X107061000Y-64770000D03*
X113512600Y-75463400D03*
%TO.N,IO_D13*%
X106273600Y-64744600D03*
X113512600Y-76276200D03*
%TO.N,IO_D12*%
X113512600Y-77089000D03*
X105870857Y-64437118D03*
%TO.N,IO_D18*%
X119481600Y-64414400D03*
X114300000Y-72300000D03*
%TO.N,IO_D19*%
X114300000Y-71500000D03*
X119862600Y-64846200D03*
%TO.N,IO_F19*%
X121462800Y-65227200D03*
X115900200Y-71475600D03*
%TO.N,IO_F17*%
X121056400Y-64414400D03*
X115138200Y-73101200D03*
%TO.N,IO_E17*%
X119062500Y-64820800D03*
X114300000Y-73075800D03*
%TO.N,IO_E18*%
X120269000Y-64414400D03*
X115112800Y-72313800D03*
%TO.N,IO_E19*%
X115112800Y-71501000D03*
X120650000Y-64871600D03*
%TO.N,IO_D9*%
X103936800Y-96412800D03*
X113538000Y-79476600D03*
%TO.N,IO_E15*%
X114325400Y-75488800D03*
X103149400Y-94157800D03*
%TO.N,IO_E9*%
X103911400Y-92938600D03*
X114325400Y-79476600D03*
%TO.N,IO_D10*%
X103936800Y-95656400D03*
X113512600Y-78689200D03*
%TO.N,IO_E11*%
X103225600Y-96034600D03*
X114300000Y-77876400D03*
%TO.N,IO_E4*%
X114325400Y-83489800D03*
X107850000Y-96950000D03*
%TO.N,IO_E10*%
X103225600Y-96850200D03*
X114325400Y-78689200D03*
%TO.N,IO_E13*%
X103936800Y-93751400D03*
X115087400Y-76276200D03*
%TO.N,IO_E14*%
X103124000Y-93319600D03*
X114325400Y-76276200D03*
%TO.N,/Hirose Connectors/IO_N3*%
X122650000Y-96850000D03*
X121539000Y-85090000D03*
%TO.N,/Hirose Connectors/IO_N2*%
X123450000Y-96850000D03*
X121539000Y-85902800D03*
%TO.N,/Hirose Connectors/IO_P2*%
X122326400Y-85090000D03*
X123400000Y-62900000D03*
%TO.N,/Hirose Connectors/IO_N5*%
X121539000Y-82702400D03*
X113850000Y-60150000D03*
%TO.N,/Hirose Connectors/IO_P5*%
X114439700Y-60134500D03*
X122326400Y-82702400D03*
%TO.N,/Hirose Connectors/IO_P4*%
X122326400Y-83489800D03*
X122656600Y-62890400D03*
%TO.N,/Hirose Connectors/IO_N4*%
X121539000Y-83489800D03*
X121503700Y-62900000D03*
%TO.N,/Hirose Connectors/IO_P3*%
X121528200Y-84300000D03*
X124300000Y-96850000D03*
%TO.N,/Hirose Connectors/IO_K3*%
X119300000Y-98724128D03*
X118338600Y-85064600D03*
%TO.N,/Hirose Connectors/IO_C2*%
X118500000Y-98724128D03*
X112725200Y-85902800D03*
%TO.N,/Hirose Connectors/IO_F3*%
X115112800Y-84277200D03*
X120100000Y-98724128D03*
%TO.N,/Hirose Connectors/IO_J3*%
X117500400Y-85090000D03*
X118650000Y-96850000D03*
%TO.N,/Hirose Connectors/IO_C8*%
X122250000Y-96400000D03*
X112725200Y-80289400D03*
%TO.N,/Hirose Connectors/IO_L2*%
X120250000Y-96850000D03*
X119126000Y-85902800D03*
%TO.N,/Hirose Connectors/IO_K2*%
X119067428Y-95732572D03*
X118338600Y-85902800D03*
%TO.N,/Hirose Connectors/IO_M3*%
X121850000Y-96850000D03*
X119913400Y-85064600D03*
%TO.N,/Hirose Connectors/IO_D11*%
X113512600Y-77876400D03*
X123850000Y-96400000D03*
%TO.N,/Hirose Connectors/IO_C11*%
X112725200Y-77876400D03*
X119850000Y-96400000D03*
%TO.N,/Hirose Connectors/IO_E3*%
X117878200Y-96150000D03*
X114325400Y-84277200D03*
%TO.N,/Hirose Connectors/IO_C6*%
X112725200Y-81889600D03*
X120650000Y-96400000D03*
%TO.N,/Hirose Connectors/IO_L3*%
X121050000Y-96900000D03*
X119126000Y-85090000D03*
%TO.N,/Hirose Connectors/IO_D3*%
X113512600Y-84302600D03*
X118000000Y-98400000D03*
%TO.N,/Hirose Connectors/IO_H2*%
X116713000Y-85902800D03*
X118100000Y-96850000D03*
%TO.N,/Hirose Connectors/IO_C9*%
X123050000Y-96400000D03*
X112725200Y-79476600D03*
%TO.N,/Hirose Connectors/IO_C7*%
X112725200Y-81076800D03*
X121450000Y-96400000D03*
%TO.N,/Hirose Connectors/IO_H3*%
X116750000Y-85100000D03*
X114300000Y-95900000D03*
%TO.N,/Hirose Connectors/IO_G3*%
X116750000Y-84300000D03*
X113500000Y-95900000D03*
%TD*%
D12*
%TO.N,IO_E8*%
X105450000Y-85100800D02*
X105450000Y-96950000D01*
X114325400Y-80264000D02*
X113916200Y-80673200D01*
X105450000Y-96950000D02*
X105467428Y-96967428D01*
X109877600Y-80673200D02*
X105450000Y-85100800D01*
X113916200Y-80673200D02*
X109877600Y-80673200D01*
%TO.N,IO_B4*%
X111912400Y-83489800D02*
X110460200Y-83489800D01*
X110460200Y-83489800D02*
X107050000Y-86900000D01*
X107050000Y-86900000D02*
X107050000Y-96950000D01*
%TO.N,IO_D8*%
X105050000Y-81716200D02*
X105050000Y-98450000D01*
X106886000Y-79880200D02*
X105050000Y-81716200D01*
X113538000Y-80289400D02*
X113128800Y-79880200D01*
X113128800Y-79880200D02*
X106886000Y-79880200D01*
%TO.N,IO_D7*%
X113159800Y-81455000D02*
X110010200Y-81455000D01*
X105850000Y-85615200D02*
X105850000Y-98450000D01*
X113538000Y-81076800D02*
X113159800Y-81455000D01*
X110010200Y-81455000D02*
X105850000Y-85615200D01*
%TO.N,IO_C5*%
X109829600Y-82296000D02*
X106273600Y-85852000D01*
X106273600Y-96926400D02*
X106250000Y-96950000D01*
X112725200Y-82677000D02*
X112344200Y-82296000D01*
X112344200Y-82296000D02*
X109829600Y-82296000D01*
X106273600Y-85852000D02*
X106273600Y-96926400D01*
%TO.N,IO_C4*%
X110566200Y-83921600D02*
X107471800Y-87016000D01*
X112293400Y-83921600D02*
X110566200Y-83921600D01*
X107471800Y-98421800D02*
X107500000Y-98450000D01*
X112725200Y-83489800D02*
X112293400Y-83921600D01*
X107471800Y-87016000D02*
X107471800Y-98421800D01*
%TO.N,IO_F4*%
X108661200Y-93167200D02*
X109702600Y-92125800D01*
X115544600Y-87985600D02*
X115544600Y-83896200D01*
X108661200Y-95950000D02*
X108661200Y-93167200D01*
X116052600Y-88493600D02*
X115544600Y-87985600D01*
X109702600Y-92125800D02*
X113792000Y-92125800D01*
X116052600Y-89865200D02*
X116052600Y-88493600D01*
X113792000Y-92125800D02*
X116052600Y-89865200D01*
X115544600Y-83896200D02*
X115519200Y-83896200D01*
X115519200Y-83896200D02*
X115112800Y-83489800D01*
%TO.N,IO_F5*%
X115138200Y-82677000D02*
X114760000Y-83055200D01*
X109857800Y-83055200D02*
X106654600Y-86258400D01*
X114760000Y-83055200D02*
X109857800Y-83055200D01*
X106654600Y-86258400D02*
X106654600Y-98445400D01*
X106654600Y-98445400D02*
X106650000Y-98450000D01*
%TO.N,SDRAM_D11*%
X118719600Y-78497726D02*
X119767326Y-77450000D01*
X118719600Y-83870800D02*
X118719600Y-78497726D01*
X120912274Y-77450000D02*
X128554800Y-77450000D01*
X130835400Y-83591400D02*
X131394200Y-84150200D01*
X120540126Y-77450000D02*
X120558526Y-77468400D01*
X120893874Y-77468400D02*
X120912274Y-77450000D01*
X120558526Y-77468400D02*
X120893874Y-77468400D01*
X119126000Y-84277200D02*
X118719600Y-83870800D01*
X119767326Y-77450000D02*
X120540126Y-77450000D01*
X131394200Y-84150200D02*
X132588000Y-84150200D01*
X128554800Y-77450000D02*
X130835400Y-79730600D01*
X130835400Y-79730600D02*
X130835400Y-83591400D01*
%TO.N,SDRAM_D4*%
X119507000Y-70300000D02*
X120033200Y-69773800D01*
X132257800Y-70942200D02*
X133604000Y-70942200D01*
X131089400Y-69773800D02*
X132257800Y-70942200D01*
X133604000Y-70942200D02*
X134750000Y-72088200D01*
X135196798Y-84150200D02*
X136300000Y-84150200D01*
X119913400Y-72288400D02*
X119507000Y-71882000D01*
X119507000Y-71882000D02*
X119507000Y-70300000D01*
X120033200Y-69773800D02*
X131089400Y-69773800D01*
X134750000Y-72088200D02*
X134750000Y-83703402D01*
X134750000Y-83703402D02*
X135196798Y-84150200D01*
%TO.N,SDRAM_CSN*%
X134069711Y-68681600D02*
X136300000Y-70911889D01*
X120856000Y-74546200D02*
X119816056Y-74546200D01*
X116281200Y-69621400D02*
X117221000Y-68681600D01*
X117646200Y-74546200D02*
X116827344Y-74546200D01*
X118179600Y-75079600D02*
X117646200Y-74546200D01*
X116281200Y-74000056D02*
X116281200Y-69621400D01*
X121513600Y-73888600D02*
X120856000Y-74546200D01*
X119282656Y-75079600D02*
X118179600Y-75079600D01*
X117221000Y-68681600D02*
X134069711Y-68681600D01*
X116827344Y-74546200D02*
X116281200Y-74000056D01*
X136300000Y-70911889D02*
X136300000Y-75350000D01*
X119816056Y-74546200D02*
X119282656Y-75079600D01*
%TO.N,SDRAM_A11*%
X122653800Y-71122800D02*
X129060200Y-71122800D01*
X122580400Y-71196200D02*
X122653800Y-71122800D01*
X122326400Y-73888600D02*
X122326400Y-71450200D01*
X129060200Y-71122800D02*
X132511800Y-74574400D01*
X122326400Y-71450200D02*
X122580400Y-71196200D01*
%TO.N,SDRAM_D6*%
X133553200Y-69037200D02*
X117703600Y-69037200D01*
X117703600Y-69037200D02*
X117119400Y-69621400D01*
X117119400Y-74017056D02*
X117369144Y-74266800D01*
X136300000Y-81762600D02*
X135765144Y-81762600D01*
X135600000Y-81597456D02*
X135600000Y-71084000D01*
X136300000Y-81762600D02*
X136212600Y-81762600D01*
X135600000Y-71084000D02*
X133553200Y-69037200D01*
X117369144Y-74266800D02*
X120355600Y-74266800D01*
X135765144Y-81762600D02*
X135600000Y-81597456D01*
X120355600Y-74266800D02*
X120726200Y-73896200D01*
X117119400Y-69621400D02*
X117119400Y-74017056D01*
%TO.N,/Hirose Connectors/IO_E7*%
X113800000Y-73500000D02*
X112200000Y-71900000D01*
X117147600Y-75902400D02*
X117147600Y-75052400D01*
X107900000Y-67300000D02*
X107900000Y-64300000D01*
X114325400Y-81074600D02*
X114703600Y-80696400D01*
X111500000Y-70900000D02*
X107900000Y-67300000D01*
X117147600Y-75052400D02*
X116920800Y-74825600D01*
X116350000Y-78465144D02*
X116350000Y-76700000D01*
X106350000Y-62750000D02*
X106350000Y-61450000D01*
X116920800Y-74825600D02*
X116290744Y-74825600D01*
X116290744Y-74825600D02*
X114965144Y-73500000D01*
X114703600Y-80696400D02*
X114703600Y-79364126D01*
X114703600Y-79364126D02*
X114970526Y-79097200D01*
X114970526Y-79097200D02*
X115717944Y-79097200D01*
X106900000Y-60900000D02*
X113050000Y-60900000D01*
X112200000Y-71900000D02*
X111500000Y-71900000D01*
X116350000Y-76700000D02*
X117147600Y-75902400D01*
X113250000Y-60700000D02*
X113250000Y-60150000D01*
X114965144Y-73500000D02*
X113800000Y-73500000D01*
X114325400Y-81076800D02*
X114325400Y-81074600D01*
X107900000Y-64300000D02*
X106350000Y-62750000D01*
X113050000Y-60900000D02*
X113250000Y-60700000D01*
X106350000Y-61450000D02*
X106900000Y-60900000D01*
X111500000Y-71900000D02*
X111500000Y-70900000D01*
X115717944Y-79097200D02*
X116350000Y-78465144D01*
%TO.N,SDRAM_D14*%
X129692400Y-80137000D02*
X127905400Y-78350000D01*
X127905400Y-78350000D02*
X125050000Y-78350000D01*
X122335600Y-79950000D02*
X120345200Y-81940400D01*
X129692400Y-86791800D02*
X129692400Y-80137000D01*
X120345200Y-81940400D02*
X120345200Y-83032600D01*
X123450000Y-79950000D02*
X122335600Y-79950000D01*
X132588000Y-87350600D02*
X130251200Y-87350600D01*
X125050000Y-78350000D02*
X123450000Y-79950000D01*
X130251200Y-87350600D02*
X129692400Y-86791800D01*
X120345200Y-83032600D02*
X119913400Y-83464400D01*
%TO.N,SDRAM_DQM1*%
X116789200Y-77749400D02*
X116789200Y-83540600D01*
X116789200Y-83540600D02*
X117525800Y-84277200D01*
X119792744Y-75082400D02*
X119504200Y-75370944D01*
X128981200Y-75082400D02*
X119792744Y-75082400D01*
X117050000Y-77488600D02*
X116789200Y-77749400D01*
X117050000Y-76900000D02*
X117050000Y-77488600D01*
X119504200Y-75370944D02*
X119504200Y-75645456D01*
X117350000Y-76600000D02*
X117050000Y-76900000D01*
X119504200Y-75645456D02*
X119282656Y-75867000D01*
X118050000Y-76600000D02*
X117350000Y-76600000D01*
X130022600Y-76123800D02*
X128981200Y-75082400D01*
X119282656Y-75867000D02*
X118783000Y-75867000D01*
X118783000Y-75867000D02*
X118050000Y-76600000D01*
%TO.N,SDRAM_D12*%
X120302663Y-77750000D02*
X128346800Y-77750000D01*
X130429000Y-84124800D02*
X131241800Y-84937600D01*
X131241800Y-84937600D02*
X132588000Y-84937600D01*
X119735600Y-81150594D02*
X119735600Y-78317063D01*
X119126000Y-83489800D02*
X119100600Y-83464400D01*
X130429000Y-79832200D02*
X130429000Y-84124800D01*
X119100600Y-81785594D02*
X119735600Y-81150594D01*
X128346800Y-77750000D02*
X130429000Y-79832200D01*
X119735600Y-78317063D02*
X120302663Y-77750000D01*
X119100600Y-83464400D02*
X119100600Y-81785594D01*
%TO.N,SDRAM_D13*%
X130073400Y-85852000D02*
X130759200Y-86537800D01*
X119534000Y-83897800D02*
X119534000Y-81747326D01*
X120015000Y-81266326D02*
X120015000Y-78432795D01*
X119913400Y-84277200D02*
X119534000Y-83897800D01*
X130073400Y-79959200D02*
X130073400Y-85852000D01*
X120388995Y-78058800D02*
X128173000Y-78058800D01*
X130759200Y-86537800D02*
X132588000Y-86537800D01*
X128173000Y-78058800D02*
X130073400Y-79959200D01*
X119534000Y-81747326D02*
X120015000Y-81266326D01*
X120015000Y-78432795D02*
X120388995Y-78058800D01*
%TO.N,SDRAM_D10*%
X128297000Y-76658800D02*
X131165600Y-79527400D01*
X118313200Y-83489800D02*
X118313200Y-78508995D01*
X131165600Y-79527400D02*
X131165600Y-81965800D01*
X131749800Y-82550000D02*
X132588000Y-82550000D01*
X118313200Y-78508995D02*
X120163395Y-76658800D01*
X120163395Y-76658800D02*
X128297000Y-76658800D01*
X131165600Y-81965800D02*
X131749800Y-82550000D01*
%TO.N,SDRAM_D1*%
X136300000Y-87325200D02*
X135375200Y-87325200D01*
X132355144Y-73352400D02*
X129843344Y-70840600D01*
X135375200Y-87325200D02*
X133500000Y-85450000D01*
X132839200Y-73352400D02*
X132355144Y-73352400D01*
X133500000Y-85450000D02*
X133500000Y-74013200D01*
X133500000Y-74013200D02*
X132839200Y-73352400D01*
X121920000Y-72669400D02*
X121513600Y-73075800D01*
X121920000Y-71196200D02*
X121920000Y-72669400D01*
X122275600Y-70840600D02*
X121920000Y-71196200D01*
X129843344Y-70840600D02*
X122275600Y-70840600D01*
%TO.N,SDRAM_D9*%
X117906800Y-83870800D02*
X117906800Y-83058000D01*
X118719600Y-76897526D02*
X118959926Y-76657200D01*
X131800600Y-79425800D02*
X131800600Y-81407000D01*
X118959926Y-76657200D02*
X119583200Y-76657200D01*
X117906800Y-83058000D02*
X117932200Y-83032600D01*
X118313200Y-84277200D02*
X117906800Y-83870800D01*
X118719600Y-77470000D02*
X118719600Y-76897526D01*
X119861000Y-76379400D02*
X128754200Y-76379400D01*
X117932200Y-83032600D02*
X117932200Y-78257400D01*
X119583200Y-76657200D02*
X119861000Y-76379400D01*
X128754200Y-76379400D02*
X131800600Y-79425800D01*
X132130800Y-81737200D02*
X132588000Y-81737200D01*
X131800600Y-81407000D02*
X132130800Y-81737200D01*
X117932200Y-78257400D02*
X118719600Y-77470000D01*
%TO.N,SDRAM_D8*%
X129320000Y-76100000D02*
X132562600Y-79342600D01*
X117095600Y-78126395D02*
X118844195Y-76377800D01*
X117525800Y-83464400D02*
X117095600Y-83034200D01*
X132562600Y-80162400D02*
X132562600Y-80213200D01*
X119745269Y-76100000D02*
X129320000Y-76100000D01*
X132562600Y-79342600D02*
X132562600Y-80162400D01*
X118844195Y-76377800D02*
X119467469Y-76377800D01*
X119467469Y-76377800D02*
X119745269Y-76100000D01*
X117095600Y-83034200D02*
X117095600Y-78126395D01*
%TO.N,SDRAM_D3*%
X120348000Y-71910200D02*
X120726200Y-72288400D01*
X133402256Y-71729600D02*
X132332544Y-71729600D01*
X130757744Y-70154800D02*
X121270868Y-70154800D01*
X120348000Y-71077668D02*
X120348000Y-71910200D01*
X135137600Y-84937600D02*
X134350000Y-84150000D01*
X134350000Y-72677344D02*
X133402256Y-71729600D01*
X121270868Y-70154800D02*
X120348000Y-71077668D01*
X136300000Y-84937600D02*
X135137600Y-84937600D01*
X134350000Y-84150000D02*
X134350000Y-72677344D01*
X132332544Y-71729600D02*
X130757744Y-70154800D01*
%TO.N,SDRAM_D15*%
X130477735Y-88150000D02*
X129300000Y-86972265D01*
X122491500Y-80264000D02*
X120726200Y-82029300D01*
X120726200Y-82029300D02*
X120726200Y-83515200D01*
X129300000Y-86972265D02*
X129300000Y-80506600D01*
X129057400Y-80264000D02*
X122491500Y-80264000D01*
X132613400Y-88950800D02*
X131812600Y-88150000D01*
X129300000Y-80506600D02*
X129057400Y-80264000D01*
X131812600Y-88150000D02*
X130477735Y-88150000D01*
%TO.N,SDRAM_CKE*%
X123538000Y-73500000D02*
X123113800Y-73075800D01*
X132511800Y-76123800D02*
X129888000Y-73500000D01*
X129888000Y-73500000D02*
X123538000Y-73500000D01*
%TO.N,SDRAM_D5*%
X117935000Y-72240400D02*
X118361200Y-72666600D01*
X135200000Y-71623800D02*
X133731000Y-70154800D01*
X120291600Y-72666600D02*
X120726200Y-73101200D01*
X117935000Y-70406000D02*
X117935000Y-72240400D01*
X136300000Y-82550000D02*
X135765144Y-82550000D01*
X131241800Y-69342000D02*
X118999000Y-69342000D01*
X133731000Y-70154800D02*
X132054600Y-70154800D01*
X135765144Y-82550000D02*
X135200000Y-81984856D01*
X132054600Y-70154800D02*
X131241800Y-69342000D01*
X118999000Y-69342000D02*
X117935000Y-70406000D01*
X118361200Y-72666600D02*
X120291600Y-72666600D01*
X135200000Y-81984856D02*
X135200000Y-71623800D01*
%TO.N,SDRAM_A12*%
X122326400Y-74676000D02*
X122750000Y-74252400D01*
X122735600Y-74045256D02*
X122735600Y-72714400D01*
X122750000Y-74059656D02*
X122735600Y-74045256D01*
X122783400Y-72666600D02*
X129816600Y-72666600D01*
X122750000Y-74252400D02*
X122750000Y-74059656D01*
X122735600Y-72714400D02*
X122783400Y-72666600D01*
X129816600Y-72666600D02*
X132511800Y-75361800D01*
%TO.N,SDRAM_CLK*%
X132511800Y-76962000D02*
X132511800Y-76987400D01*
X129824400Y-74300000D02*
X132486400Y-76962000D01*
X132486400Y-76962000D02*
X132511800Y-76962000D01*
X132511800Y-76987400D02*
X132511800Y-76987400D01*
X123113800Y-73888600D02*
X123525200Y-74300000D01*
X123525200Y-74300000D02*
X129824400Y-74300000D01*
%TO.N,SDRAM_D2*%
X121539000Y-70510400D02*
X121132600Y-70916800D01*
X133358532Y-72536800D02*
X132277600Y-72536800D01*
X121132600Y-71907400D02*
X121513600Y-72288400D01*
X130251200Y-70510400D02*
X121539000Y-70510400D01*
X135937800Y-86537800D02*
X133900000Y-84500000D01*
X133900000Y-84500000D02*
X133900000Y-73078268D01*
X132277600Y-72536800D02*
X130251200Y-70510400D01*
X136300000Y-86537800D02*
X135937800Y-86537800D01*
X133900000Y-73078268D02*
X133358532Y-72536800D01*
X121132600Y-70916800D02*
X121132600Y-71907400D01*
%TO.N,SDRAM_D0*%
X122498995Y-80825600D02*
X127733800Y-80825600D01*
X133400000Y-89700000D02*
X134987400Y-88112600D01*
X128200000Y-81291800D02*
X128200000Y-86650000D01*
X128200000Y-86650000D02*
X131250000Y-89700000D01*
X134987400Y-88112600D02*
X136300000Y-88112600D01*
X131250000Y-89700000D02*
X133400000Y-89700000D01*
X121132600Y-83896200D02*
X121132600Y-82191995D01*
X121132600Y-82191995D02*
X122498995Y-80825600D01*
X120726200Y-84302600D02*
X121132600Y-83896200D01*
X127733800Y-80825600D02*
X128200000Y-81291800D01*
%TO.N,IO_D18*%
X119481600Y-64974656D02*
X119481600Y-64414400D01*
X114300000Y-72300000D02*
X114300000Y-72291264D01*
X114745932Y-65379600D02*
X119076656Y-65379600D01*
X114300000Y-72291264D02*
X112852200Y-70843464D01*
X119076656Y-65379600D02*
X119481600Y-64974656D01*
X112852200Y-67273332D02*
X114745932Y-65379600D01*
X112852200Y-70843464D02*
X112852200Y-67273332D01*
%TO.N,IO_D19*%
X114300000Y-71500000D02*
X113903868Y-71500000D01*
X113903868Y-71500000D02*
X113131600Y-70727732D01*
X113131600Y-70727732D02*
X113131600Y-67462400D01*
X113131600Y-67462400D02*
X114935000Y-65659000D01*
X119354600Y-65659000D02*
X119862600Y-65151000D01*
X119862600Y-65151000D02*
X119862600Y-64846200D01*
X114935000Y-65659000D02*
X119354600Y-65659000D01*
%TO.N,IO_F19*%
X121462800Y-65227200D02*
X121462800Y-65201800D01*
X121462800Y-65582800D02*
X119659400Y-67386200D01*
X115900200Y-69607268D02*
X115900200Y-71475600D01*
X118121268Y-67386200D02*
X115900200Y-69607268D01*
X119659400Y-67386200D02*
X118121268Y-67386200D01*
X121462800Y-65227200D02*
X121462800Y-65582800D01*
%TO.N,IO_F17*%
X115519200Y-70739000D02*
X115519200Y-72720200D01*
X114020600Y-67995800D02*
X114020600Y-69240400D01*
X121056400Y-65354200D02*
X119913400Y-66497200D01*
X114020600Y-69240400D02*
X115519200Y-70739000D01*
X115519200Y-66497200D02*
X114020600Y-67995800D01*
X119913400Y-66497200D02*
X115519200Y-66497200D01*
X115519200Y-72720200D02*
X115138200Y-73101200D01*
X121056400Y-64414400D02*
X121056400Y-65354200D01*
%TO.N,IO_E17*%
X111531400Y-68199000D02*
X114630200Y-65100200D01*
X114630200Y-65100200D02*
X118783100Y-65100200D01*
X112349800Y-71099800D02*
X111531400Y-70281400D01*
X112643144Y-71900000D02*
X112349800Y-71606656D01*
X114300000Y-73050000D02*
X113150000Y-71900000D01*
X118783100Y-65100200D02*
X119062500Y-64820800D01*
X112349800Y-71606656D02*
X112349800Y-71099800D01*
X111531400Y-70281400D02*
X111531400Y-68199000D01*
X113150000Y-71900000D02*
X112643144Y-71900000D01*
X114300000Y-73075800D02*
X114300000Y-73050000D01*
%TO.N,IO_E18*%
X115112800Y-72313800D02*
X114681000Y-71882000D01*
X113893600Y-71094600D02*
X113411000Y-70612000D01*
X114703600Y-71344344D02*
X114453856Y-71094600D01*
X114703600Y-71859400D02*
X114703600Y-71344344D01*
X114453856Y-71094600D02*
X113893600Y-71094600D01*
X115112800Y-65938400D02*
X119481600Y-65938400D01*
X113411000Y-70612000D02*
X113411000Y-67640200D01*
X113411000Y-67640200D02*
X115112800Y-65938400D01*
X119481600Y-65938400D02*
X120269000Y-65151000D01*
X120269000Y-65151000D02*
X120269000Y-64414400D01*
X114681000Y-71882000D02*
X114703600Y-71859400D01*
%TO.N,IO_E19*%
X113690400Y-70383400D02*
X113690400Y-67843400D01*
X114096800Y-70789800D02*
X113690400Y-70383400D01*
X119608600Y-66217800D02*
X120650000Y-65176400D01*
X120650000Y-65176400D02*
X120650000Y-64871600D01*
X113690400Y-67843400D02*
X115316000Y-66217800D01*
X115316000Y-66217800D02*
X119608600Y-66217800D01*
X115112800Y-71501000D02*
X115112800Y-71358412D01*
X114544188Y-70789800D02*
X114096800Y-70789800D01*
X115112800Y-71358412D02*
X114544188Y-70789800D01*
%TO.N,IO_D9*%
X104724200Y-96139000D02*
X104450400Y-96412800D01*
X106098600Y-79092800D02*
X104724200Y-80467200D01*
X113179600Y-79092800D02*
X106098600Y-79092800D01*
X104724200Y-80467200D02*
X104724200Y-96139000D01*
X113538000Y-79451200D02*
X113179600Y-79092800D01*
X113538000Y-79476600D02*
X113538000Y-79451200D01*
X104450400Y-96412800D02*
X103936800Y-96412800D01*
%TO.N,IO_E15*%
X105384600Y-75768200D02*
X101803200Y-79349600D01*
X110131600Y-75085200D02*
X109448600Y-75768200D01*
X101803200Y-79349600D02*
X101803200Y-93497400D01*
X102463600Y-94157800D02*
X103149400Y-94157800D01*
X113921800Y-75085200D02*
X110131600Y-75085200D01*
X109448600Y-75768200D02*
X105384600Y-75768200D01*
X101803200Y-93497400D02*
X102463600Y-94157800D01*
X114325400Y-75488800D02*
X113921800Y-75085200D01*
%TO.N,IO_E9*%
X113817400Y-77495400D02*
X106603800Y-77495400D01*
X103530400Y-91490800D02*
X103911400Y-91871800D01*
X113890800Y-78940400D02*
X113890800Y-77568800D01*
X114325400Y-79476600D02*
X113893600Y-79044800D01*
X113893600Y-79044800D02*
X113893600Y-78943200D01*
X103530400Y-80568800D02*
X103530400Y-91490800D01*
X113890800Y-77568800D02*
X113817400Y-77495400D01*
X103911400Y-91871800D02*
X103911400Y-92938600D01*
X106603800Y-77495400D02*
X103530400Y-80568800D01*
X113893600Y-78943200D02*
X113890800Y-78940400D01*
%TO.N,IO_D10*%
X113106200Y-78282800D02*
X106400600Y-78282800D01*
X113512600Y-78689200D02*
X113106200Y-78282800D01*
X104444800Y-95148400D02*
X103936800Y-95656400D01*
X106400600Y-78282800D02*
X104444800Y-80238600D01*
X104444800Y-80238600D02*
X104444800Y-95148400D01*
%TO.N,IO_E11*%
X109220000Y-75311000D02*
X105206800Y-75311000D01*
X114300000Y-77063600D02*
X114681000Y-76682600D01*
X115265928Y-76682600D02*
X115493800Y-76454728D01*
X105206800Y-75311000D02*
X101371400Y-79146400D01*
X114300000Y-77876400D02*
X114300000Y-77063600D01*
X114681000Y-76682600D02*
X115265928Y-76682600D01*
X114706400Y-74295000D02*
X110236000Y-74295000D01*
X101371400Y-95046800D02*
X102359200Y-96034600D01*
X102359200Y-96034600D02*
X103225600Y-96034600D01*
X101371400Y-79146400D02*
X101371400Y-95046800D01*
X115493800Y-76454728D02*
X115493800Y-75082400D01*
X110236000Y-74295000D02*
X109220000Y-75311000D01*
X115493800Y-75082400D02*
X114706400Y-74295000D01*
%TO.N,IO_E4*%
X109702600Y-91490800D02*
X107850000Y-93343400D01*
X114731800Y-88495056D02*
X111736056Y-91490800D01*
X114731800Y-83896200D02*
X114731800Y-88495056D01*
X111736056Y-91490800D02*
X109702600Y-91490800D01*
X114325400Y-83489800D02*
X114731800Y-83896200D01*
X107850000Y-93343400D02*
X107850000Y-96950000D01*
%TO.N,IO_E10*%
X116332000Y-76022200D02*
X116332000Y-75348126D01*
X106347000Y-73510400D02*
X100914200Y-78943200D01*
X114325400Y-78689200D02*
X114731800Y-78282800D01*
X101854000Y-96850200D02*
X103225600Y-96850200D01*
X114983874Y-74000000D02*
X113371456Y-74000000D01*
X100914200Y-95910400D02*
X101854000Y-96850200D01*
X116332000Y-75348126D02*
X114983874Y-74000000D01*
X114731800Y-78282800D02*
X114731800Y-77622400D01*
X112881856Y-73510400D02*
X106347000Y-73510400D01*
X113371456Y-74000000D02*
X112881856Y-73510400D01*
X114731800Y-77622400D02*
X116332000Y-76022200D01*
X100914200Y-78943200D02*
X100914200Y-95910400D01*
%TO.N,IO_E13*%
X115087400Y-76276200D02*
X114709200Y-75898000D01*
X110639600Y-75898000D02*
X110261400Y-76276200D01*
X114709200Y-75898000D02*
X110639600Y-75898000D01*
X110261400Y-76276200D02*
X105689400Y-76276200D01*
X102412800Y-79552800D02*
X102412800Y-93370400D01*
X102793800Y-93751400D02*
X103936800Y-93751400D01*
X102412800Y-93370400D02*
X102793800Y-93751400D01*
X105689400Y-76276200D02*
X102412800Y-79552800D01*
%TO.N,IO_E14*%
X114325400Y-76276200D02*
X113933828Y-76667772D01*
X113933828Y-76667772D02*
X105958228Y-76667772D01*
X102946200Y-79679800D02*
X102946200Y-93141800D01*
X105958228Y-76667772D02*
X102946200Y-79679800D01*
X102946200Y-93141800D02*
X103124000Y-93319600D01*
%TO.N,/Hirose Connectors/IO_N3*%
X122650000Y-96850000D02*
X122650000Y-96750000D01*
X120879400Y-85749600D02*
X121539000Y-85090000D01*
X120842400Y-89072387D02*
X120842400Y-88527613D01*
X120879400Y-89109387D02*
X120842400Y-89072387D01*
X120879400Y-88490612D02*
X120879400Y-85749600D01*
X122650000Y-96850000D02*
X122650000Y-91850000D01*
X120842400Y-88527613D02*
X120879400Y-88490612D01*
X122650000Y-91850000D02*
X120879400Y-90079400D01*
X120879400Y-90079400D02*
X120879400Y-89109387D01*
%TO.N,/Hirose Connectors/IO_N2*%
X121158800Y-88606344D02*
X121121800Y-88643344D01*
X121158800Y-88993656D02*
X121158800Y-89963668D01*
X123450000Y-96850000D02*
X123450000Y-96800000D01*
X121158800Y-89963668D02*
X123450000Y-92254868D01*
X121158801Y-86282999D02*
X121158800Y-88606344D01*
X121539000Y-85902800D02*
X121158801Y-86282999D01*
X123450000Y-92254868D02*
X123450000Y-96850000D01*
X121121800Y-88956656D02*
X121158800Y-88993656D01*
X121121800Y-88643344D02*
X121121800Y-88956656D01*
%TO.N,/Hirose Connectors/IO_P2*%
X122326400Y-85090000D02*
X122300000Y-85116400D01*
X121750000Y-89550000D02*
X121750000Y-89714856D01*
X122128200Y-90078200D02*
X124350000Y-92300000D01*
X136800000Y-92300000D02*
X139650000Y-89450000D01*
X123850000Y-63350000D02*
X123400000Y-62900000D01*
X121750000Y-89714856D02*
X122113344Y-90078200D01*
X122300000Y-89000000D02*
X121750000Y-89550000D01*
X139650000Y-89450000D02*
X139650000Y-68792444D01*
X122300000Y-85116400D02*
X122300000Y-89000000D01*
X122113344Y-90078200D02*
X122128200Y-90078200D01*
X124350000Y-92300000D02*
X136800000Y-92300000D01*
X134207556Y-63350000D02*
X123850000Y-63350000D01*
X139650000Y-68792444D02*
X134207556Y-63350000D01*
%TO.N,/Hirose Connectors/IO_N5*%
X137900000Y-88450000D02*
X137900000Y-71850000D01*
X125100000Y-87600000D02*
X127700000Y-90200000D01*
X131129400Y-65879400D02*
X123579400Y-65879400D01*
X136150000Y-90200000D02*
X137900000Y-88450000D01*
X113850000Y-60650000D02*
X113850000Y-60150000D01*
X121500000Y-63800000D02*
X117000000Y-63800000D01*
X133600000Y-68350000D02*
X131129400Y-65879400D01*
X121941400Y-82300000D02*
X124600000Y-82300000D01*
X125100000Y-82800000D02*
X125100000Y-87600000D01*
X127700000Y-90200000D02*
X136150000Y-90200000D01*
X123579400Y-65879400D02*
X121500000Y-63800000D01*
X134400000Y-68350000D02*
X133600000Y-68350000D01*
X121539000Y-82702400D02*
X121941400Y-82300000D01*
X117000000Y-63800000D02*
X113850000Y-60650000D01*
X137900000Y-71850000D02*
X134400000Y-68350000D01*
X124600000Y-82300000D02*
X125100000Y-82800000D01*
%TO.N,/Hirose Connectors/IO_P5*%
X115900000Y-61550000D02*
X114484500Y-60134500D01*
X124304800Y-87704800D02*
X127350000Y-90750000D01*
X114484500Y-60134500D02*
X114439700Y-60134500D01*
X122326400Y-82702400D02*
X123952400Y-82702400D01*
X115900000Y-62050000D02*
X115900000Y-61550000D01*
X124304800Y-87695200D02*
X124300000Y-87700000D01*
X123952400Y-82702400D02*
X124304800Y-83054800D01*
X138350000Y-71050000D02*
X132900000Y-65600000D01*
X138350000Y-88700000D02*
X138350000Y-71050000D01*
X136300000Y-90750000D02*
X138350000Y-88700000D01*
X124000000Y-65600000D02*
X121850000Y-63450000D01*
X121850000Y-63450000D02*
X117300000Y-63450000D01*
X132900000Y-65600000D02*
X124000000Y-65600000D01*
X124304800Y-87695200D02*
X124304800Y-87704800D01*
X117300000Y-63450000D02*
X115900000Y-62050000D01*
X127350000Y-90750000D02*
X136300000Y-90750000D01*
X124304800Y-83054800D02*
X124304800Y-87695200D01*
%TO.N,/Hirose Connectors/IO_P4*%
X139200000Y-89200000D02*
X139200000Y-69612444D01*
X122704600Y-85246656D02*
X122700000Y-85251256D01*
X122700000Y-85251256D02*
X122700000Y-90150000D01*
X122326400Y-83489800D02*
X122846372Y-84009772D01*
X124350000Y-91800000D02*
X136600000Y-91800000D01*
X122700000Y-90150000D02*
X124350000Y-91800000D01*
X123566200Y-63800000D02*
X122656600Y-62890400D01*
X133387556Y-63800000D02*
X123566200Y-63800000D01*
X139200000Y-69612444D02*
X133387556Y-63800000D01*
X122846372Y-84009772D02*
X122704600Y-84151544D01*
X122704600Y-84151544D02*
X122704600Y-85246656D01*
X136600000Y-91800000D02*
X139200000Y-89200000D01*
%TO.N,/Hirose Connectors/IO_N4*%
X123492000Y-83333144D02*
X123492000Y-90446868D01*
X121539000Y-83489800D02*
X121948200Y-83080600D01*
X136450000Y-91250000D02*
X138800000Y-88900000D01*
X138800000Y-70950000D02*
X133050000Y-65200000D01*
X138800000Y-88900000D02*
X138800000Y-70950000D01*
X123492000Y-90446868D02*
X124295132Y-91250000D01*
X124295132Y-91250000D02*
X136450000Y-91250000D01*
X124200000Y-65200000D02*
X121900000Y-62900000D01*
X121948200Y-83080600D02*
X123239456Y-83080600D01*
X133050000Y-65200000D02*
X124200000Y-65200000D01*
X121900000Y-62900000D02*
X121503700Y-62900000D01*
X123239456Y-83080600D02*
X123492000Y-83333144D01*
%TO.N,/Hirose Connectors/IO_P3*%
X121450000Y-89384856D02*
X121450000Y-89850000D01*
X122054872Y-84826672D02*
X121917200Y-84964344D01*
X124300000Y-92700000D02*
X124300000Y-96850000D01*
X124300000Y-96850000D02*
X124300000Y-96900000D01*
X121450000Y-89850000D02*
X124300000Y-92700000D01*
X121917200Y-84964344D02*
X121917200Y-88917656D01*
X121917200Y-88917656D02*
X121450000Y-89384856D01*
X121528200Y-84300000D02*
X122054872Y-84826672D01*
%TO.N,/Hirose Connectors/IO_K3*%
X119300000Y-96550000D02*
X118350000Y-95600000D01*
X119300000Y-98724128D02*
X119300000Y-96550000D01*
X117932200Y-85471000D02*
X118338600Y-85064600D01*
X117932200Y-90082200D02*
X117932200Y-85471000D01*
X118350000Y-95600000D02*
X118350000Y-90500000D01*
X118350000Y-90500000D02*
X117932200Y-90082200D01*
%TO.N,/Hirose Connectors/IO_J3*%
X117147600Y-89024200D02*
X117369144Y-88802656D01*
X118650000Y-96850000D02*
X118650000Y-96350000D01*
X117094000Y-86258400D02*
X117094000Y-85496400D01*
X117369144Y-86533544D02*
X117094000Y-86258400D01*
X118650000Y-96350000D02*
X117850000Y-95550000D01*
X117147600Y-90097600D02*
X117147600Y-89024200D01*
X117369144Y-88802656D02*
X117369144Y-86533544D01*
X117850000Y-90800000D02*
X117147600Y-90097600D01*
X117850000Y-95550000D02*
X117850000Y-90800000D01*
X117094000Y-85496400D02*
X117500400Y-85090000D01*
%TO.N,/Hirose Connectors/IO_L2*%
X120250000Y-91500000D02*
X118700000Y-89950000D01*
X119126000Y-89074000D02*
X119126000Y-85902800D01*
X118700000Y-89950000D02*
X118700000Y-89500000D01*
X118700000Y-89500000D02*
X119126000Y-89074000D01*
X120250000Y-96850000D02*
X120250000Y-91500000D01*
%TO.N,/Hirose Connectors/IO_K2*%
X119050000Y-90725000D02*
X118400000Y-90075000D01*
X118400000Y-90075000D02*
X118400000Y-89350000D01*
X119067428Y-95732572D02*
X119050000Y-95715144D01*
X118800000Y-86364200D02*
X118338600Y-85902800D01*
X118400000Y-89350000D02*
X118800000Y-88950000D01*
X119050000Y-95715144D02*
X119050000Y-90725000D01*
X118800000Y-88950000D02*
X118800000Y-86364200D01*
%TO.N,/Hirose Connectors/IO_M3*%
X120600000Y-88374882D02*
X120563000Y-88411882D01*
X120291600Y-86059456D02*
X119929400Y-86421656D01*
X120291600Y-85442800D02*
X120291600Y-86059456D01*
X120600000Y-89225118D02*
X120600000Y-90250000D01*
X119929400Y-86421656D02*
X119929400Y-87379400D01*
X120563000Y-89188118D02*
X120600000Y-89225118D01*
X121850000Y-91500000D02*
X121850000Y-96850000D01*
X121850000Y-96850000D02*
X121850000Y-96750000D01*
X120563000Y-88411882D02*
X120563000Y-89188118D01*
X120600000Y-88050000D02*
X120600000Y-88374882D01*
X119929400Y-87379400D02*
X120600000Y-88050000D01*
X120600000Y-90250000D02*
X121850000Y-91500000D01*
X119913400Y-85064600D02*
X120291600Y-85442800D01*
%TO.N,/Hirose Connectors/IO_L3*%
X120100000Y-88550000D02*
X120100000Y-89000000D01*
X119535200Y-85585200D02*
X119535200Y-86059456D01*
X121050000Y-91904869D02*
X121050000Y-96900000D01*
X119650000Y-88100000D02*
X120100000Y-88550000D01*
X119535200Y-86059456D02*
X119650000Y-86174256D01*
X119126000Y-85176000D02*
X119535200Y-85585200D01*
X119750000Y-90604869D02*
X121050000Y-91904869D01*
X119750000Y-89350000D02*
X119750000Y-90604869D01*
X119126000Y-85090000D02*
X119126000Y-85176000D01*
X120100000Y-89000000D02*
X119750000Y-89350000D01*
X119650000Y-86174256D02*
X119650000Y-88100000D01*
%TO.N,/Hirose Connectors/IO_H2*%
X117450000Y-92150000D02*
X116382800Y-91082800D01*
X117450000Y-96256656D02*
X117450000Y-92150000D01*
X116382800Y-86233000D02*
X116713000Y-85902800D01*
X118100000Y-96850000D02*
X118043344Y-96850000D01*
X116382800Y-91082800D02*
X116382800Y-86233000D01*
X118043344Y-96850000D02*
X117450000Y-96256656D01*
%TD*%
%TA.AperFunction,Conductor*%
%TO.N,GND*%
G36*
X97848805Y-65982106D02*
G01*
X97867111Y-66026300D01*
X97848805Y-66070494D01*
X97844785Y-66074178D01*
X97838806Y-66079194D01*
X97780777Y-66179701D01*
X97780776Y-66179702D01*
X97760623Y-66294000D01*
X97780776Y-66408297D01*
X97780778Y-66408301D01*
X97838803Y-66508802D01*
X97838805Y-66508804D01*
X97838806Y-66508805D01*
X97927711Y-66583406D01*
X98036771Y-66623100D01*
X98036774Y-66623100D01*
X98152826Y-66623100D01*
X98152829Y-66623100D01*
X98261889Y-66583406D01*
X98350794Y-66508805D01*
X98408824Y-66408295D01*
X98428977Y-66294000D01*
X98408824Y-66179705D01*
X98408823Y-66179703D01*
X98408823Y-66179702D01*
X98408821Y-66179698D01*
X98350796Y-66079197D01*
X98350792Y-66079194D01*
X98344814Y-66074177D01*
X98322727Y-66031747D01*
X98337111Y-65986126D01*
X98379542Y-65964038D01*
X98384989Y-65963800D01*
X100040725Y-65963800D01*
X100084919Y-65982106D01*
X100103225Y-66026300D01*
X100084919Y-66070494D01*
X100078883Y-66075125D01*
X100079006Y-66075271D01*
X99993095Y-66147357D01*
X99939757Y-66239742D01*
X99921233Y-66344800D01*
X99939757Y-66449857D01*
X99993096Y-66542243D01*
X100074814Y-66610813D01*
X100074815Y-66610813D01*
X100074816Y-66610814D01*
X100175061Y-66647300D01*
X100175064Y-66647300D01*
X100281736Y-66647300D01*
X100281739Y-66647300D01*
X100381984Y-66610814D01*
X100430527Y-66570081D01*
X100476147Y-66555698D01*
X100518578Y-66577786D01*
X100533200Y-66617960D01*
X100533200Y-75596639D01*
X100514894Y-75640833D01*
X100470700Y-75659139D01*
X100430526Y-75644517D01*
X100381985Y-75603787D01*
X100381984Y-75603786D01*
X100381982Y-75603785D01*
X100281741Y-75567300D01*
X100281739Y-75567300D01*
X100175061Y-75567300D01*
X100175058Y-75567300D01*
X100074818Y-75603785D01*
X100074815Y-75603787D01*
X99993095Y-75672357D01*
X99939757Y-75764742D01*
X99921233Y-75869800D01*
X99939757Y-75974857D01*
X99993096Y-76067243D01*
X100074814Y-76135813D01*
X100074815Y-76135813D01*
X100074816Y-76135814D01*
X100175061Y-76172300D01*
X100175064Y-76172300D01*
X100281736Y-76172300D01*
X100281739Y-76172300D01*
X100381984Y-76135814D01*
X100430527Y-76095081D01*
X100476147Y-76080698D01*
X100518578Y-76102786D01*
X100533200Y-76142960D01*
X100533200Y-83572239D01*
X100514894Y-83616433D01*
X100470700Y-83634739D01*
X100430526Y-83620117D01*
X100381985Y-83579387D01*
X100381984Y-83579386D01*
X100381982Y-83579385D01*
X100281741Y-83542900D01*
X100281739Y-83542900D01*
X100175061Y-83542900D01*
X100175058Y-83542900D01*
X100074818Y-83579385D01*
X100074815Y-83579387D01*
X99993095Y-83647957D01*
X99939757Y-83740342D01*
X99921233Y-83845400D01*
X99939757Y-83950457D01*
X99993096Y-84042843D01*
X100074814Y-84111413D01*
X100074815Y-84111413D01*
X100074816Y-84111414D01*
X100175061Y-84147900D01*
X100175064Y-84147900D01*
X100281736Y-84147900D01*
X100281739Y-84147900D01*
X100381984Y-84111414D01*
X100430527Y-84070681D01*
X100476147Y-84056298D01*
X100518578Y-84078386D01*
X100533200Y-84118560D01*
X100533200Y-92900767D01*
X100528443Y-92924684D01*
X100520789Y-92943163D01*
X100486964Y-92976988D01*
X100468486Y-92984642D01*
X100444568Y-92989400D01*
X90314000Y-92989400D01*
X90269806Y-92971094D01*
X90251500Y-92926900D01*
X90251500Y-92430600D01*
X91436023Y-92430600D01*
X91456176Y-92544897D01*
X91456178Y-92544901D01*
X91514203Y-92645402D01*
X91514205Y-92645404D01*
X91514206Y-92645405D01*
X91603111Y-92720006D01*
X91712171Y-92759700D01*
X91712174Y-92759700D01*
X91828226Y-92759700D01*
X91828229Y-92759700D01*
X91937289Y-92720006D01*
X92026194Y-92645405D01*
X92026196Y-92645401D01*
X92027122Y-92644299D01*
X92028149Y-92643764D01*
X92030383Y-92641890D01*
X92030798Y-92642385D01*
X92069553Y-92622211D01*
X92115174Y-92636595D01*
X92122878Y-92644299D01*
X92123806Y-92645405D01*
X92212711Y-92720006D01*
X92321771Y-92759700D01*
X92321774Y-92759700D01*
X92437826Y-92759700D01*
X92437829Y-92759700D01*
X92546889Y-92720006D01*
X92635794Y-92645405D01*
X92635796Y-92645401D01*
X92636722Y-92644299D01*
X92637749Y-92643764D01*
X92639983Y-92641890D01*
X92640398Y-92642385D01*
X92679153Y-92622211D01*
X92724774Y-92636595D01*
X92732478Y-92644299D01*
X92733406Y-92645405D01*
X92822311Y-92720006D01*
X92931371Y-92759700D01*
X92931374Y-92759700D01*
X93047426Y-92759700D01*
X93047429Y-92759700D01*
X93156489Y-92720006D01*
X93245394Y-92645405D01*
X93246033Y-92644299D01*
X93303421Y-92544901D01*
X93303423Y-92544897D01*
X93303423Y-92544896D01*
X93303424Y-92544895D01*
X93323577Y-92430600D01*
X93303424Y-92316305D01*
X93303423Y-92316303D01*
X93303423Y-92316302D01*
X93303422Y-92316301D01*
X93278894Y-92273819D01*
X93245394Y-92215795D01*
X93225470Y-92199077D01*
X93203383Y-92156648D01*
X93217767Y-92111026D01*
X93225470Y-92103323D01*
X93245394Y-92086605D01*
X93303424Y-91986095D01*
X93323577Y-91871800D01*
X93303424Y-91757505D01*
X93303423Y-91757503D01*
X93303423Y-91757502D01*
X93303422Y-91757501D01*
X93278894Y-91715019D01*
X93245394Y-91656995D01*
X93225470Y-91640277D01*
X93203383Y-91597848D01*
X93217767Y-91552226D01*
X93225470Y-91544523D01*
X93245394Y-91527805D01*
X93303424Y-91427295D01*
X93323577Y-91313000D01*
X93303424Y-91198705D01*
X93303423Y-91198703D01*
X93303423Y-91198702D01*
X93303421Y-91198698D01*
X93245396Y-91098197D01*
X93245392Y-91098194D01*
X93156489Y-91023594D01*
X93156488Y-91023593D01*
X93047431Y-90983900D01*
X93047429Y-90983900D01*
X92931371Y-90983900D01*
X92931368Y-90983900D01*
X92822313Y-91023593D01*
X92822310Y-91023594D01*
X92733406Y-91098194D01*
X92732478Y-91099301D01*
X92731450Y-91099835D01*
X92729217Y-91101710D01*
X92728801Y-91101214D01*
X92690047Y-91121389D01*
X92644426Y-91107005D01*
X92636722Y-91099301D01*
X92635793Y-91098194D01*
X92546888Y-91023593D01*
X92437831Y-90983900D01*
X92437829Y-90983900D01*
X92321771Y-90983900D01*
X92321768Y-90983900D01*
X92212713Y-91023593D01*
X92212710Y-91023594D01*
X92123806Y-91098194D01*
X92122878Y-91099301D01*
X92121850Y-91099835D01*
X92119617Y-91101710D01*
X92119201Y-91101214D01*
X92080447Y-91121389D01*
X92034826Y-91107005D01*
X92027122Y-91099301D01*
X92026193Y-91098194D01*
X91937288Y-91023593D01*
X91828231Y-90983900D01*
X91828229Y-90983900D01*
X91712171Y-90983900D01*
X91712168Y-90983900D01*
X91603113Y-91023593D01*
X91603110Y-91023594D01*
X91514206Y-91098194D01*
X91456177Y-91198701D01*
X91456176Y-91198702D01*
X91436023Y-91313000D01*
X91456176Y-91427297D01*
X91456178Y-91427301D01*
X91514203Y-91527801D01*
X91514206Y-91527805D01*
X91534129Y-91544523D01*
X91556216Y-91586953D01*
X91541831Y-91632575D01*
X91534129Y-91640277D01*
X91514206Y-91656994D01*
X91514203Y-91656998D01*
X91456178Y-91757498D01*
X91456176Y-91757502D01*
X91436023Y-91871800D01*
X91456176Y-91986097D01*
X91456178Y-91986101D01*
X91514203Y-92086601D01*
X91514206Y-92086605D01*
X91534129Y-92103323D01*
X91556216Y-92145753D01*
X91541831Y-92191375D01*
X91534129Y-92199077D01*
X91514206Y-92215794D01*
X91514203Y-92215798D01*
X91456178Y-92316298D01*
X91456176Y-92316302D01*
X91436023Y-92430600D01*
X90251500Y-92430600D01*
X90251500Y-83845400D01*
X97862223Y-83845400D01*
X97882376Y-83959697D01*
X97882378Y-83959701D01*
X97940403Y-84060202D01*
X97940405Y-84060204D01*
X97940406Y-84060205D01*
X98029311Y-84134806D01*
X98138371Y-84174500D01*
X98138374Y-84174500D01*
X98254426Y-84174500D01*
X98254429Y-84174500D01*
X98363489Y-84134806D01*
X98452394Y-84060205D01*
X98510424Y-83959695D01*
X98530577Y-83845400D01*
X98510424Y-83731105D01*
X98510423Y-83731103D01*
X98510423Y-83731102D01*
X98510421Y-83731098D01*
X98452396Y-83630597D01*
X98452392Y-83630594D01*
X98363489Y-83555994D01*
X98363488Y-83555993D01*
X98254431Y-83516300D01*
X98254429Y-83516300D01*
X98138371Y-83516300D01*
X98138368Y-83516300D01*
X98029313Y-83555993D01*
X98029310Y-83555994D01*
X97940406Y-83630594D01*
X97882377Y-83731101D01*
X97882376Y-83731102D01*
X97862223Y-83845400D01*
X90251500Y-83845400D01*
X90251500Y-82880200D01*
X91436023Y-82880200D01*
X91456176Y-82994497D01*
X91456178Y-82994501D01*
X91514203Y-83095002D01*
X91514205Y-83095004D01*
X91514206Y-83095005D01*
X91603111Y-83169606D01*
X91712171Y-83209300D01*
X91712174Y-83209300D01*
X91828226Y-83209300D01*
X91828229Y-83209300D01*
X91937289Y-83169606D01*
X92026194Y-83095005D01*
X92026196Y-83095001D01*
X92027122Y-83093899D01*
X92028149Y-83093364D01*
X92030383Y-83091490D01*
X92030798Y-83091985D01*
X92069553Y-83071811D01*
X92115174Y-83086195D01*
X92122878Y-83093899D01*
X92123806Y-83095005D01*
X92212711Y-83169606D01*
X92321771Y-83209300D01*
X92321774Y-83209300D01*
X92437826Y-83209300D01*
X92437829Y-83209300D01*
X92546889Y-83169606D01*
X92635794Y-83095005D01*
X92635796Y-83095001D01*
X92636722Y-83093899D01*
X92637749Y-83093364D01*
X92639983Y-83091490D01*
X92640398Y-83091985D01*
X92679153Y-83071811D01*
X92724774Y-83086195D01*
X92732478Y-83093899D01*
X92733406Y-83095005D01*
X92822311Y-83169606D01*
X92931371Y-83209300D01*
X92931374Y-83209300D01*
X93047426Y-83209300D01*
X93047429Y-83209300D01*
X93156489Y-83169606D01*
X93245394Y-83095005D01*
X93246033Y-83093899D01*
X93303421Y-82994501D01*
X93303423Y-82994497D01*
X93303423Y-82994496D01*
X93303424Y-82994495D01*
X93323577Y-82880200D01*
X93303424Y-82765905D01*
X93303423Y-82765903D01*
X93303423Y-82765902D01*
X93303422Y-82765901D01*
X93278894Y-82723419D01*
X93245394Y-82665395D01*
X93225470Y-82648677D01*
X93203383Y-82606248D01*
X93217767Y-82560626D01*
X93225470Y-82552923D01*
X93245394Y-82536205D01*
X93303424Y-82435695D01*
X93323577Y-82321400D01*
X93303424Y-82207105D01*
X93303423Y-82207103D01*
X93303423Y-82207102D01*
X93303422Y-82207101D01*
X93278894Y-82164619D01*
X93245394Y-82106595D01*
X93225470Y-82089877D01*
X93203383Y-82047448D01*
X93217767Y-82001826D01*
X93225470Y-81994123D01*
X93245394Y-81977405D01*
X93303424Y-81876895D01*
X93323577Y-81762600D01*
X93303424Y-81648305D01*
X93303423Y-81648303D01*
X93303423Y-81648302D01*
X93303421Y-81648298D01*
X93245396Y-81547797D01*
X93245392Y-81547794D01*
X93156489Y-81473194D01*
X93156488Y-81473193D01*
X93047431Y-81433500D01*
X93047429Y-81433500D01*
X92931371Y-81433500D01*
X92931368Y-81433500D01*
X92822313Y-81473193D01*
X92822310Y-81473194D01*
X92733406Y-81547794D01*
X92732478Y-81548901D01*
X92731450Y-81549435D01*
X92729217Y-81551310D01*
X92728801Y-81550814D01*
X92690047Y-81570989D01*
X92644426Y-81556605D01*
X92636722Y-81548901D01*
X92635793Y-81547794D01*
X92546888Y-81473193D01*
X92437831Y-81433500D01*
X92437829Y-81433500D01*
X92321771Y-81433500D01*
X92321768Y-81433500D01*
X92212713Y-81473193D01*
X92212710Y-81473194D01*
X92123806Y-81547794D01*
X92122878Y-81548901D01*
X92121850Y-81549435D01*
X92119617Y-81551310D01*
X92119201Y-81550814D01*
X92080447Y-81570989D01*
X92034826Y-81556605D01*
X92027122Y-81548901D01*
X92026193Y-81547794D01*
X91937288Y-81473193D01*
X91828231Y-81433500D01*
X91828229Y-81433500D01*
X91712171Y-81433500D01*
X91712168Y-81433500D01*
X91603113Y-81473193D01*
X91603110Y-81473194D01*
X91514206Y-81547794D01*
X91456177Y-81648301D01*
X91456176Y-81648302D01*
X91436023Y-81762600D01*
X91456176Y-81876897D01*
X91456178Y-81876901D01*
X91514203Y-81977401D01*
X91514206Y-81977405D01*
X91534129Y-81994123D01*
X91556216Y-82036553D01*
X91541831Y-82082175D01*
X91534129Y-82089877D01*
X91514206Y-82106594D01*
X91514203Y-82106598D01*
X91456178Y-82207098D01*
X91456176Y-82207102D01*
X91436023Y-82321400D01*
X91456176Y-82435697D01*
X91456178Y-82435701D01*
X91514203Y-82536201D01*
X91514206Y-82536205D01*
X91534129Y-82552923D01*
X91556216Y-82595353D01*
X91541831Y-82640975D01*
X91534129Y-82648677D01*
X91514206Y-82665394D01*
X91514203Y-82665398D01*
X91456178Y-82765898D01*
X91456176Y-82765902D01*
X91436023Y-82880200D01*
X90251500Y-82880200D01*
X90251500Y-75869800D01*
X97786023Y-75869800D01*
X97806176Y-75984097D01*
X97806178Y-75984101D01*
X97864203Y-76084602D01*
X97864205Y-76084604D01*
X97864206Y-76084605D01*
X97953111Y-76159206D01*
X98062171Y-76198900D01*
X98062174Y-76198900D01*
X98178226Y-76198900D01*
X98178229Y-76198900D01*
X98287289Y-76159206D01*
X98376194Y-76084605D01*
X98434224Y-75984095D01*
X98454377Y-75869800D01*
X98434224Y-75755505D01*
X98434223Y-75755503D01*
X98434223Y-75755502D01*
X98434221Y-75755498D01*
X98376196Y-75654997D01*
X98376192Y-75654994D01*
X98287289Y-75580394D01*
X98287288Y-75580393D01*
X98178231Y-75540700D01*
X98178229Y-75540700D01*
X98062171Y-75540700D01*
X98062168Y-75540700D01*
X97953113Y-75580393D01*
X97953110Y-75580394D01*
X97864206Y-75654994D01*
X97806177Y-75755501D01*
X97806176Y-75755502D01*
X97786023Y-75869800D01*
X90251500Y-75869800D01*
X90251500Y-74422000D01*
X91410623Y-74422000D01*
X91430776Y-74536297D01*
X91430778Y-74536301D01*
X91488803Y-74636802D01*
X91488805Y-74636804D01*
X91488806Y-74636805D01*
X91577711Y-74711406D01*
X91686771Y-74751100D01*
X91686774Y-74751100D01*
X91802826Y-74751100D01*
X91802829Y-74751100D01*
X91911889Y-74711406D01*
X92000794Y-74636805D01*
X92000796Y-74636801D01*
X92001722Y-74635699D01*
X92002749Y-74635164D01*
X92004983Y-74633290D01*
X92005398Y-74633785D01*
X92044153Y-74613611D01*
X92089774Y-74627995D01*
X92097478Y-74635699D01*
X92098406Y-74636805D01*
X92187311Y-74711406D01*
X92296371Y-74751100D01*
X92296374Y-74751100D01*
X92412426Y-74751100D01*
X92412429Y-74751100D01*
X92521489Y-74711406D01*
X92610394Y-74636805D01*
X92610396Y-74636801D01*
X92611322Y-74635699D01*
X92612349Y-74635164D01*
X92614583Y-74633290D01*
X92614998Y-74633785D01*
X92653753Y-74613611D01*
X92699374Y-74627995D01*
X92707078Y-74635699D01*
X92708006Y-74636805D01*
X92796911Y-74711406D01*
X92905971Y-74751100D01*
X92905974Y-74751100D01*
X93022026Y-74751100D01*
X93022029Y-74751100D01*
X93131089Y-74711406D01*
X93219994Y-74636805D01*
X93220633Y-74635699D01*
X93278021Y-74536301D01*
X93278023Y-74536297D01*
X93278023Y-74536296D01*
X93278024Y-74536295D01*
X93298177Y-74422000D01*
X93278024Y-74307705D01*
X93278023Y-74307703D01*
X93278023Y-74307702D01*
X93278022Y-74307701D01*
X93253494Y-74265219D01*
X93219994Y-74207195D01*
X93200070Y-74190477D01*
X93177983Y-74148048D01*
X93192367Y-74102426D01*
X93200070Y-74094723D01*
X93219994Y-74078005D01*
X93278024Y-73977495D01*
X93298177Y-73863200D01*
X93278024Y-73748905D01*
X93278023Y-73748903D01*
X93278023Y-73748902D01*
X93278022Y-73748901D01*
X93253494Y-73706419D01*
X93219994Y-73648395D01*
X93200070Y-73631677D01*
X93177983Y-73589248D01*
X93192367Y-73543626D01*
X93200070Y-73535923D01*
X93219994Y-73519205D01*
X93278024Y-73418695D01*
X93298177Y-73304400D01*
X93278024Y-73190105D01*
X93278023Y-73190103D01*
X93278023Y-73190102D01*
X93278021Y-73190098D01*
X93219996Y-73089597D01*
X93219992Y-73089594D01*
X93131089Y-73014994D01*
X93131088Y-73014993D01*
X93022031Y-72975300D01*
X93022029Y-72975300D01*
X92905971Y-72975300D01*
X92905968Y-72975300D01*
X92796913Y-73014993D01*
X92796910Y-73014994D01*
X92708006Y-73089594D01*
X92707078Y-73090701D01*
X92706050Y-73091235D01*
X92703817Y-73093110D01*
X92703401Y-73092614D01*
X92664647Y-73112789D01*
X92619026Y-73098405D01*
X92611322Y-73090701D01*
X92610393Y-73089594D01*
X92521488Y-73014993D01*
X92412431Y-72975300D01*
X92412429Y-72975300D01*
X92296371Y-72975300D01*
X92296368Y-72975300D01*
X92187313Y-73014993D01*
X92187310Y-73014994D01*
X92098406Y-73089594D01*
X92097478Y-73090701D01*
X92096450Y-73091235D01*
X92094217Y-73093110D01*
X92093801Y-73092614D01*
X92055047Y-73112789D01*
X92009426Y-73098405D01*
X92001722Y-73090701D01*
X92000793Y-73089594D01*
X91911888Y-73014993D01*
X91802831Y-72975300D01*
X91802829Y-72975300D01*
X91686771Y-72975300D01*
X91686768Y-72975300D01*
X91577713Y-73014993D01*
X91577710Y-73014994D01*
X91488806Y-73089594D01*
X91430777Y-73190101D01*
X91430776Y-73190102D01*
X91410623Y-73304400D01*
X91430776Y-73418697D01*
X91430778Y-73418701D01*
X91488803Y-73519201D01*
X91488806Y-73519205D01*
X91508729Y-73535923D01*
X91530816Y-73578353D01*
X91516431Y-73623975D01*
X91508729Y-73631677D01*
X91488806Y-73648394D01*
X91488803Y-73648398D01*
X91430778Y-73748898D01*
X91430776Y-73748902D01*
X91410623Y-73863200D01*
X91430776Y-73977497D01*
X91430778Y-73977501D01*
X91488803Y-74078001D01*
X91488806Y-74078005D01*
X91508729Y-74094723D01*
X91530816Y-74137153D01*
X91516431Y-74182775D01*
X91508729Y-74190477D01*
X91488806Y-74207194D01*
X91488803Y-74207198D01*
X91430778Y-74307698D01*
X91430776Y-74307702D01*
X91410623Y-74422000D01*
X90251500Y-74422000D01*
X90251500Y-66026300D01*
X90269806Y-65982106D01*
X90314000Y-65963800D01*
X97804611Y-65963800D01*
X97848805Y-65982106D01*
G37*
%TD.AperFunction*%
%TD*%
M02*
