%TF.GenerationSoftware,KiCad,Pcbnew,8.0.1*%
%TF.CreationDate,2024-12-16T22:11:08-05:00*%
%TF.ProjectId,cm,636d2e6b-6963-4616-945f-706362585858,rev?*%
%TF.SameCoordinates,Original*%
%TF.FileFunction,Copper,L6,Inr*%
%TF.FilePolarity,Positive*%
%FSLAX46Y46*%
G04 Gerber Fmt 4.6, Leading zero omitted, Abs format (unit mm)*
G04 Created by KiCad (PCBNEW 8.0.1) date 2024-12-16 22:11:08*
%MOMM*%
%LPD*%
G01*
G04 APERTURE LIST*
%TA.AperFunction,ViaPad*%
%ADD10C,0.350000*%
%TD*%
%TA.AperFunction,ViaPad*%
%ADD11C,0.403200*%
%TD*%
%TA.AperFunction,Conductor*%
%ADD12C,0.152400*%
%TD*%
G04 APERTURE END LIST*
D10*
%TO.N,GND*%
X128600000Y-75460600D03*
D11*
X100165258Y-78994000D03*
X99187000Y-84912200D03*
D10*
X111861600Y-60147200D03*
D11*
X99187000Y-85928200D03*
X99212400Y-76403200D03*
X99181942Y-67919600D03*
D10*
X111480600Y-61696600D03*
D11*
X99161600Y-77978000D03*
X98125258Y-78994000D03*
D10*
X144195800Y-85394800D03*
X132588000Y-87960200D03*
X115900000Y-73100000D03*
X129958900Y-62280800D03*
D11*
X98795258Y-86929845D03*
D10*
X131495800Y-62458600D03*
X110261400Y-60147200D03*
D11*
X98795258Y-78984000D03*
X99207342Y-66827400D03*
X100160200Y-69443600D03*
D10*
X115900000Y-80300000D03*
X112728000Y-71450000D03*
X123875800Y-60121800D03*
D11*
X99545258Y-86939845D03*
X100165258Y-86939845D03*
D10*
X116700000Y-72300000D03*
X132562600Y-83337400D03*
X115100000Y-75500000D03*
D11*
X98120200Y-69443600D03*
X99540200Y-69443600D03*
D10*
X122300000Y-84300000D03*
X117500400Y-85877400D03*
D11*
X99187000Y-85420200D03*
D10*
X123150000Y-72288400D03*
X124700000Y-84300000D03*
D11*
X98790200Y-69433600D03*
X98125258Y-86939845D03*
X99187000Y-76936600D03*
D10*
X111074200Y-60147200D03*
X115900000Y-73900000D03*
D11*
X99181942Y-67386200D03*
D10*
X115150000Y-81100000D03*
D11*
X99187000Y-84404200D03*
D10*
X115900000Y-79450000D03*
D11*
X99545258Y-78994000D03*
D10*
X115900000Y-72300000D03*
X119913400Y-85902800D03*
D11*
X99161600Y-68453000D03*
X99187000Y-77470000D03*
D10*
X109880400Y-61696600D03*
X144100000Y-80850000D03*
X128618261Y-74704200D03*
X110667800Y-61696600D03*
X113512600Y-83464400D03*
X144068800Y-70916800D03*
%TO.N,+5V*%
X101027200Y-59994800D03*
%TO.N,/Power/3V3_PG*%
X103962200Y-70231000D03*
D11*
X98196400Y-83845400D03*
D10*
%TO.N,/Power/2V5_PG*%
X103971600Y-79425800D03*
D11*
X98120200Y-75869800D03*
%TO.N,/Power/1V1_PG*%
X98094800Y-66294000D03*
D10*
X103971600Y-87579200D03*
D11*
%TO.N,+3V3*%
X119938800Y-81915000D03*
X91770200Y-92430600D03*
D10*
X130657600Y-97891600D03*
X119126000Y-75488800D03*
D11*
X91770200Y-91313000D03*
X92379800Y-91313000D03*
D10*
X133959600Y-67868800D03*
X144094200Y-89763600D03*
X107873800Y-60121800D03*
X132562600Y-80949800D03*
D11*
X92379800Y-91871800D03*
D10*
X119930000Y-75480000D03*
X133100000Y-62550000D03*
X144068800Y-79349600D03*
D11*
X117525800Y-81889600D03*
D10*
X117525800Y-75488800D03*
D11*
X117525800Y-82677000D03*
X91770200Y-91871800D03*
D10*
X122761000Y-78638400D03*
D11*
X115138200Y-78689200D03*
X115138200Y-79502000D03*
D10*
X116738400Y-75488800D03*
X144119600Y-88163400D03*
X135559800Y-62227200D03*
X109070000Y-61694200D03*
X107470000Y-61673800D03*
D11*
X92989400Y-91871800D03*
D10*
X109702600Y-93268800D03*
X108661200Y-60121800D03*
X128485700Y-62280800D03*
X144068800Y-68935600D03*
X132588000Y-85750400D03*
D11*
X92989400Y-91313000D03*
X119938800Y-82677000D03*
D10*
X129159000Y-64795400D03*
X109474000Y-60147200D03*
D11*
X92989400Y-92430600D03*
X92379800Y-92430600D03*
D10*
X108270000Y-61686400D03*
X144170400Y-83337400D03*
D11*
X115138200Y-77901800D03*
D10*
X122761000Y-79451200D03*
%TO.N,/Power/3V3_EN*%
X107086400Y-81864200D03*
X100228400Y-83845400D03*
%TO.N,/Power/2V5_EN*%
X106121200Y-81864200D03*
X100228400Y-75869800D03*
%TO.N,/Power/1V1_EN*%
X100228400Y-66344800D03*
X108026200Y-81864200D03*
%TO.N,ECP5_PRGMN_BTN*%
X126314200Y-85090000D03*
X130898700Y-62179200D03*
%TO.N,ECP5_INITN*%
X132918200Y-66268600D03*
X133070600Y-67147633D03*
X125526800Y-85090000D03*
%TO.N,Net-(D5-A)*%
X135280400Y-66227700D03*
%TO.N,Net-(D6-A)*%
X128051800Y-66852800D03*
%TO.N,IO_D1*%
X113919000Y-88773000D03*
%TO.N,IO_D2*%
X113512600Y-85877400D03*
%TO.N,IO_E6*%
X108650000Y-98450000D03*
X114350800Y-81920800D03*
%TO.N,IO_G1*%
X116840000Y-88773000D03*
%TO.N,IO_A3*%
X111099600Y-89281000D03*
%TO.N,IO_E2*%
X114325400Y-85902800D03*
%TO.N,IO_E8*%
X114325400Y-80264000D03*
X105467428Y-96967428D03*
%TO.N,IO_B3*%
X111912400Y-84302600D03*
X114650000Y-96950000D03*
%TO.N,IO_G5*%
X113050000Y-96950000D03*
X115925600Y-82702400D03*
%TO.N,IO_J1*%
X118338600Y-88773000D03*
%TO.N,IO_D6*%
X113538000Y-81889600D03*
X109550000Y-98724128D03*
%TO.N,IO_B4*%
X111912400Y-83489800D03*
X107050000Y-96950000D03*
%TO.N,IO_D5*%
X113512600Y-82677000D03*
X112895503Y-98702811D03*
%TO.N,IO_B1*%
X112318800Y-88773000D03*
%TO.N,IO_U1*%
X123870000Y-89700000D03*
%TO.N,IO_K1*%
X118350000Y-87750000D03*
%TO.N,IO_E1*%
X114706400Y-89306400D03*
%TO.N,IO_A4*%
X110718600Y-88722200D03*
%TO.N,IO_F2*%
X115112800Y-85902800D03*
%TO.N,IO_R1*%
X122270000Y-89700000D03*
%TO.N,IO_A2*%
X111506000Y-88773000D03*
%TO.N,/Hirose Connectors/IO_P1*%
X121500000Y-88800000D03*
%TO.N,IO_D8*%
X113538000Y-80289400D03*
X105050000Y-98450000D03*
%TO.N,IO_D7*%
X105850000Y-98450000D03*
X113538000Y-81076800D03*
%TO.N,IO_L1*%
X119150000Y-89700000D03*
%TO.N,IO_A5*%
X110312200Y-89281000D03*
%TO.N,IO_C5*%
X112725200Y-82677000D03*
X106250000Y-96950000D03*
%TO.N,IO_V1*%
X124650000Y-88800000D03*
%TO.N,IO_B5*%
X111937800Y-82677000D03*
X113300000Y-98450000D03*
%TO.N,IO_B2*%
X111887000Y-89306400D03*
%TO.N,IO_E5*%
X114325400Y-82677000D03*
X109050000Y-96950000D03*
%TO.N,IO_N1*%
X120221800Y-89700000D03*
%TO.N,IO_F1*%
X115519200Y-88773000D03*
%TO.N,IO_M1*%
X119650000Y-88800000D03*
%TO.N,IO_C4*%
X112725200Y-83489800D03*
X107500000Y-98450000D03*
%TO.N,IO_F4*%
X115112800Y-83489800D03*
X113950000Y-98450000D03*
X108661200Y-95950000D03*
%TO.N,IO_F5*%
X115138200Y-82677000D03*
X106650000Y-98450000D03*
%TO.N,IO_T1*%
X123100000Y-88800000D03*
%TO.N,IO_C3*%
X114650000Y-98450000D03*
X112725200Y-84277200D03*
%TO.N,IO_H1*%
X117525800Y-89700000D03*
%TO.N,IO_C1*%
X113106200Y-89306400D03*
%TO.N,IO_J20*%
X110258484Y-63003434D03*
%TO.N,ECP5_DONE*%
X127152400Y-85090000D03*
X131313552Y-66721352D03*
%TO.N,JTAG_TCK*%
X124485400Y-59944000D03*
X123926600Y-83489800D03*
%TO.N,JTAG_TDI*%
X137355450Y-68874900D03*
X123113800Y-83489800D03*
X137922000Y-65278000D03*
%TO.N,JTAG_TDO*%
X136550400Y-66227700D03*
X133477000Y-62150000D03*
X125526800Y-84302600D03*
X136550400Y-67513200D03*
%TO.N,JTAG_TMS*%
X124663200Y-64389000D03*
X124714000Y-83489800D03*
%TO.N,Net-(U9I-CFG_1)*%
X123926600Y-84302600D03*
%TO.N,/Flash + JTAG/FLASH_IO0*%
X128066800Y-94056200D03*
%TO.N,/Flash + JTAG/FLASH_IO1*%
X135305800Y-96596200D03*
X125526800Y-85877400D03*
%TO.N,/Flash + JTAG/FLASH_IO2*%
X135305800Y-95326200D03*
%TO.N,/Flash + JTAG/FLASH_IO3*%
X128066800Y-96596200D03*
%TO.N,/Flash + JTAG/FLASH_SCK*%
X124714000Y-85064600D03*
X128066800Y-95326200D03*
%TO.N,/Flash + JTAG/FLASH_CSN*%
X123113800Y-85877400D03*
X135280400Y-97866200D03*
%TO.N,/Flash + JTAG/WRITEN*%
X123113800Y-84277200D03*
%TO.N,/Flash + JTAG/CS1N*%
X123926600Y-85902800D03*
%TO.N,/Flash + JTAG/SN_CSN*%
X123113800Y-85090000D03*
%TO.N,SDRAM_A7*%
X116713000Y-73897000D03*
X132511800Y-72158600D03*
%TO.N,SDRAM_D11*%
X132588000Y-84150200D03*
X119126000Y-84277200D03*
%TO.N,SDRAM_CASN*%
X141376400Y-76911200D03*
X119126000Y-73888600D03*
%TO.N,SDRAM_D4*%
X136300000Y-84150200D03*
X119913400Y-72288400D03*
%TO.N,SDRAM_CSN*%
X121513600Y-73888600D03*
X136300000Y-75350000D03*
%TO.N,SDRAM_A11*%
X122326400Y-73888600D03*
X132511800Y-74574400D03*
%TO.N,SDRAM_D6*%
X120726200Y-73896200D03*
X136300000Y-81762600D03*
%TO.N,SDRAM_A2*%
X124714000Y-73101200D03*
X141325600Y-70561200D03*
%TO.N,SDRAM_A5*%
X123926600Y-73101200D03*
X132486400Y-70535800D03*
%TO.N,/Hirose Connectors/IO_E7*%
X113250000Y-60150000D03*
X114325400Y-81076800D03*
%TO.N,CLK_25MHZ*%
X116357400Y-91922600D03*
X115925600Y-85877400D03*
%TO.N,SDRAM_D14*%
X132588000Y-87350600D03*
X119913400Y-83464400D03*
%TO.N,SDRAM_DQM1*%
X117525800Y-84277200D03*
X130022600Y-76123800D03*
%TO.N,SDRAM_A6*%
X123926600Y-73888600D03*
X132486400Y-71348600D03*
%TO.N,SDRAM_D12*%
X132588000Y-84937600D03*
X119126000Y-83489800D03*
%TO.N,SDRAM_A1*%
X124714000Y-73888600D03*
X141325600Y-71374000D03*
%TO.N,SDRAM_A9*%
X132511800Y-73761600D03*
X118331200Y-73101200D03*
%TO.N,SDRAM_A4*%
X132461000Y-69773800D03*
X123926600Y-72288400D03*
%TO.N,SDRAM_D13*%
X132588000Y-86537800D03*
X119913400Y-84277200D03*
%TO.N,SDRAM_WEN*%
X141401800Y-77774800D03*
X119126000Y-73075800D03*
%TO.N,SDRAM_A0*%
X141325600Y-72161400D03*
X116713000Y-71500000D03*
%TO.N,SDRAM_D10*%
X132588000Y-82550000D03*
X118313200Y-83489800D03*
%TO.N,SDRAM_D1*%
X136300000Y-87325200D03*
X121513600Y-73075800D03*
%TO.N,SDRAM_D9*%
X118313200Y-84277200D03*
X132588000Y-81737200D03*
%TO.N,SDRAM_RASN*%
X141376400Y-76123800D03*
X119126000Y-74701400D03*
%TO.N,SDRAM_D8*%
X117525800Y-83464400D03*
X132562600Y-80162400D03*
%TO.N,SDRAM_D3*%
X120726200Y-72288400D03*
X136300000Y-84937600D03*
%TO.N,SDRAM_BA0*%
X141351000Y-74549000D03*
X118338600Y-73888600D03*
%TO.N,SDRAM_A10*%
X117525800Y-72313800D03*
X141325600Y-72948800D03*
%TO.N,SDRAM_D7*%
X141376400Y-80137000D03*
X119913400Y-73075800D03*
%TO.N,SDRAM_D15*%
X132613400Y-88950800D03*
X120726200Y-83515200D03*
%TO.N,SDRAM_CKE*%
X123113800Y-73075800D03*
X132511800Y-76123800D03*
%TO.N,SDRAM_D5*%
X120726200Y-73101200D03*
X136300000Y-82550000D03*
%TO.N,SDRAM_A8*%
X117525800Y-73101200D03*
X132511800Y-72974200D03*
%TO.N,SDRAM_DQM0*%
X119913400Y-73888600D03*
X141427200Y-78511400D03*
%TO.N,SDRAM_A12*%
X132511800Y-75361800D03*
X122326400Y-74676000D03*
%TO.N,SDRAM_BA1*%
X141351000Y-73761600D03*
X117525800Y-73888600D03*
%TO.N,SDRAM_CLK*%
X123113800Y-73888600D03*
X132511800Y-76962000D03*
%TO.N,SDRAM_A3*%
X124714000Y-72288400D03*
X141351000Y-69773800D03*
%TO.N,SDRAM_D2*%
X136300000Y-86537800D03*
X121513600Y-72288400D03*
%TO.N,SDRAM_D0*%
X120726200Y-84302600D03*
X136300000Y-88112600D03*
D11*
%TO.N,+1V1*%
X92354400Y-74422000D03*
X92964000Y-73863200D03*
X92354400Y-73863200D03*
X120726200Y-80314800D03*
X91744800Y-73863200D03*
X92964000Y-73304400D03*
X91744800Y-73304400D03*
X117500400Y-78689200D03*
X119126000Y-80314800D03*
X91744800Y-74422000D03*
X120726200Y-77063600D03*
X117525800Y-77063600D03*
X117500400Y-80289400D03*
X120726200Y-78689200D03*
X119126000Y-77063600D03*
X92964000Y-74422000D03*
X92354400Y-73304400D03*
%TO.N,+2V5*%
X115900200Y-75488800D03*
X92989400Y-81762600D03*
X92379800Y-82321400D03*
D10*
X128752600Y-80695800D03*
D11*
X91770200Y-82321400D03*
X91770200Y-81762600D03*
X92379800Y-82880200D03*
X92379800Y-81762600D03*
X92989400Y-82321400D03*
X115925600Y-81889600D03*
D10*
X128752600Y-81483200D03*
D11*
X91770200Y-82880200D03*
X122402600Y-75488800D03*
D10*
X128752600Y-79883000D03*
D11*
X92989400Y-82880200D03*
X122402600Y-81889600D03*
D10*
%TO.N,IO_C20*%
X107870000Y-63000000D03*
%TO.N,IO_G20*%
X109448600Y-62992000D03*
%TO.N,IO_L20*%
X111048800Y-63017400D03*
%TO.N,IO_E20*%
X108670710Y-63002593D03*
%TO.N,IO_H20*%
X109880400Y-62712600D03*
%TO.N,IO_K20*%
X110667800Y-62712600D03*
%TO.N,IO_M20*%
X111455200Y-62712600D03*
%TO.N,IO_D20*%
X108274372Y-62712600D03*
%TO.N,IO_F20*%
X109063943Y-62709918D03*
%TO.N,IO_B20*%
X105971800Y-62850000D03*
%TO.N,IO_P20*%
X112252110Y-62676607D03*
%TO.N,IO_T20*%
X113055400Y-62687200D03*
%TO.N,IO_R20*%
X112649000Y-62941200D03*
%TO.N,IO_U20*%
X113461800Y-62966600D03*
%TO.N,IO_N20*%
X111840602Y-63012998D03*
%TO.N,IO_N19*%
X120726200Y-71501000D03*
X115070000Y-60147200D03*
%TO.N,IO_A19*%
X111074200Y-71450200D03*
X105079800Y-64439800D03*
%TO.N,IO_L19*%
X119126000Y-71526400D03*
X113487200Y-61661300D03*
%TO.N,IO_T19*%
X115874800Y-60147200D03*
X123139200Y-71501000D03*
%TO.N,IO_M19*%
X119938800Y-71501000D03*
X114274600Y-61671200D03*
%TO.N,IO_B19*%
X105486200Y-64719200D03*
X111912400Y-71475600D03*
%TO.N,IO_K19*%
X112674400Y-60147200D03*
X118313200Y-71501000D03*
%TO.N,IO_J19*%
X112268000Y-61696600D03*
X117525800Y-71501000D03*
%TO.N,IO_P19*%
X121513600Y-71501000D03*
X115466630Y-61678363D03*
%TO.N,IO_U19*%
X123926600Y-71501000D03*
X116281200Y-61671200D03*
%TO.N,IO_A18*%
X111099600Y-72339200D03*
%TO.N,IO_A13*%
X111119572Y-76289572D03*
%TO.N,IO_A16*%
X111099600Y-73914000D03*
%TO.N,IO_A17*%
X111099600Y-73075800D03*
%TO.N,IO_A15*%
X111099600Y-74701400D03*
%TO.N,IO_A14*%
X110337600Y-75539600D03*
%TO.N,IO_A11*%
X111099600Y-77876400D03*
%TO.N,IO_A12*%
X111099600Y-77089000D03*
%TO.N,IO_B18*%
X120675400Y-60198000D03*
X111912400Y-72288400D03*
%TO.N,IO_B16*%
X119862600Y-60172600D03*
X111912400Y-73888600D03*
%TO.N,IO_B15*%
X119481600Y-61722000D03*
X111912400Y-74676000D03*
%TO.N,IO_B11*%
X111912400Y-77901800D03*
X118262400Y-60147200D03*
%TO.N,IO_B17*%
X111912400Y-73101200D03*
X120269000Y-61722000D03*
%TO.N,IO_B13*%
X119075200Y-60147200D03*
X111912400Y-76276200D03*
%TO.N,IO_B12*%
X118668800Y-61747400D03*
X111912400Y-77089000D03*
%TO.N,IO_A6*%
X111099600Y-81889600D03*
%TO.N,IO_A9*%
X111099600Y-79476600D03*
%TO.N,IO_A10*%
X111099600Y-78663800D03*
%TO.N,IO_A8*%
X111099600Y-80289400D03*
%TO.N,IO_A7*%
X110210600Y-81051400D03*
%TO.N,IO_B6*%
X116687600Y-60147200D03*
X111912400Y-81889600D03*
%TO.N,IO_B9*%
X117475000Y-60147200D03*
X111912400Y-79502000D03*
%TO.N,IO_B8*%
X111912400Y-80289400D03*
X117053100Y-61722000D03*
%TO.N,IO_B10*%
X117856000Y-61747400D03*
X111912400Y-78714600D03*
%TO.N,IO_C10*%
X112725200Y-78689200D03*
X124700000Y-96400000D03*
%TO.N,IO_C14*%
X122275600Y-60248800D03*
X112725200Y-75463400D03*
%TO.N,IO_C12*%
X123063000Y-60248800D03*
X112725200Y-77089000D03*
%TO.N,IO_C13*%
X122656600Y-61747400D03*
X112725200Y-76276200D03*
%TO.N,IO_C17*%
X112725200Y-73075800D03*
X121070000Y-61733800D03*
%TO.N,IO_C15*%
X121869200Y-61747400D03*
X112725200Y-74701400D03*
%TO.N,IO_C16*%
X112725200Y-73888600D03*
X121488200Y-60223400D03*
%TO.N,IO_D15*%
X106680000Y-64439800D03*
X113512600Y-74676000D03*
%TO.N,IO_D14*%
X107061000Y-64770000D03*
X113512600Y-75463400D03*
%TO.N,IO_D13*%
X106273600Y-64744600D03*
X113512600Y-76276200D03*
%TO.N,IO_D12*%
X113512600Y-77089000D03*
X105870857Y-64437118D03*
%TO.N,IO_D18*%
X119481600Y-64414400D03*
X114300000Y-72300000D03*
%TO.N,IO_D19*%
X114300000Y-71500000D03*
X119862600Y-64846200D03*
%TO.N,IO_F19*%
X121462800Y-65227200D03*
X115900200Y-71475600D03*
%TO.N,IO_F17*%
X121056400Y-64414400D03*
X115138200Y-73101200D03*
%TO.N,IO_E17*%
X119062500Y-64820800D03*
X114300000Y-73075800D03*
%TO.N,IO_E18*%
X120269000Y-64414400D03*
X115112800Y-72313800D03*
%TO.N,IO_E19*%
X115112800Y-71501000D03*
X120650000Y-64871600D03*
%TO.N,IO_D9*%
X103936800Y-96412800D03*
X113538000Y-79476600D03*
%TO.N,IO_E15*%
X114325400Y-75488800D03*
X103149400Y-94157800D03*
%TO.N,IO_E9*%
X103911400Y-92938600D03*
X114325400Y-79476600D03*
%TO.N,IO_D10*%
X103936800Y-95656400D03*
X113512600Y-78689200D03*
%TO.N,IO_E11*%
X103225600Y-96034600D03*
X114300000Y-77876400D03*
%TO.N,IO_E4*%
X114325400Y-83489800D03*
X107850000Y-96950000D03*
%TO.N,IO_E10*%
X103225600Y-96850200D03*
X114325400Y-78689200D03*
%TO.N,IO_E13*%
X103936800Y-93751400D03*
X115087400Y-76276200D03*
%TO.N,IO_E14*%
X103124000Y-93319600D03*
X114325400Y-76276200D03*
%TO.N,/Hirose Connectors/IO_N3*%
X122650000Y-96850000D03*
X121539000Y-85090000D03*
%TO.N,/Hirose Connectors/IO_N2*%
X123450000Y-96850000D03*
X121539000Y-85902800D03*
%TO.N,/Hirose Connectors/IO_P2*%
X122326400Y-85090000D03*
X123400000Y-62900000D03*
%TO.N,/Hirose Connectors/IO_N5*%
X121539000Y-82702400D03*
X113850000Y-60150000D03*
%TO.N,/Hirose Connectors/IO_P5*%
X114439700Y-60134500D03*
X122326400Y-82702400D03*
%TO.N,/Hirose Connectors/IO_P4*%
X122326400Y-83489800D03*
X122656600Y-62890400D03*
%TO.N,/Hirose Connectors/IO_N4*%
X121539000Y-83489800D03*
X121503700Y-62900000D03*
%TO.N,/Hirose Connectors/IO_P3*%
X121528200Y-84300000D03*
X124300000Y-96850000D03*
%TO.N,/Hirose Connectors/IO_K3*%
X119300000Y-98724128D03*
X118338600Y-85064600D03*
%TO.N,/Hirose Connectors/IO_C2*%
X118500000Y-98724128D03*
X112725200Y-85902800D03*
%TO.N,/Hirose Connectors/IO_F3*%
X115112800Y-84277200D03*
X120100000Y-98724128D03*
%TO.N,/Hirose Connectors/IO_J3*%
X117500400Y-85090000D03*
X118650000Y-96850000D03*
%TO.N,/Hirose Connectors/IO_C8*%
X122250000Y-96400000D03*
X112725200Y-80289400D03*
%TO.N,/Hirose Connectors/IO_L2*%
X120250000Y-96850000D03*
X119126000Y-85902800D03*
%TO.N,/Hirose Connectors/IO_K2*%
X119067428Y-95732572D03*
X118338600Y-85902800D03*
%TO.N,/Hirose Connectors/IO_M3*%
X121850000Y-96850000D03*
X119913400Y-85064600D03*
%TO.N,/Hirose Connectors/IO_D11*%
X113512600Y-77876400D03*
X123850000Y-96400000D03*
%TO.N,/Hirose Connectors/IO_C11*%
X112725200Y-77876400D03*
X119850000Y-96400000D03*
%TO.N,/Hirose Connectors/IO_E3*%
X117878200Y-96150000D03*
X114325400Y-84277200D03*
%TO.N,/Hirose Connectors/IO_C6*%
X112725200Y-81889600D03*
X120650000Y-96400000D03*
%TO.N,/Hirose Connectors/IO_L3*%
X121050000Y-96900000D03*
X119126000Y-85090000D03*
%TO.N,/Hirose Connectors/IO_D3*%
X113512600Y-84302600D03*
X118000000Y-98400000D03*
%TO.N,/Hirose Connectors/IO_H2*%
X116713000Y-85902800D03*
X118100000Y-96850000D03*
%TO.N,/Hirose Connectors/IO_C9*%
X123050000Y-96400000D03*
X112725200Y-79476600D03*
%TO.N,/Hirose Connectors/IO_C7*%
X112725200Y-81076800D03*
X121450000Y-96400000D03*
%TO.N,/Hirose Connectors/IO_H3*%
X116750000Y-85100000D03*
X114300000Y-95900000D03*
%TO.N,/Hirose Connectors/IO_G3*%
X116750000Y-84300000D03*
X113500000Y-95900000D03*
%TD*%
D12*
%TO.N,IO_E6*%
X113944400Y-79095600D02*
X113944400Y-81508600D01*
X113947200Y-79092800D02*
X113944400Y-79095600D01*
X108650000Y-98450000D02*
X108800000Y-98300000D01*
X108054400Y-79092800D02*
X113947200Y-79092800D01*
X114350800Y-81915000D02*
X114350800Y-81920800D01*
X109700000Y-98300000D02*
X109700000Y-95552200D01*
X105714800Y-91567000D02*
X105714800Y-81432400D01*
X108800000Y-98300000D02*
X109700000Y-98300000D01*
X109700000Y-95552200D02*
X105714800Y-91567000D01*
X105714800Y-81432400D02*
X108054400Y-79092800D01*
X113944400Y-81508600D02*
X114350800Y-81915000D01*
%TO.N,IO_B3*%
X109372400Y-86842600D02*
X109372400Y-90093800D01*
X114850000Y-95571400D02*
X114850000Y-96750000D01*
X114850000Y-96750000D02*
X114650000Y-96950000D01*
X109372400Y-90093800D02*
X114850000Y-95571400D01*
X111912400Y-84302600D02*
X109372400Y-86842600D01*
%TO.N,IO_G5*%
X113050000Y-95346200D02*
X113050000Y-96950000D01*
X115572800Y-83055200D02*
X110543600Y-83055200D01*
X110543600Y-83055200D02*
X108534200Y-85064600D01*
X115925600Y-82702400D02*
X115572800Y-83055200D01*
X108534200Y-85064600D02*
X108534200Y-90830400D01*
X108534200Y-90830400D02*
X113050000Y-95346200D01*
%TO.N,IO_D6*%
X108381800Y-79883000D02*
X113131600Y-79883000D01*
X106603800Y-91694000D02*
X106603800Y-81661000D01*
X110075872Y-98724128D02*
X110650000Y-98150000D01*
X109550000Y-98724128D02*
X110075872Y-98724128D01*
X106603800Y-81661000D02*
X108381800Y-79883000D01*
X113131600Y-81483200D02*
X113538000Y-81889600D01*
X110650000Y-98150000D02*
X110650000Y-95740200D01*
X110650000Y-95740200D02*
X106603800Y-91694000D01*
X113131600Y-79883000D02*
X113131600Y-81483200D01*
%TO.N,IO_D5*%
X111850000Y-97657308D02*
X111850000Y-96102000D01*
X107594400Y-91846400D02*
X107594400Y-81759800D01*
X107594400Y-81759800D02*
X108683800Y-80670400D01*
X113131600Y-82296000D02*
X113512600Y-82677000D01*
X112895503Y-98702811D02*
X111850000Y-97657308D01*
X112318800Y-80670400D02*
X112318800Y-82296000D01*
X112318800Y-82296000D02*
X113131600Y-82296000D01*
X111850000Y-96102000D02*
X107594400Y-91846400D01*
X108683800Y-80670400D02*
X112318800Y-80670400D01*
%TO.N,IO_B5*%
X108204000Y-91084400D02*
X108204000Y-84963000D01*
X110490000Y-82677000D02*
X111937800Y-82677000D01*
X112450000Y-97600000D02*
X112450000Y-95330400D01*
X108204000Y-84963000D02*
X110490000Y-82677000D01*
X113300000Y-98450000D02*
X112450000Y-97600000D01*
X112450000Y-95330400D02*
X108204000Y-91084400D01*
%TO.N,IO_E5*%
X114729000Y-82273400D02*
X114729000Y-78557944D01*
X114453856Y-78282800D02*
X107924600Y-78282800D01*
X114325400Y-82677000D02*
X114729000Y-82273400D01*
X114729000Y-78557944D02*
X114453856Y-78282800D01*
X105003600Y-81203800D02*
X105003600Y-91617800D01*
X105003600Y-91617800D02*
X109050000Y-95664200D01*
X107924600Y-78282800D02*
X105003600Y-81203800D01*
X109050000Y-95664200D02*
X109050000Y-96950000D01*
%TO.N,IO_F4*%
X113950000Y-98450000D02*
X113900000Y-98400000D01*
X114706400Y-83896200D02*
X115112800Y-83489800D01*
X108966000Y-85420200D02*
X110490000Y-83896200D01*
X110490000Y-83896200D02*
X114706400Y-83896200D01*
X113900000Y-95535800D02*
X108966000Y-90601800D01*
X113900000Y-98400000D02*
X113900000Y-95535800D01*
X108966000Y-90601800D02*
X108966000Y-85420200D01*
%TO.N,IO_C3*%
X114650000Y-98450000D02*
X115250000Y-97850000D01*
X109804200Y-89662000D02*
X109804200Y-87198200D01*
X115250000Y-95107800D02*
X109804200Y-89662000D01*
X115250000Y-97850000D02*
X115250000Y-95107800D01*
X109804200Y-87198200D02*
X112725200Y-84277200D01*
%TO.N,SDRAM_CASN*%
X116306600Y-72440800D02*
X116586000Y-72720200D01*
X116586000Y-72720200D02*
X118485056Y-72720200D01*
X116789200Y-69392800D02*
X116306600Y-69875400D01*
X116306600Y-69875400D02*
X116306600Y-72440800D01*
X133858000Y-69392800D02*
X116789200Y-69392800D01*
X118709400Y-73294200D02*
X119126000Y-73710800D01*
X118485056Y-72720200D02*
X118709400Y-72944544D01*
X141376400Y-76911200D02*
X133858000Y-69392800D01*
X118709400Y-72944544D02*
X118709400Y-73294200D01*
X119126000Y-73710800D02*
X119126000Y-73888600D01*
%TO.N,SDRAM_WEN*%
X119126000Y-73075800D02*
X119126000Y-72669400D01*
X119126000Y-72669400D02*
X118719600Y-72263000D01*
X118719600Y-72263000D02*
X118719600Y-70104000D01*
X131572000Y-69672200D02*
X132051800Y-70152000D01*
X133779000Y-70152000D02*
X141401800Y-77774800D01*
X132051800Y-70152000D02*
X133779000Y-70152000D01*
X118719600Y-70104000D02*
X119151400Y-69672200D01*
X119151400Y-69672200D02*
X131572000Y-69672200D01*
%TO.N,SDRAM_RASN*%
X116078000Y-69113400D02*
X134366000Y-69113400D01*
X119126000Y-74676000D02*
X118716800Y-74266800D01*
X115519200Y-69672200D02*
X116078000Y-69113400D01*
X118716800Y-73731944D02*
X118464256Y-73479400D01*
X118716800Y-74266800D02*
X118716800Y-73731944D01*
X118464256Y-73479400D02*
X115519200Y-73479400D01*
X134366000Y-69113400D02*
X141376400Y-76123800D01*
X115519200Y-73479400D02*
X115519200Y-69672200D01*
%TO.N,SDRAM_BA0*%
X115716526Y-75100000D02*
X113900000Y-75100000D01*
X115073269Y-68554600D02*
X136183532Y-68554600D01*
X113900000Y-75100000D02*
X113900000Y-69727869D01*
X115732526Y-75084000D02*
X115716526Y-75100000D01*
X117950000Y-75100000D02*
X116083874Y-75100000D01*
X118338600Y-73888600D02*
X117950000Y-74277200D01*
X116083874Y-75100000D02*
X116067874Y-75084000D01*
X141503400Y-72542400D02*
X141729200Y-72768200D01*
X113900000Y-69727869D02*
X115073269Y-68554600D01*
X140171332Y-72542400D02*
X141503400Y-72542400D01*
X141729200Y-72768200D02*
X141729200Y-74196200D01*
X136183532Y-68554600D02*
X140171332Y-72542400D01*
X117950000Y-74277200D02*
X117950000Y-75100000D01*
X141729200Y-74196200D02*
X141376400Y-74549000D01*
X116067874Y-75084000D02*
X115732526Y-75084000D01*
%TO.N,SDRAM_D7*%
X130835400Y-70510400D02*
X120599200Y-70510400D01*
X141376400Y-80137000D02*
X141376400Y-79526400D01*
X141376400Y-79526400D02*
X133605000Y-71755000D01*
X120599200Y-70510400D02*
X120348000Y-70761600D01*
X132080000Y-71755000D02*
X130835400Y-70510400D01*
X120348000Y-72641200D02*
X119913400Y-73075800D01*
X120348000Y-70761600D02*
X120348000Y-72641200D01*
X133605000Y-71755000D02*
X132080000Y-71755000D01*
%TO.N,SDRAM_DQM0*%
X132329744Y-70914000D02*
X131468944Y-70053200D01*
X131468944Y-70053200D02*
X119735600Y-70053200D01*
X141427200Y-78511400D02*
X133829800Y-70914000D01*
X119735600Y-70053200D02*
X119532400Y-70256400D01*
X133829800Y-70914000D02*
X132329744Y-70914000D01*
X119532400Y-73507600D02*
X119913400Y-73888600D01*
X119532400Y-70256400D02*
X119532400Y-73507600D01*
%TO.N,SDRAM_BA1*%
X117525800Y-73914000D02*
X117139800Y-74300000D01*
X114706400Y-74066400D02*
X114706400Y-69316600D01*
X117139800Y-74300000D02*
X114940000Y-74300000D01*
X114706400Y-69316600D02*
X115189000Y-68834000D01*
X135915400Y-68834000D02*
X140843000Y-73761600D01*
X140843000Y-73761600D02*
X141351000Y-73761600D01*
X114940000Y-74300000D02*
X114706400Y-74066400D01*
X115189000Y-68834000D02*
X135915400Y-68834000D01*
%TO.N,/Hirose Connectors/IO_C2*%
X118500000Y-98724128D02*
X118424128Y-98800000D01*
X116750000Y-98450000D02*
X116750000Y-94855200D01*
X117100000Y-98800000D02*
X116750000Y-98450000D01*
X118424128Y-98800000D02*
X117100000Y-98800000D01*
X112725200Y-90830400D02*
X112725200Y-85902800D01*
X116750000Y-94855200D02*
X112725200Y-90830400D01*
%TO.N,/Hirose Connectors/IO_F3*%
X115084600Y-87884600D02*
X114706400Y-87506400D01*
X119500000Y-96750000D02*
X117950000Y-95200000D01*
X117950000Y-94800000D02*
X115084600Y-91934600D01*
X114706400Y-84658200D02*
X115087400Y-84277200D01*
X119500000Y-98124128D02*
X119500000Y-96750000D01*
X115084600Y-91934600D02*
X115084600Y-87884600D01*
X115087400Y-84277200D02*
X115112800Y-84277200D01*
X117950000Y-95200000D02*
X117950000Y-94800000D01*
X120100000Y-98724128D02*
X119500000Y-98124128D01*
X114706400Y-87506400D02*
X114706400Y-84658200D01*
%TO.N,/Hirose Connectors/IO_E3*%
X114300000Y-91614936D02*
X114300000Y-88163400D01*
X113919000Y-84683600D02*
X114325400Y-84277200D01*
X117878200Y-96150000D02*
X117500000Y-95771800D01*
X113919000Y-87782400D02*
X113919000Y-84683600D01*
X117500000Y-94814936D02*
X114300000Y-91614936D01*
X114300000Y-88163400D02*
X113919000Y-87782400D01*
X117500000Y-95771800D02*
X117500000Y-94814936D01*
%TO.N,/Hirose Connectors/IO_D3*%
X114020600Y-91730668D02*
X114020600Y-89560400D01*
X117150000Y-96700000D02*
X117150000Y-94860068D01*
X118000000Y-98400000D02*
X118000000Y-97550000D01*
X113131600Y-88671400D02*
X113131600Y-84683600D01*
X118000000Y-97550000D02*
X117150000Y-96700000D01*
X113131600Y-84683600D02*
X113512600Y-84302600D01*
X114020600Y-89560400D02*
X113131600Y-88671400D01*
X117150000Y-94860068D02*
X114020600Y-91730668D01*
%TD*%
M02*
