%TF.GenerationSoftware,KiCad,Pcbnew,8.0.1*%
%TF.CreationDate,2024-12-16T22:11:06-05:00*%
%TF.ProjectId,cm,636d2e6b-6963-4616-945f-706362585858,rev?*%
%TF.SameCoordinates,Original*%
%TF.FileFunction,Copper,L3,Inr*%
%TF.FilePolarity,Positive*%
%FSLAX46Y46*%
G04 Gerber Fmt 4.6, Leading zero omitted, Abs format (unit mm)*
G04 Created by KiCad (PCBNEW 8.0.1) date 2024-12-16 22:11:06*
%MOMM*%
%LPD*%
G01*
G04 APERTURE LIST*
%TA.AperFunction,ViaPad*%
%ADD10C,0.350000*%
%TD*%
%TA.AperFunction,ViaPad*%
%ADD11C,0.403200*%
%TD*%
%TA.AperFunction,Conductor*%
%ADD12C,0.152400*%
%TD*%
%TA.AperFunction,Conductor*%
%ADD13C,0.127000*%
%TD*%
G04 APERTURE END LIST*
D10*
%TO.N,GND*%
X128600000Y-75460600D03*
D11*
X100165258Y-78994000D03*
X99187000Y-84912200D03*
D10*
X111861600Y-60147200D03*
D11*
X99187000Y-85928200D03*
X99212400Y-76403200D03*
X99181942Y-67919600D03*
D10*
X111480600Y-61696600D03*
D11*
X99161600Y-77978000D03*
X98125258Y-78994000D03*
D10*
X144195800Y-85394800D03*
X132588000Y-87960200D03*
X115900000Y-73100000D03*
X129958900Y-62280800D03*
D11*
X98795258Y-86929845D03*
D10*
X131495800Y-62458600D03*
X110261400Y-60147200D03*
D11*
X98795258Y-78984000D03*
X99207342Y-66827400D03*
X100160200Y-69443600D03*
D10*
X115900000Y-80300000D03*
X112728000Y-71450000D03*
X123875800Y-60121800D03*
D11*
X99545258Y-86939845D03*
X100165258Y-86939845D03*
D10*
X116700000Y-72300000D03*
X132562600Y-83337400D03*
X115100000Y-75500000D03*
D11*
X98120200Y-69443600D03*
X99540200Y-69443600D03*
D10*
X122300000Y-84300000D03*
X117500400Y-85877400D03*
D11*
X99187000Y-85420200D03*
D10*
X123150000Y-72288400D03*
X124700000Y-84300000D03*
D11*
X98790200Y-69433600D03*
X98125258Y-86939845D03*
X99187000Y-76936600D03*
D10*
X111074200Y-60147200D03*
X115900000Y-73900000D03*
D11*
X99181942Y-67386200D03*
D10*
X115150000Y-81100000D03*
D11*
X99187000Y-84404200D03*
D10*
X115900000Y-79450000D03*
D11*
X99545258Y-78994000D03*
D10*
X115900000Y-72300000D03*
X119913400Y-85902800D03*
D11*
X99161600Y-68453000D03*
X99187000Y-77470000D03*
D10*
X109880400Y-61696600D03*
X144100000Y-80850000D03*
X128618261Y-74704200D03*
X110667800Y-61696600D03*
X113512600Y-83464400D03*
X144068800Y-70916800D03*
%TO.N,+5V*%
X101027200Y-59994800D03*
%TO.N,/Power/3V3_PG*%
X103962200Y-70231000D03*
D11*
X98196400Y-83845400D03*
D10*
%TO.N,/Power/2V5_PG*%
X103971600Y-79425800D03*
D11*
X98120200Y-75869800D03*
%TO.N,/Power/1V1_PG*%
X98094800Y-66294000D03*
D10*
X103971600Y-87579200D03*
D11*
%TO.N,+3V3*%
X119938800Y-81915000D03*
X91770200Y-92430600D03*
D10*
X130657600Y-97891600D03*
X119126000Y-75488800D03*
D11*
X91770200Y-91313000D03*
X92379800Y-91313000D03*
D10*
X133959600Y-67868800D03*
X144094200Y-89763600D03*
X107873800Y-60121800D03*
X132562600Y-80949800D03*
D11*
X92379800Y-91871800D03*
D10*
X119930000Y-75480000D03*
X133100000Y-62550000D03*
X144068800Y-79349600D03*
D11*
X117525800Y-81889600D03*
D10*
X117525800Y-75488800D03*
D11*
X117525800Y-82677000D03*
X91770200Y-91871800D03*
D10*
X122761000Y-78638400D03*
D11*
X115138200Y-78689200D03*
X115138200Y-79502000D03*
D10*
X116738400Y-75488800D03*
X144119600Y-88163400D03*
X135559800Y-62227200D03*
X109070000Y-61694200D03*
X107470000Y-61673800D03*
D11*
X92989400Y-91871800D03*
D10*
X109702600Y-93268800D03*
X108661200Y-60121800D03*
X128485700Y-62280800D03*
X144068800Y-68935600D03*
X132588000Y-85750400D03*
D11*
X92989400Y-91313000D03*
X119938800Y-82677000D03*
D10*
X129159000Y-64795400D03*
X109474000Y-60147200D03*
D11*
X92989400Y-92430600D03*
X92379800Y-92430600D03*
D10*
X108270000Y-61686400D03*
X144170400Y-83337400D03*
D11*
X115138200Y-77901800D03*
D10*
X122761000Y-79451200D03*
%TO.N,/Power/3V3_EN*%
X107086400Y-81864200D03*
X100228400Y-83845400D03*
%TO.N,/Power/2V5_EN*%
X106121200Y-81864200D03*
X100228400Y-75869800D03*
%TO.N,/Power/1V1_EN*%
X100228400Y-66344800D03*
X108026200Y-81864200D03*
%TO.N,ECP5_PRGMN_BTN*%
X126314200Y-85090000D03*
X130898700Y-62179200D03*
%TO.N,ECP5_INITN*%
X132918200Y-66268600D03*
X133070600Y-67147633D03*
X125526800Y-85090000D03*
%TO.N,Net-(D5-A)*%
X135280400Y-66227700D03*
%TO.N,Net-(D6-A)*%
X128051800Y-66852800D03*
%TO.N,IO_D1*%
X113919000Y-88773000D03*
%TO.N,IO_D2*%
X113512600Y-85877400D03*
%TO.N,IO_E6*%
X108650000Y-98450000D03*
X114350800Y-81920800D03*
%TO.N,IO_G1*%
X116840000Y-88773000D03*
%TO.N,IO_A3*%
X111099600Y-89281000D03*
%TO.N,IO_E2*%
X114325400Y-85902800D03*
%TO.N,IO_E8*%
X114325400Y-80264000D03*
X105467428Y-96967428D03*
%TO.N,IO_B3*%
X111912400Y-84302600D03*
X114650000Y-96950000D03*
%TO.N,IO_G5*%
X113050000Y-96950000D03*
X115925600Y-82702400D03*
%TO.N,IO_J1*%
X118338600Y-88773000D03*
%TO.N,IO_D6*%
X113538000Y-81889600D03*
X109550000Y-98724128D03*
%TO.N,IO_B4*%
X111912400Y-83489800D03*
X107050000Y-96950000D03*
%TO.N,IO_D5*%
X113512600Y-82677000D03*
X112895503Y-98702811D03*
%TO.N,IO_B1*%
X112318800Y-88773000D03*
%TO.N,IO_U1*%
X123870000Y-89700000D03*
%TO.N,IO_K1*%
X118350000Y-87750000D03*
%TO.N,IO_E1*%
X114706400Y-89306400D03*
%TO.N,IO_A4*%
X110718600Y-88722200D03*
%TO.N,IO_F2*%
X115112800Y-85902800D03*
%TO.N,IO_R1*%
X122270000Y-89700000D03*
%TO.N,IO_A2*%
X111506000Y-88773000D03*
%TO.N,/Hirose Connectors/IO_P1*%
X121500000Y-88800000D03*
%TO.N,IO_D8*%
X113538000Y-80289400D03*
X105050000Y-98450000D03*
%TO.N,IO_D7*%
X105850000Y-98450000D03*
X113538000Y-81076800D03*
%TO.N,IO_L1*%
X119150000Y-89700000D03*
%TO.N,IO_A5*%
X110312200Y-89281000D03*
%TO.N,IO_C5*%
X112725200Y-82677000D03*
X106250000Y-96950000D03*
%TO.N,IO_V1*%
X124650000Y-88800000D03*
%TO.N,IO_B5*%
X111937800Y-82677000D03*
X113300000Y-98450000D03*
%TO.N,IO_B2*%
X111887000Y-89306400D03*
%TO.N,IO_E5*%
X114325400Y-82677000D03*
X109050000Y-96950000D03*
%TO.N,IO_N1*%
X120221800Y-89700000D03*
%TO.N,IO_F1*%
X115519200Y-88773000D03*
%TO.N,IO_M1*%
X119650000Y-88800000D03*
%TO.N,IO_C4*%
X112725200Y-83489800D03*
X107500000Y-98450000D03*
%TO.N,IO_F4*%
X115112800Y-83489800D03*
X113950000Y-98450000D03*
X108661200Y-95950000D03*
%TO.N,IO_F5*%
X115138200Y-82677000D03*
X106650000Y-98450000D03*
%TO.N,IO_T1*%
X123100000Y-88800000D03*
%TO.N,IO_C3*%
X114650000Y-98450000D03*
X112725200Y-84277200D03*
%TO.N,IO_H1*%
X117525800Y-89700000D03*
%TO.N,IO_C1*%
X113106200Y-89306400D03*
%TO.N,IO_J20*%
X110258484Y-63003434D03*
%TO.N,ECP5_DONE*%
X127152400Y-85090000D03*
X131313552Y-66721352D03*
%TO.N,JTAG_TCK*%
X124485400Y-59944000D03*
X123926600Y-83489800D03*
%TO.N,JTAG_TDI*%
X137355450Y-68874900D03*
X123113800Y-83489800D03*
X137922000Y-65278000D03*
%TO.N,JTAG_TDO*%
X136550400Y-66227700D03*
X133477000Y-62150000D03*
X125526800Y-84302600D03*
X136550400Y-67513200D03*
%TO.N,JTAG_TMS*%
X124663200Y-64389000D03*
X124714000Y-83489800D03*
%TO.N,Net-(U9I-CFG_1)*%
X123926600Y-84302600D03*
%TO.N,/Flash + JTAG/FLASH_IO0*%
X128066800Y-94056200D03*
%TO.N,/Flash + JTAG/FLASH_IO1*%
X135305800Y-96596200D03*
X125526800Y-85877400D03*
%TO.N,/Flash + JTAG/FLASH_IO2*%
X135305800Y-95326200D03*
%TO.N,/Flash + JTAG/FLASH_IO3*%
X128066800Y-96596200D03*
%TO.N,/Flash + JTAG/FLASH_SCK*%
X124714000Y-85064600D03*
X128066800Y-95326200D03*
%TO.N,/Flash + JTAG/FLASH_CSN*%
X123113800Y-85877400D03*
X135280400Y-97866200D03*
%TO.N,/Flash + JTAG/WRITEN*%
X123113800Y-84277200D03*
%TO.N,/Flash + JTAG/CS1N*%
X123926600Y-85902800D03*
%TO.N,/Flash + JTAG/SN_CSN*%
X123113800Y-85090000D03*
%TO.N,SDRAM_A7*%
X116713000Y-73897000D03*
X132511800Y-72158600D03*
%TO.N,SDRAM_D11*%
X132588000Y-84150200D03*
X119126000Y-84277200D03*
%TO.N,SDRAM_CASN*%
X141376400Y-76911200D03*
X119126000Y-73888600D03*
%TO.N,SDRAM_D4*%
X136300000Y-84150200D03*
X119913400Y-72288400D03*
%TO.N,SDRAM_CSN*%
X121513600Y-73888600D03*
X136300000Y-75350000D03*
%TO.N,SDRAM_A11*%
X122326400Y-73888600D03*
X132511800Y-74574400D03*
%TO.N,SDRAM_D6*%
X120726200Y-73896200D03*
X136300000Y-81762600D03*
%TO.N,SDRAM_A2*%
X124714000Y-73101200D03*
X141325600Y-70561200D03*
%TO.N,SDRAM_A5*%
X123926600Y-73101200D03*
X132486400Y-70535800D03*
%TO.N,/Hirose Connectors/IO_E7*%
X113250000Y-60150000D03*
X114325400Y-81076800D03*
%TO.N,CLK_25MHZ*%
X116357400Y-91922600D03*
X115925600Y-85877400D03*
%TO.N,SDRAM_D14*%
X132588000Y-87350600D03*
X119913400Y-83464400D03*
%TO.N,SDRAM_DQM1*%
X117525800Y-84277200D03*
X130022600Y-76123800D03*
%TO.N,SDRAM_A6*%
X123926600Y-73888600D03*
X132486400Y-71348600D03*
%TO.N,SDRAM_D12*%
X132588000Y-84937600D03*
X119126000Y-83489800D03*
%TO.N,SDRAM_A1*%
X124714000Y-73888600D03*
X141325600Y-71374000D03*
%TO.N,SDRAM_A9*%
X132511800Y-73761600D03*
X118331200Y-73101200D03*
%TO.N,SDRAM_A4*%
X132461000Y-69773800D03*
X123926600Y-72288400D03*
%TO.N,SDRAM_D13*%
X132588000Y-86537800D03*
X119913400Y-84277200D03*
%TO.N,SDRAM_WEN*%
X141401800Y-77774800D03*
X119126000Y-73075800D03*
%TO.N,SDRAM_A0*%
X141325600Y-72161400D03*
X116713000Y-71500000D03*
%TO.N,SDRAM_D10*%
X132588000Y-82550000D03*
X118313200Y-83489800D03*
%TO.N,SDRAM_D1*%
X136300000Y-87325200D03*
X121513600Y-73075800D03*
%TO.N,SDRAM_D9*%
X118313200Y-84277200D03*
X132588000Y-81737200D03*
%TO.N,SDRAM_RASN*%
X141376400Y-76123800D03*
X119126000Y-74701400D03*
%TO.N,SDRAM_D8*%
X117525800Y-83464400D03*
X132562600Y-80162400D03*
%TO.N,SDRAM_D3*%
X120726200Y-72288400D03*
X136300000Y-84937600D03*
%TO.N,SDRAM_BA0*%
X141351000Y-74549000D03*
X118338600Y-73888600D03*
%TO.N,SDRAM_A10*%
X117525800Y-72313800D03*
X141325600Y-72948800D03*
%TO.N,SDRAM_D7*%
X141376400Y-80137000D03*
X119913400Y-73075800D03*
%TO.N,SDRAM_D15*%
X132613400Y-88950800D03*
X120726200Y-83515200D03*
%TO.N,SDRAM_CKE*%
X123113800Y-73075800D03*
X132511800Y-76123800D03*
%TO.N,SDRAM_D5*%
X120726200Y-73101200D03*
X136300000Y-82550000D03*
%TO.N,SDRAM_A8*%
X117525800Y-73101200D03*
X132511800Y-72974200D03*
%TO.N,SDRAM_DQM0*%
X119913400Y-73888600D03*
X141427200Y-78511400D03*
%TO.N,SDRAM_A12*%
X132511800Y-75361800D03*
X122326400Y-74676000D03*
%TO.N,SDRAM_BA1*%
X141351000Y-73761600D03*
X117525800Y-73888600D03*
%TO.N,SDRAM_CLK*%
X123113800Y-73888600D03*
X132511800Y-76962000D03*
%TO.N,SDRAM_A3*%
X124714000Y-72288400D03*
X141351000Y-69773800D03*
%TO.N,SDRAM_D2*%
X136300000Y-86537800D03*
X121513600Y-72288400D03*
%TO.N,SDRAM_D0*%
X120726200Y-84302600D03*
X136300000Y-88112600D03*
D11*
%TO.N,+1V1*%
X92354400Y-74422000D03*
X92964000Y-73863200D03*
X92354400Y-73863200D03*
X120726200Y-80314800D03*
X91744800Y-73863200D03*
X92964000Y-73304400D03*
X91744800Y-73304400D03*
X117500400Y-78689200D03*
X119126000Y-80314800D03*
X91744800Y-74422000D03*
X120726200Y-77063600D03*
X117525800Y-77063600D03*
X117500400Y-80289400D03*
X120726200Y-78689200D03*
X119126000Y-77063600D03*
X92964000Y-74422000D03*
X92354400Y-73304400D03*
%TO.N,+2V5*%
X115900200Y-75488800D03*
X92989400Y-81762600D03*
X92379800Y-82321400D03*
D10*
X128752600Y-80695800D03*
D11*
X91770200Y-82321400D03*
X91770200Y-81762600D03*
X92379800Y-82880200D03*
X92379800Y-81762600D03*
X92989400Y-82321400D03*
X115925600Y-81889600D03*
D10*
X128752600Y-81483200D03*
D11*
X91770200Y-82880200D03*
X122402600Y-75488800D03*
D10*
X128752600Y-79883000D03*
D11*
X92989400Y-82880200D03*
X122402600Y-81889600D03*
D10*
%TO.N,IO_C20*%
X107870000Y-63000000D03*
%TO.N,IO_G20*%
X109448600Y-62992000D03*
%TO.N,IO_L20*%
X111048800Y-63017400D03*
%TO.N,IO_E20*%
X108670710Y-63002593D03*
%TO.N,IO_H20*%
X109880400Y-62712600D03*
%TO.N,IO_K20*%
X110667800Y-62712600D03*
%TO.N,IO_M20*%
X111455200Y-62712600D03*
%TO.N,IO_D20*%
X108274372Y-62712600D03*
%TO.N,IO_F20*%
X109063943Y-62709918D03*
%TO.N,IO_B20*%
X105971800Y-62850000D03*
%TO.N,IO_P20*%
X112252110Y-62676607D03*
%TO.N,IO_T20*%
X113055400Y-62687200D03*
%TO.N,IO_R20*%
X112649000Y-62941200D03*
%TO.N,IO_U20*%
X113461800Y-62966600D03*
%TO.N,IO_N20*%
X111840602Y-63012998D03*
%TO.N,IO_N19*%
X120726200Y-71501000D03*
X115070000Y-60147200D03*
%TO.N,IO_A19*%
X111074200Y-71450200D03*
X105079800Y-64439800D03*
%TO.N,IO_L19*%
X119126000Y-71526400D03*
X113487200Y-61661300D03*
%TO.N,IO_T19*%
X115874800Y-60147200D03*
X123139200Y-71501000D03*
%TO.N,IO_M19*%
X119938800Y-71501000D03*
X114274600Y-61671200D03*
%TO.N,IO_B19*%
X105486200Y-64719200D03*
X111912400Y-71475600D03*
%TO.N,IO_K19*%
X112674400Y-60147200D03*
X118313200Y-71501000D03*
%TO.N,IO_J19*%
X112268000Y-61696600D03*
X117525800Y-71501000D03*
%TO.N,IO_P19*%
X121513600Y-71501000D03*
X115466630Y-61678363D03*
%TO.N,IO_U19*%
X123926600Y-71501000D03*
X116281200Y-61671200D03*
%TO.N,IO_A18*%
X111099600Y-72339200D03*
%TO.N,IO_A13*%
X111119572Y-76289572D03*
%TO.N,IO_A16*%
X111099600Y-73914000D03*
%TO.N,IO_A17*%
X111099600Y-73075800D03*
%TO.N,IO_A15*%
X111099600Y-74701400D03*
%TO.N,IO_A14*%
X110337600Y-75539600D03*
%TO.N,IO_A11*%
X111099600Y-77876400D03*
%TO.N,IO_A12*%
X111099600Y-77089000D03*
%TO.N,IO_B18*%
X120675400Y-60198000D03*
X111912400Y-72288400D03*
%TO.N,IO_B16*%
X119862600Y-60172600D03*
X111912400Y-73888600D03*
%TO.N,IO_B15*%
X119481600Y-61722000D03*
X111912400Y-74676000D03*
%TO.N,IO_B11*%
X111912400Y-77901800D03*
X118262400Y-60147200D03*
%TO.N,IO_B17*%
X111912400Y-73101200D03*
X120269000Y-61722000D03*
%TO.N,IO_B13*%
X119075200Y-60147200D03*
X111912400Y-76276200D03*
%TO.N,IO_B12*%
X118668800Y-61747400D03*
X111912400Y-77089000D03*
%TO.N,IO_A6*%
X111099600Y-81889600D03*
%TO.N,IO_A9*%
X111099600Y-79476600D03*
%TO.N,IO_A10*%
X111099600Y-78663800D03*
%TO.N,IO_A8*%
X111099600Y-80289400D03*
%TO.N,IO_A7*%
X110210600Y-81051400D03*
%TO.N,IO_B6*%
X116687600Y-60147200D03*
X111912400Y-81889600D03*
%TO.N,IO_B9*%
X117475000Y-60147200D03*
X111912400Y-79502000D03*
%TO.N,IO_B8*%
X111912400Y-80289400D03*
X117053100Y-61722000D03*
%TO.N,IO_B10*%
X117856000Y-61747400D03*
X111912400Y-78714600D03*
%TO.N,IO_C10*%
X112725200Y-78689200D03*
X124700000Y-96400000D03*
%TO.N,IO_C14*%
X122275600Y-60248800D03*
X112725200Y-75463400D03*
%TO.N,IO_C12*%
X123063000Y-60248800D03*
X112725200Y-77089000D03*
%TO.N,IO_C13*%
X122656600Y-61747400D03*
X112725200Y-76276200D03*
%TO.N,IO_C17*%
X112725200Y-73075800D03*
X121070000Y-61733800D03*
%TO.N,IO_C15*%
X121869200Y-61747400D03*
X112725200Y-74701400D03*
%TO.N,IO_C16*%
X112725200Y-73888600D03*
X121488200Y-60223400D03*
%TO.N,IO_D15*%
X106680000Y-64439800D03*
X113512600Y-74676000D03*
%TO.N,IO_D14*%
X107061000Y-64770000D03*
X113512600Y-75463400D03*
%TO.N,IO_D13*%
X106273600Y-64744600D03*
X113512600Y-76276200D03*
%TO.N,IO_D12*%
X113512600Y-77089000D03*
X105870857Y-64437118D03*
%TO.N,IO_D18*%
X119481600Y-64414400D03*
X114300000Y-72300000D03*
%TO.N,IO_D19*%
X114300000Y-71500000D03*
X119862600Y-64846200D03*
%TO.N,IO_F19*%
X121462800Y-65227200D03*
X115900200Y-71475600D03*
%TO.N,IO_F17*%
X121056400Y-64414400D03*
X115138200Y-73101200D03*
%TO.N,IO_E17*%
X119062500Y-64820800D03*
X114300000Y-73075800D03*
%TO.N,IO_E18*%
X120269000Y-64414400D03*
X115112800Y-72313800D03*
%TO.N,IO_E19*%
X115112800Y-71501000D03*
X120650000Y-64871600D03*
%TO.N,IO_D9*%
X103936800Y-96412800D03*
X113538000Y-79476600D03*
%TO.N,IO_E15*%
X114325400Y-75488800D03*
X103149400Y-94157800D03*
%TO.N,IO_E9*%
X103911400Y-92938600D03*
X114325400Y-79476600D03*
%TO.N,IO_D10*%
X103936800Y-95656400D03*
X113512600Y-78689200D03*
%TO.N,IO_E11*%
X103225600Y-96034600D03*
X114300000Y-77876400D03*
%TO.N,IO_E4*%
X114325400Y-83489800D03*
X107850000Y-96950000D03*
%TO.N,IO_E10*%
X103225600Y-96850200D03*
X114325400Y-78689200D03*
%TO.N,IO_E13*%
X103936800Y-93751400D03*
X115087400Y-76276200D03*
%TO.N,IO_E14*%
X103124000Y-93319600D03*
X114325400Y-76276200D03*
%TO.N,/Hirose Connectors/IO_N3*%
X122650000Y-96850000D03*
X121539000Y-85090000D03*
%TO.N,/Hirose Connectors/IO_N2*%
X123450000Y-96850000D03*
X121539000Y-85902800D03*
%TO.N,/Hirose Connectors/IO_P2*%
X122326400Y-85090000D03*
X123400000Y-62900000D03*
%TO.N,/Hirose Connectors/IO_N5*%
X121539000Y-82702400D03*
X113850000Y-60150000D03*
%TO.N,/Hirose Connectors/IO_P5*%
X114439700Y-60134500D03*
X122326400Y-82702400D03*
%TO.N,/Hirose Connectors/IO_P4*%
X122326400Y-83489800D03*
X122656600Y-62890400D03*
%TO.N,/Hirose Connectors/IO_N4*%
X121539000Y-83489800D03*
X121503700Y-62900000D03*
%TO.N,/Hirose Connectors/IO_P3*%
X121528200Y-84300000D03*
X124300000Y-96850000D03*
%TO.N,/Hirose Connectors/IO_K3*%
X119300000Y-98724128D03*
X118338600Y-85064600D03*
%TO.N,/Hirose Connectors/IO_C2*%
X118500000Y-98724128D03*
X112725200Y-85902800D03*
%TO.N,/Hirose Connectors/IO_F3*%
X115112800Y-84277200D03*
X120100000Y-98724128D03*
%TO.N,/Hirose Connectors/IO_J3*%
X117500400Y-85090000D03*
X118650000Y-96850000D03*
%TO.N,/Hirose Connectors/IO_C8*%
X122250000Y-96400000D03*
X112725200Y-80289400D03*
%TO.N,/Hirose Connectors/IO_L2*%
X120250000Y-96850000D03*
X119126000Y-85902800D03*
%TO.N,/Hirose Connectors/IO_K2*%
X119067428Y-95732572D03*
X118338600Y-85902800D03*
%TO.N,/Hirose Connectors/IO_M3*%
X121850000Y-96850000D03*
X119913400Y-85064600D03*
%TO.N,/Hirose Connectors/IO_D11*%
X113512600Y-77876400D03*
X123850000Y-96400000D03*
%TO.N,/Hirose Connectors/IO_C11*%
X112725200Y-77876400D03*
X119850000Y-96400000D03*
%TO.N,/Hirose Connectors/IO_E3*%
X117878200Y-96150000D03*
X114325400Y-84277200D03*
%TO.N,/Hirose Connectors/IO_C6*%
X112725200Y-81889600D03*
X120650000Y-96400000D03*
%TO.N,/Hirose Connectors/IO_L3*%
X121050000Y-96900000D03*
X119126000Y-85090000D03*
%TO.N,/Hirose Connectors/IO_D3*%
X113512600Y-84302600D03*
X118000000Y-98400000D03*
%TO.N,/Hirose Connectors/IO_H2*%
X116713000Y-85902800D03*
X118100000Y-96850000D03*
%TO.N,/Hirose Connectors/IO_C9*%
X123050000Y-96400000D03*
X112725200Y-79476600D03*
%TO.N,/Hirose Connectors/IO_C7*%
X112725200Y-81076800D03*
X121450000Y-96400000D03*
%TO.N,/Hirose Connectors/IO_H3*%
X116750000Y-85100000D03*
X114300000Y-95900000D03*
%TO.N,/Hirose Connectors/IO_G3*%
X116750000Y-84300000D03*
X113500000Y-95900000D03*
%TD*%
D12*
%TO.N,/Power/3V3_PG*%
X97790000Y-70231000D02*
X103962200Y-70231000D01*
X98196400Y-83845400D02*
X97485200Y-83134200D01*
X97485200Y-83134200D02*
X97485200Y-70535800D01*
X97485200Y-70535800D02*
X97790000Y-70231000D01*
D13*
%TO.N,ECP5_PRGMN_BTN*%
X127262896Y-84683600D02*
X129108200Y-86528904D01*
X130962400Y-67132200D02*
X130556000Y-66725800D01*
X143449300Y-68747900D02*
X140817600Y-66116200D01*
X129108200Y-94513400D02*
X137791390Y-94513400D01*
X129108200Y-86528904D02*
X129108200Y-94513400D01*
X126720600Y-84683600D02*
X127262896Y-84683600D01*
X132054600Y-66751200D02*
X131673600Y-67132200D01*
X131673600Y-67132200D02*
X130962400Y-67132200D01*
X130556000Y-62521900D02*
X130898700Y-62179200D01*
X139522200Y-66116200D02*
X138887200Y-66751200D01*
X140817600Y-66116200D02*
X139522200Y-66116200D01*
X126314200Y-85090000D02*
X126720600Y-84683600D01*
X138887200Y-66751200D02*
X132054600Y-66751200D01*
X142972990Y-92456000D02*
X143449300Y-91979690D01*
X130556000Y-66725800D02*
X130556000Y-62521900D01*
X143449300Y-91979690D02*
X143449300Y-68747900D01*
X137791390Y-94513400D02*
X139848790Y-92456000D01*
X139848790Y-92456000D02*
X142972990Y-92456000D01*
%TO.N,ECP5_INITN*%
X140763190Y-66421000D02*
X143195300Y-68853110D01*
X129362200Y-86423694D02*
X127368106Y-84429600D01*
X142824200Y-92202000D02*
X139743580Y-92202000D01*
X143195300Y-91830900D02*
X142824200Y-92202000D01*
X139743580Y-92202000D02*
X137686180Y-94259400D01*
X143195300Y-68853110D02*
X143195300Y-91830900D01*
X126187200Y-84429600D02*
X125526800Y-85090000D01*
X139576610Y-66421000D02*
X140763190Y-66421000D01*
X127368106Y-84429600D02*
X126187200Y-84429600D01*
X138849977Y-67147633D02*
X139576610Y-66421000D01*
X129362200Y-94259400D02*
X129362200Y-86423694D01*
X137686180Y-94259400D02*
X129362200Y-94259400D01*
X133070600Y-67147633D02*
X138849977Y-67147633D01*
%TO.N,ECP5_DONE*%
X132172704Y-65862200D02*
X140944600Y-65862200D01*
X143078200Y-92710000D02*
X139954000Y-92710000D01*
X139954000Y-92710000D02*
X137871200Y-94792800D01*
X128854200Y-94792800D02*
X128854200Y-86791800D01*
X143703300Y-92084900D02*
X143078200Y-92710000D01*
X128854200Y-86791800D02*
X127152400Y-85090000D01*
X131313552Y-66721352D02*
X132172704Y-65862200D01*
X137871200Y-94792800D02*
X128854200Y-94792800D01*
X143703300Y-68620900D02*
X143703300Y-92084900D01*
X140944600Y-65862200D02*
X143703300Y-68620900D01*
%TO.N,JTAG_TCK*%
X130124200Y-85750400D02*
X130124200Y-93243400D01*
X130352800Y-93472000D02*
X137261600Y-93472000D01*
X130124200Y-93243400D02*
X130352800Y-93472000D01*
X137261600Y-93472000D02*
X139293600Y-91440000D01*
X139293600Y-91440000D02*
X142265400Y-91440000D01*
X133299200Y-67767200D02*
X126945590Y-67767200D01*
X124206000Y-64262000D02*
X124485400Y-63982600D01*
X142433300Y-69306700D02*
X140309600Y-67183000D01*
X140309600Y-67183000D02*
X139986620Y-67183000D01*
X138935320Y-68234300D02*
X133766300Y-68234300D01*
X133766300Y-68234300D02*
X133299200Y-67767200D01*
X142433300Y-91272100D02*
X142433300Y-69306700D01*
X123926600Y-83489800D02*
X124333000Y-83083400D01*
X139986620Y-67183000D02*
X138935320Y-68234300D01*
X126945590Y-67767200D02*
X124206000Y-65027610D01*
X124206000Y-65027610D02*
X124206000Y-64262000D01*
X124333000Y-83083400D02*
X127457200Y-83083400D01*
X124485400Y-63982600D02*
X124485400Y-59944000D01*
X142265400Y-91440000D02*
X142433300Y-91272100D01*
X127457200Y-83083400D02*
X130124200Y-85750400D01*
%TO.N,JTAG_TDI*%
X137355450Y-68874900D02*
X137695550Y-69215000D01*
X137695550Y-69215000D02*
X141982390Y-69215000D01*
X130606800Y-93218000D02*
X130378200Y-92989400D01*
X139188390Y-91186000D02*
X137156390Y-93218000D01*
X130378200Y-85645190D02*
X127003610Y-82270600D01*
X130378200Y-92989400D02*
X130378200Y-85645190D01*
X127003610Y-82270600D02*
X124333000Y-82270600D01*
X142062200Y-91186000D02*
X139188390Y-91186000D01*
X141982390Y-69215000D02*
X142179300Y-69411910D01*
X137156390Y-93218000D02*
X130606800Y-93218000D01*
X142179300Y-69411910D02*
X142179300Y-91068900D01*
X124333000Y-82270600D02*
X123113800Y-83489800D01*
X142179300Y-91068900D02*
X142062200Y-91186000D01*
%TO.N,JTAG_TDO*%
X142941300Y-91703900D02*
X142941300Y-69027300D01*
X129616200Y-86318484D02*
X129616200Y-94005400D01*
X136550400Y-67513200D02*
X136550400Y-67487800D01*
X127193916Y-83896200D02*
X129616200Y-86318484D01*
X142941300Y-69027300D02*
X140589000Y-66675000D01*
X136575800Y-67513200D02*
X136575800Y-67513200D01*
X142697200Y-91948000D02*
X142941300Y-91703900D01*
X138938000Y-67513200D02*
X136550400Y-67513200D01*
X125933200Y-83896200D02*
X127193916Y-83896200D01*
X140589000Y-66675000D02*
X139776200Y-66675000D01*
X139638370Y-91948000D02*
X142697200Y-91948000D01*
X129616200Y-94005400D02*
X137580970Y-94005400D01*
X125526800Y-84302600D02*
X125933200Y-83896200D01*
X137580970Y-94005400D02*
X139638370Y-91948000D01*
X139776200Y-66675000D02*
X138938000Y-67513200D01*
%TO.N,JTAG_TMS*%
X124714000Y-83489800D02*
X127381000Y-83489800D01*
X142687300Y-91576900D02*
X142687300Y-69183310D01*
X142687300Y-69183310D02*
X140432990Y-66929000D01*
X133231829Y-67503300D02*
X133221996Y-67513133D01*
X142570200Y-91694000D02*
X142687300Y-91576900D01*
X139533160Y-91694000D02*
X142570200Y-91694000D01*
X133221996Y-67513133D02*
X128195237Y-67513133D01*
X140432990Y-66929000D02*
X139881410Y-66929000D01*
X127050800Y-67513200D02*
X124663200Y-65125600D01*
X129870200Y-85979000D02*
X129870200Y-93726000D01*
X127381000Y-83489800D02*
X129870200Y-85979000D01*
X128195170Y-67513200D02*
X127050800Y-67513200D01*
X134604500Y-67878700D02*
X134229100Y-67503300D01*
X134229100Y-67503300D02*
X133231829Y-67503300D01*
X129870200Y-93726000D02*
X137501160Y-93726000D01*
X124663200Y-65125600D02*
X124663200Y-64389000D01*
X139881410Y-66929000D02*
X138931710Y-67878700D01*
X128195237Y-67513133D02*
X128195170Y-67513200D01*
X137501160Y-93726000D02*
X139533160Y-91694000D01*
X138931710Y-67878700D02*
X134604500Y-67878700D01*
D12*
%TO.N,/Flash + JTAG/FLASH_IO1*%
X128574800Y-87401400D02*
X127050800Y-85877400D01*
X127050800Y-85877400D02*
X125526800Y-85877400D01*
X128574800Y-96596200D02*
X128574800Y-87401400D01*
X135305800Y-96596200D02*
X128574800Y-96596200D01*
%TO.N,/Flash + JTAG/FLASH_SCK*%
X125120400Y-86309200D02*
X127457200Y-88646000D01*
X127457200Y-88646000D02*
X127457200Y-94716600D01*
X127457200Y-94716600D02*
X128066800Y-95326200D01*
X124714000Y-85064600D02*
X125120400Y-85471000D01*
X125120400Y-85471000D02*
X125120400Y-86309200D01*
%TO.N,/Flash + JTAG/FLASH_CSN*%
X135280400Y-97866200D02*
X135305800Y-97866200D01*
X135280400Y-97840800D02*
X135280400Y-97866200D01*
X127000000Y-88671400D02*
X127000000Y-96240600D01*
X123520200Y-86283800D02*
X124612400Y-86283800D01*
X124612400Y-86283800D02*
X127000000Y-88671400D01*
X135305800Y-97866200D02*
X135305800Y-97866200D01*
X127939800Y-97180400D02*
X134620000Y-97180400D01*
X127000000Y-96240600D02*
X127939800Y-97180400D01*
X123113800Y-85877400D02*
X123520200Y-86283800D01*
X134620000Y-97180400D02*
X135280400Y-97840800D01*
%TO.N,SDRAM_A7*%
X119327744Y-69164200D02*
X127330200Y-69164200D01*
X116713000Y-73101200D02*
X117119400Y-72694800D01*
X116713000Y-73897000D02*
X116713000Y-73101200D01*
X127330200Y-69164200D02*
X130302000Y-72136000D01*
X117119400Y-71372544D02*
X119327744Y-69164200D01*
X132511800Y-72136000D02*
X132511800Y-72158600D01*
X130302000Y-72136000D02*
X132511800Y-72136000D01*
X117119400Y-72694800D02*
X117119400Y-71372544D01*
%TO.N,SDRAM_A9*%
X127066270Y-70085666D02*
X130742204Y-73761600D01*
X130742204Y-73761600D02*
X132511800Y-73761600D01*
X119507000Y-72694800D02*
X119507000Y-70321332D01*
X118737600Y-72694800D02*
X119507000Y-72694800D01*
X119507000Y-70321332D02*
X119742666Y-70085666D01*
X119742666Y-70085666D02*
X127066270Y-70085666D01*
X118331200Y-73101200D02*
X118737600Y-72694800D01*
%TO.N,SDRAM_A0*%
X127445932Y-68884800D02*
X130316132Y-71755000D01*
X130316132Y-71755000D02*
X140919200Y-71755000D01*
X116713000Y-71500000D02*
X116713000Y-71170800D01*
X118999000Y-68884800D02*
X127445932Y-68884800D01*
X140919200Y-71755000D02*
X141325600Y-72161400D01*
X116713000Y-71170800D02*
X118999000Y-68884800D01*
%TO.N,SDRAM_A10*%
X117932200Y-71882000D02*
X117932200Y-71069200D01*
X117932200Y-71069200D02*
X119557800Y-69443600D01*
X119557800Y-69443600D02*
X127214468Y-69443600D01*
X117932200Y-71907400D02*
X117932200Y-71882000D01*
X141300200Y-72948800D02*
X141325600Y-72948800D01*
X117525800Y-72313800D02*
X117932200Y-71907400D01*
X127214468Y-69443600D02*
X128034334Y-70263466D01*
X141325600Y-72974200D02*
X141300200Y-72948800D01*
X140888200Y-72536800D02*
X141300200Y-72948800D01*
X128034334Y-70263466D02*
X130307668Y-72536800D01*
X141325600Y-72948800D02*
X141325600Y-72974200D01*
X130307668Y-72536800D02*
X140888200Y-72536800D01*
%TO.N,SDRAM_A8*%
X130324537Y-72948800D02*
X132511800Y-72974200D01*
X132511800Y-72974200D02*
X132511800Y-72948800D01*
X118719600Y-70713600D02*
X119710200Y-69723000D01*
X117525800Y-73075800D02*
X118719600Y-71882000D01*
X119710200Y-69723000D02*
X127098736Y-69723000D01*
X118719600Y-71882000D02*
X118719600Y-70713600D01*
X117525800Y-73101200D02*
X117525800Y-73075800D01*
X127098736Y-69723000D02*
X130324537Y-72948800D01*
%TO.N,SDRAM_BA1*%
X141351000Y-73787000D02*
X141325600Y-73761600D01*
X141325600Y-73761600D02*
X141351000Y-73761600D01*
X141351000Y-73761600D02*
X141351000Y-73787000D01*
D13*
%TO.N,IO_B18*%
X111912400Y-72288400D02*
X111480600Y-71856600D01*
X111480600Y-71856600D02*
X108026200Y-71856600D01*
X107619800Y-68554600D02*
X109689965Y-66484435D01*
X120675400Y-60198000D02*
X120675400Y-60172600D01*
X107619800Y-71297800D02*
X107619800Y-68554600D01*
X109689965Y-66484435D02*
X110744000Y-66484435D01*
X107619800Y-71450200D02*
X107619800Y-71297800D01*
X116023461Y-66484435D02*
X120675400Y-61832496D01*
X110744000Y-66484435D02*
X116023461Y-66484435D01*
X108026200Y-71856600D02*
X107619800Y-71450200D01*
X120675400Y-61832496D02*
X120675400Y-60198000D01*
%TO.N,IO_B16*%
X107111800Y-68329480D02*
X107672340Y-67768940D01*
X111465100Y-73441300D02*
X107223300Y-73441300D01*
X107672340Y-67768940D02*
X109464845Y-65976435D01*
X115062000Y-65976435D02*
X115744061Y-65976435D01*
X111912400Y-73888600D02*
X111465100Y-73441300D01*
X107111800Y-73329800D02*
X107111800Y-71932800D01*
X107111800Y-71932800D02*
X107111800Y-68329480D01*
X109464845Y-65976435D02*
X115062000Y-65976435D01*
X107223300Y-73441300D02*
X107111800Y-73329800D01*
X115744061Y-65976435D02*
X119862600Y-61857896D01*
X119862600Y-61857896D02*
X119862600Y-60172600D01*
%TO.N,IO_B15*%
X111912400Y-74676000D02*
X111556800Y-74320400D01*
X115569871Y-65722435D02*
X119481600Y-61810706D01*
X119481600Y-61810706D02*
X119481600Y-61722000D01*
X106857800Y-74066400D02*
X106857800Y-68224270D01*
X106857800Y-68224270D02*
X109359635Y-65722435D01*
X111556800Y-74320400D02*
X107111800Y-74320400D01*
X109359635Y-65722435D02*
X115569871Y-65722435D01*
X107111800Y-74320400D02*
X106857800Y-74066400D01*
%TO.N,IO_B11*%
X118262400Y-61857896D02*
X115245086Y-64875210D01*
X106095800Y-67908640D02*
X106095800Y-76760790D01*
X111521500Y-77510900D02*
X111912400Y-77901800D01*
X115245086Y-64875210D02*
X109129230Y-64875210D01*
X106095800Y-76760790D02*
X106845910Y-77510900D01*
X106845910Y-77510900D02*
X111521500Y-77510900D01*
X109129230Y-64875210D02*
X106095800Y-67908640D01*
X118262400Y-60147200D02*
X118262400Y-61857896D01*
%TO.N,IO_B17*%
X111521500Y-72710300D02*
X107533700Y-72710300D01*
X107533700Y-72710300D02*
X107365800Y-72542400D01*
X107365800Y-71983600D02*
X107365800Y-68434690D01*
X109570055Y-66230435D02*
X115167210Y-66230435D01*
X120269000Y-61810706D02*
X120269000Y-61722000D01*
X107365800Y-68434690D02*
X107926340Y-67874150D01*
X115167210Y-66230435D02*
X115849271Y-66230435D01*
X120269000Y-61722000D02*
X120269000Y-61696600D01*
X107365800Y-72542400D02*
X107365800Y-71983600D01*
X107926340Y-67874150D02*
X109570055Y-66230435D01*
X111912400Y-73101200D02*
X111521500Y-72710300D01*
X115849271Y-66230435D02*
X120269000Y-61810706D01*
%TO.N,IO_B13*%
X106603800Y-68119060D02*
X109294330Y-65428530D01*
X108340900Y-75910700D02*
X106603800Y-74173600D01*
X106603800Y-74173600D02*
X106603800Y-68119060D01*
X109294330Y-65428530D02*
X115504566Y-65428530D01*
X119075200Y-60147200D02*
X119075200Y-60172600D01*
X111912400Y-76276200D02*
X111546900Y-75910700D01*
X115504566Y-65428530D02*
X119075200Y-61857896D01*
X119075200Y-61857896D02*
X119075200Y-60147200D01*
X111546900Y-75910700D02*
X108340900Y-75910700D01*
%TO.N,IO_B12*%
X106349800Y-76098400D02*
X106906980Y-76655580D01*
X115350296Y-65129210D02*
X109234440Y-65129210D01*
X118668800Y-61645800D02*
X118668800Y-61747400D01*
X106906980Y-76655580D02*
X111478980Y-76655580D01*
X118668800Y-61747400D02*
X118668800Y-61810706D01*
X106349800Y-68013850D02*
X106349800Y-76098400D01*
X118668800Y-61810706D02*
X115350296Y-65129210D01*
X109234440Y-65129210D02*
X106349800Y-68013850D01*
X111478980Y-76655580D02*
X111912400Y-77089000D01*
%TO.N,IO_B6*%
X116687600Y-61950600D02*
X114884200Y-63754000D01*
X108813600Y-63754000D02*
X105079800Y-67487800D01*
X105562400Y-81483200D02*
X111506000Y-81483200D01*
X116687600Y-60147200D02*
X116687600Y-60172600D01*
X105079800Y-67487800D02*
X105079800Y-81000600D01*
X105079800Y-81000600D02*
X105562400Y-81483200D01*
X114884200Y-63754000D02*
X108813600Y-63754000D01*
X111506000Y-81483200D02*
X111912400Y-81889600D01*
X116687600Y-60147200D02*
X116687600Y-61950600D01*
%TO.N,IO_B9*%
X108947820Y-64338200D02*
X115018420Y-64338200D01*
X111912400Y-79502000D02*
X111521500Y-79111100D01*
X106263700Y-79111100D02*
X105587800Y-78435200D01*
X105587800Y-67698220D02*
X108947820Y-64338200D01*
X117475000Y-60147200D02*
X117475000Y-60172600D01*
X105587800Y-78435200D02*
X105587800Y-67698220D01*
X117475000Y-61881620D02*
X117475000Y-60147200D01*
X111521500Y-79111100D02*
X106263700Y-79111100D01*
X115018420Y-64338200D02*
X117475000Y-61881620D01*
%TO.N,IO_B8*%
X105333800Y-67593010D02*
X105333800Y-79248000D01*
X105927900Y-79842100D02*
X111465100Y-79842100D01*
X111465100Y-79842100D02*
X111912400Y-80289400D01*
X105333800Y-79248000D02*
X105927900Y-79842100D01*
X108878905Y-64047905D02*
X105333800Y-67593010D01*
X114949505Y-64047905D02*
X108878905Y-64047905D01*
X117053100Y-61944310D02*
X114949505Y-64047905D01*
X117053100Y-61722000D02*
X117053100Y-61944310D01*
%TO.N,IO_B10*%
X117856000Y-61859830D02*
X117856000Y-61747400D01*
X105841800Y-77368400D02*
X105841800Y-67803430D01*
X105859915Y-67785315D02*
X109024020Y-64621210D01*
X105841800Y-67803430D02*
X105859915Y-67785315D01*
X111496100Y-78298300D02*
X106492300Y-78298300D01*
X111912400Y-78714600D02*
X111496100Y-78298300D01*
X105841800Y-77647800D02*
X105841800Y-77368400D01*
X114782600Y-64621210D02*
X115094620Y-64621210D01*
X109024020Y-64621210D02*
X114782600Y-64621210D01*
X115094620Y-64621210D02*
X117856000Y-61859830D01*
X106492300Y-78298300D02*
X105841800Y-77647800D01*
D12*
%TO.N,IO_C10*%
X122704600Y-82545744D02*
X122704600Y-87495400D01*
X114173000Y-76987400D02*
X116789200Y-76987400D01*
X124700000Y-92700000D02*
X124700000Y-96400000D01*
X121878200Y-88321800D02*
X121878200Y-89878200D01*
X116789200Y-76987400D02*
X117322600Y-77520800D01*
X121878200Y-89878200D02*
X124700000Y-92700000D01*
X117322600Y-77520800D02*
X122402600Y-77520800D01*
X113690400Y-77470000D02*
X114173000Y-76987400D01*
X113106200Y-78308200D02*
X113106200Y-77597000D01*
X123139200Y-78257400D02*
X123139200Y-81725474D01*
X113233200Y-77470000D02*
X113690400Y-77470000D01*
X122402600Y-77520800D02*
X123139200Y-78257400D01*
X123139200Y-81725474D02*
X122511765Y-82352909D01*
X122704600Y-87495400D02*
X121878200Y-88321800D01*
X122511765Y-82352909D02*
X122704600Y-82545744D01*
X113106200Y-77597000D02*
X113233200Y-77470000D01*
X112725200Y-78689200D02*
X113106200Y-78308200D01*
%TO.N,IO_C14*%
X117551200Y-68148200D02*
X118313200Y-67386200D01*
X114700000Y-75025200D02*
X114700000Y-68459400D01*
D13*
X113106200Y-75082400D02*
X114757200Y-75082400D01*
D12*
X118552800Y-66497200D02*
X121589800Y-66497200D01*
X118313200Y-66736800D02*
X118552800Y-66497200D01*
X114747300Y-75072500D02*
X114700000Y-75025200D01*
X115011200Y-68148200D02*
X117551200Y-68148200D01*
D13*
X121589800Y-66497200D02*
X122275600Y-65811400D01*
D12*
X114700000Y-68459400D02*
X115011200Y-68148200D01*
D13*
X112725200Y-75463400D02*
X113106200Y-75082400D01*
D12*
X118313200Y-67386200D02*
X118313200Y-66736800D01*
D13*
X114757200Y-75082400D02*
X114747300Y-75072500D01*
X122275600Y-65811400D02*
X122275600Y-60248800D01*
%TO.N,IO_C12*%
X116332000Y-76708000D02*
X113106200Y-76708000D01*
X123834900Y-61020700D02*
X123834900Y-63041796D01*
X123063000Y-60248800D02*
X123834900Y-61020700D01*
X121731305Y-67473295D02*
X119953305Y-67473295D01*
X116332000Y-71094600D02*
X116332000Y-76708000D01*
X119953305Y-67473295D02*
X116332000Y-71094600D01*
X123834900Y-63041796D02*
X123825000Y-63051696D01*
X123825000Y-63051696D02*
X123825000Y-65379600D01*
X123825000Y-65379600D02*
X121731305Y-67473295D01*
X113106200Y-76708000D02*
X112725200Y-77089000D01*
%TO.N,IO_C13*%
X123022100Y-65776100D02*
X123022100Y-62112900D01*
X115508100Y-70978700D02*
X119267505Y-67219295D01*
X113106200Y-75895200D02*
X115471600Y-75895200D01*
X115508100Y-75858700D02*
X115508100Y-70978700D01*
X121578905Y-67219295D02*
X123022100Y-65776100D01*
X123022100Y-62112900D02*
X122656600Y-61747400D01*
X112725200Y-76276200D02*
X113106200Y-75895200D01*
X115471600Y-75895200D02*
X115508100Y-75858700D01*
X119267505Y-67219295D02*
X121578905Y-67219295D01*
%TO.N,IO_C17*%
X121070000Y-61797106D02*
X116128671Y-66738435D01*
X112318800Y-72669400D02*
X112725200Y-73075800D01*
X112687165Y-66738435D02*
X112318800Y-67106800D01*
X112318800Y-67106800D02*
X112318800Y-72669400D01*
X121070000Y-61733800D02*
X121070000Y-61797106D01*
X116128671Y-66738435D02*
X112687165Y-66738435D01*
D12*
%TO.N,IO_C15*%
X113900000Y-73526600D02*
X112725200Y-74701400D01*
X121429120Y-66175280D02*
X118184172Y-66175280D01*
X116967000Y-67792600D02*
X114325400Y-67792600D01*
D13*
X121869200Y-65735200D02*
X121429120Y-66175280D01*
D12*
X114325400Y-67792600D02*
X113900000Y-68218000D01*
X113900000Y-73488600D02*
X113900000Y-73526600D01*
X117566700Y-66792752D02*
X117566700Y-67192900D01*
X117566700Y-67192900D02*
X116967000Y-67792600D01*
D13*
X121869200Y-61747400D02*
X121869200Y-65735200D01*
D12*
X118184172Y-66175280D02*
X117566700Y-66792752D01*
X113900000Y-68218000D02*
X113900000Y-73488600D01*
D13*
%TO.N,IO_C16*%
X121488200Y-60223400D02*
X121488200Y-61832496D01*
X113131600Y-67411600D02*
X113131600Y-73482200D01*
X121488200Y-61832496D02*
X116328261Y-66992435D01*
X113131600Y-73482200D02*
X112725200Y-73888600D01*
X116328261Y-66992435D02*
X113550765Y-66992435D01*
X113550765Y-66992435D02*
X113131600Y-67411600D01*
%TO.N,/Hirose Connectors/IO_C8*%
X122250000Y-96400000D02*
X122250000Y-92919080D01*
X120280100Y-79081300D02*
X114742900Y-79081300D01*
X114742900Y-79081300D02*
X114706400Y-79117800D01*
X119253000Y-87397000D02*
X120330900Y-86319100D01*
X113131600Y-79883000D02*
X112725200Y-80289400D01*
X114706400Y-79117800D02*
X114706400Y-79879800D01*
X119769500Y-90438580D02*
X119769500Y-89443394D01*
X119769500Y-89443394D02*
X119253000Y-88926894D01*
X119253000Y-88926894D02*
X119253000Y-87397000D01*
X122250000Y-92919080D02*
X119769500Y-90438580D01*
X120330900Y-79132100D02*
X120280100Y-79081300D01*
X114703200Y-79883000D02*
X113131600Y-79883000D01*
X114706400Y-79879800D02*
X114703200Y-79883000D01*
X120330900Y-86319100D02*
X120330900Y-79132100D01*
D12*
%TO.N,/Hirose Connectors/IO_D11*%
X121917200Y-87582000D02*
X121100000Y-88399200D01*
X116535200Y-77317600D02*
X117091515Y-77873915D01*
X113700160Y-77876400D02*
X114258960Y-77317600D01*
X121917200Y-78930554D02*
X121917200Y-87582000D01*
X121155515Y-77873915D02*
X120999057Y-78030373D01*
X121234032Y-78247386D02*
X121917200Y-78930554D01*
X121100000Y-89950000D02*
X123850000Y-92700000D01*
X114258960Y-77317600D02*
X116535200Y-77317600D01*
X121216070Y-78247386D02*
X121234032Y-78247386D01*
X120999057Y-78030373D02*
X121216070Y-78247386D01*
X117091515Y-77873915D02*
X121155515Y-77873915D01*
X113512600Y-77876400D02*
X113700160Y-77876400D01*
X123850000Y-92700000D02*
X123850000Y-96400000D01*
X121100000Y-88399200D02*
X121100000Y-89950000D01*
D13*
%TO.N,/Hirose Connectors/IO_C11*%
X117921100Y-89854100D02*
X117921100Y-82284900D01*
X112318800Y-78282800D02*
X112725200Y-77876400D01*
X119850000Y-96400000D02*
X119850000Y-91783000D01*
X117921100Y-82284900D02*
X114503596Y-82284900D01*
X119850000Y-91783000D02*
X117921100Y-89854100D01*
X112605004Y-82286300D02*
X112318800Y-82000096D01*
X114503596Y-82284900D02*
X114502196Y-82286300D01*
X112318800Y-82000096D02*
X112318800Y-78282800D01*
X114502196Y-82286300D02*
X112605004Y-82286300D01*
%TO.N,/Hirose Connectors/IO_C6*%
X112725200Y-81889600D02*
X113131600Y-81483200D01*
X118745000Y-81483200D02*
X118745000Y-90132500D01*
X120650000Y-92037500D02*
X120650000Y-96400000D01*
X118745000Y-90132500D02*
X120650000Y-92037500D01*
X113131600Y-81483200D02*
X118745000Y-81483200D01*
D12*
%TO.N,/Hirose Connectors/IO_C9*%
X121150000Y-78558486D02*
X121150000Y-86048656D01*
D13*
X113919000Y-78344700D02*
X113969800Y-78293900D01*
D12*
X121118300Y-78526786D02*
X121150000Y-78558486D01*
D13*
X113969800Y-78293900D02*
X120885414Y-78293900D01*
D12*
X120700000Y-90350000D02*
X123050000Y-92700000D01*
X123050000Y-92700000D02*
X123050000Y-96400000D01*
D13*
X113106200Y-79095600D02*
X113919000Y-79095600D01*
X120885414Y-78293900D02*
X121118300Y-78526786D01*
X113919000Y-79095600D02*
X113919000Y-78344700D01*
X112725200Y-79476600D02*
X113106200Y-79095600D01*
D12*
X120700000Y-86498656D02*
X120700000Y-90350000D01*
X121150000Y-86048656D02*
X120700000Y-86498656D01*
D13*
%TO.N,/Hirose Connectors/IO_C7*%
X119546700Y-81060200D02*
X119546700Y-86052996D01*
X119900000Y-80706900D02*
X119546700Y-81060200D01*
X112725200Y-81076800D02*
X113095100Y-80706900D01*
X118999000Y-86600696D02*
X118999000Y-89032104D01*
X113095100Y-80706900D02*
X119900000Y-80706900D01*
X119515500Y-90543790D02*
X121450000Y-92478290D01*
X119546700Y-86052996D02*
X118999000Y-86600696D01*
X118999000Y-89032104D02*
X119515500Y-89548604D01*
X121450000Y-92478290D02*
X121450000Y-96400000D01*
X119515500Y-89548604D02*
X119515500Y-90543790D01*
%TD*%
M02*
