%TF.GenerationSoftware,KiCad,Pcbnew,8.0.1*%
%TF.CreationDate,2024-12-17T09:37:03-05:00*%
%TF.ProjectId,cm,636d2e6b-6963-4616-945f-706362585858,rev?*%
%TF.SameCoordinates,Original*%
%TF.FileFunction,Drillmap*%
%TF.FilePolarity,Positive*%
%FSLAX45Y45*%
G04 Gerber Fmt 4.5, Leading zero omitted, Abs format (unit mm)*
G04 Created by KiCad (PCBNEW 8.0.1) date 2024-12-17 09:37:03*
%MOMM*%
%LPD*%
G01*
G04 APERTURE LIST*
%ADD10C,0.050000*%
%ADD11C,0.200000*%
%ADD12C,0.270000*%
G04 APERTURE END LIST*
D10*
X9337013Y-9928013D02*
G75*
G02*
X8986997Y-9578000I-3J350013D01*
G01*
X14487000Y-6279000D02*
X14487000Y-9578000D01*
X14137000Y-9928013D02*
X9337013Y-9928013D01*
X8987000Y-9578000D02*
X8987000Y-6279000D01*
X14486995Y-9578000D02*
G75*
G02*
X14136994Y-9928006I-350006J0D01*
G01*
X14137000Y-5929000D02*
G75*
G02*
X14487020Y-6279018I0J-350020D01*
G01*
X9337040Y-5929000D02*
X14137040Y-5929000D01*
X8986987Y-6279013D02*
G75*
G02*
X9337000Y-5928997I350013J3D01*
G01*
D11*
D12*
X9202000Y-6144013D02*
X9472000Y-6414013D01*
X9472000Y-6144013D02*
X9202000Y-6414013D01*
X9202013Y-9443000D02*
X9472013Y-9713000D01*
X9472013Y-9443000D02*
X9202013Y-9713000D01*
X14001987Y-9443000D02*
X14271987Y-9713000D01*
X14271987Y-9443000D02*
X14001987Y-9713000D01*
X14002504Y-6144013D02*
X14272504Y-6414013D01*
X14272504Y-6144013D02*
X14002504Y-6414013D01*
D11*
X9245264Y-10241997D02*
X9245264Y-10041997D01*
X9245264Y-10041997D02*
X9292883Y-10041997D01*
X9292883Y-10041997D02*
X9321455Y-10051520D01*
X9321455Y-10051520D02*
X9340502Y-10070568D01*
X9340502Y-10070568D02*
X9350026Y-10089616D01*
X9350026Y-10089616D02*
X9359550Y-10127711D01*
X9359550Y-10127711D02*
X9359550Y-10156282D01*
X9359550Y-10156282D02*
X9350026Y-10194378D01*
X9350026Y-10194378D02*
X9340502Y-10213425D01*
X9340502Y-10213425D02*
X9321455Y-10232473D01*
X9321455Y-10232473D02*
X9292883Y-10241997D01*
X9292883Y-10241997D02*
X9245264Y-10241997D01*
X9445264Y-10241997D02*
X9445264Y-10108663D01*
X9445264Y-10146759D02*
X9454788Y-10127711D01*
X9454788Y-10127711D02*
X9464312Y-10118187D01*
X9464312Y-10118187D02*
X9483359Y-10108663D01*
X9483359Y-10108663D02*
X9502407Y-10108663D01*
X9569074Y-10241997D02*
X9569074Y-10108663D01*
X9569074Y-10041997D02*
X9559550Y-10051520D01*
X9559550Y-10051520D02*
X9569074Y-10061044D01*
X9569074Y-10061044D02*
X9578597Y-10051520D01*
X9578597Y-10051520D02*
X9569074Y-10041997D01*
X9569074Y-10041997D02*
X9569074Y-10061044D01*
X9692883Y-10241997D02*
X9673835Y-10232473D01*
X9673835Y-10232473D02*
X9664312Y-10213425D01*
X9664312Y-10213425D02*
X9664312Y-10041997D01*
X9797645Y-10241997D02*
X9778597Y-10232473D01*
X9778597Y-10232473D02*
X9769074Y-10213425D01*
X9769074Y-10213425D02*
X9769074Y-10041997D01*
X10026216Y-10241997D02*
X10026216Y-10041997D01*
X10026216Y-10041997D02*
X10092883Y-10184854D01*
X10092883Y-10184854D02*
X10159550Y-10041997D01*
X10159550Y-10041997D02*
X10159550Y-10241997D01*
X10340502Y-10241997D02*
X10340502Y-10137235D01*
X10340502Y-10137235D02*
X10330978Y-10118187D01*
X10330978Y-10118187D02*
X10311931Y-10108663D01*
X10311931Y-10108663D02*
X10273835Y-10108663D01*
X10273835Y-10108663D02*
X10254788Y-10118187D01*
X10340502Y-10232473D02*
X10321455Y-10241997D01*
X10321455Y-10241997D02*
X10273835Y-10241997D01*
X10273835Y-10241997D02*
X10254788Y-10232473D01*
X10254788Y-10232473D02*
X10245264Y-10213425D01*
X10245264Y-10213425D02*
X10245264Y-10194378D01*
X10245264Y-10194378D02*
X10254788Y-10175330D01*
X10254788Y-10175330D02*
X10273835Y-10165806D01*
X10273835Y-10165806D02*
X10321455Y-10165806D01*
X10321455Y-10165806D02*
X10340502Y-10156282D01*
X10435740Y-10108663D02*
X10435740Y-10308663D01*
X10435740Y-10118187D02*
X10454788Y-10108663D01*
X10454788Y-10108663D02*
X10492883Y-10108663D01*
X10492883Y-10108663D02*
X10511931Y-10118187D01*
X10511931Y-10118187D02*
X10521455Y-10127711D01*
X10521455Y-10127711D02*
X10530978Y-10146759D01*
X10530978Y-10146759D02*
X10530978Y-10203901D01*
X10530978Y-10203901D02*
X10521455Y-10222949D01*
X10521455Y-10222949D02*
X10511931Y-10232473D01*
X10511931Y-10232473D02*
X10492883Y-10241997D01*
X10492883Y-10241997D02*
X10454788Y-10241997D01*
X10454788Y-10241997D02*
X10435740Y-10232473D01*
X10616693Y-10222949D02*
X10626216Y-10232473D01*
X10626216Y-10232473D02*
X10616693Y-10241997D01*
X10616693Y-10241997D02*
X10607169Y-10232473D01*
X10607169Y-10232473D02*
X10616693Y-10222949D01*
X10616693Y-10222949D02*
X10616693Y-10241997D01*
X10616693Y-10118187D02*
X10626216Y-10127711D01*
X10626216Y-10127711D02*
X10616693Y-10137235D01*
X10616693Y-10137235D02*
X10607169Y-10127711D01*
X10607169Y-10127711D02*
X10616693Y-10118187D01*
X10616693Y-10118187D02*
X10616693Y-10137235D01*
X8784487Y-10470513D02*
X8984487Y-10670513D01*
X8984487Y-10470513D02*
X8784487Y-10670513D01*
X9235740Y-10481044D02*
X9245264Y-10471520D01*
X9245264Y-10471520D02*
X9264312Y-10461997D01*
X9264312Y-10461997D02*
X9311931Y-10461997D01*
X9311931Y-10461997D02*
X9330978Y-10471520D01*
X9330978Y-10471520D02*
X9340502Y-10481044D01*
X9340502Y-10481044D02*
X9350026Y-10500092D01*
X9350026Y-10500092D02*
X9350026Y-10519139D01*
X9350026Y-10519139D02*
X9340502Y-10547711D01*
X9340502Y-10547711D02*
X9226216Y-10661997D01*
X9226216Y-10661997D02*
X9350026Y-10661997D01*
X9435740Y-10642949D02*
X9445264Y-10652473D01*
X9445264Y-10652473D02*
X9435740Y-10661997D01*
X9435740Y-10661997D02*
X9426216Y-10652473D01*
X9426216Y-10652473D02*
X9435740Y-10642949D01*
X9435740Y-10642949D02*
X9435740Y-10661997D01*
X9511931Y-10461997D02*
X9645264Y-10461997D01*
X9645264Y-10461997D02*
X9559550Y-10661997D01*
X9759550Y-10461997D02*
X9778597Y-10461997D01*
X9778597Y-10461997D02*
X9797645Y-10471520D01*
X9797645Y-10471520D02*
X9807169Y-10481044D01*
X9807169Y-10481044D02*
X9816693Y-10500092D01*
X9816693Y-10500092D02*
X9826216Y-10538187D01*
X9826216Y-10538187D02*
X9826216Y-10585806D01*
X9826216Y-10585806D02*
X9816693Y-10623901D01*
X9816693Y-10623901D02*
X9807169Y-10642949D01*
X9807169Y-10642949D02*
X9797645Y-10652473D01*
X9797645Y-10652473D02*
X9778597Y-10661997D01*
X9778597Y-10661997D02*
X9759550Y-10661997D01*
X9759550Y-10661997D02*
X9740502Y-10652473D01*
X9740502Y-10652473D02*
X9730978Y-10642949D01*
X9730978Y-10642949D02*
X9721455Y-10623901D01*
X9721455Y-10623901D02*
X9711931Y-10585806D01*
X9711931Y-10585806D02*
X9711931Y-10538187D01*
X9711931Y-10538187D02*
X9721455Y-10500092D01*
X9721455Y-10500092D02*
X9730978Y-10481044D01*
X9730978Y-10481044D02*
X9740502Y-10471520D01*
X9740502Y-10471520D02*
X9759550Y-10461997D01*
X9950026Y-10461997D02*
X9969074Y-10461997D01*
X9969074Y-10461997D02*
X9988121Y-10471520D01*
X9988121Y-10471520D02*
X9997645Y-10481044D01*
X9997645Y-10481044D02*
X10007169Y-10500092D01*
X10007169Y-10500092D02*
X10016693Y-10538187D01*
X10016693Y-10538187D02*
X10016693Y-10585806D01*
X10016693Y-10585806D02*
X10007169Y-10623901D01*
X10007169Y-10623901D02*
X9997645Y-10642949D01*
X9997645Y-10642949D02*
X9988121Y-10652473D01*
X9988121Y-10652473D02*
X9969074Y-10661997D01*
X9969074Y-10661997D02*
X9950026Y-10661997D01*
X9950026Y-10661997D02*
X9930978Y-10652473D01*
X9930978Y-10652473D02*
X9921455Y-10642949D01*
X9921455Y-10642949D02*
X9911931Y-10623901D01*
X9911931Y-10623901D02*
X9902407Y-10585806D01*
X9902407Y-10585806D02*
X9902407Y-10538187D01*
X9902407Y-10538187D02*
X9911931Y-10500092D01*
X9911931Y-10500092D02*
X9921455Y-10481044D01*
X9921455Y-10481044D02*
X9930978Y-10471520D01*
X9930978Y-10471520D02*
X9950026Y-10461997D01*
X10102407Y-10661997D02*
X10102407Y-10528663D01*
X10102407Y-10547711D02*
X10111931Y-10538187D01*
X10111931Y-10538187D02*
X10130978Y-10528663D01*
X10130978Y-10528663D02*
X10159550Y-10528663D01*
X10159550Y-10528663D02*
X10178597Y-10538187D01*
X10178597Y-10538187D02*
X10188121Y-10557235D01*
X10188121Y-10557235D02*
X10188121Y-10661997D01*
X10188121Y-10557235D02*
X10197645Y-10538187D01*
X10197645Y-10538187D02*
X10216693Y-10528663D01*
X10216693Y-10528663D02*
X10245264Y-10528663D01*
X10245264Y-10528663D02*
X10264312Y-10538187D01*
X10264312Y-10538187D02*
X10273836Y-10557235D01*
X10273836Y-10557235D02*
X10273836Y-10661997D01*
X10369074Y-10661997D02*
X10369074Y-10528663D01*
X10369074Y-10547711D02*
X10378597Y-10538187D01*
X10378597Y-10538187D02*
X10397645Y-10528663D01*
X10397645Y-10528663D02*
X10426217Y-10528663D01*
X10426217Y-10528663D02*
X10445264Y-10538187D01*
X10445264Y-10538187D02*
X10454788Y-10557235D01*
X10454788Y-10557235D02*
X10454788Y-10661997D01*
X10454788Y-10557235D02*
X10464312Y-10538187D01*
X10464312Y-10538187D02*
X10483359Y-10528663D01*
X10483359Y-10528663D02*
X10511931Y-10528663D01*
X10511931Y-10528663D02*
X10530978Y-10538187D01*
X10530978Y-10538187D02*
X10540502Y-10557235D01*
X10540502Y-10557235D02*
X10540502Y-10661997D01*
X10930978Y-10452473D02*
X10759550Y-10709616D01*
X11188121Y-10461997D02*
X11207169Y-10461997D01*
X11207169Y-10461997D02*
X11226217Y-10471520D01*
X11226217Y-10471520D02*
X11235740Y-10481044D01*
X11235740Y-10481044D02*
X11245264Y-10500092D01*
X11245264Y-10500092D02*
X11254788Y-10538187D01*
X11254788Y-10538187D02*
X11254788Y-10585806D01*
X11254788Y-10585806D02*
X11245264Y-10623901D01*
X11245264Y-10623901D02*
X11235740Y-10642949D01*
X11235740Y-10642949D02*
X11226217Y-10652473D01*
X11226217Y-10652473D02*
X11207169Y-10661997D01*
X11207169Y-10661997D02*
X11188121Y-10661997D01*
X11188121Y-10661997D02*
X11169074Y-10652473D01*
X11169074Y-10652473D02*
X11159550Y-10642949D01*
X11159550Y-10642949D02*
X11150026Y-10623901D01*
X11150026Y-10623901D02*
X11140502Y-10585806D01*
X11140502Y-10585806D02*
X11140502Y-10538187D01*
X11140502Y-10538187D02*
X11150026Y-10500092D01*
X11150026Y-10500092D02*
X11159550Y-10481044D01*
X11159550Y-10481044D02*
X11169074Y-10471520D01*
X11169074Y-10471520D02*
X11188121Y-10461997D01*
X11340502Y-10642949D02*
X11350026Y-10652473D01*
X11350026Y-10652473D02*
X11340502Y-10661997D01*
X11340502Y-10661997D02*
X11330978Y-10652473D01*
X11330978Y-10652473D02*
X11340502Y-10642949D01*
X11340502Y-10642949D02*
X11340502Y-10661997D01*
X11540502Y-10661997D02*
X11426217Y-10661997D01*
X11483359Y-10661997D02*
X11483359Y-10461997D01*
X11483359Y-10461997D02*
X11464312Y-10490568D01*
X11464312Y-10490568D02*
X11445264Y-10509616D01*
X11445264Y-10509616D02*
X11426217Y-10519139D01*
X11664312Y-10461997D02*
X11683359Y-10461997D01*
X11683359Y-10461997D02*
X11702407Y-10471520D01*
X11702407Y-10471520D02*
X11711931Y-10481044D01*
X11711931Y-10481044D02*
X11721455Y-10500092D01*
X11721455Y-10500092D02*
X11730978Y-10538187D01*
X11730978Y-10538187D02*
X11730978Y-10585806D01*
X11730978Y-10585806D02*
X11721455Y-10623901D01*
X11721455Y-10623901D02*
X11711931Y-10642949D01*
X11711931Y-10642949D02*
X11702407Y-10652473D01*
X11702407Y-10652473D02*
X11683359Y-10661997D01*
X11683359Y-10661997D02*
X11664312Y-10661997D01*
X11664312Y-10661997D02*
X11645264Y-10652473D01*
X11645264Y-10652473D02*
X11635740Y-10642949D01*
X11635740Y-10642949D02*
X11626217Y-10623901D01*
X11626217Y-10623901D02*
X11616693Y-10585806D01*
X11616693Y-10585806D02*
X11616693Y-10538187D01*
X11616693Y-10538187D02*
X11626217Y-10500092D01*
X11626217Y-10500092D02*
X11635740Y-10481044D01*
X11635740Y-10481044D02*
X11645264Y-10471520D01*
X11645264Y-10471520D02*
X11664312Y-10461997D01*
X11902407Y-10461997D02*
X11864312Y-10461997D01*
X11864312Y-10461997D02*
X11845264Y-10471520D01*
X11845264Y-10471520D02*
X11835740Y-10481044D01*
X11835740Y-10481044D02*
X11816693Y-10509616D01*
X11816693Y-10509616D02*
X11807169Y-10547711D01*
X11807169Y-10547711D02*
X11807169Y-10623901D01*
X11807169Y-10623901D02*
X11816693Y-10642949D01*
X11816693Y-10642949D02*
X11826217Y-10652473D01*
X11826217Y-10652473D02*
X11845264Y-10661997D01*
X11845264Y-10661997D02*
X11883359Y-10661997D01*
X11883359Y-10661997D02*
X11902407Y-10652473D01*
X11902407Y-10652473D02*
X11911931Y-10642949D01*
X11911931Y-10642949D02*
X11921455Y-10623901D01*
X11921455Y-10623901D02*
X11921455Y-10576282D01*
X11921455Y-10576282D02*
X11911931Y-10557235D01*
X11911931Y-10557235D02*
X11902407Y-10547711D01*
X11902407Y-10547711D02*
X11883359Y-10538187D01*
X11883359Y-10538187D02*
X11845264Y-10538187D01*
X11845264Y-10538187D02*
X11826217Y-10547711D01*
X11826217Y-10547711D02*
X11816693Y-10557235D01*
X11816693Y-10557235D02*
X11807169Y-10576282D01*
X11988121Y-10461997D02*
X12111931Y-10461997D01*
X12111931Y-10461997D02*
X12045264Y-10538187D01*
X12045264Y-10538187D02*
X12073836Y-10538187D01*
X12073836Y-10538187D02*
X12092883Y-10547711D01*
X12092883Y-10547711D02*
X12102407Y-10557235D01*
X12102407Y-10557235D02*
X12111931Y-10576282D01*
X12111931Y-10576282D02*
X12111931Y-10623901D01*
X12111931Y-10623901D02*
X12102407Y-10642949D01*
X12102407Y-10642949D02*
X12092883Y-10652473D01*
X12092883Y-10652473D02*
X12073836Y-10661997D01*
X12073836Y-10661997D02*
X12016693Y-10661997D01*
X12016693Y-10661997D02*
X11997645Y-10652473D01*
X11997645Y-10652473D02*
X11988121Y-10642949D01*
X12188121Y-10461997D02*
X12188121Y-10500092D01*
X12264312Y-10461997D02*
X12264312Y-10500092D01*
X12559550Y-10738187D02*
X12550026Y-10728663D01*
X12550026Y-10728663D02*
X12530979Y-10700092D01*
X12530979Y-10700092D02*
X12521455Y-10681044D01*
X12521455Y-10681044D02*
X12511931Y-10652473D01*
X12511931Y-10652473D02*
X12502407Y-10604854D01*
X12502407Y-10604854D02*
X12502407Y-10566759D01*
X12502407Y-10566759D02*
X12511931Y-10519139D01*
X12511931Y-10519139D02*
X12521455Y-10490568D01*
X12521455Y-10490568D02*
X12530979Y-10471520D01*
X12530979Y-10471520D02*
X12550026Y-10442949D01*
X12550026Y-10442949D02*
X12559550Y-10433425D01*
X12721455Y-10528663D02*
X12721455Y-10661997D01*
X12673836Y-10452473D02*
X12626217Y-10595330D01*
X12626217Y-10595330D02*
X12750026Y-10595330D01*
X12978598Y-10661997D02*
X12978598Y-10461997D01*
X13064312Y-10661997D02*
X13064312Y-10557235D01*
X13064312Y-10557235D02*
X13054788Y-10538187D01*
X13054788Y-10538187D02*
X13035741Y-10528663D01*
X13035741Y-10528663D02*
X13007169Y-10528663D01*
X13007169Y-10528663D02*
X12988121Y-10538187D01*
X12988121Y-10538187D02*
X12978598Y-10547711D01*
X13188121Y-10661997D02*
X13169074Y-10652473D01*
X13169074Y-10652473D02*
X13159550Y-10642949D01*
X13159550Y-10642949D02*
X13150026Y-10623901D01*
X13150026Y-10623901D02*
X13150026Y-10566759D01*
X13150026Y-10566759D02*
X13159550Y-10547711D01*
X13159550Y-10547711D02*
X13169074Y-10538187D01*
X13169074Y-10538187D02*
X13188121Y-10528663D01*
X13188121Y-10528663D02*
X13216693Y-10528663D01*
X13216693Y-10528663D02*
X13235741Y-10538187D01*
X13235741Y-10538187D02*
X13245264Y-10547711D01*
X13245264Y-10547711D02*
X13254788Y-10566759D01*
X13254788Y-10566759D02*
X13254788Y-10623901D01*
X13254788Y-10623901D02*
X13245264Y-10642949D01*
X13245264Y-10642949D02*
X13235741Y-10652473D01*
X13235741Y-10652473D02*
X13216693Y-10661997D01*
X13216693Y-10661997D02*
X13188121Y-10661997D01*
X13369074Y-10661997D02*
X13350026Y-10652473D01*
X13350026Y-10652473D02*
X13340502Y-10633425D01*
X13340502Y-10633425D02*
X13340502Y-10461997D01*
X13521455Y-10652473D02*
X13502407Y-10661997D01*
X13502407Y-10661997D02*
X13464312Y-10661997D01*
X13464312Y-10661997D02*
X13445264Y-10652473D01*
X13445264Y-10652473D02*
X13435741Y-10633425D01*
X13435741Y-10633425D02*
X13435741Y-10557235D01*
X13435741Y-10557235D02*
X13445264Y-10538187D01*
X13445264Y-10538187D02*
X13464312Y-10528663D01*
X13464312Y-10528663D02*
X13502407Y-10528663D01*
X13502407Y-10528663D02*
X13521455Y-10538187D01*
X13521455Y-10538187D02*
X13530979Y-10557235D01*
X13530979Y-10557235D02*
X13530979Y-10576282D01*
X13530979Y-10576282D02*
X13435741Y-10595330D01*
X13607169Y-10652473D02*
X13626217Y-10661997D01*
X13626217Y-10661997D02*
X13664312Y-10661997D01*
X13664312Y-10661997D02*
X13683360Y-10652473D01*
X13683360Y-10652473D02*
X13692883Y-10633425D01*
X13692883Y-10633425D02*
X13692883Y-10623901D01*
X13692883Y-10623901D02*
X13683360Y-10604854D01*
X13683360Y-10604854D02*
X13664312Y-10595330D01*
X13664312Y-10595330D02*
X13635741Y-10595330D01*
X13635741Y-10595330D02*
X13616693Y-10585806D01*
X13616693Y-10585806D02*
X13607169Y-10566759D01*
X13607169Y-10566759D02*
X13607169Y-10557235D01*
X13607169Y-10557235D02*
X13616693Y-10538187D01*
X13616693Y-10538187D02*
X13635741Y-10528663D01*
X13635741Y-10528663D02*
X13664312Y-10528663D01*
X13664312Y-10528663D02*
X13683360Y-10538187D01*
X13759550Y-10738187D02*
X13769074Y-10728663D01*
X13769074Y-10728663D02*
X13788122Y-10700092D01*
X13788122Y-10700092D02*
X13797645Y-10681044D01*
X13797645Y-10681044D02*
X13807169Y-10652473D01*
X13807169Y-10652473D02*
X13816693Y-10604854D01*
X13816693Y-10604854D02*
X13816693Y-10566759D01*
X13816693Y-10566759D02*
X13807169Y-10519139D01*
X13807169Y-10519139D02*
X13797645Y-10490568D01*
X13797645Y-10490568D02*
X13788122Y-10471520D01*
X13788122Y-10471520D02*
X13769074Y-10442949D01*
X13769074Y-10442949D02*
X13759550Y-10433425D01*
X14121455Y-10738187D02*
X14111931Y-10728663D01*
X14111931Y-10728663D02*
X14092883Y-10700092D01*
X14092883Y-10700092D02*
X14083360Y-10681044D01*
X14083360Y-10681044D02*
X14073836Y-10652473D01*
X14073836Y-10652473D02*
X14064312Y-10604854D01*
X14064312Y-10604854D02*
X14064312Y-10566759D01*
X14064312Y-10566759D02*
X14073836Y-10519139D01*
X14073836Y-10519139D02*
X14083360Y-10490568D01*
X14083360Y-10490568D02*
X14092883Y-10471520D01*
X14092883Y-10471520D02*
X14111931Y-10442949D01*
X14111931Y-10442949D02*
X14121455Y-10433425D01*
X14197645Y-10528663D02*
X14197645Y-10661997D01*
X14197645Y-10547711D02*
X14207169Y-10538187D01*
X14207169Y-10538187D02*
X14226217Y-10528663D01*
X14226217Y-10528663D02*
X14254788Y-10528663D01*
X14254788Y-10528663D02*
X14273836Y-10538187D01*
X14273836Y-10538187D02*
X14283360Y-10557235D01*
X14283360Y-10557235D02*
X14283360Y-10661997D01*
X14407169Y-10661997D02*
X14388122Y-10652473D01*
X14388122Y-10652473D02*
X14378598Y-10642949D01*
X14378598Y-10642949D02*
X14369074Y-10623901D01*
X14369074Y-10623901D02*
X14369074Y-10566759D01*
X14369074Y-10566759D02*
X14378598Y-10547711D01*
X14378598Y-10547711D02*
X14388122Y-10538187D01*
X14388122Y-10538187D02*
X14407169Y-10528663D01*
X14407169Y-10528663D02*
X14435741Y-10528663D01*
X14435741Y-10528663D02*
X14454788Y-10538187D01*
X14454788Y-10538187D02*
X14464312Y-10547711D01*
X14464312Y-10547711D02*
X14473836Y-10566759D01*
X14473836Y-10566759D02*
X14473836Y-10623901D01*
X14473836Y-10623901D02*
X14464312Y-10642949D01*
X14464312Y-10642949D02*
X14454788Y-10652473D01*
X14454788Y-10652473D02*
X14435741Y-10661997D01*
X14435741Y-10661997D02*
X14407169Y-10661997D01*
X14530979Y-10528663D02*
X14607169Y-10528663D01*
X14559550Y-10461997D02*
X14559550Y-10633425D01*
X14559550Y-10633425D02*
X14569074Y-10652473D01*
X14569074Y-10652473D02*
X14588122Y-10661997D01*
X14588122Y-10661997D02*
X14607169Y-10661997D01*
X14826217Y-10528663D02*
X14826217Y-10728663D01*
X14826217Y-10538187D02*
X14845264Y-10528663D01*
X14845264Y-10528663D02*
X14883360Y-10528663D01*
X14883360Y-10528663D02*
X14902407Y-10538187D01*
X14902407Y-10538187D02*
X14911931Y-10547711D01*
X14911931Y-10547711D02*
X14921455Y-10566759D01*
X14921455Y-10566759D02*
X14921455Y-10623901D01*
X14921455Y-10623901D02*
X14911931Y-10642949D01*
X14911931Y-10642949D02*
X14902407Y-10652473D01*
X14902407Y-10652473D02*
X14883360Y-10661997D01*
X14883360Y-10661997D02*
X14845264Y-10661997D01*
X14845264Y-10661997D02*
X14826217Y-10652473D01*
X15035741Y-10661997D02*
X15016693Y-10652473D01*
X15016693Y-10652473D02*
X15007169Y-10633425D01*
X15007169Y-10633425D02*
X15007169Y-10461997D01*
X15197645Y-10661997D02*
X15197645Y-10557235D01*
X15197645Y-10557235D02*
X15188122Y-10538187D01*
X15188122Y-10538187D02*
X15169074Y-10528663D01*
X15169074Y-10528663D02*
X15130979Y-10528663D01*
X15130979Y-10528663D02*
X15111931Y-10538187D01*
X15197645Y-10652473D02*
X15178598Y-10661997D01*
X15178598Y-10661997D02*
X15130979Y-10661997D01*
X15130979Y-10661997D02*
X15111931Y-10652473D01*
X15111931Y-10652473D02*
X15102407Y-10633425D01*
X15102407Y-10633425D02*
X15102407Y-10614378D01*
X15102407Y-10614378D02*
X15111931Y-10595330D01*
X15111931Y-10595330D02*
X15130979Y-10585806D01*
X15130979Y-10585806D02*
X15178598Y-10585806D01*
X15178598Y-10585806D02*
X15197645Y-10576282D01*
X15264312Y-10528663D02*
X15340503Y-10528663D01*
X15292884Y-10461997D02*
X15292884Y-10633425D01*
X15292884Y-10633425D02*
X15302407Y-10652473D01*
X15302407Y-10652473D02*
X15321455Y-10661997D01*
X15321455Y-10661997D02*
X15340503Y-10661997D01*
X15483360Y-10652473D02*
X15464312Y-10661997D01*
X15464312Y-10661997D02*
X15426217Y-10661997D01*
X15426217Y-10661997D02*
X15407169Y-10652473D01*
X15407169Y-10652473D02*
X15397645Y-10633425D01*
X15397645Y-10633425D02*
X15397645Y-10557235D01*
X15397645Y-10557235D02*
X15407169Y-10538187D01*
X15407169Y-10538187D02*
X15426217Y-10528663D01*
X15426217Y-10528663D02*
X15464312Y-10528663D01*
X15464312Y-10528663D02*
X15483360Y-10538187D01*
X15483360Y-10538187D02*
X15492884Y-10557235D01*
X15492884Y-10557235D02*
X15492884Y-10576282D01*
X15492884Y-10576282D02*
X15397645Y-10595330D01*
X15664312Y-10661997D02*
X15664312Y-10461997D01*
X15664312Y-10652473D02*
X15645265Y-10661997D01*
X15645265Y-10661997D02*
X15607169Y-10661997D01*
X15607169Y-10661997D02*
X15588122Y-10652473D01*
X15588122Y-10652473D02*
X15578598Y-10642949D01*
X15578598Y-10642949D02*
X15569074Y-10623901D01*
X15569074Y-10623901D02*
X15569074Y-10566759D01*
X15569074Y-10566759D02*
X15578598Y-10547711D01*
X15578598Y-10547711D02*
X15588122Y-10538187D01*
X15588122Y-10538187D02*
X15607169Y-10528663D01*
X15607169Y-10528663D02*
X15645265Y-10528663D01*
X15645265Y-10528663D02*
X15664312Y-10538187D01*
X15740503Y-10738187D02*
X15750026Y-10728663D01*
X15750026Y-10728663D02*
X15769074Y-10700092D01*
X15769074Y-10700092D02*
X15778598Y-10681044D01*
X15778598Y-10681044D02*
X15788122Y-10652473D01*
X15788122Y-10652473D02*
X15797645Y-10604854D01*
X15797645Y-10604854D02*
X15797645Y-10566759D01*
X15797645Y-10566759D02*
X15788122Y-10519139D01*
X15788122Y-10519139D02*
X15778598Y-10490568D01*
X15778598Y-10490568D02*
X15769074Y-10471520D01*
X15769074Y-10471520D02*
X15750026Y-10442949D01*
X15750026Y-10442949D02*
X15740503Y-10433425D01*
M02*
