%TF.GenerationSoftware,KiCad,Pcbnew,8.0.1*%
%TF.CreationDate,2024-12-17T09:37:03-05:00*%
%TF.ProjectId,cm,636d2e6b-6963-4616-945f-706362585858,rev?*%
%TF.SameCoordinates,Original*%
%TF.FileFunction,Drillmap*%
%TF.FilePolarity,Positive*%
%FSLAX45Y45*%
G04 Gerber Fmt 4.5, Leading zero omitted, Abs format (unit mm)*
G04 Created by KiCad (PCBNEW 8.0.1) date 2024-12-17 09:37:03*
%MOMM*%
%LPD*%
G01*
G04 APERTURE LIST*
%ADD10C,0.050000*%
%ADD11C,0.200000*%
%ADD12C,0.100000*%
G04 APERTURE END LIST*
D10*
X9337013Y-9928013D02*
G75*
G02*
X8986997Y-9578000I-3J350013D01*
G01*
X14487000Y-6279000D02*
X14487000Y-9578000D01*
X14137000Y-9928013D02*
X9337013Y-9928013D01*
X8987000Y-9578000D02*
X8987000Y-6279000D01*
X14486995Y-9578000D02*
G75*
G02*
X14136994Y-9928006I-350006J0D01*
G01*
X14137000Y-5929000D02*
G75*
G02*
X14487020Y-6279018I0J-350020D01*
G01*
X9337040Y-5929000D02*
X14137040Y-5929000D01*
X8986987Y-6279013D02*
G75*
G02*
X9337000Y-5928997I350013J3D01*
G01*
D11*
D12*
X9164480Y-7320440D02*
X9184480Y-7340440D01*
X9184480Y-7320440D02*
X9164480Y-7340440D01*
X9164480Y-7376320D02*
X9184480Y-7396320D01*
X9184480Y-7376320D02*
X9164480Y-7396320D01*
X9164480Y-7432200D02*
X9184480Y-7452200D01*
X9184480Y-7432200D02*
X9164480Y-7452200D01*
X9167020Y-8166260D02*
X9187020Y-8186260D01*
X9187020Y-8166260D02*
X9167020Y-8186260D01*
X9167020Y-8222140D02*
X9187020Y-8242140D01*
X9187020Y-8222140D02*
X9167020Y-8242140D01*
X9167020Y-8278020D02*
X9187020Y-8298020D01*
X9187020Y-8278020D02*
X9167020Y-8298020D01*
X9167020Y-9121300D02*
X9187020Y-9141300D01*
X9187020Y-9121300D02*
X9167020Y-9141300D01*
X9167020Y-9177180D02*
X9187020Y-9197180D01*
X9187020Y-9177180D02*
X9167020Y-9197180D01*
X9167020Y-9233060D02*
X9187020Y-9253060D01*
X9187020Y-9233060D02*
X9167020Y-9253060D01*
X9225440Y-7320440D02*
X9245440Y-7340440D01*
X9245440Y-7320440D02*
X9225440Y-7340440D01*
X9225440Y-7376320D02*
X9245440Y-7396320D01*
X9245440Y-7376320D02*
X9225440Y-7396320D01*
X9225440Y-7432200D02*
X9245440Y-7452200D01*
X9245440Y-7432200D02*
X9225440Y-7452200D01*
X9227980Y-8166260D02*
X9247980Y-8186260D01*
X9247980Y-8166260D02*
X9227980Y-8186260D01*
X9227980Y-8222140D02*
X9247980Y-8242140D01*
X9247980Y-8222140D02*
X9227980Y-8242140D01*
X9227980Y-8278020D02*
X9247980Y-8298020D01*
X9247980Y-8278020D02*
X9227980Y-8298020D01*
X9227980Y-9121300D02*
X9247980Y-9141300D01*
X9247980Y-9121300D02*
X9227980Y-9141300D01*
X9227980Y-9177180D02*
X9247980Y-9197180D01*
X9247980Y-9177180D02*
X9227980Y-9197180D01*
X9227980Y-9233060D02*
X9247980Y-9253060D01*
X9247980Y-9233060D02*
X9227980Y-9253060D01*
X9286400Y-7320440D02*
X9306400Y-7340440D01*
X9306400Y-7320440D02*
X9286400Y-7340440D01*
X9286400Y-7376320D02*
X9306400Y-7396320D01*
X9306400Y-7376320D02*
X9286400Y-7396320D01*
X9286400Y-7432200D02*
X9306400Y-7452200D01*
X9306400Y-7432200D02*
X9286400Y-7452200D01*
X9288940Y-8166260D02*
X9308940Y-8186260D01*
X9308940Y-8166260D02*
X9288940Y-8186260D01*
X9288940Y-8222140D02*
X9308940Y-8242140D01*
X9308940Y-8222140D02*
X9288940Y-8242140D01*
X9288940Y-8278020D02*
X9308940Y-8298020D01*
X9308940Y-8278020D02*
X9288940Y-8298020D01*
X9288940Y-9121300D02*
X9308940Y-9141300D01*
X9308940Y-9121300D02*
X9288940Y-9141300D01*
X9288940Y-9177180D02*
X9308940Y-9197180D01*
X9308940Y-9177180D02*
X9288940Y-9197180D01*
X9288940Y-9233060D02*
X9308940Y-9253060D01*
X9308940Y-9233060D02*
X9288940Y-9253060D01*
X9799480Y-6619400D02*
X9819480Y-6639400D01*
X9819480Y-6619400D02*
X9799480Y-6639400D01*
X9802020Y-6934360D02*
X9822020Y-6954360D01*
X9822020Y-6934360D02*
X9802020Y-6954360D01*
X9802020Y-7576980D02*
X9822020Y-7596980D01*
X9822020Y-7576980D02*
X9802020Y-7596980D01*
X9802526Y-7889400D02*
X9822526Y-7909400D01*
X9822526Y-7889400D02*
X9802526Y-7909400D01*
X9802526Y-8683985D02*
X9822526Y-8703985D01*
X9822526Y-8683985D02*
X9802526Y-8703985D01*
X9809640Y-8374540D02*
X9829640Y-8394540D01*
X9829640Y-8374540D02*
X9809640Y-8394540D01*
X9869020Y-6933360D02*
X9889020Y-6953360D01*
X9889020Y-6933360D02*
X9869020Y-6953360D01*
X9869526Y-7888400D02*
X9889526Y-7908400D01*
X9889526Y-7888400D02*
X9869526Y-7908400D01*
X9869526Y-8682985D02*
X9889526Y-8702985D01*
X9889526Y-8682985D02*
X9869526Y-8702985D01*
X9906160Y-6835300D02*
X9926160Y-6855300D01*
X9926160Y-6835300D02*
X9906160Y-6855300D01*
X9906160Y-7787800D02*
X9926160Y-7807800D01*
X9926160Y-7787800D02*
X9906160Y-7807800D01*
X9908194Y-6728620D02*
X9928194Y-6748620D01*
X9928194Y-6728620D02*
X9908194Y-6748620D01*
X9908194Y-6781960D02*
X9928194Y-6801960D01*
X9928194Y-6781960D02*
X9908194Y-6801960D01*
X9908700Y-7683660D02*
X9928700Y-7703660D01*
X9928700Y-7683660D02*
X9908700Y-7703660D01*
X9908700Y-7737000D02*
X9928700Y-7757000D01*
X9928700Y-7737000D02*
X9908700Y-7757000D01*
X9908700Y-8430420D02*
X9928700Y-8450420D01*
X9928700Y-8430420D02*
X9908700Y-8450420D01*
X9908700Y-8481220D02*
X9928700Y-8501220D01*
X9928700Y-8481220D02*
X9908700Y-8501220D01*
X9908700Y-8532020D02*
X9928700Y-8552020D01*
X9928700Y-8532020D02*
X9908700Y-8552020D01*
X9908700Y-8582820D02*
X9928700Y-8602820D01*
X9928700Y-8582820D02*
X9908700Y-8602820D01*
X9910734Y-6672740D02*
X9930734Y-6692740D01*
X9930734Y-6672740D02*
X9910734Y-6692740D01*
X9911240Y-7630320D02*
X9931240Y-7650320D01*
X9931240Y-7630320D02*
X9911240Y-7650320D01*
X9944020Y-6934360D02*
X9964020Y-6954360D01*
X9964020Y-6934360D02*
X9944020Y-6954360D01*
X9944526Y-7889400D02*
X9964526Y-7909400D01*
X9964526Y-7889400D02*
X9944526Y-7909400D01*
X9944526Y-8683985D02*
X9964526Y-8703985D01*
X9964526Y-8683985D02*
X9944526Y-8703985D01*
X10006020Y-6934360D02*
X10026020Y-6954360D01*
X10026020Y-6934360D02*
X10006020Y-6954360D01*
X10006526Y-7889400D02*
X10026526Y-7909400D01*
X10026526Y-7889400D02*
X10006526Y-7909400D01*
X10006526Y-8683985D02*
X10026526Y-8703985D01*
X10026526Y-8683985D02*
X10006526Y-8703985D01*
X10012840Y-6624480D02*
X10032840Y-6644480D01*
X10032840Y-6624480D02*
X10012840Y-6644480D01*
X10012840Y-7576980D02*
X10032840Y-7596980D01*
X10032840Y-7576980D02*
X10012840Y-7596980D01*
X10012840Y-8374540D02*
X10032840Y-8394540D01*
X10032840Y-8374540D02*
X10012840Y-8394540D01*
X10092720Y-5989480D02*
X10112720Y-6009480D01*
X10112720Y-5989480D02*
X10092720Y-6009480D01*
X10302400Y-9321960D02*
X10322400Y-9341960D01*
X10322400Y-9321960D02*
X10302400Y-9341960D01*
X10304940Y-9405780D02*
X10324940Y-9425780D01*
X10324940Y-9405780D02*
X10304940Y-9425780D01*
X10312560Y-9593460D02*
X10332560Y-9613460D01*
X10332560Y-9593460D02*
X10312560Y-9613460D01*
X10312560Y-9675020D02*
X10332560Y-9695020D01*
X10332560Y-9675020D02*
X10312560Y-9695020D01*
X10381140Y-9283860D02*
X10401140Y-9303860D01*
X10401140Y-9283860D02*
X10381140Y-9303860D01*
X10383680Y-9365140D02*
X10403680Y-9385140D01*
X10403680Y-9365140D02*
X10383680Y-9385140D01*
X10383680Y-9555640D02*
X10403680Y-9575640D01*
X10403680Y-9555640D02*
X10383680Y-9575640D01*
X10383680Y-9631280D02*
X10403680Y-9651280D01*
X10403680Y-9631280D02*
X10383680Y-9651280D01*
X10386220Y-7013100D02*
X10406220Y-7033100D01*
X10406220Y-7013100D02*
X10386220Y-7033100D01*
X10387160Y-7932580D02*
X10407160Y-7952580D01*
X10407160Y-7932580D02*
X10387160Y-7952580D01*
X10387160Y-8747920D02*
X10407160Y-8767920D01*
X10407160Y-8747920D02*
X10387160Y-8767920D01*
X10495000Y-9835000D02*
X10515000Y-9855000D01*
X10515000Y-9835000D02*
X10495000Y-9855000D01*
X10497980Y-6433980D02*
X10517980Y-6453980D01*
X10517980Y-6433980D02*
X10497980Y-6453980D01*
X10536743Y-9686743D02*
X10556743Y-9706743D01*
X10556743Y-9686743D02*
X10536743Y-9706743D01*
X10538620Y-6461920D02*
X10558620Y-6481920D01*
X10558620Y-6461920D02*
X10538620Y-6481920D01*
X10575000Y-9835000D02*
X10595000Y-9855000D01*
X10595000Y-9835000D02*
X10575000Y-9855000D01*
X10577086Y-6433712D02*
X10597086Y-6453712D01*
X10597086Y-6433712D02*
X10577086Y-6453712D01*
X10587180Y-6275000D02*
X10607180Y-6295000D01*
X10607180Y-6275000D02*
X10587180Y-6295000D01*
X10602120Y-8176420D02*
X10622120Y-8196420D01*
X10622120Y-8176420D02*
X10602120Y-8196420D01*
X10615000Y-9685000D02*
X10635000Y-9705000D01*
X10635000Y-9685000D02*
X10615000Y-9705000D01*
X10617360Y-6464460D02*
X10637360Y-6484460D01*
X10637360Y-6464460D02*
X10617360Y-6484460D01*
X10655000Y-9835000D02*
X10675000Y-9855000D01*
X10675000Y-9835000D02*
X10655000Y-9855000D01*
X10658000Y-6433980D02*
X10678000Y-6453980D01*
X10678000Y-6433980D02*
X10658000Y-6453980D01*
X10695000Y-9685000D02*
X10715000Y-9705000D01*
X10715000Y-9685000D02*
X10695000Y-9705000D01*
X10696100Y-6467000D02*
X10716100Y-6487000D01*
X10716100Y-6467000D02*
X10696100Y-6487000D01*
X10698640Y-8176420D02*
X10718640Y-8196420D01*
X10718640Y-8176420D02*
X10698640Y-8196420D01*
X10737000Y-6157380D02*
X10757000Y-6177380D01*
X10757000Y-6157380D02*
X10737000Y-6177380D01*
X10740000Y-9835000D02*
X10760000Y-9855000D01*
X10760000Y-9835000D02*
X10740000Y-9855000D01*
X10775000Y-9685000D02*
X10795000Y-9705000D01*
X10795000Y-9685000D02*
X10775000Y-9705000D01*
X10777000Y-6290000D02*
X10797000Y-6310000D01*
X10797000Y-6290000D02*
X10777000Y-6310000D01*
X10777380Y-6002180D02*
X10797380Y-6022180D01*
X10797380Y-6002180D02*
X10777380Y-6022180D01*
X10792620Y-8176420D02*
X10812620Y-8196420D01*
X10812620Y-8176420D02*
X10792620Y-8196420D01*
X10817000Y-6158640D02*
X10837000Y-6178640D01*
X10837000Y-6158640D02*
X10817000Y-6178640D01*
X10817437Y-6261260D02*
X10837437Y-6281260D01*
X10837437Y-6261260D02*
X10817437Y-6281260D01*
X10855000Y-9835000D02*
X10875000Y-9855000D01*
X10875000Y-9835000D02*
X10855000Y-9855000D01*
X10856120Y-6002180D02*
X10876120Y-6022180D01*
X10876120Y-6002180D02*
X10856120Y-6022180D01*
X10856120Y-9585000D02*
X10876120Y-9605000D01*
X10876120Y-9585000D02*
X10856120Y-9605000D01*
X10857071Y-6290259D02*
X10877071Y-6310259D01*
X10877071Y-6290259D02*
X10857071Y-6310259D01*
X10895000Y-9685000D02*
X10915000Y-9705000D01*
X10915000Y-9685000D02*
X10895000Y-9705000D01*
X10896394Y-6260992D02*
X10916394Y-6280992D01*
X10916394Y-6260992D02*
X10896394Y-6280992D01*
X10897000Y-6159420D02*
X10917000Y-6179420D01*
X10917000Y-6159420D02*
X10897000Y-6179420D01*
X10934860Y-6289200D02*
X10954860Y-6309200D01*
X10954860Y-6289200D02*
X10934860Y-6309200D01*
X10937400Y-6004720D02*
X10957400Y-6024720D01*
X10957400Y-6004720D02*
X10937400Y-6024720D01*
X10945000Y-9862413D02*
X10965000Y-9882413D01*
X10965000Y-9862413D02*
X10945000Y-9882413D01*
X10960260Y-9316880D02*
X10980260Y-9336880D01*
X10980260Y-9316880D02*
X10960260Y-9336880D01*
X10978040Y-6159660D02*
X10998040Y-6179660D01*
X10998040Y-6159660D02*
X10978040Y-6179660D01*
X10978040Y-6261260D02*
X10998040Y-6281260D01*
X10998040Y-6261260D02*
X10978040Y-6281260D01*
X11011060Y-8095140D02*
X11031060Y-8115140D01*
X11031060Y-8095140D02*
X11011060Y-8115140D01*
X11015848Y-6290343D02*
X11035848Y-6310343D01*
X11035848Y-6290343D02*
X11015848Y-6310343D01*
X11016140Y-6004720D02*
X11036140Y-6024720D01*
X11036140Y-6004720D02*
X11016140Y-6024720D01*
X11021220Y-8918100D02*
X11041220Y-8938100D01*
X11041220Y-8918100D02*
X11021220Y-8938100D01*
X11023760Y-7543960D02*
X11043760Y-7563960D01*
X11043760Y-7543960D02*
X11023760Y-7563960D01*
X11056780Y-6159660D02*
X11076780Y-6179660D01*
X11076780Y-6159660D02*
X11056780Y-6179660D01*
X11056780Y-6261260D02*
X11076780Y-6281260D01*
X11076780Y-6261260D02*
X11056780Y-6281260D01*
X11061860Y-8862220D02*
X11081860Y-8882220D01*
X11081860Y-8862220D02*
X11061860Y-8882220D01*
X11094880Y-6291740D02*
X11114880Y-6311740D01*
X11114880Y-6291740D02*
X11094880Y-6311740D01*
X11097420Y-6004720D02*
X11117420Y-6024720D01*
X11117420Y-6004720D02*
X11097420Y-6024720D01*
X11097420Y-7135020D02*
X11117420Y-7155020D01*
X11117420Y-7135020D02*
X11097420Y-7155020D01*
X11099960Y-7223920D02*
X11119960Y-7243920D01*
X11119960Y-7223920D02*
X11099960Y-7243920D01*
X11099960Y-7297580D02*
X11119960Y-7317580D01*
X11119960Y-7297580D02*
X11099960Y-7317580D01*
X11099960Y-7381400D02*
X11119960Y-7401400D01*
X11119960Y-7381400D02*
X11099960Y-7401400D01*
X11099960Y-7460140D02*
X11119960Y-7480140D01*
X11119960Y-7460140D02*
X11099960Y-7480140D01*
X11099960Y-7698900D02*
X11119960Y-7718900D01*
X11119960Y-7698900D02*
X11099960Y-7718900D01*
X11099960Y-7777640D02*
X11119960Y-7797640D01*
X11119960Y-7777640D02*
X11099960Y-7797640D01*
X11099960Y-7856380D02*
X11119960Y-7876380D01*
X11119960Y-7856380D02*
X11099960Y-7876380D01*
X11099960Y-7937660D02*
X11119960Y-7957660D01*
X11119960Y-7937660D02*
X11099960Y-7957660D01*
X11099960Y-8018940D02*
X11119960Y-8038940D01*
X11119960Y-8018940D02*
X11099960Y-8038940D01*
X11099960Y-8178960D02*
X11119960Y-8198960D01*
X11119960Y-8178960D02*
X11099960Y-8198960D01*
X11099960Y-8918100D02*
X11119960Y-8938100D01*
X11119960Y-8918100D02*
X11099960Y-8938100D01*
X11101957Y-7618957D02*
X11121957Y-7638957D01*
X11121957Y-7618957D02*
X11101957Y-7638957D01*
X11135520Y-6261260D02*
X11155520Y-6281260D01*
X11155520Y-6261260D02*
X11135520Y-6281260D01*
X11138060Y-6159660D02*
X11158060Y-6179660D01*
X11158060Y-6159660D02*
X11138060Y-6179660D01*
X11140600Y-8867300D02*
X11160600Y-8887300D01*
X11160600Y-8867300D02*
X11140600Y-8887300D01*
X11174060Y-6291300D02*
X11194060Y-6311300D01*
X11194060Y-6291300D02*
X11174060Y-6311300D01*
X11176160Y-6004720D02*
X11196160Y-6024720D01*
X11196160Y-6004720D02*
X11176160Y-6024720D01*
X11178700Y-8920640D02*
X11198700Y-8940640D01*
X11198700Y-8920640D02*
X11178700Y-8940640D01*
X11181240Y-7137560D02*
X11201240Y-7157560D01*
X11201240Y-7137560D02*
X11181240Y-7157560D01*
X11181240Y-7218840D02*
X11201240Y-7238840D01*
X11201240Y-7218840D02*
X11181240Y-7238840D01*
X11181240Y-7300120D02*
X11201240Y-7320120D01*
X11201240Y-7300120D02*
X11181240Y-7320120D01*
X11181240Y-7378860D02*
X11201240Y-7398860D01*
X11201240Y-7378860D02*
X11181240Y-7398860D01*
X11181240Y-7457600D02*
X11201240Y-7477600D01*
X11201240Y-7457600D02*
X11181240Y-7477600D01*
X11181240Y-7617620D02*
X11201240Y-7637620D01*
X11201240Y-7617620D02*
X11181240Y-7637620D01*
X11181240Y-7698900D02*
X11201240Y-7718900D01*
X11201240Y-7698900D02*
X11181240Y-7718900D01*
X11181240Y-7780180D02*
X11201240Y-7800180D01*
X11201240Y-7780180D02*
X11181240Y-7800180D01*
X11181240Y-7861460D02*
X11201240Y-7881460D01*
X11201240Y-7861460D02*
X11181240Y-7881460D01*
X11181240Y-7940200D02*
X11201240Y-7960200D01*
X11201240Y-7940200D02*
X11181240Y-7960200D01*
X11181240Y-8018940D02*
X11201240Y-8038940D01*
X11201240Y-8018940D02*
X11181240Y-8038940D01*
X11181240Y-8178960D02*
X11201240Y-8198960D01*
X11201240Y-8178960D02*
X11181240Y-8198960D01*
X11181240Y-8338980D02*
X11201240Y-8358980D01*
X11201240Y-8338980D02*
X11181240Y-8358980D01*
X11181240Y-8420260D02*
X11201240Y-8440260D01*
X11201240Y-8420260D02*
X11181240Y-8440260D01*
X11183780Y-8257700D02*
X11203780Y-8277700D01*
X11203780Y-8257700D02*
X11183780Y-8277700D01*
X11215211Y-6257661D02*
X11235211Y-6277661D01*
X11235211Y-6257661D02*
X11215211Y-6277661D01*
X11216800Y-6159660D02*
X11236800Y-6179660D01*
X11236800Y-6159660D02*
X11216800Y-6179660D01*
X11221880Y-8867300D02*
X11241880Y-8887300D01*
X11241880Y-8867300D02*
X11221880Y-8887300D01*
X11254900Y-6284120D02*
X11274900Y-6304120D01*
X11274900Y-6284120D02*
X11254900Y-6304120D01*
X11257440Y-6004720D02*
X11277440Y-6024720D01*
X11277440Y-6004720D02*
X11257440Y-6024720D01*
X11262520Y-7297580D02*
X11282520Y-7317580D01*
X11282520Y-7297580D02*
X11262520Y-7317580D01*
X11262520Y-7378860D02*
X11282520Y-7398860D01*
X11282520Y-7378860D02*
X11262520Y-7398860D01*
X11262520Y-7460140D02*
X11282520Y-7480140D01*
X11282520Y-7460140D02*
X11262520Y-7480140D01*
X11262520Y-7536340D02*
X11282520Y-7556340D01*
X11282520Y-7536340D02*
X11262520Y-7556340D01*
X11262520Y-7617620D02*
X11282520Y-7637620D01*
X11282520Y-7617620D02*
X11262520Y-7637620D01*
X11262520Y-7698900D02*
X11282520Y-7718900D01*
X11282520Y-7698900D02*
X11262520Y-7718900D01*
X11262520Y-7777640D02*
X11282520Y-7797640D01*
X11282520Y-7777640D02*
X11262520Y-7797640D01*
X11262520Y-7858920D02*
X11282520Y-7878920D01*
X11282520Y-7858920D02*
X11262520Y-7878920D01*
X11262520Y-7937660D02*
X11282520Y-7957660D01*
X11282520Y-7937660D02*
X11262520Y-7957660D01*
X11262520Y-8018940D02*
X11282520Y-8038940D01*
X11282520Y-8018940D02*
X11262520Y-8038940D01*
X11262520Y-8097680D02*
X11282520Y-8117680D01*
X11282520Y-8097680D02*
X11262520Y-8117680D01*
X11262520Y-8178960D02*
X11282520Y-8198960D01*
X11282520Y-8178960D02*
X11262520Y-8198960D01*
X11262520Y-8257700D02*
X11282520Y-8277700D01*
X11282520Y-8257700D02*
X11262520Y-8277700D01*
X11262520Y-8338980D02*
X11282520Y-8358980D01*
X11282520Y-8338980D02*
X11262520Y-8358980D01*
X11262520Y-8417720D02*
X11282520Y-8437720D01*
X11282520Y-8417720D02*
X11262520Y-8437720D01*
X11262520Y-8580280D02*
X11282520Y-8600280D01*
X11282520Y-8580280D02*
X11262520Y-8600280D01*
X11262800Y-7135000D02*
X11282800Y-7155000D01*
X11282800Y-7135000D02*
X11262800Y-7155000D01*
X11279550Y-9860281D02*
X11299550Y-9880281D01*
X11299550Y-9860281D02*
X11279550Y-9880281D01*
X11295000Y-9685000D02*
X11315000Y-9705000D01*
X11315000Y-9685000D02*
X11295000Y-9705000D01*
X11295540Y-6258720D02*
X11315540Y-6278720D01*
X11315540Y-6258720D02*
X11295540Y-6278720D01*
X11300620Y-8920640D02*
X11320620Y-8940640D01*
X11320620Y-8920640D02*
X11300620Y-8940640D01*
X11315000Y-6005000D02*
X11335000Y-6025000D01*
X11335000Y-6005000D02*
X11315000Y-6025000D01*
X11320000Y-9835000D02*
X11340000Y-9855000D01*
X11340000Y-9835000D02*
X11320000Y-9855000D01*
X11336180Y-6286660D02*
X11356180Y-6306660D01*
X11356180Y-6286660D02*
X11336180Y-6306660D01*
X11338720Y-6156130D02*
X11358720Y-6176130D01*
X11358720Y-6156130D02*
X11338720Y-6176130D01*
X11340000Y-9580000D02*
X11360000Y-9600000D01*
X11360000Y-9580000D02*
X11340000Y-9600000D01*
X11341260Y-7457600D02*
X11361260Y-7477600D01*
X11361260Y-7457600D02*
X11341260Y-7477600D01*
X11341260Y-7536340D02*
X11361260Y-7556340D01*
X11361260Y-7536340D02*
X11341260Y-7556340D01*
X11341260Y-7617620D02*
X11361260Y-7637620D01*
X11361260Y-7617620D02*
X11341260Y-7637620D01*
X11341260Y-7698900D02*
X11361260Y-7718900D01*
X11361260Y-7698900D02*
X11341260Y-7718900D01*
X11341260Y-7777640D02*
X11361260Y-7797640D01*
X11361260Y-7777640D02*
X11341260Y-7797640D01*
X11341260Y-7858920D02*
X11361260Y-7878920D01*
X11361260Y-7858920D02*
X11341260Y-7878920D01*
X11341260Y-8257700D02*
X11361260Y-8277700D01*
X11361260Y-8257700D02*
X11341260Y-8277700D01*
X11341260Y-8336440D02*
X11361260Y-8356440D01*
X11361260Y-8336440D02*
X11341260Y-8356440D01*
X11341260Y-8420260D02*
X11361260Y-8440260D01*
X11361260Y-8420260D02*
X11341260Y-8440260D01*
X11341260Y-8577740D02*
X11361260Y-8597740D01*
X11361260Y-8577740D02*
X11341260Y-8597740D01*
X11343800Y-7937660D02*
X11363800Y-7957660D01*
X11363800Y-7937660D02*
X11343800Y-7957660D01*
X11343800Y-8018940D02*
X11363800Y-8038940D01*
X11363800Y-8018940D02*
X11343800Y-8038940D01*
X11343800Y-8097680D02*
X11363800Y-8117680D01*
X11363800Y-8097680D02*
X11343800Y-8117680D01*
X11343800Y-8178960D02*
X11363800Y-8198960D01*
X11363800Y-8178960D02*
X11343800Y-8198960D01*
X11375000Y-6005000D02*
X11395000Y-6025000D01*
X11395000Y-6005000D02*
X11375000Y-6025000D01*
X11381900Y-8867300D02*
X11401900Y-8887300D01*
X11401900Y-8867300D02*
X11381900Y-8887300D01*
X11385000Y-9835000D02*
X11405000Y-9855000D01*
X11405000Y-9835000D02*
X11385000Y-9855000D01*
X11417460Y-6157120D02*
X11437460Y-6177120D01*
X11437460Y-6157120D02*
X11417460Y-6177120D01*
X11420000Y-7140000D02*
X11440000Y-7160000D01*
X11440000Y-7140000D02*
X11420000Y-7160000D01*
X11420000Y-7220000D02*
X11440000Y-7240000D01*
X11440000Y-7220000D02*
X11420000Y-7240000D01*
X11420000Y-7297580D02*
X11440000Y-7317580D01*
X11440000Y-7297580D02*
X11420000Y-7317580D01*
X11420000Y-7777640D02*
X11440000Y-7797640D01*
X11440000Y-7777640D02*
X11420000Y-7797640D01*
X11420000Y-9580000D02*
X11440000Y-9600000D01*
X11440000Y-9580000D02*
X11420000Y-9600000D01*
X11422540Y-7538880D02*
X11442540Y-7558880D01*
X11442540Y-7538880D02*
X11422540Y-7558880D01*
X11422540Y-7617620D02*
X11442540Y-7637620D01*
X11442540Y-7617620D02*
X11422540Y-7637620D01*
X11422540Y-7858920D02*
X11442540Y-7878920D01*
X11442540Y-7858920D02*
X11422540Y-7878920D01*
X11422540Y-7937660D02*
X11442540Y-7957660D01*
X11442540Y-7937660D02*
X11422540Y-7957660D01*
X11422540Y-8016400D02*
X11442540Y-8036400D01*
X11442540Y-8016400D02*
X11422540Y-8036400D01*
X11422540Y-8097680D02*
X11442540Y-8117680D01*
X11442540Y-8097680D02*
X11422540Y-8117680D01*
X11422540Y-8257700D02*
X11442540Y-8277700D01*
X11442540Y-8257700D02*
X11422540Y-8277700D01*
X11422540Y-8338980D02*
X11442540Y-8358980D01*
X11442540Y-8338980D02*
X11422540Y-8358980D01*
X11422540Y-8417720D02*
X11442540Y-8437720D01*
X11442540Y-8417720D02*
X11422540Y-8437720D01*
X11422540Y-8580280D02*
X11442540Y-8600280D01*
X11442540Y-8580280D02*
X11422540Y-8600280D01*
X11425080Y-8182080D02*
X11445080Y-8202080D01*
X11445080Y-8182080D02*
X11425080Y-8202080D01*
X11433970Y-6003450D02*
X11453970Y-6023450D01*
X11453970Y-6003450D02*
X11433970Y-6023450D01*
X11455000Y-9685000D02*
X11475000Y-9705000D01*
X11475000Y-9685000D02*
X11455000Y-9705000D01*
X11455000Y-9835000D02*
X11475000Y-9855000D01*
X11475000Y-9835000D02*
X11455000Y-9855000D01*
X11460640Y-8920640D02*
X11480640Y-8940640D01*
X11480640Y-8920640D02*
X11460640Y-8940640D01*
X11497000Y-6004720D02*
X11517000Y-6024720D01*
X11517000Y-6004720D02*
X11497000Y-6024720D01*
X11498740Y-7617620D02*
X11518740Y-7637620D01*
X11518740Y-7617620D02*
X11498740Y-7637620D01*
X11500000Y-7540000D02*
X11520000Y-7560000D01*
X11520000Y-7540000D02*
X11500000Y-7560000D01*
X11501280Y-7140100D02*
X11521280Y-7160100D01*
X11521280Y-7140100D02*
X11501280Y-7160100D01*
X11501280Y-7221380D02*
X11521280Y-7241380D01*
X11521280Y-7221380D02*
X11501280Y-7241380D01*
X11501280Y-8338980D02*
X11521280Y-8358980D01*
X11521280Y-8338980D02*
X11501280Y-8358980D01*
X11501280Y-8417720D02*
X11521280Y-8437720D01*
X11521280Y-8417720D02*
X11501280Y-8437720D01*
X11501280Y-8580280D02*
X11521280Y-8600280D01*
X11521280Y-8580280D02*
X11501280Y-8600280D01*
X11503820Y-7300120D02*
X11523820Y-7320120D01*
X11523820Y-7300120D02*
X11503820Y-7320120D01*
X11503820Y-7780180D02*
X11523820Y-7800180D01*
X11523820Y-7780180D02*
X11503820Y-7800180D01*
X11503820Y-7858920D02*
X11523820Y-7878920D01*
X11523820Y-7858920D02*
X11503820Y-7878920D01*
X11503820Y-7940200D02*
X11523820Y-7960200D01*
X11523820Y-7940200D02*
X11503820Y-7960200D01*
X11503820Y-8257700D02*
X11523820Y-8277700D01*
X11523820Y-8257700D02*
X11503820Y-8277700D01*
X11505000Y-8100000D02*
X11525000Y-8120000D01*
X11525000Y-8100000D02*
X11505000Y-8120000D01*
X11536663Y-6157836D02*
X11556663Y-6177836D01*
X11556663Y-6157836D02*
X11536663Y-6177836D01*
X11541920Y-8867300D02*
X11561920Y-8887300D01*
X11561920Y-8867300D02*
X11541920Y-8887300D01*
X11577480Y-6004720D02*
X11597480Y-6024720D01*
X11597480Y-6004720D02*
X11577480Y-6024720D01*
X11580000Y-7220000D02*
X11600000Y-7240000D01*
X11600000Y-7220000D02*
X11580000Y-7240000D01*
X11580000Y-7300000D02*
X11600000Y-7320000D01*
X11600000Y-7300000D02*
X11580000Y-7320000D01*
X11580000Y-7380000D02*
X11600000Y-7400000D01*
X11600000Y-7380000D02*
X11580000Y-7400000D01*
X11580000Y-7935000D02*
X11600000Y-7955000D01*
X11600000Y-7935000D02*
X11580000Y-7955000D01*
X11580000Y-8020000D02*
X11600000Y-8040000D01*
X11600000Y-8020000D02*
X11580000Y-8040000D01*
X11580020Y-7137560D02*
X11600020Y-7157560D01*
X11600020Y-7137560D02*
X11580020Y-7157560D01*
X11580020Y-7538880D02*
X11600020Y-7558880D01*
X11600020Y-7538880D02*
X11580020Y-7558880D01*
X11582560Y-8178960D02*
X11602560Y-8198960D01*
X11602560Y-8178960D02*
X11582560Y-8198960D01*
X11582560Y-8260240D02*
X11602560Y-8280240D01*
X11602560Y-8260240D02*
X11582560Y-8280240D01*
X11582560Y-8577740D02*
X11602560Y-8597740D01*
X11602560Y-8577740D02*
X11582560Y-8597740D01*
X11618120Y-6157120D02*
X11638120Y-6177120D01*
X11638120Y-6157120D02*
X11618120Y-6177120D01*
X11625740Y-9182260D02*
X11645740Y-9202260D01*
X11645740Y-9182260D02*
X11625740Y-9202260D01*
X11658760Y-6004720D02*
X11678760Y-6024720D01*
X11678760Y-6004720D02*
X11658760Y-6024720D01*
X11660000Y-7220000D02*
X11680000Y-7240000D01*
X11680000Y-7220000D02*
X11660000Y-7240000D01*
X11661300Y-7140000D02*
X11681300Y-7160000D01*
X11681300Y-7140000D02*
X11661300Y-7160000D01*
X11661300Y-7379700D02*
X11681300Y-7399700D01*
X11681300Y-7379700D02*
X11661300Y-7399700D01*
X11661300Y-8580280D02*
X11681300Y-8600280D01*
X11681300Y-8580280D02*
X11661300Y-8600280D01*
X11663840Y-7538880D02*
X11683840Y-7558880D01*
X11683840Y-7538880D02*
X11663840Y-7558880D01*
X11665000Y-8420000D02*
X11685000Y-8440000D01*
X11685000Y-8420000D02*
X11665000Y-8440000D01*
X11665000Y-8500000D02*
X11685000Y-8520000D01*
X11685000Y-8500000D02*
X11665000Y-8520000D01*
X11674000Y-8867300D02*
X11694000Y-8887300D01*
X11694000Y-8867300D02*
X11674000Y-8887300D01*
X11695310Y-6162200D02*
X11715310Y-6182200D01*
X11715310Y-6162200D02*
X11695310Y-6182200D01*
X11737500Y-6004720D02*
X11757500Y-6024720D01*
X11757500Y-6004720D02*
X11737500Y-6024720D01*
X11740040Y-7858920D02*
X11760040Y-7878920D01*
X11760040Y-7858920D02*
X11740040Y-7878920D01*
X11740040Y-8018940D02*
X11760040Y-8038940D01*
X11760040Y-8018940D02*
X11740040Y-8038940D01*
X11740040Y-8499000D02*
X11760040Y-8519000D01*
X11760040Y-8499000D02*
X11740040Y-8519000D01*
X11740040Y-8577740D02*
X11760040Y-8597740D01*
X11760040Y-8577740D02*
X11740040Y-8597740D01*
X11742580Y-7140100D02*
X11762580Y-7160100D01*
X11762580Y-7140100D02*
X11742580Y-7160100D01*
X11742580Y-7221380D02*
X11762580Y-7241380D01*
X11762580Y-7221380D02*
X11742580Y-7241380D01*
X11742580Y-7300120D02*
X11762580Y-7320120D01*
X11762580Y-7300120D02*
X11742580Y-7320120D01*
X11742580Y-7378860D02*
X11762580Y-7398860D01*
X11762580Y-7378860D02*
X11742580Y-7398860D01*
X11742580Y-7538880D02*
X11762580Y-7558880D01*
X11762580Y-7538880D02*
X11742580Y-7558880D01*
X11742580Y-7696360D02*
X11762580Y-7716360D01*
X11762580Y-7696360D02*
X11742580Y-7716360D01*
X11742580Y-8178960D02*
X11762580Y-8198960D01*
X11762580Y-8178960D02*
X11742580Y-8198960D01*
X11742580Y-8257700D02*
X11762580Y-8277700D01*
X11762580Y-8257700D02*
X11742580Y-8277700D01*
X11742580Y-8336440D02*
X11762580Y-8356440D01*
X11762580Y-8336440D02*
X11742580Y-8356440D01*
X11742580Y-8417720D02*
X11762580Y-8437720D01*
X11762580Y-8417720D02*
X11742580Y-8437720D01*
X11742580Y-8960000D02*
X11762580Y-8980000D01*
X11762580Y-8960000D02*
X11742580Y-8980000D01*
X11775600Y-6164740D02*
X11795600Y-6184740D01*
X11795600Y-6164740D02*
X11775600Y-6184740D01*
X11777820Y-9605000D02*
X11797820Y-9625000D01*
X11797820Y-9605000D02*
X11777820Y-9625000D01*
X11790000Y-9830000D02*
X11810000Y-9850000D01*
X11810000Y-9830000D02*
X11790000Y-9850000D01*
X11800000Y-9675000D02*
X11820000Y-9695000D01*
X11820000Y-9675000D02*
X11800000Y-9695000D01*
X11816240Y-6004720D02*
X11836240Y-6024720D01*
X11836240Y-6004720D02*
X11816240Y-6024720D01*
X11821320Y-7140100D02*
X11841320Y-7160100D01*
X11841320Y-7140100D02*
X11821320Y-7160100D01*
X11821320Y-8338980D02*
X11841320Y-8358980D01*
X11841320Y-8338980D02*
X11821320Y-8358980D01*
X11821320Y-8417720D02*
X11841320Y-8437720D01*
X11841320Y-8417720D02*
X11821320Y-8437720D01*
X11823120Y-7300120D02*
X11843120Y-7320120D01*
X11843120Y-7300120D02*
X11823120Y-7320120D01*
X11823860Y-7378860D02*
X11843860Y-7398860D01*
X11843860Y-7378860D02*
X11823860Y-7398860D01*
X11823860Y-8496460D02*
X11843860Y-8516460D01*
X11843860Y-8496460D02*
X11823860Y-8516460D01*
X11823860Y-8580280D02*
X11843860Y-8600280D01*
X11843860Y-8580280D02*
X11823860Y-8600280D01*
X11823860Y-8867300D02*
X11843860Y-8887300D01*
X11843860Y-8867300D02*
X11823860Y-8887300D01*
X11825000Y-8765000D02*
X11845000Y-8785000D01*
X11845000Y-8765000D02*
X11825000Y-8785000D01*
X11840000Y-9862413D02*
X11860000Y-9882413D01*
X11860000Y-9862413D02*
X11840000Y-9882413D01*
X11855000Y-9675000D02*
X11875000Y-9695000D01*
X11875000Y-9675000D02*
X11855000Y-9695000D01*
X11856880Y-6164740D02*
X11876880Y-6184740D01*
X11876880Y-6164740D02*
X11856880Y-6184740D01*
X11896250Y-6472080D02*
X11916250Y-6492080D01*
X11916250Y-6472080D02*
X11896250Y-6492080D01*
X11896743Y-9563257D02*
X11916743Y-9583257D01*
X11916743Y-9563257D02*
X11896743Y-9583257D01*
X11897520Y-6004720D02*
X11917520Y-6024720D01*
X11917520Y-6004720D02*
X11897520Y-6024720D01*
X11902600Y-7142640D02*
X11922600Y-7162640D01*
X11922600Y-7142640D02*
X11902600Y-7162640D01*
X11902600Y-7297580D02*
X11922600Y-7317580D01*
X11922600Y-7297580D02*
X11902600Y-7317580D01*
X11902600Y-7378860D02*
X11922600Y-7398860D01*
X11922600Y-7378860D02*
X11902600Y-7398860D01*
X11902600Y-7460140D02*
X11922600Y-7480140D01*
X11922600Y-7460140D02*
X11902600Y-7480140D01*
X11902600Y-7538880D02*
X11922600Y-7558880D01*
X11922600Y-7538880D02*
X11902600Y-7558880D01*
X11902600Y-7696360D02*
X11922600Y-7716360D01*
X11922600Y-7696360D02*
X11902600Y-7716360D01*
X11902600Y-8021480D02*
X11922600Y-8041480D01*
X11922600Y-8021480D02*
X11902600Y-8041480D01*
X11902600Y-8338980D02*
X11922600Y-8358980D01*
X11922600Y-8338980D02*
X11902600Y-8358980D01*
X11902600Y-8417720D02*
X11922600Y-8437720D01*
X11922600Y-8417720D02*
X11902600Y-8437720D01*
X11902600Y-8499000D02*
X11922600Y-8519000D01*
X11922600Y-8499000D02*
X11902600Y-8519000D01*
X11902600Y-8580280D02*
X11922600Y-8600280D01*
X11922600Y-8580280D02*
X11902600Y-8600280D01*
X11905000Y-8960000D02*
X11925000Y-8980000D01*
X11925000Y-8960000D02*
X11905000Y-8980000D01*
X11920000Y-9862413D02*
X11940000Y-9882413D01*
X11940000Y-9862413D02*
X11920000Y-9882413D01*
X11938160Y-6162200D02*
X11958160Y-6182200D01*
X11958160Y-6162200D02*
X11938160Y-6182200D01*
X11938160Y-6431440D02*
X11958160Y-6451440D01*
X11958160Y-6431440D02*
X11938160Y-6451440D01*
X11955000Y-8870000D02*
X11975000Y-8890000D01*
X11975000Y-8870000D02*
X11955000Y-8890000D01*
X11975000Y-9630000D02*
X11995000Y-9650000D01*
X11995000Y-9630000D02*
X11975000Y-9650000D01*
X11976260Y-6007260D02*
X11996260Y-6027260D01*
X11996260Y-6007260D02*
X11976260Y-6027260D01*
X11976260Y-6474620D02*
X11996260Y-6494620D01*
X11996260Y-6474620D02*
X11976260Y-6494620D01*
X11981340Y-7218840D02*
X12001340Y-7238840D01*
X12001340Y-7218840D02*
X11981340Y-7238840D01*
X11981340Y-7297580D02*
X12001340Y-7317580D01*
X12001340Y-7297580D02*
X11981340Y-7317580D01*
X11981340Y-7378860D02*
X12001340Y-7398860D01*
X12001340Y-7378860D02*
X11981340Y-7398860D01*
X11981340Y-8336440D02*
X12001340Y-8356440D01*
X12001340Y-8336440D02*
X11981340Y-8356440D01*
X11981340Y-8417720D02*
X12001340Y-8437720D01*
X12001340Y-8417720D02*
X11981340Y-8437720D01*
X11981340Y-8496460D02*
X12001340Y-8516460D01*
X12001340Y-8496460D02*
X11981340Y-8516460D01*
X11981340Y-8580280D02*
X12001340Y-8600280D01*
X12001340Y-8580280D02*
X11981340Y-8600280D01*
X11983000Y-7538000D02*
X12003000Y-7558000D01*
X12003000Y-7538000D02*
X11983000Y-7558000D01*
X11983880Y-7140100D02*
X12003880Y-7160100D01*
X12003880Y-7140100D02*
X11983880Y-7160100D01*
X11983880Y-8181500D02*
X12003880Y-8201500D01*
X12003880Y-8181500D02*
X11983880Y-8201500D01*
X11983880Y-8257700D02*
X12003880Y-8277700D01*
X12003880Y-8257700D02*
X11983880Y-8277700D01*
X12000000Y-9862413D02*
X12020000Y-9882413D01*
X12020000Y-9862413D02*
X12000000Y-9882413D01*
X12012180Y-8960000D02*
X12032180Y-8980000D01*
X12032180Y-8960000D02*
X12012180Y-8980000D01*
X12015000Y-9675000D02*
X12035000Y-9695000D01*
X12035000Y-9675000D02*
X12015000Y-9695000D01*
X12016900Y-6162200D02*
X12036900Y-6182200D01*
X12036900Y-6162200D02*
X12016900Y-6182200D01*
X12016900Y-6431440D02*
X12036900Y-6451440D01*
X12036900Y-6431440D02*
X12016900Y-6451440D01*
X12055000Y-6477160D02*
X12075000Y-6497160D01*
X12075000Y-6477160D02*
X12055000Y-6497160D01*
X12055000Y-9630000D02*
X12075000Y-9650000D01*
X12075000Y-9630000D02*
X12055000Y-9650000D01*
X12057540Y-6009800D02*
X12077540Y-6029800D01*
X12077540Y-6009800D02*
X12057540Y-6029800D01*
X12062620Y-7140100D02*
X12082620Y-7160100D01*
X12082620Y-7140100D02*
X12062620Y-7160100D01*
X12062620Y-7218840D02*
X12082620Y-7238840D01*
X12082620Y-7218840D02*
X12062620Y-7238840D01*
X12062620Y-7300120D02*
X12082620Y-7320120D01*
X12082620Y-7300120D02*
X12062620Y-7320120D01*
X12062620Y-7379620D02*
X12082620Y-7399620D01*
X12082620Y-7379620D02*
X12062620Y-7399620D01*
X12062620Y-7696360D02*
X12082620Y-7716360D01*
X12082620Y-7696360D02*
X12062620Y-7716360D01*
X12062620Y-7858920D02*
X12082620Y-7878920D01*
X12082620Y-7858920D02*
X12062620Y-7878920D01*
X12062620Y-8021480D02*
X12082620Y-8041480D01*
X12082620Y-8021480D02*
X12062620Y-8041480D01*
X12062620Y-8341520D02*
X12082620Y-8361520D01*
X12082620Y-8341520D02*
X12062620Y-8361520D01*
X12062620Y-8420260D02*
X12082620Y-8440260D01*
X12082620Y-8420260D02*
X12062620Y-8440260D01*
X12095000Y-9680000D02*
X12115000Y-9700000D01*
X12115000Y-9680000D02*
X12095000Y-9700000D01*
X12095640Y-6431440D02*
X12115640Y-6451440D01*
X12115640Y-6431440D02*
X12095640Y-6451440D01*
X12097000Y-6163380D02*
X12117000Y-6183380D01*
X12117000Y-6163380D02*
X12097000Y-6183380D01*
X12135000Y-9630000D02*
X12155000Y-9650000D01*
X12155000Y-9630000D02*
X12135000Y-9650000D01*
X12136280Y-6512720D02*
X12156280Y-6532720D01*
X12156280Y-6512720D02*
X12136280Y-6532720D01*
X12138820Y-6012340D02*
X12158820Y-6032340D01*
X12158820Y-6012340D02*
X12138820Y-6032340D01*
X12140000Y-8870000D02*
X12160000Y-8890000D01*
X12160000Y-8870000D02*
X12140000Y-8890000D01*
X12140370Y-6280000D02*
X12160370Y-6300000D01*
X12160370Y-6280000D02*
X12140370Y-6300000D01*
X12141360Y-7140100D02*
X12161360Y-7160100D01*
X12161360Y-7140100D02*
X12141360Y-7160100D01*
X12141360Y-7218840D02*
X12161360Y-7238840D01*
X12161360Y-7218840D02*
X12141360Y-7238840D01*
X12141360Y-7297580D02*
X12161360Y-7317580D01*
X12161360Y-7297580D02*
X12141360Y-7317580D01*
X12141360Y-7378860D02*
X12161360Y-7398860D01*
X12161360Y-7378860D02*
X12141360Y-7398860D01*
X12142820Y-8420000D02*
X12162820Y-8440000D01*
X12162820Y-8420000D02*
X12142820Y-8440000D01*
X12143900Y-8260240D02*
X12163900Y-8280240D01*
X12163900Y-8260240D02*
X12143900Y-8280240D01*
X12143900Y-8338980D02*
X12163900Y-8358980D01*
X12163900Y-8338980D02*
X12143900Y-8358980D01*
X12143900Y-8499000D02*
X12163900Y-8519000D01*
X12163900Y-8499000D02*
X12143900Y-8519000D01*
X12143900Y-8580280D02*
X12163900Y-8600280D01*
X12163900Y-8580280D02*
X12143900Y-8600280D01*
X12175000Y-9675000D02*
X12195000Y-9695000D01*
X12195000Y-9675000D02*
X12175000Y-9695000D01*
X12176920Y-6164740D02*
X12196920Y-6184740D01*
X12196920Y-6164740D02*
X12176920Y-6184740D01*
X12215000Y-9630000D02*
X12235000Y-9650000D01*
X12235000Y-9630000D02*
X12215000Y-9650000D01*
X12217000Y-8960000D02*
X12237000Y-8980000D01*
X12237000Y-8960000D02*
X12217000Y-8980000D01*
X12217560Y-6014880D02*
X12237560Y-6034880D01*
X12237560Y-6014880D02*
X12217560Y-6034880D01*
X12220000Y-8420000D02*
X12240000Y-8440000D01*
X12240000Y-8420000D02*
X12220000Y-8440000D01*
X12222640Y-7378860D02*
X12242640Y-7398860D01*
X12242640Y-7378860D02*
X12222640Y-7398860D01*
X12222640Y-7457600D02*
X12242640Y-7477600D01*
X12242640Y-7457600D02*
X12222640Y-7477600D01*
X12222640Y-8260240D02*
X12242640Y-8280240D01*
X12242640Y-8260240D02*
X12222640Y-8280240D01*
X12222640Y-8338980D02*
X12242640Y-8358980D01*
X12242640Y-8338980D02*
X12222640Y-8358980D01*
X12222640Y-8499000D02*
X12242640Y-8519000D01*
X12242640Y-8499000D02*
X12222640Y-8519000D01*
X12230260Y-7538880D02*
X12250260Y-7558880D01*
X12250260Y-7538880D02*
X12230260Y-7558880D01*
X12230260Y-8178960D02*
X12250260Y-8198960D01*
X12250260Y-8178960D02*
X12230260Y-8198960D01*
X12255000Y-9675000D02*
X12275000Y-9695000D01*
X12275000Y-9675000D02*
X12255000Y-9695000D01*
X12255660Y-6164740D02*
X12275660Y-6184740D01*
X12275660Y-6164740D02*
X12255660Y-6184740D01*
X12255660Y-6279040D02*
X12275660Y-6299040D01*
X12275660Y-6279040D02*
X12255660Y-6299040D01*
X12266100Y-7853840D02*
X12286100Y-7873840D01*
X12286100Y-7853840D02*
X12266100Y-7873840D01*
X12266100Y-7935120D02*
X12286100Y-7955120D01*
X12286100Y-7935120D02*
X12266100Y-7955120D01*
X12295000Y-9630000D02*
X12315000Y-9650000D01*
X12315000Y-9630000D02*
X12295000Y-9650000D01*
X12296300Y-6014880D02*
X12316300Y-6034880D01*
X12316300Y-6014880D02*
X12296300Y-6034880D01*
X12300000Y-8870000D02*
X12320000Y-8890000D01*
X12320000Y-8870000D02*
X12300000Y-8890000D01*
X12301380Y-7297580D02*
X12321380Y-7317580D01*
X12321380Y-7297580D02*
X12301380Y-7317580D01*
X12301380Y-7378860D02*
X12321380Y-7398860D01*
X12321380Y-7378860D02*
X12301380Y-7398860D01*
X12301380Y-8338980D02*
X12321380Y-8358980D01*
X12321380Y-8338980D02*
X12301380Y-8358980D01*
X12301380Y-8417720D02*
X12321380Y-8437720D01*
X12321380Y-8417720D02*
X12301380Y-8437720D01*
X12301380Y-8499000D02*
X12321380Y-8519000D01*
X12321380Y-8499000D02*
X12301380Y-8519000D01*
X12301380Y-8577740D02*
X12321380Y-8597740D01*
X12321380Y-8577740D02*
X12301380Y-8597740D01*
X12303920Y-7140100D02*
X12323920Y-7160100D01*
X12323920Y-7140100D02*
X12303920Y-7160100D01*
X12305000Y-7218840D02*
X12325000Y-7238840D01*
X12325000Y-7218840D02*
X12305000Y-7238840D01*
X12330000Y-6280000D02*
X12350000Y-6300000D01*
X12350000Y-6280000D02*
X12330000Y-6300000D01*
X12335000Y-9675000D02*
X12355000Y-9695000D01*
X12355000Y-9675000D02*
X12335000Y-9695000D01*
X12375000Y-9630000D02*
X12395000Y-9650000D01*
X12395000Y-9630000D02*
X12375000Y-9650000D01*
X12377000Y-8960000D02*
X12397000Y-8980000D01*
X12397000Y-8960000D02*
X12377000Y-8980000D01*
X12377580Y-6002180D02*
X12397580Y-6022180D01*
X12397580Y-6002180D02*
X12377580Y-6022180D01*
X12382660Y-7140100D02*
X12402660Y-7160100D01*
X12402660Y-7140100D02*
X12382660Y-7160100D01*
X12382660Y-7218840D02*
X12402660Y-7238840D01*
X12402660Y-7218840D02*
X12382660Y-7238840D01*
X12382660Y-7300120D02*
X12402660Y-7320120D01*
X12402660Y-7300120D02*
X12382660Y-7320120D01*
X12382660Y-7378860D02*
X12402660Y-7398860D01*
X12402660Y-7378860D02*
X12382660Y-7398860D01*
X12382660Y-8338980D02*
X12402660Y-8358980D01*
X12402660Y-8338980D02*
X12382660Y-8358980D01*
X12382660Y-8420260D02*
X12402660Y-8440260D01*
X12402660Y-8420260D02*
X12382660Y-8440260D01*
X12382660Y-8580280D02*
X12402660Y-8600280D01*
X12402660Y-8580280D02*
X12382660Y-8600280D01*
X12420000Y-9675000D02*
X12440000Y-9695000D01*
X12440000Y-9675000D02*
X12420000Y-9695000D01*
X12438540Y-5984400D02*
X12458540Y-6004400D01*
X12458540Y-5984400D02*
X12438540Y-6004400D01*
X12455000Y-8870000D02*
X12475000Y-8890000D01*
X12475000Y-8870000D02*
X12455000Y-8890000D01*
X12456320Y-6428900D02*
X12476320Y-6448900D01*
X12476320Y-6428900D02*
X12456320Y-6448900D01*
X12460000Y-8420000D02*
X12480000Y-8440000D01*
X12480000Y-8420000D02*
X12460000Y-8440000D01*
X12460000Y-9630000D02*
X12480000Y-9650000D01*
X12480000Y-9630000D02*
X12460000Y-9650000D01*
X12461400Y-7218840D02*
X12481400Y-7238840D01*
X12481400Y-7218840D02*
X12461400Y-7238840D01*
X12461400Y-7300120D02*
X12481400Y-7320120D01*
X12481400Y-7300120D02*
X12461400Y-7320120D01*
X12461400Y-7378860D02*
X12481400Y-7398860D01*
X12481400Y-7378860D02*
X12461400Y-7398860D01*
X12461400Y-8338980D02*
X12481400Y-8358980D01*
X12481400Y-8338980D02*
X12461400Y-8358980D01*
X12461400Y-8496460D02*
X12481400Y-8516460D01*
X12481400Y-8496460D02*
X12461400Y-8516460D01*
X12542680Y-8420260D02*
X12562680Y-8440260D01*
X12562680Y-8420260D02*
X12542680Y-8440260D01*
X12542680Y-8499000D02*
X12562680Y-8519000D01*
X12562680Y-8499000D02*
X12542680Y-8519000D01*
X12542680Y-8577740D02*
X12562680Y-8597740D01*
X12562680Y-8577740D02*
X12542680Y-8597740D01*
X12621420Y-8499000D02*
X12641420Y-8519000D01*
X12641420Y-8499000D02*
X12621420Y-8519000D01*
X12705240Y-8499000D02*
X12725240Y-8519000D01*
X12725240Y-8499000D02*
X12705240Y-8519000D01*
X12795180Y-6675280D02*
X12815180Y-6695280D01*
X12815180Y-6675280D02*
X12795180Y-6695280D01*
X12796680Y-9395620D02*
X12816680Y-9415620D01*
X12816680Y-9395620D02*
X12796680Y-9415620D01*
X12796680Y-9522620D02*
X12816680Y-9542620D01*
X12816680Y-9522620D02*
X12796680Y-9542620D01*
X12796680Y-9649620D02*
X12816680Y-9669620D01*
X12816680Y-9649620D02*
X12796680Y-9669620D01*
X12838570Y-6218080D02*
X12858570Y-6238080D01*
X12858570Y-6218080D02*
X12838570Y-6238080D01*
X12850000Y-7536060D02*
X12870000Y-7556060D01*
X12870000Y-7536060D02*
X12850000Y-7556060D01*
X12851826Y-7460420D02*
X12871826Y-7480420D01*
X12871826Y-7460420D02*
X12851826Y-7480420D01*
X12865260Y-7978300D02*
X12885260Y-7998300D01*
X12885260Y-7978300D02*
X12865260Y-7998300D01*
X12865260Y-8059580D02*
X12885260Y-8079580D01*
X12885260Y-8059580D02*
X12865260Y-8079580D01*
X12865260Y-8138320D02*
X12885260Y-8158320D01*
X12885260Y-8138320D02*
X12865260Y-8158320D01*
X12905900Y-6469540D02*
X12925900Y-6489540D01*
X12925900Y-6469540D02*
X12905900Y-6489540D01*
X12985890Y-6218080D02*
X13005890Y-6238080D01*
X13005890Y-6218080D02*
X12985890Y-6238080D01*
X12992260Y-7602380D02*
X13012260Y-7622380D01*
X13012260Y-7602380D02*
X12992260Y-7622380D01*
X13055760Y-9779160D02*
X13075760Y-9799160D01*
X13075760Y-9779160D02*
X13055760Y-9799160D01*
X13079870Y-6207920D02*
X13099870Y-6227920D01*
X13099870Y-6207920D02*
X13079870Y-6227920D01*
X13121355Y-6662135D02*
X13141355Y-6682135D01*
X13141355Y-6662135D02*
X13121355Y-6682135D01*
X13139580Y-6235860D02*
X13159580Y-6255860D01*
X13159580Y-6235860D02*
X13139580Y-6255860D01*
X13236100Y-6967380D02*
X13256100Y-6987380D01*
X13256100Y-6967380D02*
X13236100Y-6987380D01*
X13238640Y-7043580D02*
X13258640Y-7063580D01*
X13258640Y-7043580D02*
X13238640Y-7063580D01*
X13238640Y-7124860D02*
X13258640Y-7144860D01*
X13258640Y-7124860D02*
X13238640Y-7144860D01*
X13241180Y-7205860D02*
X13261180Y-7225860D01*
X13261180Y-7205860D02*
X13241180Y-7225860D01*
X13241180Y-7287420D02*
X13261180Y-7307420D01*
X13261180Y-7287420D02*
X13241180Y-7307420D01*
X13241180Y-7366160D02*
X13261180Y-7386160D01*
X13261180Y-7366160D02*
X13241180Y-7386160D01*
X13241180Y-7447440D02*
X13261180Y-7467440D01*
X13261180Y-7447440D02*
X13241180Y-7467440D01*
X13241180Y-7526180D02*
X13261180Y-7546180D01*
X13261180Y-7526180D02*
X13241180Y-7546180D01*
X13241180Y-7602380D02*
X13261180Y-7622380D01*
X13261180Y-7602380D02*
X13241180Y-7622380D01*
X13241180Y-7686200D02*
X13261180Y-7706200D01*
X13261180Y-7686200D02*
X13241180Y-7706200D01*
X13246260Y-8006240D02*
X13266260Y-8026240D01*
X13266260Y-8006240D02*
X13246260Y-8026240D01*
X13246260Y-8084980D02*
X13266260Y-8104980D01*
X13266260Y-8084980D02*
X13246260Y-8104980D01*
X13246260Y-8323740D02*
X13266260Y-8343740D01*
X13266260Y-8323740D02*
X13246260Y-8343740D01*
X13248800Y-8163720D02*
X13268800Y-8183720D01*
X13268800Y-8163720D02*
X13248800Y-8183720D01*
X13248800Y-8245000D02*
X13268800Y-8265000D01*
X13268800Y-8245000D02*
X13248800Y-8265000D01*
X13248800Y-8405020D02*
X13268800Y-8425020D01*
X13268800Y-8405020D02*
X13248800Y-8425020D01*
X13248800Y-8483760D02*
X13268800Y-8503760D01*
X13268800Y-8483760D02*
X13248800Y-8503760D01*
X13248800Y-8565040D02*
X13268800Y-8585040D01*
X13268800Y-8565040D02*
X13248800Y-8585040D01*
X13248800Y-8643780D02*
X13268800Y-8663780D01*
X13268800Y-8643780D02*
X13248800Y-8663780D01*
X13248800Y-8725060D02*
X13268800Y-8745060D01*
X13268800Y-8725060D02*
X13248800Y-8745060D01*
X13248800Y-8786020D02*
X13268800Y-8806020D01*
X13268800Y-8786020D02*
X13248800Y-8806020D01*
X13251340Y-8885080D02*
X13271340Y-8905080D01*
X13271340Y-8885080D02*
X13251340Y-8905080D01*
X13281820Y-6616860D02*
X13301820Y-6636860D01*
X13301820Y-6616860D02*
X13281820Y-6636860D01*
X13297060Y-6704763D02*
X13317060Y-6724763D01*
X13317060Y-6704763D02*
X13297060Y-6724763D01*
X13300000Y-6245000D02*
X13320000Y-6265000D01*
X13320000Y-6245000D02*
X13300000Y-6265000D01*
X13337700Y-6205000D02*
X13357700Y-6225000D01*
X13357700Y-6205000D02*
X13337700Y-6225000D01*
X13385960Y-6776880D02*
X13405960Y-6796880D01*
X13405960Y-6776880D02*
X13385960Y-6796880D01*
X13518040Y-6612770D02*
X13538040Y-6632770D01*
X13538040Y-6612770D02*
X13518040Y-6632770D01*
X13518040Y-9776620D02*
X13538040Y-9796620D01*
X13538040Y-9776620D02*
X13518040Y-9796620D01*
X13520580Y-9522620D02*
X13540580Y-9542620D01*
X13540580Y-9522620D02*
X13520580Y-9542620D01*
X13520580Y-9649620D02*
X13540580Y-9669620D01*
X13540580Y-9649620D02*
X13520580Y-9669620D01*
X13545980Y-6212720D02*
X13565980Y-6232720D01*
X13565980Y-6212720D02*
X13545980Y-6232720D01*
X13620000Y-7525000D02*
X13640000Y-7545000D01*
X13640000Y-7525000D02*
X13620000Y-7545000D01*
X13620000Y-8166260D02*
X13640000Y-8186260D01*
X13640000Y-8166260D02*
X13620000Y-8186260D01*
X13620000Y-8245000D02*
X13640000Y-8265000D01*
X13640000Y-8245000D02*
X13620000Y-8265000D01*
X13620000Y-8405020D02*
X13640000Y-8425020D01*
X13640000Y-8405020D02*
X13620000Y-8425020D01*
X13620000Y-8483760D02*
X13640000Y-8503760D01*
X13640000Y-8483760D02*
X13620000Y-8503760D01*
X13620000Y-8643780D02*
X13640000Y-8663780D01*
X13640000Y-8643780D02*
X13620000Y-8663780D01*
X13620000Y-8722520D02*
X13640000Y-8742520D01*
X13640000Y-8722520D02*
X13620000Y-8742520D01*
X13620000Y-8801260D02*
X13640000Y-8821260D01*
X13640000Y-8801260D02*
X13620000Y-8821260D01*
X13645040Y-6612770D02*
X13665040Y-6632770D01*
X13665040Y-6612770D02*
X13645040Y-6632770D01*
X13645040Y-6741320D02*
X13665040Y-6761320D01*
X13665040Y-6741320D02*
X13645040Y-6761320D01*
X13725545Y-6877490D02*
X13745545Y-6897490D01*
X13745545Y-6877490D02*
X13725545Y-6897490D01*
X13782200Y-6517800D02*
X13802200Y-6537800D01*
X13802200Y-6517800D02*
X13782200Y-6537800D01*
X14122560Y-7046120D02*
X14142560Y-7066120D01*
X14142560Y-7046120D02*
X14122560Y-7066120D01*
X14122560Y-7127400D02*
X14142560Y-7147400D01*
X14142560Y-7127400D02*
X14122560Y-7147400D01*
X14122560Y-7206140D02*
X14142560Y-7226140D01*
X14142560Y-7206140D02*
X14122560Y-7226140D01*
X14122560Y-7284880D02*
X14142560Y-7304880D01*
X14142560Y-7284880D02*
X14122560Y-7304880D01*
X14125100Y-6967380D02*
X14145100Y-6987380D01*
X14145100Y-6967380D02*
X14125100Y-6987380D01*
X14125100Y-7366160D02*
X14145100Y-7386160D01*
X14145100Y-7366160D02*
X14125100Y-7386160D01*
X14125100Y-7444900D02*
X14145100Y-7464900D01*
X14145100Y-7444900D02*
X14125100Y-7464900D01*
X14127640Y-7602380D02*
X14147640Y-7622380D01*
X14147640Y-7602380D02*
X14127640Y-7622380D01*
X14127640Y-7681120D02*
X14147640Y-7701120D01*
X14147640Y-7681120D02*
X14127640Y-7701120D01*
X14127640Y-8003700D02*
X14147640Y-8023700D01*
X14147640Y-8003700D02*
X14127640Y-8023700D01*
X14130180Y-7767480D02*
X14150180Y-7787480D01*
X14150180Y-7767480D02*
X14130180Y-7787480D01*
X14132720Y-7841140D02*
X14152720Y-7861140D01*
X14152720Y-7841140D02*
X14132720Y-7861140D01*
X14396880Y-6883560D02*
X14416880Y-6903560D01*
X14416880Y-6883560D02*
X14396880Y-6903560D01*
X14396880Y-7081680D02*
X14416880Y-7101680D01*
X14416880Y-7081680D02*
X14396880Y-7101680D01*
X14396880Y-7924960D02*
X14416880Y-7944960D01*
X14416880Y-7924960D02*
X14396880Y-7944960D01*
X14399420Y-8966360D02*
X14419420Y-8986360D01*
X14419420Y-8966360D02*
X14399420Y-8986360D01*
X14400000Y-8075000D02*
X14420000Y-8095000D01*
X14420000Y-8075000D02*
X14400000Y-8095000D01*
X14401960Y-8806340D02*
X14421960Y-8826340D01*
X14421960Y-8806340D02*
X14401960Y-8826340D01*
X14407040Y-8323740D02*
X14427040Y-8343740D01*
X14427040Y-8323740D02*
X14407040Y-8343740D01*
X14409580Y-8529480D02*
X14429580Y-8549480D01*
X14429580Y-8529480D02*
X14409580Y-8549480D01*
D11*
X9245264Y-10241997D02*
X9245264Y-10041997D01*
X9245264Y-10041997D02*
X9292883Y-10041997D01*
X9292883Y-10041997D02*
X9321455Y-10051520D01*
X9321455Y-10051520D02*
X9340502Y-10070568D01*
X9340502Y-10070568D02*
X9350026Y-10089616D01*
X9350026Y-10089616D02*
X9359550Y-10127711D01*
X9359550Y-10127711D02*
X9359550Y-10156282D01*
X9359550Y-10156282D02*
X9350026Y-10194378D01*
X9350026Y-10194378D02*
X9340502Y-10213425D01*
X9340502Y-10213425D02*
X9321455Y-10232473D01*
X9321455Y-10232473D02*
X9292883Y-10241997D01*
X9292883Y-10241997D02*
X9245264Y-10241997D01*
X9445264Y-10241997D02*
X9445264Y-10108663D01*
X9445264Y-10146759D02*
X9454788Y-10127711D01*
X9454788Y-10127711D02*
X9464312Y-10118187D01*
X9464312Y-10118187D02*
X9483359Y-10108663D01*
X9483359Y-10108663D02*
X9502407Y-10108663D01*
X9569074Y-10241997D02*
X9569074Y-10108663D01*
X9569074Y-10041997D02*
X9559550Y-10051520D01*
X9559550Y-10051520D02*
X9569074Y-10061044D01*
X9569074Y-10061044D02*
X9578597Y-10051520D01*
X9578597Y-10051520D02*
X9569074Y-10041997D01*
X9569074Y-10041997D02*
X9569074Y-10061044D01*
X9692883Y-10241997D02*
X9673835Y-10232473D01*
X9673835Y-10232473D02*
X9664312Y-10213425D01*
X9664312Y-10213425D02*
X9664312Y-10041997D01*
X9797645Y-10241997D02*
X9778597Y-10232473D01*
X9778597Y-10232473D02*
X9769074Y-10213425D01*
X9769074Y-10213425D02*
X9769074Y-10041997D01*
X10026216Y-10241997D02*
X10026216Y-10041997D01*
X10026216Y-10041997D02*
X10092883Y-10184854D01*
X10092883Y-10184854D02*
X10159550Y-10041997D01*
X10159550Y-10041997D02*
X10159550Y-10241997D01*
X10340502Y-10241997D02*
X10340502Y-10137235D01*
X10340502Y-10137235D02*
X10330978Y-10118187D01*
X10330978Y-10118187D02*
X10311931Y-10108663D01*
X10311931Y-10108663D02*
X10273835Y-10108663D01*
X10273835Y-10108663D02*
X10254788Y-10118187D01*
X10340502Y-10232473D02*
X10321455Y-10241997D01*
X10321455Y-10241997D02*
X10273835Y-10241997D01*
X10273835Y-10241997D02*
X10254788Y-10232473D01*
X10254788Y-10232473D02*
X10245264Y-10213425D01*
X10245264Y-10213425D02*
X10245264Y-10194378D01*
X10245264Y-10194378D02*
X10254788Y-10175330D01*
X10254788Y-10175330D02*
X10273835Y-10165806D01*
X10273835Y-10165806D02*
X10321455Y-10165806D01*
X10321455Y-10165806D02*
X10340502Y-10156282D01*
X10435740Y-10108663D02*
X10435740Y-10308663D01*
X10435740Y-10118187D02*
X10454788Y-10108663D01*
X10454788Y-10108663D02*
X10492883Y-10108663D01*
X10492883Y-10108663D02*
X10511931Y-10118187D01*
X10511931Y-10118187D02*
X10521455Y-10127711D01*
X10521455Y-10127711D02*
X10530978Y-10146759D01*
X10530978Y-10146759D02*
X10530978Y-10203901D01*
X10530978Y-10203901D02*
X10521455Y-10222949D01*
X10521455Y-10222949D02*
X10511931Y-10232473D01*
X10511931Y-10232473D02*
X10492883Y-10241997D01*
X10492883Y-10241997D02*
X10454788Y-10241997D01*
X10454788Y-10241997D02*
X10435740Y-10232473D01*
X10616693Y-10222949D02*
X10626216Y-10232473D01*
X10626216Y-10232473D02*
X10616693Y-10241997D01*
X10616693Y-10241997D02*
X10607169Y-10232473D01*
X10607169Y-10232473D02*
X10616693Y-10222949D01*
X10616693Y-10222949D02*
X10616693Y-10241997D01*
X10616693Y-10118187D02*
X10626216Y-10127711D01*
X10626216Y-10127711D02*
X10616693Y-10137235D01*
X10616693Y-10137235D02*
X10607169Y-10127711D01*
X10607169Y-10127711D02*
X10616693Y-10118187D01*
X10616693Y-10118187D02*
X10616693Y-10137235D01*
D12*
X8964487Y-10560513D02*
X8984487Y-10580513D01*
X8984487Y-10560513D02*
X8964487Y-10580513D01*
D11*
X9283359Y-10461997D02*
X9302407Y-10461997D01*
X9302407Y-10461997D02*
X9321455Y-10471520D01*
X9321455Y-10471520D02*
X9330978Y-10481044D01*
X9330978Y-10481044D02*
X9340502Y-10500092D01*
X9340502Y-10500092D02*
X9350026Y-10538187D01*
X9350026Y-10538187D02*
X9350026Y-10585806D01*
X9350026Y-10585806D02*
X9340502Y-10623901D01*
X9340502Y-10623901D02*
X9330978Y-10642949D01*
X9330978Y-10642949D02*
X9321455Y-10652473D01*
X9321455Y-10652473D02*
X9302407Y-10661997D01*
X9302407Y-10661997D02*
X9283359Y-10661997D01*
X9283359Y-10661997D02*
X9264312Y-10652473D01*
X9264312Y-10652473D02*
X9254788Y-10642949D01*
X9254788Y-10642949D02*
X9245264Y-10623901D01*
X9245264Y-10623901D02*
X9235740Y-10585806D01*
X9235740Y-10585806D02*
X9235740Y-10538187D01*
X9235740Y-10538187D02*
X9245264Y-10500092D01*
X9245264Y-10500092D02*
X9254788Y-10481044D01*
X9254788Y-10481044D02*
X9264312Y-10471520D01*
X9264312Y-10471520D02*
X9283359Y-10461997D01*
X9435740Y-10642949D02*
X9445264Y-10652473D01*
X9445264Y-10652473D02*
X9435740Y-10661997D01*
X9435740Y-10661997D02*
X9426216Y-10652473D01*
X9426216Y-10652473D02*
X9435740Y-10642949D01*
X9435740Y-10642949D02*
X9435740Y-10661997D01*
X9521455Y-10481044D02*
X9530978Y-10471520D01*
X9530978Y-10471520D02*
X9550026Y-10461997D01*
X9550026Y-10461997D02*
X9597645Y-10461997D01*
X9597645Y-10461997D02*
X9616693Y-10471520D01*
X9616693Y-10471520D02*
X9626216Y-10481044D01*
X9626216Y-10481044D02*
X9635740Y-10500092D01*
X9635740Y-10500092D02*
X9635740Y-10519139D01*
X9635740Y-10519139D02*
X9626216Y-10547711D01*
X9626216Y-10547711D02*
X9511931Y-10661997D01*
X9511931Y-10661997D02*
X9635740Y-10661997D01*
X9759550Y-10461997D02*
X9778597Y-10461997D01*
X9778597Y-10461997D02*
X9797645Y-10471520D01*
X9797645Y-10471520D02*
X9807169Y-10481044D01*
X9807169Y-10481044D02*
X9816693Y-10500092D01*
X9816693Y-10500092D02*
X9826216Y-10538187D01*
X9826216Y-10538187D02*
X9826216Y-10585806D01*
X9826216Y-10585806D02*
X9816693Y-10623901D01*
X9816693Y-10623901D02*
X9807169Y-10642949D01*
X9807169Y-10642949D02*
X9797645Y-10652473D01*
X9797645Y-10652473D02*
X9778597Y-10661997D01*
X9778597Y-10661997D02*
X9759550Y-10661997D01*
X9759550Y-10661997D02*
X9740502Y-10652473D01*
X9740502Y-10652473D02*
X9730978Y-10642949D01*
X9730978Y-10642949D02*
X9721455Y-10623901D01*
X9721455Y-10623901D02*
X9711931Y-10585806D01*
X9711931Y-10585806D02*
X9711931Y-10538187D01*
X9711931Y-10538187D02*
X9721455Y-10500092D01*
X9721455Y-10500092D02*
X9730978Y-10481044D01*
X9730978Y-10481044D02*
X9740502Y-10471520D01*
X9740502Y-10471520D02*
X9759550Y-10461997D01*
X9950026Y-10461997D02*
X9969074Y-10461997D01*
X9969074Y-10461997D02*
X9988121Y-10471520D01*
X9988121Y-10471520D02*
X9997645Y-10481044D01*
X9997645Y-10481044D02*
X10007169Y-10500092D01*
X10007169Y-10500092D02*
X10016693Y-10538187D01*
X10016693Y-10538187D02*
X10016693Y-10585806D01*
X10016693Y-10585806D02*
X10007169Y-10623901D01*
X10007169Y-10623901D02*
X9997645Y-10642949D01*
X9997645Y-10642949D02*
X9988121Y-10652473D01*
X9988121Y-10652473D02*
X9969074Y-10661997D01*
X9969074Y-10661997D02*
X9950026Y-10661997D01*
X9950026Y-10661997D02*
X9930978Y-10652473D01*
X9930978Y-10652473D02*
X9921455Y-10642949D01*
X9921455Y-10642949D02*
X9911931Y-10623901D01*
X9911931Y-10623901D02*
X9902407Y-10585806D01*
X9902407Y-10585806D02*
X9902407Y-10538187D01*
X9902407Y-10538187D02*
X9911931Y-10500092D01*
X9911931Y-10500092D02*
X9921455Y-10481044D01*
X9921455Y-10481044D02*
X9930978Y-10471520D01*
X9930978Y-10471520D02*
X9950026Y-10461997D01*
X10102407Y-10661997D02*
X10102407Y-10528663D01*
X10102407Y-10547711D02*
X10111931Y-10538187D01*
X10111931Y-10538187D02*
X10130978Y-10528663D01*
X10130978Y-10528663D02*
X10159550Y-10528663D01*
X10159550Y-10528663D02*
X10178597Y-10538187D01*
X10178597Y-10538187D02*
X10188121Y-10557235D01*
X10188121Y-10557235D02*
X10188121Y-10661997D01*
X10188121Y-10557235D02*
X10197645Y-10538187D01*
X10197645Y-10538187D02*
X10216693Y-10528663D01*
X10216693Y-10528663D02*
X10245264Y-10528663D01*
X10245264Y-10528663D02*
X10264312Y-10538187D01*
X10264312Y-10538187D02*
X10273836Y-10557235D01*
X10273836Y-10557235D02*
X10273836Y-10661997D01*
X10369074Y-10661997D02*
X10369074Y-10528663D01*
X10369074Y-10547711D02*
X10378597Y-10538187D01*
X10378597Y-10538187D02*
X10397645Y-10528663D01*
X10397645Y-10528663D02*
X10426217Y-10528663D01*
X10426217Y-10528663D02*
X10445264Y-10538187D01*
X10445264Y-10538187D02*
X10454788Y-10557235D01*
X10454788Y-10557235D02*
X10454788Y-10661997D01*
X10454788Y-10557235D02*
X10464312Y-10538187D01*
X10464312Y-10538187D02*
X10483359Y-10528663D01*
X10483359Y-10528663D02*
X10511931Y-10528663D01*
X10511931Y-10528663D02*
X10530978Y-10538187D01*
X10530978Y-10538187D02*
X10540502Y-10557235D01*
X10540502Y-10557235D02*
X10540502Y-10661997D01*
X10930978Y-10452473D02*
X10759550Y-10709616D01*
X11188121Y-10461997D02*
X11207169Y-10461997D01*
X11207169Y-10461997D02*
X11226217Y-10471520D01*
X11226217Y-10471520D02*
X11235740Y-10481044D01*
X11235740Y-10481044D02*
X11245264Y-10500092D01*
X11245264Y-10500092D02*
X11254788Y-10538187D01*
X11254788Y-10538187D02*
X11254788Y-10585806D01*
X11254788Y-10585806D02*
X11245264Y-10623901D01*
X11245264Y-10623901D02*
X11235740Y-10642949D01*
X11235740Y-10642949D02*
X11226217Y-10652473D01*
X11226217Y-10652473D02*
X11207169Y-10661997D01*
X11207169Y-10661997D02*
X11188121Y-10661997D01*
X11188121Y-10661997D02*
X11169074Y-10652473D01*
X11169074Y-10652473D02*
X11159550Y-10642949D01*
X11159550Y-10642949D02*
X11150026Y-10623901D01*
X11150026Y-10623901D02*
X11140502Y-10585806D01*
X11140502Y-10585806D02*
X11140502Y-10538187D01*
X11140502Y-10538187D02*
X11150026Y-10500092D01*
X11150026Y-10500092D02*
X11159550Y-10481044D01*
X11159550Y-10481044D02*
X11169074Y-10471520D01*
X11169074Y-10471520D02*
X11188121Y-10461997D01*
X11340502Y-10642949D02*
X11350026Y-10652473D01*
X11350026Y-10652473D02*
X11340502Y-10661997D01*
X11340502Y-10661997D02*
X11330978Y-10652473D01*
X11330978Y-10652473D02*
X11340502Y-10642949D01*
X11340502Y-10642949D02*
X11340502Y-10661997D01*
X11473836Y-10461997D02*
X11492883Y-10461997D01*
X11492883Y-10461997D02*
X11511931Y-10471520D01*
X11511931Y-10471520D02*
X11521455Y-10481044D01*
X11521455Y-10481044D02*
X11530978Y-10500092D01*
X11530978Y-10500092D02*
X11540502Y-10538187D01*
X11540502Y-10538187D02*
X11540502Y-10585806D01*
X11540502Y-10585806D02*
X11530978Y-10623901D01*
X11530978Y-10623901D02*
X11521455Y-10642949D01*
X11521455Y-10642949D02*
X11511931Y-10652473D01*
X11511931Y-10652473D02*
X11492883Y-10661997D01*
X11492883Y-10661997D02*
X11473836Y-10661997D01*
X11473836Y-10661997D02*
X11454788Y-10652473D01*
X11454788Y-10652473D02*
X11445264Y-10642949D01*
X11445264Y-10642949D02*
X11435740Y-10623901D01*
X11435740Y-10623901D02*
X11426217Y-10585806D01*
X11426217Y-10585806D02*
X11426217Y-10538187D01*
X11426217Y-10538187D02*
X11435740Y-10500092D01*
X11435740Y-10500092D02*
X11445264Y-10481044D01*
X11445264Y-10481044D02*
X11454788Y-10471520D01*
X11454788Y-10471520D02*
X11473836Y-10461997D01*
X11664312Y-10461997D02*
X11683359Y-10461997D01*
X11683359Y-10461997D02*
X11702407Y-10471520D01*
X11702407Y-10471520D02*
X11711931Y-10481044D01*
X11711931Y-10481044D02*
X11721455Y-10500092D01*
X11721455Y-10500092D02*
X11730978Y-10538187D01*
X11730978Y-10538187D02*
X11730978Y-10585806D01*
X11730978Y-10585806D02*
X11721455Y-10623901D01*
X11721455Y-10623901D02*
X11711931Y-10642949D01*
X11711931Y-10642949D02*
X11702407Y-10652473D01*
X11702407Y-10652473D02*
X11683359Y-10661997D01*
X11683359Y-10661997D02*
X11664312Y-10661997D01*
X11664312Y-10661997D02*
X11645264Y-10652473D01*
X11645264Y-10652473D02*
X11635740Y-10642949D01*
X11635740Y-10642949D02*
X11626217Y-10623901D01*
X11626217Y-10623901D02*
X11616693Y-10585806D01*
X11616693Y-10585806D02*
X11616693Y-10538187D01*
X11616693Y-10538187D02*
X11626217Y-10500092D01*
X11626217Y-10500092D02*
X11635740Y-10481044D01*
X11635740Y-10481044D02*
X11645264Y-10471520D01*
X11645264Y-10471520D02*
X11664312Y-10461997D01*
X11797645Y-10461997D02*
X11930978Y-10461997D01*
X11930978Y-10461997D02*
X11845264Y-10661997D01*
X12016693Y-10661997D02*
X12054788Y-10661997D01*
X12054788Y-10661997D02*
X12073836Y-10652473D01*
X12073836Y-10652473D02*
X12083359Y-10642949D01*
X12083359Y-10642949D02*
X12102407Y-10614378D01*
X12102407Y-10614378D02*
X12111931Y-10576282D01*
X12111931Y-10576282D02*
X12111931Y-10500092D01*
X12111931Y-10500092D02*
X12102407Y-10481044D01*
X12102407Y-10481044D02*
X12092883Y-10471520D01*
X12092883Y-10471520D02*
X12073836Y-10461997D01*
X12073836Y-10461997D02*
X12035740Y-10461997D01*
X12035740Y-10461997D02*
X12016693Y-10471520D01*
X12016693Y-10471520D02*
X12007169Y-10481044D01*
X12007169Y-10481044D02*
X11997645Y-10500092D01*
X11997645Y-10500092D02*
X11997645Y-10547711D01*
X11997645Y-10547711D02*
X12007169Y-10566759D01*
X12007169Y-10566759D02*
X12016693Y-10576282D01*
X12016693Y-10576282D02*
X12035740Y-10585806D01*
X12035740Y-10585806D02*
X12073836Y-10585806D01*
X12073836Y-10585806D02*
X12092883Y-10576282D01*
X12092883Y-10576282D02*
X12102407Y-10566759D01*
X12102407Y-10566759D02*
X12111931Y-10547711D01*
X12188121Y-10461997D02*
X12188121Y-10500092D01*
X12264312Y-10461997D02*
X12264312Y-10500092D01*
X12559550Y-10738187D02*
X12550026Y-10728663D01*
X12550026Y-10728663D02*
X12530979Y-10700092D01*
X12530979Y-10700092D02*
X12521455Y-10681044D01*
X12521455Y-10681044D02*
X12511931Y-10652473D01*
X12511931Y-10652473D02*
X12502407Y-10604854D01*
X12502407Y-10604854D02*
X12502407Y-10566759D01*
X12502407Y-10566759D02*
X12511931Y-10519139D01*
X12511931Y-10519139D02*
X12521455Y-10490568D01*
X12521455Y-10490568D02*
X12530979Y-10471520D01*
X12530979Y-10471520D02*
X12550026Y-10442949D01*
X12550026Y-10442949D02*
X12559550Y-10433425D01*
X12721455Y-10528663D02*
X12721455Y-10661997D01*
X12673836Y-10452473D02*
X12626217Y-10595330D01*
X12626217Y-10595330D02*
X12750026Y-10595330D01*
X12835740Y-10661997D02*
X12873836Y-10661997D01*
X12873836Y-10661997D02*
X12892883Y-10652473D01*
X12892883Y-10652473D02*
X12902407Y-10642949D01*
X12902407Y-10642949D02*
X12921455Y-10614378D01*
X12921455Y-10614378D02*
X12930979Y-10576282D01*
X12930979Y-10576282D02*
X12930979Y-10500092D01*
X12930979Y-10500092D02*
X12921455Y-10481044D01*
X12921455Y-10481044D02*
X12911931Y-10471520D01*
X12911931Y-10471520D02*
X12892883Y-10461997D01*
X12892883Y-10461997D02*
X12854788Y-10461997D01*
X12854788Y-10461997D02*
X12835740Y-10471520D01*
X12835740Y-10471520D02*
X12826217Y-10481044D01*
X12826217Y-10481044D02*
X12816693Y-10500092D01*
X12816693Y-10500092D02*
X12816693Y-10547711D01*
X12816693Y-10547711D02*
X12826217Y-10566759D01*
X12826217Y-10566759D02*
X12835740Y-10576282D01*
X12835740Y-10576282D02*
X12854788Y-10585806D01*
X12854788Y-10585806D02*
X12892883Y-10585806D01*
X12892883Y-10585806D02*
X12911931Y-10576282D01*
X12911931Y-10576282D02*
X12921455Y-10566759D01*
X12921455Y-10566759D02*
X12930979Y-10547711D01*
X13111931Y-10461997D02*
X13016693Y-10461997D01*
X13016693Y-10461997D02*
X13007169Y-10557235D01*
X13007169Y-10557235D02*
X13016693Y-10547711D01*
X13016693Y-10547711D02*
X13035740Y-10538187D01*
X13035740Y-10538187D02*
X13083360Y-10538187D01*
X13083360Y-10538187D02*
X13102407Y-10547711D01*
X13102407Y-10547711D02*
X13111931Y-10557235D01*
X13111931Y-10557235D02*
X13121455Y-10576282D01*
X13121455Y-10576282D02*
X13121455Y-10623901D01*
X13121455Y-10623901D02*
X13111931Y-10642949D01*
X13111931Y-10642949D02*
X13102407Y-10652473D01*
X13102407Y-10652473D02*
X13083360Y-10661997D01*
X13083360Y-10661997D02*
X13035740Y-10661997D01*
X13035740Y-10661997D02*
X13016693Y-10652473D01*
X13016693Y-10652473D02*
X13007169Y-10642949D01*
X13359550Y-10661997D02*
X13359550Y-10461997D01*
X13445264Y-10661997D02*
X13445264Y-10557235D01*
X13445264Y-10557235D02*
X13435741Y-10538187D01*
X13435741Y-10538187D02*
X13416693Y-10528663D01*
X13416693Y-10528663D02*
X13388121Y-10528663D01*
X13388121Y-10528663D02*
X13369074Y-10538187D01*
X13369074Y-10538187D02*
X13359550Y-10547711D01*
X13569074Y-10661997D02*
X13550026Y-10652473D01*
X13550026Y-10652473D02*
X13540502Y-10642949D01*
X13540502Y-10642949D02*
X13530979Y-10623901D01*
X13530979Y-10623901D02*
X13530979Y-10566759D01*
X13530979Y-10566759D02*
X13540502Y-10547711D01*
X13540502Y-10547711D02*
X13550026Y-10538187D01*
X13550026Y-10538187D02*
X13569074Y-10528663D01*
X13569074Y-10528663D02*
X13597645Y-10528663D01*
X13597645Y-10528663D02*
X13616693Y-10538187D01*
X13616693Y-10538187D02*
X13626217Y-10547711D01*
X13626217Y-10547711D02*
X13635741Y-10566759D01*
X13635741Y-10566759D02*
X13635741Y-10623901D01*
X13635741Y-10623901D02*
X13626217Y-10642949D01*
X13626217Y-10642949D02*
X13616693Y-10652473D01*
X13616693Y-10652473D02*
X13597645Y-10661997D01*
X13597645Y-10661997D02*
X13569074Y-10661997D01*
X13750026Y-10661997D02*
X13730979Y-10652473D01*
X13730979Y-10652473D02*
X13721455Y-10633425D01*
X13721455Y-10633425D02*
X13721455Y-10461997D01*
X13902407Y-10652473D02*
X13883360Y-10661997D01*
X13883360Y-10661997D02*
X13845264Y-10661997D01*
X13845264Y-10661997D02*
X13826217Y-10652473D01*
X13826217Y-10652473D02*
X13816693Y-10633425D01*
X13816693Y-10633425D02*
X13816693Y-10557235D01*
X13816693Y-10557235D02*
X13826217Y-10538187D01*
X13826217Y-10538187D02*
X13845264Y-10528663D01*
X13845264Y-10528663D02*
X13883360Y-10528663D01*
X13883360Y-10528663D02*
X13902407Y-10538187D01*
X13902407Y-10538187D02*
X13911931Y-10557235D01*
X13911931Y-10557235D02*
X13911931Y-10576282D01*
X13911931Y-10576282D02*
X13816693Y-10595330D01*
X13988122Y-10652473D02*
X14007169Y-10661997D01*
X14007169Y-10661997D02*
X14045264Y-10661997D01*
X14045264Y-10661997D02*
X14064312Y-10652473D01*
X14064312Y-10652473D02*
X14073836Y-10633425D01*
X14073836Y-10633425D02*
X14073836Y-10623901D01*
X14073836Y-10623901D02*
X14064312Y-10604854D01*
X14064312Y-10604854D02*
X14045264Y-10595330D01*
X14045264Y-10595330D02*
X14016693Y-10595330D01*
X14016693Y-10595330D02*
X13997645Y-10585806D01*
X13997645Y-10585806D02*
X13988122Y-10566759D01*
X13988122Y-10566759D02*
X13988122Y-10557235D01*
X13988122Y-10557235D02*
X13997645Y-10538187D01*
X13997645Y-10538187D02*
X14016693Y-10528663D01*
X14016693Y-10528663D02*
X14045264Y-10528663D01*
X14045264Y-10528663D02*
X14064312Y-10538187D01*
X14140503Y-10738187D02*
X14150026Y-10728663D01*
X14150026Y-10728663D02*
X14169074Y-10700092D01*
X14169074Y-10700092D02*
X14178598Y-10681044D01*
X14178598Y-10681044D02*
X14188122Y-10652473D01*
X14188122Y-10652473D02*
X14197645Y-10604854D01*
X14197645Y-10604854D02*
X14197645Y-10566759D01*
X14197645Y-10566759D02*
X14188122Y-10519139D01*
X14188122Y-10519139D02*
X14178598Y-10490568D01*
X14178598Y-10490568D02*
X14169074Y-10471520D01*
X14169074Y-10471520D02*
X14150026Y-10442949D01*
X14150026Y-10442949D02*
X14140503Y-10433425D01*
M02*
