%TF.GenerationSoftware,KiCad,Pcbnew,8.0.1*%
%TF.CreationDate,2024-12-16T00:39:24-05:00*%
%TF.ProjectId,cm,636d2e6b-6963-4616-945f-706362585858,rev?*%
%TF.SameCoordinates,Original*%
%TF.FileFunction,Copper,L8,Bot*%
%TF.FilePolarity,Positive*%
%FSLAX46Y46*%
G04 Gerber Fmt 4.6, Leading zero omitted, Abs format (unit mm)*
G04 Created by KiCad (PCBNEW 8.0.1) date 2024-12-16 00:39:24*
%MOMM*%
%LPD*%
G01*
G04 APERTURE LIST*
G04 Aperture macros list*
%AMRoundRect*
0 Rectangle with rounded corners*
0 $1 Rounding radius*
0 $2 $3 $4 $5 $6 $7 $8 $9 X,Y pos of 4 corners*
0 Add a 4 corners polygon primitive as box body*
4,1,4,$2,$3,$4,$5,$6,$7,$8,$9,$2,$3,0*
0 Add four circle primitives for the rounded corners*
1,1,$1+$1,$2,$3*
1,1,$1+$1,$4,$5*
1,1,$1+$1,$6,$7*
1,1,$1+$1,$8,$9*
0 Add four rect primitives between the rounded corners*
20,1,$1+$1,$2,$3,$4,$5,0*
20,1,$1+$1,$4,$5,$6,$7,0*
20,1,$1+$1,$6,$7,$8,$9,0*
20,1,$1+$1,$8,$9,$2,$3,0*%
G04 Aperture macros list end*
%TA.AperFunction,SMDPad,CuDef*%
%ADD10RoundRect,0.237500X-0.237500X0.287500X-0.237500X-0.287500X0.237500X-0.287500X0.237500X0.287500X0*%
%TD*%
%TA.AperFunction,SMDPad,CuDef*%
%ADD11R,0.890000X0.930000*%
%TD*%
%TA.AperFunction,SMDPad,CuDef*%
%ADD12R,0.930000X0.890000*%
%TD*%
%TA.AperFunction,SMDPad,CuDef*%
%ADD13R,0.838200X0.355600*%
%TD*%
%TA.AperFunction,SMDPad,CuDef*%
%ADD14R,0.355600X0.254000*%
%TD*%
%TA.AperFunction,SMDPad,CuDef*%
%ADD15RoundRect,0.237500X0.237500X-0.287500X0.237500X0.287500X-0.237500X0.287500X-0.237500X-0.287500X0*%
%TD*%
%TA.AperFunction,SMDPad,CuDef*%
%ADD16R,0.762000X0.660400*%
%TD*%
%TA.AperFunction,SMDPad,CuDef*%
%ADD17RoundRect,0.062500X0.337500X0.062500X-0.337500X0.062500X-0.337500X-0.062500X0.337500X-0.062500X0*%
%TD*%
%TA.AperFunction,SMDPad,CuDef*%
%ADD18R,0.254000X0.355600*%
%TD*%
%TA.AperFunction,SMDPad,CuDef*%
%ADD19R,0.660400X0.762000*%
%TD*%
%TA.AperFunction,SMDPad,CuDef*%
%ADD20RoundRect,0.237500X-0.237500X0.300000X-0.237500X-0.300000X0.237500X-0.300000X0.237500X0.300000X0*%
%TD*%
%TA.AperFunction,SMDPad,CuDef*%
%ADD21R,0.660400X1.371600*%
%TD*%
%TA.AperFunction,SMDPad,CuDef*%
%ADD22R,0.230000X0.660000*%
%TD*%
%TA.AperFunction,SMDPad,CuDef*%
%ADD23R,0.350000X0.660000*%
%TD*%
%TA.AperFunction,ViaPad*%
%ADD24C,0.350000*%
%TD*%
%TA.AperFunction,ViaPad*%
%ADD25C,0.403200*%
%TD*%
%TA.AperFunction,Conductor*%
%ADD26C,0.152400*%
%TD*%
%TA.AperFunction,Conductor*%
%ADD27C,0.203200*%
%TD*%
%TA.AperFunction,Conductor*%
%ADD28C,0.127000*%
%TD*%
%TA.AperFunction,Conductor*%
%ADD29C,0.304800*%
%TD*%
G04 APERTURE END LIST*
D10*
%TO.P,R26,1*%
%TO.N,+3V3*%
X135407400Y-89142600D03*
%TO.P,R26,2*%
%TO.N,/Flash + JTAG/FLASH_SCK*%
X135407400Y-90892600D03*
%TD*%
D11*
%TO.P,C23,1*%
%TO.N,+2V5*%
X124260000Y-82300000D03*
%TO.P,C23,2*%
%TO.N,GND*%
X125800000Y-82300000D03*
%TD*%
D10*
%TO.P,R24,1*%
%TO.N,+3V3*%
X139115800Y-89142600D03*
%TO.P,R24,2*%
%TO.N,/Flash + JTAG/FLASH_IO2*%
X139115800Y-90892600D03*
%TD*%
D12*
%TO.P,C16,1*%
%TO.N,+3V3*%
X142824200Y-83837400D03*
%TO.P,C16,2*%
%TO.N,GND*%
X142824200Y-85377400D03*
%TD*%
D10*
%TO.P,R23,1*%
%TO.N,+3V3*%
X140944600Y-89142600D03*
%TO.P,R23,2*%
%TO.N,/Flash + JTAG/FLASH_IO1*%
X140944600Y-90892600D03*
%TD*%
D11*
%TO.P,C29,1*%
%TO.N,+3V3*%
X124250000Y-80500000D03*
%TO.P,C29,2*%
%TO.N,GND*%
X125790000Y-80500000D03*
%TD*%
D13*
%TO.P,C1,1*%
%TO.N,+5V*%
X95894873Y-84874345D03*
%TO.P,C1,2*%
%TO.N,GND*%
X95894873Y-86525345D03*
%TD*%
%TO.P,C4,1*%
%TO.N,+5V*%
X95894873Y-76899000D03*
%TO.P,C4,2*%
%TO.N,GND*%
X95894873Y-78550000D03*
%TD*%
D14*
%TO.P,C36,1*%
%TO.N,+3V3*%
X118491200Y-82900000D03*
%TO.P,C36,2*%
%TO.N,GND*%
X119050000Y-82900000D03*
%TD*%
%TO.P,C33,1*%
%TO.N,+2V5*%
X118070600Y-76400000D03*
%TO.P,C33,2*%
%TO.N,GND*%
X118629400Y-76400000D03*
%TD*%
D15*
%TO.P,R31,1*%
%TO.N,JTAG_TMS*%
X137210800Y-63079600D03*
%TO.P,R31,2*%
%TO.N,+3V3*%
X137210800Y-61329600D03*
%TD*%
D16*
%TO.P,C28,1*%
%TO.N,+3V3*%
X111350000Y-85577700D03*
%TO.P,C28,2*%
%TO.N,GND*%
X111350000Y-86822300D03*
%TD*%
D15*
%TO.P,R33,1*%
%TO.N,+3V3*%
X129768600Y-90904000D03*
%TO.P,R33,2*%
%TO.N,/Flash + JTAG/CS1N*%
X129768600Y-89154000D03*
%TD*%
D11*
%TO.P,C20,1*%
%TO.N,+1V1*%
X124260000Y-76900000D03*
%TO.P,C20,2*%
%TO.N,GND*%
X125800000Y-76900000D03*
%TD*%
D17*
%TO.P,U1,1,EN*%
%TO.N,/Power/3V3_EN*%
X99907258Y-84664845D03*
%TO.P,U1,2,FB*%
%TO.N,Net-(U1-FB)*%
X99907258Y-85164845D03*
%TO.P,U1,3,AGND*%
%TO.N,GND*%
X99907258Y-85664845D03*
%TO.P,U1,4,NC*%
%TO.N,unconnected-(U1-NC-Pad4)*%
X99907258Y-86164845D03*
%TO.P,U1,5,PGND*%
%TO.N,GND*%
X98457258Y-86164845D03*
%TO.P,U1,6,SW*%
%TO.N,/Power/SW_3V3*%
X98457258Y-85664845D03*
%TO.P,U1,7,VIN*%
%TO.N,+5V*%
X98457258Y-85164845D03*
%TO.P,U1,8,PG*%
%TO.N,/Power/3V3_PG*%
X98457258Y-84664845D03*
%TD*%
D15*
%TO.P,R27,1*%
%TO.N,/Flash + JTAG/FLASH_CSN*%
X142798800Y-90867200D03*
%TO.P,R27,2*%
%TO.N,+3V3*%
X142798800Y-89117200D03*
%TD*%
D14*
%TO.P,C31,1*%
%TO.N,+1V1*%
X121329400Y-75600000D03*
%TO.P,C31,2*%
%TO.N,GND*%
X120770600Y-75600000D03*
%TD*%
D10*
%TO.P,R36,1*%
%TO.N,ECP5_INITN*%
X132232400Y-66993800D03*
%TO.P,R36,2*%
%TO.N,+3V3*%
X132232400Y-68743800D03*
%TD*%
D18*
%TO.P,C34,1*%
%TO.N,+2V5*%
X116750000Y-82479400D03*
%TO.P,C34,2*%
%TO.N,GND*%
X116750000Y-81920600D03*
%TD*%
D12*
%TO.P,C30,1*%
%TO.N,+3V3*%
X142800000Y-79310000D03*
%TO.P,C30,2*%
%TO.N,GND*%
X142800000Y-80850000D03*
%TD*%
D15*
%TO.P,R39,1*%
%TO.N,+3V3*%
X130530600Y-68743800D03*
%TO.P,R39,2*%
%TO.N,ECP5_DONE*%
X130530600Y-66993800D03*
%TD*%
D19*
%TO.P,C6,1*%
%TO.N,+2V5*%
X95209888Y-80772000D03*
%TO.P,C6,2*%
%TO.N,GND*%
X96454488Y-80772000D03*
%TD*%
D10*
%TO.P,R29,1*%
%TO.N,JTAG_TDO*%
X133883400Y-61355000D03*
%TO.P,R29,2*%
%TO.N,+3V3*%
X133883400Y-63105000D03*
%TD*%
D19*
%TO.P,C18,1*%
%TO.N,+3V3*%
X95209888Y-92024200D03*
%TO.P,C18,2*%
%TO.N,GND*%
X96454488Y-92024200D03*
%TD*%
D15*
%TO.P,R38,1*%
%TO.N,Net-(D6-A)*%
X128828800Y-68743800D03*
%TO.P,R38,2*%
%TO.N,ECP5_DONE*%
X128828800Y-66993800D03*
%TD*%
D18*
%TO.P,C41,1*%
%TO.N,+1V1*%
X122250000Y-72658800D03*
%TO.P,C41,2*%
%TO.N,GND*%
X122250000Y-72100000D03*
%TD*%
D15*
%TO.P,R6,1*%
%TO.N,+2V5*%
X103788354Y-78599000D03*
%TO.P,R6,2*%
%TO.N,Net-(U3-FB)*%
X103788354Y-76849000D03*
%TD*%
%TO.P,R34,1*%
%TO.N,+3V3*%
X126085600Y-90918000D03*
%TO.P,R34,2*%
%TO.N,/Flash + JTAG/SN_CSN*%
X126085600Y-89168000D03*
%TD*%
D19*
%TO.P,C19,1*%
%TO.N,+3V3*%
X95209888Y-88578845D03*
%TO.P,C19,2*%
%TO.N,GND*%
X96454488Y-88578845D03*
%TD*%
D15*
%TO.P,R35,1*%
%TO.N,+3V3*%
X128231700Y-63155800D03*
%TO.P,R35,2*%
%TO.N,ECP5_PRGMN_BTN*%
X128231700Y-61405800D03*
%TD*%
D12*
%TO.P,C15,1*%
%TO.N,+3V3*%
X142824200Y-69181600D03*
%TO.P,C15,2*%
%TO.N,GND*%
X142824200Y-70721600D03*
%TD*%
D10*
%TO.P,R22,1*%
%TO.N,+3V3*%
X133553200Y-89142600D03*
%TO.P,R22,2*%
%TO.N,/Flash + JTAG/FLASH_IO0*%
X133553200Y-90892600D03*
%TD*%
%TO.P,R25,1*%
%TO.N,+3V3*%
X137287000Y-89142600D03*
%TO.P,R25,2*%
%TO.N,/Flash + JTAG/FLASH_IO3*%
X137287000Y-90892600D03*
%TD*%
%TO.P,R2,1*%
%TO.N,Net-(U1-FB)*%
X101756354Y-84636845D03*
%TO.P,R2,2*%
%TO.N,GND*%
X101756354Y-86386845D03*
%TD*%
D16*
%TO.P,C5,1*%
%TO.N,+2V5*%
X105586354Y-78346300D03*
%TO.P,C5,2*%
%TO.N,Net-(U3-FB)*%
X105586354Y-77101700D03*
%TD*%
D14*
%TO.P,C40,1*%
%TO.N,+2V5*%
X121308800Y-74750000D03*
%TO.P,C40,2*%
%TO.N,GND*%
X120750000Y-74750000D03*
%TD*%
D12*
%TO.P,C24,1*%
%TO.N,+2V5*%
X116350000Y-77080000D03*
%TO.P,C24,2*%
%TO.N,GND*%
X116350000Y-78620000D03*
%TD*%
D10*
%TO.P,R7,1*%
%TO.N,Net-(U3-FB)*%
X101756354Y-76849000D03*
%TO.P,R7,2*%
%TO.N,GND*%
X101756354Y-78599000D03*
%TD*%
D16*
%TO.P,C9,1*%
%TO.N,+1V1*%
X105586354Y-68795900D03*
%TO.P,C9,2*%
%TO.N,Net-(U5-FB)*%
X105586354Y-67551300D03*
%TD*%
D17*
%TO.P,U5,1,EN*%
%TO.N,/Power/1V1_EN*%
X99907258Y-67157600D03*
%TO.P,U5,2,FB*%
%TO.N,Net-(U5-FB)*%
X99907258Y-67657600D03*
%TO.P,U5,3,AGND*%
%TO.N,GND*%
X99907258Y-68157600D03*
%TO.P,U5,4,NC*%
%TO.N,unconnected-(U5-NC-Pad4)*%
X99907258Y-68657600D03*
%TO.P,U5,5,PGND*%
%TO.N,GND*%
X98457258Y-68657600D03*
%TO.P,U5,6,SW*%
%TO.N,/Power/SW_1V1*%
X98457258Y-68157600D03*
%TO.P,U5,7,VIN*%
%TO.N,+5V*%
X98457258Y-67657600D03*
%TO.P,U5,8,PG*%
%TO.N,/Power/1V1_PG*%
X98457258Y-67157600D03*
%TD*%
D12*
%TO.P,C13,1*%
%TO.N,+3V3*%
X131292600Y-85742400D03*
%TO.P,C13,2*%
%TO.N,GND*%
X131292600Y-87282400D03*
%TD*%
D17*
%TO.P,U3,1,EN*%
%TO.N,/Power/2V5_EN*%
X99907258Y-76708000D03*
%TO.P,U3,2,FB*%
%TO.N,Net-(U3-FB)*%
X99907258Y-77208000D03*
%TO.P,U3,3,AGND*%
%TO.N,GND*%
X99907258Y-77708000D03*
%TO.P,U3,4,NC*%
%TO.N,unconnected-(U3-NC-Pad4)*%
X99907258Y-78208000D03*
%TO.P,U3,5,PGND*%
%TO.N,GND*%
X98457258Y-78208000D03*
%TO.P,U3,6,SW*%
%TO.N,/Power/SW_2V5*%
X98457258Y-77708000D03*
%TO.P,U3,7,VIN*%
%TO.N,+5V*%
X98457258Y-77208000D03*
%TO.P,U3,8,PG*%
%TO.N,/Power/2V5_PG*%
X98457258Y-76708000D03*
%TD*%
D15*
%TO.P,R30,1*%
%TO.N,JTAG_TDI*%
X135559800Y-63079600D03*
%TO.P,R30,2*%
%TO.N,+3V3*%
X135559800Y-61329600D03*
%TD*%
D11*
%TO.P,C21,1*%
%TO.N,+1V1*%
X124260000Y-75150000D03*
%TO.P,C21,2*%
%TO.N,GND*%
X125800000Y-75150000D03*
%TD*%
D10*
%TO.P,R12,1*%
%TO.N,Net-(U5-FB)*%
X101756354Y-67298600D03*
%TO.P,R12,2*%
%TO.N,GND*%
X101756354Y-69048600D03*
%TD*%
D19*
%TO.P,C10,1*%
%TO.N,+1V1*%
X95237300Y-72263000D03*
%TO.P,C10,2*%
%TO.N,GND*%
X96481900Y-72263000D03*
%TD*%
%TO.P,C3,1*%
%TO.N,+3V3*%
X95209888Y-90119200D03*
%TO.P,C3,2*%
%TO.N,GND*%
X96454488Y-90119200D03*
%TD*%
D20*
%TO.P,C12,1*%
%TO.N,ECP5_PRGMN_BTN*%
X129958900Y-61418300D03*
%TO.P,C12,2*%
%TO.N,GND*%
X129958900Y-63143300D03*
%TD*%
D15*
%TO.P,R37,1*%
%TO.N,Net-(D5-A)*%
X133934200Y-68743800D03*
%TO.P,R37,2*%
%TO.N,+3V3*%
X133934200Y-66993800D03*
%TD*%
D14*
%TO.P,C39,1*%
%TO.N,+2V5*%
X117479400Y-80950000D03*
%TO.P,C39,2*%
%TO.N,GND*%
X116920600Y-80950000D03*
%TD*%
D15*
%TO.P,R1,1*%
%TO.N,+3V3*%
X103788354Y-86386845D03*
%TO.P,R1,2*%
%TO.N,Net-(U1-FB)*%
X103788354Y-84636845D03*
%TD*%
%TO.P,R32,1*%
%TO.N,+3V3*%
X127914400Y-90918000D03*
%TO.P,R32,2*%
%TO.N,/Flash + JTAG/WRITEN*%
X127914400Y-89168000D03*
%TD*%
D13*
%TO.P,C8,1*%
%TO.N,+5V*%
X95894873Y-67322700D03*
%TO.P,C8,2*%
%TO.N,GND*%
X95894873Y-68973700D03*
%TD*%
D14*
%TO.P,C42,1*%
%TO.N,+1V1*%
X118500000Y-81600000D03*
%TO.P,C42,2*%
%TO.N,GND*%
X119058800Y-81600000D03*
%TD*%
D15*
%TO.P,R11,1*%
%TO.N,+1V1*%
X103788354Y-69048600D03*
%TO.P,R11,2*%
%TO.N,Net-(U5-FB)*%
X103788354Y-67298600D03*
%TD*%
D18*
%TO.P,C37,1*%
%TO.N,+3V3*%
X118350000Y-75279400D03*
%TO.P,C37,2*%
%TO.N,GND*%
X118350000Y-74720600D03*
%TD*%
D21*
%TO.P,L2,1,1*%
%TO.N,/Power/SW_2V5*%
X92044873Y-78130400D03*
%TO.P,L2,2,2*%
%TO.N,+2V5*%
X92044873Y-80518000D03*
%TD*%
D15*
%TO.P,R28,1*%
%TO.N,GND*%
X132207000Y-63105000D03*
%TO.P,R28,2*%
%TO.N,JTAG_TCK*%
X132207000Y-61355000D03*
%TD*%
D19*
%TO.P,C25,1*%
%TO.N,+2V5*%
X118477700Y-79300000D03*
%TO.P,C25,2*%
%TO.N,GND*%
X119722300Y-79300000D03*
%TD*%
D21*
%TO.P,L3,1,1*%
%TO.N,/Power/SW_1V1*%
X92044873Y-68529200D03*
%TO.P,L3,2,2*%
%TO.N,+1V1*%
X92044873Y-70916800D03*
%TD*%
D16*
%TO.P,C2,1*%
%TO.N,+3V3*%
X105586354Y-86134145D03*
%TO.P,C2,2*%
%TO.N,Net-(U1-FB)*%
X105586354Y-84889545D03*
%TD*%
D22*
%TO.P,J1,1,1*%
%TO.N,JTAG_TDO*%
X124670000Y-60935000D03*
%TO.P,J1,2,2*%
%TO.N,JTAG_TMS*%
X124670000Y-63645000D03*
%TO.P,J1,3,3*%
%TO.N,JTAG_TCK*%
X124270000Y-60935000D03*
%TO.P,J1,4,4*%
%TO.N,JTAG_TDI*%
X124270000Y-63645000D03*
%TO.P,J1,5,5*%
%TO.N,GND*%
X123870000Y-60935000D03*
%TO.P,J1,6,6*%
%TO.N,ECP5_INITN*%
X123870000Y-63645000D03*
%TO.P,J1,7,7*%
%TO.N,ECP5_PRGMN_BTN*%
X123470000Y-60935000D03*
%TO.P,J1,8,8*%
%TO.N,ECP5_DONE*%
X123470000Y-63645000D03*
%TO.P,J1,9,9*%
%TO.N,IO_C12*%
X123070000Y-60935000D03*
%TO.P,J1,10,10*%
%TO.N,/Hirose Connectors/IO_P2*%
X123070000Y-63645000D03*
%TO.P,J1,11,11*%
%TO.N,IO_C13*%
X122670000Y-60935000D03*
%TO.P,J1,12,12*%
%TO.N,/Hirose Connectors/IO_P4*%
X122670000Y-63645000D03*
%TO.P,J1,13,13*%
%TO.N,IO_C14*%
X122270000Y-60935000D03*
%TO.P,J1,14,14*%
%TO.N,/Hirose Connectors/IO_N4*%
X122270000Y-63645000D03*
%TO.P,J1,15,15*%
%TO.N,IO_C15*%
X121870000Y-60935000D03*
%TO.P,J1,16,16*%
%TO.N,unconnected-(J1-Pad16)*%
X121870000Y-63645000D03*
%TO.P,J1,17,17*%
%TO.N,IO_C16*%
X121470000Y-60935000D03*
%TO.P,J1,18,18*%
%TO.N,IO_F19*%
X121470000Y-63645000D03*
%TO.P,J1,19,19*%
%TO.N,IO_C17*%
X121070000Y-60935000D03*
%TO.P,J1,20,20*%
%TO.N,IO_F17*%
X121070000Y-63645000D03*
%TO.P,J1,21,21*%
%TO.N,IO_B18*%
X120670000Y-60935000D03*
%TO.P,J1,22,22*%
%TO.N,IO_E19*%
X120670000Y-63645000D03*
%TO.P,J1,23,23*%
%TO.N,IO_B17*%
X120270000Y-60935000D03*
%TO.P,J1,24,24*%
%TO.N,IO_E18*%
X120270000Y-63645000D03*
%TO.P,J1,25,25*%
%TO.N,IO_B16*%
X119870000Y-60935000D03*
%TO.P,J1,26,26*%
%TO.N,IO_D19*%
X119870000Y-63645000D03*
%TO.P,J1,27,27*%
%TO.N,IO_B15*%
X119470000Y-60935000D03*
%TO.P,J1,28,28*%
%TO.N,IO_D18*%
X119470000Y-63645000D03*
%TO.P,J1,29,29*%
%TO.N,IO_B13*%
X119070000Y-60935000D03*
%TO.P,J1,30,30*%
%TO.N,IO_E17*%
X119070000Y-63645000D03*
%TO.P,J1,31,31*%
%TO.N,IO_B12*%
X118670000Y-60935000D03*
%TO.P,J1,32,32*%
%TO.N,IO_A18*%
X118670000Y-63645000D03*
%TO.P,J1,33,33*%
%TO.N,IO_B11*%
X118270000Y-60935000D03*
%TO.P,J1,34,34*%
%TO.N,IO_A17*%
X118270000Y-63645000D03*
%TO.P,J1,35,35*%
%TO.N,IO_B10*%
X117870000Y-60935000D03*
%TO.P,J1,36,36*%
%TO.N,IO_A16*%
X117870000Y-63645000D03*
%TO.P,J1,37,37*%
%TO.N,IO_B9*%
X117470000Y-60935000D03*
%TO.P,J1,38,38*%
%TO.N,IO_A15*%
X117470000Y-63645000D03*
%TO.P,J1,39,39*%
%TO.N,IO_B8*%
X117070000Y-60935000D03*
%TO.P,J1,40,40*%
%TO.N,IO_A14*%
X117070000Y-63645000D03*
%TO.P,J1,41,41*%
%TO.N,IO_B6*%
X116670000Y-60935000D03*
%TO.P,J1,42,42*%
%TO.N,IO_A13*%
X116670000Y-63645000D03*
%TO.P,J1,43,43*%
%TO.N,IO_U19*%
X116270000Y-60935000D03*
%TO.P,J1,44,44*%
%TO.N,IO_A12*%
X116270000Y-63645000D03*
%TO.P,J1,45,45*%
%TO.N,IO_T19*%
X115870000Y-60935000D03*
%TO.P,J1,46,46*%
%TO.N,IO_A11*%
X115870000Y-63645000D03*
%TO.P,J1,47,47*%
%TO.N,IO_P19*%
X115470000Y-60935000D03*
%TO.P,J1,48,48*%
%TO.N,IO_A10*%
X115470000Y-63645000D03*
%TO.P,J1,49,49*%
%TO.N,IO_N19*%
X115070000Y-60935000D03*
%TO.P,J1,50,50*%
%TO.N,IO_A9*%
X115070000Y-63645000D03*
%TO.P,J1,51,51*%
%TO.N,/Hirose Connectors/IO_P5*%
X114670000Y-60935000D03*
%TO.P,J1,52,52*%
%TO.N,IO_A8*%
X114670000Y-63645000D03*
%TO.P,J1,53,53*%
%TO.N,IO_M19*%
X114270000Y-60935000D03*
%TO.P,J1,54,54*%
%TO.N,IO_A7*%
X114270000Y-63645000D03*
%TO.P,J1,55,55*%
%TO.N,/Hirose Connectors/IO_N5*%
X113870000Y-60935000D03*
%TO.P,J1,56,56*%
%TO.N,IO_A6*%
X113870000Y-63645000D03*
%TO.P,J1,57,57*%
%TO.N,IO_L19*%
X113470000Y-60935000D03*
%TO.P,J1,58,58*%
%TO.N,IO_U20*%
X113470000Y-63645000D03*
%TO.P,J1,59,59*%
%TO.N,/Hirose Connectors/IO_E7*%
X113070000Y-60935000D03*
%TO.P,J1,60,60*%
%TO.N,IO_T20*%
X113070000Y-63645000D03*
%TO.P,J1,61,61*%
%TO.N,IO_K19*%
X112670000Y-60935000D03*
%TO.P,J1,62,62*%
%TO.N,IO_R20*%
X112670000Y-63645000D03*
%TO.P,J1,63,63*%
%TO.N,IO_J19*%
X112270000Y-60935000D03*
%TO.P,J1,64,64*%
%TO.N,IO_P20*%
X112270000Y-63645000D03*
%TO.P,J1,65,65*%
%TO.N,GND*%
X111870000Y-60935000D03*
%TO.P,J1,66,66*%
%TO.N,IO_N20*%
X111870000Y-63645000D03*
%TO.P,J1,67,67*%
%TO.N,GND*%
X111470000Y-60935000D03*
%TO.P,J1,68,68*%
%TO.N,IO_M20*%
X111470000Y-63645000D03*
%TO.P,J1,69,69*%
%TO.N,GND*%
X111070000Y-60935000D03*
%TO.P,J1,70,70*%
%TO.N,IO_L20*%
X111070000Y-63645000D03*
%TO.P,J1,71,71*%
%TO.N,GND*%
X110670000Y-60935000D03*
%TO.P,J1,72,72*%
%TO.N,IO_K20*%
X110670000Y-63645000D03*
%TO.P,J1,73,73*%
%TO.N,GND*%
X110270000Y-60935000D03*
%TO.P,J1,74,74*%
%TO.N,IO_J20*%
X110270000Y-63645000D03*
%TO.P,J1,75,75*%
%TO.N,GND*%
X109870000Y-60935000D03*
%TO.P,J1,76,76*%
%TO.N,IO_H20*%
X109870000Y-63645000D03*
%TO.P,J1,77,77*%
%TO.N,+3V3*%
X109470000Y-60935000D03*
%TO.P,J1,78,78*%
%TO.N,IO_G20*%
X109470000Y-63645000D03*
%TO.P,J1,79,79*%
%TO.N,+3V3*%
X109070000Y-60935000D03*
%TO.P,J1,80,80*%
%TO.N,IO_F20*%
X109070000Y-63645000D03*
%TO.P,J1,81,81*%
%TO.N,+3V3*%
X108670000Y-60935000D03*
%TO.P,J1,82,82*%
%TO.N,IO_E20*%
X108670000Y-63645000D03*
%TO.P,J1,83,83*%
%TO.N,+3V3*%
X108270000Y-60935000D03*
%TO.P,J1,84,84*%
%TO.N,IO_D20*%
X108270000Y-63645000D03*
%TO.P,J1,85,85*%
%TO.N,+3V3*%
X107870000Y-60935000D03*
%TO.P,J1,86,86*%
%TO.N,IO_C20*%
X107870000Y-63645000D03*
%TO.P,J1,87,87*%
%TO.N,+3V3*%
X107470000Y-60935000D03*
%TO.P,J1,88,88*%
%TO.N,IO_B20*%
X107470000Y-63645000D03*
%TO.P,J1,89,89*%
%TO.N,+5V*%
X107070000Y-60935000D03*
%TO.P,J1,90,90*%
%TO.N,IO_D14*%
X107070000Y-63645000D03*
%TO.P,J1,91,91*%
%TO.N,+5V*%
X106670000Y-60935000D03*
%TO.P,J1,92,92*%
%TO.N,IO_D15*%
X106670000Y-63645000D03*
%TO.P,J1,93,93*%
%TO.N,+5V*%
X106270000Y-60935000D03*
%TO.P,J1,94,94*%
%TO.N,IO_D13*%
X106270000Y-63645000D03*
%TO.P,J1,95,95*%
%TO.N,+5V*%
X105870000Y-60935000D03*
%TO.P,J1,96,96*%
%TO.N,IO_D12*%
X105870000Y-63645000D03*
%TO.P,J1,97,97*%
%TO.N,+5V*%
X105470000Y-60935000D03*
%TO.P,J1,98,98*%
%TO.N,IO_B19*%
X105470000Y-63645000D03*
%TO.P,J1,99,99*%
%TO.N,+5V*%
X105070000Y-60935000D03*
%TO.P,J1,100,100*%
%TO.N,IO_A19*%
X105070000Y-63645000D03*
D23*
%TO.P,J1,S1*%
%TO.N,N/C*%
X125145000Y-63645000D03*
%TO.P,J1,S2*%
X125145000Y-60935000D03*
%TO.P,J1,S3*%
X104595000Y-63645000D03*
%TO.P,J1,S4*%
X104595000Y-60935000D03*
%TD*%
D11*
%TO.P,C27,1*%
%TO.N,+3V3*%
X124260000Y-78650000D03*
%TO.P,C27,2*%
%TO.N,GND*%
X125800000Y-78650000D03*
%TD*%
D12*
%TO.P,C14,1*%
%TO.N,+3V3*%
X131292600Y-81399000D03*
%TO.P,C14,2*%
%TO.N,GND*%
X131292600Y-82939000D03*
%TD*%
D14*
%TO.P,C32,1*%
%TO.N,+1V1*%
X118500000Y-80950000D03*
%TO.P,C32,2*%
%TO.N,GND*%
X119058800Y-80950000D03*
%TD*%
D10*
%TO.P,R21,1*%
%TO.N,Net-(U9I-CFG_1)*%
X131648200Y-89142600D03*
%TO.P,R21,2*%
%TO.N,+3V3*%
X131648200Y-90892600D03*
%TD*%
D19*
%TO.P,C7,1*%
%TO.N,+2V5*%
X95209888Y-82423000D03*
%TO.P,C7,2*%
%TO.N,GND*%
X96454488Y-82423000D03*
%TD*%
D18*
%TO.P,C35,1*%
%TO.N,+3V3*%
X122100000Y-79629400D03*
%TO.P,C35,2*%
%TO.N,GND*%
X122100000Y-79070600D03*
%TD*%
D14*
%TO.P,C38,1*%
%TO.N,+3V3*%
X118491200Y-82250000D03*
%TO.P,C38,2*%
%TO.N,GND*%
X119050000Y-82250000D03*
%TD*%
D22*
%TO.P,J2,1,1*%
%TO.N,IO_V1*%
X124670000Y-94930000D03*
%TO.P,J2,2,2*%
%TO.N,IO_C10*%
X124670000Y-97640000D03*
%TO.P,J2,3,3*%
%TO.N,unconnected-(J2-Pad3)*%
X124270000Y-94930000D03*
%TO.P,J2,4,4*%
%TO.N,/Hirose Connectors/IO_P3*%
X124270000Y-97640000D03*
%TO.P,J2,5,5*%
%TO.N,IO_U1*%
X123870000Y-94930000D03*
%TO.P,J2,6,6*%
%TO.N,/Hirose Connectors/IO_D11*%
X123870000Y-97640000D03*
%TO.P,J2,7,7*%
%TO.N,unconnected-(J2-Pad7)*%
X123470000Y-94930000D03*
%TO.P,J2,8,8*%
%TO.N,/Hirose Connectors/IO_N2*%
X123470000Y-97640000D03*
%TO.P,J2,9,9*%
%TO.N,IO_T1*%
X123070000Y-94930000D03*
%TO.P,J2,10,10*%
%TO.N,/Hirose Connectors/IO_C9*%
X123070000Y-97640000D03*
%TO.P,J2,11,11*%
%TO.N,unconnected-(J2-Pad11)*%
X122670000Y-94930000D03*
%TO.P,J2,12,12*%
%TO.N,/Hirose Connectors/IO_N3*%
X122670000Y-97640000D03*
%TO.P,J2,13,13*%
%TO.N,IO_R1*%
X122270000Y-94930000D03*
%TO.P,J2,14,14*%
%TO.N,/Hirose Connectors/IO_C8*%
X122270000Y-97640000D03*
%TO.P,J2,15,15*%
%TO.N,unconnected-(J2-Pad15)*%
X121870000Y-94930000D03*
%TO.P,J2,16,16*%
%TO.N,/Hirose Connectors/IO_M3*%
X121870000Y-97640000D03*
%TO.P,J2,17,17*%
%TO.N,/Hirose Connectors/IO_P1*%
X121470000Y-94930000D03*
%TO.P,J2,18,18*%
%TO.N,/Hirose Connectors/IO_C7*%
X121470000Y-97640000D03*
%TO.P,J2,19,19*%
%TO.N,unconnected-(J2-Pad19)*%
X121070000Y-94930000D03*
%TO.P,J2,20,20*%
%TO.N,/Hirose Connectors/IO_L3*%
X121070000Y-97640000D03*
%TO.P,J2,21,21*%
%TO.N,IO_N1*%
X120670000Y-94930000D03*
%TO.P,J2,22,22*%
%TO.N,/Hirose Connectors/IO_C6*%
X120670000Y-97640000D03*
%TO.P,J2,23,23*%
%TO.N,unconnected-(J2-Pad23)*%
X120270000Y-94930000D03*
%TO.P,J2,24,24*%
%TO.N,/Hirose Connectors/IO_L2*%
X120270000Y-97640000D03*
%TO.P,J2,25,25*%
%TO.N,IO_M1*%
X119870000Y-94930000D03*
%TO.P,J2,26,26*%
%TO.N,/Hirose Connectors/IO_C11*%
X119870000Y-97640000D03*
%TO.P,J2,27,27*%
%TO.N,unconnected-(J2-Pad27)*%
X119470000Y-94930000D03*
%TO.P,J2,28,28*%
%TO.N,/Hirose Connectors/IO_F3*%
X119470000Y-97640000D03*
%TO.P,J2,29,29*%
%TO.N,IO_L1*%
X119070000Y-94930000D03*
%TO.P,J2,30,30*%
%TO.N,/Hirose Connectors/IO_K2*%
X119070000Y-97640000D03*
%TO.P,J2,31,31*%
%TO.N,unconnected-(J2-Pad31)*%
X118670000Y-94930000D03*
%TO.P,J2,32,32*%
%TO.N,/Hirose Connectors/IO_K3*%
X118670000Y-97640000D03*
%TO.P,J2,33,33*%
%TO.N,IO_K1*%
X118270000Y-94930000D03*
%TO.P,J2,34,34*%
%TO.N,/Hirose Connectors/IO_J3*%
X118270000Y-97640000D03*
%TO.P,J2,35,35*%
%TO.N,IO_J1*%
X117870000Y-94930000D03*
%TO.P,J2,36,36*%
%TO.N,/Hirose Connectors/IO_H2*%
X117870000Y-97640000D03*
%TO.P,J2,37,37*%
%TO.N,unconnected-(J2-Pad37)*%
X117470000Y-94930000D03*
%TO.P,J2,38,38*%
%TO.N,/Hirose Connectors/IO_E3*%
X117470000Y-97640000D03*
%TO.P,J2,39,39*%
%TO.N,IO_H1*%
X117070000Y-94930000D03*
%TO.P,J2,40,40*%
%TO.N,/Hirose Connectors/IO_D3*%
X117070000Y-97640000D03*
%TO.P,J2,41,41*%
%TO.N,unconnected-(J2-Pad41)*%
X116670000Y-94930000D03*
%TO.P,J2,42,42*%
%TO.N,/Hirose Connectors/IO_C2*%
X116670000Y-97640000D03*
%TO.P,J2,43,43*%
%TO.N,IO_G1*%
X116270000Y-94930000D03*
%TO.P,J2,44,44*%
%TO.N,unconnected-(J2-Pad44)*%
X116270000Y-97640000D03*
%TO.P,J2,45,45*%
%TO.N,unconnected-(J2-Pad45)*%
X115870000Y-94930000D03*
%TO.P,J2,46,46*%
%TO.N,unconnected-(J2-Pad46)*%
X115870000Y-97640000D03*
%TO.P,J2,47,47*%
%TO.N,IO_F1*%
X115470000Y-94930000D03*
%TO.P,J2,48,48*%
%TO.N,IO_C3*%
X115470000Y-97640000D03*
%TO.P,J2,49,49*%
%TO.N,IO_F2*%
X115070000Y-94930000D03*
%TO.P,J2,50,50*%
%TO.N,unconnected-(J2-Pad50)*%
X115070000Y-97640000D03*
%TO.P,J2,51,51*%
%TO.N,IO_E1*%
X114670000Y-94930000D03*
%TO.P,J2,52,52*%
%TO.N,IO_B3*%
X114670000Y-97640000D03*
%TO.P,J2,53,53*%
%TO.N,IO_E2*%
X114270000Y-94930000D03*
%TO.P,J2,54,54*%
%TO.N,/Hirose Connectors/IO_H3*%
X114270000Y-97640000D03*
%TO.P,J2,55,55*%
%TO.N,IO_D1*%
X113870000Y-94930000D03*
%TO.P,J2,56,56*%
%TO.N,IO_F4*%
X113870000Y-97640000D03*
%TO.P,J2,57,57*%
%TO.N,IO_D2*%
X113470000Y-94930000D03*
%TO.P,J2,58,58*%
%TO.N,/Hirose Connectors/IO_G3*%
X113470000Y-97640000D03*
%TO.P,J2,59,59*%
%TO.N,IO_C1*%
X113070000Y-94930000D03*
%TO.P,J2,60,60*%
%TO.N,IO_G5*%
X113070000Y-97640000D03*
%TO.P,J2,61,61*%
%TO.N,unconnected-(J2-Pad61)*%
X112670000Y-94930000D03*
%TO.P,J2,62,62*%
%TO.N,unconnected-(J2-Pad62)*%
X112670000Y-97640000D03*
%TO.P,J2,63,63*%
%TO.N,IO_B1*%
X112270000Y-94930000D03*
%TO.P,J2,64,64*%
%TO.N,IO_B5*%
X112270000Y-97640000D03*
%TO.P,J2,65,65*%
%TO.N,unconnected-(J2-Pad65)*%
X111870000Y-94930000D03*
%TO.P,J2,66,66*%
%TO.N,unconnected-(J2-Pad66)*%
X111870000Y-97640000D03*
%TO.P,J2,67,67*%
%TO.N,IO_B2*%
X111470000Y-94930000D03*
%TO.P,J2,68,68*%
%TO.N,IO_D5*%
X111470000Y-97640000D03*
%TO.P,J2,69,69*%
%TO.N,unconnected-(J2-Pad69)*%
X111070000Y-94930000D03*
%TO.P,J2,70,70*%
%TO.N,unconnected-(J2-Pad70)*%
X111070000Y-97640000D03*
%TO.P,J2,71,71*%
%TO.N,IO_A2*%
X110670000Y-94930000D03*
%TO.P,J2,72,72*%
%TO.N,IO_D6*%
X110670000Y-97640000D03*
%TO.P,J2,73,73*%
%TO.N,unconnected-(J2-Pad73)*%
X110270000Y-94930000D03*
%TO.P,J2,74,74*%
%TO.N,unconnected-(J2-Pad74)*%
X110270000Y-97640000D03*
%TO.P,J2,75,75*%
%TO.N,IO_A3*%
X109870000Y-94930000D03*
%TO.P,J2,76,76*%
%TO.N,IO_E6*%
X109870000Y-97640000D03*
%TO.P,J2,77,77*%
%TO.N,unconnected-(J2-Pad77)*%
X109470000Y-94930000D03*
%TO.P,J2,78,78*%
%TO.N,unconnected-(J2-Pad78)*%
X109470000Y-97640000D03*
%TO.P,J2,79,79*%
%TO.N,IO_A4*%
X109070000Y-94930000D03*
%TO.P,J2,80,80*%
%TO.N,IO_E5*%
X109070000Y-97640000D03*
%TO.P,J2,81,81*%
%TO.N,unconnected-(J2-Pad81)*%
X108670000Y-94930000D03*
%TO.P,J2,82,82*%
%TO.N,IO_F4*%
X108670000Y-97640000D03*
%TO.P,J2,83,83*%
%TO.N,IO_A5*%
X108270000Y-94930000D03*
%TO.P,J2,84,84*%
%TO.N,unconnected-(J2-Pad84)*%
X108270000Y-97640000D03*
%TO.P,J2,85,85*%
%TO.N,IO_E9*%
X107870000Y-94930000D03*
%TO.P,J2,86,86*%
%TO.N,IO_E4*%
X107870000Y-97640000D03*
%TO.P,J2,87,87*%
%TO.N,IO_E14*%
X107470000Y-94930000D03*
%TO.P,J2,88,88*%
%TO.N,IO_C4*%
X107470000Y-97640000D03*
%TO.P,J2,89,89*%
%TO.N,IO_E13*%
X107070000Y-94930000D03*
%TO.P,J2,90,90*%
%TO.N,IO_B4*%
X107070000Y-97640000D03*
%TO.P,J2,91,91*%
%TO.N,IO_E15*%
X106670000Y-94930000D03*
%TO.P,J2,92,92*%
%TO.N,IO_F5*%
X106670000Y-97640000D03*
%TO.P,J2,93,93*%
%TO.N,IO_E10*%
X106270000Y-94930000D03*
%TO.P,J2,94,94*%
%TO.N,IO_C5*%
X106270000Y-97640000D03*
%TO.P,J2,95,95*%
%TO.N,IO_D9*%
X105870000Y-94930000D03*
%TO.P,J2,96,96*%
%TO.N,IO_D7*%
X105870000Y-97640000D03*
%TO.P,J2,97,97*%
%TO.N,IO_E11*%
X105470000Y-94930000D03*
%TO.P,J2,98,98*%
%TO.N,IO_E8*%
X105470000Y-97640000D03*
%TO.P,J2,99,99*%
%TO.N,IO_D10*%
X105070000Y-94930000D03*
%TO.P,J2,100,100*%
%TO.N,IO_D8*%
X105070000Y-97640000D03*
D23*
%TO.P,J2,S1*%
%TO.N,N/C*%
X125145000Y-97640000D03*
%TO.P,J2,S2*%
X125145000Y-94930000D03*
%TO.P,J2,S3*%
X104595000Y-97640000D03*
%TO.P,J2,S4*%
X104595000Y-94930000D03*
%TD*%
D19*
%TO.P,C22,1*%
%TO.N,+1V1*%
X118477700Y-78003400D03*
%TO.P,C22,2*%
%TO.N,GND*%
X119722300Y-78003400D03*
%TD*%
D11*
%TO.P,C26,1*%
%TO.N,+3V3*%
X113480000Y-70150000D03*
%TO.P,C26,2*%
%TO.N,GND*%
X115020000Y-70150000D03*
%TD*%
D21*
%TO.P,L1,1,1*%
%TO.N,/Power/SW_3V3*%
X92044873Y-86056045D03*
%TO.P,L1,2,2*%
%TO.N,+3V3*%
X92044873Y-88443645D03*
%TD*%
D24*
%TO.N,GND*%
X128600000Y-75460600D03*
D25*
X100165258Y-78994000D03*
X99187000Y-84912200D03*
D24*
X111861600Y-60147200D03*
D25*
X99187000Y-85928200D03*
X99212400Y-76403200D03*
X99181942Y-67919600D03*
D24*
X111480600Y-61696600D03*
D25*
X99161600Y-77978000D03*
X98125258Y-78994000D03*
D24*
X144195800Y-85394800D03*
X132588000Y-87960200D03*
X115900000Y-73100000D03*
X129958900Y-62280800D03*
D25*
X98795258Y-86929845D03*
D24*
X131495800Y-62458600D03*
X110261400Y-60147200D03*
D25*
X98795258Y-78984000D03*
X99207342Y-66827400D03*
X100160200Y-69443600D03*
D24*
X115900000Y-80300000D03*
X112728000Y-71450000D03*
X123875800Y-60121800D03*
D25*
X99545258Y-86939845D03*
X100165258Y-86939845D03*
D24*
X116700000Y-72300000D03*
X132562600Y-83337400D03*
X115100000Y-75500000D03*
D25*
X98120200Y-69443600D03*
X99540200Y-69443600D03*
D24*
X122300000Y-84300000D03*
X117500400Y-85877400D03*
D25*
X99187000Y-85420200D03*
D24*
X123150000Y-72288400D03*
X124700000Y-84300000D03*
D25*
X98790200Y-69433600D03*
X98125258Y-86939845D03*
X99187000Y-76936600D03*
D24*
X111074200Y-60147200D03*
X115900000Y-73900000D03*
D25*
X99181942Y-67386200D03*
D24*
X115150000Y-81100000D03*
D25*
X99187000Y-84404200D03*
D24*
X115900000Y-79450000D03*
D25*
X99545258Y-78994000D03*
D24*
X115900000Y-72300000D03*
X119913400Y-85902800D03*
D25*
X99161600Y-68453000D03*
X99187000Y-77470000D03*
D24*
X109880400Y-61696600D03*
X144100000Y-80850000D03*
X128618261Y-74704200D03*
X110667800Y-61696600D03*
X113512600Y-83464400D03*
X144068800Y-70916800D03*
%TO.N,+5V*%
X101027200Y-59994800D03*
%TO.N,/Power/3V3_PG*%
X103962200Y-70231000D03*
D25*
X98196400Y-83845400D03*
D24*
%TO.N,/Power/2V5_PG*%
X103971600Y-79425800D03*
D25*
X98120200Y-75869800D03*
%TO.N,/Power/1V1_PG*%
X98094800Y-66294000D03*
D24*
X103971600Y-87579200D03*
D25*
%TO.N,+3V3*%
X119938800Y-81915000D03*
X91770200Y-92430600D03*
D24*
X130657600Y-97891600D03*
X119126000Y-75488800D03*
D25*
X91770200Y-91313000D03*
X92379800Y-91313000D03*
D24*
X133959600Y-67868800D03*
X144094200Y-89763600D03*
X107873800Y-60121800D03*
X132562600Y-80949800D03*
D25*
X92379800Y-91871800D03*
D24*
X119930000Y-75480000D03*
X133100000Y-62550000D03*
X144068800Y-79349600D03*
D25*
X117525800Y-81889600D03*
D24*
X117525800Y-75488800D03*
D25*
X117525800Y-82677000D03*
X91770200Y-91871800D03*
D24*
X122761000Y-78638400D03*
D25*
X115138200Y-78689200D03*
X115138200Y-79502000D03*
D24*
X116738400Y-75488800D03*
X144119600Y-88163400D03*
X135559800Y-62227200D03*
X109070000Y-61694200D03*
X107470000Y-61673800D03*
D25*
X92989400Y-91871800D03*
D24*
X109702600Y-93268800D03*
X108661200Y-60121800D03*
X128485700Y-62280800D03*
X144068800Y-68935600D03*
X132588000Y-85750400D03*
D25*
X92989400Y-91313000D03*
X119938800Y-82677000D03*
D24*
X129159000Y-64795400D03*
X109474000Y-60147200D03*
D25*
X92989400Y-92430600D03*
X92379800Y-92430600D03*
D24*
X108270000Y-61686400D03*
X144170400Y-83337400D03*
D25*
X115138200Y-77901800D03*
D24*
X122761000Y-79451200D03*
%TO.N,/Power/3V3_EN*%
X107086400Y-81864200D03*
X100228400Y-83845400D03*
%TO.N,/Power/2V5_EN*%
X106121200Y-81864200D03*
X100228400Y-75869800D03*
%TO.N,/Power/1V1_EN*%
X100228400Y-66344800D03*
X108026200Y-81864200D03*
%TO.N,ECP5_PRGMN_BTN*%
X126314200Y-85090000D03*
X130898700Y-62179200D03*
%TO.N,ECP5_INITN*%
X132918200Y-66268600D03*
X133070600Y-67147633D03*
X125526800Y-85090000D03*
%TO.N,Net-(D5-A)*%
X135280400Y-66227700D03*
%TO.N,Net-(D6-A)*%
X128051800Y-66852800D03*
%TO.N,IO_D1*%
X113919000Y-88773000D03*
%TO.N,IO_D2*%
X113512600Y-85877400D03*
%TO.N,IO_E6*%
X108650000Y-98450000D03*
X114350800Y-81920800D03*
%TO.N,IO_G1*%
X116840000Y-88773000D03*
%TO.N,IO_A3*%
X111099600Y-89281000D03*
%TO.N,IO_E2*%
X114325400Y-85902800D03*
%TO.N,IO_E8*%
X114325400Y-80264000D03*
X105467428Y-96967428D03*
%TO.N,IO_B3*%
X111912400Y-84302600D03*
X114650000Y-96950000D03*
%TO.N,IO_G5*%
X113050000Y-96950000D03*
X115925600Y-82702400D03*
%TO.N,IO_J1*%
X118338600Y-88773000D03*
%TO.N,IO_D6*%
X113538000Y-81889600D03*
X109550000Y-98724128D03*
%TO.N,IO_B4*%
X111912400Y-83489800D03*
X107050000Y-96950000D03*
%TO.N,IO_D5*%
X113512600Y-82677000D03*
X112895503Y-98702811D03*
%TO.N,IO_B1*%
X112318800Y-88773000D03*
%TO.N,IO_U1*%
X123870000Y-89700000D03*
%TO.N,IO_K1*%
X118350000Y-87750000D03*
%TO.N,IO_E1*%
X114706400Y-89306400D03*
%TO.N,IO_A4*%
X110718600Y-88722200D03*
%TO.N,IO_F2*%
X115112800Y-85902800D03*
%TO.N,IO_R1*%
X122270000Y-89700000D03*
%TO.N,IO_A2*%
X111506000Y-88773000D03*
%TO.N,/Hirose Connectors/IO_P1*%
X121500000Y-88800000D03*
%TO.N,IO_D8*%
X113538000Y-80289400D03*
X105050000Y-98450000D03*
%TO.N,IO_D7*%
X105850000Y-98450000D03*
X113538000Y-81076800D03*
%TO.N,IO_L1*%
X119150000Y-89700000D03*
%TO.N,IO_A5*%
X110312200Y-89281000D03*
%TO.N,IO_C5*%
X112725200Y-82677000D03*
X106250000Y-96950000D03*
%TO.N,IO_V1*%
X124650000Y-88800000D03*
%TO.N,IO_B5*%
X111937800Y-82677000D03*
X113300000Y-98450000D03*
%TO.N,IO_B2*%
X111887000Y-89306400D03*
%TO.N,IO_E5*%
X114325400Y-82677000D03*
X109050000Y-96950000D03*
%TO.N,IO_N1*%
X120221800Y-89700000D03*
%TO.N,IO_F1*%
X115519200Y-88773000D03*
%TO.N,IO_M1*%
X119650000Y-88800000D03*
%TO.N,IO_C4*%
X112725200Y-83489800D03*
X107500000Y-98450000D03*
%TO.N,IO_F4*%
X115112800Y-83489800D03*
X113950000Y-98450000D03*
X108661200Y-95950000D03*
%TO.N,IO_F5*%
X115138200Y-82677000D03*
X106650000Y-98450000D03*
%TO.N,IO_T1*%
X123100000Y-88800000D03*
%TO.N,IO_C3*%
X114650000Y-98450000D03*
X112725200Y-84277200D03*
%TO.N,IO_H1*%
X117525800Y-89700000D03*
%TO.N,IO_C1*%
X113106200Y-89306400D03*
%TO.N,IO_J20*%
X110258484Y-63003434D03*
%TO.N,ECP5_DONE*%
X127152400Y-85090000D03*
X131313552Y-66721352D03*
%TO.N,JTAG_TCK*%
X124485400Y-59944000D03*
X123926600Y-83489800D03*
%TO.N,JTAG_TDI*%
X137355450Y-68874900D03*
X123113800Y-83489800D03*
X137922000Y-65278000D03*
%TO.N,JTAG_TDO*%
X136550400Y-66227700D03*
X133477000Y-62150000D03*
X125526800Y-84302600D03*
X136550400Y-67513200D03*
%TO.N,JTAG_TMS*%
X124663200Y-64389000D03*
X124714000Y-83489800D03*
%TO.N,Net-(U9I-CFG_1)*%
X123926600Y-84302600D03*
%TO.N,/Flash + JTAG/FLASH_IO0*%
X128066800Y-94056200D03*
%TO.N,/Flash + JTAG/FLASH_IO1*%
X135305800Y-96596200D03*
X125526800Y-85877400D03*
%TO.N,/Flash + JTAG/FLASH_IO2*%
X135305800Y-95326200D03*
%TO.N,/Flash + JTAG/FLASH_IO3*%
X128066800Y-96596200D03*
%TO.N,/Flash + JTAG/FLASH_SCK*%
X124714000Y-85064600D03*
X128066800Y-95326200D03*
%TO.N,/Flash + JTAG/FLASH_CSN*%
X123113800Y-85877400D03*
X135280400Y-97866200D03*
%TO.N,/Flash + JTAG/WRITEN*%
X123113800Y-84277200D03*
%TO.N,/Flash + JTAG/CS1N*%
X123926600Y-85902800D03*
%TO.N,/Flash + JTAG/SN_CSN*%
X123113800Y-85090000D03*
%TO.N,SDRAM_A7*%
X116713000Y-73897000D03*
X132511800Y-72158600D03*
%TO.N,SDRAM_D11*%
X132588000Y-84150200D03*
X119126000Y-84277200D03*
%TO.N,SDRAM_CASN*%
X141376400Y-76911200D03*
X119126000Y-73888600D03*
%TO.N,SDRAM_D4*%
X136300000Y-84150200D03*
X119913400Y-72288400D03*
%TO.N,SDRAM_CSN*%
X121513600Y-73888600D03*
X136300000Y-75350000D03*
%TO.N,SDRAM_A11*%
X122326400Y-73888600D03*
X132511800Y-74574400D03*
%TO.N,SDRAM_D6*%
X120726200Y-73896200D03*
X136300000Y-81762600D03*
%TO.N,SDRAM_A2*%
X124714000Y-73101200D03*
X141325600Y-70561200D03*
%TO.N,SDRAM_A5*%
X123926600Y-73101200D03*
X132486400Y-70535800D03*
%TO.N,/Hirose Connectors/IO_E7*%
X113250000Y-60150000D03*
X114325400Y-81076800D03*
%TO.N,CLK_25MHZ*%
X116357400Y-91922600D03*
X115925600Y-85877400D03*
%TO.N,SDRAM_D14*%
X132588000Y-87350600D03*
X119913400Y-83464400D03*
%TO.N,SDRAM_DQM1*%
X117525800Y-84277200D03*
X130022600Y-76123800D03*
%TO.N,SDRAM_A6*%
X123926600Y-73888600D03*
X132486400Y-71348600D03*
%TO.N,SDRAM_D12*%
X132588000Y-84937600D03*
X119126000Y-83489800D03*
%TO.N,SDRAM_A1*%
X124714000Y-73888600D03*
X141325600Y-71374000D03*
%TO.N,SDRAM_A9*%
X132511800Y-73761600D03*
X118331200Y-73101200D03*
%TO.N,SDRAM_A4*%
X132461000Y-69773800D03*
X123926600Y-72288400D03*
%TO.N,SDRAM_D13*%
X132588000Y-86537800D03*
X119913400Y-84277200D03*
%TO.N,SDRAM_WEN*%
X141401800Y-77774800D03*
X119126000Y-73075800D03*
%TO.N,SDRAM_A0*%
X141325600Y-72161400D03*
X116713000Y-71500000D03*
%TO.N,SDRAM_D10*%
X132588000Y-82550000D03*
X118313200Y-83489800D03*
%TO.N,SDRAM_D1*%
X136300000Y-87325200D03*
X121513600Y-73075800D03*
%TO.N,SDRAM_D9*%
X118313200Y-84277200D03*
X132588000Y-81737200D03*
%TO.N,SDRAM_RASN*%
X141376400Y-76123800D03*
X119126000Y-74701400D03*
%TO.N,SDRAM_D8*%
X117525800Y-83464400D03*
X132562600Y-80162400D03*
%TO.N,SDRAM_D3*%
X120726200Y-72288400D03*
X136300000Y-84937600D03*
%TO.N,SDRAM_BA0*%
X141351000Y-74549000D03*
X118338600Y-73888600D03*
%TO.N,SDRAM_A10*%
X117525800Y-72313800D03*
X141325600Y-72948800D03*
%TO.N,SDRAM_D7*%
X141376400Y-80137000D03*
X119913400Y-73075800D03*
%TO.N,SDRAM_D15*%
X132613400Y-88950800D03*
X120726200Y-83515200D03*
%TO.N,SDRAM_CKE*%
X123113800Y-73075800D03*
X132511800Y-76123800D03*
%TO.N,SDRAM_D5*%
X120726200Y-73101200D03*
X136300000Y-82550000D03*
%TO.N,SDRAM_A8*%
X117525800Y-73101200D03*
X132511800Y-72974200D03*
%TO.N,SDRAM_DQM0*%
X119913400Y-73888600D03*
X141427200Y-78511400D03*
%TO.N,SDRAM_A12*%
X132511800Y-75361800D03*
X122326400Y-74676000D03*
%TO.N,SDRAM_BA1*%
X141351000Y-73761600D03*
X117525800Y-73888600D03*
%TO.N,SDRAM_CLK*%
X123113800Y-73888600D03*
X132511800Y-76962000D03*
%TO.N,SDRAM_A3*%
X124714000Y-72288400D03*
X141351000Y-69773800D03*
%TO.N,SDRAM_D2*%
X136300000Y-86537800D03*
X121513600Y-72288400D03*
%TO.N,SDRAM_D0*%
X120726200Y-84302600D03*
X136300000Y-88112600D03*
D25*
%TO.N,+1V1*%
X92354400Y-74422000D03*
X92964000Y-73863200D03*
X92354400Y-73863200D03*
X120726200Y-80314800D03*
X91744800Y-73863200D03*
X92964000Y-73304400D03*
X91744800Y-73304400D03*
X117500400Y-78689200D03*
X119126000Y-80314800D03*
X91744800Y-74422000D03*
X120726200Y-77063600D03*
X117525800Y-77063600D03*
X117500400Y-80289400D03*
X120726200Y-78689200D03*
X119126000Y-77063600D03*
X92964000Y-74422000D03*
X92354400Y-73304400D03*
%TO.N,+2V5*%
X115900200Y-75488800D03*
X92989400Y-81762600D03*
X92379800Y-82321400D03*
D24*
X128752600Y-80695800D03*
D25*
X91770200Y-82321400D03*
X91770200Y-81762600D03*
X92379800Y-82880200D03*
X92379800Y-81762600D03*
X92989400Y-82321400D03*
X115925600Y-81889600D03*
D24*
X128752600Y-81483200D03*
D25*
X91770200Y-82880200D03*
X122402600Y-75488800D03*
D24*
X128752600Y-79883000D03*
D25*
X92989400Y-82880200D03*
X122402600Y-81889600D03*
D24*
%TO.N,IO_C20*%
X107870000Y-63000000D03*
%TO.N,IO_G20*%
X109448600Y-62992000D03*
%TO.N,IO_L20*%
X111048800Y-63017400D03*
%TO.N,IO_E20*%
X108670710Y-63002593D03*
%TO.N,IO_H20*%
X109880400Y-62712600D03*
%TO.N,IO_K20*%
X110667800Y-62712600D03*
%TO.N,IO_M20*%
X111455200Y-62712600D03*
%TO.N,IO_D20*%
X108274372Y-62712600D03*
%TO.N,IO_F20*%
X109063943Y-62709918D03*
%TO.N,IO_B20*%
X105971800Y-62850000D03*
%TO.N,IO_P20*%
X112252110Y-62676607D03*
%TO.N,IO_T20*%
X113055400Y-62687200D03*
%TO.N,IO_R20*%
X112649000Y-62941200D03*
%TO.N,IO_U20*%
X113461800Y-62966600D03*
%TO.N,IO_N20*%
X111840602Y-63012998D03*
%TO.N,IO_N19*%
X120726200Y-71501000D03*
X115070000Y-60147200D03*
%TO.N,IO_A19*%
X111074200Y-71450200D03*
X105079800Y-64439800D03*
%TO.N,IO_L19*%
X119126000Y-71526400D03*
X113487200Y-61661300D03*
%TO.N,IO_T19*%
X115874800Y-60147200D03*
X123139200Y-71501000D03*
%TO.N,IO_M19*%
X119938800Y-71501000D03*
X114274600Y-61671200D03*
%TO.N,IO_B19*%
X105486200Y-64719200D03*
X111912400Y-71475600D03*
%TO.N,IO_K19*%
X112674400Y-60147200D03*
X118313200Y-71501000D03*
%TO.N,IO_J19*%
X112268000Y-61696600D03*
X117525800Y-71501000D03*
%TO.N,IO_P19*%
X121513600Y-71501000D03*
X115466630Y-61678363D03*
%TO.N,IO_U19*%
X123926600Y-71501000D03*
X116281200Y-61671200D03*
%TO.N,IO_A18*%
X111099600Y-72339200D03*
%TO.N,IO_A13*%
X111119572Y-76289572D03*
%TO.N,IO_A16*%
X111099600Y-73914000D03*
%TO.N,IO_A17*%
X111099600Y-73075800D03*
%TO.N,IO_A15*%
X111099600Y-74701400D03*
%TO.N,IO_A14*%
X110337600Y-75539600D03*
%TO.N,IO_A11*%
X111099600Y-77876400D03*
%TO.N,IO_A12*%
X111099600Y-77089000D03*
%TO.N,IO_B18*%
X120675400Y-60198000D03*
X111912400Y-72288400D03*
%TO.N,IO_B16*%
X119862600Y-60172600D03*
X111912400Y-73888600D03*
%TO.N,IO_B15*%
X119481600Y-61722000D03*
X111912400Y-74676000D03*
%TO.N,IO_B11*%
X111912400Y-77901800D03*
X118262400Y-60147200D03*
%TO.N,IO_B17*%
X111912400Y-73101200D03*
X120269000Y-61722000D03*
%TO.N,IO_B13*%
X119075200Y-60147200D03*
X111912400Y-76276200D03*
%TO.N,IO_B12*%
X118668800Y-61747400D03*
X111912400Y-77089000D03*
%TO.N,IO_A6*%
X111099600Y-81889600D03*
%TO.N,IO_A9*%
X111099600Y-79476600D03*
%TO.N,IO_A10*%
X111099600Y-78663800D03*
%TO.N,IO_A8*%
X111099600Y-80289400D03*
%TO.N,IO_A7*%
X110210600Y-81051400D03*
%TO.N,IO_B6*%
X116687600Y-60147200D03*
X111912400Y-81889600D03*
%TO.N,IO_B9*%
X117475000Y-60147200D03*
X111912400Y-79502000D03*
%TO.N,IO_B8*%
X111912400Y-80289400D03*
X117053100Y-61722000D03*
%TO.N,IO_B10*%
X117856000Y-61747400D03*
X111912400Y-78714600D03*
%TO.N,IO_C10*%
X112725200Y-78689200D03*
X124700000Y-96400000D03*
%TO.N,IO_C14*%
X122275600Y-60248800D03*
X112725200Y-75463400D03*
%TO.N,IO_C12*%
X123063000Y-60248800D03*
X112725200Y-77089000D03*
%TO.N,IO_C13*%
X122656600Y-61747400D03*
X112725200Y-76276200D03*
%TO.N,IO_C17*%
X112725200Y-73075800D03*
X121070000Y-61733800D03*
%TO.N,IO_C15*%
X121869200Y-61747400D03*
X112725200Y-74701400D03*
%TO.N,IO_C16*%
X112725200Y-73888600D03*
X121488200Y-60223400D03*
%TO.N,IO_D15*%
X106680000Y-64439800D03*
X113512600Y-74676000D03*
%TO.N,IO_D14*%
X107061000Y-64770000D03*
X113512600Y-75463400D03*
%TO.N,IO_D13*%
X106273600Y-64744600D03*
X113512600Y-76276200D03*
%TO.N,IO_D12*%
X113512600Y-77089000D03*
X105870857Y-64437118D03*
%TO.N,IO_D18*%
X119481600Y-64414400D03*
X114300000Y-72300000D03*
%TO.N,IO_D19*%
X114300000Y-71500000D03*
X119862600Y-64846200D03*
%TO.N,IO_F19*%
X121462800Y-65227200D03*
X115900200Y-71475600D03*
%TO.N,IO_F17*%
X121056400Y-64414400D03*
X115138200Y-73101200D03*
%TO.N,IO_E17*%
X119062500Y-64820800D03*
X114300000Y-73075800D03*
%TO.N,IO_E18*%
X120269000Y-64414400D03*
X115112800Y-72313800D03*
%TO.N,IO_E19*%
X115112800Y-71501000D03*
X120650000Y-64871600D03*
%TO.N,IO_D9*%
X103936800Y-96412800D03*
X113538000Y-79476600D03*
%TO.N,IO_E15*%
X114325400Y-75488800D03*
X103149400Y-94157800D03*
%TO.N,IO_E9*%
X103911400Y-92938600D03*
X114325400Y-79476600D03*
%TO.N,IO_D10*%
X103936800Y-95656400D03*
X113512600Y-78689200D03*
%TO.N,IO_E11*%
X103225600Y-96034600D03*
X114300000Y-77876400D03*
%TO.N,IO_E4*%
X114325400Y-83489800D03*
X107850000Y-96950000D03*
%TO.N,IO_E10*%
X103225600Y-96850200D03*
X114325400Y-78689200D03*
%TO.N,IO_E13*%
X103936800Y-93751400D03*
X115087400Y-76276200D03*
%TO.N,IO_E14*%
X103124000Y-93319600D03*
X114325400Y-76276200D03*
%TO.N,/Hirose Connectors/IO_N3*%
X122650000Y-96850000D03*
X121539000Y-85090000D03*
%TO.N,/Hirose Connectors/IO_N2*%
X123450000Y-96850000D03*
X121539000Y-85902800D03*
%TO.N,/Hirose Connectors/IO_P2*%
X122326400Y-85090000D03*
X123400000Y-62900000D03*
%TO.N,/Hirose Connectors/IO_N5*%
X121539000Y-82702400D03*
X113850000Y-60150000D03*
%TO.N,/Hirose Connectors/IO_P5*%
X114439700Y-60134500D03*
X122326400Y-82702400D03*
%TO.N,/Hirose Connectors/IO_P4*%
X122326400Y-83489800D03*
X122656600Y-62890400D03*
%TO.N,/Hirose Connectors/IO_N4*%
X121539000Y-83489800D03*
X121503700Y-62900000D03*
%TO.N,/Hirose Connectors/IO_P3*%
X121528200Y-84300000D03*
X124300000Y-96850000D03*
%TO.N,/Hirose Connectors/IO_K3*%
X119300000Y-98724128D03*
X118338600Y-85064600D03*
%TO.N,/Hirose Connectors/IO_C2*%
X118500000Y-98724128D03*
X112725200Y-85902800D03*
%TO.N,/Hirose Connectors/IO_F3*%
X115112800Y-84277200D03*
X120100000Y-98724128D03*
%TO.N,/Hirose Connectors/IO_J3*%
X117500400Y-85090000D03*
X118650000Y-96850000D03*
%TO.N,/Hirose Connectors/IO_C8*%
X122250000Y-96400000D03*
X112725200Y-80289400D03*
%TO.N,/Hirose Connectors/IO_L2*%
X120250000Y-96850000D03*
X119126000Y-85902800D03*
%TO.N,/Hirose Connectors/IO_K2*%
X119067428Y-95732572D03*
X118338600Y-85902800D03*
%TO.N,/Hirose Connectors/IO_M3*%
X121850000Y-96850000D03*
X119913400Y-85064600D03*
%TO.N,/Hirose Connectors/IO_D11*%
X113512600Y-77876400D03*
X123850000Y-96400000D03*
%TO.N,/Hirose Connectors/IO_C11*%
X112725200Y-77876400D03*
X119850000Y-96400000D03*
%TO.N,/Hirose Connectors/IO_E3*%
X117878200Y-96150000D03*
X114325400Y-84277200D03*
%TO.N,/Hirose Connectors/IO_C6*%
X112725200Y-81889600D03*
X120650000Y-96400000D03*
%TO.N,/Hirose Connectors/IO_L3*%
X121050000Y-96900000D03*
X119126000Y-85090000D03*
%TO.N,/Hirose Connectors/IO_D3*%
X113512600Y-84302600D03*
X118000000Y-98400000D03*
%TO.N,/Hirose Connectors/IO_H2*%
X116713000Y-85902800D03*
X118100000Y-96850000D03*
%TO.N,/Hirose Connectors/IO_C9*%
X123050000Y-96400000D03*
X112725200Y-79476600D03*
%TO.N,/Hirose Connectors/IO_C7*%
X112725200Y-81076800D03*
X121450000Y-96400000D03*
%TO.N,/Hirose Connectors/IO_H3*%
X116750000Y-85100000D03*
X114300000Y-95900000D03*
%TO.N,/Hirose Connectors/IO_G3*%
X116750000Y-84300000D03*
X113500000Y-95900000D03*
%TD*%
D26*
%TO.N,GND*%
X119722300Y-78003400D02*
X119925700Y-77800000D01*
D27*
X142841600Y-85394800D02*
X142824200Y-85377400D01*
D28*
X123870000Y-60935000D02*
X123870000Y-60127600D01*
D29*
X116250000Y-79450000D02*
X115900000Y-79450000D01*
D26*
X108200000Y-86900000D02*
X106700000Y-88400000D01*
X131292600Y-87282400D02*
X131910200Y-87282400D01*
X120281000Y-76069000D02*
X120750000Y-75600000D01*
X117900000Y-75900000D02*
X117900000Y-75649456D01*
X111470000Y-60935000D02*
X111470000Y-61686000D01*
D29*
X114450000Y-69100000D02*
X115020000Y-69670000D01*
D26*
X118000000Y-74791200D02*
X118070600Y-74720600D01*
D29*
X112750000Y-69100000D02*
X114450000Y-69100000D01*
X125800000Y-76900000D02*
X125800000Y-75150000D01*
X127861861Y-75460600D02*
X128618261Y-74704200D01*
D26*
X118629400Y-75879400D02*
X118608800Y-75900000D01*
X144068800Y-70916800D02*
X143873600Y-70721600D01*
D29*
X131691000Y-83337400D02*
X132562600Y-83337400D01*
X129600000Y-81246400D02*
X129600000Y-79250000D01*
D28*
X111070000Y-60151400D02*
X111074200Y-60147200D01*
D29*
X129000000Y-78650000D02*
X125800000Y-78650000D01*
D27*
X119109600Y-80950000D02*
X119722300Y-80337300D01*
D26*
X118960400Y-76069000D02*
X120281000Y-76069000D01*
D28*
X110670000Y-61694400D02*
X110667800Y-61696600D01*
D26*
X111070000Y-60935000D02*
X111070000Y-60151400D01*
X123150000Y-72288400D02*
X122961600Y-72100000D01*
X122961600Y-72100000D02*
X122250000Y-72100000D01*
D29*
X115020000Y-69670000D02*
X115020000Y-70150000D01*
D26*
X119109600Y-80950000D02*
X119050000Y-81009600D01*
D28*
X110270000Y-60155800D02*
X110261400Y-60147200D01*
D29*
X125800000Y-78650000D02*
X125800000Y-77800000D01*
D26*
X118629400Y-76400000D02*
X118629400Y-75879400D01*
D29*
X125800000Y-75150000D02*
X126110600Y-75460600D01*
X126110600Y-75460600D02*
X128600000Y-75460600D01*
D27*
X116750000Y-81920600D02*
X116750000Y-81450000D01*
D26*
X111350000Y-86822300D02*
X111350000Y-86900000D01*
D27*
X122100000Y-77800000D02*
X125800000Y-77800000D01*
X116750000Y-81450000D02*
X116920600Y-81279400D01*
D28*
X109880400Y-60945400D02*
X109870000Y-60935000D01*
D29*
X116350000Y-79350000D02*
X116250000Y-79450000D01*
D26*
X118000000Y-74791200D02*
X117991200Y-74800000D01*
X143873600Y-70721600D02*
X142824200Y-70721600D01*
D27*
X116920600Y-81279400D02*
X116920600Y-80950000D01*
D29*
X125800000Y-77800000D02*
X125800000Y-76900000D01*
D27*
X116920600Y-80950000D02*
X116550000Y-80950000D01*
D29*
X112728000Y-71450000D02*
X112200000Y-70922000D01*
D28*
X110270000Y-60935000D02*
X110270000Y-60155800D01*
D26*
X117900000Y-75649456D02*
X117904000Y-75645456D01*
D29*
X131292600Y-82939000D02*
X129600000Y-81246400D01*
D26*
X119050000Y-81009600D02*
X119050000Y-82900000D01*
D28*
X129958900Y-63143300D02*
X129958900Y-62280800D01*
D26*
X111870000Y-60935000D02*
X111870000Y-60155600D01*
D29*
X125800000Y-82300000D02*
X125800000Y-80510000D01*
D27*
X144195800Y-85394800D02*
X142841600Y-85394800D01*
D26*
X119058800Y-80950000D02*
X119109600Y-80950000D01*
X118070600Y-74720600D02*
X118350000Y-74720600D01*
X131910200Y-87282400D02*
X132588000Y-87960200D01*
D29*
X125790000Y-80500000D02*
X125790000Y-78660000D01*
D26*
X122100000Y-79070600D02*
X122100000Y-77800000D01*
D28*
X111870000Y-60155600D02*
X111861600Y-60147200D01*
D26*
X117904000Y-75645456D02*
X117904000Y-74887200D01*
D27*
X120750000Y-75600000D02*
X120770600Y-75600000D01*
D28*
X111470000Y-61686000D02*
X111480600Y-61696600D01*
D29*
X125790000Y-78660000D02*
X125800000Y-78650000D01*
X129600000Y-79250000D02*
X129000000Y-78650000D01*
D26*
X118608800Y-75900000D02*
X117900000Y-75900000D01*
X118629400Y-76400000D02*
X118960400Y-76069000D01*
D27*
X119722300Y-79300000D02*
X119722300Y-78003400D01*
D29*
X125800000Y-80510000D02*
X125790000Y-80500000D01*
X131292600Y-82939000D02*
X131691000Y-83337400D01*
D28*
X123870000Y-60127600D02*
X123875800Y-60121800D01*
X132142200Y-63105000D02*
X131495800Y-62458600D01*
D26*
X117904000Y-74887200D02*
X118000000Y-74791200D01*
D29*
X116350000Y-78620000D02*
X116350000Y-79350000D01*
D26*
X117991200Y-74800000D02*
X116800000Y-74800000D01*
X111350000Y-86900000D02*
X108200000Y-86900000D01*
D27*
X119925700Y-77800000D02*
X121850000Y-77800000D01*
D26*
X110670000Y-60935000D02*
X110670000Y-61694400D01*
D27*
X121850000Y-77800000D02*
X122100000Y-77800000D01*
D29*
X112200000Y-70922000D02*
X112200000Y-69650000D01*
D26*
X109880400Y-61696600D02*
X109880400Y-60945400D01*
D27*
X116550000Y-80950000D02*
X115900000Y-80300000D01*
D28*
X132207000Y-63105000D02*
X132142200Y-63105000D01*
D26*
X120770600Y-75600000D02*
X120770600Y-74770600D01*
D29*
X112200000Y-69650000D02*
X112750000Y-69100000D01*
D26*
X142800000Y-80850000D02*
X144100000Y-80850000D01*
X116800000Y-74800000D02*
X115900000Y-73900000D01*
D27*
X119722300Y-80337300D02*
X119722300Y-79300000D01*
D26*
%TO.N,+5V*%
X107070000Y-60935000D02*
X107070000Y-60189000D01*
D27*
X107086400Y-60951400D02*
X107070000Y-60935000D01*
D26*
X105070000Y-60935000D02*
X105070000Y-60157000D01*
X106270000Y-60935000D02*
X106270000Y-60176200D01*
X105470000Y-60935000D02*
X105470000Y-60163400D01*
X105870000Y-60935000D02*
X105870000Y-60169800D01*
X106670000Y-60935000D02*
X106670000Y-60182600D01*
D27*
X106680000Y-60945000D02*
X106670000Y-60935000D01*
D29*
%TO.N,Net-(U1-FB)*%
X103788354Y-84636845D02*
X101756354Y-84636845D01*
X101228354Y-85164845D02*
X99907258Y-85164845D01*
X105260345Y-84889545D02*
X105007645Y-84636845D01*
X101756354Y-84636845D02*
X101228354Y-85164845D01*
X105586354Y-84889545D02*
X105260345Y-84889545D01*
X105007645Y-84636845D02*
X103788354Y-84636845D01*
%TO.N,Net-(U3-FB)*%
X105321100Y-77101700D02*
X105068400Y-76849000D01*
X103788354Y-76849000D02*
X101756354Y-76849000D01*
X105586354Y-77101700D02*
X105321100Y-77101700D01*
X101756354Y-76849000D02*
X101397354Y-77208000D01*
X105068400Y-76849000D02*
X103788354Y-76849000D01*
X101397354Y-77208000D02*
X99907258Y-77208000D01*
%TO.N,Net-(U5-FB)*%
X104712800Y-67298600D02*
X103788354Y-67298600D01*
X105586354Y-67551300D02*
X104965500Y-67551300D01*
X101756354Y-67298600D02*
X101397354Y-67657600D01*
X103788354Y-67298600D02*
X101756354Y-67298600D01*
X104965500Y-67551300D02*
X104712800Y-67298600D01*
X101397354Y-67657600D02*
X99907258Y-67657600D01*
%TO.N,/Power/3V3_PG*%
X98457258Y-84106258D02*
X98196400Y-83845400D01*
X98457258Y-84664845D02*
X98457258Y-84106258D01*
%TO.N,/Power/2V5_PG*%
X98457258Y-76206858D02*
X98120200Y-75869800D01*
X98457258Y-76708000D02*
X98457258Y-76206858D01*
%TO.N,/Power/1V1_PG*%
X98457258Y-67157600D02*
X98457258Y-66656458D01*
X98457258Y-66656458D02*
X98094800Y-66294000D01*
D26*
%TO.N,+3V3*%
X131300600Y-85750400D02*
X132588000Y-85750400D01*
D29*
X113317381Y-84750000D02*
X112177700Y-84750000D01*
D28*
X129768600Y-90904000D02*
X129780000Y-90892600D01*
D26*
X130530600Y-68743800D02*
X132232400Y-68743800D01*
X128231700Y-63155800D02*
X128231700Y-62534800D01*
D28*
X140944600Y-89142600D02*
X142773400Y-89142600D01*
X107470000Y-61673800D02*
X107470000Y-60935000D01*
D27*
X144170400Y-83337400D02*
X143662400Y-83845400D01*
D28*
X108270000Y-61686400D02*
X108270000Y-60935000D01*
D26*
X122370600Y-79629400D02*
X122100000Y-79629400D01*
D28*
X133259800Y-89142600D02*
X133553200Y-89142600D01*
D29*
X105308400Y-86385400D02*
X105079800Y-86385400D01*
D28*
X133793200Y-63105000D02*
X133883400Y-63105000D01*
D29*
X112177700Y-84750000D02*
X111350000Y-85577700D01*
D28*
X139115800Y-89142600D02*
X140944600Y-89142600D01*
D26*
X142824200Y-69181600D02*
X143822800Y-69181600D01*
D28*
X109070000Y-61694200D02*
X109070000Y-60935000D01*
D29*
X116738400Y-75488400D02*
X116738400Y-75488800D01*
D28*
X127965200Y-90904000D02*
X129768600Y-90904000D01*
D29*
X113480000Y-70150000D02*
X113500000Y-70170000D01*
X122772600Y-78650000D02*
X124260000Y-78650000D01*
D28*
X142773400Y-89142600D02*
X142798800Y-89117200D01*
D26*
X118916600Y-75279400D02*
X119126000Y-75488800D01*
D28*
X137287000Y-89142600D02*
X139115800Y-89142600D01*
X132232400Y-68743800D02*
X132246400Y-68743800D01*
X129780000Y-90892600D02*
X131648200Y-90892600D01*
D26*
X135559800Y-62227200D02*
X135559800Y-61329600D01*
X142800000Y-79310000D02*
X142840000Y-79350000D01*
X119921200Y-75488800D02*
X119930000Y-75480000D01*
X144068400Y-79350000D02*
X144068800Y-79349600D01*
D28*
X126085600Y-90918000D02*
X127914400Y-90918000D01*
X107870000Y-60935000D02*
X107870000Y-60125600D01*
D26*
X133100000Y-62550000D02*
X133238200Y-62550000D01*
X132246400Y-68743800D02*
X133121400Y-67868800D01*
D29*
X105078355Y-86386845D02*
X103788354Y-86386845D01*
D28*
X109474000Y-60931000D02*
X109470000Y-60935000D01*
X108670000Y-60935000D02*
X108670000Y-60130600D01*
D29*
X122761000Y-78638400D02*
X122772600Y-78650000D01*
D26*
X133959600Y-67868800D02*
X133959600Y-67019200D01*
D29*
X92989400Y-91871800D02*
X93802200Y-91059000D01*
D26*
X133238200Y-62550000D02*
X133793200Y-63105000D01*
D29*
X113707819Y-84750000D02*
X113700819Y-84757000D01*
D28*
X133553200Y-89142600D02*
X135407400Y-89142600D01*
X142798800Y-89117200D02*
X143165800Y-89117200D01*
D29*
X104800400Y-86386845D02*
X103788354Y-86386845D01*
X113324381Y-84757000D02*
X113317381Y-84750000D01*
X117525800Y-82677000D02*
X115452800Y-84750000D01*
X113500000Y-70170000D02*
X113500000Y-73850000D01*
X105559655Y-86134145D02*
X105308400Y-86385400D01*
X122761000Y-78638400D02*
X122761000Y-79451200D01*
D26*
X122761000Y-79451200D02*
X122548800Y-79451200D01*
D28*
X127951200Y-90918000D02*
X127965200Y-90904000D01*
D26*
X118491200Y-82900000D02*
X117748800Y-82900000D01*
X133121400Y-67868800D02*
X133959600Y-67868800D01*
D29*
X104800400Y-87858600D02*
X104800400Y-86386845D01*
D26*
X117886200Y-82250000D02*
X117525800Y-81889600D01*
D28*
X132119400Y-90892600D02*
X132588000Y-90424000D01*
D26*
X109474000Y-60147200D02*
X109474000Y-60931000D01*
D29*
X115500000Y-74250000D02*
X116738400Y-75488400D01*
D26*
X128231700Y-62534800D02*
X128485700Y-62280800D01*
D28*
X131741800Y-80949800D02*
X132562600Y-80949800D01*
X127914400Y-90918000D02*
X127951200Y-90918000D01*
X143165800Y-89117200D02*
X144119600Y-88163400D01*
X107870000Y-60125600D02*
X107873800Y-60121800D01*
X132588000Y-90424000D02*
X132588000Y-89814400D01*
X131292600Y-85742400D02*
X131300600Y-85750400D01*
D26*
X117748800Y-82900000D02*
X117525800Y-82677000D01*
X143822800Y-69181600D02*
X144068800Y-68935600D01*
D27*
X142832200Y-83845400D02*
X142824200Y-83837400D01*
D29*
X113500000Y-73850000D02*
X113900000Y-74250000D01*
D28*
X108670000Y-60130600D02*
X108661200Y-60121800D01*
D29*
X113700819Y-84757000D02*
X113324381Y-84757000D01*
D28*
X131648200Y-90892600D02*
X132119400Y-90892600D01*
X133959600Y-67019200D02*
X133934200Y-66993800D01*
D27*
X143662400Y-83845400D02*
X142832200Y-83845400D01*
D28*
X135407400Y-89142600D02*
X137287000Y-89142600D01*
D26*
X118491200Y-82250000D02*
X117886200Y-82250000D01*
D29*
X121353800Y-80500000D02*
X119938800Y-81915000D01*
D26*
X142840000Y-79350000D02*
X144068400Y-79350000D01*
D29*
X101600000Y-91059000D02*
X104800400Y-87858600D01*
D26*
X118350000Y-75279400D02*
X118916600Y-75279400D01*
D29*
X93802200Y-91059000D02*
X101600000Y-91059000D01*
D26*
X117525800Y-75488800D02*
X117551200Y-75488800D01*
D29*
X115452800Y-84750000D02*
X113707819Y-84750000D01*
X113900000Y-74250000D02*
X115500000Y-74250000D01*
X105586354Y-86134145D02*
X105559655Y-86134145D01*
D26*
X137210800Y-61329600D02*
X135559800Y-61329600D01*
D28*
X132588000Y-89814400D02*
X133259800Y-89142600D01*
D26*
X122548800Y-79451200D02*
X122370600Y-79629400D01*
D28*
X131292600Y-81399000D02*
X131741800Y-80949800D01*
D29*
X124250000Y-80500000D02*
X121353800Y-80500000D01*
D27*
%TO.N,/Power/3V3_EN*%
X99907258Y-84166542D02*
X100228400Y-83845400D01*
X99907258Y-84664845D02*
X99907258Y-84166542D01*
%TO.N,/Power/2V5_EN*%
X99907258Y-76708000D02*
X99907258Y-76190942D01*
X99907258Y-76190942D02*
X100228400Y-75869800D01*
%TO.N,/Power/1V1_EN*%
X99907258Y-66665942D02*
X100228400Y-66344800D01*
X99907258Y-67157600D02*
X99907258Y-66665942D01*
D26*
%TO.N,ECP5_PRGMN_BTN*%
X127856100Y-62250000D02*
X123845000Y-62250000D01*
D28*
X128231700Y-61405800D02*
X129946400Y-61405800D01*
X130898700Y-62179200D02*
X130719800Y-62179200D01*
D26*
X123845000Y-62250000D02*
X123469400Y-61874400D01*
D28*
X129946400Y-61405800D02*
X129958900Y-61418300D01*
D26*
X128231700Y-61874400D02*
X127856100Y-62250000D01*
X123470000Y-61873800D02*
X123470000Y-60935000D01*
X128231700Y-61405800D02*
X128231700Y-61874400D01*
D28*
X123469400Y-61874400D02*
X123470000Y-61873800D01*
X130719800Y-62179200D02*
X129958900Y-61418300D01*
D26*
%TO.N,ECP5_INITN*%
X133070600Y-67147633D02*
X132386233Y-67147633D01*
X131438600Y-66200000D02*
X124188200Y-66200000D01*
X123870000Y-65881800D02*
X123870000Y-63645000D01*
X132232400Y-66954400D02*
X132918200Y-66268600D01*
D28*
X132386233Y-67147633D02*
X132232400Y-66993800D01*
X132232400Y-66993800D02*
X132232400Y-66954400D01*
D26*
X124188200Y-66200000D02*
X123870000Y-65881800D01*
X132232400Y-66993800D02*
X131438600Y-66200000D01*
%TO.N,Net-(D5-A)*%
X135280400Y-67397600D02*
X133934200Y-68743800D01*
X135280400Y-66227700D02*
X135280400Y-67397600D01*
%TO.N,Net-(D6-A)*%
X128051800Y-66852800D02*
X128050000Y-66854600D01*
X128050000Y-66854600D02*
X128050000Y-67965000D01*
X128050000Y-67965000D02*
X128828800Y-68743800D01*
%TO.N,IO_D1*%
X113850000Y-88842000D02*
X113850000Y-94910000D01*
X113919000Y-88773000D02*
X113850000Y-88842000D01*
X113850000Y-94910000D02*
X113870000Y-94930000D01*
%TO.N,IO_D2*%
X113512600Y-85877400D02*
X113512600Y-89434856D01*
X113450000Y-94910000D02*
X113470000Y-94930000D01*
X113512600Y-89434856D02*
X113450000Y-89497456D01*
X113450000Y-89497456D02*
X113450000Y-94910000D01*
%TO.N,IO_E6*%
X108650000Y-98450000D02*
X108800000Y-98300000D01*
X109661400Y-98300000D02*
X109870000Y-98091400D01*
X109870000Y-98091400D02*
X109870000Y-97640000D01*
X108800000Y-98300000D02*
X109661400Y-98300000D01*
%TO.N,IO_G1*%
X116890800Y-88823800D02*
X116890800Y-93309200D01*
X116890800Y-93309200D02*
X116270000Y-93930000D01*
X116840000Y-88773000D02*
X116890800Y-88823800D01*
X116270000Y-93930000D02*
X116270000Y-94930000D01*
%TO.N,IO_A3*%
X111099600Y-89281000D02*
X111099600Y-92811600D01*
X109870000Y-94041200D02*
X109870000Y-94930000D01*
X111099600Y-92811600D02*
X109870000Y-94041200D01*
%TO.N,IO_E2*%
X114250000Y-94910000D02*
X114270000Y-94930000D01*
X114250000Y-88976856D02*
X114250000Y-94910000D01*
X114325400Y-88901456D02*
X114250000Y-88976856D01*
X114325400Y-85902800D02*
X114325400Y-88901456D01*
%TO.N,IO_E8*%
X105467428Y-96967428D02*
X105467428Y-97637428D01*
X105467428Y-97637428D02*
X105470000Y-97640000D01*
%TO.N,IO_B3*%
X114650000Y-96950000D02*
X114650000Y-97620000D01*
X114650000Y-97620000D02*
X114670000Y-97640000D01*
%TO.N,IO_G5*%
X113050000Y-96950000D02*
X113050000Y-97620000D01*
X113050000Y-97620000D02*
X113070000Y-97640000D01*
%TO.N,IO_J1*%
X118338600Y-93522800D02*
X117856000Y-94005400D01*
X118338600Y-88773000D02*
X118338600Y-93522800D01*
X117856000Y-94005400D02*
X117870000Y-94019400D01*
X117870000Y-94019400D02*
X117870000Y-94930000D01*
%TO.N,IO_D6*%
X110068272Y-98724128D02*
X110670000Y-98122400D01*
X109550000Y-98724128D02*
X110068272Y-98724128D01*
X110670000Y-98122400D02*
X110670000Y-97640000D01*
%TO.N,IO_B4*%
X107050000Y-96950000D02*
X107050000Y-97620000D01*
X107050000Y-97620000D02*
X107070000Y-97640000D01*
%TO.N,IO_D5*%
X112050411Y-98702811D02*
X111470000Y-98122400D01*
X112895503Y-98702811D02*
X112050411Y-98702811D01*
X111470000Y-98122400D02*
X111470000Y-97640000D01*
%TO.N,IO_B1*%
X112318800Y-88773000D02*
X112318800Y-89531200D01*
X112250000Y-94910000D02*
X112270000Y-94930000D01*
X112250000Y-89600000D02*
X112250000Y-94910000D01*
X112318800Y-89531200D02*
X112250000Y-89600000D01*
%TO.N,IO_U1*%
X123870000Y-89700000D02*
X123870000Y-94930000D01*
%TO.N,IO_K1*%
X118350000Y-88050000D02*
X118750000Y-88450000D01*
X118750000Y-93750000D02*
X118270000Y-94230000D01*
X118350000Y-87750000D02*
X118350000Y-88050000D01*
X118270000Y-94230000D02*
X118270000Y-94930000D01*
X118750000Y-88450000D02*
X118750000Y-93750000D01*
%TO.N,IO_E1*%
X114650000Y-94910000D02*
X114670000Y-94930000D01*
X114706400Y-89306400D02*
X114650000Y-89362800D01*
X114650000Y-89362800D02*
X114650000Y-94910000D01*
%TO.N,IO_A4*%
X109070000Y-92987000D02*
X109070000Y-94930000D01*
X110718600Y-91338400D02*
X109070000Y-92987000D01*
X110718600Y-88722200D02*
X110718600Y-91338400D01*
%TO.N,IO_F2*%
X115112800Y-85902800D02*
X115112800Y-89434856D01*
X115050000Y-89497656D02*
X115050000Y-94910000D01*
X115050000Y-94910000D02*
X115070000Y-94930000D01*
X115112800Y-89434856D02*
X115050000Y-89497656D01*
%TO.N,IO_R1*%
X122270000Y-89700000D02*
X122270000Y-94930000D01*
%TO.N,IO_A2*%
X111506000Y-88773000D02*
X111506000Y-93065600D01*
X111506000Y-93065600D02*
X110670000Y-93901600D01*
X110670000Y-93901600D02*
X110670000Y-94930000D01*
%TO.N,/Hirose Connectors/IO_P1*%
X121470000Y-88830000D02*
X121470000Y-94930000D01*
X121500000Y-88800000D02*
X121470000Y-88830000D01*
%TO.N,IO_D8*%
X105050000Y-97660000D02*
X105070000Y-97640000D01*
X105050000Y-98450000D02*
X105050000Y-97660000D01*
%TO.N,IO_D7*%
X105850000Y-97660000D02*
X105870000Y-97640000D01*
X105850000Y-98450000D02*
X105850000Y-97660000D01*
%TO.N,IO_L1*%
X119150000Y-94100000D02*
X119070000Y-94180000D01*
X119150000Y-89700000D02*
X119150000Y-94100000D01*
X119070000Y-94180000D02*
X119070000Y-94930000D01*
%TO.N,IO_A5*%
X110312200Y-89281000D02*
X110312200Y-91160600D01*
X110312200Y-91160600D02*
X108270000Y-93202800D01*
X108270000Y-93202800D02*
X108270000Y-94930000D01*
%TO.N,IO_C5*%
X106250000Y-97620000D02*
X106270000Y-97640000D01*
X106250000Y-96950000D02*
X106250000Y-97620000D01*
%TO.N,IO_V1*%
X124670000Y-88820000D02*
X124670000Y-94930000D01*
X124650000Y-88800000D02*
X124670000Y-88820000D01*
%TO.N,IO_B5*%
X112270000Y-98020000D02*
X112270000Y-97640000D01*
X113300000Y-98450000D02*
X113171800Y-98321800D01*
X113171800Y-98321800D02*
X112571800Y-98321800D01*
X112571800Y-98321800D02*
X112270000Y-98020000D01*
%TO.N,IO_B2*%
X111470000Y-93787400D02*
X111470000Y-94930000D01*
X111887000Y-93370400D02*
X111470000Y-93787400D01*
X111887000Y-89306400D02*
X111887000Y-93370400D01*
%TO.N,IO_E5*%
X109050000Y-97620000D02*
X109070000Y-97640000D01*
X109050000Y-96950000D02*
X109050000Y-97620000D01*
%TO.N,IO_N1*%
X120221800Y-89700000D02*
X120221800Y-90221800D01*
X120221800Y-90221800D02*
X120670000Y-90670000D01*
X120670000Y-90670000D02*
X120670000Y-94930000D01*
%TO.N,IO_F1*%
X115493800Y-88798400D02*
X115493800Y-94906200D01*
X115519200Y-88646000D02*
X115519200Y-88773000D01*
X115493800Y-94906200D02*
X115470000Y-94930000D01*
X115519200Y-88773000D02*
X115493800Y-88798400D01*
%TO.N,IO_M1*%
X119870000Y-93970000D02*
X119870000Y-94930000D01*
X119650000Y-88800000D02*
X119650000Y-93750000D01*
X119650000Y-93750000D02*
X119870000Y-93970000D01*
%TO.N,IO_C4*%
X107500000Y-97670000D02*
X107470000Y-97640000D01*
X107500000Y-98450000D02*
X107500000Y-97670000D01*
%TO.N,IO_F4*%
X108670000Y-95958800D02*
X108670000Y-97640000D01*
X113950000Y-98050000D02*
X113870000Y-97970000D01*
X108661200Y-95950000D02*
X108670000Y-95958800D01*
X113950000Y-98450000D02*
X113950000Y-98050000D01*
X113870000Y-97970000D02*
X113870000Y-97640000D01*
%TO.N,IO_F5*%
X106650000Y-98450000D02*
X106650000Y-97660000D01*
X106650000Y-97660000D02*
X106670000Y-97640000D01*
%TO.N,IO_T1*%
X123100000Y-88800000D02*
X123070000Y-88830000D01*
X123070000Y-88830000D02*
X123070000Y-94930000D01*
%TO.N,IO_C3*%
X115470000Y-98122400D02*
X115470000Y-97640000D01*
X114650000Y-98450000D02*
X115142400Y-98450000D01*
X115142400Y-98450000D02*
X115470000Y-98122400D01*
%TO.N,IO_H1*%
X117525800Y-89700000D02*
X117525800Y-93599000D01*
X117525800Y-93599000D02*
X117070000Y-94054800D01*
X117070000Y-94054800D02*
X117070000Y-94930000D01*
%TO.N,IO_C1*%
X113100000Y-89312600D02*
X113100000Y-94900000D01*
X113106200Y-89306400D02*
X113100000Y-89312600D01*
X113100000Y-94900000D02*
X113070000Y-94930000D01*
D28*
%TO.N,IO_J20*%
X110258484Y-63633484D02*
X110270000Y-63645000D01*
D26*
X110258484Y-63003434D02*
X110258484Y-63633484D01*
D28*
%TO.N,ECP5_DONE*%
X128168400Y-69621400D02*
X129413000Y-69621400D01*
X127889000Y-69342000D02*
X128168400Y-69621400D01*
D26*
X123469400Y-66192400D02*
X124256800Y-66979800D01*
X127750000Y-67250000D02*
X127750000Y-69203000D01*
X129667000Y-66993800D02*
X128828800Y-66993800D01*
X127479800Y-66979800D02*
X127750000Y-67250000D01*
D28*
X130803048Y-66721352D02*
X130530600Y-66993800D01*
X123470000Y-63645000D02*
X123470000Y-64102000D01*
D26*
X127750000Y-69203000D02*
X127889000Y-69342000D01*
X123469400Y-64102600D02*
X123469400Y-66192400D01*
D28*
X123470000Y-64102000D02*
X123469400Y-64102600D01*
X131313552Y-66721352D02*
X130803048Y-66721352D01*
D26*
X130530600Y-66993800D02*
X129667000Y-66993800D01*
D28*
X129413000Y-69621400D02*
X129667000Y-69367400D01*
D26*
X129667000Y-69367400D02*
X129667000Y-66993800D01*
X124256800Y-66979800D02*
X127479800Y-66979800D01*
%TO.N,JTAG_TCK*%
X132003800Y-59867800D02*
X132207000Y-60071000D01*
X124561600Y-59867800D02*
X132003800Y-59867800D01*
X124485400Y-59944000D02*
X124561600Y-59867800D01*
X124485400Y-59944000D02*
X124270000Y-60159400D01*
X124270000Y-60159400D02*
X124270000Y-60935000D01*
X132207000Y-60071000D02*
X132207000Y-61355000D01*
%TO.N,JTAG_TDI*%
X137668000Y-62280800D02*
X136358600Y-62280800D01*
X136358600Y-62280800D02*
X135559800Y-63079600D01*
X137947400Y-65252600D02*
X137947400Y-62560200D01*
X124270000Y-63645000D02*
X124270000Y-65519800D01*
X137350000Y-65850000D02*
X137922000Y-65278000D01*
X124270000Y-65519800D02*
X124600200Y-65850000D01*
X124600200Y-65850000D02*
X137350000Y-65850000D01*
D28*
X137922000Y-65278000D02*
X137947400Y-65252600D01*
D26*
X137947400Y-62560200D02*
X137668000Y-62280800D01*
D28*
%TO.N,JTAG_TDO*%
X133379200Y-62150000D02*
X133883400Y-61645800D01*
X131587500Y-62093100D02*
X131647196Y-62093100D01*
D26*
X124952800Y-60147200D02*
X131318000Y-60147200D01*
D28*
X131647196Y-62093100D02*
X131704096Y-62150000D01*
D26*
X136550400Y-67513200D02*
X136550400Y-66227700D01*
X131318000Y-60147200D02*
X131394200Y-60223400D01*
D28*
X131704096Y-62150000D02*
X133379200Y-62150000D01*
D26*
X124670000Y-60430000D02*
X124952800Y-60147200D01*
X131394200Y-60223400D02*
X131394200Y-61899800D01*
X124670000Y-60935000D02*
X124670000Y-60430000D01*
D28*
X131394200Y-61899800D02*
X131587500Y-62093100D01*
X133883400Y-61645800D02*
X133883400Y-61355000D01*
D26*
%TO.N,JTAG_TMS*%
X137210800Y-64897000D02*
X136626600Y-65481200D01*
D28*
X124670000Y-64395800D02*
X124663200Y-64389000D01*
D26*
X124670000Y-65157800D02*
X124670000Y-64395800D01*
X124993400Y-65481200D02*
X124670000Y-65157800D01*
X136626600Y-65481200D02*
X124993400Y-65481200D01*
D28*
X124663200Y-64389000D02*
X124670000Y-64382200D01*
X124670000Y-64382200D02*
X124670000Y-63645000D01*
D26*
X137210800Y-63079600D02*
X137210800Y-64897000D01*
D28*
%TO.N,Net-(U9I-CFG_1)*%
X124307600Y-84683600D02*
X124307600Y-86309200D01*
X128651000Y-86309200D02*
X131459000Y-89117200D01*
X124307600Y-86309200D02*
X128651000Y-86309200D01*
X131459000Y-89117200D02*
X131622800Y-89117200D01*
X123926600Y-84302600D02*
X124307600Y-84683600D01*
D26*
%TO.N,/Flash + JTAG/FLASH_IO0*%
X132029200Y-94056200D02*
X133553200Y-92532200D01*
X128066800Y-94056200D02*
X132029200Y-94056200D01*
X133553200Y-92532200D02*
X133553200Y-90892600D01*
%TO.N,/Flash + JTAG/FLASH_IO1*%
X137693400Y-94284800D02*
X139827000Y-92151200D01*
X140944600Y-91998800D02*
X140944600Y-90892600D01*
X135305800Y-96596200D02*
X137134600Y-96596200D01*
X139827000Y-92151200D02*
X140792200Y-92151200D01*
X137693400Y-96037400D02*
X137693400Y-94284800D01*
X137134600Y-96596200D02*
X137693400Y-96037400D01*
X140792200Y-92151200D02*
X140944600Y-91998800D01*
%TO.N,/Flash + JTAG/FLASH_IO2*%
X136067800Y-95326200D02*
X139115800Y-92278200D01*
X139115800Y-92278200D02*
X139115800Y-90892600D01*
X135305800Y-95326200D02*
X136067800Y-95326200D01*
%TO.N,/Flash + JTAG/FLASH_IO3*%
X137287000Y-91770200D02*
X137287000Y-90892600D01*
X132461000Y-96596200D02*
X137287000Y-91770200D01*
X128066800Y-96596200D02*
X132461000Y-96596200D01*
%TO.N,/Flash + JTAG/FLASH_SCK*%
X135407400Y-91897200D02*
X135407400Y-90892600D01*
X128066800Y-95326200D02*
X131978400Y-95326200D01*
X131978400Y-95326200D02*
X135407400Y-91897200D01*
%TO.N,/Flash + JTAG/FLASH_CSN*%
X142570200Y-92532200D02*
X142798800Y-92303600D01*
X135280400Y-97866200D02*
X135890000Y-98475800D01*
X138074400Y-98196400D02*
X138074400Y-94513400D01*
X135890000Y-98475800D02*
X137795000Y-98475800D01*
X138074400Y-94513400D02*
X140055600Y-92532200D01*
X140055600Y-92532200D02*
X142570200Y-92532200D01*
X142798800Y-92303600D02*
X142798800Y-90867200D01*
X137795000Y-98475800D02*
X138074400Y-98196400D01*
D28*
%TO.N,/Flash + JTAG/WRITEN*%
X123113800Y-84277200D02*
X123520200Y-84683600D01*
X123520200Y-86690200D02*
X123901200Y-87071200D01*
X127914400Y-88290400D02*
X127914400Y-89168000D01*
X123901200Y-87071200D02*
X126695200Y-87071200D01*
X126695200Y-87071200D02*
X127914400Y-88290400D01*
X123520200Y-84683600D02*
X123520200Y-86690200D01*
%TO.N,/Flash + JTAG/CS1N*%
X127279400Y-86664800D02*
X129768600Y-89154000D01*
X123926600Y-85902800D02*
X123926600Y-86287410D01*
X123926600Y-86287410D02*
X124303990Y-86664800D01*
X124303990Y-86664800D02*
X127279400Y-86664800D01*
%TO.N,/Flash + JTAG/SN_CSN*%
X125882400Y-87325200D02*
X126085600Y-87528400D01*
X123698000Y-87325200D02*
X125882400Y-87325200D01*
X122707400Y-85496400D02*
X122707400Y-86334600D01*
X126085600Y-87528400D02*
X126085600Y-89168000D01*
X122707400Y-86334600D02*
X123698000Y-87325200D01*
X123113800Y-85090000D02*
X122707400Y-85496400D01*
%TO.N,/Hirose Connectors/IO_E7*%
X113250000Y-60150000D02*
X113250000Y-60181200D01*
D26*
X113070000Y-60330000D02*
X113070000Y-60935000D01*
X113250000Y-60150000D02*
X113070000Y-60330000D01*
%TO.N,CLK_25MHZ*%
X116332000Y-91897200D02*
X116357400Y-91922600D01*
X115925600Y-85877400D02*
X116332000Y-86283800D01*
X116357400Y-91922600D02*
X116357400Y-91897200D01*
X116332000Y-86283800D02*
X116332000Y-91897200D01*
%TO.N,+1V1*%
X122704600Y-73113400D02*
X122704600Y-75104600D01*
D29*
X124060000Y-77100000D02*
X120762600Y-77100000D01*
X118465600Y-78003400D02*
X117525800Y-77063600D01*
X118477700Y-78003400D02*
X118186200Y-78003400D01*
X119739600Y-76450000D02*
X119126000Y-77063600D01*
X92964000Y-73863200D02*
X101828600Y-73863200D01*
X101828600Y-73863200D02*
X104927400Y-70764400D01*
X104927400Y-70764400D02*
X104927400Y-69037200D01*
D26*
X122704600Y-75104600D02*
X123505000Y-75905000D01*
D29*
X105345054Y-69037200D02*
X103799754Y-69037200D01*
D26*
X118500000Y-81600000D02*
X118500000Y-80950000D01*
X118855800Y-80314800D02*
X119126000Y-80314800D01*
D29*
X103799754Y-69037200D02*
X103788354Y-69048600D01*
X123505000Y-75905000D02*
X122960000Y-76450000D01*
D27*
X118477700Y-78003400D02*
X118465600Y-78003400D01*
D29*
X120762600Y-77100000D02*
X120726200Y-77063600D01*
X118186200Y-78003400D02*
X117500400Y-78689200D01*
X105586354Y-68795900D02*
X105345054Y-69037200D01*
D26*
X118500000Y-80670600D02*
X118855800Y-80314800D01*
D27*
X121329400Y-75600000D02*
X121329400Y-76450000D01*
D29*
X122960000Y-76450000D02*
X119739600Y-76450000D01*
D26*
X122250000Y-72658800D02*
X122704600Y-73113400D01*
D29*
X124300000Y-75110000D02*
X123505000Y-75905000D01*
X124260000Y-76900000D02*
X124060000Y-77100000D01*
D26*
X118500000Y-80950000D02*
X118500000Y-80670600D01*
D29*
%TO.N,+2V5*%
X122813000Y-82300000D02*
X122402600Y-81889600D01*
D27*
X115400000Y-80582823D02*
X115925600Y-81108423D01*
X118477700Y-80122300D02*
X118477700Y-79300000D01*
X117479400Y-80950000D02*
X117650000Y-80950000D01*
D29*
X105575100Y-78346300D02*
X105333800Y-78587600D01*
X105119200Y-78599000D02*
X103788354Y-78599000D01*
X92989400Y-82321400D02*
X93700600Y-81610200D01*
D27*
X116515400Y-82479400D02*
X115925600Y-81889600D01*
D29*
X93700600Y-81610200D02*
X102565200Y-81610200D01*
D27*
X115729223Y-79850000D02*
X115600000Y-79850000D01*
D26*
X117030000Y-76400000D02*
X116350000Y-77080000D01*
D29*
X104800400Y-79375000D02*
X104800400Y-78599000D01*
D27*
X117115225Y-79853600D02*
X115732823Y-79853600D01*
X115600000Y-79850000D02*
X115400000Y-80050000D01*
D29*
X105333800Y-78587600D02*
X105130600Y-78587600D01*
D27*
X118477700Y-79300000D02*
X117668825Y-79300000D01*
X117668825Y-79300000D02*
X117115225Y-79853600D01*
X115400000Y-80050000D02*
X115400000Y-80582823D01*
D29*
X124260000Y-82300000D02*
X122813000Y-82300000D01*
D27*
X121308800Y-74750000D02*
X121663800Y-74750000D01*
X116750000Y-82479400D02*
X116515400Y-82479400D01*
D29*
X105130600Y-78587600D02*
X105119200Y-78599000D01*
D27*
X115925600Y-81108423D02*
X115925600Y-81889600D01*
X115732823Y-79853600D02*
X115729223Y-79850000D01*
D29*
X105586354Y-78346300D02*
X105575100Y-78346300D01*
X102565200Y-81610200D02*
X104800400Y-79375000D01*
X116350000Y-77080000D02*
X116350000Y-75938600D01*
X116350000Y-75938600D02*
X115900200Y-75488800D01*
D26*
X118070600Y-76400000D02*
X117030000Y-76400000D01*
D27*
X121663800Y-74750000D02*
X122402600Y-75488800D01*
X117650000Y-80950000D02*
X118477700Y-80122300D01*
D26*
X128752600Y-80695800D02*
X128727200Y-80670400D01*
X122326400Y-75488800D02*
X122402600Y-75488800D01*
%TO.N,IO_C20*%
X107870000Y-63000000D02*
X107870000Y-63645000D01*
%TO.N,IO_G20*%
X109448600Y-62992000D02*
X109448600Y-63623600D01*
D28*
X109448600Y-63623600D02*
X109470000Y-63645000D01*
%TO.N,IO_L20*%
X111048800Y-63623800D02*
X111070000Y-63645000D01*
D26*
X111048800Y-63017400D02*
X111048800Y-63623800D01*
%TO.N,IO_E20*%
X108670000Y-63003303D02*
X108670000Y-63645000D01*
D28*
X108670710Y-63002593D02*
X108670000Y-63003303D01*
D26*
%TO.N,IO_H20*%
X109880400Y-62712600D02*
X109880400Y-63634600D01*
D28*
X109880400Y-63634600D02*
X109870000Y-63645000D01*
%TO.N,IO_K20*%
X110667800Y-63642800D02*
X110670000Y-63645000D01*
D26*
X110667800Y-62712600D02*
X110667800Y-63642800D01*
D28*
%TO.N,IO_M20*%
X111455200Y-63630200D02*
X111470000Y-63645000D01*
D26*
X111455200Y-62712600D02*
X111455200Y-63630200D01*
%TO.N,IO_D20*%
X108274372Y-62712600D02*
X108274372Y-63640628D01*
D28*
X108274372Y-63640628D02*
X108270000Y-63645000D01*
%TO.N,IO_F20*%
X109063943Y-63638943D02*
X109070000Y-63645000D01*
D26*
X109063943Y-62709918D02*
X109063943Y-63638943D01*
%TO.N,IO_B20*%
X107470000Y-63220000D02*
X107470000Y-63645000D01*
X105971800Y-62850000D02*
X107100000Y-62850000D01*
X107100000Y-62850000D02*
X107470000Y-63220000D01*
%TO.N,IO_P20*%
X112252110Y-62676607D02*
X112252110Y-63627110D01*
D28*
X112252110Y-63627110D02*
X112270000Y-63645000D01*
%TO.N,IO_T20*%
X113055400Y-63630400D02*
X113070000Y-63645000D01*
D26*
X113055400Y-62687200D02*
X113055400Y-63630400D01*
%TO.N,IO_R20*%
X112649000Y-62941200D02*
X112649000Y-63624000D01*
D28*
X112649000Y-63624000D02*
X112670000Y-63645000D01*
%TO.N,IO_U20*%
X113461800Y-63636800D02*
X113470000Y-63645000D01*
D26*
X113461800Y-62966600D02*
X113461800Y-63636800D01*
%TO.N,IO_N20*%
X111840602Y-63012998D02*
X111840602Y-63615602D01*
%TO.N,IO_N19*%
X115070000Y-60147200D02*
X115070000Y-60935000D01*
%TO.N,IO_A19*%
X105079800Y-64439800D02*
X105079800Y-63654800D01*
D28*
X105079800Y-63654800D02*
X105070000Y-63645000D01*
D26*
%TO.N,IO_L19*%
X113487200Y-61661300D02*
X113487200Y-60952200D01*
D28*
X113487200Y-60952200D02*
X113470000Y-60935000D01*
D26*
%TO.N,IO_T19*%
X115870000Y-60935000D02*
X115870000Y-60152000D01*
D28*
X115870000Y-60152000D02*
X115874800Y-60147200D01*
D26*
%TO.N,IO_M19*%
X114274600Y-61671200D02*
X114274600Y-60939600D01*
D28*
X114274600Y-60939600D02*
X114270000Y-60935000D01*
D26*
%TO.N,IO_B19*%
X105470000Y-63645000D02*
X105470000Y-64703000D01*
D28*
X105486200Y-63661200D02*
X105470000Y-63645000D01*
X105470000Y-64703000D02*
X105486200Y-64719200D01*
%TO.N,IO_K19*%
X112674400Y-60930600D02*
X112670000Y-60935000D01*
D26*
X112674400Y-60147200D02*
X112674400Y-60930600D01*
%TO.N,IO_J19*%
X112268000Y-61696600D02*
X112268000Y-60937000D01*
D28*
X112268000Y-60937000D02*
X112270000Y-60935000D01*
D26*
%TO.N,IO_P19*%
X115470000Y-61674993D02*
X115470000Y-60935000D01*
D28*
X115466630Y-61678363D02*
X115470000Y-61674993D01*
%TO.N,IO_U19*%
X116281200Y-60946200D02*
X116270000Y-60935000D01*
D26*
X116281200Y-61671200D02*
X116281200Y-60946200D01*
%TO.N,IO_A18*%
X112300000Y-68650000D02*
X118300000Y-68650000D01*
X111500000Y-71900000D02*
X111500000Y-69450000D01*
X118670000Y-65270000D02*
X118670000Y-63645000D01*
X111099600Y-72300400D02*
X111099600Y-72339200D01*
X111500000Y-71900000D02*
X111099600Y-72300400D01*
X111500000Y-69450000D02*
X112300000Y-68650000D01*
X118300000Y-68650000D02*
X119123200Y-67826800D01*
X119123200Y-65723200D02*
X118670000Y-65270000D01*
X119123200Y-67826800D02*
X119123200Y-65723200D01*
%TO.N,IO_A13*%
X115379911Y-67028049D02*
X116670000Y-65737960D01*
X109408800Y-69391200D02*
X111771951Y-67028049D01*
X109408800Y-75258800D02*
X109408800Y-69391200D01*
X110439572Y-76289572D02*
X109408800Y-75258800D01*
X111771951Y-67028049D02*
X115379911Y-67028049D01*
X116670000Y-65737960D02*
X116670000Y-63645000D01*
X111119572Y-76289572D02*
X110439572Y-76289572D01*
%TO.N,IO_A16*%
X110350000Y-69738296D02*
X110350000Y-73164400D01*
X117870000Y-66380000D02*
X117554000Y-66696000D01*
X117870000Y-63645000D02*
X117870000Y-66380000D01*
X117554000Y-66696000D02*
X117554000Y-67446000D01*
X112127658Y-67960638D02*
X110350000Y-69738296D01*
X110350000Y-73164400D02*
X111099600Y-73914000D01*
X117554000Y-67446000D02*
X117039362Y-67960638D01*
X117039362Y-67960638D02*
X112127658Y-67960638D01*
%TO.N,IO_A17*%
X110650000Y-72626200D02*
X111099600Y-73075800D01*
X118350000Y-67600000D02*
X117656233Y-68293767D01*
X118270000Y-63645000D02*
X118350000Y-63725000D01*
X112261101Y-68293767D02*
X110650000Y-69904868D01*
X118350000Y-63725000D02*
X118350000Y-67600000D01*
X117656233Y-68293767D02*
X112261101Y-68293767D01*
X110650000Y-69904868D02*
X110650000Y-72626200D01*
%TO.N,IO_A15*%
X117470000Y-65930000D02*
X115750000Y-67650000D01*
X115750000Y-67650000D02*
X112000000Y-67650000D01*
X117470000Y-63645000D02*
X117470000Y-65930000D01*
X110070600Y-69579400D02*
X110070600Y-73672400D01*
X112000000Y-67650000D02*
X110070600Y-69579400D01*
X110070600Y-73672400D02*
X111099600Y-74701400D01*
%TO.N,IO_A14*%
X109750000Y-69492350D02*
X111892350Y-67350000D01*
X111892350Y-67350000D02*
X115600000Y-67350000D01*
X117070000Y-65880000D02*
X117070000Y-63645000D01*
X109750000Y-74950000D02*
X109750000Y-69492350D01*
X115600000Y-67350000D02*
X117070000Y-65880000D01*
X110337600Y-75539600D02*
X110337600Y-75537600D01*
X110337600Y-75537600D02*
X109750000Y-74950000D01*
%TO.N,IO_A11*%
X114952116Y-66447884D02*
X115870000Y-65530000D01*
X111489980Y-66447884D02*
X114952116Y-66447884D01*
X108850000Y-77350000D02*
X108850000Y-69087864D01*
X115870000Y-65530000D02*
X115870000Y-63645000D01*
X108850000Y-69087864D02*
X111489980Y-66447884D01*
X109376400Y-77876400D02*
X108850000Y-77350000D01*
X111099600Y-77876400D02*
X109376400Y-77876400D01*
%TO.N,IO_A12*%
X109439000Y-77089000D02*
X111099600Y-77089000D01*
X111605711Y-66727284D02*
X109129400Y-69203595D01*
X116270000Y-63645000D02*
X116270000Y-65580000D01*
X115122716Y-66727284D02*
X111605711Y-66727284D01*
X116270000Y-65580000D02*
X115122716Y-66727284D01*
X109129400Y-76779400D02*
X109439000Y-77089000D01*
X109129400Y-69203595D02*
X109129400Y-76779400D01*
%TO.N,IO_B18*%
X120675400Y-60198000D02*
X120675400Y-60929600D01*
D28*
X120675400Y-60929600D02*
X120670000Y-60935000D01*
%TO.N,IO_B16*%
X119862600Y-60927600D02*
X119870000Y-60935000D01*
D26*
X119862600Y-60172600D02*
X119862600Y-60927600D01*
D28*
%TO.N,IO_B15*%
X119481600Y-60946600D02*
X119470000Y-60935000D01*
D26*
X119481600Y-61722000D02*
X119481600Y-60946600D01*
%TO.N,IO_B11*%
X118270000Y-60154800D02*
X118270000Y-60935000D01*
D28*
X118262400Y-60147200D02*
X118270000Y-60154800D01*
%TO.N,IO_B17*%
X120269000Y-60936000D02*
X120270000Y-60935000D01*
D26*
X120269000Y-61722000D02*
X120269000Y-60936000D01*
D28*
%TO.N,IO_B13*%
X119075200Y-60929800D02*
X119070000Y-60935000D01*
D26*
X119075200Y-60147200D02*
X119075200Y-60929800D01*
%TO.N,IO_B12*%
X118668800Y-61747400D02*
X118668800Y-60936200D01*
D28*
X118668800Y-60936200D02*
X118670000Y-60935000D01*
%TO.N,IO_A6*%
X111074200Y-81864200D02*
X111099600Y-81889600D01*
D26*
X107350000Y-80000000D02*
X109214200Y-81864200D01*
X109214200Y-81864200D02*
X111074200Y-81864200D01*
X113870000Y-64900000D02*
X110650000Y-64900000D01*
X110650000Y-64900000D02*
X107350000Y-68200000D01*
X113870000Y-63645000D02*
X113870000Y-64900000D01*
X107350000Y-68200000D02*
X107350000Y-80000000D01*
%TO.N,IO_A9*%
X108279400Y-78629400D02*
X108279400Y-68828445D01*
X114650092Y-65849908D02*
X115070000Y-65430000D01*
X111099600Y-79476600D02*
X109126600Y-79476600D01*
X108279400Y-68828445D02*
X111257937Y-65849908D01*
X109126600Y-79476600D02*
X108279400Y-78629400D01*
X111257937Y-65849908D02*
X114650092Y-65849908D01*
X115070000Y-65430000D02*
X115070000Y-63645000D01*
%TO.N,IO_A10*%
X115470000Y-65480000D02*
X114781516Y-66168484D01*
X108558800Y-68983933D02*
X108558800Y-78208800D01*
X111374249Y-66168484D02*
X108558800Y-68983933D01*
X114781516Y-66168484D02*
X111374249Y-66168484D01*
X109050000Y-78700000D02*
X111063400Y-78700000D01*
X115470000Y-63645000D02*
X115470000Y-65480000D01*
X108558800Y-78208800D02*
X109050000Y-78700000D01*
X111063400Y-78700000D02*
X111099600Y-78663800D01*
%TO.N,IO_A8*%
X108000000Y-79093865D02*
X108000000Y-68644462D01*
X114530917Y-65519083D02*
X114670000Y-65380000D01*
X108000000Y-68644462D02*
X111125379Y-65519083D01*
X111125379Y-65519083D02*
X114530917Y-65519083D01*
X114670000Y-65380000D02*
X114670000Y-63645000D01*
X109195535Y-80289400D02*
X108000000Y-79093865D01*
X111099600Y-80289400D02*
X109195535Y-80289400D01*
%TO.N,IO_A7*%
X110850000Y-65200000D02*
X114270000Y-65200000D01*
X107700000Y-79600000D02*
X107700000Y-68350000D01*
X110210600Y-81051400D02*
X109151400Y-81051400D01*
X109151400Y-81051400D02*
X107700000Y-79600000D01*
X107700000Y-68350000D02*
X110850000Y-65200000D01*
X114270000Y-65200000D02*
X114270000Y-63645000D01*
%TO.N,IO_B6*%
X116687600Y-60917400D02*
X116670000Y-60935000D01*
X116687600Y-60147200D02*
X116687600Y-60917400D01*
%TO.N,IO_B9*%
X117475000Y-60147200D02*
X117475000Y-60930000D01*
D28*
%TO.N,IO_B8*%
X117053100Y-61722000D02*
X117070000Y-61705100D01*
D26*
X117070000Y-61705100D02*
X117070000Y-60935000D01*
%TO.N,IO_B10*%
X117856000Y-61747400D02*
X117856000Y-60949000D01*
D28*
X117856000Y-60949000D02*
X117870000Y-60935000D01*
D26*
%TO.N,IO_C10*%
X124700000Y-96400000D02*
X124700000Y-97610000D01*
X124700000Y-97610000D02*
X124670000Y-97640000D01*
%TO.N,IO_C14*%
X122275600Y-60248800D02*
X122275600Y-60929400D01*
X122275600Y-60929400D02*
X122270000Y-60935000D01*
D28*
%TO.N,IO_C12*%
X123063000Y-60928000D02*
X123070000Y-60935000D01*
D26*
X123063000Y-60248800D02*
X123063000Y-60928000D01*
%TO.N,IO_C13*%
X122656600Y-61747400D02*
X122656600Y-60948400D01*
D28*
X122656600Y-60948400D02*
X122670000Y-60935000D01*
D26*
%TO.N,IO_C17*%
X121070000Y-61733800D02*
X121070000Y-60935000D01*
D28*
X121070000Y-61126000D02*
X121056400Y-61112400D01*
D26*
%TO.N,IO_C15*%
X121869200Y-61747400D02*
X121869200Y-60935800D01*
D28*
X121869200Y-60935800D02*
X121870000Y-60935000D01*
D26*
%TO.N,IO_C16*%
X121488200Y-60223400D02*
X121488200Y-60916800D01*
%TO.N,IO_D15*%
X106680000Y-64439800D02*
X106680000Y-63655000D01*
D28*
X106680000Y-63655000D02*
X106670000Y-63645000D01*
D26*
%TO.N,IO_D14*%
X107061000Y-64770000D02*
X107061000Y-63654000D01*
D28*
X107061000Y-63654000D02*
X107070000Y-63645000D01*
D27*
%TO.N,IO_D13*%
X106273600Y-63641400D02*
X106270000Y-63645000D01*
D26*
X106273600Y-64744600D02*
X106273600Y-63648600D01*
D28*
X106273600Y-63648600D02*
X106270000Y-63645000D01*
D26*
%TO.N,IO_D12*%
X105870857Y-64437118D02*
X105870857Y-63645857D01*
D28*
X105870857Y-63645857D02*
X105870000Y-63645000D01*
%TO.N,IO_D18*%
X119470000Y-64402800D02*
X119481600Y-64414400D01*
X119470000Y-63645000D02*
X119470000Y-64402800D01*
X119481600Y-63633400D02*
X119470000Y-63645000D01*
D26*
%TO.N,IO_D19*%
X119870000Y-63645000D02*
X119870000Y-64838800D01*
X119870000Y-64838800D02*
X119862600Y-64846200D01*
%TO.N,IO_F19*%
X121470000Y-65220000D02*
X121470000Y-63645000D01*
X121462800Y-65227200D02*
X121470000Y-65220000D01*
%TO.N,IO_F17*%
X121056400Y-63658600D02*
X121070000Y-63645000D01*
X121056400Y-64414400D02*
X121056400Y-63658600D01*
%TO.N,IO_E17*%
X119070000Y-64813300D02*
X119062500Y-64820800D01*
X119070000Y-63645000D02*
X119070000Y-64813300D01*
X119062500Y-64858900D02*
X119070000Y-64851400D01*
%TO.N,IO_E18*%
X120270000Y-63645000D02*
X120270000Y-64413400D01*
X120270000Y-64413400D02*
X120269000Y-64414400D01*
%TO.N,IO_E19*%
X120650000Y-64871600D02*
X120650000Y-63665000D01*
X120650000Y-63665000D02*
X120670000Y-63645000D01*
%TO.N,IO_D9*%
X103936800Y-96412800D02*
X104013000Y-96489000D01*
X103936800Y-96412800D02*
X104987200Y-96412800D01*
X105870000Y-95530000D02*
X105870000Y-94930000D01*
X104987200Y-96412800D02*
X105870000Y-95530000D01*
%TO.N,IO_E15*%
X103149400Y-94157800D02*
X103251000Y-94157800D01*
X106670000Y-94447600D02*
X106380200Y-94157800D01*
X106380200Y-94157800D02*
X103149400Y-94157800D01*
X106670000Y-94930000D02*
X106670000Y-94447600D01*
%TO.N,IO_E9*%
X107870000Y-94447600D02*
X107870000Y-94930000D01*
X103911400Y-92938600D02*
X103936800Y-92913200D01*
X103911400Y-92938600D02*
X106361000Y-92938600D01*
X106361000Y-92938600D02*
X107870000Y-94447600D01*
%TO.N,IO_D10*%
X105070000Y-94930000D02*
X105070000Y-95412400D01*
X105070000Y-95412400D02*
X104826000Y-95656400D01*
X104826000Y-95656400D02*
X103936800Y-95656400D01*
%TO.N,IO_E11*%
X103225600Y-96034600D02*
X104898600Y-96034600D01*
X104898600Y-96034600D02*
X105470000Y-95463200D01*
X105470000Y-95463200D02*
X105470000Y-94930000D01*
%TO.N,IO_E4*%
X107850000Y-96950000D02*
X107850000Y-97620000D01*
X107850000Y-97620000D02*
X107870000Y-97640000D01*
%TO.N,IO_E10*%
X106270000Y-95630000D02*
X105049800Y-96850200D01*
X105049800Y-96850200D02*
X103225600Y-96850200D01*
X106270000Y-94930000D02*
X106270000Y-95630000D01*
%TO.N,IO_E13*%
X103936800Y-93751400D02*
X104038400Y-93751400D01*
X106373800Y-93751400D02*
X103936800Y-93751400D01*
X107070000Y-94447600D02*
X106373800Y-93751400D01*
X107070000Y-94930000D02*
X107070000Y-94447600D01*
%TO.N,IO_E14*%
X103124000Y-93319600D02*
X106342000Y-93319600D01*
X107470000Y-94447600D02*
X107470000Y-94930000D01*
X106342000Y-93319600D02*
X107470000Y-94447600D01*
%TO.N,/Hirose Connectors/IO_N3*%
X122650000Y-97620000D02*
X122670000Y-97640000D01*
X122650000Y-96850000D02*
X122650000Y-97620000D01*
%TO.N,/Hirose Connectors/IO_N2*%
X123450000Y-96850000D02*
X123450000Y-97620000D01*
X123450000Y-97620000D02*
X123470000Y-97640000D01*
%TO.N,/Hirose Connectors/IO_P2*%
X123070000Y-63230000D02*
X123070000Y-63645000D01*
X123400000Y-62900000D02*
X123070000Y-63230000D01*
%TO.N,/Hirose Connectors/IO_N5*%
X113870000Y-60170000D02*
X113870000Y-60935000D01*
X113850000Y-60150000D02*
X113870000Y-60170000D01*
%TO.N,/Hirose Connectors/IO_P5*%
X114670000Y-60364800D02*
X114670000Y-60935000D01*
X114439700Y-60134500D02*
X114670000Y-60364800D01*
%TO.N,/Hirose Connectors/IO_P4*%
X122670000Y-62978600D02*
X122670000Y-63645000D01*
X122656600Y-62915800D02*
X122656600Y-62890400D01*
%TO.N,/Hirose Connectors/IO_N4*%
X121951000Y-62900000D02*
X122270000Y-63219000D01*
X121503700Y-62900000D02*
X121951000Y-62900000D01*
X121503700Y-62900000D02*
X121525000Y-62900000D01*
X122270000Y-63219000D02*
X122270000Y-63645000D01*
%TO.N,/Hirose Connectors/IO_P3*%
X124300000Y-97610000D02*
X124270000Y-97640000D01*
X124300000Y-96850000D02*
X124300000Y-97610000D01*
%TO.N,/Hirose Connectors/IO_K3*%
X119300000Y-98724128D02*
X118670000Y-98094128D01*
X118670000Y-98094128D02*
X118670000Y-97640000D01*
%TO.N,/Hirose Connectors/IO_C2*%
X118445928Y-98778200D02*
X116928200Y-98778200D01*
X118500000Y-98724128D02*
X118445928Y-98778200D01*
X116928200Y-98778200D02*
X116670000Y-98520000D01*
X116670000Y-98520000D02*
X116670000Y-97640000D01*
%TO.N,/Hirose Connectors/IO_F3*%
X119470000Y-98094128D02*
X119470000Y-97640000D01*
X120100000Y-98724128D02*
X119470000Y-98094128D01*
%TO.N,/Hirose Connectors/IO_J3*%
X118650000Y-96850000D02*
X118270000Y-97230000D01*
X118270000Y-97230000D02*
X118270000Y-97640000D01*
D28*
%TO.N,/Hirose Connectors/IO_C8*%
X122250000Y-96400000D02*
X122250000Y-97620000D01*
X122250000Y-97620000D02*
X122270000Y-97640000D01*
D26*
%TO.N,/Hirose Connectors/IO_L2*%
X120270000Y-96870000D02*
X120270000Y-97640000D01*
X120250000Y-96850000D02*
X120270000Y-96870000D01*
%TO.N,/Hirose Connectors/IO_K2*%
X119070000Y-95735144D02*
X119070000Y-97640000D01*
X119067428Y-95732572D02*
X119070000Y-95735144D01*
%TO.N,/Hirose Connectors/IO_M3*%
X121850000Y-96850000D02*
X121850000Y-97620000D01*
X121850000Y-97620000D02*
X121870000Y-97640000D01*
%TO.N,/Hirose Connectors/IO_D11*%
X123850000Y-97620000D02*
X123870000Y-97640000D01*
X123850000Y-96400000D02*
X123850000Y-97620000D01*
D28*
%TO.N,/Hirose Connectors/IO_C11*%
X119850000Y-96400000D02*
X119850000Y-97620000D01*
X119850000Y-97620000D02*
X119870000Y-97640000D01*
D26*
%TO.N,/Hirose Connectors/IO_E3*%
X117470000Y-96558200D02*
X117470000Y-97640000D01*
X117878200Y-96150000D02*
X117470000Y-96558200D01*
D28*
%TO.N,/Hirose Connectors/IO_C6*%
X120650000Y-96400000D02*
X120650000Y-97620000D01*
X120650000Y-97620000D02*
X120670000Y-97640000D01*
D26*
%TO.N,/Hirose Connectors/IO_L3*%
X121050000Y-97620000D02*
X121070000Y-97640000D01*
X121050000Y-96900000D02*
X121050000Y-97620000D01*
%TO.N,/Hirose Connectors/IO_D3*%
X117070000Y-98122400D02*
X117070000Y-97640000D01*
X118000000Y-98400000D02*
X117347600Y-98400000D01*
X117347600Y-98400000D02*
X117070000Y-98122400D01*
%TO.N,/Hirose Connectors/IO_H2*%
X117870000Y-97080000D02*
X117870000Y-97640000D01*
X118100000Y-96850000D02*
X117870000Y-97080000D01*
%TO.N,/Hirose Connectors/IO_C9*%
X123050000Y-96400000D02*
X123050000Y-97620000D01*
X123050000Y-97620000D02*
X123070000Y-97640000D01*
D28*
%TO.N,/Hirose Connectors/IO_C7*%
X121450000Y-96400000D02*
X121450000Y-97620000D01*
X121450000Y-97620000D02*
X121470000Y-97640000D01*
D26*
%TO.N,/Hirose Connectors/IO_H3*%
X114150000Y-97100000D02*
X114270000Y-97220000D01*
X114300000Y-95900000D02*
X114300000Y-96600000D01*
X114300000Y-96600000D02*
X114150000Y-96750000D01*
X114270000Y-97220000D02*
X114270000Y-97640000D01*
X114150000Y-96750000D02*
X114150000Y-97100000D01*
%TO.N,/Hirose Connectors/IO_G3*%
X113470000Y-95930000D02*
X113470000Y-97640000D01*
X113500000Y-95900000D02*
X113470000Y-95930000D01*
%TD*%
%TA.AperFunction,Conductor*%
%TO.N,/Power/SW_3V3*%
G36*
X97632894Y-85408999D02*
G01*
X97659596Y-85425301D01*
X97659605Y-85425306D01*
X97659610Y-85425309D01*
X97669890Y-85430973D01*
X97669898Y-85430977D01*
X97669909Y-85430983D01*
X97679843Y-85435895D01*
X97690612Y-85440638D01*
X97690617Y-85440640D01*
X97690624Y-85440643D01*
X97696056Y-85442752D01*
X97700074Y-85444312D01*
X97722660Y-85450844D01*
X97744345Y-85455075D01*
X97767735Y-85457512D01*
X97777886Y-85457664D01*
X97779279Y-85457685D01*
X97779275Y-85457930D01*
X97795932Y-85460114D01*
X97806599Y-85464381D01*
X97969909Y-85468119D01*
X98247687Y-85474478D01*
X98270466Y-85479342D01*
X98288315Y-85486843D01*
X98321092Y-85518806D01*
X98329038Y-85536457D01*
X98334475Y-85559111D01*
X98343351Y-85743668D01*
X98339407Y-85768713D01*
X98332163Y-85787933D01*
X98299447Y-85822831D01*
X98297652Y-85823609D01*
X98278674Y-85831487D01*
X98253781Y-85836256D01*
X97996518Y-85832407D01*
X97861630Y-85830389D01*
X97843851Y-85830123D01*
X97843847Y-85830123D01*
X97843845Y-85830123D01*
X97825258Y-85829845D01*
X97808632Y-85838157D01*
X97808631Y-85838157D01*
X97808627Y-85838159D01*
X97644584Y-85920180D01*
X97637938Y-85923035D01*
X97631625Y-85925324D01*
X97617552Y-85928647D01*
X97610873Y-85929425D01*
X97603642Y-85929845D01*
X95308354Y-85929845D01*
X94710065Y-86065134D01*
X94695539Y-86077832D01*
X94695539Y-86077833D01*
X93963907Y-86717503D01*
X93954917Y-86724049D01*
X93946189Y-86729284D01*
X93925479Y-86737130D01*
X93915487Y-86738990D01*
X93904419Y-86740044D01*
X93888290Y-86740140D01*
X91703027Y-86753061D01*
X91678920Y-86748379D01*
X91660328Y-86740746D01*
X91626398Y-86707027D01*
X91626265Y-86706707D01*
X91625567Y-86705011D01*
X91618617Y-86688115D01*
X91613920Y-86664018D01*
X91619892Y-85530986D01*
X91624668Y-85507353D01*
X91632277Y-85489025D01*
X91665613Y-85455443D01*
X91683886Y-85447700D01*
X91707481Y-85442752D01*
X93646738Y-85418406D01*
X95124651Y-85399853D01*
X95124978Y-85399850D01*
X95125387Y-85399847D01*
X95125845Y-85399845D01*
X97600328Y-85399845D01*
X97632894Y-85408999D01*
G37*
%TD.AperFunction*%
%TD*%
%TA.AperFunction,Conductor*%
%TO.N,/Power/SW_1V1*%
G36*
X97648577Y-67911543D02*
G01*
X97675279Y-67927845D01*
X97675288Y-67927850D01*
X97675293Y-67927853D01*
X97685573Y-67933517D01*
X97685581Y-67933521D01*
X97685592Y-67933527D01*
X97695526Y-67938439D01*
X97706295Y-67943182D01*
X97706300Y-67943184D01*
X97706307Y-67943187D01*
X97711739Y-67945296D01*
X97715757Y-67946856D01*
X97738343Y-67953388D01*
X97760028Y-67957619D01*
X97783418Y-67960056D01*
X97793569Y-67960208D01*
X97794962Y-67960229D01*
X97794958Y-67960474D01*
X97811615Y-67962658D01*
X97822282Y-67966925D01*
X97985592Y-67970663D01*
X98263370Y-67977022D01*
X98286149Y-67981886D01*
X98303998Y-67989387D01*
X98336775Y-68021350D01*
X98344721Y-68039001D01*
X98350158Y-68061655D01*
X98359034Y-68246212D01*
X98355090Y-68271257D01*
X98347846Y-68290477D01*
X98315130Y-68325375D01*
X98313335Y-68326153D01*
X98294357Y-68334031D01*
X98269464Y-68338800D01*
X98012201Y-68334951D01*
X97877313Y-68332933D01*
X97859534Y-68332667D01*
X97859530Y-68332667D01*
X97859528Y-68332667D01*
X97840941Y-68332389D01*
X97824315Y-68340701D01*
X97824314Y-68340701D01*
X97824310Y-68340703D01*
X97660267Y-68422724D01*
X97653621Y-68425579D01*
X97647308Y-68427868D01*
X97633235Y-68431191D01*
X97626556Y-68431969D01*
X97619325Y-68432389D01*
X95324037Y-68432389D01*
X94725748Y-68567678D01*
X94711222Y-68580376D01*
X94711222Y-68580377D01*
X93979590Y-69220047D01*
X93970600Y-69226593D01*
X93961872Y-69231828D01*
X93941162Y-69239674D01*
X93931170Y-69241534D01*
X93920102Y-69242588D01*
X93903973Y-69242684D01*
X91718710Y-69255605D01*
X91694603Y-69250923D01*
X91676011Y-69243290D01*
X91642081Y-69209571D01*
X91641948Y-69209251D01*
X91641250Y-69207555D01*
X91634300Y-69190659D01*
X91629603Y-69166562D01*
X91635575Y-68033530D01*
X91640351Y-68009897D01*
X91647960Y-67991569D01*
X91681296Y-67957987D01*
X91699569Y-67950244D01*
X91723164Y-67945296D01*
X93662421Y-67920950D01*
X95140334Y-67902397D01*
X95140661Y-67902394D01*
X95141070Y-67902391D01*
X95141528Y-67902389D01*
X97616011Y-67902389D01*
X97648577Y-67911543D01*
G37*
%TD.AperFunction*%
%TD*%
%TA.AperFunction,Conductor*%
%TO.N,GND*%
G36*
X107103623Y-83452585D02*
G01*
X107103644Y-83464439D01*
X107103644Y-83464446D01*
X107104496Y-83930191D01*
X107104687Y-83932179D01*
X107104552Y-83959845D01*
X107104552Y-83959884D01*
X107104551Y-83960146D01*
X107104551Y-83960261D01*
X107104551Y-83960380D01*
X107104550Y-83960451D01*
X107096963Y-85516341D01*
X107090191Y-86905223D01*
X107090001Y-86944108D01*
X107090001Y-86944115D01*
X107090000Y-86944315D01*
X107090000Y-86944628D01*
X107099264Y-92611508D01*
X107094556Y-92635407D01*
X107086946Y-92653888D01*
X107053238Y-92687764D01*
X107034797Y-92695465D01*
X107010920Y-92700292D01*
X104132296Y-92709806D01*
X104091915Y-92695184D01*
X104064985Y-92672586D01*
X104064982Y-92672585D01*
X103964741Y-92636100D01*
X103964739Y-92636100D01*
X103858061Y-92636100D01*
X103858058Y-92636100D01*
X103757816Y-92672585D01*
X103729135Y-92696650D01*
X103689171Y-92711270D01*
X100209665Y-92722772D01*
X98856049Y-92727246D01*
X98840621Y-92724162D01*
X98840492Y-92724796D01*
X98836354Y-92723947D01*
X98836354Y-92723578D01*
X98834490Y-92723565D01*
X96109849Y-92705086D01*
X96086031Y-92700194D01*
X96067633Y-92692452D01*
X96034055Y-92658573D01*
X96026476Y-92640104D01*
X96021799Y-92616252D01*
X96022174Y-92442163D01*
X96040575Y-92398010D01*
X96065619Y-92387668D01*
X96073488Y-92379800D01*
X96073488Y-91668600D01*
X96064303Y-91659415D01*
X96042282Y-91650294D01*
X96023976Y-91606100D01*
X96024417Y-91401263D01*
X96042818Y-91357111D01*
X96086917Y-91338900D01*
X101636850Y-91338900D01*
X101636855Y-91338899D01*
X101658002Y-91333232D01*
X101708037Y-91319825D01*
X101771862Y-91282976D01*
X105024376Y-88030462D01*
X105061225Y-87966637D01*
X105080300Y-87895450D01*
X105080300Y-87821750D01*
X105080300Y-87173105D01*
X105098606Y-87128911D01*
X105142519Y-87110606D01*
X106655090Y-87103844D01*
X106652689Y-83964282D01*
X106576701Y-83964130D01*
X106576699Y-83964129D01*
X100591102Y-83952155D01*
X100546945Y-83933761D01*
X100528727Y-83889530D01*
X100529676Y-83878808D01*
X100535567Y-83845400D01*
X100517043Y-83740343D01*
X100463704Y-83647957D01*
X100425486Y-83615888D01*
X100381985Y-83579386D01*
X100381982Y-83579385D01*
X100281741Y-83542900D01*
X100281739Y-83542900D01*
X100175061Y-83542900D01*
X100175058Y-83542900D01*
X100074818Y-83579385D01*
X100074815Y-83579387D01*
X99993095Y-83647957D01*
X99939757Y-83740341D01*
X99939756Y-83740345D01*
X99928256Y-83805560D01*
X99910900Y-83838900D01*
X99817587Y-83932214D01*
X99773393Y-83950520D01*
X99773268Y-83950520D01*
X99467654Y-83949909D01*
X99466910Y-83949908D01*
X99466908Y-83949908D01*
X99435258Y-83949845D01*
X99412878Y-83972224D01*
X99412872Y-83972229D01*
X99338378Y-84046724D01*
X99338375Y-84046727D01*
X99316058Y-84069045D01*
X99316058Y-85459845D01*
X100065463Y-85459845D01*
X100076332Y-85460797D01*
X100086179Y-85462537D01*
X100106612Y-85469991D01*
X100115264Y-85474999D01*
X100124199Y-85481272D01*
X100160660Y-85511958D01*
X100170014Y-85521748D01*
X100177452Y-85531449D01*
X100188847Y-85555840D01*
X100191515Y-85567772D01*
X100193021Y-85581228D01*
X100193466Y-85733737D01*
X100188957Y-85757228D01*
X100181598Y-85775537D01*
X100149000Y-85809336D01*
X100130965Y-85817354D01*
X100107660Y-85822708D01*
X99805258Y-85832772D01*
X99364821Y-85847431D01*
X99364819Y-85847431D01*
X99364817Y-85847432D01*
X99290935Y-85849891D01*
X99291152Y-85923812D01*
X99291152Y-85923815D01*
X99293808Y-86824771D01*
X99293809Y-86824775D01*
X99293967Y-86878191D01*
X99344240Y-86896257D01*
X99344243Y-86896259D01*
X99418818Y-86923058D01*
X99491800Y-86949285D01*
X101092000Y-86959778D01*
X101090809Y-86868472D01*
X101085348Y-86449728D01*
X101089870Y-86425564D01*
X101097386Y-86406905D01*
X101130878Y-86372751D01*
X101131047Y-86372679D01*
X101149812Y-86364834D01*
X101173916Y-86360000D01*
X102300771Y-86360000D01*
X102318950Y-86362702D01*
X102334300Y-86367370D01*
X102364512Y-86387617D01*
X102374663Y-86400039D01*
X102384075Y-86415829D01*
X102598159Y-86936777D01*
X102674131Y-87121644D01*
X102725445Y-87121414D01*
X102725447Y-87121415D01*
X102725452Y-87121414D01*
X102725453Y-87121415D01*
X102785210Y-87121147D01*
X104457721Y-87113668D01*
X104501996Y-87131776D01*
X104520499Y-87175887D01*
X104520500Y-87176167D01*
X104520500Y-87716774D01*
X104502194Y-87760968D01*
X101502368Y-90760794D01*
X101458174Y-90779100D01*
X96088393Y-90779100D01*
X96044199Y-90760794D01*
X96025893Y-90716600D01*
X96025893Y-90716465D01*
X96026280Y-90537165D01*
X96044681Y-90493011D01*
X96062730Y-90485557D01*
X96073488Y-90474800D01*
X96073488Y-89763600D01*
X96061401Y-89751513D01*
X96046387Y-89745294D01*
X96028081Y-89701100D01*
X96029599Y-88996809D01*
X96048000Y-88952656D01*
X96060396Y-88947536D01*
X96073488Y-88934445D01*
X96073488Y-88223245D01*
X96059053Y-88208810D01*
X96049707Y-88204939D01*
X96031401Y-88160745D01*
X96031401Y-88160610D01*
X96032654Y-87579200D01*
X103664433Y-87579200D01*
X103682957Y-87684257D01*
X103736296Y-87776643D01*
X103818014Y-87845213D01*
X103818015Y-87845213D01*
X103818016Y-87845214D01*
X103918261Y-87881700D01*
X103918264Y-87881700D01*
X104024936Y-87881700D01*
X104024939Y-87881700D01*
X104125184Y-87845214D01*
X104206904Y-87776643D01*
X104260243Y-87684257D01*
X104278767Y-87579200D01*
X104260243Y-87474143D01*
X104206904Y-87381757D01*
X104206903Y-87381756D01*
X104125185Y-87313186D01*
X104125182Y-87313185D01*
X104024941Y-87276700D01*
X104024939Y-87276700D01*
X103918261Y-87276700D01*
X103918258Y-87276700D01*
X103818018Y-87313185D01*
X103818015Y-87313187D01*
X103736295Y-87381757D01*
X103682957Y-87474142D01*
X103664433Y-87579200D01*
X96032654Y-87579200D01*
X96033493Y-87189845D01*
X95497463Y-86915023D01*
X95483467Y-86905223D01*
X95472421Y-86894973D01*
X95454770Y-86866087D01*
X95450688Y-86851578D01*
X95448354Y-86834656D01*
X95448354Y-86428477D01*
X95453110Y-86404563D01*
X95454984Y-86400039D01*
X95460764Y-86386082D01*
X95494584Y-86352258D01*
X95513072Y-86344601D01*
X95536986Y-86339845D01*
X97493694Y-86339845D01*
X97493695Y-86339845D01*
X97525258Y-86339845D01*
X97848591Y-86016511D01*
X97858050Y-86008748D01*
X97867327Y-86002549D01*
X97889855Y-85993219D01*
X97900788Y-85991045D01*
X97912976Y-85989845D01*
X98905235Y-85989845D01*
X98933423Y-85989845D01*
X99026858Y-85909758D01*
X99026858Y-84169845D01*
X98950658Y-84169845D01*
X98950657Y-84169845D01*
X98799658Y-84169845D01*
X98755464Y-84151539D01*
X98737158Y-84107345D01*
X98737158Y-84069408D01*
X98737157Y-84069402D01*
X98727021Y-84031577D01*
X98718083Y-83998221D01*
X98681234Y-83934396D01*
X98629120Y-83882282D01*
X98531312Y-83784474D01*
X98513956Y-83751133D01*
X98510425Y-83731108D01*
X98510421Y-83731098D01*
X98452396Y-83630597D01*
X98363488Y-83555993D01*
X98254431Y-83516300D01*
X98254429Y-83516300D01*
X98138371Y-83516300D01*
X98138368Y-83516300D01*
X98029313Y-83555993D01*
X98029310Y-83555995D01*
X97957932Y-83615888D01*
X97912310Y-83630272D01*
X97869880Y-83608184D01*
X97855258Y-83568010D01*
X97855258Y-83511586D01*
X97860021Y-83487655D01*
X97862914Y-83480677D01*
X97896742Y-83446864D01*
X97904643Y-83443601D01*
X97916723Y-83439990D01*
X97920742Y-83439218D01*
X107103623Y-83452585D01*
G37*
%TD.AperFunction*%
%TD*%
%TA.AperFunction,Conductor*%
%TO.N,+2V5*%
G36*
X94968774Y-79732689D02*
G01*
X94975531Y-79733391D01*
X94989768Y-79736584D01*
X94996175Y-79738833D01*
X95002919Y-79741653D01*
X95572475Y-80020028D01*
X95586924Y-80029799D01*
X95598304Y-80040078D01*
X95616541Y-80069415D01*
X95620723Y-80084169D01*
X95623092Y-80101450D01*
X95622112Y-80359524D01*
X95603807Y-80403480D01*
X95590888Y-80416399D01*
X95590888Y-81127600D01*
X95600685Y-81137397D01*
X95618991Y-81181591D01*
X95618991Y-81181828D01*
X95615821Y-82016815D01*
X95597516Y-82060771D01*
X95590888Y-82067399D01*
X95590888Y-82778600D01*
X95594441Y-82782153D01*
X95612747Y-82826347D01*
X95612747Y-82826584D01*
X95611744Y-83091092D01*
X95606924Y-83114923D01*
X95599238Y-83133343D01*
X95565465Y-83167022D01*
X95547025Y-83174656D01*
X95523183Y-83179409D01*
X91573177Y-83183525D01*
X91549174Y-83178759D01*
X91530651Y-83171079D01*
X91496838Y-83137243D01*
X91489154Y-83118518D01*
X91484478Y-83094498D01*
X91484494Y-83091092D01*
X91498928Y-80044873D01*
X91499774Y-79866163D01*
X91504534Y-79842537D01*
X91512132Y-79824204D01*
X91545438Y-79790608D01*
X91563701Y-79782852D01*
X91587286Y-79777885D01*
X91607942Y-79777606D01*
X91617462Y-79781400D01*
X91638473Y-79781400D01*
X92454800Y-79781400D01*
X92492042Y-79765678D01*
X94391978Y-79740045D01*
X94961486Y-79732361D01*
X94968774Y-79732689D01*
G37*
%TD.AperFunction*%
%TD*%
%TA.AperFunction,Conductor*%
%TO.N,+5V*%
G36*
X97593664Y-65936010D02*
G01*
X97590510Y-65937321D01*
X97600941Y-65962302D01*
X97600941Y-67112389D01*
X97967608Y-67512389D01*
X98680423Y-67512389D01*
X98696146Y-67514399D01*
X98709796Y-67517947D01*
X98737261Y-67533259D01*
X98747456Y-67543005D01*
X98757428Y-67555317D01*
X98774208Y-67582465D01*
X98778177Y-67589992D01*
X98781366Y-67597188D01*
X98786075Y-67613512D01*
X98787209Y-67621307D01*
X98787858Y-67629796D01*
X98788611Y-67722243D01*
X98783934Y-67746478D01*
X98776278Y-67765136D01*
X98742566Y-67799073D01*
X98742013Y-67799301D01*
X98723333Y-67806902D01*
X98699087Y-67811506D01*
X98584399Y-67810238D01*
X97957459Y-67803304D01*
X97957458Y-67803304D01*
X97957448Y-67803304D01*
X97950821Y-67803231D01*
X97944276Y-67804305D01*
X97944252Y-67804308D01*
X97806614Y-67826904D01*
X97795553Y-67827723D01*
X97785402Y-67827571D01*
X97763717Y-67823340D01*
X97754255Y-67819666D01*
X97744321Y-67814754D01*
X97600091Y-67726702D01*
X97597050Y-67724722D01*
X97594244Y-67722776D01*
X97588532Y-67718302D01*
X97585975Y-67716047D01*
X97583329Y-67713574D01*
X97450941Y-67582389D01*
X97419582Y-67582389D01*
X95545475Y-67582389D01*
X95534108Y-67581347D01*
X95523852Y-67579450D01*
X95502619Y-67571316D01*
X95493724Y-67565878D01*
X95484572Y-67559062D01*
X94702404Y-66856889D01*
X94630556Y-66792389D01*
X94601374Y-66792389D01*
X91313000Y-66792389D01*
X90290941Y-66792389D01*
X90290941Y-65974320D01*
X90304859Y-65968556D01*
X90305890Y-65968350D01*
X91098899Y-65963800D01*
X91099058Y-65963800D01*
X91099212Y-65963799D01*
X91099249Y-65963799D01*
X93701227Y-65948868D01*
X96438176Y-65933163D01*
X96438176Y-65933162D01*
X97589732Y-65926554D01*
X97593664Y-65936010D01*
G37*
%TD.AperFunction*%
%TD*%
%TA.AperFunction,Conductor*%
%TO.N,+1V1*%
G36*
X94976023Y-70163637D02*
G01*
X94982780Y-70164339D01*
X94997017Y-70167532D01*
X95003424Y-70169781D01*
X95010168Y-70172601D01*
X95094461Y-70213800D01*
X95130770Y-70231546D01*
X95579690Y-70450959D01*
X95594144Y-70460736D01*
X95605528Y-70471022D01*
X95623767Y-70500385D01*
X95627944Y-70515152D01*
X95630303Y-70532441D01*
X95624324Y-71875764D01*
X95618300Y-71890218D01*
X95618300Y-72640822D01*
X95620892Y-72647080D01*
X95620891Y-72647358D01*
X95619379Y-72987043D01*
X95614505Y-73010964D01*
X95606756Y-73029417D01*
X95572767Y-73063076D01*
X95572720Y-73063096D01*
X95554183Y-73070651D01*
X95530212Y-73075271D01*
X95428513Y-73074650D01*
X93342191Y-73061898D01*
X93342189Y-73061899D01*
X93342188Y-73061899D01*
X93265241Y-73061429D01*
X93265524Y-73138377D01*
X93270792Y-74569920D01*
X93266107Y-74593891D01*
X93258499Y-74612415D01*
X93224779Y-74646340D01*
X93213680Y-74650959D01*
X93206212Y-74654068D01*
X93182263Y-74658864D01*
X92369956Y-74659711D01*
X91575470Y-74660540D01*
X91551467Y-74655774D01*
X91532944Y-74648094D01*
X91499131Y-74614258D01*
X91491447Y-74595533D01*
X91486771Y-74571513D01*
X91486779Y-74569920D01*
X91493562Y-73138378D01*
X91507023Y-70297110D01*
X91511783Y-70273485D01*
X91519381Y-70255152D01*
X91552684Y-70221557D01*
X91570951Y-70213799D01*
X91594535Y-70208833D01*
X94399227Y-70170993D01*
X94968735Y-70163309D01*
X94976023Y-70163637D01*
G37*
%TD.AperFunction*%
%TD*%
%TA.AperFunction,Conductor*%
%TO.N,GND*%
G36*
X107114207Y-75490643D02*
G01*
X107118225Y-75500329D01*
X107114309Y-75501952D01*
X107123901Y-75525066D01*
X107124712Y-75968057D01*
X107114794Y-75992123D01*
X107118442Y-75993640D01*
X107114458Y-76003223D01*
X107111761Y-76003218D01*
X107111755Y-76009724D01*
X107111755Y-76009726D01*
X107106591Y-81499259D01*
X107088244Y-81543436D01*
X107044091Y-81561700D01*
X107033058Y-81561700D01*
X106932818Y-81598185D01*
X106932815Y-81598187D01*
X106851095Y-81666757D01*
X106797757Y-81759142D01*
X106779233Y-81864200D01*
X106797757Y-81969257D01*
X106851096Y-82061643D01*
X106932814Y-82130213D01*
X106932815Y-82130213D01*
X106932816Y-82130214D01*
X107033061Y-82166700D01*
X107033064Y-82166700D01*
X107043404Y-82166700D01*
X107087598Y-82185006D01*
X107105904Y-82229200D01*
X107105904Y-82229259D01*
X107104752Y-83453177D01*
X107103659Y-83464292D01*
X97920758Y-83439149D01*
X97920303Y-83438963D01*
X97906019Y-83433012D01*
X97872293Y-83399188D01*
X97870938Y-83395909D01*
X97866200Y-83372040D01*
X97866200Y-83210721D01*
X97866200Y-83210719D01*
X97866200Y-83135324D01*
X97790809Y-83134523D01*
X97790807Y-83134522D01*
X96158877Y-83117191D01*
X96135134Y-83112232D01*
X96116789Y-83104450D01*
X96083353Y-83070585D01*
X96075804Y-83052137D01*
X96071150Y-83028340D01*
X96071629Y-82806210D01*
X96073488Y-82801738D01*
X96073488Y-82041810D01*
X96073277Y-82041301D01*
X96073469Y-81952465D01*
X96091871Y-81908310D01*
X96135969Y-81890100D01*
X102602050Y-81890100D01*
X102602055Y-81890099D01*
X102623202Y-81884432D01*
X102673237Y-81871025D01*
X102685058Y-81864200D01*
X105814033Y-81864200D01*
X105832557Y-81969257D01*
X105885896Y-82061643D01*
X105967614Y-82130213D01*
X105967615Y-82130213D01*
X105967616Y-82130214D01*
X106067861Y-82166700D01*
X106067864Y-82166700D01*
X106174536Y-82166700D01*
X106174539Y-82166700D01*
X106274784Y-82130214D01*
X106356504Y-82061643D01*
X106409843Y-81969257D01*
X106428367Y-81864200D01*
X106409843Y-81759143D01*
X106356504Y-81666757D01*
X106333018Y-81647050D01*
X106274785Y-81598186D01*
X106274782Y-81598185D01*
X106174541Y-81561700D01*
X106174539Y-81561700D01*
X106067861Y-81561700D01*
X106067858Y-81561700D01*
X105967618Y-81598185D01*
X105967615Y-81598187D01*
X105885895Y-81666757D01*
X105832557Y-81759142D01*
X105814033Y-81864200D01*
X102685058Y-81864200D01*
X102737062Y-81834176D01*
X105024376Y-79546862D01*
X105061225Y-79483038D01*
X105072147Y-79442278D01*
X105101267Y-79404328D01*
X105132517Y-79395955D01*
X106624871Y-79395955D01*
X106624872Y-79395955D01*
X106701130Y-79395955D01*
X106701072Y-79319696D01*
X106700355Y-78382711D01*
X106700101Y-78050273D01*
X106698535Y-76002392D01*
X106622547Y-76002240D01*
X106622545Y-76002239D01*
X100588702Y-75990169D01*
X100544545Y-75971775D01*
X100526327Y-75927544D01*
X100527277Y-75916816D01*
X100535567Y-75869802D01*
X100522367Y-75794939D01*
X100517043Y-75764743D01*
X100463704Y-75672357D01*
X100443013Y-75654995D01*
X100381985Y-75603786D01*
X100381982Y-75603785D01*
X100281741Y-75567300D01*
X100281739Y-75567300D01*
X100175061Y-75567300D01*
X100175058Y-75567300D01*
X100074818Y-75603785D01*
X100074815Y-75603787D01*
X99993095Y-75672357D01*
X99939757Y-75764741D01*
X99939756Y-75764745D01*
X99928256Y-75829960D01*
X99910900Y-75863300D01*
X99803995Y-75970205D01*
X99759801Y-75988511D01*
X99759676Y-75988511D01*
X99513288Y-75988019D01*
X99512756Y-75988018D01*
X99512754Y-75988018D01*
X99481104Y-75987955D01*
X99458724Y-76010334D01*
X99458718Y-76010339D01*
X99333424Y-76135634D01*
X99333421Y-76135637D01*
X99311104Y-76157955D01*
X99311104Y-77497955D01*
X100111309Y-77497955D01*
X100122178Y-77498907D01*
X100132025Y-77500647D01*
X100152458Y-77508101D01*
X100161110Y-77513109D01*
X100170045Y-77519382D01*
X100206506Y-77550068D01*
X100215860Y-77559858D01*
X100223298Y-77569559D01*
X100234693Y-77593950D01*
X100237361Y-77605882D01*
X100238867Y-77619337D01*
X100239303Y-77768550D01*
X100234560Y-77792616D01*
X100226887Y-77811172D01*
X100193083Y-77845017D01*
X100192820Y-77845125D01*
X100174237Y-77852736D01*
X100150163Y-77857398D01*
X99357420Y-77852468D01*
X99351291Y-77922455D01*
X99351290Y-77922458D01*
X99297111Y-78541146D01*
X99277962Y-78759809D01*
X99301341Y-78784663D01*
X99301343Y-78784666D01*
X99301345Y-78784668D01*
X99938500Y-79462026D01*
X99991193Y-79518044D01*
X100025255Y-79517189D01*
X100025258Y-79517189D01*
X100025259Y-79517190D01*
X100025263Y-79517189D01*
X100025264Y-79517190D01*
X100738516Y-79499306D01*
X101309122Y-79485000D01*
X101309122Y-79484999D01*
X101383412Y-79483137D01*
X101383412Y-78541146D01*
X101388168Y-78517232D01*
X101389206Y-78514723D01*
X101395822Y-78498751D01*
X101429642Y-78464927D01*
X101445621Y-78458308D01*
X101448130Y-78457270D01*
X101472044Y-78452514D01*
X102056780Y-78452514D01*
X102080695Y-78457271D01*
X102099173Y-78464924D01*
X102133000Y-78498747D01*
X102133001Y-78498750D01*
X102140655Y-78517229D01*
X102145412Y-78541146D01*
X102145412Y-79395955D01*
X102221614Y-79395955D01*
X103606727Y-79395955D01*
X103650921Y-79414261D01*
X103668276Y-79447599D01*
X103677394Y-79499306D01*
X103682957Y-79530857D01*
X103736296Y-79623243D01*
X103818014Y-79691813D01*
X103818015Y-79691813D01*
X103818016Y-79691814D01*
X103918261Y-79728300D01*
X103923399Y-79730170D01*
X103922275Y-79733255D01*
X103953397Y-79753041D01*
X103963795Y-79799733D01*
X103946428Y-79833132D01*
X102467568Y-81311994D01*
X102423374Y-81330300D01*
X96137444Y-81330300D01*
X96093250Y-81311994D01*
X96074944Y-81267800D01*
X96074944Y-81267665D01*
X96078714Y-79518044D01*
X96079339Y-79227955D01*
X95543309Y-78953133D01*
X95529313Y-78943333D01*
X95518267Y-78933083D01*
X95500616Y-78904197D01*
X95496534Y-78889688D01*
X95494200Y-78872766D01*
X95494200Y-78466587D01*
X95498956Y-78442673D01*
X95499994Y-78440164D01*
X95506610Y-78424192D01*
X95540430Y-78390368D01*
X95558918Y-78382711D01*
X95582832Y-78377955D01*
X97539540Y-78377955D01*
X97539541Y-78377955D01*
X97571104Y-78377955D01*
X97894437Y-78054621D01*
X97903901Y-78046855D01*
X97905060Y-78046080D01*
X97940713Y-78035556D01*
X98246245Y-78040127D01*
X98260232Y-78040337D01*
X98260232Y-78040336D01*
X98260233Y-78040337D01*
X98287146Y-78037985D01*
X98312039Y-78033216D01*
X98317441Y-78031595D01*
X98320799Y-78030589D01*
X98338752Y-78027955D01*
X98926449Y-78027955D01*
X98926450Y-78027955D01*
X98964879Y-78027955D01*
X99072704Y-77882101D01*
X99072704Y-76207955D01*
X98996504Y-76207955D01*
X98996503Y-76207955D01*
X98795284Y-76207955D01*
X98751090Y-76189649D01*
X98734914Y-76161632D01*
X98723948Y-76120708D01*
X98718083Y-76098821D01*
X98709875Y-76084605D01*
X98681236Y-76035000D01*
X98681234Y-76034996D01*
X98629120Y-75982882D01*
X98455112Y-75808874D01*
X98437756Y-75775533D01*
X98434225Y-75755508D01*
X98434221Y-75755498D01*
X98376196Y-75654997D01*
X98287288Y-75580393D01*
X98178231Y-75540700D01*
X98178229Y-75540700D01*
X98062171Y-75540700D01*
X98062168Y-75540700D01*
X97956134Y-75579293D01*
X97908344Y-75577206D01*
X97901104Y-75572128D01*
X97901104Y-75477234D01*
X107114207Y-75490643D01*
G37*
%TD.AperFunction*%
%TD*%
%TA.AperFunction,Conductor*%
%TO.N,+3V3*%
G36*
X94960340Y-87661093D02*
G01*
X94967097Y-87661795D01*
X94981334Y-87664988D01*
X94987741Y-87667237D01*
X94994485Y-87670057D01*
X95564041Y-87948432D01*
X95578490Y-87958203D01*
X95589870Y-87968482D01*
X95608107Y-87997819D01*
X95612289Y-88012573D01*
X95614658Y-88029854D01*
X95614110Y-88174371D01*
X95595805Y-88218327D01*
X95590888Y-88223244D01*
X95590888Y-88934445D01*
X95592743Y-88936300D01*
X95611049Y-88980494D01*
X95611049Y-88980731D01*
X95608241Y-89720595D01*
X95590888Y-89762264D01*
X95590888Y-90480414D01*
X95605224Y-90515024D01*
X95605224Y-90515261D01*
X95600982Y-91632854D01*
X95590888Y-91657093D01*
X95590888Y-92395602D01*
X95598020Y-92412820D01*
X95598020Y-92413057D01*
X95597211Y-92626368D01*
X95592391Y-92650199D01*
X95584705Y-92668619D01*
X95550932Y-92702298D01*
X95532492Y-92709932D01*
X95508650Y-92714685D01*
X91557130Y-92718803D01*
X91533127Y-92714037D01*
X91514604Y-92706357D01*
X91480791Y-92672521D01*
X91473107Y-92653796D01*
X91468431Y-92629776D01*
X91473040Y-91657093D01*
X91490460Y-87980529D01*
X91491340Y-87794566D01*
X91496100Y-87770941D01*
X91503698Y-87752608D01*
X91537004Y-87719012D01*
X91555267Y-87711256D01*
X91578852Y-87706289D01*
X91610552Y-87705861D01*
X91613522Y-87707045D01*
X91638473Y-87707045D01*
X92458473Y-87707045D01*
X92489361Y-87694004D01*
X94383544Y-87668449D01*
X94953052Y-87660765D01*
X94960340Y-87661093D01*
G37*
%TD.AperFunction*%
%TD*%
%TA.AperFunction,Conductor*%
%TO.N,+5V*%
G36*
X107139930Y-59676251D02*
G01*
X107141752Y-59677006D01*
X107175583Y-59710823D01*
X107177713Y-59715964D01*
X107183243Y-59729315D01*
X107188000Y-59753232D01*
X107188000Y-60236367D01*
X107183243Y-60260284D01*
X107175589Y-60278763D01*
X107141764Y-60312588D01*
X107123286Y-60320242D01*
X107099368Y-60325000D01*
X96590141Y-60325000D01*
X96590141Y-59700522D01*
X96591494Y-59699170D01*
X96592115Y-59699791D01*
X96615645Y-59676259D01*
X96639566Y-59671500D01*
X107116027Y-59671500D01*
X107139930Y-59676251D01*
G37*
%TD.AperFunction*%
%TD*%
%TA.AperFunction,Conductor*%
%TO.N,+5V*%
G36*
X97586800Y-65963800D02*
G01*
X96513941Y-65963800D01*
X96513941Y-59776797D01*
X96532247Y-59732603D01*
X96559230Y-59718181D01*
X96559054Y-59717756D01*
X96563378Y-59715964D01*
X96564254Y-59715497D01*
X96564737Y-59715400D01*
X96564741Y-59715400D01*
X97586800Y-59715400D01*
X97586800Y-65963800D01*
G37*
%TD.AperFunction*%
%TD*%
%TA.AperFunction,Conductor*%
%TO.N,GND*%
G36*
X107030489Y-65700703D02*
G01*
X107054347Y-65705475D01*
X107072796Y-65713131D01*
X107106559Y-65746882D01*
X107114220Y-65765325D01*
X107119001Y-65789185D01*
X107119310Y-65957373D01*
X107120179Y-66432735D01*
X107120370Y-66434723D01*
X107120235Y-66462389D01*
X107120235Y-66462428D01*
X107120234Y-66462690D01*
X107120234Y-66462805D01*
X107120234Y-66462924D01*
X107120233Y-66462995D01*
X107112519Y-68044932D01*
X107106065Y-69368629D01*
X107105684Y-69446662D01*
X107105684Y-69446689D01*
X107105683Y-69446877D01*
X107105683Y-69447066D01*
X107111688Y-75484568D01*
X107111689Y-75484570D01*
X107111800Y-75595953D01*
X100297786Y-75573140D01*
X100281741Y-75567300D01*
X100281739Y-75567300D01*
X100175061Y-75567300D01*
X100175058Y-75567300D01*
X100160277Y-75572679D01*
X98248511Y-75566279D01*
X98178231Y-75540700D01*
X98178229Y-75540700D01*
X98062171Y-75540700D01*
X98062168Y-75540700D01*
X97994227Y-75565428D01*
X97891058Y-75565082D01*
X97890496Y-75564688D01*
X97887244Y-75561426D01*
X97889788Y-75558889D01*
X97870894Y-75539894D01*
X97866200Y-75516129D01*
X97866200Y-74750848D01*
X97866200Y-74675439D01*
X96126402Y-74657278D01*
X96102663Y-74652324D01*
X96084312Y-74644542D01*
X96050872Y-74610677D01*
X96043322Y-74592229D01*
X96038667Y-74568428D01*
X96039450Y-74205465D01*
X96057851Y-74161311D01*
X96101950Y-74143100D01*
X101865450Y-74143100D01*
X101865455Y-74143099D01*
X101886602Y-74137432D01*
X101936637Y-74124025D01*
X102000462Y-74087176D01*
X105151376Y-70936262D01*
X105188225Y-70872437D01*
X105207300Y-70801250D01*
X105207300Y-70727550D01*
X105207300Y-69948289D01*
X105225606Y-69904095D01*
X105269800Y-69885789D01*
X106594728Y-69885789D01*
X106594729Y-69885789D01*
X106670987Y-69885789D01*
X106670875Y-69739063D01*
X106670198Y-68854798D01*
X106669969Y-68554600D01*
X106668372Y-66466826D01*
X106592384Y-66466674D01*
X106592382Y-66466673D01*
X100590554Y-66454667D01*
X100546397Y-66436273D01*
X100528179Y-66392042D01*
X100529129Y-66381314D01*
X100535567Y-66344802D01*
X100528542Y-66304961D01*
X100517043Y-66239743D01*
X100463704Y-66147357D01*
X100463703Y-66147356D01*
X100381985Y-66078786D01*
X100381982Y-66078785D01*
X100281741Y-66042300D01*
X100281739Y-66042300D01*
X100175061Y-66042300D01*
X100175058Y-66042300D01*
X100074818Y-66078785D01*
X100074815Y-66078787D01*
X99993095Y-66147357D01*
X99939757Y-66239741D01*
X99939756Y-66239745D01*
X99928256Y-66304961D01*
X99910900Y-66338301D01*
X99814480Y-66434721D01*
X99770286Y-66453027D01*
X99770161Y-66453027D01*
X99485030Y-66452456D01*
X99482593Y-66452452D01*
X99482591Y-66452452D01*
X99450941Y-66452389D01*
X99428561Y-66474768D01*
X99428555Y-66474773D01*
X99354061Y-66549268D01*
X99354058Y-66549271D01*
X99331741Y-66571589D01*
X99331741Y-67962389D01*
X100081146Y-67962389D01*
X100092015Y-67963341D01*
X100101862Y-67965081D01*
X100122295Y-67972535D01*
X100130947Y-67977543D01*
X100139882Y-67983816D01*
X100176343Y-68014502D01*
X100185697Y-68024292D01*
X100193135Y-68033993D01*
X100204530Y-68058384D01*
X100207198Y-68070316D01*
X100208704Y-68083772D01*
X100209149Y-68236281D01*
X100204640Y-68259772D01*
X100197281Y-68278081D01*
X100164682Y-68311881D01*
X100146650Y-68319898D01*
X100123340Y-68325253D01*
X99403782Y-68349201D01*
X99403775Y-68349202D01*
X99329860Y-68351663D01*
X99332715Y-69187517D01*
X99441000Y-69398496D01*
X100605796Y-69380693D01*
X101189787Y-69371768D01*
X101220164Y-69371304D01*
X101220164Y-69371303D01*
X101220165Y-69371302D01*
X101295200Y-69370157D01*
X101295200Y-68643232D01*
X101299956Y-68619318D01*
X101300994Y-68616809D01*
X101307610Y-68600837D01*
X101341430Y-68567013D01*
X101357409Y-68560394D01*
X101359918Y-68559356D01*
X101383832Y-68554600D01*
X102095568Y-68554600D01*
X102119483Y-68559357D01*
X102137961Y-68567010D01*
X102171788Y-68600833D01*
X102171789Y-68600836D01*
X102179443Y-68619315D01*
X102184200Y-68643232D01*
X102184200Y-69885789D01*
X102260402Y-69885789D01*
X103731282Y-69885789D01*
X103775476Y-69904095D01*
X103793782Y-69948289D01*
X103775476Y-69992483D01*
X103771456Y-69996167D01*
X103726895Y-70033557D01*
X103673557Y-70125942D01*
X103655033Y-70231000D01*
X103673557Y-70336057D01*
X103726896Y-70428443D01*
X103808614Y-70497013D01*
X103808615Y-70497013D01*
X103808616Y-70497014D01*
X103908861Y-70533500D01*
X103908864Y-70533500D01*
X104015536Y-70533500D01*
X104015539Y-70533500D01*
X104115784Y-70497014D01*
X104197504Y-70428443D01*
X104250843Y-70336057D01*
X104269367Y-70231000D01*
X104250843Y-70125943D01*
X104197504Y-70033557D01*
X104152943Y-69996166D01*
X104130856Y-69953736D01*
X104145240Y-69908115D01*
X104187671Y-69886027D01*
X104193118Y-69885789D01*
X104585000Y-69885789D01*
X104629194Y-69904095D01*
X104647500Y-69948289D01*
X104647500Y-70622574D01*
X104629194Y-70666768D01*
X101730968Y-73564994D01*
X101686774Y-73583300D01*
X96103426Y-73583300D01*
X96059232Y-73564994D01*
X96040926Y-73520800D01*
X96040926Y-73520665D01*
X96042736Y-72680965D01*
X96061137Y-72636811D01*
X96097849Y-72621650D01*
X96100900Y-72618600D01*
X96100900Y-71907400D01*
X96096560Y-71903060D01*
X96062843Y-71889094D01*
X96044537Y-71844900D01*
X96044537Y-71844765D01*
X96048923Y-69809589D01*
X96049176Y-69692389D01*
X95513146Y-69417567D01*
X95499150Y-69407767D01*
X95488104Y-69397517D01*
X95470453Y-69368631D01*
X95466371Y-69354122D01*
X95464037Y-69337200D01*
X95464037Y-68931021D01*
X95468793Y-68907107D01*
X95469831Y-68904598D01*
X95476447Y-68888626D01*
X95510267Y-68854802D01*
X95528755Y-68847145D01*
X95552669Y-68842389D01*
X97509377Y-68842389D01*
X97509378Y-68842389D01*
X97540941Y-68842389D01*
X97864274Y-68519055D01*
X97873733Y-68511292D01*
X97883010Y-68505093D01*
X97905538Y-68495763D01*
X97916471Y-68493589D01*
X97928659Y-68492389D01*
X98865890Y-68492389D01*
X98894078Y-68492389D01*
X99067941Y-68343364D01*
X99067941Y-66672389D01*
X98991741Y-66672389D01*
X98991740Y-66672389D01*
X98798918Y-66672389D01*
X98754724Y-66654083D01*
X98739506Y-66623220D01*
X98738219Y-66623565D01*
X98724291Y-66571589D01*
X98718083Y-66548421D01*
X98714516Y-66542243D01*
X98681236Y-66484600D01*
X98681234Y-66484596D01*
X98629120Y-66432482D01*
X98429712Y-66233074D01*
X98412356Y-66199733D01*
X98408825Y-66179708D01*
X98408821Y-66179698D01*
X98350796Y-66079197D01*
X98350307Y-66078787D01*
X98261889Y-66004594D01*
X98261888Y-66004593D01*
X98152831Y-65964900D01*
X98152829Y-65964900D01*
X98036771Y-65964900D01*
X98036768Y-65964900D01*
X97954817Y-65994728D01*
X97907027Y-65992641D01*
X97874710Y-65957373D01*
X97870941Y-65935997D01*
X97870941Y-65776127D01*
X97875707Y-65752189D01*
X97883372Y-65733702D01*
X97917208Y-65699889D01*
X97917252Y-65699871D01*
X97935752Y-65692232D01*
X97959696Y-65687501D01*
X107030489Y-65700703D01*
G37*
%TD.AperFunction*%
%TD*%
%TA.AperFunction,Conductor*%
%TO.N,+5V*%
G36*
X91236800Y-84277200D02*
G01*
X90283473Y-84277200D01*
X90269806Y-84271539D01*
X90251500Y-84227345D01*
X90251500Y-66032419D01*
X90269806Y-65988225D01*
X90290083Y-65974676D01*
X90304856Y-65968557D01*
X90328773Y-65963800D01*
X91099067Y-65963800D01*
X91236800Y-65963800D01*
X91236800Y-84277200D01*
G37*
%TD.AperFunction*%
%TD*%
%TA.AperFunction,Conductor*%
%TO.N,/Power/SW_2V5*%
G36*
X97641970Y-77471722D02*
G01*
X97647493Y-77472249D01*
X97659172Y-77474501D01*
X97659729Y-77474664D01*
X97669165Y-77478293D01*
X97689081Y-77487870D01*
X97693246Y-77489720D01*
X97696371Y-77491109D01*
X97703332Y-77493954D01*
X97708071Y-77495726D01*
X97710790Y-77496744D01*
X97717393Y-77498990D01*
X97717399Y-77498991D01*
X97717403Y-77498993D01*
X97730431Y-77502565D01*
X97737104Y-77504805D01*
X97815033Y-77535977D01*
X97978343Y-77539715D01*
X98256121Y-77546074D01*
X98278900Y-77550938D01*
X98296749Y-77558439D01*
X98329526Y-77590402D01*
X98337472Y-77608053D01*
X98342909Y-77630707D01*
X98351785Y-77815264D01*
X98347841Y-77840309D01*
X98340597Y-77859529D01*
X98307881Y-77894427D01*
X98306086Y-77895205D01*
X98287108Y-77903083D01*
X98262215Y-77907852D01*
X98004952Y-77904003D01*
X97870064Y-77901985D01*
X97852285Y-77901719D01*
X97852281Y-77901719D01*
X97852279Y-77901719D01*
X97833692Y-77901441D01*
X97817066Y-77909753D01*
X97817065Y-77909753D01*
X97817061Y-77909755D01*
X97653018Y-77991776D01*
X97646372Y-77994631D01*
X97640059Y-77996920D01*
X97625986Y-78000243D01*
X97619307Y-78001021D01*
X97612076Y-78001441D01*
X95316788Y-78001441D01*
X94718499Y-78136730D01*
X94703973Y-78149428D01*
X94703973Y-78149429D01*
X93972341Y-78789099D01*
X93963351Y-78795645D01*
X93954623Y-78800880D01*
X93933913Y-78808726D01*
X93923921Y-78810586D01*
X93912853Y-78811640D01*
X93896724Y-78811736D01*
X91711461Y-78824657D01*
X91687354Y-78819975D01*
X91668762Y-78812342D01*
X91634832Y-78778623D01*
X91634699Y-78778303D01*
X91634001Y-78776607D01*
X91627051Y-78759711D01*
X91622354Y-78735614D01*
X91628326Y-77602582D01*
X91633102Y-77578949D01*
X91640711Y-77560621D01*
X91674047Y-77527039D01*
X91692320Y-77519296D01*
X91715915Y-77514348D01*
X93655172Y-77490002D01*
X95133085Y-77471449D01*
X95133412Y-77471446D01*
X95133821Y-77471443D01*
X95134279Y-77471441D01*
X97636046Y-77471441D01*
X97641970Y-77471722D01*
G37*
%TD.AperFunction*%
%TD*%
%TA.AperFunction,Conductor*%
%TO.N,+5V*%
G36*
X97528604Y-75500709D02*
G01*
X97547162Y-75508303D01*
X97581131Y-75541982D01*
X97581199Y-75542144D01*
X97588899Y-75560656D01*
X97593692Y-75584659D01*
X97593692Y-76681441D01*
X97960359Y-77081441D01*
X98673174Y-77081441D01*
X98688897Y-77083451D01*
X98702547Y-77086999D01*
X98730012Y-77102311D01*
X98740207Y-77112057D01*
X98750179Y-77124369D01*
X98766959Y-77151517D01*
X98770928Y-77159044D01*
X98774117Y-77166240D01*
X98778826Y-77182564D01*
X98779960Y-77190359D01*
X98780609Y-77198848D01*
X98781362Y-77291295D01*
X98776685Y-77315530D01*
X98769029Y-77334188D01*
X98735317Y-77368125D01*
X98734764Y-77368353D01*
X98716084Y-77375954D01*
X98691838Y-77380558D01*
X97943572Y-77372283D01*
X97941867Y-77372340D01*
X97941824Y-77372341D01*
X97797160Y-77377182D01*
X97789229Y-77377447D01*
X97781714Y-77377247D01*
X97774760Y-77376641D01*
X97760062Y-77373548D01*
X97753459Y-77371302D01*
X97746503Y-77368459D01*
X97597557Y-77296835D01*
X97592968Y-77294388D01*
X97588792Y-77291933D01*
X97580318Y-77285953D01*
X97576599Y-77282835D01*
X97572768Y-77279342D01*
X97482967Y-77190359D01*
X97443692Y-77151441D01*
X97412333Y-77151441D01*
X95538226Y-77151441D01*
X95526859Y-77150399D01*
X95516603Y-77148502D01*
X95495370Y-77140368D01*
X95486475Y-77134930D01*
X95477323Y-77128114D01*
X94695143Y-76425930D01*
X94623307Y-76361441D01*
X94594125Y-76361441D01*
X91313000Y-76361441D01*
X90293692Y-76361441D01*
X90293692Y-75537431D01*
X95730102Y-75506236D01*
X97504578Y-75496054D01*
X97528604Y-75500709D01*
G37*
%TD.AperFunction*%
%TD*%
%TA.AperFunction,Conductor*%
%TO.N,+5V*%
G36*
X97520170Y-83429113D02*
G01*
X97538728Y-83436707D01*
X97572697Y-83470386D01*
X97572765Y-83470548D01*
X97580465Y-83489060D01*
X97585258Y-83513063D01*
X97585258Y-84609845D01*
X97951925Y-85009845D01*
X98664740Y-85009845D01*
X98680463Y-85011855D01*
X98694113Y-85015403D01*
X98721578Y-85030715D01*
X98731773Y-85040461D01*
X98741745Y-85052773D01*
X98758525Y-85079921D01*
X98762494Y-85087448D01*
X98765683Y-85094644D01*
X98770392Y-85110968D01*
X98771526Y-85118763D01*
X98772175Y-85127252D01*
X98772928Y-85219699D01*
X98768251Y-85243934D01*
X98760595Y-85262592D01*
X98726883Y-85296529D01*
X98726330Y-85296757D01*
X98707650Y-85304358D01*
X98683404Y-85308962D01*
X98568716Y-85307694D01*
X97941776Y-85300760D01*
X97941775Y-85300760D01*
X97941765Y-85300760D01*
X97935138Y-85300687D01*
X97928593Y-85301761D01*
X97928569Y-85301764D01*
X97790931Y-85324360D01*
X97779870Y-85325179D01*
X97769719Y-85325027D01*
X97748034Y-85320796D01*
X97738572Y-85317122D01*
X97728638Y-85312210D01*
X97584408Y-85224158D01*
X97581367Y-85222178D01*
X97578561Y-85220232D01*
X97572849Y-85215758D01*
X97570292Y-85213503D01*
X97567646Y-85211030D01*
X97435258Y-85079845D01*
X97403899Y-85079845D01*
X95529792Y-85079845D01*
X95518425Y-85078803D01*
X95508169Y-85076906D01*
X95486936Y-85068772D01*
X95478041Y-85063334D01*
X95468889Y-85056518D01*
X94636592Y-84309343D01*
X94636591Y-84309342D01*
X94614873Y-84289845D01*
X94585691Y-84289845D01*
X90314000Y-84289845D01*
X90269806Y-84271539D01*
X90255258Y-84236417D01*
X90255258Y-83466007D01*
X96355706Y-83431002D01*
X97496144Y-83424458D01*
X97520170Y-83429113D01*
G37*
%TD.AperFunction*%
%TD*%
M02*
