%TF.GenerationSoftware,KiCad,Pcbnew,8.0.1*%
%TF.CreationDate,2024-12-16T00:39:24-05:00*%
%TF.ProjectId,cm,636d2e6b-6963-4616-945f-706362585858,rev?*%
%TF.SameCoordinates,Original*%
%TF.FileFunction,Soldermask,Bot*%
%TF.FilePolarity,Negative*%
%FSLAX46Y46*%
G04 Gerber Fmt 4.6, Leading zero omitted, Abs format (unit mm)*
G04 Created by KiCad (PCBNEW 8.0.1) date 2024-12-16 00:39:24*
%MOMM*%
%LPD*%
G01*
G04 APERTURE LIST*
G04 Aperture macros list*
%AMRoundRect*
0 Rectangle with rounded corners*
0 $1 Rounding radius*
0 $2 $3 $4 $5 $6 $7 $8 $9 X,Y pos of 4 corners*
0 Add a 4 corners polygon primitive as box body*
4,1,4,$2,$3,$4,$5,$6,$7,$8,$9,$2,$3,0*
0 Add four circle primitives for the rounded corners*
1,1,$1+$1,$2,$3*
1,1,$1+$1,$4,$5*
1,1,$1+$1,$6,$7*
1,1,$1+$1,$8,$9*
0 Add four rect primitives between the rounded corners*
20,1,$1+$1,$2,$3,$4,$5,0*
20,1,$1+$1,$4,$5,$6,$7,0*
20,1,$1+$1,$6,$7,$8,$9,0*
20,1,$1+$1,$8,$9,$2,$3,0*%
G04 Aperture macros list end*
%ADD10C,2.852400*%
%ADD11RoundRect,0.275600X-0.275600X0.325600X-0.275600X-0.325600X0.275600X-0.325600X0.275600X0.325600X0*%
%ADD12RoundRect,0.102000X-0.445000X-0.465000X0.445000X-0.465000X0.445000X0.465000X-0.445000X0.465000X0*%
%ADD13RoundRect,0.102000X-0.465000X0.445000X-0.465000X-0.445000X0.465000X-0.445000X0.465000X0.445000X0*%
%ADD14RoundRect,0.076200X-0.419100X0.177800X-0.419100X-0.177800X0.419100X-0.177800X0.419100X0.177800X0*%
%ADD15RoundRect,0.076200X-0.177800X-0.127000X0.177800X-0.127000X0.177800X0.127000X-0.177800X0.127000X0*%
%ADD16RoundRect,0.275600X0.275600X-0.325600X0.275600X0.325600X-0.275600X0.325600X-0.275600X-0.325600X0*%
%ADD17RoundRect,0.076200X-0.381000X0.330200X-0.381000X-0.330200X0.381000X-0.330200X0.381000X0.330200X0*%
%ADD18RoundRect,0.100600X0.375600X0.100600X-0.375600X0.100600X-0.375600X-0.100600X0.375600X-0.100600X0*%
%ADD19RoundRect,0.076200X0.177800X0.127000X-0.177800X0.127000X-0.177800X-0.127000X0.177800X-0.127000X0*%
%ADD20RoundRect,0.076200X0.127000X-0.177800X0.127000X0.177800X-0.127000X0.177800X-0.127000X-0.177800X0*%
%ADD21RoundRect,0.076200X-0.330200X-0.381000X0.330200X-0.381000X0.330200X0.381000X-0.330200X0.381000X0*%
%ADD22RoundRect,0.076200X0.381000X-0.330200X0.381000X0.330200X-0.381000X0.330200X-0.381000X-0.330200X0*%
%ADD23RoundRect,0.275600X-0.275600X0.338100X-0.275600X-0.338100X0.275600X-0.338100X0.275600X0.338100X0*%
%ADD24RoundRect,0.076200X0.330200X0.685800X-0.330200X0.685800X-0.330200X-0.685800X0.330200X-0.685800X0*%
%ADD25RoundRect,0.102000X0.115000X0.330000X-0.115000X0.330000X-0.115000X-0.330000X0.115000X-0.330000X0*%
%ADD26RoundRect,0.102000X0.175000X0.330000X-0.175000X0.330000X-0.175000X-0.330000X0.175000X-0.330000X0*%
G04 APERTURE END LIST*
D10*
%TO.C,H3*%
X93370128Y-95780000D03*
%TD*%
%TO.C,H2*%
X141375036Y-62790128D03*
%TD*%
%TO.C,H4*%
X141369872Y-95780000D03*
%TD*%
%TO.C,H1*%
X93370000Y-62790128D03*
%TD*%
D11*
%TO.C,R26*%
X135407400Y-89142600D03*
X135407400Y-90892600D03*
%TD*%
D12*
%TO.C,C23*%
X124260000Y-82300000D03*
X125800000Y-82300000D03*
%TD*%
D11*
%TO.C,R24*%
X139115800Y-89142600D03*
X139115800Y-90892600D03*
%TD*%
D13*
%TO.C,C16*%
X142824200Y-83837400D03*
X142824200Y-85377400D03*
%TD*%
D11*
%TO.C,R23*%
X140944600Y-89142600D03*
X140944600Y-90892600D03*
%TD*%
D12*
%TO.C,C29*%
X124250000Y-80500000D03*
X125790000Y-80500000D03*
%TD*%
D14*
%TO.C,C1*%
X95894873Y-84874345D03*
X95894873Y-86525345D03*
%TD*%
%TO.C,C4*%
X95894873Y-76899000D03*
X95894873Y-78550000D03*
%TD*%
D15*
%TO.C,C36*%
X118491200Y-82900000D03*
X119050000Y-82900000D03*
%TD*%
%TO.C,C33*%
X118070600Y-76400000D03*
X118629400Y-76400000D03*
%TD*%
D16*
%TO.C,R31*%
X137210800Y-63079600D03*
X137210800Y-61329600D03*
%TD*%
D17*
%TO.C,C28*%
X111350000Y-85577700D03*
X111350000Y-86822300D03*
%TD*%
D16*
%TO.C,R33*%
X129768600Y-90904000D03*
X129768600Y-89154000D03*
%TD*%
D12*
%TO.C,C20*%
X124260000Y-76900000D03*
X125800000Y-76900000D03*
%TD*%
D18*
%TO.C,U1*%
X99907258Y-84664845D03*
X99907258Y-85164845D03*
X99907258Y-85664845D03*
X99907258Y-86164845D03*
X98457258Y-86164845D03*
X98457258Y-85664845D03*
X98457258Y-85164845D03*
X98457258Y-84664845D03*
%TD*%
D16*
%TO.C,R27*%
X142798800Y-90867200D03*
X142798800Y-89117200D03*
%TD*%
D19*
%TO.C,C31*%
X121329400Y-75600000D03*
X120770600Y-75600000D03*
%TD*%
D11*
%TO.C,R36*%
X132232400Y-66993800D03*
X132232400Y-68743800D03*
%TD*%
D20*
%TO.C,C34*%
X116750000Y-82479400D03*
X116750000Y-81920600D03*
%TD*%
D13*
%TO.C,C30*%
X142800000Y-79310000D03*
X142800000Y-80850000D03*
%TD*%
D16*
%TO.C,R39*%
X130530600Y-68743800D03*
X130530600Y-66993800D03*
%TD*%
D21*
%TO.C,C6*%
X95209888Y-80772000D03*
X96454488Y-80772000D03*
%TD*%
D11*
%TO.C,R29*%
X133883400Y-61355000D03*
X133883400Y-63105000D03*
%TD*%
D21*
%TO.C,C18*%
X95209888Y-92024200D03*
X96454488Y-92024200D03*
%TD*%
D16*
%TO.C,R38*%
X128828800Y-68743800D03*
X128828800Y-66993800D03*
%TD*%
D20*
%TO.C,C41*%
X122250000Y-72658800D03*
X122250000Y-72100000D03*
%TD*%
D16*
%TO.C,R6*%
X103788354Y-78599000D03*
X103788354Y-76849000D03*
%TD*%
%TO.C,R34*%
X126085600Y-90918000D03*
X126085600Y-89168000D03*
%TD*%
D21*
%TO.C,C19*%
X95209888Y-88578845D03*
X96454488Y-88578845D03*
%TD*%
D16*
%TO.C,R35*%
X128231700Y-63155800D03*
X128231700Y-61405800D03*
%TD*%
D13*
%TO.C,C15*%
X142824200Y-69181600D03*
X142824200Y-70721600D03*
%TD*%
D11*
%TO.C,R22*%
X133553200Y-89142600D03*
X133553200Y-90892600D03*
%TD*%
%TO.C,R25*%
X137287000Y-89142600D03*
X137287000Y-90892600D03*
%TD*%
%TO.C,R2*%
X101756354Y-84636845D03*
X101756354Y-86386845D03*
%TD*%
D22*
%TO.C,C5*%
X105586354Y-78346300D03*
X105586354Y-77101700D03*
%TD*%
D19*
%TO.C,C40*%
X121308800Y-74750000D03*
X120750000Y-74750000D03*
%TD*%
D13*
%TO.C,C24*%
X116350000Y-77080000D03*
X116350000Y-78620000D03*
%TD*%
D11*
%TO.C,R7*%
X101756354Y-76849000D03*
X101756354Y-78599000D03*
%TD*%
D22*
%TO.C,C9*%
X105586354Y-68795900D03*
X105586354Y-67551300D03*
%TD*%
D18*
%TO.C,U5*%
X99907258Y-67157600D03*
X99907258Y-67657600D03*
X99907258Y-68157600D03*
X99907258Y-68657600D03*
X98457258Y-68657600D03*
X98457258Y-68157600D03*
X98457258Y-67657600D03*
X98457258Y-67157600D03*
%TD*%
D13*
%TO.C,C13*%
X131292600Y-85742400D03*
X131292600Y-87282400D03*
%TD*%
D18*
%TO.C,U3*%
X99907258Y-76708000D03*
X99907258Y-77208000D03*
X99907258Y-77708000D03*
X99907258Y-78208000D03*
X98457258Y-78208000D03*
X98457258Y-77708000D03*
X98457258Y-77208000D03*
X98457258Y-76708000D03*
%TD*%
D16*
%TO.C,R30*%
X135559800Y-63079600D03*
X135559800Y-61329600D03*
%TD*%
D12*
%TO.C,C21*%
X124260000Y-75150000D03*
X125800000Y-75150000D03*
%TD*%
D11*
%TO.C,R12*%
X101756354Y-67298600D03*
X101756354Y-69048600D03*
%TD*%
D21*
%TO.C,C10*%
X95237300Y-72263000D03*
X96481900Y-72263000D03*
%TD*%
%TO.C,C3*%
X95209888Y-90119200D03*
X96454488Y-90119200D03*
%TD*%
D23*
%TO.C,C12*%
X129958900Y-61418300D03*
X129958900Y-63143300D03*
%TD*%
D16*
%TO.C,R37*%
X133934200Y-68743800D03*
X133934200Y-66993800D03*
%TD*%
D19*
%TO.C,C39*%
X117479400Y-80950000D03*
X116920600Y-80950000D03*
%TD*%
D16*
%TO.C,R1*%
X103788354Y-86386845D03*
X103788354Y-84636845D03*
%TD*%
%TO.C,R32*%
X127914400Y-90918000D03*
X127914400Y-89168000D03*
%TD*%
D14*
%TO.C,C8*%
X95894873Y-67322700D03*
X95894873Y-68973700D03*
%TD*%
D15*
%TO.C,C42*%
X118500000Y-81600000D03*
X119058800Y-81600000D03*
%TD*%
D16*
%TO.C,R11*%
X103788354Y-69048600D03*
X103788354Y-67298600D03*
%TD*%
D20*
%TO.C,C37*%
X118350000Y-75279400D03*
X118350000Y-74720600D03*
%TD*%
D24*
%TO.C,L2*%
X92044873Y-78130400D03*
X92044873Y-80518000D03*
%TD*%
D16*
%TO.C,R28*%
X132207000Y-63105000D03*
X132207000Y-61355000D03*
%TD*%
D21*
%TO.C,C25*%
X118477700Y-79300000D03*
X119722300Y-79300000D03*
%TD*%
D24*
%TO.C,L3*%
X92044873Y-68529200D03*
X92044873Y-70916800D03*
%TD*%
D22*
%TO.C,C2*%
X105586354Y-86134145D03*
X105586354Y-84889545D03*
%TD*%
D25*
%TO.C,J1*%
X124670000Y-60935000D03*
X124670000Y-63645000D03*
X124270000Y-60935000D03*
X124270000Y-63645000D03*
X123870000Y-60935000D03*
X123870000Y-63645000D03*
X123470000Y-60935000D03*
X123470000Y-63645000D03*
X123070000Y-60935000D03*
X123070000Y-63645000D03*
X122670000Y-60935000D03*
X122670000Y-63645000D03*
X122270000Y-60935000D03*
X122270000Y-63645000D03*
X121870000Y-60935000D03*
X121870000Y-63645000D03*
X121470000Y-60935000D03*
X121470000Y-63645000D03*
X121070000Y-60935000D03*
X121070000Y-63645000D03*
X120670000Y-60935000D03*
X120670000Y-63645000D03*
X120270000Y-60935000D03*
X120270000Y-63645000D03*
X119870000Y-60935000D03*
X119870000Y-63645000D03*
X119470000Y-60935000D03*
X119470000Y-63645000D03*
X119070000Y-60935000D03*
X119070000Y-63645000D03*
X118670000Y-60935000D03*
X118670000Y-63645000D03*
X118270000Y-60935000D03*
X118270000Y-63645000D03*
X117870000Y-60935000D03*
X117870000Y-63645000D03*
X117470000Y-60935000D03*
X117470000Y-63645000D03*
X117070000Y-60935000D03*
X117070000Y-63645000D03*
X116670000Y-60935000D03*
X116670000Y-63645000D03*
X116270000Y-60935000D03*
X116270000Y-63645000D03*
X115870000Y-60935000D03*
X115870000Y-63645000D03*
X115470000Y-60935000D03*
X115470000Y-63645000D03*
X115070000Y-60935000D03*
X115070000Y-63645000D03*
X114670000Y-60935000D03*
X114670000Y-63645000D03*
X114270000Y-60935000D03*
X114270000Y-63645000D03*
X113870000Y-60935000D03*
X113870000Y-63645000D03*
X113470000Y-60935000D03*
X113470000Y-63645000D03*
X113070000Y-60935000D03*
X113070000Y-63645000D03*
X112670000Y-60935000D03*
X112670000Y-63645000D03*
X112270000Y-60935000D03*
X112270000Y-63645000D03*
X111870000Y-60935000D03*
X111870000Y-63645000D03*
X111470000Y-60935000D03*
X111470000Y-63645000D03*
X111070000Y-60935000D03*
X111070000Y-63645000D03*
X110670000Y-60935000D03*
X110670000Y-63645000D03*
X110270000Y-60935000D03*
X110270000Y-63645000D03*
X109870000Y-60935000D03*
X109870000Y-63645000D03*
X109470000Y-60935000D03*
X109470000Y-63645000D03*
X109070000Y-60935000D03*
X109070000Y-63645000D03*
X108670000Y-60935000D03*
X108670000Y-63645000D03*
X108270000Y-60935000D03*
X108270000Y-63645000D03*
X107870000Y-60935000D03*
X107870000Y-63645000D03*
X107470000Y-60935000D03*
X107470000Y-63645000D03*
X107070000Y-60935000D03*
X107070000Y-63645000D03*
X106670000Y-60935000D03*
X106670000Y-63645000D03*
X106270000Y-60935000D03*
X106270000Y-63645000D03*
X105870000Y-60935000D03*
X105870000Y-63645000D03*
X105470000Y-60935000D03*
X105470000Y-63645000D03*
X105070000Y-60935000D03*
X105070000Y-63645000D03*
D26*
X125145000Y-63645000D03*
X125145000Y-60935000D03*
X104595000Y-63645000D03*
X104595000Y-60935000D03*
%TD*%
D12*
%TO.C,C27*%
X124260000Y-78650000D03*
X125800000Y-78650000D03*
%TD*%
D13*
%TO.C,C14*%
X131292600Y-81399000D03*
X131292600Y-82939000D03*
%TD*%
D15*
%TO.C,C32*%
X118500000Y-80950000D03*
X119058800Y-80950000D03*
%TD*%
D11*
%TO.C,R21*%
X131648200Y-89142600D03*
X131648200Y-90892600D03*
%TD*%
D21*
%TO.C,C7*%
X95209888Y-82423000D03*
X96454488Y-82423000D03*
%TD*%
D20*
%TO.C,C35*%
X122100000Y-79629400D03*
X122100000Y-79070600D03*
%TD*%
D15*
%TO.C,C38*%
X118491200Y-82250000D03*
X119050000Y-82250000D03*
%TD*%
D25*
%TO.C,J2*%
X124670000Y-94930000D03*
X124670000Y-97640000D03*
X124270000Y-94930000D03*
X124270000Y-97640000D03*
X123870000Y-94930000D03*
X123870000Y-97640000D03*
X123470000Y-94930000D03*
X123470000Y-97640000D03*
X123070000Y-94930000D03*
X123070000Y-97640000D03*
X122670000Y-94930000D03*
X122670000Y-97640000D03*
X122270000Y-94930000D03*
X122270000Y-97640000D03*
X121870000Y-94930000D03*
X121870000Y-97640000D03*
X121470000Y-94930000D03*
X121470000Y-97640000D03*
X121070000Y-94930000D03*
X121070000Y-97640000D03*
X120670000Y-94930000D03*
X120670000Y-97640000D03*
X120270000Y-94930000D03*
X120270000Y-97640000D03*
X119870000Y-94930000D03*
X119870000Y-97640000D03*
X119470000Y-94930000D03*
X119470000Y-97640000D03*
X119070000Y-94930000D03*
X119070000Y-97640000D03*
X118670000Y-94930000D03*
X118670000Y-97640000D03*
X118270000Y-94930000D03*
X118270000Y-97640000D03*
X117870000Y-94930000D03*
X117870000Y-97640000D03*
X117470000Y-94930000D03*
X117470000Y-97640000D03*
X117070000Y-94930000D03*
X117070000Y-97640000D03*
X116670000Y-94930000D03*
X116670000Y-97640000D03*
X116270000Y-94930000D03*
X116270000Y-97640000D03*
X115870000Y-94930000D03*
X115870000Y-97640000D03*
X115470000Y-94930000D03*
X115470000Y-97640000D03*
X115070000Y-94930000D03*
X115070000Y-97640000D03*
X114670000Y-94930000D03*
X114670000Y-97640000D03*
X114270000Y-94930000D03*
X114270000Y-97640000D03*
X113870000Y-94930000D03*
X113870000Y-97640000D03*
X113470000Y-94930000D03*
X113470000Y-97640000D03*
X113070000Y-94930000D03*
X113070000Y-97640000D03*
X112670000Y-94930000D03*
X112670000Y-97640000D03*
X112270000Y-94930000D03*
X112270000Y-97640000D03*
X111870000Y-94930000D03*
X111870000Y-97640000D03*
X111470000Y-94930000D03*
X111470000Y-97640000D03*
X111070000Y-94930000D03*
X111070000Y-97640000D03*
X110670000Y-94930000D03*
X110670000Y-97640000D03*
X110270000Y-94930000D03*
X110270000Y-97640000D03*
X109870000Y-94930000D03*
X109870000Y-97640000D03*
X109470000Y-94930000D03*
X109470000Y-97640000D03*
X109070000Y-94930000D03*
X109070000Y-97640000D03*
X108670000Y-94930000D03*
X108670000Y-97640000D03*
X108270000Y-94930000D03*
X108270000Y-97640000D03*
X107870000Y-94930000D03*
X107870000Y-97640000D03*
X107470000Y-94930000D03*
X107470000Y-97640000D03*
X107070000Y-94930000D03*
X107070000Y-97640000D03*
X106670000Y-94930000D03*
X106670000Y-97640000D03*
X106270000Y-94930000D03*
X106270000Y-97640000D03*
X105870000Y-94930000D03*
X105870000Y-97640000D03*
X105470000Y-94930000D03*
X105470000Y-97640000D03*
X105070000Y-94930000D03*
X105070000Y-97640000D03*
D26*
X125145000Y-97640000D03*
X125145000Y-94930000D03*
X104595000Y-97640000D03*
X104595000Y-94930000D03*
%TD*%
D21*
%TO.C,C22*%
X118477700Y-78003400D03*
X119722300Y-78003400D03*
%TD*%
D12*
%TO.C,C26*%
X113480000Y-70150000D03*
X115020000Y-70150000D03*
%TD*%
D24*
%TO.C,L1*%
X92044873Y-86056045D03*
X92044873Y-88443645D03*
%TD*%
M02*
