%TF.GenerationSoftware,KiCad,Pcbnew,8.0.1*%
%TF.CreationDate,2024-12-16T00:39:24-05:00*%
%TF.ProjectId,cm,636d2e6b-6963-4616-945f-706362585858,rev?*%
%TF.SameCoordinates,Original*%
%TF.FileFunction,Legend,Bot*%
%TF.FilePolarity,Positive*%
%FSLAX46Y46*%
G04 Gerber Fmt 4.6, Leading zero omitted, Abs format (unit mm)*
G04 Created by KiCad (PCBNEW 8.0.1) date 2024-12-16 00:39:24*
%MOMM*%
%LPD*%
G01*
G04 APERTURE LIST*
G04 Aperture macros list*
%AMRoundRect*
0 Rectangle with rounded corners*
0 $1 Rounding radius*
0 $2 $3 $4 $5 $6 $7 $8 $9 X,Y pos of 4 corners*
0 Add a 4 corners polygon primitive as box body*
4,1,4,$2,$3,$4,$5,$6,$7,$8,$9,$2,$3,0*
0 Add four circle primitives for the rounded corners*
1,1,$1+$1,$2,$3*
1,1,$1+$1,$4,$5*
1,1,$1+$1,$6,$7*
1,1,$1+$1,$8,$9*
0 Add four rect primitives between the rounded corners*
20,1,$1+$1,$2,$3,$4,$5,0*
20,1,$1+$1,$4,$5,$6,$7,0*
20,1,$1+$1,$6,$7,$8,$9,0*
20,1,$1+$1,$8,$9,$2,$3,0*%
G04 Aperture macros list end*
%ADD10C,0.127000*%
%ADD11C,0.150000*%
%ADD12C,0.101600*%
%ADD13C,0.120000*%
%ADD14C,0.152400*%
%ADD15C,0.200000*%
%ADD16C,2.852400*%
%ADD17RoundRect,0.275600X-0.275600X0.325600X-0.275600X-0.325600X0.275600X-0.325600X0.275600X0.325600X0*%
%ADD18RoundRect,0.102000X-0.445000X-0.465000X0.445000X-0.465000X0.445000X0.465000X-0.445000X0.465000X0*%
%ADD19RoundRect,0.102000X-0.465000X0.445000X-0.465000X-0.445000X0.465000X-0.445000X0.465000X0.445000X0*%
%ADD20RoundRect,0.076200X-0.419100X0.177800X-0.419100X-0.177800X0.419100X-0.177800X0.419100X0.177800X0*%
%ADD21RoundRect,0.076200X-0.177800X-0.127000X0.177800X-0.127000X0.177800X0.127000X-0.177800X0.127000X0*%
%ADD22RoundRect,0.275600X0.275600X-0.325600X0.275600X0.325600X-0.275600X0.325600X-0.275600X-0.325600X0*%
%ADD23RoundRect,0.076200X-0.381000X0.330200X-0.381000X-0.330200X0.381000X-0.330200X0.381000X0.330200X0*%
%ADD24RoundRect,0.100600X0.375600X0.100600X-0.375600X0.100600X-0.375600X-0.100600X0.375600X-0.100600X0*%
%ADD25RoundRect,0.076200X0.177800X0.127000X-0.177800X0.127000X-0.177800X-0.127000X0.177800X-0.127000X0*%
%ADD26RoundRect,0.076200X0.127000X-0.177800X0.127000X0.177800X-0.127000X0.177800X-0.127000X-0.177800X0*%
%ADD27RoundRect,0.076200X-0.330200X-0.381000X0.330200X-0.381000X0.330200X0.381000X-0.330200X0.381000X0*%
%ADD28RoundRect,0.076200X0.381000X-0.330200X0.381000X0.330200X-0.381000X0.330200X-0.381000X-0.330200X0*%
%ADD29RoundRect,0.275600X-0.275600X0.338100X-0.275600X-0.338100X0.275600X-0.338100X0.275600X0.338100X0*%
%ADD30RoundRect,0.076200X0.330200X0.685800X-0.330200X0.685800X-0.330200X-0.685800X0.330200X-0.685800X0*%
%ADD31RoundRect,0.102000X0.115000X0.330000X-0.115000X0.330000X-0.115000X-0.330000X0.115000X-0.330000X0*%
%ADD32RoundRect,0.102000X0.175000X0.330000X-0.175000X0.330000X-0.175000X-0.330000X0.175000X-0.330000X0*%
G04 APERTURE END LIST*
D10*
X126922495Y-60154626D02*
X126922495Y-59646626D01*
X126922495Y-59646626D02*
X126728971Y-59646626D01*
X126728971Y-59646626D02*
X126680590Y-59670816D01*
X126680590Y-59670816D02*
X126656400Y-59695007D01*
X126656400Y-59695007D02*
X126632209Y-59743388D01*
X126632209Y-59743388D02*
X126632209Y-59815959D01*
X126632209Y-59815959D02*
X126656400Y-59864340D01*
X126656400Y-59864340D02*
X126680590Y-59888531D01*
X126680590Y-59888531D02*
X126728971Y-59912721D01*
X126728971Y-59912721D02*
X126922495Y-59912721D01*
X126414495Y-60154626D02*
X126414495Y-59815959D01*
X126414495Y-59646626D02*
X126438686Y-59670816D01*
X126438686Y-59670816D02*
X126414495Y-59695007D01*
X126414495Y-59695007D02*
X126390305Y-59670816D01*
X126390305Y-59670816D02*
X126414495Y-59646626D01*
X126414495Y-59646626D02*
X126414495Y-59695007D01*
X126172590Y-59815959D02*
X126172590Y-60154626D01*
X126172590Y-59864340D02*
X126148400Y-59840150D01*
X126148400Y-59840150D02*
X126100019Y-59815959D01*
X126100019Y-59815959D02*
X126027447Y-59815959D01*
X126027447Y-59815959D02*
X125979066Y-59840150D01*
X125979066Y-59840150D02*
X125954876Y-59888531D01*
X125954876Y-59888531D02*
X125954876Y-60154626D01*
X125059828Y-60154626D02*
X125350114Y-60154626D01*
X125204971Y-60154626D02*
X125204971Y-59646626D01*
X125204971Y-59646626D02*
X125253352Y-59719197D01*
X125253352Y-59719197D02*
X125301733Y-59767578D01*
X125301733Y-59767578D02*
X125350114Y-59791769D01*
X103361305Y-61141226D02*
X103264543Y-61141226D01*
X103264543Y-61141226D02*
X103216162Y-61117036D01*
X103216162Y-61117036D02*
X103191971Y-61092845D01*
X103191971Y-61092845D02*
X103143590Y-61020274D01*
X103143590Y-61020274D02*
X103119400Y-60923512D01*
X103119400Y-60923512D02*
X103119400Y-60729988D01*
X103119400Y-60729988D02*
X103143590Y-60681607D01*
X103143590Y-60681607D02*
X103167781Y-60657416D01*
X103167781Y-60657416D02*
X103216162Y-60633226D01*
X103216162Y-60633226D02*
X103312924Y-60633226D01*
X103312924Y-60633226D02*
X103361305Y-60657416D01*
X103361305Y-60657416D02*
X103385495Y-60681607D01*
X103385495Y-60681607D02*
X103409686Y-60729988D01*
X103409686Y-60729988D02*
X103409686Y-60850940D01*
X103409686Y-60850940D02*
X103385495Y-60899321D01*
X103385495Y-60899321D02*
X103361305Y-60923512D01*
X103361305Y-60923512D02*
X103312924Y-60947702D01*
X103312924Y-60947702D02*
X103216162Y-60947702D01*
X103216162Y-60947702D02*
X103167781Y-60923512D01*
X103167781Y-60923512D02*
X103143590Y-60899321D01*
X103143590Y-60899321D02*
X103119400Y-60850940D01*
X102877495Y-61141226D02*
X102780733Y-61141226D01*
X102780733Y-61141226D02*
X102732352Y-61117036D01*
X102732352Y-61117036D02*
X102708161Y-61092845D01*
X102708161Y-61092845D02*
X102659780Y-61020274D01*
X102659780Y-61020274D02*
X102635590Y-60923512D01*
X102635590Y-60923512D02*
X102635590Y-60729988D01*
X102635590Y-60729988D02*
X102659780Y-60681607D01*
X102659780Y-60681607D02*
X102683971Y-60657416D01*
X102683971Y-60657416D02*
X102732352Y-60633226D01*
X102732352Y-60633226D02*
X102829114Y-60633226D01*
X102829114Y-60633226D02*
X102877495Y-60657416D01*
X102877495Y-60657416D02*
X102901685Y-60681607D01*
X102901685Y-60681607D02*
X102925876Y-60729988D01*
X102925876Y-60729988D02*
X102925876Y-60850940D01*
X102925876Y-60850940D02*
X102901685Y-60899321D01*
X102901685Y-60899321D02*
X102877495Y-60923512D01*
X102877495Y-60923512D02*
X102829114Y-60947702D01*
X102829114Y-60947702D02*
X102732352Y-60947702D01*
X102732352Y-60947702D02*
X102683971Y-60923512D01*
X102683971Y-60923512D02*
X102659780Y-60899321D01*
X102659780Y-60899321D02*
X102635590Y-60850940D01*
X125244886Y-64419407D02*
X125220695Y-64395216D01*
X125220695Y-64395216D02*
X125172314Y-64371026D01*
X125172314Y-64371026D02*
X125051362Y-64371026D01*
X125051362Y-64371026D02*
X125002981Y-64395216D01*
X125002981Y-64395216D02*
X124978790Y-64419407D01*
X124978790Y-64419407D02*
X124954600Y-64467788D01*
X124954600Y-64467788D02*
X124954600Y-64516169D01*
X124954600Y-64516169D02*
X124978790Y-64588740D01*
X124978790Y-64588740D02*
X125269076Y-64879026D01*
X125269076Y-64879026D02*
X124954600Y-64879026D01*
X103189400Y-95181226D02*
X103479686Y-95181226D01*
X103334543Y-95181226D02*
X103334543Y-94673226D01*
X103334543Y-94673226D02*
X103382924Y-94745797D01*
X103382924Y-94745797D02*
X103431305Y-94794178D01*
X103431305Y-94794178D02*
X103479686Y-94818369D01*
X102947495Y-95181226D02*
X102850733Y-95181226D01*
X102850733Y-95181226D02*
X102802352Y-95157036D01*
X102802352Y-95157036D02*
X102778161Y-95132845D01*
X102778161Y-95132845D02*
X102729780Y-95060274D01*
X102729780Y-95060274D02*
X102705590Y-94963512D01*
X102705590Y-94963512D02*
X102705590Y-94769988D01*
X102705590Y-94769988D02*
X102729780Y-94721607D01*
X102729780Y-94721607D02*
X102753971Y-94697416D01*
X102753971Y-94697416D02*
X102802352Y-94673226D01*
X102802352Y-94673226D02*
X102899114Y-94673226D01*
X102899114Y-94673226D02*
X102947495Y-94697416D01*
X102947495Y-94697416D02*
X102971685Y-94721607D01*
X102971685Y-94721607D02*
X102995876Y-94769988D01*
X102995876Y-94769988D02*
X102995876Y-94890940D01*
X102995876Y-94890940D02*
X102971685Y-94939321D01*
X102971685Y-94939321D02*
X102947495Y-94963512D01*
X102947495Y-94963512D02*
X102899114Y-94987702D01*
X102899114Y-94987702D02*
X102802352Y-94987702D01*
X102802352Y-94987702D02*
X102753971Y-94963512D01*
X102753971Y-94963512D02*
X102729780Y-94939321D01*
X102729780Y-94939321D02*
X102705590Y-94890940D01*
X102463685Y-95181226D02*
X102366923Y-95181226D01*
X102366923Y-95181226D02*
X102318542Y-95157036D01*
X102318542Y-95157036D02*
X102294351Y-95132845D01*
X102294351Y-95132845D02*
X102245970Y-95060274D01*
X102245970Y-95060274D02*
X102221780Y-94963512D01*
X102221780Y-94963512D02*
X102221780Y-94769988D01*
X102221780Y-94769988D02*
X102245970Y-94721607D01*
X102245970Y-94721607D02*
X102270161Y-94697416D01*
X102270161Y-94697416D02*
X102318542Y-94673226D01*
X102318542Y-94673226D02*
X102415304Y-94673226D01*
X102415304Y-94673226D02*
X102463685Y-94697416D01*
X102463685Y-94697416D02*
X102487875Y-94721607D01*
X102487875Y-94721607D02*
X102512066Y-94769988D01*
X102512066Y-94769988D02*
X102512066Y-94890940D01*
X102512066Y-94890940D02*
X102487875Y-94939321D01*
X102487875Y-94939321D02*
X102463685Y-94963512D01*
X102463685Y-94963512D02*
X102415304Y-94987702D01*
X102415304Y-94987702D02*
X102318542Y-94987702D01*
X102318542Y-94987702D02*
X102270161Y-94963512D01*
X102270161Y-94963512D02*
X102245970Y-94939321D01*
X102245970Y-94939321D02*
X102221780Y-94890940D01*
X127169400Y-97981226D02*
X127459686Y-97981226D01*
X127314543Y-97981226D02*
X127314543Y-97473226D01*
X127314543Y-97473226D02*
X127362924Y-97545797D01*
X127362924Y-97545797D02*
X127411305Y-97594178D01*
X127411305Y-97594178D02*
X127459686Y-97618369D01*
X126854923Y-97473226D02*
X126806542Y-97473226D01*
X126806542Y-97473226D02*
X126758161Y-97497416D01*
X126758161Y-97497416D02*
X126733971Y-97521607D01*
X126733971Y-97521607D02*
X126709780Y-97569988D01*
X126709780Y-97569988D02*
X126685590Y-97666750D01*
X126685590Y-97666750D02*
X126685590Y-97787702D01*
X126685590Y-97787702D02*
X126709780Y-97884464D01*
X126709780Y-97884464D02*
X126733971Y-97932845D01*
X126733971Y-97932845D02*
X126758161Y-97957036D01*
X126758161Y-97957036D02*
X126806542Y-97981226D01*
X126806542Y-97981226D02*
X126854923Y-97981226D01*
X126854923Y-97981226D02*
X126903304Y-97957036D01*
X126903304Y-97957036D02*
X126927495Y-97932845D01*
X126927495Y-97932845D02*
X126951685Y-97884464D01*
X126951685Y-97884464D02*
X126975876Y-97787702D01*
X126975876Y-97787702D02*
X126975876Y-97666750D01*
X126975876Y-97666750D02*
X126951685Y-97569988D01*
X126951685Y-97569988D02*
X126927495Y-97521607D01*
X126927495Y-97521607D02*
X126903304Y-97497416D01*
X126903304Y-97497416D02*
X126854923Y-97473226D01*
X126492066Y-97521607D02*
X126467875Y-97497416D01*
X126467875Y-97497416D02*
X126419494Y-97473226D01*
X126419494Y-97473226D02*
X126298542Y-97473226D01*
X126298542Y-97473226D02*
X126250161Y-97497416D01*
X126250161Y-97497416D02*
X126225970Y-97521607D01*
X126225970Y-97521607D02*
X126201780Y-97569988D01*
X126201780Y-97569988D02*
X126201780Y-97618369D01*
X126201780Y-97618369D02*
X126225970Y-97690940D01*
X126225970Y-97690940D02*
X126516256Y-97981226D01*
X126516256Y-97981226D02*
X126201780Y-97981226D01*
X103489686Y-97431607D02*
X103465495Y-97407416D01*
X103465495Y-97407416D02*
X103417114Y-97383226D01*
X103417114Y-97383226D02*
X103296162Y-97383226D01*
X103296162Y-97383226D02*
X103247781Y-97407416D01*
X103247781Y-97407416D02*
X103223590Y-97431607D01*
X103223590Y-97431607D02*
X103199400Y-97479988D01*
X103199400Y-97479988D02*
X103199400Y-97528369D01*
X103199400Y-97528369D02*
X103223590Y-97600940D01*
X103223590Y-97600940D02*
X103513876Y-97891226D01*
X103513876Y-97891226D02*
X103199400Y-97891226D01*
X102884923Y-97383226D02*
X102836542Y-97383226D01*
X102836542Y-97383226D02*
X102788161Y-97407416D01*
X102788161Y-97407416D02*
X102763971Y-97431607D01*
X102763971Y-97431607D02*
X102739780Y-97479988D01*
X102739780Y-97479988D02*
X102715590Y-97576750D01*
X102715590Y-97576750D02*
X102715590Y-97697702D01*
X102715590Y-97697702D02*
X102739780Y-97794464D01*
X102739780Y-97794464D02*
X102763971Y-97842845D01*
X102763971Y-97842845D02*
X102788161Y-97867036D01*
X102788161Y-97867036D02*
X102836542Y-97891226D01*
X102836542Y-97891226D02*
X102884923Y-97891226D01*
X102884923Y-97891226D02*
X102933304Y-97867036D01*
X102933304Y-97867036D02*
X102957495Y-97842845D01*
X102957495Y-97842845D02*
X102981685Y-97794464D01*
X102981685Y-97794464D02*
X103005876Y-97697702D01*
X103005876Y-97697702D02*
X103005876Y-97576750D01*
X103005876Y-97576750D02*
X102981685Y-97479988D01*
X102981685Y-97479988D02*
X102957495Y-97431607D01*
X102957495Y-97431607D02*
X102933304Y-97407416D01*
X102933304Y-97407416D02*
X102884923Y-97383226D01*
X102401113Y-97383226D02*
X102352732Y-97383226D01*
X102352732Y-97383226D02*
X102304351Y-97407416D01*
X102304351Y-97407416D02*
X102280161Y-97431607D01*
X102280161Y-97431607D02*
X102255970Y-97479988D01*
X102255970Y-97479988D02*
X102231780Y-97576750D01*
X102231780Y-97576750D02*
X102231780Y-97697702D01*
X102231780Y-97697702D02*
X102255970Y-97794464D01*
X102255970Y-97794464D02*
X102280161Y-97842845D01*
X102280161Y-97842845D02*
X102304351Y-97867036D01*
X102304351Y-97867036D02*
X102352732Y-97891226D01*
X102352732Y-97891226D02*
X102401113Y-97891226D01*
X102401113Y-97891226D02*
X102449494Y-97867036D01*
X102449494Y-97867036D02*
X102473685Y-97842845D01*
X102473685Y-97842845D02*
X102497875Y-97794464D01*
X102497875Y-97794464D02*
X102522066Y-97697702D01*
X102522066Y-97697702D02*
X102522066Y-97576750D01*
X102522066Y-97576750D02*
X102497875Y-97479988D01*
X102497875Y-97479988D02*
X102473685Y-97431607D01*
X102473685Y-97431607D02*
X102449494Y-97407416D01*
X102449494Y-97407416D02*
X102401113Y-97383226D01*
X103139400Y-63901226D02*
X103429686Y-63901226D01*
X103284543Y-63901226D02*
X103284543Y-63393226D01*
X103284543Y-63393226D02*
X103332924Y-63465797D01*
X103332924Y-63465797D02*
X103381305Y-63514178D01*
X103381305Y-63514178D02*
X103429686Y-63538369D01*
X102824923Y-63393226D02*
X102776542Y-63393226D01*
X102776542Y-63393226D02*
X102728161Y-63417416D01*
X102728161Y-63417416D02*
X102703971Y-63441607D01*
X102703971Y-63441607D02*
X102679780Y-63489988D01*
X102679780Y-63489988D02*
X102655590Y-63586750D01*
X102655590Y-63586750D02*
X102655590Y-63707702D01*
X102655590Y-63707702D02*
X102679780Y-63804464D01*
X102679780Y-63804464D02*
X102703971Y-63852845D01*
X102703971Y-63852845D02*
X102728161Y-63877036D01*
X102728161Y-63877036D02*
X102776542Y-63901226D01*
X102776542Y-63901226D02*
X102824923Y-63901226D01*
X102824923Y-63901226D02*
X102873304Y-63877036D01*
X102873304Y-63877036D02*
X102897495Y-63852845D01*
X102897495Y-63852845D02*
X102921685Y-63804464D01*
X102921685Y-63804464D02*
X102945876Y-63707702D01*
X102945876Y-63707702D02*
X102945876Y-63586750D01*
X102945876Y-63586750D02*
X102921685Y-63489988D01*
X102921685Y-63489988D02*
X102897495Y-63441607D01*
X102897495Y-63441607D02*
X102873304Y-63417416D01*
X102873304Y-63417416D02*
X102824923Y-63393226D01*
X102341113Y-63393226D02*
X102292732Y-63393226D01*
X102292732Y-63393226D02*
X102244351Y-63417416D01*
X102244351Y-63417416D02*
X102220161Y-63441607D01*
X102220161Y-63441607D02*
X102195970Y-63489988D01*
X102195970Y-63489988D02*
X102171780Y-63586750D01*
X102171780Y-63586750D02*
X102171780Y-63707702D01*
X102171780Y-63707702D02*
X102195970Y-63804464D01*
X102195970Y-63804464D02*
X102220161Y-63852845D01*
X102220161Y-63852845D02*
X102244351Y-63877036D01*
X102244351Y-63877036D02*
X102292732Y-63901226D01*
X102292732Y-63901226D02*
X102341113Y-63901226D01*
X102341113Y-63901226D02*
X102389494Y-63877036D01*
X102389494Y-63877036D02*
X102413685Y-63852845D01*
X102413685Y-63852845D02*
X102437875Y-63804464D01*
X102437875Y-63804464D02*
X102462066Y-63707702D01*
X102462066Y-63707702D02*
X102462066Y-63586750D01*
X102462066Y-63586750D02*
X102437875Y-63489988D01*
X102437875Y-63489988D02*
X102413685Y-63441607D01*
X102413685Y-63441607D02*
X102389494Y-63417416D01*
X102389494Y-63417416D02*
X102341113Y-63393226D01*
X127069400Y-95261226D02*
X127359686Y-95261226D01*
X127214543Y-95261226D02*
X127214543Y-94753226D01*
X127214543Y-94753226D02*
X127262924Y-94825797D01*
X127262924Y-94825797D02*
X127311305Y-94874178D01*
X127311305Y-94874178D02*
X127359686Y-94898369D01*
X126754923Y-94753226D02*
X126706542Y-94753226D01*
X126706542Y-94753226D02*
X126658161Y-94777416D01*
X126658161Y-94777416D02*
X126633971Y-94801607D01*
X126633971Y-94801607D02*
X126609780Y-94849988D01*
X126609780Y-94849988D02*
X126585590Y-94946750D01*
X126585590Y-94946750D02*
X126585590Y-95067702D01*
X126585590Y-95067702D02*
X126609780Y-95164464D01*
X126609780Y-95164464D02*
X126633971Y-95212845D01*
X126633971Y-95212845D02*
X126658161Y-95237036D01*
X126658161Y-95237036D02*
X126706542Y-95261226D01*
X126706542Y-95261226D02*
X126754923Y-95261226D01*
X126754923Y-95261226D02*
X126803304Y-95237036D01*
X126803304Y-95237036D02*
X126827495Y-95212845D01*
X126827495Y-95212845D02*
X126851685Y-95164464D01*
X126851685Y-95164464D02*
X126875876Y-95067702D01*
X126875876Y-95067702D02*
X126875876Y-94946750D01*
X126875876Y-94946750D02*
X126851685Y-94849988D01*
X126851685Y-94849988D02*
X126827495Y-94801607D01*
X126827495Y-94801607D02*
X126803304Y-94777416D01*
X126803304Y-94777416D02*
X126754923Y-94753226D01*
X126101780Y-95261226D02*
X126392066Y-95261226D01*
X126246923Y-95261226D02*
X126246923Y-94753226D01*
X126246923Y-94753226D02*
X126295304Y-94825797D01*
X126295304Y-94825797D02*
X126343685Y-94874178D01*
X126343685Y-94874178D02*
X126392066Y-94898369D01*
X135680559Y-86764585D02*
X135378178Y-86552918D01*
X135680559Y-86401728D02*
X135045559Y-86401728D01*
X135045559Y-86401728D02*
X135045559Y-86643633D01*
X135045559Y-86643633D02*
X135075797Y-86704109D01*
X135075797Y-86704109D02*
X135106035Y-86734347D01*
X135106035Y-86734347D02*
X135166511Y-86764585D01*
X135166511Y-86764585D02*
X135257225Y-86764585D01*
X135257225Y-86764585D02*
X135317701Y-86734347D01*
X135317701Y-86734347D02*
X135347940Y-86704109D01*
X135347940Y-86704109D02*
X135378178Y-86643633D01*
X135378178Y-86643633D02*
X135378178Y-86401728D01*
X135106035Y-87006490D02*
X135075797Y-87036728D01*
X135075797Y-87036728D02*
X135045559Y-87097204D01*
X135045559Y-87097204D02*
X135045559Y-87248395D01*
X135045559Y-87248395D02*
X135075797Y-87308871D01*
X135075797Y-87308871D02*
X135106035Y-87339109D01*
X135106035Y-87339109D02*
X135166511Y-87369347D01*
X135166511Y-87369347D02*
X135226987Y-87369347D01*
X135226987Y-87369347D02*
X135317701Y-87339109D01*
X135317701Y-87339109D02*
X135680559Y-86976252D01*
X135680559Y-86976252D02*
X135680559Y-87369347D01*
X135045559Y-87913633D02*
X135045559Y-87792680D01*
X135045559Y-87792680D02*
X135075797Y-87732204D01*
X135075797Y-87732204D02*
X135106035Y-87701966D01*
X135106035Y-87701966D02*
X135196749Y-87641490D01*
X135196749Y-87641490D02*
X135317701Y-87611252D01*
X135317701Y-87611252D02*
X135559606Y-87611252D01*
X135559606Y-87611252D02*
X135620082Y-87641490D01*
X135620082Y-87641490D02*
X135650321Y-87671728D01*
X135650321Y-87671728D02*
X135680559Y-87732204D01*
X135680559Y-87732204D02*
X135680559Y-87853157D01*
X135680559Y-87853157D02*
X135650321Y-87913633D01*
X135650321Y-87913633D02*
X135620082Y-87943871D01*
X135620082Y-87943871D02*
X135559606Y-87974109D01*
X135559606Y-87974109D02*
X135408416Y-87974109D01*
X135408416Y-87974109D02*
X135347940Y-87943871D01*
X135347940Y-87943871D02*
X135317701Y-87913633D01*
X135317701Y-87913633D02*
X135287463Y-87853157D01*
X135287463Y-87853157D02*
X135287463Y-87732204D01*
X135287463Y-87732204D02*
X135317701Y-87671728D01*
X135317701Y-87671728D02*
X135347940Y-87641490D01*
X135347940Y-87641490D02*
X135408416Y-87611252D01*
X127938214Y-82576682D02*
X127968452Y-82606921D01*
X127968452Y-82606921D02*
X128059166Y-82637159D01*
X128059166Y-82637159D02*
X128119642Y-82637159D01*
X128119642Y-82637159D02*
X128210357Y-82606921D01*
X128210357Y-82606921D02*
X128270833Y-82546444D01*
X128270833Y-82546444D02*
X128301071Y-82485968D01*
X128301071Y-82485968D02*
X128331309Y-82365016D01*
X128331309Y-82365016D02*
X128331309Y-82274301D01*
X128331309Y-82274301D02*
X128301071Y-82153349D01*
X128301071Y-82153349D02*
X128270833Y-82092873D01*
X128270833Y-82092873D02*
X128210357Y-82032397D01*
X128210357Y-82032397D02*
X128119642Y-82002159D01*
X128119642Y-82002159D02*
X128059166Y-82002159D01*
X128059166Y-82002159D02*
X127968452Y-82032397D01*
X127968452Y-82032397D02*
X127938214Y-82062635D01*
X127696309Y-82062635D02*
X127666071Y-82032397D01*
X127666071Y-82032397D02*
X127605595Y-82002159D01*
X127605595Y-82002159D02*
X127454404Y-82002159D01*
X127454404Y-82002159D02*
X127393928Y-82032397D01*
X127393928Y-82032397D02*
X127363690Y-82062635D01*
X127363690Y-82062635D02*
X127333452Y-82123111D01*
X127333452Y-82123111D02*
X127333452Y-82183587D01*
X127333452Y-82183587D02*
X127363690Y-82274301D01*
X127363690Y-82274301D02*
X127726547Y-82637159D01*
X127726547Y-82637159D02*
X127333452Y-82637159D01*
X127121785Y-82002159D02*
X126728690Y-82002159D01*
X126728690Y-82002159D02*
X126940357Y-82244063D01*
X126940357Y-82244063D02*
X126849642Y-82244063D01*
X126849642Y-82244063D02*
X126789166Y-82274301D01*
X126789166Y-82274301D02*
X126758928Y-82304540D01*
X126758928Y-82304540D02*
X126728690Y-82365016D01*
X126728690Y-82365016D02*
X126728690Y-82516206D01*
X126728690Y-82516206D02*
X126758928Y-82576682D01*
X126758928Y-82576682D02*
X126789166Y-82606921D01*
X126789166Y-82606921D02*
X126849642Y-82637159D01*
X126849642Y-82637159D02*
X127031071Y-82637159D01*
X127031071Y-82637159D02*
X127091547Y-82606921D01*
X127091547Y-82606921D02*
X127121785Y-82576682D01*
X139385259Y-86739185D02*
X139082878Y-86527518D01*
X139385259Y-86376328D02*
X138750259Y-86376328D01*
X138750259Y-86376328D02*
X138750259Y-86618233D01*
X138750259Y-86618233D02*
X138780497Y-86678709D01*
X138780497Y-86678709D02*
X138810735Y-86708947D01*
X138810735Y-86708947D02*
X138871211Y-86739185D01*
X138871211Y-86739185D02*
X138961925Y-86739185D01*
X138961925Y-86739185D02*
X139022401Y-86708947D01*
X139022401Y-86708947D02*
X139052640Y-86678709D01*
X139052640Y-86678709D02*
X139082878Y-86618233D01*
X139082878Y-86618233D02*
X139082878Y-86376328D01*
X138810735Y-86981090D02*
X138780497Y-87011328D01*
X138780497Y-87011328D02*
X138750259Y-87071804D01*
X138750259Y-87071804D02*
X138750259Y-87222995D01*
X138750259Y-87222995D02*
X138780497Y-87283471D01*
X138780497Y-87283471D02*
X138810735Y-87313709D01*
X138810735Y-87313709D02*
X138871211Y-87343947D01*
X138871211Y-87343947D02*
X138931687Y-87343947D01*
X138931687Y-87343947D02*
X139022401Y-87313709D01*
X139022401Y-87313709D02*
X139385259Y-86950852D01*
X139385259Y-86950852D02*
X139385259Y-87343947D01*
X138961925Y-87888233D02*
X139385259Y-87888233D01*
X138720021Y-87737042D02*
X139173592Y-87585852D01*
X139173592Y-87585852D02*
X139173592Y-87978947D01*
D11*
X144243486Y-84249985D02*
X144273725Y-84219747D01*
X144273725Y-84219747D02*
X144303963Y-84129033D01*
X144303963Y-84129033D02*
X144303963Y-84068557D01*
X144303963Y-84068557D02*
X144273725Y-83977842D01*
X144273725Y-83977842D02*
X144213248Y-83917366D01*
X144213248Y-83917366D02*
X144152772Y-83887128D01*
X144152772Y-83887128D02*
X144031820Y-83856890D01*
X144031820Y-83856890D02*
X143941105Y-83856890D01*
X143941105Y-83856890D02*
X143820153Y-83887128D01*
X143820153Y-83887128D02*
X143759677Y-83917366D01*
X143759677Y-83917366D02*
X143699201Y-83977842D01*
X143699201Y-83977842D02*
X143668963Y-84068557D01*
X143668963Y-84068557D02*
X143668963Y-84129033D01*
X143668963Y-84129033D02*
X143699201Y-84219747D01*
X143699201Y-84219747D02*
X143729439Y-84249985D01*
X144303963Y-84854747D02*
X144303963Y-84491890D01*
X144303963Y-84673318D02*
X143668963Y-84673318D01*
X143668963Y-84673318D02*
X143759677Y-84612842D01*
X143759677Y-84612842D02*
X143820153Y-84552366D01*
X143820153Y-84552366D02*
X143850391Y-84491890D01*
X143668963Y-85399033D02*
X143668963Y-85278080D01*
X143668963Y-85278080D02*
X143699201Y-85217604D01*
X143699201Y-85217604D02*
X143729439Y-85187366D01*
X143729439Y-85187366D02*
X143820153Y-85126890D01*
X143820153Y-85126890D02*
X143941105Y-85096652D01*
X143941105Y-85096652D02*
X144183010Y-85096652D01*
X144183010Y-85096652D02*
X144243486Y-85126890D01*
X144243486Y-85126890D02*
X144273725Y-85157128D01*
X144273725Y-85157128D02*
X144303963Y-85217604D01*
X144303963Y-85217604D02*
X144303963Y-85338557D01*
X144303963Y-85338557D02*
X144273725Y-85399033D01*
X144273725Y-85399033D02*
X144243486Y-85429271D01*
X144243486Y-85429271D02*
X144183010Y-85459509D01*
X144183010Y-85459509D02*
X144031820Y-85459509D01*
X144031820Y-85459509D02*
X143971344Y-85429271D01*
X143971344Y-85429271D02*
X143941105Y-85399033D01*
X143941105Y-85399033D02*
X143910867Y-85338557D01*
X143910867Y-85338557D02*
X143910867Y-85217604D01*
X143910867Y-85217604D02*
X143941105Y-85157128D01*
X143941105Y-85157128D02*
X143971344Y-85126890D01*
X143971344Y-85126890D02*
X144031820Y-85096652D01*
D10*
X141257159Y-86764585D02*
X140954778Y-86552918D01*
X141257159Y-86401728D02*
X140622159Y-86401728D01*
X140622159Y-86401728D02*
X140622159Y-86643633D01*
X140622159Y-86643633D02*
X140652397Y-86704109D01*
X140652397Y-86704109D02*
X140682635Y-86734347D01*
X140682635Y-86734347D02*
X140743111Y-86764585D01*
X140743111Y-86764585D02*
X140833825Y-86764585D01*
X140833825Y-86764585D02*
X140894301Y-86734347D01*
X140894301Y-86734347D02*
X140924540Y-86704109D01*
X140924540Y-86704109D02*
X140954778Y-86643633D01*
X140954778Y-86643633D02*
X140954778Y-86401728D01*
X140682635Y-87006490D02*
X140652397Y-87036728D01*
X140652397Y-87036728D02*
X140622159Y-87097204D01*
X140622159Y-87097204D02*
X140622159Y-87248395D01*
X140622159Y-87248395D02*
X140652397Y-87308871D01*
X140652397Y-87308871D02*
X140682635Y-87339109D01*
X140682635Y-87339109D02*
X140743111Y-87369347D01*
X140743111Y-87369347D02*
X140803587Y-87369347D01*
X140803587Y-87369347D02*
X140894301Y-87339109D01*
X140894301Y-87339109D02*
X141257159Y-86976252D01*
X141257159Y-86976252D02*
X141257159Y-87369347D01*
X140622159Y-87581014D02*
X140622159Y-87974109D01*
X140622159Y-87974109D02*
X140864063Y-87762442D01*
X140864063Y-87762442D02*
X140864063Y-87853157D01*
X140864063Y-87853157D02*
X140894301Y-87913633D01*
X140894301Y-87913633D02*
X140924540Y-87943871D01*
X140924540Y-87943871D02*
X140985016Y-87974109D01*
X140985016Y-87974109D02*
X141136206Y-87974109D01*
X141136206Y-87974109D02*
X141196682Y-87943871D01*
X141196682Y-87943871D02*
X141226921Y-87913633D01*
X141226921Y-87913633D02*
X141257159Y-87853157D01*
X141257159Y-87853157D02*
X141257159Y-87671728D01*
X141257159Y-87671728D02*
X141226921Y-87611252D01*
X141226921Y-87611252D02*
X141196682Y-87581014D01*
X127958214Y-80726682D02*
X127988452Y-80756921D01*
X127988452Y-80756921D02*
X128079166Y-80787159D01*
X128079166Y-80787159D02*
X128139642Y-80787159D01*
X128139642Y-80787159D02*
X128230357Y-80756921D01*
X128230357Y-80756921D02*
X128290833Y-80696444D01*
X128290833Y-80696444D02*
X128321071Y-80635968D01*
X128321071Y-80635968D02*
X128351309Y-80515016D01*
X128351309Y-80515016D02*
X128351309Y-80424301D01*
X128351309Y-80424301D02*
X128321071Y-80303349D01*
X128321071Y-80303349D02*
X128290833Y-80242873D01*
X128290833Y-80242873D02*
X128230357Y-80182397D01*
X128230357Y-80182397D02*
X128139642Y-80152159D01*
X128139642Y-80152159D02*
X128079166Y-80152159D01*
X128079166Y-80152159D02*
X127988452Y-80182397D01*
X127988452Y-80182397D02*
X127958214Y-80212635D01*
X127716309Y-80212635D02*
X127686071Y-80182397D01*
X127686071Y-80182397D02*
X127625595Y-80152159D01*
X127625595Y-80152159D02*
X127474404Y-80152159D01*
X127474404Y-80152159D02*
X127413928Y-80182397D01*
X127413928Y-80182397D02*
X127383690Y-80212635D01*
X127383690Y-80212635D02*
X127353452Y-80273111D01*
X127353452Y-80273111D02*
X127353452Y-80333587D01*
X127353452Y-80333587D02*
X127383690Y-80424301D01*
X127383690Y-80424301D02*
X127746547Y-80787159D01*
X127746547Y-80787159D02*
X127353452Y-80787159D01*
X127051071Y-80787159D02*
X126930119Y-80787159D01*
X126930119Y-80787159D02*
X126869642Y-80756921D01*
X126869642Y-80756921D02*
X126839404Y-80726682D01*
X126839404Y-80726682D02*
X126778928Y-80635968D01*
X126778928Y-80635968D02*
X126748690Y-80515016D01*
X126748690Y-80515016D02*
X126748690Y-80273111D01*
X126748690Y-80273111D02*
X126778928Y-80212635D01*
X126778928Y-80212635D02*
X126809166Y-80182397D01*
X126809166Y-80182397D02*
X126869642Y-80152159D01*
X126869642Y-80152159D02*
X126990595Y-80152159D01*
X126990595Y-80152159D02*
X127051071Y-80182397D01*
X127051071Y-80182397D02*
X127081309Y-80212635D01*
X127081309Y-80212635D02*
X127111547Y-80273111D01*
X127111547Y-80273111D02*
X127111547Y-80424301D01*
X127111547Y-80424301D02*
X127081309Y-80484778D01*
X127081309Y-80484778D02*
X127051071Y-80515016D01*
X127051071Y-80515016D02*
X126990595Y-80545254D01*
X126990595Y-80545254D02*
X126869642Y-80545254D01*
X126869642Y-80545254D02*
X126809166Y-80515016D01*
X126809166Y-80515016D02*
X126778928Y-80484778D01*
X126778928Y-80484778D02*
X126748690Y-80424301D01*
D11*
X95065486Y-84324166D02*
X95095725Y-84293928D01*
X95095725Y-84293928D02*
X95125963Y-84203214D01*
X95125963Y-84203214D02*
X95125963Y-84142738D01*
X95125963Y-84142738D02*
X95095725Y-84052023D01*
X95095725Y-84052023D02*
X95035248Y-83991547D01*
X95035248Y-83991547D02*
X94974772Y-83961309D01*
X94974772Y-83961309D02*
X94853820Y-83931071D01*
X94853820Y-83931071D02*
X94763105Y-83931071D01*
X94763105Y-83931071D02*
X94642153Y-83961309D01*
X94642153Y-83961309D02*
X94581677Y-83991547D01*
X94581677Y-83991547D02*
X94521201Y-84052023D01*
X94521201Y-84052023D02*
X94490963Y-84142738D01*
X94490963Y-84142738D02*
X94490963Y-84203214D01*
X94490963Y-84203214D02*
X94521201Y-84293928D01*
X94521201Y-84293928D02*
X94551439Y-84324166D01*
X95125963Y-84928928D02*
X95125963Y-84566071D01*
X95125963Y-84747499D02*
X94490963Y-84747499D01*
X94490963Y-84747499D02*
X94581677Y-84687023D01*
X94581677Y-84687023D02*
X94642153Y-84626547D01*
X94642153Y-84626547D02*
X94672391Y-84566071D01*
X94967486Y-76094166D02*
X94997725Y-76063928D01*
X94997725Y-76063928D02*
X95027963Y-75973214D01*
X95027963Y-75973214D02*
X95027963Y-75912738D01*
X95027963Y-75912738D02*
X94997725Y-75822023D01*
X94997725Y-75822023D02*
X94937248Y-75761547D01*
X94937248Y-75761547D02*
X94876772Y-75731309D01*
X94876772Y-75731309D02*
X94755820Y-75701071D01*
X94755820Y-75701071D02*
X94665105Y-75701071D01*
X94665105Y-75701071D02*
X94544153Y-75731309D01*
X94544153Y-75731309D02*
X94483677Y-75761547D01*
X94483677Y-75761547D02*
X94423201Y-75822023D01*
X94423201Y-75822023D02*
X94392963Y-75912738D01*
X94392963Y-75912738D02*
X94392963Y-75973214D01*
X94392963Y-75973214D02*
X94423201Y-76063928D01*
X94423201Y-76063928D02*
X94453439Y-76094166D01*
X94604629Y-76638452D02*
X95027963Y-76638452D01*
X94362725Y-76487261D02*
X94816296Y-76336071D01*
X94816296Y-76336071D02*
X94816296Y-76729166D01*
D12*
X121197171Y-83231345D02*
X121221362Y-83255536D01*
X121221362Y-83255536D02*
X121293933Y-83279726D01*
X121293933Y-83279726D02*
X121342314Y-83279726D01*
X121342314Y-83279726D02*
X121414886Y-83255536D01*
X121414886Y-83255536D02*
X121463267Y-83207155D01*
X121463267Y-83207155D02*
X121487457Y-83158774D01*
X121487457Y-83158774D02*
X121511648Y-83062012D01*
X121511648Y-83062012D02*
X121511648Y-82989440D01*
X121511648Y-82989440D02*
X121487457Y-82892678D01*
X121487457Y-82892678D02*
X121463267Y-82844297D01*
X121463267Y-82844297D02*
X121414886Y-82795916D01*
X121414886Y-82795916D02*
X121342314Y-82771726D01*
X121342314Y-82771726D02*
X121293933Y-82771726D01*
X121293933Y-82771726D02*
X121221362Y-82795916D01*
X121221362Y-82795916D02*
X121197171Y-82820107D01*
X121027838Y-82771726D02*
X120713362Y-82771726D01*
X120713362Y-82771726D02*
X120882695Y-82965250D01*
X120882695Y-82965250D02*
X120810124Y-82965250D01*
X120810124Y-82965250D02*
X120761743Y-82989440D01*
X120761743Y-82989440D02*
X120737552Y-83013631D01*
X120737552Y-83013631D02*
X120713362Y-83062012D01*
X120713362Y-83062012D02*
X120713362Y-83182964D01*
X120713362Y-83182964D02*
X120737552Y-83231345D01*
X120737552Y-83231345D02*
X120761743Y-83255536D01*
X120761743Y-83255536D02*
X120810124Y-83279726D01*
X120810124Y-83279726D02*
X120955267Y-83279726D01*
X120955267Y-83279726D02*
X121003648Y-83255536D01*
X121003648Y-83255536D02*
X121027838Y-83231345D01*
X120277933Y-82771726D02*
X120374695Y-82771726D01*
X120374695Y-82771726D02*
X120423076Y-82795916D01*
X120423076Y-82795916D02*
X120447266Y-82820107D01*
X120447266Y-82820107D02*
X120495647Y-82892678D01*
X120495647Y-82892678D02*
X120519838Y-82989440D01*
X120519838Y-82989440D02*
X120519838Y-83182964D01*
X120519838Y-83182964D02*
X120495647Y-83231345D01*
X120495647Y-83231345D02*
X120471457Y-83255536D01*
X120471457Y-83255536D02*
X120423076Y-83279726D01*
X120423076Y-83279726D02*
X120326314Y-83279726D01*
X120326314Y-83279726D02*
X120277933Y-83255536D01*
X120277933Y-83255536D02*
X120253742Y-83231345D01*
X120253742Y-83231345D02*
X120229552Y-83182964D01*
X120229552Y-83182964D02*
X120229552Y-83062012D01*
X120229552Y-83062012D02*
X120253742Y-83013631D01*
X120253742Y-83013631D02*
X120277933Y-82989440D01*
X120277933Y-82989440D02*
X120326314Y-82965250D01*
X120326314Y-82965250D02*
X120423076Y-82965250D01*
X120423076Y-82965250D02*
X120471457Y-82989440D01*
X120471457Y-82989440D02*
X120495647Y-83013631D01*
X120495647Y-83013631D02*
X120519838Y-83062012D01*
X120076571Y-76631345D02*
X120100762Y-76655536D01*
X120100762Y-76655536D02*
X120173333Y-76679726D01*
X120173333Y-76679726D02*
X120221714Y-76679726D01*
X120221714Y-76679726D02*
X120294286Y-76655536D01*
X120294286Y-76655536D02*
X120342667Y-76607155D01*
X120342667Y-76607155D02*
X120366857Y-76558774D01*
X120366857Y-76558774D02*
X120391048Y-76462012D01*
X120391048Y-76462012D02*
X120391048Y-76389440D01*
X120391048Y-76389440D02*
X120366857Y-76292678D01*
X120366857Y-76292678D02*
X120342667Y-76244297D01*
X120342667Y-76244297D02*
X120294286Y-76195916D01*
X120294286Y-76195916D02*
X120221714Y-76171726D01*
X120221714Y-76171726D02*
X120173333Y-76171726D01*
X120173333Y-76171726D02*
X120100762Y-76195916D01*
X120100762Y-76195916D02*
X120076571Y-76220107D01*
X119907238Y-76171726D02*
X119592762Y-76171726D01*
X119592762Y-76171726D02*
X119762095Y-76365250D01*
X119762095Y-76365250D02*
X119689524Y-76365250D01*
X119689524Y-76365250D02*
X119641143Y-76389440D01*
X119641143Y-76389440D02*
X119616952Y-76413631D01*
X119616952Y-76413631D02*
X119592762Y-76462012D01*
X119592762Y-76462012D02*
X119592762Y-76582964D01*
X119592762Y-76582964D02*
X119616952Y-76631345D01*
X119616952Y-76631345D02*
X119641143Y-76655536D01*
X119641143Y-76655536D02*
X119689524Y-76679726D01*
X119689524Y-76679726D02*
X119834667Y-76679726D01*
X119834667Y-76679726D02*
X119883048Y-76655536D01*
X119883048Y-76655536D02*
X119907238Y-76631345D01*
X119423428Y-76171726D02*
X119108952Y-76171726D01*
X119108952Y-76171726D02*
X119278285Y-76365250D01*
X119278285Y-76365250D02*
X119205714Y-76365250D01*
X119205714Y-76365250D02*
X119157333Y-76389440D01*
X119157333Y-76389440D02*
X119133142Y-76413631D01*
X119133142Y-76413631D02*
X119108952Y-76462012D01*
X119108952Y-76462012D02*
X119108952Y-76582964D01*
X119108952Y-76582964D02*
X119133142Y-76631345D01*
X119133142Y-76631345D02*
X119157333Y-76655536D01*
X119157333Y-76655536D02*
X119205714Y-76679726D01*
X119205714Y-76679726D02*
X119350857Y-76679726D01*
X119350857Y-76679726D02*
X119399238Y-76655536D01*
X119399238Y-76655536D02*
X119423428Y-76631345D01*
D10*
X137500359Y-64604385D02*
X137197978Y-64392718D01*
X137500359Y-64241528D02*
X136865359Y-64241528D01*
X136865359Y-64241528D02*
X136865359Y-64483433D01*
X136865359Y-64483433D02*
X136895597Y-64543909D01*
X136895597Y-64543909D02*
X136925835Y-64574147D01*
X136925835Y-64574147D02*
X136986311Y-64604385D01*
X136986311Y-64604385D02*
X137077025Y-64604385D01*
X137077025Y-64604385D02*
X137137501Y-64574147D01*
X137137501Y-64574147D02*
X137167740Y-64543909D01*
X137167740Y-64543909D02*
X137197978Y-64483433D01*
X137197978Y-64483433D02*
X137197978Y-64241528D01*
X136865359Y-64816052D02*
X136865359Y-65209147D01*
X136865359Y-65209147D02*
X137107263Y-64997480D01*
X137107263Y-64997480D02*
X137107263Y-65088195D01*
X137107263Y-65088195D02*
X137137501Y-65148671D01*
X137137501Y-65148671D02*
X137167740Y-65178909D01*
X137167740Y-65178909D02*
X137228216Y-65209147D01*
X137228216Y-65209147D02*
X137379406Y-65209147D01*
X137379406Y-65209147D02*
X137439882Y-65178909D01*
X137439882Y-65178909D02*
X137470121Y-65148671D01*
X137470121Y-65148671D02*
X137500359Y-65088195D01*
X137500359Y-65088195D02*
X137500359Y-64906766D01*
X137500359Y-64906766D02*
X137470121Y-64846290D01*
X137470121Y-64846290D02*
X137439882Y-64816052D01*
X137500359Y-65813909D02*
X137500359Y-65451052D01*
X137500359Y-65632480D02*
X136865359Y-65632480D01*
X136865359Y-65632480D02*
X136956073Y-65572004D01*
X136956073Y-65572004D02*
X137016549Y-65511528D01*
X137016549Y-65511528D02*
X137046787Y-65451052D01*
X110858214Y-84776682D02*
X110888452Y-84806921D01*
X110888452Y-84806921D02*
X110979166Y-84837159D01*
X110979166Y-84837159D02*
X111039642Y-84837159D01*
X111039642Y-84837159D02*
X111130357Y-84806921D01*
X111130357Y-84806921D02*
X111190833Y-84746444D01*
X111190833Y-84746444D02*
X111221071Y-84685968D01*
X111221071Y-84685968D02*
X111251309Y-84565016D01*
X111251309Y-84565016D02*
X111251309Y-84474301D01*
X111251309Y-84474301D02*
X111221071Y-84353349D01*
X111221071Y-84353349D02*
X111190833Y-84292873D01*
X111190833Y-84292873D02*
X111130357Y-84232397D01*
X111130357Y-84232397D02*
X111039642Y-84202159D01*
X111039642Y-84202159D02*
X110979166Y-84202159D01*
X110979166Y-84202159D02*
X110888452Y-84232397D01*
X110888452Y-84232397D02*
X110858214Y-84262635D01*
X110616309Y-84262635D02*
X110586071Y-84232397D01*
X110586071Y-84232397D02*
X110525595Y-84202159D01*
X110525595Y-84202159D02*
X110374404Y-84202159D01*
X110374404Y-84202159D02*
X110313928Y-84232397D01*
X110313928Y-84232397D02*
X110283690Y-84262635D01*
X110283690Y-84262635D02*
X110253452Y-84323111D01*
X110253452Y-84323111D02*
X110253452Y-84383587D01*
X110253452Y-84383587D02*
X110283690Y-84474301D01*
X110283690Y-84474301D02*
X110646547Y-84837159D01*
X110646547Y-84837159D02*
X110253452Y-84837159D01*
X109890595Y-84474301D02*
X109951071Y-84444063D01*
X109951071Y-84444063D02*
X109981309Y-84413825D01*
X109981309Y-84413825D02*
X110011547Y-84353349D01*
X110011547Y-84353349D02*
X110011547Y-84323111D01*
X110011547Y-84323111D02*
X109981309Y-84262635D01*
X109981309Y-84262635D02*
X109951071Y-84232397D01*
X109951071Y-84232397D02*
X109890595Y-84202159D01*
X109890595Y-84202159D02*
X109769642Y-84202159D01*
X109769642Y-84202159D02*
X109709166Y-84232397D01*
X109709166Y-84232397D02*
X109678928Y-84262635D01*
X109678928Y-84262635D02*
X109648690Y-84323111D01*
X109648690Y-84323111D02*
X109648690Y-84353349D01*
X109648690Y-84353349D02*
X109678928Y-84413825D01*
X109678928Y-84413825D02*
X109709166Y-84444063D01*
X109709166Y-84444063D02*
X109769642Y-84474301D01*
X109769642Y-84474301D02*
X109890595Y-84474301D01*
X109890595Y-84474301D02*
X109951071Y-84504540D01*
X109951071Y-84504540D02*
X109981309Y-84534778D01*
X109981309Y-84534778D02*
X110011547Y-84595254D01*
X110011547Y-84595254D02*
X110011547Y-84716206D01*
X110011547Y-84716206D02*
X109981309Y-84776682D01*
X109981309Y-84776682D02*
X109951071Y-84806921D01*
X109951071Y-84806921D02*
X109890595Y-84837159D01*
X109890595Y-84837159D02*
X109769642Y-84837159D01*
X109769642Y-84837159D02*
X109709166Y-84806921D01*
X109709166Y-84806921D02*
X109678928Y-84776682D01*
X109678928Y-84776682D02*
X109648690Y-84716206D01*
X109648690Y-84716206D02*
X109648690Y-84595254D01*
X109648690Y-84595254D02*
X109678928Y-84534778D01*
X109678928Y-84534778D02*
X109709166Y-84504540D01*
X109709166Y-84504540D02*
X109769642Y-84474301D01*
X130106559Y-92553185D02*
X129804178Y-92341518D01*
X130106559Y-92190328D02*
X129471559Y-92190328D01*
X129471559Y-92190328D02*
X129471559Y-92432233D01*
X129471559Y-92432233D02*
X129501797Y-92492709D01*
X129501797Y-92492709D02*
X129532035Y-92522947D01*
X129532035Y-92522947D02*
X129592511Y-92553185D01*
X129592511Y-92553185D02*
X129683225Y-92553185D01*
X129683225Y-92553185D02*
X129743701Y-92522947D01*
X129743701Y-92522947D02*
X129773940Y-92492709D01*
X129773940Y-92492709D02*
X129804178Y-92432233D01*
X129804178Y-92432233D02*
X129804178Y-92190328D01*
X129471559Y-92764852D02*
X129471559Y-93157947D01*
X129471559Y-93157947D02*
X129713463Y-92946280D01*
X129713463Y-92946280D02*
X129713463Y-93036995D01*
X129713463Y-93036995D02*
X129743701Y-93097471D01*
X129743701Y-93097471D02*
X129773940Y-93127709D01*
X129773940Y-93127709D02*
X129834416Y-93157947D01*
X129834416Y-93157947D02*
X129985606Y-93157947D01*
X129985606Y-93157947D02*
X130046082Y-93127709D01*
X130046082Y-93127709D02*
X130076321Y-93097471D01*
X130076321Y-93097471D02*
X130106559Y-93036995D01*
X130106559Y-93036995D02*
X130106559Y-92855566D01*
X130106559Y-92855566D02*
X130076321Y-92795090D01*
X130076321Y-92795090D02*
X130046082Y-92764852D01*
X129471559Y-93369614D02*
X129471559Y-93762709D01*
X129471559Y-93762709D02*
X129713463Y-93551042D01*
X129713463Y-93551042D02*
X129713463Y-93641757D01*
X129713463Y-93641757D02*
X129743701Y-93702233D01*
X129743701Y-93702233D02*
X129773940Y-93732471D01*
X129773940Y-93732471D02*
X129834416Y-93762709D01*
X129834416Y-93762709D02*
X129985606Y-93762709D01*
X129985606Y-93762709D02*
X130046082Y-93732471D01*
X130046082Y-93732471D02*
X130076321Y-93702233D01*
X130076321Y-93702233D02*
X130106559Y-93641757D01*
X130106559Y-93641757D02*
X130106559Y-93460328D01*
X130106559Y-93460328D02*
X130076321Y-93399852D01*
X130076321Y-93399852D02*
X130046082Y-93369614D01*
X127938214Y-77276682D02*
X127968452Y-77306921D01*
X127968452Y-77306921D02*
X128059166Y-77337159D01*
X128059166Y-77337159D02*
X128119642Y-77337159D01*
X128119642Y-77337159D02*
X128210357Y-77306921D01*
X128210357Y-77306921D02*
X128270833Y-77246444D01*
X128270833Y-77246444D02*
X128301071Y-77185968D01*
X128301071Y-77185968D02*
X128331309Y-77065016D01*
X128331309Y-77065016D02*
X128331309Y-76974301D01*
X128331309Y-76974301D02*
X128301071Y-76853349D01*
X128301071Y-76853349D02*
X128270833Y-76792873D01*
X128270833Y-76792873D02*
X128210357Y-76732397D01*
X128210357Y-76732397D02*
X128119642Y-76702159D01*
X128119642Y-76702159D02*
X128059166Y-76702159D01*
X128059166Y-76702159D02*
X127968452Y-76732397D01*
X127968452Y-76732397D02*
X127938214Y-76762635D01*
X127696309Y-76762635D02*
X127666071Y-76732397D01*
X127666071Y-76732397D02*
X127605595Y-76702159D01*
X127605595Y-76702159D02*
X127454404Y-76702159D01*
X127454404Y-76702159D02*
X127393928Y-76732397D01*
X127393928Y-76732397D02*
X127363690Y-76762635D01*
X127363690Y-76762635D02*
X127333452Y-76823111D01*
X127333452Y-76823111D02*
X127333452Y-76883587D01*
X127333452Y-76883587D02*
X127363690Y-76974301D01*
X127363690Y-76974301D02*
X127726547Y-77337159D01*
X127726547Y-77337159D02*
X127333452Y-77337159D01*
X126940357Y-76702159D02*
X126879880Y-76702159D01*
X126879880Y-76702159D02*
X126819404Y-76732397D01*
X126819404Y-76732397D02*
X126789166Y-76762635D01*
X126789166Y-76762635D02*
X126758928Y-76823111D01*
X126758928Y-76823111D02*
X126728690Y-76944063D01*
X126728690Y-76944063D02*
X126728690Y-77095254D01*
X126728690Y-77095254D02*
X126758928Y-77216206D01*
X126758928Y-77216206D02*
X126789166Y-77276682D01*
X126789166Y-77276682D02*
X126819404Y-77306921D01*
X126819404Y-77306921D02*
X126879880Y-77337159D01*
X126879880Y-77337159D02*
X126940357Y-77337159D01*
X126940357Y-77337159D02*
X127000833Y-77306921D01*
X127000833Y-77306921D02*
X127031071Y-77276682D01*
X127031071Y-77276682D02*
X127061309Y-77216206D01*
X127061309Y-77216206D02*
X127091547Y-77095254D01*
X127091547Y-77095254D02*
X127091547Y-76944063D01*
X127091547Y-76944063D02*
X127061309Y-76823111D01*
X127061309Y-76823111D02*
X127031071Y-76762635D01*
X127031071Y-76762635D02*
X127000833Y-76732397D01*
X127000833Y-76732397D02*
X126940357Y-76702159D01*
D11*
X96882163Y-83894990D02*
X97396210Y-83894990D01*
X97396210Y-83894990D02*
X97456686Y-83925228D01*
X97456686Y-83925228D02*
X97486925Y-83955466D01*
X97486925Y-83955466D02*
X97517163Y-84015942D01*
X97517163Y-84015942D02*
X97517163Y-84136895D01*
X97517163Y-84136895D02*
X97486925Y-84197371D01*
X97486925Y-84197371D02*
X97456686Y-84227609D01*
X97456686Y-84227609D02*
X97396210Y-84257847D01*
X97396210Y-84257847D02*
X96882163Y-84257847D01*
X97517163Y-84892847D02*
X97517163Y-84529990D01*
X97517163Y-84711418D02*
X96882163Y-84711418D01*
X96882163Y-84711418D02*
X96972877Y-84650942D01*
X96972877Y-84650942D02*
X97033353Y-84590466D01*
X97033353Y-84590466D02*
X97063591Y-84529990D01*
D10*
X143162159Y-86815385D02*
X142859778Y-86603718D01*
X143162159Y-86452528D02*
X142527159Y-86452528D01*
X142527159Y-86452528D02*
X142527159Y-86694433D01*
X142527159Y-86694433D02*
X142557397Y-86754909D01*
X142557397Y-86754909D02*
X142587635Y-86785147D01*
X142587635Y-86785147D02*
X142648111Y-86815385D01*
X142648111Y-86815385D02*
X142738825Y-86815385D01*
X142738825Y-86815385D02*
X142799301Y-86785147D01*
X142799301Y-86785147D02*
X142829540Y-86754909D01*
X142829540Y-86754909D02*
X142859778Y-86694433D01*
X142859778Y-86694433D02*
X142859778Y-86452528D01*
X142587635Y-87057290D02*
X142557397Y-87087528D01*
X142557397Y-87087528D02*
X142527159Y-87148004D01*
X142527159Y-87148004D02*
X142527159Y-87299195D01*
X142527159Y-87299195D02*
X142557397Y-87359671D01*
X142557397Y-87359671D02*
X142587635Y-87389909D01*
X142587635Y-87389909D02*
X142648111Y-87420147D01*
X142648111Y-87420147D02*
X142708587Y-87420147D01*
X142708587Y-87420147D02*
X142799301Y-87389909D01*
X142799301Y-87389909D02*
X143162159Y-87027052D01*
X143162159Y-87027052D02*
X143162159Y-87420147D01*
X142527159Y-87631814D02*
X142527159Y-88055147D01*
X142527159Y-88055147D02*
X143162159Y-87783004D01*
D12*
X122676571Y-75731345D02*
X122700762Y-75755536D01*
X122700762Y-75755536D02*
X122773333Y-75779726D01*
X122773333Y-75779726D02*
X122821714Y-75779726D01*
X122821714Y-75779726D02*
X122894286Y-75755536D01*
X122894286Y-75755536D02*
X122942667Y-75707155D01*
X122942667Y-75707155D02*
X122966857Y-75658774D01*
X122966857Y-75658774D02*
X122991048Y-75562012D01*
X122991048Y-75562012D02*
X122991048Y-75489440D01*
X122991048Y-75489440D02*
X122966857Y-75392678D01*
X122966857Y-75392678D02*
X122942667Y-75344297D01*
X122942667Y-75344297D02*
X122894286Y-75295916D01*
X122894286Y-75295916D02*
X122821714Y-75271726D01*
X122821714Y-75271726D02*
X122773333Y-75271726D01*
X122773333Y-75271726D02*
X122700762Y-75295916D01*
X122700762Y-75295916D02*
X122676571Y-75320107D01*
X122507238Y-75271726D02*
X122192762Y-75271726D01*
X122192762Y-75271726D02*
X122362095Y-75465250D01*
X122362095Y-75465250D02*
X122289524Y-75465250D01*
X122289524Y-75465250D02*
X122241143Y-75489440D01*
X122241143Y-75489440D02*
X122216952Y-75513631D01*
X122216952Y-75513631D02*
X122192762Y-75562012D01*
X122192762Y-75562012D02*
X122192762Y-75682964D01*
X122192762Y-75682964D02*
X122216952Y-75731345D01*
X122216952Y-75731345D02*
X122241143Y-75755536D01*
X122241143Y-75755536D02*
X122289524Y-75779726D01*
X122289524Y-75779726D02*
X122434667Y-75779726D01*
X122434667Y-75779726D02*
X122483048Y-75755536D01*
X122483048Y-75755536D02*
X122507238Y-75731345D01*
X121708952Y-75779726D02*
X121999238Y-75779726D01*
X121854095Y-75779726D02*
X121854095Y-75271726D01*
X121854095Y-75271726D02*
X121902476Y-75344297D01*
X121902476Y-75344297D02*
X121950857Y-75392678D01*
X121950857Y-75392678D02*
X121999238Y-75416869D01*
D10*
X132519559Y-70127585D02*
X132217178Y-69915918D01*
X132519559Y-69764728D02*
X131884559Y-69764728D01*
X131884559Y-69764728D02*
X131884559Y-70006633D01*
X131884559Y-70006633D02*
X131914797Y-70067109D01*
X131914797Y-70067109D02*
X131945035Y-70097347D01*
X131945035Y-70097347D02*
X132005511Y-70127585D01*
X132005511Y-70127585D02*
X132096225Y-70127585D01*
X132096225Y-70127585D02*
X132156701Y-70097347D01*
X132156701Y-70097347D02*
X132186940Y-70067109D01*
X132186940Y-70067109D02*
X132217178Y-70006633D01*
X132217178Y-70006633D02*
X132217178Y-69764728D01*
X131884559Y-70339252D02*
X131884559Y-70732347D01*
X131884559Y-70732347D02*
X132126463Y-70520680D01*
X132126463Y-70520680D02*
X132126463Y-70611395D01*
X132126463Y-70611395D02*
X132156701Y-70671871D01*
X132156701Y-70671871D02*
X132186940Y-70702109D01*
X132186940Y-70702109D02*
X132247416Y-70732347D01*
X132247416Y-70732347D02*
X132398606Y-70732347D01*
X132398606Y-70732347D02*
X132459082Y-70702109D01*
X132459082Y-70702109D02*
X132489321Y-70671871D01*
X132489321Y-70671871D02*
X132519559Y-70611395D01*
X132519559Y-70611395D02*
X132519559Y-70429966D01*
X132519559Y-70429966D02*
X132489321Y-70369490D01*
X132489321Y-70369490D02*
X132459082Y-70339252D01*
X131884559Y-71276633D02*
X131884559Y-71155680D01*
X131884559Y-71155680D02*
X131914797Y-71095204D01*
X131914797Y-71095204D02*
X131945035Y-71064966D01*
X131945035Y-71064966D02*
X132035749Y-71004490D01*
X132035749Y-71004490D02*
X132156701Y-70974252D01*
X132156701Y-70974252D02*
X132398606Y-70974252D01*
X132398606Y-70974252D02*
X132459082Y-71004490D01*
X132459082Y-71004490D02*
X132489321Y-71034728D01*
X132489321Y-71034728D02*
X132519559Y-71095204D01*
X132519559Y-71095204D02*
X132519559Y-71216157D01*
X132519559Y-71216157D02*
X132489321Y-71276633D01*
X132489321Y-71276633D02*
X132459082Y-71306871D01*
X132459082Y-71306871D02*
X132398606Y-71337109D01*
X132398606Y-71337109D02*
X132247416Y-71337109D01*
X132247416Y-71337109D02*
X132186940Y-71306871D01*
X132186940Y-71306871D02*
X132156701Y-71276633D01*
X132156701Y-71276633D02*
X132126463Y-71216157D01*
X132126463Y-71216157D02*
X132126463Y-71095204D01*
X132126463Y-71095204D02*
X132156701Y-71034728D01*
X132156701Y-71034728D02*
X132186940Y-71004490D01*
X132186940Y-71004490D02*
X132247416Y-70974252D01*
D12*
X117076571Y-83431345D02*
X117100762Y-83455536D01*
X117100762Y-83455536D02*
X117173333Y-83479726D01*
X117173333Y-83479726D02*
X117221714Y-83479726D01*
X117221714Y-83479726D02*
X117294286Y-83455536D01*
X117294286Y-83455536D02*
X117342667Y-83407155D01*
X117342667Y-83407155D02*
X117366857Y-83358774D01*
X117366857Y-83358774D02*
X117391048Y-83262012D01*
X117391048Y-83262012D02*
X117391048Y-83189440D01*
X117391048Y-83189440D02*
X117366857Y-83092678D01*
X117366857Y-83092678D02*
X117342667Y-83044297D01*
X117342667Y-83044297D02*
X117294286Y-82995916D01*
X117294286Y-82995916D02*
X117221714Y-82971726D01*
X117221714Y-82971726D02*
X117173333Y-82971726D01*
X117173333Y-82971726D02*
X117100762Y-82995916D01*
X117100762Y-82995916D02*
X117076571Y-83020107D01*
X116907238Y-82971726D02*
X116592762Y-82971726D01*
X116592762Y-82971726D02*
X116762095Y-83165250D01*
X116762095Y-83165250D02*
X116689524Y-83165250D01*
X116689524Y-83165250D02*
X116641143Y-83189440D01*
X116641143Y-83189440D02*
X116616952Y-83213631D01*
X116616952Y-83213631D02*
X116592762Y-83262012D01*
X116592762Y-83262012D02*
X116592762Y-83382964D01*
X116592762Y-83382964D02*
X116616952Y-83431345D01*
X116616952Y-83431345D02*
X116641143Y-83455536D01*
X116641143Y-83455536D02*
X116689524Y-83479726D01*
X116689524Y-83479726D02*
X116834667Y-83479726D01*
X116834667Y-83479726D02*
X116883048Y-83455536D01*
X116883048Y-83455536D02*
X116907238Y-83431345D01*
X116157333Y-83141059D02*
X116157333Y-83479726D01*
X116278285Y-82947536D02*
X116399238Y-83310393D01*
X116399238Y-83310393D02*
X116084761Y-83310393D01*
D11*
X144275486Y-80091785D02*
X144305725Y-80061547D01*
X144305725Y-80061547D02*
X144335963Y-79970833D01*
X144335963Y-79970833D02*
X144335963Y-79910357D01*
X144335963Y-79910357D02*
X144305725Y-79819642D01*
X144305725Y-79819642D02*
X144245248Y-79759166D01*
X144245248Y-79759166D02*
X144184772Y-79728928D01*
X144184772Y-79728928D02*
X144063820Y-79698690D01*
X144063820Y-79698690D02*
X143973105Y-79698690D01*
X143973105Y-79698690D02*
X143852153Y-79728928D01*
X143852153Y-79728928D02*
X143791677Y-79759166D01*
X143791677Y-79759166D02*
X143731201Y-79819642D01*
X143731201Y-79819642D02*
X143700963Y-79910357D01*
X143700963Y-79910357D02*
X143700963Y-79970833D01*
X143700963Y-79970833D02*
X143731201Y-80061547D01*
X143731201Y-80061547D02*
X143761439Y-80091785D01*
X143700963Y-80303452D02*
X143700963Y-80696547D01*
X143700963Y-80696547D02*
X143942867Y-80484880D01*
X143942867Y-80484880D02*
X143942867Y-80575595D01*
X143942867Y-80575595D02*
X143973105Y-80636071D01*
X143973105Y-80636071D02*
X144003344Y-80666309D01*
X144003344Y-80666309D02*
X144063820Y-80696547D01*
X144063820Y-80696547D02*
X144215010Y-80696547D01*
X144215010Y-80696547D02*
X144275486Y-80666309D01*
X144275486Y-80666309D02*
X144305725Y-80636071D01*
X144305725Y-80636071D02*
X144335963Y-80575595D01*
X144335963Y-80575595D02*
X144335963Y-80394166D01*
X144335963Y-80394166D02*
X144305725Y-80333690D01*
X144305725Y-80333690D02*
X144275486Y-80303452D01*
X143700963Y-81089642D02*
X143700963Y-81150119D01*
X143700963Y-81150119D02*
X143731201Y-81210595D01*
X143731201Y-81210595D02*
X143761439Y-81240833D01*
X143761439Y-81240833D02*
X143821915Y-81271071D01*
X143821915Y-81271071D02*
X143942867Y-81301309D01*
X143942867Y-81301309D02*
X144094058Y-81301309D01*
X144094058Y-81301309D02*
X144215010Y-81271071D01*
X144215010Y-81271071D02*
X144275486Y-81240833D01*
X144275486Y-81240833D02*
X144305725Y-81210595D01*
X144305725Y-81210595D02*
X144335963Y-81150119D01*
X144335963Y-81150119D02*
X144335963Y-81089642D01*
X144335963Y-81089642D02*
X144305725Y-81029166D01*
X144305725Y-81029166D02*
X144275486Y-80998928D01*
X144275486Y-80998928D02*
X144215010Y-80968690D01*
X144215010Y-80968690D02*
X144094058Y-80938452D01*
X144094058Y-80938452D02*
X143942867Y-80938452D01*
X143942867Y-80938452D02*
X143821915Y-80968690D01*
X143821915Y-80968690D02*
X143761439Y-80998928D01*
X143761439Y-80998928D02*
X143731201Y-81029166D01*
X143731201Y-81029166D02*
X143700963Y-81089642D01*
D10*
X130843159Y-70152985D02*
X130540778Y-69941318D01*
X130843159Y-69790128D02*
X130208159Y-69790128D01*
X130208159Y-69790128D02*
X130208159Y-70032033D01*
X130208159Y-70032033D02*
X130238397Y-70092509D01*
X130238397Y-70092509D02*
X130268635Y-70122747D01*
X130268635Y-70122747D02*
X130329111Y-70152985D01*
X130329111Y-70152985D02*
X130419825Y-70152985D01*
X130419825Y-70152985D02*
X130480301Y-70122747D01*
X130480301Y-70122747D02*
X130510540Y-70092509D01*
X130510540Y-70092509D02*
X130540778Y-70032033D01*
X130540778Y-70032033D02*
X130540778Y-69790128D01*
X130208159Y-70364652D02*
X130208159Y-70757747D01*
X130208159Y-70757747D02*
X130450063Y-70546080D01*
X130450063Y-70546080D02*
X130450063Y-70636795D01*
X130450063Y-70636795D02*
X130480301Y-70697271D01*
X130480301Y-70697271D02*
X130510540Y-70727509D01*
X130510540Y-70727509D02*
X130571016Y-70757747D01*
X130571016Y-70757747D02*
X130722206Y-70757747D01*
X130722206Y-70757747D02*
X130782682Y-70727509D01*
X130782682Y-70727509D02*
X130812921Y-70697271D01*
X130812921Y-70697271D02*
X130843159Y-70636795D01*
X130843159Y-70636795D02*
X130843159Y-70455366D01*
X130843159Y-70455366D02*
X130812921Y-70394890D01*
X130812921Y-70394890D02*
X130782682Y-70364652D01*
X130843159Y-71060128D02*
X130843159Y-71181080D01*
X130843159Y-71181080D02*
X130812921Y-71241557D01*
X130812921Y-71241557D02*
X130782682Y-71271795D01*
X130782682Y-71271795D02*
X130691968Y-71332271D01*
X130691968Y-71332271D02*
X130571016Y-71362509D01*
X130571016Y-71362509D02*
X130329111Y-71362509D01*
X130329111Y-71362509D02*
X130268635Y-71332271D01*
X130268635Y-71332271D02*
X130238397Y-71302033D01*
X130238397Y-71302033D02*
X130208159Y-71241557D01*
X130208159Y-71241557D02*
X130208159Y-71120604D01*
X130208159Y-71120604D02*
X130238397Y-71060128D01*
X130238397Y-71060128D02*
X130268635Y-71029890D01*
X130268635Y-71029890D02*
X130329111Y-70999652D01*
X130329111Y-70999652D02*
X130480301Y-70999652D01*
X130480301Y-70999652D02*
X130540778Y-71029890D01*
X130540778Y-71029890D02*
X130571016Y-71060128D01*
X130571016Y-71060128D02*
X130601254Y-71120604D01*
X130601254Y-71120604D02*
X130601254Y-71241557D01*
X130601254Y-71241557D02*
X130571016Y-71302033D01*
X130571016Y-71302033D02*
X130540778Y-71332271D01*
X130540778Y-71332271D02*
X130480301Y-71362509D01*
D11*
X97895833Y-80995986D02*
X97926071Y-81026225D01*
X97926071Y-81026225D02*
X98016785Y-81056463D01*
X98016785Y-81056463D02*
X98077261Y-81056463D01*
X98077261Y-81056463D02*
X98167976Y-81026225D01*
X98167976Y-81026225D02*
X98228452Y-80965748D01*
X98228452Y-80965748D02*
X98258690Y-80905272D01*
X98258690Y-80905272D02*
X98288928Y-80784320D01*
X98288928Y-80784320D02*
X98288928Y-80693605D01*
X98288928Y-80693605D02*
X98258690Y-80572653D01*
X98258690Y-80572653D02*
X98228452Y-80512177D01*
X98228452Y-80512177D02*
X98167976Y-80451701D01*
X98167976Y-80451701D02*
X98077261Y-80421463D01*
X98077261Y-80421463D02*
X98016785Y-80421463D01*
X98016785Y-80421463D02*
X97926071Y-80451701D01*
X97926071Y-80451701D02*
X97895833Y-80481939D01*
X97351547Y-80421463D02*
X97472500Y-80421463D01*
X97472500Y-80421463D02*
X97532976Y-80451701D01*
X97532976Y-80451701D02*
X97563214Y-80481939D01*
X97563214Y-80481939D02*
X97623690Y-80572653D01*
X97623690Y-80572653D02*
X97653928Y-80693605D01*
X97653928Y-80693605D02*
X97653928Y-80935510D01*
X97653928Y-80935510D02*
X97623690Y-80995986D01*
X97623690Y-80995986D02*
X97593452Y-81026225D01*
X97593452Y-81026225D02*
X97532976Y-81056463D01*
X97532976Y-81056463D02*
X97412023Y-81056463D01*
X97412023Y-81056463D02*
X97351547Y-81026225D01*
X97351547Y-81026225D02*
X97321309Y-80995986D01*
X97321309Y-80995986D02*
X97291071Y-80935510D01*
X97291071Y-80935510D02*
X97291071Y-80784320D01*
X97291071Y-80784320D02*
X97321309Y-80723844D01*
X97321309Y-80723844D02*
X97351547Y-80693605D01*
X97351547Y-80693605D02*
X97412023Y-80663367D01*
X97412023Y-80663367D02*
X97532976Y-80663367D01*
X97532976Y-80663367D02*
X97593452Y-80693605D01*
X97593452Y-80693605D02*
X97623690Y-80723844D01*
X97623690Y-80723844D02*
X97653928Y-80784320D01*
D10*
X134145159Y-64652585D02*
X133842778Y-64440918D01*
X134145159Y-64289728D02*
X133510159Y-64289728D01*
X133510159Y-64289728D02*
X133510159Y-64531633D01*
X133510159Y-64531633D02*
X133540397Y-64592109D01*
X133540397Y-64592109D02*
X133570635Y-64622347D01*
X133570635Y-64622347D02*
X133631111Y-64652585D01*
X133631111Y-64652585D02*
X133721825Y-64652585D01*
X133721825Y-64652585D02*
X133782301Y-64622347D01*
X133782301Y-64622347D02*
X133812540Y-64592109D01*
X133812540Y-64592109D02*
X133842778Y-64531633D01*
X133842778Y-64531633D02*
X133842778Y-64289728D01*
X133570635Y-64894490D02*
X133540397Y-64924728D01*
X133540397Y-64924728D02*
X133510159Y-64985204D01*
X133510159Y-64985204D02*
X133510159Y-65136395D01*
X133510159Y-65136395D02*
X133540397Y-65196871D01*
X133540397Y-65196871D02*
X133570635Y-65227109D01*
X133570635Y-65227109D02*
X133631111Y-65257347D01*
X133631111Y-65257347D02*
X133691587Y-65257347D01*
X133691587Y-65257347D02*
X133782301Y-65227109D01*
X133782301Y-65227109D02*
X134145159Y-64864252D01*
X134145159Y-64864252D02*
X134145159Y-65257347D01*
X134145159Y-65559728D02*
X134145159Y-65680680D01*
X134145159Y-65680680D02*
X134114921Y-65741157D01*
X134114921Y-65741157D02*
X134084682Y-65771395D01*
X134084682Y-65771395D02*
X133993968Y-65831871D01*
X133993968Y-65831871D02*
X133873016Y-65862109D01*
X133873016Y-65862109D02*
X133631111Y-65862109D01*
X133631111Y-65862109D02*
X133570635Y-65831871D01*
X133570635Y-65831871D02*
X133540397Y-65801633D01*
X133540397Y-65801633D02*
X133510159Y-65741157D01*
X133510159Y-65741157D02*
X133510159Y-65620204D01*
X133510159Y-65620204D02*
X133540397Y-65559728D01*
X133540397Y-65559728D02*
X133570635Y-65529490D01*
X133570635Y-65529490D02*
X133631111Y-65499252D01*
X133631111Y-65499252D02*
X133782301Y-65499252D01*
X133782301Y-65499252D02*
X133842778Y-65529490D01*
X133842778Y-65529490D02*
X133873016Y-65559728D01*
X133873016Y-65559728D02*
X133903254Y-65620204D01*
X133903254Y-65620204D02*
X133903254Y-65741157D01*
X133903254Y-65741157D02*
X133873016Y-65801633D01*
X133873016Y-65801633D02*
X133842778Y-65831871D01*
X133842778Y-65831871D02*
X133782301Y-65862109D01*
D11*
X98680402Y-92238686D02*
X98710640Y-92268925D01*
X98710640Y-92268925D02*
X98801354Y-92299163D01*
X98801354Y-92299163D02*
X98861830Y-92299163D01*
X98861830Y-92299163D02*
X98952545Y-92268925D01*
X98952545Y-92268925D02*
X99013021Y-92208448D01*
X99013021Y-92208448D02*
X99043259Y-92147972D01*
X99043259Y-92147972D02*
X99073497Y-92027020D01*
X99073497Y-92027020D02*
X99073497Y-91936305D01*
X99073497Y-91936305D02*
X99043259Y-91815353D01*
X99043259Y-91815353D02*
X99013021Y-91754877D01*
X99013021Y-91754877D02*
X98952545Y-91694401D01*
X98952545Y-91694401D02*
X98861830Y-91664163D01*
X98861830Y-91664163D02*
X98801354Y-91664163D01*
X98801354Y-91664163D02*
X98710640Y-91694401D01*
X98710640Y-91694401D02*
X98680402Y-91724639D01*
X98075640Y-92299163D02*
X98438497Y-92299163D01*
X98257069Y-92299163D02*
X98257069Y-91664163D01*
X98257069Y-91664163D02*
X98317545Y-91754877D01*
X98317545Y-91754877D02*
X98378021Y-91815353D01*
X98378021Y-91815353D02*
X98438497Y-91845591D01*
X97712783Y-91936305D02*
X97773259Y-91906067D01*
X97773259Y-91906067D02*
X97803497Y-91875829D01*
X97803497Y-91875829D02*
X97833735Y-91815353D01*
X97833735Y-91815353D02*
X97833735Y-91785115D01*
X97833735Y-91785115D02*
X97803497Y-91724639D01*
X97803497Y-91724639D02*
X97773259Y-91694401D01*
X97773259Y-91694401D02*
X97712783Y-91664163D01*
X97712783Y-91664163D02*
X97591830Y-91664163D01*
X97591830Y-91664163D02*
X97531354Y-91694401D01*
X97531354Y-91694401D02*
X97501116Y-91724639D01*
X97501116Y-91724639D02*
X97470878Y-91785115D01*
X97470878Y-91785115D02*
X97470878Y-91815353D01*
X97470878Y-91815353D02*
X97501116Y-91875829D01*
X97501116Y-91875829D02*
X97531354Y-91906067D01*
X97531354Y-91906067D02*
X97591830Y-91936305D01*
X97591830Y-91936305D02*
X97712783Y-91936305D01*
X97712783Y-91936305D02*
X97773259Y-91966544D01*
X97773259Y-91966544D02*
X97803497Y-91996782D01*
X97803497Y-91996782D02*
X97833735Y-92057258D01*
X97833735Y-92057258D02*
X97833735Y-92178210D01*
X97833735Y-92178210D02*
X97803497Y-92238686D01*
X97803497Y-92238686D02*
X97773259Y-92268925D01*
X97773259Y-92268925D02*
X97712783Y-92299163D01*
X97712783Y-92299163D02*
X97591830Y-92299163D01*
X97591830Y-92299163D02*
X97531354Y-92268925D01*
X97531354Y-92268925D02*
X97501116Y-92238686D01*
X97501116Y-92238686D02*
X97470878Y-92178210D01*
X97470878Y-92178210D02*
X97470878Y-92057258D01*
X97470878Y-92057258D02*
X97501116Y-91996782D01*
X97501116Y-91996782D02*
X97531354Y-91966544D01*
X97531354Y-91966544D02*
X97591830Y-91936305D01*
D10*
X129192159Y-70178385D02*
X128889778Y-69966718D01*
X129192159Y-69815528D02*
X128557159Y-69815528D01*
X128557159Y-69815528D02*
X128557159Y-70057433D01*
X128557159Y-70057433D02*
X128587397Y-70117909D01*
X128587397Y-70117909D02*
X128617635Y-70148147D01*
X128617635Y-70148147D02*
X128678111Y-70178385D01*
X128678111Y-70178385D02*
X128768825Y-70178385D01*
X128768825Y-70178385D02*
X128829301Y-70148147D01*
X128829301Y-70148147D02*
X128859540Y-70117909D01*
X128859540Y-70117909D02*
X128889778Y-70057433D01*
X128889778Y-70057433D02*
X128889778Y-69815528D01*
X128557159Y-70390052D02*
X128557159Y-70783147D01*
X128557159Y-70783147D02*
X128799063Y-70571480D01*
X128799063Y-70571480D02*
X128799063Y-70662195D01*
X128799063Y-70662195D02*
X128829301Y-70722671D01*
X128829301Y-70722671D02*
X128859540Y-70752909D01*
X128859540Y-70752909D02*
X128920016Y-70783147D01*
X128920016Y-70783147D02*
X129071206Y-70783147D01*
X129071206Y-70783147D02*
X129131682Y-70752909D01*
X129131682Y-70752909D02*
X129161921Y-70722671D01*
X129161921Y-70722671D02*
X129192159Y-70662195D01*
X129192159Y-70662195D02*
X129192159Y-70480766D01*
X129192159Y-70480766D02*
X129161921Y-70420290D01*
X129161921Y-70420290D02*
X129131682Y-70390052D01*
X128829301Y-71146004D02*
X128799063Y-71085528D01*
X128799063Y-71085528D02*
X128768825Y-71055290D01*
X128768825Y-71055290D02*
X128708349Y-71025052D01*
X128708349Y-71025052D02*
X128678111Y-71025052D01*
X128678111Y-71025052D02*
X128617635Y-71055290D01*
X128617635Y-71055290D02*
X128587397Y-71085528D01*
X128587397Y-71085528D02*
X128557159Y-71146004D01*
X128557159Y-71146004D02*
X128557159Y-71266957D01*
X128557159Y-71266957D02*
X128587397Y-71327433D01*
X128587397Y-71327433D02*
X128617635Y-71357671D01*
X128617635Y-71357671D02*
X128678111Y-71387909D01*
X128678111Y-71387909D02*
X128708349Y-71387909D01*
X128708349Y-71387909D02*
X128768825Y-71357671D01*
X128768825Y-71357671D02*
X128799063Y-71327433D01*
X128799063Y-71327433D02*
X128829301Y-71266957D01*
X128829301Y-71266957D02*
X128829301Y-71146004D01*
X128829301Y-71146004D02*
X128859540Y-71085528D01*
X128859540Y-71085528D02*
X128889778Y-71055290D01*
X128889778Y-71055290D02*
X128950254Y-71025052D01*
X128950254Y-71025052D02*
X129071206Y-71025052D01*
X129071206Y-71025052D02*
X129131682Y-71055290D01*
X129131682Y-71055290D02*
X129161921Y-71085528D01*
X129161921Y-71085528D02*
X129192159Y-71146004D01*
X129192159Y-71146004D02*
X129192159Y-71266957D01*
X129192159Y-71266957D02*
X129161921Y-71327433D01*
X129161921Y-71327433D02*
X129131682Y-71357671D01*
X129131682Y-71357671D02*
X129071206Y-71387909D01*
X129071206Y-71387909D02*
X128950254Y-71387909D01*
X128950254Y-71387909D02*
X128889778Y-71357671D01*
X128889778Y-71357671D02*
X128859540Y-71327433D01*
X128859540Y-71327433D02*
X128829301Y-71266957D01*
X121973317Y-71058214D02*
X121943079Y-71088452D01*
X121943079Y-71088452D02*
X121912840Y-71179166D01*
X121912840Y-71179166D02*
X121912840Y-71239642D01*
X121912840Y-71239642D02*
X121943079Y-71330357D01*
X121943079Y-71330357D02*
X122003555Y-71390833D01*
X122003555Y-71390833D02*
X122064031Y-71421071D01*
X122064031Y-71421071D02*
X122184983Y-71451309D01*
X122184983Y-71451309D02*
X122275698Y-71451309D01*
X122275698Y-71451309D02*
X122396650Y-71421071D01*
X122396650Y-71421071D02*
X122457126Y-71390833D01*
X122457126Y-71390833D02*
X122517602Y-71330357D01*
X122517602Y-71330357D02*
X122547840Y-71239642D01*
X122547840Y-71239642D02*
X122547840Y-71179166D01*
X122547840Y-71179166D02*
X122517602Y-71088452D01*
X122517602Y-71088452D02*
X122487364Y-71058214D01*
X122336174Y-70513928D02*
X121912840Y-70513928D01*
X122578079Y-70665119D02*
X122124507Y-70816309D01*
X122124507Y-70816309D02*
X122124507Y-70423214D01*
X121912840Y-69848690D02*
X121912840Y-70211547D01*
X121912840Y-70030119D02*
X122547840Y-70030119D01*
X122547840Y-70030119D02*
X122457126Y-70090595D01*
X122457126Y-70090595D02*
X122396650Y-70151071D01*
X122396650Y-70151071D02*
X122366412Y-70211547D01*
D11*
X104074317Y-80158166D02*
X103771936Y-79946499D01*
X104074317Y-79795309D02*
X103439317Y-79795309D01*
X103439317Y-79795309D02*
X103439317Y-80037214D01*
X103439317Y-80037214D02*
X103469555Y-80097690D01*
X103469555Y-80097690D02*
X103499793Y-80127928D01*
X103499793Y-80127928D02*
X103560269Y-80158166D01*
X103560269Y-80158166D02*
X103650983Y-80158166D01*
X103650983Y-80158166D02*
X103711459Y-80127928D01*
X103711459Y-80127928D02*
X103741698Y-80097690D01*
X103741698Y-80097690D02*
X103771936Y-80037214D01*
X103771936Y-80037214D02*
X103771936Y-79795309D01*
X103439317Y-80702452D02*
X103439317Y-80581499D01*
X103439317Y-80581499D02*
X103469555Y-80521023D01*
X103469555Y-80521023D02*
X103499793Y-80490785D01*
X103499793Y-80490785D02*
X103590507Y-80430309D01*
X103590507Y-80430309D02*
X103711459Y-80400071D01*
X103711459Y-80400071D02*
X103953364Y-80400071D01*
X103953364Y-80400071D02*
X104013840Y-80430309D01*
X104013840Y-80430309D02*
X104044079Y-80460547D01*
X104044079Y-80460547D02*
X104074317Y-80521023D01*
X104074317Y-80521023D02*
X104074317Y-80641976D01*
X104074317Y-80641976D02*
X104044079Y-80702452D01*
X104044079Y-80702452D02*
X104013840Y-80732690D01*
X104013840Y-80732690D02*
X103953364Y-80762928D01*
X103953364Y-80762928D02*
X103802174Y-80762928D01*
X103802174Y-80762928D02*
X103741698Y-80732690D01*
X103741698Y-80732690D02*
X103711459Y-80702452D01*
X103711459Y-80702452D02*
X103681221Y-80641976D01*
X103681221Y-80641976D02*
X103681221Y-80521023D01*
X103681221Y-80521023D02*
X103711459Y-80460547D01*
X103711459Y-80460547D02*
X103741698Y-80430309D01*
X103741698Y-80430309D02*
X103802174Y-80400071D01*
D10*
X126423559Y-92733585D02*
X126121178Y-92521918D01*
X126423559Y-92370728D02*
X125788559Y-92370728D01*
X125788559Y-92370728D02*
X125788559Y-92612633D01*
X125788559Y-92612633D02*
X125818797Y-92673109D01*
X125818797Y-92673109D02*
X125849035Y-92703347D01*
X125849035Y-92703347D02*
X125909511Y-92733585D01*
X125909511Y-92733585D02*
X126000225Y-92733585D01*
X126000225Y-92733585D02*
X126060701Y-92703347D01*
X126060701Y-92703347D02*
X126090940Y-92673109D01*
X126090940Y-92673109D02*
X126121178Y-92612633D01*
X126121178Y-92612633D02*
X126121178Y-92370728D01*
X125788559Y-92945252D02*
X125788559Y-93338347D01*
X125788559Y-93338347D02*
X126030463Y-93126680D01*
X126030463Y-93126680D02*
X126030463Y-93217395D01*
X126030463Y-93217395D02*
X126060701Y-93277871D01*
X126060701Y-93277871D02*
X126090940Y-93308109D01*
X126090940Y-93308109D02*
X126151416Y-93338347D01*
X126151416Y-93338347D02*
X126302606Y-93338347D01*
X126302606Y-93338347D02*
X126363082Y-93308109D01*
X126363082Y-93308109D02*
X126393321Y-93277871D01*
X126393321Y-93277871D02*
X126423559Y-93217395D01*
X126423559Y-93217395D02*
X126423559Y-93035966D01*
X126423559Y-93035966D02*
X126393321Y-92975490D01*
X126393321Y-92975490D02*
X126363082Y-92945252D01*
X126000225Y-93882633D02*
X126423559Y-93882633D01*
X125758321Y-93731442D02*
X126211892Y-93580252D01*
X126211892Y-93580252D02*
X126211892Y-93973347D01*
D11*
X98633087Y-88804331D02*
X98663325Y-88834570D01*
X98663325Y-88834570D02*
X98754039Y-88864808D01*
X98754039Y-88864808D02*
X98814515Y-88864808D01*
X98814515Y-88864808D02*
X98905230Y-88834570D01*
X98905230Y-88834570D02*
X98965706Y-88774093D01*
X98965706Y-88774093D02*
X98995944Y-88713617D01*
X98995944Y-88713617D02*
X99026182Y-88592665D01*
X99026182Y-88592665D02*
X99026182Y-88501950D01*
X99026182Y-88501950D02*
X98995944Y-88380998D01*
X98995944Y-88380998D02*
X98965706Y-88320522D01*
X98965706Y-88320522D02*
X98905230Y-88260046D01*
X98905230Y-88260046D02*
X98814515Y-88229808D01*
X98814515Y-88229808D02*
X98754039Y-88229808D01*
X98754039Y-88229808D02*
X98663325Y-88260046D01*
X98663325Y-88260046D02*
X98633087Y-88290284D01*
X98028325Y-88864808D02*
X98391182Y-88864808D01*
X98209754Y-88864808D02*
X98209754Y-88229808D01*
X98209754Y-88229808D02*
X98270230Y-88320522D01*
X98270230Y-88320522D02*
X98330706Y-88380998D01*
X98330706Y-88380998D02*
X98391182Y-88411236D01*
X97725944Y-88864808D02*
X97604992Y-88864808D01*
X97604992Y-88864808D02*
X97544515Y-88834570D01*
X97544515Y-88834570D02*
X97514277Y-88804331D01*
X97514277Y-88804331D02*
X97453801Y-88713617D01*
X97453801Y-88713617D02*
X97423563Y-88592665D01*
X97423563Y-88592665D02*
X97423563Y-88350760D01*
X97423563Y-88350760D02*
X97453801Y-88290284D01*
X97453801Y-88290284D02*
X97484039Y-88260046D01*
X97484039Y-88260046D02*
X97544515Y-88229808D01*
X97544515Y-88229808D02*
X97665468Y-88229808D01*
X97665468Y-88229808D02*
X97725944Y-88260046D01*
X97725944Y-88260046D02*
X97756182Y-88290284D01*
X97756182Y-88290284D02*
X97786420Y-88350760D01*
X97786420Y-88350760D02*
X97786420Y-88501950D01*
X97786420Y-88501950D02*
X97756182Y-88562427D01*
X97756182Y-88562427D02*
X97725944Y-88592665D01*
X97725944Y-88592665D02*
X97665468Y-88622903D01*
X97665468Y-88622903D02*
X97544515Y-88622903D01*
X97544515Y-88622903D02*
X97484039Y-88592665D01*
X97484039Y-88592665D02*
X97453801Y-88562427D01*
X97453801Y-88562427D02*
X97423563Y-88501950D01*
D10*
X128518859Y-64691985D02*
X128216478Y-64480318D01*
X128518859Y-64329128D02*
X127883859Y-64329128D01*
X127883859Y-64329128D02*
X127883859Y-64571033D01*
X127883859Y-64571033D02*
X127914097Y-64631509D01*
X127914097Y-64631509D02*
X127944335Y-64661747D01*
X127944335Y-64661747D02*
X128004811Y-64691985D01*
X128004811Y-64691985D02*
X128095525Y-64691985D01*
X128095525Y-64691985D02*
X128156001Y-64661747D01*
X128156001Y-64661747D02*
X128186240Y-64631509D01*
X128186240Y-64631509D02*
X128216478Y-64571033D01*
X128216478Y-64571033D02*
X128216478Y-64329128D01*
X127883859Y-64903652D02*
X127883859Y-65296747D01*
X127883859Y-65296747D02*
X128125763Y-65085080D01*
X128125763Y-65085080D02*
X128125763Y-65175795D01*
X128125763Y-65175795D02*
X128156001Y-65236271D01*
X128156001Y-65236271D02*
X128186240Y-65266509D01*
X128186240Y-65266509D02*
X128246716Y-65296747D01*
X128246716Y-65296747D02*
X128397906Y-65296747D01*
X128397906Y-65296747D02*
X128458382Y-65266509D01*
X128458382Y-65266509D02*
X128488621Y-65236271D01*
X128488621Y-65236271D02*
X128518859Y-65175795D01*
X128518859Y-65175795D02*
X128518859Y-64994366D01*
X128518859Y-64994366D02*
X128488621Y-64933890D01*
X128488621Y-64933890D02*
X128458382Y-64903652D01*
X127883859Y-65871271D02*
X127883859Y-65568890D01*
X127883859Y-65568890D02*
X128186240Y-65538652D01*
X128186240Y-65538652D02*
X128156001Y-65568890D01*
X128156001Y-65568890D02*
X128125763Y-65629366D01*
X128125763Y-65629366D02*
X128125763Y-65780557D01*
X128125763Y-65780557D02*
X128156001Y-65841033D01*
X128156001Y-65841033D02*
X128186240Y-65871271D01*
X128186240Y-65871271D02*
X128246716Y-65901509D01*
X128246716Y-65901509D02*
X128397906Y-65901509D01*
X128397906Y-65901509D02*
X128458382Y-65871271D01*
X128458382Y-65871271D02*
X128488621Y-65841033D01*
X128488621Y-65841033D02*
X128518859Y-65780557D01*
X128518859Y-65780557D02*
X128518859Y-65629366D01*
X128518859Y-65629366D02*
X128488621Y-65568890D01*
X128488621Y-65568890D02*
X128458382Y-65538652D01*
D11*
X144294286Y-69543385D02*
X144324525Y-69513147D01*
X144324525Y-69513147D02*
X144354763Y-69422433D01*
X144354763Y-69422433D02*
X144354763Y-69361957D01*
X144354763Y-69361957D02*
X144324525Y-69271242D01*
X144324525Y-69271242D02*
X144264048Y-69210766D01*
X144264048Y-69210766D02*
X144203572Y-69180528D01*
X144203572Y-69180528D02*
X144082620Y-69150290D01*
X144082620Y-69150290D02*
X143991905Y-69150290D01*
X143991905Y-69150290D02*
X143870953Y-69180528D01*
X143870953Y-69180528D02*
X143810477Y-69210766D01*
X143810477Y-69210766D02*
X143750001Y-69271242D01*
X143750001Y-69271242D02*
X143719763Y-69361957D01*
X143719763Y-69361957D02*
X143719763Y-69422433D01*
X143719763Y-69422433D02*
X143750001Y-69513147D01*
X143750001Y-69513147D02*
X143780239Y-69543385D01*
X144354763Y-70148147D02*
X144354763Y-69785290D01*
X144354763Y-69966718D02*
X143719763Y-69966718D01*
X143719763Y-69966718D02*
X143810477Y-69906242D01*
X143810477Y-69906242D02*
X143870953Y-69845766D01*
X143870953Y-69845766D02*
X143901191Y-69785290D01*
X143719763Y-70722671D02*
X143719763Y-70420290D01*
X143719763Y-70420290D02*
X144022144Y-70390052D01*
X144022144Y-70390052D02*
X143991905Y-70420290D01*
X143991905Y-70420290D02*
X143961667Y-70480766D01*
X143961667Y-70480766D02*
X143961667Y-70631957D01*
X143961667Y-70631957D02*
X143991905Y-70692433D01*
X143991905Y-70692433D02*
X144022144Y-70722671D01*
X144022144Y-70722671D02*
X144082620Y-70752909D01*
X144082620Y-70752909D02*
X144233810Y-70752909D01*
X144233810Y-70752909D02*
X144294286Y-70722671D01*
X144294286Y-70722671D02*
X144324525Y-70692433D01*
X144324525Y-70692433D02*
X144354763Y-70631957D01*
X144354763Y-70631957D02*
X144354763Y-70480766D01*
X144354763Y-70480766D02*
X144324525Y-70420290D01*
X144324525Y-70420290D02*
X144294286Y-70390052D01*
D10*
X133840359Y-86764585D02*
X133537978Y-86552918D01*
X133840359Y-86401728D02*
X133205359Y-86401728D01*
X133205359Y-86401728D02*
X133205359Y-86643633D01*
X133205359Y-86643633D02*
X133235597Y-86704109D01*
X133235597Y-86704109D02*
X133265835Y-86734347D01*
X133265835Y-86734347D02*
X133326311Y-86764585D01*
X133326311Y-86764585D02*
X133417025Y-86764585D01*
X133417025Y-86764585D02*
X133477501Y-86734347D01*
X133477501Y-86734347D02*
X133507740Y-86704109D01*
X133507740Y-86704109D02*
X133537978Y-86643633D01*
X133537978Y-86643633D02*
X133537978Y-86401728D01*
X133265835Y-87006490D02*
X133235597Y-87036728D01*
X133235597Y-87036728D02*
X133205359Y-87097204D01*
X133205359Y-87097204D02*
X133205359Y-87248395D01*
X133205359Y-87248395D02*
X133235597Y-87308871D01*
X133235597Y-87308871D02*
X133265835Y-87339109D01*
X133265835Y-87339109D02*
X133326311Y-87369347D01*
X133326311Y-87369347D02*
X133386787Y-87369347D01*
X133386787Y-87369347D02*
X133477501Y-87339109D01*
X133477501Y-87339109D02*
X133840359Y-86976252D01*
X133840359Y-86976252D02*
X133840359Y-87369347D01*
X133265835Y-87611252D02*
X133235597Y-87641490D01*
X133235597Y-87641490D02*
X133205359Y-87701966D01*
X133205359Y-87701966D02*
X133205359Y-87853157D01*
X133205359Y-87853157D02*
X133235597Y-87913633D01*
X133235597Y-87913633D02*
X133265835Y-87943871D01*
X133265835Y-87943871D02*
X133326311Y-87974109D01*
X133326311Y-87974109D02*
X133386787Y-87974109D01*
X133386787Y-87974109D02*
X133477501Y-87943871D01*
X133477501Y-87943871D02*
X133840359Y-87581014D01*
X133840359Y-87581014D02*
X133840359Y-87974109D01*
X137617259Y-86762485D02*
X137314878Y-86550818D01*
X137617259Y-86399628D02*
X136982259Y-86399628D01*
X136982259Y-86399628D02*
X136982259Y-86641533D01*
X136982259Y-86641533D02*
X137012497Y-86702009D01*
X137012497Y-86702009D02*
X137042735Y-86732247D01*
X137042735Y-86732247D02*
X137103211Y-86762485D01*
X137103211Y-86762485D02*
X137193925Y-86762485D01*
X137193925Y-86762485D02*
X137254401Y-86732247D01*
X137254401Y-86732247D02*
X137284640Y-86702009D01*
X137284640Y-86702009D02*
X137314878Y-86641533D01*
X137314878Y-86641533D02*
X137314878Y-86399628D01*
X137042735Y-87004390D02*
X137012497Y-87034628D01*
X137012497Y-87034628D02*
X136982259Y-87095104D01*
X136982259Y-87095104D02*
X136982259Y-87246295D01*
X136982259Y-87246295D02*
X137012497Y-87306771D01*
X137012497Y-87306771D02*
X137042735Y-87337009D01*
X137042735Y-87337009D02*
X137103211Y-87367247D01*
X137103211Y-87367247D02*
X137163687Y-87367247D01*
X137163687Y-87367247D02*
X137254401Y-87337009D01*
X137254401Y-87337009D02*
X137617259Y-86974152D01*
X137617259Y-86974152D02*
X137617259Y-87367247D01*
X136982259Y-87941771D02*
X136982259Y-87639390D01*
X136982259Y-87639390D02*
X137284640Y-87609152D01*
X137284640Y-87609152D02*
X137254401Y-87639390D01*
X137254401Y-87639390D02*
X137224163Y-87699866D01*
X137224163Y-87699866D02*
X137224163Y-87851057D01*
X137224163Y-87851057D02*
X137254401Y-87911533D01*
X137254401Y-87911533D02*
X137284640Y-87941771D01*
X137284640Y-87941771D02*
X137345116Y-87972009D01*
X137345116Y-87972009D02*
X137496306Y-87972009D01*
X137496306Y-87972009D02*
X137556782Y-87941771D01*
X137556782Y-87941771D02*
X137587021Y-87911533D01*
X137587021Y-87911533D02*
X137617259Y-87851057D01*
X137617259Y-87851057D02*
X137617259Y-87699866D01*
X137617259Y-87699866D02*
X137587021Y-87639390D01*
X137587021Y-87639390D02*
X137556782Y-87609152D01*
D11*
X102060836Y-88234011D02*
X101758455Y-88022344D01*
X102060836Y-87871154D02*
X101425836Y-87871154D01*
X101425836Y-87871154D02*
X101425836Y-88113059D01*
X101425836Y-88113059D02*
X101456074Y-88173535D01*
X101456074Y-88173535D02*
X101486312Y-88203773D01*
X101486312Y-88203773D02*
X101546788Y-88234011D01*
X101546788Y-88234011D02*
X101637502Y-88234011D01*
X101637502Y-88234011D02*
X101697978Y-88203773D01*
X101697978Y-88203773D02*
X101728217Y-88173535D01*
X101728217Y-88173535D02*
X101758455Y-88113059D01*
X101758455Y-88113059D02*
X101758455Y-87871154D01*
X101486312Y-88475916D02*
X101456074Y-88506154D01*
X101456074Y-88506154D02*
X101425836Y-88566630D01*
X101425836Y-88566630D02*
X101425836Y-88717821D01*
X101425836Y-88717821D02*
X101456074Y-88778297D01*
X101456074Y-88778297D02*
X101486312Y-88808535D01*
X101486312Y-88808535D02*
X101546788Y-88838773D01*
X101546788Y-88838773D02*
X101607264Y-88838773D01*
X101607264Y-88838773D02*
X101697978Y-88808535D01*
X101697978Y-88808535D02*
X102060836Y-88445678D01*
X102060836Y-88445678D02*
X102060836Y-88838773D01*
X105788840Y-80158166D02*
X105819079Y-80127928D01*
X105819079Y-80127928D02*
X105849317Y-80037214D01*
X105849317Y-80037214D02*
X105849317Y-79976738D01*
X105849317Y-79976738D02*
X105819079Y-79886023D01*
X105819079Y-79886023D02*
X105758602Y-79825547D01*
X105758602Y-79825547D02*
X105698126Y-79795309D01*
X105698126Y-79795309D02*
X105577174Y-79765071D01*
X105577174Y-79765071D02*
X105486459Y-79765071D01*
X105486459Y-79765071D02*
X105365507Y-79795309D01*
X105365507Y-79795309D02*
X105305031Y-79825547D01*
X105305031Y-79825547D02*
X105244555Y-79886023D01*
X105244555Y-79886023D02*
X105214317Y-79976738D01*
X105214317Y-79976738D02*
X105214317Y-80037214D01*
X105214317Y-80037214D02*
X105244555Y-80127928D01*
X105244555Y-80127928D02*
X105274793Y-80158166D01*
X105214317Y-80732690D02*
X105214317Y-80430309D01*
X105214317Y-80430309D02*
X105516698Y-80400071D01*
X105516698Y-80400071D02*
X105486459Y-80430309D01*
X105486459Y-80430309D02*
X105456221Y-80490785D01*
X105456221Y-80490785D02*
X105456221Y-80641976D01*
X105456221Y-80641976D02*
X105486459Y-80702452D01*
X105486459Y-80702452D02*
X105516698Y-80732690D01*
X105516698Y-80732690D02*
X105577174Y-80762928D01*
X105577174Y-80762928D02*
X105728364Y-80762928D01*
X105728364Y-80762928D02*
X105788840Y-80732690D01*
X105788840Y-80732690D02*
X105819079Y-80702452D01*
X105819079Y-80702452D02*
X105849317Y-80641976D01*
X105849317Y-80641976D02*
X105849317Y-80490785D01*
X105849317Y-80490785D02*
X105819079Y-80430309D01*
X105819079Y-80430309D02*
X105788840Y-80400071D01*
D12*
X120868654Y-74026571D02*
X120844464Y-74050762D01*
X120844464Y-74050762D02*
X120820273Y-74123333D01*
X120820273Y-74123333D02*
X120820273Y-74171714D01*
X120820273Y-74171714D02*
X120844464Y-74244286D01*
X120844464Y-74244286D02*
X120892844Y-74292667D01*
X120892844Y-74292667D02*
X120941225Y-74316857D01*
X120941225Y-74316857D02*
X121037987Y-74341048D01*
X121037987Y-74341048D02*
X121110559Y-74341048D01*
X121110559Y-74341048D02*
X121207321Y-74316857D01*
X121207321Y-74316857D02*
X121255702Y-74292667D01*
X121255702Y-74292667D02*
X121304083Y-74244286D01*
X121304083Y-74244286D02*
X121328273Y-74171714D01*
X121328273Y-74171714D02*
X121328273Y-74123333D01*
X121328273Y-74123333D02*
X121304083Y-74050762D01*
X121304083Y-74050762D02*
X121279892Y-74026571D01*
X121158940Y-73591143D02*
X120820273Y-73591143D01*
X121352464Y-73712095D02*
X120989606Y-73833048D01*
X120989606Y-73833048D02*
X120989606Y-73518571D01*
X121328273Y-73228285D02*
X121328273Y-73179904D01*
X121328273Y-73179904D02*
X121304083Y-73131523D01*
X121304083Y-73131523D02*
X121279892Y-73107333D01*
X121279892Y-73107333D02*
X121231511Y-73083142D01*
X121231511Y-73083142D02*
X121134749Y-73058952D01*
X121134749Y-73058952D02*
X121013797Y-73058952D01*
X121013797Y-73058952D02*
X120917035Y-73083142D01*
X120917035Y-73083142D02*
X120868654Y-73107333D01*
X120868654Y-73107333D02*
X120844464Y-73131523D01*
X120844464Y-73131523D02*
X120820273Y-73179904D01*
X120820273Y-73179904D02*
X120820273Y-73228285D01*
X120820273Y-73228285D02*
X120844464Y-73276666D01*
X120844464Y-73276666D02*
X120868654Y-73300857D01*
X120868654Y-73300857D02*
X120917035Y-73325047D01*
X120917035Y-73325047D02*
X121013797Y-73349238D01*
X121013797Y-73349238D02*
X121134749Y-73349238D01*
X121134749Y-73349238D02*
X121231511Y-73325047D01*
X121231511Y-73325047D02*
X121279892Y-73300857D01*
X121279892Y-73300857D02*
X121304083Y-73276666D01*
X121304083Y-73276666D02*
X121328273Y-73228285D01*
D10*
X115108214Y-77326682D02*
X115138452Y-77356921D01*
X115138452Y-77356921D02*
X115229166Y-77387159D01*
X115229166Y-77387159D02*
X115289642Y-77387159D01*
X115289642Y-77387159D02*
X115380357Y-77356921D01*
X115380357Y-77356921D02*
X115440833Y-77296444D01*
X115440833Y-77296444D02*
X115471071Y-77235968D01*
X115471071Y-77235968D02*
X115501309Y-77115016D01*
X115501309Y-77115016D02*
X115501309Y-77024301D01*
X115501309Y-77024301D02*
X115471071Y-76903349D01*
X115471071Y-76903349D02*
X115440833Y-76842873D01*
X115440833Y-76842873D02*
X115380357Y-76782397D01*
X115380357Y-76782397D02*
X115289642Y-76752159D01*
X115289642Y-76752159D02*
X115229166Y-76752159D01*
X115229166Y-76752159D02*
X115138452Y-76782397D01*
X115138452Y-76782397D02*
X115108214Y-76812635D01*
X114866309Y-76812635D02*
X114836071Y-76782397D01*
X114836071Y-76782397D02*
X114775595Y-76752159D01*
X114775595Y-76752159D02*
X114624404Y-76752159D01*
X114624404Y-76752159D02*
X114563928Y-76782397D01*
X114563928Y-76782397D02*
X114533690Y-76812635D01*
X114533690Y-76812635D02*
X114503452Y-76873111D01*
X114503452Y-76873111D02*
X114503452Y-76933587D01*
X114503452Y-76933587D02*
X114533690Y-77024301D01*
X114533690Y-77024301D02*
X114896547Y-77387159D01*
X114896547Y-77387159D02*
X114503452Y-77387159D01*
X113959166Y-76963825D02*
X113959166Y-77387159D01*
X114110357Y-76721921D02*
X114261547Y-77175492D01*
X114261547Y-77175492D02*
X113868452Y-77175492D01*
D11*
X102065317Y-80158166D02*
X101762936Y-79946499D01*
X102065317Y-79795309D02*
X101430317Y-79795309D01*
X101430317Y-79795309D02*
X101430317Y-80037214D01*
X101430317Y-80037214D02*
X101460555Y-80097690D01*
X101460555Y-80097690D02*
X101490793Y-80127928D01*
X101490793Y-80127928D02*
X101551269Y-80158166D01*
X101551269Y-80158166D02*
X101641983Y-80158166D01*
X101641983Y-80158166D02*
X101702459Y-80127928D01*
X101702459Y-80127928D02*
X101732698Y-80097690D01*
X101732698Y-80097690D02*
X101762936Y-80037214D01*
X101762936Y-80037214D02*
X101762936Y-79795309D01*
X101430317Y-80369833D02*
X101430317Y-80793166D01*
X101430317Y-80793166D02*
X102065317Y-80521023D01*
X105838686Y-70226766D02*
X105868925Y-70196528D01*
X105868925Y-70196528D02*
X105899163Y-70105814D01*
X105899163Y-70105814D02*
X105899163Y-70045338D01*
X105899163Y-70045338D02*
X105868925Y-69954623D01*
X105868925Y-69954623D02*
X105808448Y-69894147D01*
X105808448Y-69894147D02*
X105747972Y-69863909D01*
X105747972Y-69863909D02*
X105627020Y-69833671D01*
X105627020Y-69833671D02*
X105536305Y-69833671D01*
X105536305Y-69833671D02*
X105415353Y-69863909D01*
X105415353Y-69863909D02*
X105354877Y-69894147D01*
X105354877Y-69894147D02*
X105294401Y-69954623D01*
X105294401Y-69954623D02*
X105264163Y-70045338D01*
X105264163Y-70045338D02*
X105264163Y-70105814D01*
X105264163Y-70105814D02*
X105294401Y-70196528D01*
X105294401Y-70196528D02*
X105324639Y-70226766D01*
X105899163Y-70529147D02*
X105899163Y-70650099D01*
X105899163Y-70650099D02*
X105868925Y-70710576D01*
X105868925Y-70710576D02*
X105838686Y-70740814D01*
X105838686Y-70740814D02*
X105747972Y-70801290D01*
X105747972Y-70801290D02*
X105627020Y-70831528D01*
X105627020Y-70831528D02*
X105385115Y-70831528D01*
X105385115Y-70831528D02*
X105324639Y-70801290D01*
X105324639Y-70801290D02*
X105294401Y-70771052D01*
X105294401Y-70771052D02*
X105264163Y-70710576D01*
X105264163Y-70710576D02*
X105264163Y-70589623D01*
X105264163Y-70589623D02*
X105294401Y-70529147D01*
X105294401Y-70529147D02*
X105324639Y-70498909D01*
X105324639Y-70498909D02*
X105385115Y-70468671D01*
X105385115Y-70468671D02*
X105536305Y-70468671D01*
X105536305Y-70468671D02*
X105596782Y-70498909D01*
X105596782Y-70498909D02*
X105627020Y-70529147D01*
X105627020Y-70529147D02*
X105657258Y-70589623D01*
X105657258Y-70589623D02*
X105657258Y-70710576D01*
X105657258Y-70710576D02*
X105627020Y-70771052D01*
X105627020Y-70771052D02*
X105596782Y-70801290D01*
X105596782Y-70801290D02*
X105536305Y-70831528D01*
X96882163Y-66140390D02*
X97396210Y-66140390D01*
X97396210Y-66140390D02*
X97456686Y-66170628D01*
X97456686Y-66170628D02*
X97486925Y-66200866D01*
X97486925Y-66200866D02*
X97517163Y-66261342D01*
X97517163Y-66261342D02*
X97517163Y-66382295D01*
X97517163Y-66382295D02*
X97486925Y-66442771D01*
X97486925Y-66442771D02*
X97456686Y-66473009D01*
X97456686Y-66473009D02*
X97396210Y-66503247D01*
X97396210Y-66503247D02*
X96882163Y-66503247D01*
X96882163Y-67108009D02*
X96882163Y-66805628D01*
X96882163Y-66805628D02*
X97184544Y-66775390D01*
X97184544Y-66775390D02*
X97154305Y-66805628D01*
X97154305Y-66805628D02*
X97124067Y-66866104D01*
X97124067Y-66866104D02*
X97124067Y-67017295D01*
X97124067Y-67017295D02*
X97154305Y-67077771D01*
X97154305Y-67077771D02*
X97184544Y-67108009D01*
X97184544Y-67108009D02*
X97245020Y-67138247D01*
X97245020Y-67138247D02*
X97396210Y-67138247D01*
X97396210Y-67138247D02*
X97456686Y-67108009D01*
X97456686Y-67108009D02*
X97486925Y-67077771D01*
X97486925Y-67077771D02*
X97517163Y-67017295D01*
X97517163Y-67017295D02*
X97517163Y-66866104D01*
X97517163Y-66866104D02*
X97486925Y-66805628D01*
X97486925Y-66805628D02*
X97456686Y-66775390D01*
X130197286Y-86053385D02*
X130227525Y-86023147D01*
X130227525Y-86023147D02*
X130257763Y-85932433D01*
X130257763Y-85932433D02*
X130257763Y-85871957D01*
X130257763Y-85871957D02*
X130227525Y-85781242D01*
X130227525Y-85781242D02*
X130167048Y-85720766D01*
X130167048Y-85720766D02*
X130106572Y-85690528D01*
X130106572Y-85690528D02*
X129985620Y-85660290D01*
X129985620Y-85660290D02*
X129894905Y-85660290D01*
X129894905Y-85660290D02*
X129773953Y-85690528D01*
X129773953Y-85690528D02*
X129713477Y-85720766D01*
X129713477Y-85720766D02*
X129653001Y-85781242D01*
X129653001Y-85781242D02*
X129622763Y-85871957D01*
X129622763Y-85871957D02*
X129622763Y-85932433D01*
X129622763Y-85932433D02*
X129653001Y-86023147D01*
X129653001Y-86023147D02*
X129683239Y-86053385D01*
X130257763Y-86658147D02*
X130257763Y-86295290D01*
X130257763Y-86476718D02*
X129622763Y-86476718D01*
X129622763Y-86476718D02*
X129713477Y-86416242D01*
X129713477Y-86416242D02*
X129773953Y-86355766D01*
X129773953Y-86355766D02*
X129804191Y-86295290D01*
X129622763Y-86869814D02*
X129622763Y-87262909D01*
X129622763Y-87262909D02*
X129864667Y-87051242D01*
X129864667Y-87051242D02*
X129864667Y-87141957D01*
X129864667Y-87141957D02*
X129894905Y-87202433D01*
X129894905Y-87202433D02*
X129925144Y-87232671D01*
X129925144Y-87232671D02*
X129985620Y-87262909D01*
X129985620Y-87262909D02*
X130136810Y-87262909D01*
X130136810Y-87262909D02*
X130197286Y-87232671D01*
X130197286Y-87232671D02*
X130227525Y-87202433D01*
X130227525Y-87202433D02*
X130257763Y-87141957D01*
X130257763Y-87141957D02*
X130257763Y-86960528D01*
X130257763Y-86960528D02*
X130227525Y-86900052D01*
X130227525Y-86900052D02*
X130197286Y-86869814D01*
X96882163Y-75690790D02*
X97396210Y-75690790D01*
X97396210Y-75690790D02*
X97456686Y-75721028D01*
X97456686Y-75721028D02*
X97486925Y-75751266D01*
X97486925Y-75751266D02*
X97517163Y-75811742D01*
X97517163Y-75811742D02*
X97517163Y-75932695D01*
X97517163Y-75932695D02*
X97486925Y-75993171D01*
X97486925Y-75993171D02*
X97456686Y-76023409D01*
X97456686Y-76023409D02*
X97396210Y-76053647D01*
X97396210Y-76053647D02*
X96882163Y-76053647D01*
X96882163Y-76295552D02*
X96882163Y-76688647D01*
X96882163Y-76688647D02*
X97124067Y-76476980D01*
X97124067Y-76476980D02*
X97124067Y-76567695D01*
X97124067Y-76567695D02*
X97154305Y-76628171D01*
X97154305Y-76628171D02*
X97184544Y-76658409D01*
X97184544Y-76658409D02*
X97245020Y-76688647D01*
X97245020Y-76688647D02*
X97396210Y-76688647D01*
X97396210Y-76688647D02*
X97456686Y-76658409D01*
X97456686Y-76658409D02*
X97486925Y-76628171D01*
X97486925Y-76628171D02*
X97517163Y-76567695D01*
X97517163Y-76567695D02*
X97517163Y-76386266D01*
X97517163Y-76386266D02*
X97486925Y-76325790D01*
X97486925Y-76325790D02*
X97456686Y-76295552D01*
D10*
X135821559Y-64655185D02*
X135519178Y-64443518D01*
X135821559Y-64292328D02*
X135186559Y-64292328D01*
X135186559Y-64292328D02*
X135186559Y-64534233D01*
X135186559Y-64534233D02*
X135216797Y-64594709D01*
X135216797Y-64594709D02*
X135247035Y-64624947D01*
X135247035Y-64624947D02*
X135307511Y-64655185D01*
X135307511Y-64655185D02*
X135398225Y-64655185D01*
X135398225Y-64655185D02*
X135458701Y-64624947D01*
X135458701Y-64624947D02*
X135488940Y-64594709D01*
X135488940Y-64594709D02*
X135519178Y-64534233D01*
X135519178Y-64534233D02*
X135519178Y-64292328D01*
X135186559Y-64866852D02*
X135186559Y-65259947D01*
X135186559Y-65259947D02*
X135428463Y-65048280D01*
X135428463Y-65048280D02*
X135428463Y-65138995D01*
X135428463Y-65138995D02*
X135458701Y-65199471D01*
X135458701Y-65199471D02*
X135488940Y-65229709D01*
X135488940Y-65229709D02*
X135549416Y-65259947D01*
X135549416Y-65259947D02*
X135700606Y-65259947D01*
X135700606Y-65259947D02*
X135761082Y-65229709D01*
X135761082Y-65229709D02*
X135791321Y-65199471D01*
X135791321Y-65199471D02*
X135821559Y-65138995D01*
X135821559Y-65138995D02*
X135821559Y-64957566D01*
X135821559Y-64957566D02*
X135791321Y-64897090D01*
X135791321Y-64897090D02*
X135761082Y-64866852D01*
X135186559Y-65653042D02*
X135186559Y-65713519D01*
X135186559Y-65713519D02*
X135216797Y-65773995D01*
X135216797Y-65773995D02*
X135247035Y-65804233D01*
X135247035Y-65804233D02*
X135307511Y-65834471D01*
X135307511Y-65834471D02*
X135428463Y-65864709D01*
X135428463Y-65864709D02*
X135579654Y-65864709D01*
X135579654Y-65864709D02*
X135700606Y-65834471D01*
X135700606Y-65834471D02*
X135761082Y-65804233D01*
X135761082Y-65804233D02*
X135791321Y-65773995D01*
X135791321Y-65773995D02*
X135821559Y-65713519D01*
X135821559Y-65713519D02*
X135821559Y-65653042D01*
X135821559Y-65653042D02*
X135791321Y-65592566D01*
X135791321Y-65592566D02*
X135761082Y-65562328D01*
X135761082Y-65562328D02*
X135700606Y-65532090D01*
X135700606Y-65532090D02*
X135579654Y-65501852D01*
X135579654Y-65501852D02*
X135428463Y-65501852D01*
X135428463Y-65501852D02*
X135307511Y-65532090D01*
X135307511Y-65532090D02*
X135247035Y-65562328D01*
X135247035Y-65562328D02*
X135216797Y-65592566D01*
X135216797Y-65592566D02*
X135186559Y-65653042D01*
X127888214Y-75438882D02*
X127918452Y-75469121D01*
X127918452Y-75469121D02*
X128009166Y-75499359D01*
X128009166Y-75499359D02*
X128069642Y-75499359D01*
X128069642Y-75499359D02*
X128160357Y-75469121D01*
X128160357Y-75469121D02*
X128220833Y-75408644D01*
X128220833Y-75408644D02*
X128251071Y-75348168D01*
X128251071Y-75348168D02*
X128281309Y-75227216D01*
X128281309Y-75227216D02*
X128281309Y-75136501D01*
X128281309Y-75136501D02*
X128251071Y-75015549D01*
X128251071Y-75015549D02*
X128220833Y-74955073D01*
X128220833Y-74955073D02*
X128160357Y-74894597D01*
X128160357Y-74894597D02*
X128069642Y-74864359D01*
X128069642Y-74864359D02*
X128009166Y-74864359D01*
X128009166Y-74864359D02*
X127918452Y-74894597D01*
X127918452Y-74894597D02*
X127888214Y-74924835D01*
X127646309Y-74924835D02*
X127616071Y-74894597D01*
X127616071Y-74894597D02*
X127555595Y-74864359D01*
X127555595Y-74864359D02*
X127404404Y-74864359D01*
X127404404Y-74864359D02*
X127343928Y-74894597D01*
X127343928Y-74894597D02*
X127313690Y-74924835D01*
X127313690Y-74924835D02*
X127283452Y-74985311D01*
X127283452Y-74985311D02*
X127283452Y-75045787D01*
X127283452Y-75045787D02*
X127313690Y-75136501D01*
X127313690Y-75136501D02*
X127676547Y-75499359D01*
X127676547Y-75499359D02*
X127283452Y-75499359D01*
X126678690Y-75499359D02*
X127041547Y-75499359D01*
X126860119Y-75499359D02*
X126860119Y-74864359D01*
X126860119Y-74864359D02*
X126920595Y-74955073D01*
X126920595Y-74955073D02*
X126981071Y-75015549D01*
X126981071Y-75015549D02*
X127041547Y-75045787D01*
D11*
X102118517Y-70508585D02*
X101816136Y-70296918D01*
X102118517Y-70145728D02*
X101483517Y-70145728D01*
X101483517Y-70145728D02*
X101483517Y-70387633D01*
X101483517Y-70387633D02*
X101513755Y-70448109D01*
X101513755Y-70448109D02*
X101543993Y-70478347D01*
X101543993Y-70478347D02*
X101604469Y-70508585D01*
X101604469Y-70508585D02*
X101695183Y-70508585D01*
X101695183Y-70508585D02*
X101755659Y-70478347D01*
X101755659Y-70478347D02*
X101785898Y-70448109D01*
X101785898Y-70448109D02*
X101816136Y-70387633D01*
X101816136Y-70387633D02*
X101816136Y-70145728D01*
X102118517Y-71113347D02*
X102118517Y-70750490D01*
X102118517Y-70931918D02*
X101483517Y-70931918D01*
X101483517Y-70931918D02*
X101574231Y-70871442D01*
X101574231Y-70871442D02*
X101634707Y-70810966D01*
X101634707Y-70810966D02*
X101664945Y-70750490D01*
X101543993Y-71355252D02*
X101513755Y-71385490D01*
X101513755Y-71385490D02*
X101483517Y-71445966D01*
X101483517Y-71445966D02*
X101483517Y-71597157D01*
X101483517Y-71597157D02*
X101513755Y-71657633D01*
X101513755Y-71657633D02*
X101543993Y-71687871D01*
X101543993Y-71687871D02*
X101604469Y-71718109D01*
X101604469Y-71718109D02*
X101664945Y-71718109D01*
X101664945Y-71718109D02*
X101755659Y-71687871D01*
X101755659Y-71687871D02*
X102118517Y-71325014D01*
X102118517Y-71325014D02*
X102118517Y-71718109D01*
X98630014Y-72488486D02*
X98660252Y-72518725D01*
X98660252Y-72518725D02*
X98750966Y-72548963D01*
X98750966Y-72548963D02*
X98811442Y-72548963D01*
X98811442Y-72548963D02*
X98902157Y-72518725D01*
X98902157Y-72518725D02*
X98962633Y-72458248D01*
X98962633Y-72458248D02*
X98992871Y-72397772D01*
X98992871Y-72397772D02*
X99023109Y-72276820D01*
X99023109Y-72276820D02*
X99023109Y-72186105D01*
X99023109Y-72186105D02*
X98992871Y-72065153D01*
X98992871Y-72065153D02*
X98962633Y-72004677D01*
X98962633Y-72004677D02*
X98902157Y-71944201D01*
X98902157Y-71944201D02*
X98811442Y-71913963D01*
X98811442Y-71913963D02*
X98750966Y-71913963D01*
X98750966Y-71913963D02*
X98660252Y-71944201D01*
X98660252Y-71944201D02*
X98630014Y-71974439D01*
X98025252Y-72548963D02*
X98388109Y-72548963D01*
X98206681Y-72548963D02*
X98206681Y-71913963D01*
X98206681Y-71913963D02*
X98267157Y-72004677D01*
X98267157Y-72004677D02*
X98327633Y-72065153D01*
X98327633Y-72065153D02*
X98388109Y-72095391D01*
X97632157Y-71913963D02*
X97571680Y-71913963D01*
X97571680Y-71913963D02*
X97511204Y-71944201D01*
X97511204Y-71944201D02*
X97480966Y-71974439D01*
X97480966Y-71974439D02*
X97450728Y-72034915D01*
X97450728Y-72034915D02*
X97420490Y-72155867D01*
X97420490Y-72155867D02*
X97420490Y-72307058D01*
X97420490Y-72307058D02*
X97450728Y-72428010D01*
X97450728Y-72428010D02*
X97480966Y-72488486D01*
X97480966Y-72488486D02*
X97511204Y-72518725D01*
X97511204Y-72518725D02*
X97571680Y-72548963D01*
X97571680Y-72548963D02*
X97632157Y-72548963D01*
X97632157Y-72548963D02*
X97692633Y-72518725D01*
X97692633Y-72518725D02*
X97722871Y-72488486D01*
X97722871Y-72488486D02*
X97753109Y-72428010D01*
X97753109Y-72428010D02*
X97783347Y-72307058D01*
X97783347Y-72307058D02*
X97783347Y-72155867D01*
X97783347Y-72155867D02*
X97753109Y-72034915D01*
X97753109Y-72034915D02*
X97722871Y-71974439D01*
X97722871Y-71974439D02*
X97692633Y-71944201D01*
X97692633Y-71944201D02*
X97632157Y-71913963D01*
X98068021Y-90344686D02*
X98098259Y-90374925D01*
X98098259Y-90374925D02*
X98188973Y-90405163D01*
X98188973Y-90405163D02*
X98249449Y-90405163D01*
X98249449Y-90405163D02*
X98340164Y-90374925D01*
X98340164Y-90374925D02*
X98400640Y-90314448D01*
X98400640Y-90314448D02*
X98430878Y-90253972D01*
X98430878Y-90253972D02*
X98461116Y-90133020D01*
X98461116Y-90133020D02*
X98461116Y-90042305D01*
X98461116Y-90042305D02*
X98430878Y-89921353D01*
X98430878Y-89921353D02*
X98400640Y-89860877D01*
X98400640Y-89860877D02*
X98340164Y-89800401D01*
X98340164Y-89800401D02*
X98249449Y-89770163D01*
X98249449Y-89770163D02*
X98188973Y-89770163D01*
X98188973Y-89770163D02*
X98098259Y-89800401D01*
X98098259Y-89800401D02*
X98068021Y-89830639D01*
X97856354Y-89770163D02*
X97463259Y-89770163D01*
X97463259Y-89770163D02*
X97674926Y-90012067D01*
X97674926Y-90012067D02*
X97584211Y-90012067D01*
X97584211Y-90012067D02*
X97523735Y-90042305D01*
X97523735Y-90042305D02*
X97493497Y-90072544D01*
X97493497Y-90072544D02*
X97463259Y-90133020D01*
X97463259Y-90133020D02*
X97463259Y-90284210D01*
X97463259Y-90284210D02*
X97493497Y-90344686D01*
X97493497Y-90344686D02*
X97523735Y-90374925D01*
X97523735Y-90374925D02*
X97584211Y-90405163D01*
X97584211Y-90405163D02*
X97765640Y-90405163D01*
X97765640Y-90405163D02*
X97826116Y-90374925D01*
X97826116Y-90374925D02*
X97856354Y-90344686D01*
D10*
X130185582Y-64641185D02*
X130215821Y-64610947D01*
X130215821Y-64610947D02*
X130246059Y-64520233D01*
X130246059Y-64520233D02*
X130246059Y-64459757D01*
X130246059Y-64459757D02*
X130215821Y-64369042D01*
X130215821Y-64369042D02*
X130155344Y-64308566D01*
X130155344Y-64308566D02*
X130094868Y-64278328D01*
X130094868Y-64278328D02*
X129973916Y-64248090D01*
X129973916Y-64248090D02*
X129883201Y-64248090D01*
X129883201Y-64248090D02*
X129762249Y-64278328D01*
X129762249Y-64278328D02*
X129701773Y-64308566D01*
X129701773Y-64308566D02*
X129641297Y-64369042D01*
X129641297Y-64369042D02*
X129611059Y-64459757D01*
X129611059Y-64459757D02*
X129611059Y-64520233D01*
X129611059Y-64520233D02*
X129641297Y-64610947D01*
X129641297Y-64610947D02*
X129671535Y-64641185D01*
X130246059Y-65245947D02*
X130246059Y-64883090D01*
X130246059Y-65064518D02*
X129611059Y-65064518D01*
X129611059Y-65064518D02*
X129701773Y-65004042D01*
X129701773Y-65004042D02*
X129762249Y-64943566D01*
X129762249Y-64943566D02*
X129792487Y-64883090D01*
X129671535Y-65487852D02*
X129641297Y-65518090D01*
X129641297Y-65518090D02*
X129611059Y-65578566D01*
X129611059Y-65578566D02*
X129611059Y-65729757D01*
X129611059Y-65729757D02*
X129641297Y-65790233D01*
X129641297Y-65790233D02*
X129671535Y-65820471D01*
X129671535Y-65820471D02*
X129732011Y-65850709D01*
X129732011Y-65850709D02*
X129792487Y-65850709D01*
X129792487Y-65850709D02*
X129883201Y-65820471D01*
X129883201Y-65820471D02*
X130246059Y-65457614D01*
X130246059Y-65457614D02*
X130246059Y-65850709D01*
X134195959Y-70141585D02*
X133893578Y-69929918D01*
X134195959Y-69778728D02*
X133560959Y-69778728D01*
X133560959Y-69778728D02*
X133560959Y-70020633D01*
X133560959Y-70020633D02*
X133591197Y-70081109D01*
X133591197Y-70081109D02*
X133621435Y-70111347D01*
X133621435Y-70111347D02*
X133681911Y-70141585D01*
X133681911Y-70141585D02*
X133772625Y-70141585D01*
X133772625Y-70141585D02*
X133833101Y-70111347D01*
X133833101Y-70111347D02*
X133863340Y-70081109D01*
X133863340Y-70081109D02*
X133893578Y-70020633D01*
X133893578Y-70020633D02*
X133893578Y-69778728D01*
X133560959Y-70353252D02*
X133560959Y-70746347D01*
X133560959Y-70746347D02*
X133802863Y-70534680D01*
X133802863Y-70534680D02*
X133802863Y-70625395D01*
X133802863Y-70625395D02*
X133833101Y-70685871D01*
X133833101Y-70685871D02*
X133863340Y-70716109D01*
X133863340Y-70716109D02*
X133923816Y-70746347D01*
X133923816Y-70746347D02*
X134075006Y-70746347D01*
X134075006Y-70746347D02*
X134135482Y-70716109D01*
X134135482Y-70716109D02*
X134165721Y-70685871D01*
X134165721Y-70685871D02*
X134195959Y-70625395D01*
X134195959Y-70625395D02*
X134195959Y-70443966D01*
X134195959Y-70443966D02*
X134165721Y-70383490D01*
X134165721Y-70383490D02*
X134135482Y-70353252D01*
X133560959Y-70958014D02*
X133560959Y-71381347D01*
X133560959Y-71381347D02*
X134195959Y-71109204D01*
D12*
X116176571Y-80981345D02*
X116200762Y-81005536D01*
X116200762Y-81005536D02*
X116273333Y-81029726D01*
X116273333Y-81029726D02*
X116321714Y-81029726D01*
X116321714Y-81029726D02*
X116394286Y-81005536D01*
X116394286Y-81005536D02*
X116442667Y-80957155D01*
X116442667Y-80957155D02*
X116466857Y-80908774D01*
X116466857Y-80908774D02*
X116491048Y-80812012D01*
X116491048Y-80812012D02*
X116491048Y-80739440D01*
X116491048Y-80739440D02*
X116466857Y-80642678D01*
X116466857Y-80642678D02*
X116442667Y-80594297D01*
X116442667Y-80594297D02*
X116394286Y-80545916D01*
X116394286Y-80545916D02*
X116321714Y-80521726D01*
X116321714Y-80521726D02*
X116273333Y-80521726D01*
X116273333Y-80521726D02*
X116200762Y-80545916D01*
X116200762Y-80545916D02*
X116176571Y-80570107D01*
X116007238Y-80521726D02*
X115692762Y-80521726D01*
X115692762Y-80521726D02*
X115862095Y-80715250D01*
X115862095Y-80715250D02*
X115789524Y-80715250D01*
X115789524Y-80715250D02*
X115741143Y-80739440D01*
X115741143Y-80739440D02*
X115716952Y-80763631D01*
X115716952Y-80763631D02*
X115692762Y-80812012D01*
X115692762Y-80812012D02*
X115692762Y-80932964D01*
X115692762Y-80932964D02*
X115716952Y-80981345D01*
X115716952Y-80981345D02*
X115741143Y-81005536D01*
X115741143Y-81005536D02*
X115789524Y-81029726D01*
X115789524Y-81029726D02*
X115934667Y-81029726D01*
X115934667Y-81029726D02*
X115983048Y-81005536D01*
X115983048Y-81005536D02*
X116007238Y-80981345D01*
X115450857Y-81029726D02*
X115354095Y-81029726D01*
X115354095Y-81029726D02*
X115305714Y-81005536D01*
X115305714Y-81005536D02*
X115281523Y-80981345D01*
X115281523Y-80981345D02*
X115233142Y-80908774D01*
X115233142Y-80908774D02*
X115208952Y-80812012D01*
X115208952Y-80812012D02*
X115208952Y-80618488D01*
X115208952Y-80618488D02*
X115233142Y-80570107D01*
X115233142Y-80570107D02*
X115257333Y-80545916D01*
X115257333Y-80545916D02*
X115305714Y-80521726D01*
X115305714Y-80521726D02*
X115402476Y-80521726D01*
X115402476Y-80521726D02*
X115450857Y-80545916D01*
X115450857Y-80545916D02*
X115475047Y-80570107D01*
X115475047Y-80570107D02*
X115499238Y-80618488D01*
X115499238Y-80618488D02*
X115499238Y-80739440D01*
X115499238Y-80739440D02*
X115475047Y-80787821D01*
X115475047Y-80787821D02*
X115450857Y-80812012D01*
X115450857Y-80812012D02*
X115402476Y-80836202D01*
X115402476Y-80836202D02*
X115305714Y-80836202D01*
X115305714Y-80836202D02*
X115257333Y-80812012D01*
X115257333Y-80812012D02*
X115233142Y-80787821D01*
X115233142Y-80787821D02*
X115208952Y-80739440D01*
D11*
X104055413Y-88308011D02*
X103753032Y-88096344D01*
X104055413Y-87945154D02*
X103420413Y-87945154D01*
X103420413Y-87945154D02*
X103420413Y-88187059D01*
X103420413Y-88187059D02*
X103450651Y-88247535D01*
X103450651Y-88247535D02*
X103480889Y-88277773D01*
X103480889Y-88277773D02*
X103541365Y-88308011D01*
X103541365Y-88308011D02*
X103632079Y-88308011D01*
X103632079Y-88308011D02*
X103692555Y-88277773D01*
X103692555Y-88277773D02*
X103722794Y-88247535D01*
X103722794Y-88247535D02*
X103753032Y-88187059D01*
X103753032Y-88187059D02*
X103753032Y-87945154D01*
X104055413Y-88912773D02*
X104055413Y-88549916D01*
X104055413Y-88731344D02*
X103420413Y-88731344D01*
X103420413Y-88731344D02*
X103511127Y-88670868D01*
X103511127Y-88670868D02*
X103571603Y-88610392D01*
X103571603Y-88610392D02*
X103601841Y-88549916D01*
D10*
X128226959Y-92479585D02*
X127924578Y-92267918D01*
X128226959Y-92116728D02*
X127591959Y-92116728D01*
X127591959Y-92116728D02*
X127591959Y-92358633D01*
X127591959Y-92358633D02*
X127622197Y-92419109D01*
X127622197Y-92419109D02*
X127652435Y-92449347D01*
X127652435Y-92449347D02*
X127712911Y-92479585D01*
X127712911Y-92479585D02*
X127803625Y-92479585D01*
X127803625Y-92479585D02*
X127864101Y-92449347D01*
X127864101Y-92449347D02*
X127894340Y-92419109D01*
X127894340Y-92419109D02*
X127924578Y-92358633D01*
X127924578Y-92358633D02*
X127924578Y-92116728D01*
X127591959Y-92691252D02*
X127591959Y-93084347D01*
X127591959Y-93084347D02*
X127833863Y-92872680D01*
X127833863Y-92872680D02*
X127833863Y-92963395D01*
X127833863Y-92963395D02*
X127864101Y-93023871D01*
X127864101Y-93023871D02*
X127894340Y-93054109D01*
X127894340Y-93054109D02*
X127954816Y-93084347D01*
X127954816Y-93084347D02*
X128106006Y-93084347D01*
X128106006Y-93084347D02*
X128166482Y-93054109D01*
X128166482Y-93054109D02*
X128196721Y-93023871D01*
X128196721Y-93023871D02*
X128226959Y-92963395D01*
X128226959Y-92963395D02*
X128226959Y-92781966D01*
X128226959Y-92781966D02*
X128196721Y-92721490D01*
X128196721Y-92721490D02*
X128166482Y-92691252D01*
X127652435Y-93326252D02*
X127622197Y-93356490D01*
X127622197Y-93356490D02*
X127591959Y-93416966D01*
X127591959Y-93416966D02*
X127591959Y-93568157D01*
X127591959Y-93568157D02*
X127622197Y-93628633D01*
X127622197Y-93628633D02*
X127652435Y-93658871D01*
X127652435Y-93658871D02*
X127712911Y-93689109D01*
X127712911Y-93689109D02*
X127773387Y-93689109D01*
X127773387Y-93689109D02*
X127864101Y-93658871D01*
X127864101Y-93658871D02*
X128226959Y-93296014D01*
X128226959Y-93296014D02*
X128226959Y-93689109D01*
D11*
X95043686Y-66569166D02*
X95073925Y-66538928D01*
X95073925Y-66538928D02*
X95104163Y-66448214D01*
X95104163Y-66448214D02*
X95104163Y-66387738D01*
X95104163Y-66387738D02*
X95073925Y-66297023D01*
X95073925Y-66297023D02*
X95013448Y-66236547D01*
X95013448Y-66236547D02*
X94952972Y-66206309D01*
X94952972Y-66206309D02*
X94832020Y-66176071D01*
X94832020Y-66176071D02*
X94741305Y-66176071D01*
X94741305Y-66176071D02*
X94620353Y-66206309D01*
X94620353Y-66206309D02*
X94559877Y-66236547D01*
X94559877Y-66236547D02*
X94499401Y-66297023D01*
X94499401Y-66297023D02*
X94469163Y-66387738D01*
X94469163Y-66387738D02*
X94469163Y-66448214D01*
X94469163Y-66448214D02*
X94499401Y-66538928D01*
X94499401Y-66538928D02*
X94529639Y-66569166D01*
X94741305Y-66932023D02*
X94711067Y-66871547D01*
X94711067Y-66871547D02*
X94680829Y-66841309D01*
X94680829Y-66841309D02*
X94620353Y-66811071D01*
X94620353Y-66811071D02*
X94590115Y-66811071D01*
X94590115Y-66811071D02*
X94529639Y-66841309D01*
X94529639Y-66841309D02*
X94499401Y-66871547D01*
X94499401Y-66871547D02*
X94469163Y-66932023D01*
X94469163Y-66932023D02*
X94469163Y-67052976D01*
X94469163Y-67052976D02*
X94499401Y-67113452D01*
X94499401Y-67113452D02*
X94529639Y-67143690D01*
X94529639Y-67143690D02*
X94590115Y-67173928D01*
X94590115Y-67173928D02*
X94620353Y-67173928D01*
X94620353Y-67173928D02*
X94680829Y-67143690D01*
X94680829Y-67143690D02*
X94711067Y-67113452D01*
X94711067Y-67113452D02*
X94741305Y-67052976D01*
X94741305Y-67052976D02*
X94741305Y-66932023D01*
X94741305Y-66932023D02*
X94771544Y-66871547D01*
X94771544Y-66871547D02*
X94801782Y-66841309D01*
X94801782Y-66841309D02*
X94862258Y-66811071D01*
X94862258Y-66811071D02*
X94983210Y-66811071D01*
X94983210Y-66811071D02*
X95043686Y-66841309D01*
X95043686Y-66841309D02*
X95073925Y-66871547D01*
X95073925Y-66871547D02*
X95104163Y-66932023D01*
X95104163Y-66932023D02*
X95104163Y-67052976D01*
X95104163Y-67052976D02*
X95073925Y-67113452D01*
X95073925Y-67113452D02*
X95043686Y-67143690D01*
X95043686Y-67143690D02*
X94983210Y-67173928D01*
X94983210Y-67173928D02*
X94862258Y-67173928D01*
X94862258Y-67173928D02*
X94801782Y-67143690D01*
X94801782Y-67143690D02*
X94771544Y-67113452D01*
X94771544Y-67113452D02*
X94741305Y-67052976D01*
D12*
X121226571Y-81881345D02*
X121250762Y-81905536D01*
X121250762Y-81905536D02*
X121323333Y-81929726D01*
X121323333Y-81929726D02*
X121371714Y-81929726D01*
X121371714Y-81929726D02*
X121444286Y-81905536D01*
X121444286Y-81905536D02*
X121492667Y-81857155D01*
X121492667Y-81857155D02*
X121516857Y-81808774D01*
X121516857Y-81808774D02*
X121541048Y-81712012D01*
X121541048Y-81712012D02*
X121541048Y-81639440D01*
X121541048Y-81639440D02*
X121516857Y-81542678D01*
X121516857Y-81542678D02*
X121492667Y-81494297D01*
X121492667Y-81494297D02*
X121444286Y-81445916D01*
X121444286Y-81445916D02*
X121371714Y-81421726D01*
X121371714Y-81421726D02*
X121323333Y-81421726D01*
X121323333Y-81421726D02*
X121250762Y-81445916D01*
X121250762Y-81445916D02*
X121226571Y-81470107D01*
X120791143Y-81591059D02*
X120791143Y-81929726D01*
X120912095Y-81397536D02*
X121033048Y-81760393D01*
X121033048Y-81760393D02*
X120718571Y-81760393D01*
X120549238Y-81470107D02*
X120525047Y-81445916D01*
X120525047Y-81445916D02*
X120476666Y-81421726D01*
X120476666Y-81421726D02*
X120355714Y-81421726D01*
X120355714Y-81421726D02*
X120307333Y-81445916D01*
X120307333Y-81445916D02*
X120283142Y-81470107D01*
X120283142Y-81470107D02*
X120258952Y-81518488D01*
X120258952Y-81518488D02*
X120258952Y-81566869D01*
X120258952Y-81566869D02*
X120283142Y-81639440D01*
X120283142Y-81639440D02*
X120573428Y-81929726D01*
X120573428Y-81929726D02*
X120258952Y-81929726D01*
D11*
X104074317Y-70533985D02*
X103771936Y-70322318D01*
X104074317Y-70171128D02*
X103439317Y-70171128D01*
X103439317Y-70171128D02*
X103439317Y-70413033D01*
X103439317Y-70413033D02*
X103469555Y-70473509D01*
X103469555Y-70473509D02*
X103499793Y-70503747D01*
X103499793Y-70503747D02*
X103560269Y-70533985D01*
X103560269Y-70533985D02*
X103650983Y-70533985D01*
X103650983Y-70533985D02*
X103711459Y-70503747D01*
X103711459Y-70503747D02*
X103741698Y-70473509D01*
X103741698Y-70473509D02*
X103771936Y-70413033D01*
X103771936Y-70413033D02*
X103771936Y-70171128D01*
X104074317Y-71138747D02*
X104074317Y-70775890D01*
X104074317Y-70957318D02*
X103439317Y-70957318D01*
X103439317Y-70957318D02*
X103530031Y-70896842D01*
X103530031Y-70896842D02*
X103590507Y-70836366D01*
X103590507Y-70836366D02*
X103620745Y-70775890D01*
X104074317Y-71743509D02*
X104074317Y-71380652D01*
X104074317Y-71562080D02*
X103439317Y-71562080D01*
X103439317Y-71562080D02*
X103530031Y-71501604D01*
X103530031Y-71501604D02*
X103590507Y-71441128D01*
X103590507Y-71441128D02*
X103620745Y-71380652D01*
D12*
X118118654Y-73826571D02*
X118094464Y-73850762D01*
X118094464Y-73850762D02*
X118070273Y-73923333D01*
X118070273Y-73923333D02*
X118070273Y-73971714D01*
X118070273Y-73971714D02*
X118094464Y-74044286D01*
X118094464Y-74044286D02*
X118142844Y-74092667D01*
X118142844Y-74092667D02*
X118191225Y-74116857D01*
X118191225Y-74116857D02*
X118287987Y-74141048D01*
X118287987Y-74141048D02*
X118360559Y-74141048D01*
X118360559Y-74141048D02*
X118457321Y-74116857D01*
X118457321Y-74116857D02*
X118505702Y-74092667D01*
X118505702Y-74092667D02*
X118554083Y-74044286D01*
X118554083Y-74044286D02*
X118578273Y-73971714D01*
X118578273Y-73971714D02*
X118578273Y-73923333D01*
X118578273Y-73923333D02*
X118554083Y-73850762D01*
X118554083Y-73850762D02*
X118529892Y-73826571D01*
X118578273Y-73657238D02*
X118578273Y-73342762D01*
X118578273Y-73342762D02*
X118384749Y-73512095D01*
X118384749Y-73512095D02*
X118384749Y-73439524D01*
X118384749Y-73439524D02*
X118360559Y-73391143D01*
X118360559Y-73391143D02*
X118336368Y-73366952D01*
X118336368Y-73366952D02*
X118287987Y-73342762D01*
X118287987Y-73342762D02*
X118167035Y-73342762D01*
X118167035Y-73342762D02*
X118118654Y-73366952D01*
X118118654Y-73366952D02*
X118094464Y-73391143D01*
X118094464Y-73391143D02*
X118070273Y-73439524D01*
X118070273Y-73439524D02*
X118070273Y-73584667D01*
X118070273Y-73584667D02*
X118094464Y-73633048D01*
X118094464Y-73633048D02*
X118118654Y-73657238D01*
X118578273Y-73173428D02*
X118578273Y-72834761D01*
X118578273Y-72834761D02*
X118070273Y-73052476D01*
D11*
X92335563Y-76144966D02*
X92335563Y-75842585D01*
X92335563Y-75842585D02*
X91700563Y-75842585D01*
X91761039Y-76326395D02*
X91730801Y-76356633D01*
X91730801Y-76356633D02*
X91700563Y-76417109D01*
X91700563Y-76417109D02*
X91700563Y-76568300D01*
X91700563Y-76568300D02*
X91730801Y-76628776D01*
X91730801Y-76628776D02*
X91761039Y-76659014D01*
X91761039Y-76659014D02*
X91821515Y-76689252D01*
X91821515Y-76689252D02*
X91881991Y-76689252D01*
X91881991Y-76689252D02*
X91972705Y-76659014D01*
X91972705Y-76659014D02*
X92335563Y-76296157D01*
X92335563Y-76296157D02*
X92335563Y-76689252D01*
D10*
X132489359Y-64680585D02*
X132186978Y-64468918D01*
X132489359Y-64317728D02*
X131854359Y-64317728D01*
X131854359Y-64317728D02*
X131854359Y-64559633D01*
X131854359Y-64559633D02*
X131884597Y-64620109D01*
X131884597Y-64620109D02*
X131914835Y-64650347D01*
X131914835Y-64650347D02*
X131975311Y-64680585D01*
X131975311Y-64680585D02*
X132066025Y-64680585D01*
X132066025Y-64680585D02*
X132126501Y-64650347D01*
X132126501Y-64650347D02*
X132156740Y-64620109D01*
X132156740Y-64620109D02*
X132186978Y-64559633D01*
X132186978Y-64559633D02*
X132186978Y-64317728D01*
X131914835Y-64922490D02*
X131884597Y-64952728D01*
X131884597Y-64952728D02*
X131854359Y-65013204D01*
X131854359Y-65013204D02*
X131854359Y-65164395D01*
X131854359Y-65164395D02*
X131884597Y-65224871D01*
X131884597Y-65224871D02*
X131914835Y-65255109D01*
X131914835Y-65255109D02*
X131975311Y-65285347D01*
X131975311Y-65285347D02*
X132035787Y-65285347D01*
X132035787Y-65285347D02*
X132126501Y-65255109D01*
X132126501Y-65255109D02*
X132489359Y-64892252D01*
X132489359Y-64892252D02*
X132489359Y-65285347D01*
X132126501Y-65648204D02*
X132096263Y-65587728D01*
X132096263Y-65587728D02*
X132066025Y-65557490D01*
X132066025Y-65557490D02*
X132005549Y-65527252D01*
X132005549Y-65527252D02*
X131975311Y-65527252D01*
X131975311Y-65527252D02*
X131914835Y-65557490D01*
X131914835Y-65557490D02*
X131884597Y-65587728D01*
X131884597Y-65587728D02*
X131854359Y-65648204D01*
X131854359Y-65648204D02*
X131854359Y-65769157D01*
X131854359Y-65769157D02*
X131884597Y-65829633D01*
X131884597Y-65829633D02*
X131914835Y-65859871D01*
X131914835Y-65859871D02*
X131975311Y-65890109D01*
X131975311Y-65890109D02*
X132005549Y-65890109D01*
X132005549Y-65890109D02*
X132066025Y-65859871D01*
X132066025Y-65859871D02*
X132096263Y-65829633D01*
X132096263Y-65829633D02*
X132126501Y-65769157D01*
X132126501Y-65769157D02*
X132126501Y-65648204D01*
X132126501Y-65648204D02*
X132156740Y-65587728D01*
X132156740Y-65587728D02*
X132186978Y-65557490D01*
X132186978Y-65557490D02*
X132247454Y-65527252D01*
X132247454Y-65527252D02*
X132368406Y-65527252D01*
X132368406Y-65527252D02*
X132428882Y-65557490D01*
X132428882Y-65557490D02*
X132459121Y-65587728D01*
X132459121Y-65587728D02*
X132489359Y-65648204D01*
X132489359Y-65648204D02*
X132489359Y-65769157D01*
X132489359Y-65769157D02*
X132459121Y-65829633D01*
X132459121Y-65829633D02*
X132428882Y-65859871D01*
X132428882Y-65859871D02*
X132368406Y-65890109D01*
X132368406Y-65890109D02*
X132247454Y-65890109D01*
X132247454Y-65890109D02*
X132186978Y-65859871D01*
X132186978Y-65859871D02*
X132156740Y-65829633D01*
X132156740Y-65829633D02*
X132126501Y-65769157D01*
D12*
X121326571Y-79581345D02*
X121350762Y-79605536D01*
X121350762Y-79605536D02*
X121423333Y-79629726D01*
X121423333Y-79629726D02*
X121471714Y-79629726D01*
X121471714Y-79629726D02*
X121544286Y-79605536D01*
X121544286Y-79605536D02*
X121592667Y-79557155D01*
X121592667Y-79557155D02*
X121616857Y-79508774D01*
X121616857Y-79508774D02*
X121641048Y-79412012D01*
X121641048Y-79412012D02*
X121641048Y-79339440D01*
X121641048Y-79339440D02*
X121616857Y-79242678D01*
X121616857Y-79242678D02*
X121592667Y-79194297D01*
X121592667Y-79194297D02*
X121544286Y-79145916D01*
X121544286Y-79145916D02*
X121471714Y-79121726D01*
X121471714Y-79121726D02*
X121423333Y-79121726D01*
X121423333Y-79121726D02*
X121350762Y-79145916D01*
X121350762Y-79145916D02*
X121326571Y-79170107D01*
X121133048Y-79170107D02*
X121108857Y-79145916D01*
X121108857Y-79145916D02*
X121060476Y-79121726D01*
X121060476Y-79121726D02*
X120939524Y-79121726D01*
X120939524Y-79121726D02*
X120891143Y-79145916D01*
X120891143Y-79145916D02*
X120866952Y-79170107D01*
X120866952Y-79170107D02*
X120842762Y-79218488D01*
X120842762Y-79218488D02*
X120842762Y-79266869D01*
X120842762Y-79266869D02*
X120866952Y-79339440D01*
X120866952Y-79339440D02*
X121157238Y-79629726D01*
X121157238Y-79629726D02*
X120842762Y-79629726D01*
X120383142Y-79121726D02*
X120625047Y-79121726D01*
X120625047Y-79121726D02*
X120649238Y-79363631D01*
X120649238Y-79363631D02*
X120625047Y-79339440D01*
X120625047Y-79339440D02*
X120576666Y-79315250D01*
X120576666Y-79315250D02*
X120455714Y-79315250D01*
X120455714Y-79315250D02*
X120407333Y-79339440D01*
X120407333Y-79339440D02*
X120383142Y-79363631D01*
X120383142Y-79363631D02*
X120358952Y-79412012D01*
X120358952Y-79412012D02*
X120358952Y-79532964D01*
X120358952Y-79532964D02*
X120383142Y-79581345D01*
X120383142Y-79581345D02*
X120407333Y-79605536D01*
X120407333Y-79605536D02*
X120455714Y-79629726D01*
X120455714Y-79629726D02*
X120576666Y-79629726D01*
X120576666Y-79629726D02*
X120625047Y-79605536D01*
X120625047Y-79605536D02*
X120649238Y-79581345D01*
D11*
X92319504Y-66705830D02*
X92319504Y-66403449D01*
X92319504Y-66403449D02*
X91684504Y-66403449D01*
X91684504Y-66857021D02*
X91684504Y-67250116D01*
X91684504Y-67250116D02*
X91926408Y-67038449D01*
X91926408Y-67038449D02*
X91926408Y-67129164D01*
X91926408Y-67129164D02*
X91956646Y-67189640D01*
X91956646Y-67189640D02*
X91986885Y-67219878D01*
X91986885Y-67219878D02*
X92047361Y-67250116D01*
X92047361Y-67250116D02*
X92198551Y-67250116D01*
X92198551Y-67250116D02*
X92259027Y-67219878D01*
X92259027Y-67219878D02*
X92289266Y-67189640D01*
X92289266Y-67189640D02*
X92319504Y-67129164D01*
X92319504Y-67129164D02*
X92319504Y-66947735D01*
X92319504Y-66947735D02*
X92289266Y-66887259D01*
X92289266Y-66887259D02*
X92259027Y-66857021D01*
X105840359Y-88354011D02*
X105870598Y-88323773D01*
X105870598Y-88323773D02*
X105900836Y-88233059D01*
X105900836Y-88233059D02*
X105900836Y-88172583D01*
X105900836Y-88172583D02*
X105870598Y-88081868D01*
X105870598Y-88081868D02*
X105810121Y-88021392D01*
X105810121Y-88021392D02*
X105749645Y-87991154D01*
X105749645Y-87991154D02*
X105628693Y-87960916D01*
X105628693Y-87960916D02*
X105537978Y-87960916D01*
X105537978Y-87960916D02*
X105417026Y-87991154D01*
X105417026Y-87991154D02*
X105356550Y-88021392D01*
X105356550Y-88021392D02*
X105296074Y-88081868D01*
X105296074Y-88081868D02*
X105265836Y-88172583D01*
X105265836Y-88172583D02*
X105265836Y-88233059D01*
X105265836Y-88233059D02*
X105296074Y-88323773D01*
X105296074Y-88323773D02*
X105326312Y-88354011D01*
X105326312Y-88595916D02*
X105296074Y-88626154D01*
X105296074Y-88626154D02*
X105265836Y-88686630D01*
X105265836Y-88686630D02*
X105265836Y-88837821D01*
X105265836Y-88837821D02*
X105296074Y-88898297D01*
X105296074Y-88898297D02*
X105326312Y-88928535D01*
X105326312Y-88928535D02*
X105386788Y-88958773D01*
X105386788Y-88958773D02*
X105447264Y-88958773D01*
X105447264Y-88958773D02*
X105537978Y-88928535D01*
X105537978Y-88928535D02*
X105900836Y-88565678D01*
X105900836Y-88565678D02*
X105900836Y-88958773D01*
X114223333Y-61749819D02*
X114223333Y-62464104D01*
X114223333Y-62464104D02*
X114270952Y-62606961D01*
X114270952Y-62606961D02*
X114366190Y-62702200D01*
X114366190Y-62702200D02*
X114509047Y-62749819D01*
X114509047Y-62749819D02*
X114604285Y-62749819D01*
X113223333Y-62749819D02*
X113794761Y-62749819D01*
X113509047Y-62749819D02*
X113509047Y-61749819D01*
X113509047Y-61749819D02*
X113604285Y-61892676D01*
X113604285Y-61892676D02*
X113699523Y-61987914D01*
X113699523Y-61987914D02*
X113794761Y-62035533D01*
D10*
X127888214Y-78976682D02*
X127918452Y-79006921D01*
X127918452Y-79006921D02*
X128009166Y-79037159D01*
X128009166Y-79037159D02*
X128069642Y-79037159D01*
X128069642Y-79037159D02*
X128160357Y-79006921D01*
X128160357Y-79006921D02*
X128220833Y-78946444D01*
X128220833Y-78946444D02*
X128251071Y-78885968D01*
X128251071Y-78885968D02*
X128281309Y-78765016D01*
X128281309Y-78765016D02*
X128281309Y-78674301D01*
X128281309Y-78674301D02*
X128251071Y-78553349D01*
X128251071Y-78553349D02*
X128220833Y-78492873D01*
X128220833Y-78492873D02*
X128160357Y-78432397D01*
X128160357Y-78432397D02*
X128069642Y-78402159D01*
X128069642Y-78402159D02*
X128009166Y-78402159D01*
X128009166Y-78402159D02*
X127918452Y-78432397D01*
X127918452Y-78432397D02*
X127888214Y-78462635D01*
X127646309Y-78462635D02*
X127616071Y-78432397D01*
X127616071Y-78432397D02*
X127555595Y-78402159D01*
X127555595Y-78402159D02*
X127404404Y-78402159D01*
X127404404Y-78402159D02*
X127343928Y-78432397D01*
X127343928Y-78432397D02*
X127313690Y-78462635D01*
X127313690Y-78462635D02*
X127283452Y-78523111D01*
X127283452Y-78523111D02*
X127283452Y-78583587D01*
X127283452Y-78583587D02*
X127313690Y-78674301D01*
X127313690Y-78674301D02*
X127676547Y-79037159D01*
X127676547Y-79037159D02*
X127283452Y-79037159D01*
X127071785Y-78402159D02*
X126648452Y-78402159D01*
X126648452Y-78402159D02*
X126920595Y-79037159D01*
D11*
X132889686Y-81768785D02*
X132919925Y-81738547D01*
X132919925Y-81738547D02*
X132950163Y-81647833D01*
X132950163Y-81647833D02*
X132950163Y-81587357D01*
X132950163Y-81587357D02*
X132919925Y-81496642D01*
X132919925Y-81496642D02*
X132859448Y-81436166D01*
X132859448Y-81436166D02*
X132798972Y-81405928D01*
X132798972Y-81405928D02*
X132678020Y-81375690D01*
X132678020Y-81375690D02*
X132587305Y-81375690D01*
X132587305Y-81375690D02*
X132466353Y-81405928D01*
X132466353Y-81405928D02*
X132405877Y-81436166D01*
X132405877Y-81436166D02*
X132345401Y-81496642D01*
X132345401Y-81496642D02*
X132315163Y-81587357D01*
X132315163Y-81587357D02*
X132315163Y-81647833D01*
X132315163Y-81647833D02*
X132345401Y-81738547D01*
X132345401Y-81738547D02*
X132375639Y-81768785D01*
X132950163Y-82373547D02*
X132950163Y-82010690D01*
X132950163Y-82192118D02*
X132315163Y-82192118D01*
X132315163Y-82192118D02*
X132405877Y-82131642D01*
X132405877Y-82131642D02*
X132466353Y-82071166D01*
X132466353Y-82071166D02*
X132496591Y-82010690D01*
X132526829Y-82917833D02*
X132950163Y-82917833D01*
X132284925Y-82766642D02*
X132738496Y-82615452D01*
X132738496Y-82615452D02*
X132738496Y-83008547D01*
D12*
X121226571Y-81181345D02*
X121250762Y-81205536D01*
X121250762Y-81205536D02*
X121323333Y-81229726D01*
X121323333Y-81229726D02*
X121371714Y-81229726D01*
X121371714Y-81229726D02*
X121444286Y-81205536D01*
X121444286Y-81205536D02*
X121492667Y-81157155D01*
X121492667Y-81157155D02*
X121516857Y-81108774D01*
X121516857Y-81108774D02*
X121541048Y-81012012D01*
X121541048Y-81012012D02*
X121541048Y-80939440D01*
X121541048Y-80939440D02*
X121516857Y-80842678D01*
X121516857Y-80842678D02*
X121492667Y-80794297D01*
X121492667Y-80794297D02*
X121444286Y-80745916D01*
X121444286Y-80745916D02*
X121371714Y-80721726D01*
X121371714Y-80721726D02*
X121323333Y-80721726D01*
X121323333Y-80721726D02*
X121250762Y-80745916D01*
X121250762Y-80745916D02*
X121226571Y-80770107D01*
X121057238Y-80721726D02*
X120742762Y-80721726D01*
X120742762Y-80721726D02*
X120912095Y-80915250D01*
X120912095Y-80915250D02*
X120839524Y-80915250D01*
X120839524Y-80915250D02*
X120791143Y-80939440D01*
X120791143Y-80939440D02*
X120766952Y-80963631D01*
X120766952Y-80963631D02*
X120742762Y-81012012D01*
X120742762Y-81012012D02*
X120742762Y-81132964D01*
X120742762Y-81132964D02*
X120766952Y-81181345D01*
X120766952Y-81181345D02*
X120791143Y-81205536D01*
X120791143Y-81205536D02*
X120839524Y-81229726D01*
X120839524Y-81229726D02*
X120984667Y-81229726D01*
X120984667Y-81229726D02*
X121033048Y-81205536D01*
X121033048Y-81205536D02*
X121057238Y-81181345D01*
X120549238Y-80770107D02*
X120525047Y-80745916D01*
X120525047Y-80745916D02*
X120476666Y-80721726D01*
X120476666Y-80721726D02*
X120355714Y-80721726D01*
X120355714Y-80721726D02*
X120307333Y-80745916D01*
X120307333Y-80745916D02*
X120283142Y-80770107D01*
X120283142Y-80770107D02*
X120258952Y-80818488D01*
X120258952Y-80818488D02*
X120258952Y-80866869D01*
X120258952Y-80866869D02*
X120283142Y-80939440D01*
X120283142Y-80939440D02*
X120573428Y-81229726D01*
X120573428Y-81229726D02*
X120258952Y-81229726D01*
D10*
X131884559Y-92581185D02*
X131582178Y-92369518D01*
X131884559Y-92218328D02*
X131249559Y-92218328D01*
X131249559Y-92218328D02*
X131249559Y-92460233D01*
X131249559Y-92460233D02*
X131279797Y-92520709D01*
X131279797Y-92520709D02*
X131310035Y-92550947D01*
X131310035Y-92550947D02*
X131370511Y-92581185D01*
X131370511Y-92581185D02*
X131461225Y-92581185D01*
X131461225Y-92581185D02*
X131521701Y-92550947D01*
X131521701Y-92550947D02*
X131551940Y-92520709D01*
X131551940Y-92520709D02*
X131582178Y-92460233D01*
X131582178Y-92460233D02*
X131582178Y-92218328D01*
X131310035Y-92823090D02*
X131279797Y-92853328D01*
X131279797Y-92853328D02*
X131249559Y-92913804D01*
X131249559Y-92913804D02*
X131249559Y-93064995D01*
X131249559Y-93064995D02*
X131279797Y-93125471D01*
X131279797Y-93125471D02*
X131310035Y-93155709D01*
X131310035Y-93155709D02*
X131370511Y-93185947D01*
X131370511Y-93185947D02*
X131430987Y-93185947D01*
X131430987Y-93185947D02*
X131521701Y-93155709D01*
X131521701Y-93155709D02*
X131884559Y-92792852D01*
X131884559Y-92792852D02*
X131884559Y-93185947D01*
X131884559Y-93790709D02*
X131884559Y-93427852D01*
X131884559Y-93609280D02*
X131249559Y-93609280D01*
X131249559Y-93609280D02*
X131340273Y-93548804D01*
X131340273Y-93548804D02*
X131400749Y-93488328D01*
X131400749Y-93488328D02*
X131430987Y-93427852D01*
D11*
X97895833Y-82636986D02*
X97926071Y-82667225D01*
X97926071Y-82667225D02*
X98016785Y-82697463D01*
X98016785Y-82697463D02*
X98077261Y-82697463D01*
X98077261Y-82697463D02*
X98167976Y-82667225D01*
X98167976Y-82667225D02*
X98228452Y-82606748D01*
X98228452Y-82606748D02*
X98258690Y-82546272D01*
X98258690Y-82546272D02*
X98288928Y-82425320D01*
X98288928Y-82425320D02*
X98288928Y-82334605D01*
X98288928Y-82334605D02*
X98258690Y-82213653D01*
X98258690Y-82213653D02*
X98228452Y-82153177D01*
X98228452Y-82153177D02*
X98167976Y-82092701D01*
X98167976Y-82092701D02*
X98077261Y-82062463D01*
X98077261Y-82062463D02*
X98016785Y-82062463D01*
X98016785Y-82062463D02*
X97926071Y-82092701D01*
X97926071Y-82092701D02*
X97895833Y-82122939D01*
X97684166Y-82062463D02*
X97260833Y-82062463D01*
X97260833Y-82062463D02*
X97532976Y-82697463D01*
D12*
X122526571Y-80581345D02*
X122550762Y-80605536D01*
X122550762Y-80605536D02*
X122623333Y-80629726D01*
X122623333Y-80629726D02*
X122671714Y-80629726D01*
X122671714Y-80629726D02*
X122744286Y-80605536D01*
X122744286Y-80605536D02*
X122792667Y-80557155D01*
X122792667Y-80557155D02*
X122816857Y-80508774D01*
X122816857Y-80508774D02*
X122841048Y-80412012D01*
X122841048Y-80412012D02*
X122841048Y-80339440D01*
X122841048Y-80339440D02*
X122816857Y-80242678D01*
X122816857Y-80242678D02*
X122792667Y-80194297D01*
X122792667Y-80194297D02*
X122744286Y-80145916D01*
X122744286Y-80145916D02*
X122671714Y-80121726D01*
X122671714Y-80121726D02*
X122623333Y-80121726D01*
X122623333Y-80121726D02*
X122550762Y-80145916D01*
X122550762Y-80145916D02*
X122526571Y-80170107D01*
X122357238Y-80121726D02*
X122042762Y-80121726D01*
X122042762Y-80121726D02*
X122212095Y-80315250D01*
X122212095Y-80315250D02*
X122139524Y-80315250D01*
X122139524Y-80315250D02*
X122091143Y-80339440D01*
X122091143Y-80339440D02*
X122066952Y-80363631D01*
X122066952Y-80363631D02*
X122042762Y-80412012D01*
X122042762Y-80412012D02*
X122042762Y-80532964D01*
X122042762Y-80532964D02*
X122066952Y-80581345D01*
X122066952Y-80581345D02*
X122091143Y-80605536D01*
X122091143Y-80605536D02*
X122139524Y-80629726D01*
X122139524Y-80629726D02*
X122284667Y-80629726D01*
X122284667Y-80629726D02*
X122333048Y-80605536D01*
X122333048Y-80605536D02*
X122357238Y-80581345D01*
X121583142Y-80121726D02*
X121825047Y-80121726D01*
X121825047Y-80121726D02*
X121849238Y-80363631D01*
X121849238Y-80363631D02*
X121825047Y-80339440D01*
X121825047Y-80339440D02*
X121776666Y-80315250D01*
X121776666Y-80315250D02*
X121655714Y-80315250D01*
X121655714Y-80315250D02*
X121607333Y-80339440D01*
X121607333Y-80339440D02*
X121583142Y-80363631D01*
X121583142Y-80363631D02*
X121558952Y-80412012D01*
X121558952Y-80412012D02*
X121558952Y-80532964D01*
X121558952Y-80532964D02*
X121583142Y-80581345D01*
X121583142Y-80581345D02*
X121607333Y-80605536D01*
X121607333Y-80605536D02*
X121655714Y-80629726D01*
X121655714Y-80629726D02*
X121776666Y-80629726D01*
X121776666Y-80629726D02*
X121825047Y-80605536D01*
X121825047Y-80605536D02*
X121849238Y-80581345D01*
X121197171Y-82531345D02*
X121221362Y-82555536D01*
X121221362Y-82555536D02*
X121293933Y-82579726D01*
X121293933Y-82579726D02*
X121342314Y-82579726D01*
X121342314Y-82579726D02*
X121414886Y-82555536D01*
X121414886Y-82555536D02*
X121463267Y-82507155D01*
X121463267Y-82507155D02*
X121487457Y-82458774D01*
X121487457Y-82458774D02*
X121511648Y-82362012D01*
X121511648Y-82362012D02*
X121511648Y-82289440D01*
X121511648Y-82289440D02*
X121487457Y-82192678D01*
X121487457Y-82192678D02*
X121463267Y-82144297D01*
X121463267Y-82144297D02*
X121414886Y-82095916D01*
X121414886Y-82095916D02*
X121342314Y-82071726D01*
X121342314Y-82071726D02*
X121293933Y-82071726D01*
X121293933Y-82071726D02*
X121221362Y-82095916D01*
X121221362Y-82095916D02*
X121197171Y-82120107D01*
X121027838Y-82071726D02*
X120713362Y-82071726D01*
X120713362Y-82071726D02*
X120882695Y-82265250D01*
X120882695Y-82265250D02*
X120810124Y-82265250D01*
X120810124Y-82265250D02*
X120761743Y-82289440D01*
X120761743Y-82289440D02*
X120737552Y-82313631D01*
X120737552Y-82313631D02*
X120713362Y-82362012D01*
X120713362Y-82362012D02*
X120713362Y-82482964D01*
X120713362Y-82482964D02*
X120737552Y-82531345D01*
X120737552Y-82531345D02*
X120761743Y-82555536D01*
X120761743Y-82555536D02*
X120810124Y-82579726D01*
X120810124Y-82579726D02*
X120955267Y-82579726D01*
X120955267Y-82579726D02*
X121003648Y-82555536D01*
X121003648Y-82555536D02*
X121027838Y-82531345D01*
X120423076Y-82289440D02*
X120471457Y-82265250D01*
X120471457Y-82265250D02*
X120495647Y-82241059D01*
X120495647Y-82241059D02*
X120519838Y-82192678D01*
X120519838Y-82192678D02*
X120519838Y-82168488D01*
X120519838Y-82168488D02*
X120495647Y-82120107D01*
X120495647Y-82120107D02*
X120471457Y-82095916D01*
X120471457Y-82095916D02*
X120423076Y-82071726D01*
X120423076Y-82071726D02*
X120326314Y-82071726D01*
X120326314Y-82071726D02*
X120277933Y-82095916D01*
X120277933Y-82095916D02*
X120253742Y-82120107D01*
X120253742Y-82120107D02*
X120229552Y-82168488D01*
X120229552Y-82168488D02*
X120229552Y-82192678D01*
X120229552Y-82192678D02*
X120253742Y-82241059D01*
X120253742Y-82241059D02*
X120277933Y-82265250D01*
X120277933Y-82265250D02*
X120326314Y-82289440D01*
X120326314Y-82289440D02*
X120423076Y-82289440D01*
X120423076Y-82289440D02*
X120471457Y-82313631D01*
X120471457Y-82313631D02*
X120495647Y-82337821D01*
X120495647Y-82337821D02*
X120519838Y-82386202D01*
X120519838Y-82386202D02*
X120519838Y-82482964D01*
X120519838Y-82482964D02*
X120495647Y-82531345D01*
X120495647Y-82531345D02*
X120471457Y-82555536D01*
X120471457Y-82555536D02*
X120423076Y-82579726D01*
X120423076Y-82579726D02*
X120326314Y-82579726D01*
X120326314Y-82579726D02*
X120277933Y-82555536D01*
X120277933Y-82555536D02*
X120253742Y-82531345D01*
X120253742Y-82531345D02*
X120229552Y-82482964D01*
X120229552Y-82482964D02*
X120229552Y-82386202D01*
X120229552Y-82386202D02*
X120253742Y-82337821D01*
X120253742Y-82337821D02*
X120277933Y-82313631D01*
X120277933Y-82313631D02*
X120326314Y-82289440D01*
D11*
X115238333Y-95634819D02*
X115238333Y-96349104D01*
X115238333Y-96349104D02*
X115285952Y-96491961D01*
X115285952Y-96491961D02*
X115381190Y-96587200D01*
X115381190Y-96587200D02*
X115524047Y-96634819D01*
X115524047Y-96634819D02*
X115619285Y-96634819D01*
X114809761Y-95730057D02*
X114762142Y-95682438D01*
X114762142Y-95682438D02*
X114666904Y-95634819D01*
X114666904Y-95634819D02*
X114428809Y-95634819D01*
X114428809Y-95634819D02*
X114333571Y-95682438D01*
X114333571Y-95682438D02*
X114285952Y-95730057D01*
X114285952Y-95730057D02*
X114238333Y-95825295D01*
X114238333Y-95825295D02*
X114238333Y-95920533D01*
X114238333Y-95920533D02*
X114285952Y-96063390D01*
X114285952Y-96063390D02*
X114857380Y-96634819D01*
X114857380Y-96634819D02*
X114238333Y-96634819D01*
D12*
X121326571Y-78131345D02*
X121350762Y-78155536D01*
X121350762Y-78155536D02*
X121423333Y-78179726D01*
X121423333Y-78179726D02*
X121471714Y-78179726D01*
X121471714Y-78179726D02*
X121544286Y-78155536D01*
X121544286Y-78155536D02*
X121592667Y-78107155D01*
X121592667Y-78107155D02*
X121616857Y-78058774D01*
X121616857Y-78058774D02*
X121641048Y-77962012D01*
X121641048Y-77962012D02*
X121641048Y-77889440D01*
X121641048Y-77889440D02*
X121616857Y-77792678D01*
X121616857Y-77792678D02*
X121592667Y-77744297D01*
X121592667Y-77744297D02*
X121544286Y-77695916D01*
X121544286Y-77695916D02*
X121471714Y-77671726D01*
X121471714Y-77671726D02*
X121423333Y-77671726D01*
X121423333Y-77671726D02*
X121350762Y-77695916D01*
X121350762Y-77695916D02*
X121326571Y-77720107D01*
X121133048Y-77720107D02*
X121108857Y-77695916D01*
X121108857Y-77695916D02*
X121060476Y-77671726D01*
X121060476Y-77671726D02*
X120939524Y-77671726D01*
X120939524Y-77671726D02*
X120891143Y-77695916D01*
X120891143Y-77695916D02*
X120866952Y-77720107D01*
X120866952Y-77720107D02*
X120842762Y-77768488D01*
X120842762Y-77768488D02*
X120842762Y-77816869D01*
X120842762Y-77816869D02*
X120866952Y-77889440D01*
X120866952Y-77889440D02*
X121157238Y-78179726D01*
X121157238Y-78179726D02*
X120842762Y-78179726D01*
X120649238Y-77720107D02*
X120625047Y-77695916D01*
X120625047Y-77695916D02*
X120576666Y-77671726D01*
X120576666Y-77671726D02*
X120455714Y-77671726D01*
X120455714Y-77671726D02*
X120407333Y-77695916D01*
X120407333Y-77695916D02*
X120383142Y-77720107D01*
X120383142Y-77720107D02*
X120358952Y-77768488D01*
X120358952Y-77768488D02*
X120358952Y-77816869D01*
X120358952Y-77816869D02*
X120383142Y-77889440D01*
X120383142Y-77889440D02*
X120673428Y-78179726D01*
X120673428Y-78179726D02*
X120358952Y-78179726D01*
D10*
X117150014Y-70476682D02*
X117180252Y-70506921D01*
X117180252Y-70506921D02*
X117270966Y-70537159D01*
X117270966Y-70537159D02*
X117331442Y-70537159D01*
X117331442Y-70537159D02*
X117422157Y-70506921D01*
X117422157Y-70506921D02*
X117482633Y-70446444D01*
X117482633Y-70446444D02*
X117512871Y-70385968D01*
X117512871Y-70385968D02*
X117543109Y-70265016D01*
X117543109Y-70265016D02*
X117543109Y-70174301D01*
X117543109Y-70174301D02*
X117512871Y-70053349D01*
X117512871Y-70053349D02*
X117482633Y-69992873D01*
X117482633Y-69992873D02*
X117422157Y-69932397D01*
X117422157Y-69932397D02*
X117331442Y-69902159D01*
X117331442Y-69902159D02*
X117270966Y-69902159D01*
X117270966Y-69902159D02*
X117180252Y-69932397D01*
X117180252Y-69932397D02*
X117150014Y-69962635D01*
X116908109Y-69962635D02*
X116877871Y-69932397D01*
X116877871Y-69932397D02*
X116817395Y-69902159D01*
X116817395Y-69902159D02*
X116666204Y-69902159D01*
X116666204Y-69902159D02*
X116605728Y-69932397D01*
X116605728Y-69932397D02*
X116575490Y-69962635D01*
X116575490Y-69962635D02*
X116545252Y-70023111D01*
X116545252Y-70023111D02*
X116545252Y-70083587D01*
X116545252Y-70083587D02*
X116575490Y-70174301D01*
X116575490Y-70174301D02*
X116938347Y-70537159D01*
X116938347Y-70537159D02*
X116545252Y-70537159D01*
X116000966Y-69902159D02*
X116121919Y-69902159D01*
X116121919Y-69902159D02*
X116182395Y-69932397D01*
X116182395Y-69932397D02*
X116212633Y-69962635D01*
X116212633Y-69962635D02*
X116273109Y-70053349D01*
X116273109Y-70053349D02*
X116303347Y-70174301D01*
X116303347Y-70174301D02*
X116303347Y-70416206D01*
X116303347Y-70416206D02*
X116273109Y-70476682D01*
X116273109Y-70476682D02*
X116242871Y-70506921D01*
X116242871Y-70506921D02*
X116182395Y-70537159D01*
X116182395Y-70537159D02*
X116061442Y-70537159D01*
X116061442Y-70537159D02*
X116000966Y-70506921D01*
X116000966Y-70506921D02*
X115970728Y-70476682D01*
X115970728Y-70476682D02*
X115940490Y-70416206D01*
X115940490Y-70416206D02*
X115940490Y-70265016D01*
X115940490Y-70265016D02*
X115970728Y-70204540D01*
X115970728Y-70204540D02*
X116000966Y-70174301D01*
X116000966Y-70174301D02*
X116061442Y-70144063D01*
X116061442Y-70144063D02*
X116182395Y-70144063D01*
X116182395Y-70144063D02*
X116242871Y-70174301D01*
X116242871Y-70174301D02*
X116273109Y-70204540D01*
X116273109Y-70204540D02*
X116303347Y-70265016D01*
D11*
X92455963Y-84304166D02*
X92455963Y-84001785D01*
X92455963Y-84001785D02*
X91820963Y-84001785D01*
X92455963Y-84848452D02*
X92455963Y-84485595D01*
X92455963Y-84667023D02*
X91820963Y-84667023D01*
X91820963Y-84667023D02*
X91911677Y-84606547D01*
X91911677Y-84606547D02*
X91972153Y-84546071D01*
X91972153Y-84546071D02*
X92002391Y-84485595D01*
D13*
%TO.C,R26*%
X134708900Y-88366600D02*
X134708900Y-91668600D01*
X134708900Y-91668600D02*
X136105900Y-91668600D01*
X136105900Y-88366600D02*
X134708900Y-88366600D01*
X136105900Y-91668600D02*
X136105900Y-88366600D01*
%TO.C,R24*%
X138417300Y-88366600D02*
X138417300Y-91668600D01*
X138417300Y-91668600D02*
X139814300Y-91668600D01*
X139814300Y-88366600D02*
X138417300Y-88366600D01*
X139814300Y-91668600D02*
X139814300Y-88366600D01*
%TO.C,R23*%
X140246100Y-88366600D02*
X140246100Y-91668600D01*
X140246100Y-91668600D02*
X141643100Y-91668600D01*
X141643100Y-88366600D02*
X140246100Y-88366600D01*
X141643100Y-91668600D02*
X141643100Y-88366600D01*
D14*
%TO.C,C1*%
X95323373Y-85347932D02*
X95323373Y-86051758D01*
X96466373Y-86051758D02*
X96466373Y-85347932D01*
%TO.C,C4*%
X95323373Y-77372587D02*
X95323373Y-78076413D01*
X96466373Y-78076413D02*
X96466373Y-77372587D01*
D13*
%TO.C,R31*%
X136512300Y-60553600D02*
X136512300Y-63855600D01*
X136512300Y-63855600D02*
X137909300Y-63855600D01*
X137909300Y-60553600D02*
X136512300Y-60553600D01*
X137909300Y-63855600D02*
X137909300Y-60553600D01*
%TO.C,R33*%
X129070100Y-88378000D02*
X129070100Y-91680000D01*
X129070100Y-91680000D02*
X130467100Y-91680000D01*
X130467100Y-88378000D02*
X129070100Y-88378000D01*
X130467100Y-91680000D02*
X130467100Y-88378000D01*
%TO.C,U1*%
X98432258Y-84279845D02*
X99932258Y-84279845D01*
X98432258Y-86549845D02*
X99932258Y-86549845D01*
X100762258Y-84364845D02*
X100482258Y-84364845D01*
X100482258Y-84084845D01*
X100762258Y-84364845D01*
G36*
X100762258Y-84364845D02*
G01*
X100482258Y-84364845D01*
X100482258Y-84084845D01*
X100762258Y-84364845D01*
G37*
%TO.C,R27*%
X142100300Y-88341200D02*
X142100300Y-91643200D01*
X142100300Y-91643200D02*
X143497300Y-91643200D01*
X143497300Y-88341200D02*
X142100300Y-88341200D01*
X143497300Y-91643200D02*
X143497300Y-88341200D01*
%TO.C,R36*%
X131533900Y-66217800D02*
X131533900Y-69519800D01*
X131533900Y-69519800D02*
X132930900Y-69519800D01*
X132930900Y-66217800D02*
X131533900Y-66217800D01*
X132930900Y-69519800D02*
X132930900Y-66217800D01*
%TO.C,R39*%
X129832100Y-66217800D02*
X129832100Y-69519800D01*
X129832100Y-69519800D02*
X131229100Y-69519800D01*
X131229100Y-66217800D02*
X129832100Y-66217800D01*
X131229100Y-69519800D02*
X131229100Y-66217800D01*
%TO.C,R29*%
X133184900Y-60579000D02*
X133184900Y-63881000D01*
X133184900Y-63881000D02*
X134581900Y-63881000D01*
X134581900Y-60579000D02*
X133184900Y-60579000D01*
X134581900Y-63881000D02*
X134581900Y-60579000D01*
%TO.C,R38*%
X128130300Y-66217800D02*
X128130300Y-69519800D01*
X128130300Y-69519800D02*
X129527300Y-69519800D01*
X129527300Y-66217800D02*
X128130300Y-66217800D01*
X129527300Y-69519800D02*
X129527300Y-66217800D01*
%TO.C,R6*%
X103089854Y-76073000D02*
X103089854Y-79375000D01*
X103089854Y-79375000D02*
X104486854Y-79375000D01*
X104486854Y-76073000D02*
X103089854Y-76073000D01*
X104486854Y-79375000D02*
X104486854Y-76073000D01*
%TO.C,R34*%
X125387100Y-88392000D02*
X125387100Y-91694000D01*
X125387100Y-91694000D02*
X126784100Y-91694000D01*
X126784100Y-88392000D02*
X125387100Y-88392000D01*
X126784100Y-91694000D02*
X126784100Y-88392000D01*
%TO.C,R35*%
X127533200Y-60629800D02*
X127533200Y-63931800D01*
X127533200Y-63931800D02*
X128930200Y-63931800D01*
X128930200Y-60629800D02*
X127533200Y-60629800D01*
X128930200Y-63931800D02*
X128930200Y-60629800D01*
%TO.C,R22*%
X132854700Y-88366600D02*
X132854700Y-91668600D01*
X132854700Y-91668600D02*
X134251700Y-91668600D01*
X134251700Y-88366600D02*
X132854700Y-88366600D01*
X134251700Y-91668600D02*
X134251700Y-88366600D01*
%TO.C,R25*%
X136588500Y-88366600D02*
X136588500Y-91668600D01*
X136588500Y-91668600D02*
X137985500Y-91668600D01*
X137985500Y-88366600D02*
X136588500Y-88366600D01*
X137985500Y-91668600D02*
X137985500Y-88366600D01*
%TO.C,R2*%
X101057854Y-83860845D02*
X101057854Y-87162845D01*
X101057854Y-87162845D02*
X102454854Y-87162845D01*
X102454854Y-83860845D02*
X101057854Y-83860845D01*
X102454854Y-87162845D02*
X102454854Y-83860845D01*
%TO.C,R7*%
X101057854Y-76073000D02*
X101057854Y-79375000D01*
X101057854Y-79375000D02*
X102454854Y-79375000D01*
X102454854Y-76073000D02*
X101057854Y-76073000D01*
X102454854Y-79375000D02*
X102454854Y-76073000D01*
%TO.C,U5*%
X98432258Y-66772600D02*
X99932258Y-66772600D01*
X98432258Y-69042600D02*
X99932258Y-69042600D01*
X100762258Y-66857600D02*
X100482258Y-66857600D01*
X100482258Y-66577600D01*
X100762258Y-66857600D01*
G36*
X100762258Y-66857600D02*
G01*
X100482258Y-66857600D01*
X100482258Y-66577600D01*
X100762258Y-66857600D01*
G37*
%TO.C,U3*%
X98432258Y-76323000D02*
X99932258Y-76323000D01*
X98432258Y-78593000D02*
X99932258Y-78593000D01*
X100762258Y-76408000D02*
X100482258Y-76408000D01*
X100482258Y-76128000D01*
X100762258Y-76408000D01*
G36*
X100762258Y-76408000D02*
G01*
X100482258Y-76408000D01*
X100482258Y-76128000D01*
X100762258Y-76408000D01*
G37*
%TO.C,R30*%
X134861300Y-60553600D02*
X134861300Y-63855600D01*
X134861300Y-63855600D02*
X136258300Y-63855600D01*
X136258300Y-60553600D02*
X134861300Y-60553600D01*
X136258300Y-63855600D02*
X136258300Y-60553600D01*
%TO.C,R12*%
X101057854Y-66522600D02*
X101057854Y-69824600D01*
X101057854Y-69824600D02*
X102454854Y-69824600D01*
X102454854Y-66522600D02*
X101057854Y-66522600D01*
X102454854Y-69824600D02*
X102454854Y-66522600D01*
%TO.C,C12*%
X129448900Y-62427067D02*
X129448900Y-62134533D01*
X130468900Y-62427067D02*
X130468900Y-62134533D01*
%TO.C,R37*%
X133235700Y-66217800D02*
X133235700Y-69519800D01*
X133235700Y-69519800D02*
X134632700Y-69519800D01*
X134632700Y-66217800D02*
X133235700Y-66217800D01*
X134632700Y-69519800D02*
X134632700Y-66217800D01*
%TO.C,R1*%
X103089854Y-83860845D02*
X103089854Y-87162845D01*
X103089854Y-87162845D02*
X104486854Y-87162845D01*
X104486854Y-83860845D02*
X103089854Y-83860845D01*
X104486854Y-87162845D02*
X104486854Y-83860845D01*
%TO.C,R32*%
X127215900Y-88392000D02*
X127215900Y-91694000D01*
X127215900Y-91694000D02*
X128612900Y-91694000D01*
X128612900Y-88392000D02*
X127215900Y-88392000D01*
X128612900Y-91694000D02*
X128612900Y-88392000D01*
D14*
%TO.C,C8*%
X95323373Y-67796287D02*
X95323373Y-68500113D01*
X96466373Y-68500113D02*
X96466373Y-67796287D01*
D13*
%TO.C,R11*%
X103089854Y-66522600D02*
X103089854Y-69824600D01*
X103089854Y-69824600D02*
X104486854Y-69824600D01*
X104486854Y-66522600D02*
X103089854Y-66522600D01*
X104486854Y-69824600D02*
X104486854Y-66522600D01*
D14*
%TO.C,L2*%
X90317673Y-77393800D02*
X90317673Y-81254600D01*
X90317673Y-81254600D02*
X91385834Y-81254600D01*
X91385834Y-77393800D02*
X90317673Y-77393800D01*
X92703912Y-81254600D02*
X93772073Y-81254600D01*
X93772073Y-77393800D02*
X92703912Y-77393800D01*
X93772073Y-81254600D02*
X93772073Y-77393800D01*
D13*
%TO.C,R28*%
X131508500Y-60579000D02*
X131508500Y-63881000D01*
X131508500Y-63881000D02*
X132905500Y-63881000D01*
X132905500Y-60579000D02*
X131508500Y-60579000D01*
X132905500Y-63881000D02*
X132905500Y-60579000D01*
D14*
%TO.C,L3*%
X90317673Y-67792600D02*
X90317673Y-71653400D01*
X90317673Y-71653400D02*
X91385834Y-71653400D01*
X91385834Y-67792600D02*
X90317673Y-67792600D01*
X92703912Y-71653400D02*
X93772073Y-71653400D01*
X93772073Y-67792600D02*
X92703912Y-67792600D01*
X93772073Y-71653400D02*
X93772073Y-67792600D01*
D10*
%TO.C,J1*%
X104110000Y-63215000D02*
X104110000Y-61365000D01*
X125630000Y-61365000D02*
X125630000Y-63215000D01*
D15*
X124799800Y-60054800D02*
G75*
G02*
X124599800Y-60054800I-100000J0D01*
G01*
X124599800Y-60054800D02*
G75*
G02*
X124799800Y-60054800I100000J0D01*
G01*
D13*
%TO.C,R21*%
X130949700Y-88366600D02*
X130949700Y-91668600D01*
X130949700Y-91668600D02*
X132346700Y-91668600D01*
X132346700Y-88366600D02*
X130949700Y-88366600D01*
X132346700Y-91668600D02*
X132346700Y-88366600D01*
D10*
%TO.C,J2*%
X104110000Y-97210000D02*
X104110000Y-95360000D01*
X125630000Y-95360000D02*
X125630000Y-97210000D01*
D15*
X124799800Y-94049800D02*
G75*
G02*
X124599800Y-94049800I-100000J0D01*
G01*
X124599800Y-94049800D02*
G75*
G02*
X124799800Y-94049800I100000J0D01*
G01*
D14*
%TO.C,L1*%
X90317673Y-85319445D02*
X90317673Y-89180245D01*
X90317673Y-89180245D02*
X91385834Y-89180245D01*
X91385834Y-85319445D02*
X90317673Y-85319445D01*
X92703912Y-89180245D02*
X93772073Y-89180245D01*
X93772073Y-85319445D02*
X92703912Y-85319445D01*
X93772073Y-89180245D02*
X93772073Y-85319445D01*
%TD*%
%LPC*%
D16*
%TO.C,H3*%
X93370128Y-95780000D03*
%TD*%
%TO.C,H2*%
X141375036Y-62790128D03*
%TD*%
%TO.C,H4*%
X141369872Y-95780000D03*
%TD*%
%TO.C,H1*%
X93370000Y-62790128D03*
%TD*%
D17*
%TO.C,R26*%
X135407400Y-89142600D03*
X135407400Y-90892600D03*
%TD*%
D18*
%TO.C,C23*%
X124260000Y-82300000D03*
X125800000Y-82300000D03*
%TD*%
D17*
%TO.C,R24*%
X139115800Y-89142600D03*
X139115800Y-90892600D03*
%TD*%
D19*
%TO.C,C16*%
X142824200Y-83837400D03*
X142824200Y-85377400D03*
%TD*%
D17*
%TO.C,R23*%
X140944600Y-89142600D03*
X140944600Y-90892600D03*
%TD*%
D18*
%TO.C,C29*%
X124250000Y-80500000D03*
X125790000Y-80500000D03*
%TD*%
D20*
%TO.C,C1*%
X95894873Y-84874345D03*
X95894873Y-86525345D03*
%TD*%
%TO.C,C4*%
X95894873Y-76899000D03*
X95894873Y-78550000D03*
%TD*%
D21*
%TO.C,C36*%
X118491200Y-82900000D03*
X119050000Y-82900000D03*
%TD*%
%TO.C,C33*%
X118070600Y-76400000D03*
X118629400Y-76400000D03*
%TD*%
D22*
%TO.C,R31*%
X137210800Y-63079600D03*
X137210800Y-61329600D03*
%TD*%
D23*
%TO.C,C28*%
X111350000Y-85577700D03*
X111350000Y-86822300D03*
%TD*%
D22*
%TO.C,R33*%
X129768600Y-90904000D03*
X129768600Y-89154000D03*
%TD*%
D18*
%TO.C,C20*%
X124260000Y-76900000D03*
X125800000Y-76900000D03*
%TD*%
D24*
%TO.C,U1*%
X99907258Y-84664845D03*
X99907258Y-85164845D03*
X99907258Y-85664845D03*
X99907258Y-86164845D03*
X98457258Y-86164845D03*
X98457258Y-85664845D03*
X98457258Y-85164845D03*
X98457258Y-84664845D03*
%TD*%
D22*
%TO.C,R27*%
X142798800Y-90867200D03*
X142798800Y-89117200D03*
%TD*%
D25*
%TO.C,C31*%
X121329400Y-75600000D03*
X120770600Y-75600000D03*
%TD*%
D17*
%TO.C,R36*%
X132232400Y-66993800D03*
X132232400Y-68743800D03*
%TD*%
D26*
%TO.C,C34*%
X116750000Y-82479400D03*
X116750000Y-81920600D03*
%TD*%
D19*
%TO.C,C30*%
X142800000Y-79310000D03*
X142800000Y-80850000D03*
%TD*%
D22*
%TO.C,R39*%
X130530600Y-68743800D03*
X130530600Y-66993800D03*
%TD*%
D27*
%TO.C,C6*%
X95209888Y-80772000D03*
X96454488Y-80772000D03*
%TD*%
D17*
%TO.C,R29*%
X133883400Y-61355000D03*
X133883400Y-63105000D03*
%TD*%
D27*
%TO.C,C18*%
X95209888Y-92024200D03*
X96454488Y-92024200D03*
%TD*%
D22*
%TO.C,R38*%
X128828800Y-68743800D03*
X128828800Y-66993800D03*
%TD*%
D26*
%TO.C,C41*%
X122250000Y-72658800D03*
X122250000Y-72100000D03*
%TD*%
D22*
%TO.C,R6*%
X103788354Y-78599000D03*
X103788354Y-76849000D03*
%TD*%
%TO.C,R34*%
X126085600Y-90918000D03*
X126085600Y-89168000D03*
%TD*%
D27*
%TO.C,C19*%
X95209888Y-88578845D03*
X96454488Y-88578845D03*
%TD*%
D22*
%TO.C,R35*%
X128231700Y-63155800D03*
X128231700Y-61405800D03*
%TD*%
D19*
%TO.C,C15*%
X142824200Y-69181600D03*
X142824200Y-70721600D03*
%TD*%
D17*
%TO.C,R22*%
X133553200Y-89142600D03*
X133553200Y-90892600D03*
%TD*%
%TO.C,R25*%
X137287000Y-89142600D03*
X137287000Y-90892600D03*
%TD*%
%TO.C,R2*%
X101756354Y-84636845D03*
X101756354Y-86386845D03*
%TD*%
D28*
%TO.C,C5*%
X105586354Y-78346300D03*
X105586354Y-77101700D03*
%TD*%
D25*
%TO.C,C40*%
X121308800Y-74750000D03*
X120750000Y-74750000D03*
%TD*%
D19*
%TO.C,C24*%
X116350000Y-77080000D03*
X116350000Y-78620000D03*
%TD*%
D17*
%TO.C,R7*%
X101756354Y-76849000D03*
X101756354Y-78599000D03*
%TD*%
D28*
%TO.C,C9*%
X105586354Y-68795900D03*
X105586354Y-67551300D03*
%TD*%
D24*
%TO.C,U5*%
X99907258Y-67157600D03*
X99907258Y-67657600D03*
X99907258Y-68157600D03*
X99907258Y-68657600D03*
X98457258Y-68657600D03*
X98457258Y-68157600D03*
X98457258Y-67657600D03*
X98457258Y-67157600D03*
%TD*%
D19*
%TO.C,C13*%
X131292600Y-85742400D03*
X131292600Y-87282400D03*
%TD*%
D24*
%TO.C,U3*%
X99907258Y-76708000D03*
X99907258Y-77208000D03*
X99907258Y-77708000D03*
X99907258Y-78208000D03*
X98457258Y-78208000D03*
X98457258Y-77708000D03*
X98457258Y-77208000D03*
X98457258Y-76708000D03*
%TD*%
D22*
%TO.C,R30*%
X135559800Y-63079600D03*
X135559800Y-61329600D03*
%TD*%
D18*
%TO.C,C21*%
X124260000Y-75150000D03*
X125800000Y-75150000D03*
%TD*%
D17*
%TO.C,R12*%
X101756354Y-67298600D03*
X101756354Y-69048600D03*
%TD*%
D27*
%TO.C,C10*%
X95237300Y-72263000D03*
X96481900Y-72263000D03*
%TD*%
%TO.C,C3*%
X95209888Y-90119200D03*
X96454488Y-90119200D03*
%TD*%
D29*
%TO.C,C12*%
X129958900Y-61418300D03*
X129958900Y-63143300D03*
%TD*%
D22*
%TO.C,R37*%
X133934200Y-68743800D03*
X133934200Y-66993800D03*
%TD*%
D25*
%TO.C,C39*%
X117479400Y-80950000D03*
X116920600Y-80950000D03*
%TD*%
D22*
%TO.C,R1*%
X103788354Y-86386845D03*
X103788354Y-84636845D03*
%TD*%
%TO.C,R32*%
X127914400Y-90918000D03*
X127914400Y-89168000D03*
%TD*%
D20*
%TO.C,C8*%
X95894873Y-67322700D03*
X95894873Y-68973700D03*
%TD*%
D21*
%TO.C,C42*%
X118500000Y-81600000D03*
X119058800Y-81600000D03*
%TD*%
D22*
%TO.C,R11*%
X103788354Y-69048600D03*
X103788354Y-67298600D03*
%TD*%
D26*
%TO.C,C37*%
X118350000Y-75279400D03*
X118350000Y-74720600D03*
%TD*%
D30*
%TO.C,L2*%
X92044873Y-78130400D03*
X92044873Y-80518000D03*
%TD*%
D22*
%TO.C,R28*%
X132207000Y-63105000D03*
X132207000Y-61355000D03*
%TD*%
D27*
%TO.C,C25*%
X118477700Y-79300000D03*
X119722300Y-79300000D03*
%TD*%
D30*
%TO.C,L3*%
X92044873Y-68529200D03*
X92044873Y-70916800D03*
%TD*%
D28*
%TO.C,C2*%
X105586354Y-86134145D03*
X105586354Y-84889545D03*
%TD*%
D31*
%TO.C,J1*%
X124670000Y-60935000D03*
X124670000Y-63645000D03*
X124270000Y-60935000D03*
X124270000Y-63645000D03*
X123870000Y-60935000D03*
X123870000Y-63645000D03*
X123470000Y-60935000D03*
X123470000Y-63645000D03*
X123070000Y-60935000D03*
X123070000Y-63645000D03*
X122670000Y-60935000D03*
X122670000Y-63645000D03*
X122270000Y-60935000D03*
X122270000Y-63645000D03*
X121870000Y-60935000D03*
X121870000Y-63645000D03*
X121470000Y-60935000D03*
X121470000Y-63645000D03*
X121070000Y-60935000D03*
X121070000Y-63645000D03*
X120670000Y-60935000D03*
X120670000Y-63645000D03*
X120270000Y-60935000D03*
X120270000Y-63645000D03*
X119870000Y-60935000D03*
X119870000Y-63645000D03*
X119470000Y-60935000D03*
X119470000Y-63645000D03*
X119070000Y-60935000D03*
X119070000Y-63645000D03*
X118670000Y-60935000D03*
X118670000Y-63645000D03*
X118270000Y-60935000D03*
X118270000Y-63645000D03*
X117870000Y-60935000D03*
X117870000Y-63645000D03*
X117470000Y-60935000D03*
X117470000Y-63645000D03*
X117070000Y-60935000D03*
X117070000Y-63645000D03*
X116670000Y-60935000D03*
X116670000Y-63645000D03*
X116270000Y-60935000D03*
X116270000Y-63645000D03*
X115870000Y-60935000D03*
X115870000Y-63645000D03*
X115470000Y-60935000D03*
X115470000Y-63645000D03*
X115070000Y-60935000D03*
X115070000Y-63645000D03*
X114670000Y-60935000D03*
X114670000Y-63645000D03*
X114270000Y-60935000D03*
X114270000Y-63645000D03*
X113870000Y-60935000D03*
X113870000Y-63645000D03*
X113470000Y-60935000D03*
X113470000Y-63645000D03*
X113070000Y-60935000D03*
X113070000Y-63645000D03*
X112670000Y-60935000D03*
X112670000Y-63645000D03*
X112270000Y-60935000D03*
X112270000Y-63645000D03*
X111870000Y-60935000D03*
X111870000Y-63645000D03*
X111470000Y-60935000D03*
X111470000Y-63645000D03*
X111070000Y-60935000D03*
X111070000Y-63645000D03*
X110670000Y-60935000D03*
X110670000Y-63645000D03*
X110270000Y-60935000D03*
X110270000Y-63645000D03*
X109870000Y-60935000D03*
X109870000Y-63645000D03*
X109470000Y-60935000D03*
X109470000Y-63645000D03*
X109070000Y-60935000D03*
X109070000Y-63645000D03*
X108670000Y-60935000D03*
X108670000Y-63645000D03*
X108270000Y-60935000D03*
X108270000Y-63645000D03*
X107870000Y-60935000D03*
X107870000Y-63645000D03*
X107470000Y-60935000D03*
X107470000Y-63645000D03*
X107070000Y-60935000D03*
X107070000Y-63645000D03*
X106670000Y-60935000D03*
X106670000Y-63645000D03*
X106270000Y-60935000D03*
X106270000Y-63645000D03*
X105870000Y-60935000D03*
X105870000Y-63645000D03*
X105470000Y-60935000D03*
X105470000Y-63645000D03*
X105070000Y-60935000D03*
X105070000Y-63645000D03*
D32*
X125145000Y-63645000D03*
X125145000Y-60935000D03*
X104595000Y-63645000D03*
X104595000Y-60935000D03*
%TD*%
D18*
%TO.C,C27*%
X124260000Y-78650000D03*
X125800000Y-78650000D03*
%TD*%
D19*
%TO.C,C14*%
X131292600Y-81399000D03*
X131292600Y-82939000D03*
%TD*%
D21*
%TO.C,C32*%
X118500000Y-80950000D03*
X119058800Y-80950000D03*
%TD*%
D17*
%TO.C,R21*%
X131648200Y-89142600D03*
X131648200Y-90892600D03*
%TD*%
D27*
%TO.C,C7*%
X95209888Y-82423000D03*
X96454488Y-82423000D03*
%TD*%
D26*
%TO.C,C35*%
X122100000Y-79629400D03*
X122100000Y-79070600D03*
%TD*%
D21*
%TO.C,C38*%
X118491200Y-82250000D03*
X119050000Y-82250000D03*
%TD*%
D31*
%TO.C,J2*%
X124670000Y-94930000D03*
X124670000Y-97640000D03*
X124270000Y-94930000D03*
X124270000Y-97640000D03*
X123870000Y-94930000D03*
X123870000Y-97640000D03*
X123470000Y-94930000D03*
X123470000Y-97640000D03*
X123070000Y-94930000D03*
X123070000Y-97640000D03*
X122670000Y-94930000D03*
X122670000Y-97640000D03*
X122270000Y-94930000D03*
X122270000Y-97640000D03*
X121870000Y-94930000D03*
X121870000Y-97640000D03*
X121470000Y-94930000D03*
X121470000Y-97640000D03*
X121070000Y-94930000D03*
X121070000Y-97640000D03*
X120670000Y-94930000D03*
X120670000Y-97640000D03*
X120270000Y-94930000D03*
X120270000Y-97640000D03*
X119870000Y-94930000D03*
X119870000Y-97640000D03*
X119470000Y-94930000D03*
X119470000Y-97640000D03*
X119070000Y-94930000D03*
X119070000Y-97640000D03*
X118670000Y-94930000D03*
X118670000Y-97640000D03*
X118270000Y-94930000D03*
X118270000Y-97640000D03*
X117870000Y-94930000D03*
X117870000Y-97640000D03*
X117470000Y-94930000D03*
X117470000Y-97640000D03*
X117070000Y-94930000D03*
X117070000Y-97640000D03*
X116670000Y-94930000D03*
X116670000Y-97640000D03*
X116270000Y-94930000D03*
X116270000Y-97640000D03*
X115870000Y-94930000D03*
X115870000Y-97640000D03*
X115470000Y-94930000D03*
X115470000Y-97640000D03*
X115070000Y-94930000D03*
X115070000Y-97640000D03*
X114670000Y-94930000D03*
X114670000Y-97640000D03*
X114270000Y-94930000D03*
X114270000Y-97640000D03*
X113870000Y-94930000D03*
X113870000Y-97640000D03*
X113470000Y-94930000D03*
X113470000Y-97640000D03*
X113070000Y-94930000D03*
X113070000Y-97640000D03*
X112670000Y-94930000D03*
X112670000Y-97640000D03*
X112270000Y-94930000D03*
X112270000Y-97640000D03*
X111870000Y-94930000D03*
X111870000Y-97640000D03*
X111470000Y-94930000D03*
X111470000Y-97640000D03*
X111070000Y-94930000D03*
X111070000Y-97640000D03*
X110670000Y-94930000D03*
X110670000Y-97640000D03*
X110270000Y-94930000D03*
X110270000Y-97640000D03*
X109870000Y-94930000D03*
X109870000Y-97640000D03*
X109470000Y-94930000D03*
X109470000Y-97640000D03*
X109070000Y-94930000D03*
X109070000Y-97640000D03*
X108670000Y-94930000D03*
X108670000Y-97640000D03*
X108270000Y-94930000D03*
X108270000Y-97640000D03*
X107870000Y-94930000D03*
X107870000Y-97640000D03*
X107470000Y-94930000D03*
X107470000Y-97640000D03*
X107070000Y-94930000D03*
X107070000Y-97640000D03*
X106670000Y-94930000D03*
X106670000Y-97640000D03*
X106270000Y-94930000D03*
X106270000Y-97640000D03*
X105870000Y-94930000D03*
X105870000Y-97640000D03*
X105470000Y-94930000D03*
X105470000Y-97640000D03*
X105070000Y-94930000D03*
X105070000Y-97640000D03*
D32*
X125145000Y-97640000D03*
X125145000Y-94930000D03*
X104595000Y-97640000D03*
X104595000Y-94930000D03*
%TD*%
D27*
%TO.C,C22*%
X118477700Y-78003400D03*
X119722300Y-78003400D03*
%TD*%
D18*
%TO.C,C26*%
X113480000Y-70150000D03*
X115020000Y-70150000D03*
%TD*%
D30*
%TO.C,L1*%
X92044873Y-86056045D03*
X92044873Y-88443645D03*
%TD*%
%LPD*%
M02*
