%TF.GenerationSoftware,KiCad,Pcbnew,8.0.1*%
%TF.CreationDate,2024-12-16T00:39:24-05:00*%
%TF.ProjectId,cm,636d2e6b-6963-4616-945f-706362585858,rev?*%
%TF.SameCoordinates,Original*%
%TF.FileFunction,Legend,Top*%
%TF.FilePolarity,Positive*%
%FSLAX46Y46*%
G04 Gerber Fmt 4.6, Leading zero omitted, Abs format (unit mm)*
G04 Created by KiCad (PCBNEW 8.0.1) date 2024-12-16 00:39:24*
%MOMM*%
%LPD*%
G01*
G04 APERTURE LIST*
G04 Aperture macros list*
%AMRoundRect*
0 Rectangle with rounded corners*
0 $1 Rounding radius*
0 $2 $3 $4 $5 $6 $7 $8 $9 X,Y pos of 4 corners*
0 Add a 4 corners polygon primitive as box body*
4,1,4,$2,$3,$4,$5,$6,$7,$8,$9,$2,$3,0*
0 Add four circle primitives for the rounded corners*
1,1,$1+$1,$2,$3*
1,1,$1+$1,$4,$5*
1,1,$1+$1,$6,$7*
1,1,$1+$1,$8,$9*
0 Add four rect primitives between the rounded corners*
20,1,$1+$1,$2,$3,$4,$5,0*
20,1,$1+$1,$4,$5,$6,$7,0*
20,1,$1+$1,$6,$7,$8,$9,0*
20,1,$1+$1,$8,$9,$2,$3,0*%
G04 Aperture macros list end*
%ADD10C,0.254000*%
%ADD11C,0.375000*%
%ADD12C,0.381000*%
%ADD13C,0.150000*%
%ADD14C,0.127000*%
%ADD15C,0.120000*%
%ADD16C,0.200000*%
%ADD17RoundRect,0.238100X0.288100X0.238100X-0.288100X0.238100X-0.288100X-0.238100X0.288100X-0.238100X0*%
%ADD18RoundRect,0.275600X0.325600X0.275600X-0.325600X0.275600X-0.325600X-0.275600X0.325600X-0.275600X0*%
%ADD19C,2.852400*%
%ADD20C,0.550000*%
%ADD21RoundRect,0.275600X0.275600X-0.338100X0.275600X0.338100X-0.275600X0.338100X-0.275600X-0.338100X0*%
%ADD22RoundRect,0.098000X0.809000X0.294000X-0.809000X0.294000X-0.809000X-0.294000X0.809000X-0.294000X0*%
%ADD23RoundRect,0.188100X-0.188100X0.550600X-0.188100X-0.550600X0.188100X-0.550600X0.188100X0.550600X0*%
%ADD24RoundRect,0.275600X-0.325600X-0.275600X0.325600X-0.275600X0.325600X0.275600X-0.325600X0.275600X0*%
%ADD25RoundRect,0.076200X-1.100000X-0.900000X1.100000X-0.900000X1.100000X0.900000X-1.100000X0.900000X0*%
%ADD26RoundRect,0.213100X-0.213100X-0.363100X0.213100X-0.363100X0.213100X0.363100X-0.213100X0.363100X0*%
%ADD27RoundRect,0.188100X-0.238100X-0.188100X0.238100X-0.188100X0.238100X0.188100X-0.238100X0.188100X0*%
%ADD28RoundRect,0.275600X0.275600X-0.288100X0.275600X0.288100X-0.275600X0.288100X-0.275600X-0.288100X0*%
%ADD29RoundRect,0.076200X0.755000X0.229000X-0.755000X0.229000X-0.755000X-0.229000X0.755000X-0.229000X0*%
%ADD30RoundRect,0.275600X-0.275600X0.288100X-0.275600X-0.288100X0.275600X-0.288100X0.275600X0.288100X0*%
%ADD31RoundRect,0.076200X0.330200X0.419100X-0.330200X0.419100X-0.330200X-0.419100X0.330200X-0.419100X0*%
G04 APERTURE END LIST*
D10*
X102514400Y-60045600D02*
X136575800Y-60045600D01*
X136575800Y-63423800D01*
X102514400Y-63423800D01*
X102514400Y-60045600D01*
D11*
X96265024Y-77636985D02*
X96336452Y-77565557D01*
X96336452Y-77565557D02*
X96479310Y-77494128D01*
X96479310Y-77494128D02*
X96836452Y-77494128D01*
X96836452Y-77494128D02*
X96979310Y-77565557D01*
X96979310Y-77565557D02*
X97050738Y-77636985D01*
X97050738Y-77636985D02*
X97122167Y-77779842D01*
X97122167Y-77779842D02*
X97122167Y-77922700D01*
X97122167Y-77922700D02*
X97050738Y-78136985D01*
X97050738Y-78136985D02*
X96193595Y-78994128D01*
X96193595Y-78994128D02*
X97122167Y-78994128D01*
X97765023Y-78851271D02*
X97836452Y-78922700D01*
X97836452Y-78922700D02*
X97765023Y-78994128D01*
X97765023Y-78994128D02*
X97693595Y-78922700D01*
X97693595Y-78922700D02*
X97765023Y-78851271D01*
X97765023Y-78851271D02*
X97765023Y-78994128D01*
X99193595Y-77494128D02*
X98479309Y-77494128D01*
X98479309Y-77494128D02*
X98407881Y-78208414D01*
X98407881Y-78208414D02*
X98479309Y-78136985D01*
X98479309Y-78136985D02*
X98622167Y-78065557D01*
X98622167Y-78065557D02*
X98979309Y-78065557D01*
X98979309Y-78065557D02*
X99122167Y-78136985D01*
X99122167Y-78136985D02*
X99193595Y-78208414D01*
X99193595Y-78208414D02*
X99265024Y-78351271D01*
X99265024Y-78351271D02*
X99265024Y-78708414D01*
X99265024Y-78708414D02*
X99193595Y-78851271D01*
X99193595Y-78851271D02*
X99122167Y-78922700D01*
X99122167Y-78922700D02*
X98979309Y-78994128D01*
X98979309Y-78994128D02*
X98622167Y-78994128D01*
X98622167Y-78994128D02*
X98479309Y-78922700D01*
X98479309Y-78922700D02*
X98407881Y-78851271D01*
X99693595Y-77494128D02*
X100193595Y-78994128D01*
X100193595Y-78994128D02*
X100693595Y-77494128D01*
D10*
X132723466Y-67299452D02*
X132723466Y-66283452D01*
X133207276Y-67299452D02*
X133207276Y-66283452D01*
X133207276Y-66283452D02*
X133787848Y-67299452D01*
X133787848Y-67299452D02*
X133787848Y-66283452D01*
X134271657Y-67299452D02*
X134271657Y-66283452D01*
X134610324Y-66283452D02*
X135190896Y-66283452D01*
X134900610Y-67299452D02*
X134900610Y-66283452D01*
X135529562Y-67299452D02*
X135529562Y-66283452D01*
X135529562Y-66283452D02*
X136110134Y-67299452D01*
X136110134Y-67299452D02*
X136110134Y-66283452D01*
D11*
X99946338Y-62330328D02*
X99232052Y-62330328D01*
X99232052Y-62330328D02*
X99160624Y-63044614D01*
X99160624Y-63044614D02*
X99232052Y-62973185D01*
X99232052Y-62973185D02*
X99374910Y-62901757D01*
X99374910Y-62901757D02*
X99732052Y-62901757D01*
X99732052Y-62901757D02*
X99874910Y-62973185D01*
X99874910Y-62973185D02*
X99946338Y-63044614D01*
X99946338Y-63044614D02*
X100017767Y-63187471D01*
X100017767Y-63187471D02*
X100017767Y-63544614D01*
X100017767Y-63544614D02*
X99946338Y-63687471D01*
X99946338Y-63687471D02*
X99874910Y-63758900D01*
X99874910Y-63758900D02*
X99732052Y-63830328D01*
X99732052Y-63830328D02*
X99374910Y-63830328D01*
X99374910Y-63830328D02*
X99232052Y-63758900D01*
X99232052Y-63758900D02*
X99160624Y-63687471D01*
X100446338Y-62330328D02*
X100946338Y-63830328D01*
X100946338Y-63830328D02*
X101446338Y-62330328D01*
D12*
X104178098Y-60781862D02*
X104008765Y-60697195D01*
X104008765Y-60697195D02*
X103754765Y-60697195D01*
X103754765Y-60697195D02*
X103500765Y-60781862D01*
X103500765Y-60781862D02*
X103331432Y-60951195D01*
X103331432Y-60951195D02*
X103246765Y-61120529D01*
X103246765Y-61120529D02*
X103162098Y-61459195D01*
X103162098Y-61459195D02*
X103162098Y-61713195D01*
X103162098Y-61713195D02*
X103246765Y-62051862D01*
X103246765Y-62051862D02*
X103331432Y-62221195D01*
X103331432Y-62221195D02*
X103500765Y-62390529D01*
X103500765Y-62390529D02*
X103754765Y-62475195D01*
X103754765Y-62475195D02*
X103924098Y-62475195D01*
X103924098Y-62475195D02*
X104178098Y-62390529D01*
X104178098Y-62390529D02*
X104262765Y-62305862D01*
X104262765Y-62305862D02*
X104262765Y-61713195D01*
X104262765Y-61713195D02*
X103924098Y-61713195D01*
X105278765Y-62475195D02*
X105109432Y-62390529D01*
X105109432Y-62390529D02*
X105024765Y-62305862D01*
X105024765Y-62305862D02*
X104940098Y-62136529D01*
X104940098Y-62136529D02*
X104940098Y-61628529D01*
X104940098Y-61628529D02*
X105024765Y-61459195D01*
X105024765Y-61459195D02*
X105109432Y-61374529D01*
X105109432Y-61374529D02*
X105278765Y-61289862D01*
X105278765Y-61289862D02*
X105532765Y-61289862D01*
X105532765Y-61289862D02*
X105702098Y-61374529D01*
X105702098Y-61374529D02*
X105786765Y-61459195D01*
X105786765Y-61459195D02*
X105871432Y-61628529D01*
X105871432Y-61628529D02*
X105871432Y-62136529D01*
X105871432Y-62136529D02*
X105786765Y-62305862D01*
X105786765Y-62305862D02*
X105702098Y-62390529D01*
X105702098Y-62390529D02*
X105532765Y-62475195D01*
X105532765Y-62475195D02*
X105278765Y-62475195D01*
X107310765Y-62390529D02*
X107141432Y-62475195D01*
X107141432Y-62475195D02*
X106802765Y-62475195D01*
X106802765Y-62475195D02*
X106633432Y-62390529D01*
X106633432Y-62390529D02*
X106548765Y-62221195D01*
X106548765Y-62221195D02*
X106548765Y-61543862D01*
X106548765Y-61543862D02*
X106633432Y-61374529D01*
X106633432Y-61374529D02*
X106802765Y-61289862D01*
X106802765Y-61289862D02*
X107141432Y-61289862D01*
X107141432Y-61289862D02*
X107310765Y-61374529D01*
X107310765Y-61374529D02*
X107395432Y-61543862D01*
X107395432Y-61543862D02*
X107395432Y-61713195D01*
X107395432Y-61713195D02*
X106548765Y-61882529D01*
X108411432Y-62475195D02*
X108242099Y-62390529D01*
X108242099Y-62390529D02*
X108157432Y-62221195D01*
X108157432Y-62221195D02*
X108157432Y-60697195D01*
X108919432Y-61289862D02*
X109850765Y-61289862D01*
X109850765Y-61289862D02*
X108919432Y-62475195D01*
X108919432Y-62475195D02*
X109850765Y-62475195D01*
X111205431Y-62390529D02*
X111036098Y-62475195D01*
X111036098Y-62475195D02*
X110697431Y-62475195D01*
X110697431Y-62475195D02*
X110528098Y-62390529D01*
X110528098Y-62390529D02*
X110443431Y-62221195D01*
X110443431Y-62221195D02*
X110443431Y-61543862D01*
X110443431Y-61543862D02*
X110528098Y-61374529D01*
X110528098Y-61374529D02*
X110697431Y-61289862D01*
X110697431Y-61289862D02*
X111036098Y-61289862D01*
X111036098Y-61289862D02*
X111205431Y-61374529D01*
X111205431Y-61374529D02*
X111290098Y-61543862D01*
X111290098Y-61543862D02*
X111290098Y-61713195D01*
X111290098Y-61713195D02*
X110443431Y-61882529D01*
X112052098Y-62475195D02*
X112052098Y-61289862D01*
X112052098Y-61628529D02*
X112136765Y-61459195D01*
X112136765Y-61459195D02*
X112221431Y-61374529D01*
X112221431Y-61374529D02*
X112390765Y-61289862D01*
X112390765Y-61289862D02*
X112560098Y-61289862D01*
X115523432Y-62305862D02*
X115438765Y-62390529D01*
X115438765Y-62390529D02*
X115184765Y-62475195D01*
X115184765Y-62475195D02*
X115015432Y-62475195D01*
X115015432Y-62475195D02*
X114761432Y-62390529D01*
X114761432Y-62390529D02*
X114592099Y-62221195D01*
X114592099Y-62221195D02*
X114507432Y-62051862D01*
X114507432Y-62051862D02*
X114422765Y-61713195D01*
X114422765Y-61713195D02*
X114422765Y-61459195D01*
X114422765Y-61459195D02*
X114507432Y-61120529D01*
X114507432Y-61120529D02*
X114592099Y-60951195D01*
X114592099Y-60951195D02*
X114761432Y-60781862D01*
X114761432Y-60781862D02*
X115015432Y-60697195D01*
X115015432Y-60697195D02*
X115184765Y-60697195D01*
X115184765Y-60697195D02*
X115438765Y-60781862D01*
X115438765Y-60781862D02*
X115523432Y-60866529D01*
X116539432Y-62475195D02*
X116370099Y-62390529D01*
X116370099Y-62390529D02*
X116285432Y-62305862D01*
X116285432Y-62305862D02*
X116200765Y-62136529D01*
X116200765Y-62136529D02*
X116200765Y-61628529D01*
X116200765Y-61628529D02*
X116285432Y-61459195D01*
X116285432Y-61459195D02*
X116370099Y-61374529D01*
X116370099Y-61374529D02*
X116539432Y-61289862D01*
X116539432Y-61289862D02*
X116793432Y-61289862D01*
X116793432Y-61289862D02*
X116962765Y-61374529D01*
X116962765Y-61374529D02*
X117047432Y-61459195D01*
X117047432Y-61459195D02*
X117132099Y-61628529D01*
X117132099Y-61628529D02*
X117132099Y-62136529D01*
X117132099Y-62136529D02*
X117047432Y-62305862D01*
X117047432Y-62305862D02*
X116962765Y-62390529D01*
X116962765Y-62390529D02*
X116793432Y-62475195D01*
X116793432Y-62475195D02*
X116539432Y-62475195D01*
X117894099Y-62475195D02*
X117894099Y-61289862D01*
X117894099Y-61459195D02*
X117978766Y-61374529D01*
X117978766Y-61374529D02*
X118148099Y-61289862D01*
X118148099Y-61289862D02*
X118402099Y-61289862D01*
X118402099Y-61289862D02*
X118571432Y-61374529D01*
X118571432Y-61374529D02*
X118656099Y-61543862D01*
X118656099Y-61543862D02*
X118656099Y-62475195D01*
X118656099Y-61543862D02*
X118740766Y-61374529D01*
X118740766Y-61374529D02*
X118910099Y-61289862D01*
X118910099Y-61289862D02*
X119164099Y-61289862D01*
X119164099Y-61289862D02*
X119333432Y-61374529D01*
X119333432Y-61374529D02*
X119418099Y-61543862D01*
X119418099Y-61543862D02*
X119418099Y-62475195D01*
X120264766Y-61289862D02*
X120264766Y-63067862D01*
X120264766Y-61374529D02*
X120434099Y-61289862D01*
X120434099Y-61289862D02*
X120772766Y-61289862D01*
X120772766Y-61289862D02*
X120942099Y-61374529D01*
X120942099Y-61374529D02*
X121026766Y-61459195D01*
X121026766Y-61459195D02*
X121111433Y-61628529D01*
X121111433Y-61628529D02*
X121111433Y-62136529D01*
X121111433Y-62136529D02*
X121026766Y-62305862D01*
X121026766Y-62305862D02*
X120942099Y-62390529D01*
X120942099Y-62390529D02*
X120772766Y-62475195D01*
X120772766Y-62475195D02*
X120434099Y-62475195D01*
X120434099Y-62475195D02*
X120264766Y-62390529D01*
X122635433Y-61289862D02*
X122635433Y-62475195D01*
X121873433Y-61289862D02*
X121873433Y-62221195D01*
X121873433Y-62221195D02*
X121958100Y-62390529D01*
X121958100Y-62390529D02*
X122127433Y-62475195D01*
X122127433Y-62475195D02*
X122381433Y-62475195D01*
X122381433Y-62475195D02*
X122550766Y-62390529D01*
X122550766Y-62390529D02*
X122635433Y-62305862D01*
X123228100Y-61289862D02*
X123905433Y-61289862D01*
X123482100Y-60697195D02*
X123482100Y-62221195D01*
X123482100Y-62221195D02*
X123566767Y-62390529D01*
X123566767Y-62390529D02*
X123736100Y-62475195D01*
X123736100Y-62475195D02*
X123905433Y-62475195D01*
X125175433Y-62390529D02*
X125006100Y-62475195D01*
X125006100Y-62475195D02*
X124667433Y-62475195D01*
X124667433Y-62475195D02*
X124498100Y-62390529D01*
X124498100Y-62390529D02*
X124413433Y-62221195D01*
X124413433Y-62221195D02*
X124413433Y-61543862D01*
X124413433Y-61543862D02*
X124498100Y-61374529D01*
X124498100Y-61374529D02*
X124667433Y-61289862D01*
X124667433Y-61289862D02*
X125006100Y-61289862D01*
X125006100Y-61289862D02*
X125175433Y-61374529D01*
X125175433Y-61374529D02*
X125260100Y-61543862D01*
X125260100Y-61543862D02*
X125260100Y-61713195D01*
X125260100Y-61713195D02*
X124413433Y-61882529D01*
X127376767Y-62475195D02*
X127376767Y-60697195D01*
X127376767Y-60697195D02*
X127969434Y-61967195D01*
X127969434Y-61967195D02*
X128562100Y-60697195D01*
X128562100Y-60697195D02*
X128562100Y-62475195D01*
X129662767Y-62475195D02*
X129493434Y-62390529D01*
X129493434Y-62390529D02*
X129408767Y-62305862D01*
X129408767Y-62305862D02*
X129324100Y-62136529D01*
X129324100Y-62136529D02*
X129324100Y-61628529D01*
X129324100Y-61628529D02*
X129408767Y-61459195D01*
X129408767Y-61459195D02*
X129493434Y-61374529D01*
X129493434Y-61374529D02*
X129662767Y-61289862D01*
X129662767Y-61289862D02*
X129916767Y-61289862D01*
X129916767Y-61289862D02*
X130086100Y-61374529D01*
X130086100Y-61374529D02*
X130170767Y-61459195D01*
X130170767Y-61459195D02*
X130255434Y-61628529D01*
X130255434Y-61628529D02*
X130255434Y-62136529D01*
X130255434Y-62136529D02*
X130170767Y-62305862D01*
X130170767Y-62305862D02*
X130086100Y-62390529D01*
X130086100Y-62390529D02*
X129916767Y-62475195D01*
X129916767Y-62475195D02*
X129662767Y-62475195D01*
X131779434Y-62475195D02*
X131779434Y-60697195D01*
X131779434Y-62390529D02*
X131610101Y-62475195D01*
X131610101Y-62475195D02*
X131271434Y-62475195D01*
X131271434Y-62475195D02*
X131102101Y-62390529D01*
X131102101Y-62390529D02*
X131017434Y-62305862D01*
X131017434Y-62305862D02*
X130932767Y-62136529D01*
X130932767Y-62136529D02*
X130932767Y-61628529D01*
X130932767Y-61628529D02*
X131017434Y-61459195D01*
X131017434Y-61459195D02*
X131102101Y-61374529D01*
X131102101Y-61374529D02*
X131271434Y-61289862D01*
X131271434Y-61289862D02*
X131610101Y-61289862D01*
X131610101Y-61289862D02*
X131779434Y-61374529D01*
X133388101Y-61289862D02*
X133388101Y-62475195D01*
X132626101Y-61289862D02*
X132626101Y-62221195D01*
X132626101Y-62221195D02*
X132710768Y-62390529D01*
X132710768Y-62390529D02*
X132880101Y-62475195D01*
X132880101Y-62475195D02*
X133134101Y-62475195D01*
X133134101Y-62475195D02*
X133303434Y-62390529D01*
X133303434Y-62390529D02*
X133388101Y-62305862D01*
X134488768Y-62475195D02*
X134319435Y-62390529D01*
X134319435Y-62390529D02*
X134234768Y-62221195D01*
X134234768Y-62221195D02*
X134234768Y-60697195D01*
X135843434Y-62390529D02*
X135674101Y-62475195D01*
X135674101Y-62475195D02*
X135335434Y-62475195D01*
X135335434Y-62475195D02*
X135166101Y-62390529D01*
X135166101Y-62390529D02*
X135081434Y-62221195D01*
X135081434Y-62221195D02*
X135081434Y-61543862D01*
X135081434Y-61543862D02*
X135166101Y-61374529D01*
X135166101Y-61374529D02*
X135335434Y-61289862D01*
X135335434Y-61289862D02*
X135674101Y-61289862D01*
X135674101Y-61289862D02*
X135843434Y-61374529D01*
X135843434Y-61374529D02*
X135928101Y-61543862D01*
X135928101Y-61543862D02*
X135928101Y-61713195D01*
X135928101Y-61713195D02*
X135081434Y-61882529D01*
D10*
X127318104Y-67248652D02*
X127318104Y-66232652D01*
X127318104Y-66232652D02*
X127560009Y-66232652D01*
X127560009Y-66232652D02*
X127705152Y-66281033D01*
X127705152Y-66281033D02*
X127801914Y-66377795D01*
X127801914Y-66377795D02*
X127850295Y-66474557D01*
X127850295Y-66474557D02*
X127898676Y-66668081D01*
X127898676Y-66668081D02*
X127898676Y-66813224D01*
X127898676Y-66813224D02*
X127850295Y-67006748D01*
X127850295Y-67006748D02*
X127801914Y-67103510D01*
X127801914Y-67103510D02*
X127705152Y-67200272D01*
X127705152Y-67200272D02*
X127560009Y-67248652D01*
X127560009Y-67248652D02*
X127318104Y-67248652D01*
X128527628Y-66232652D02*
X128721152Y-66232652D01*
X128721152Y-66232652D02*
X128817914Y-66281033D01*
X128817914Y-66281033D02*
X128914676Y-66377795D01*
X128914676Y-66377795D02*
X128963057Y-66571319D01*
X128963057Y-66571319D02*
X128963057Y-66909986D01*
X128963057Y-66909986D02*
X128914676Y-67103510D01*
X128914676Y-67103510D02*
X128817914Y-67200272D01*
X128817914Y-67200272D02*
X128721152Y-67248652D01*
X128721152Y-67248652D02*
X128527628Y-67248652D01*
X128527628Y-67248652D02*
X128430866Y-67200272D01*
X128430866Y-67200272D02*
X128334104Y-67103510D01*
X128334104Y-67103510D02*
X128285723Y-66909986D01*
X128285723Y-66909986D02*
X128285723Y-66571319D01*
X128285723Y-66571319D02*
X128334104Y-66377795D01*
X128334104Y-66377795D02*
X128430866Y-66281033D01*
X128430866Y-66281033D02*
X128527628Y-66232652D01*
X129398485Y-67248652D02*
X129398485Y-66232652D01*
X129398485Y-66232652D02*
X129979057Y-67248652D01*
X129979057Y-67248652D02*
X129979057Y-66232652D01*
X130462866Y-66716462D02*
X130801533Y-66716462D01*
X130946676Y-67248652D02*
X130462866Y-67248652D01*
X130462866Y-67248652D02*
X130462866Y-66232652D01*
X130462866Y-66232652D02*
X130946676Y-66232652D01*
D11*
X97147567Y-69926328D02*
X96290424Y-69926328D01*
X96718995Y-69926328D02*
X96718995Y-68426328D01*
X96718995Y-68426328D02*
X96576138Y-68640614D01*
X96576138Y-68640614D02*
X96433281Y-68783471D01*
X96433281Y-68783471D02*
X96290424Y-68854900D01*
X97790423Y-69783471D02*
X97861852Y-69854900D01*
X97861852Y-69854900D02*
X97790423Y-69926328D01*
X97790423Y-69926328D02*
X97718995Y-69854900D01*
X97718995Y-69854900D02*
X97790423Y-69783471D01*
X97790423Y-69783471D02*
X97790423Y-69926328D01*
X99290424Y-69926328D02*
X98433281Y-69926328D01*
X98861852Y-69926328D02*
X98861852Y-68426328D01*
X98861852Y-68426328D02*
X98718995Y-68640614D01*
X98718995Y-68640614D02*
X98576138Y-68783471D01*
X98576138Y-68783471D02*
X98433281Y-68854900D01*
X99718995Y-68426328D02*
X100218995Y-69926328D01*
X100218995Y-69926328D02*
X100718995Y-68426328D01*
X95888795Y-85825328D02*
X96817367Y-85825328D01*
X96817367Y-85825328D02*
X96317367Y-86396757D01*
X96317367Y-86396757D02*
X96531652Y-86396757D01*
X96531652Y-86396757D02*
X96674510Y-86468185D01*
X96674510Y-86468185D02*
X96745938Y-86539614D01*
X96745938Y-86539614D02*
X96817367Y-86682471D01*
X96817367Y-86682471D02*
X96817367Y-87039614D01*
X96817367Y-87039614D02*
X96745938Y-87182471D01*
X96745938Y-87182471D02*
X96674510Y-87253900D01*
X96674510Y-87253900D02*
X96531652Y-87325328D01*
X96531652Y-87325328D02*
X96103081Y-87325328D01*
X96103081Y-87325328D02*
X95960224Y-87253900D01*
X95960224Y-87253900D02*
X95888795Y-87182471D01*
X97460223Y-87182471D02*
X97531652Y-87253900D01*
X97531652Y-87253900D02*
X97460223Y-87325328D01*
X97460223Y-87325328D02*
X97388795Y-87253900D01*
X97388795Y-87253900D02*
X97460223Y-87182471D01*
X97460223Y-87182471D02*
X97460223Y-87325328D01*
X98031652Y-85825328D02*
X98960224Y-85825328D01*
X98960224Y-85825328D02*
X98460224Y-86396757D01*
X98460224Y-86396757D02*
X98674509Y-86396757D01*
X98674509Y-86396757D02*
X98817367Y-86468185D01*
X98817367Y-86468185D02*
X98888795Y-86539614D01*
X98888795Y-86539614D02*
X98960224Y-86682471D01*
X98960224Y-86682471D02*
X98960224Y-87039614D01*
X98960224Y-87039614D02*
X98888795Y-87182471D01*
X98888795Y-87182471D02*
X98817367Y-87253900D01*
X98817367Y-87253900D02*
X98674509Y-87325328D01*
X98674509Y-87325328D02*
X98245938Y-87325328D01*
X98245938Y-87325328D02*
X98103081Y-87253900D01*
X98103081Y-87253900D02*
X98031652Y-87182471D01*
X99388795Y-85825328D02*
X99888795Y-87325328D01*
X99888795Y-87325328D02*
X100388795Y-85825328D01*
D12*
X117794314Y-66123324D02*
X117286314Y-65397610D01*
X116923457Y-66123324D02*
X116923457Y-64599324D01*
X116923457Y-64599324D02*
X117504028Y-64599324D01*
X117504028Y-64599324D02*
X117649171Y-64671895D01*
X117649171Y-64671895D02*
X117721742Y-64744467D01*
X117721742Y-64744467D02*
X117794314Y-64889610D01*
X117794314Y-64889610D02*
X117794314Y-65107324D01*
X117794314Y-65107324D02*
X117721742Y-65252467D01*
X117721742Y-65252467D02*
X117649171Y-65325038D01*
X117649171Y-65325038D02*
X117504028Y-65397610D01*
X117504028Y-65397610D02*
X116923457Y-65397610D01*
X119028028Y-66050753D02*
X118882885Y-66123324D01*
X118882885Y-66123324D02*
X118592600Y-66123324D01*
X118592600Y-66123324D02*
X118447457Y-66050753D01*
X118447457Y-66050753D02*
X118374885Y-65905610D01*
X118374885Y-65905610D02*
X118374885Y-65325038D01*
X118374885Y-65325038D02*
X118447457Y-65179895D01*
X118447457Y-65179895D02*
X118592600Y-65107324D01*
X118592600Y-65107324D02*
X118882885Y-65107324D01*
X118882885Y-65107324D02*
X119028028Y-65179895D01*
X119028028Y-65179895D02*
X119100600Y-65325038D01*
X119100600Y-65325038D02*
X119100600Y-65470181D01*
X119100600Y-65470181D02*
X118374885Y-65615324D01*
X119608600Y-65107324D02*
X119971457Y-66123324D01*
X119971457Y-66123324D02*
X120334314Y-65107324D01*
X122874314Y-66123324D02*
X122003457Y-66123324D01*
X122438886Y-66123324D02*
X122438886Y-64599324D01*
X122438886Y-64599324D02*
X122293743Y-64817038D01*
X122293743Y-64817038D02*
X122148600Y-64962181D01*
X122148600Y-64962181D02*
X122003457Y-65034753D01*
X114673742Y-68576879D02*
X114673742Y-67052879D01*
X114673742Y-67052879D02*
X115036599Y-67052879D01*
X115036599Y-67052879D02*
X115254313Y-67125450D01*
X115254313Y-67125450D02*
X115399456Y-67270593D01*
X115399456Y-67270593D02*
X115472027Y-67415736D01*
X115472027Y-67415736D02*
X115544599Y-67706022D01*
X115544599Y-67706022D02*
X115544599Y-67923736D01*
X115544599Y-67923736D02*
X115472027Y-68214022D01*
X115472027Y-68214022D02*
X115399456Y-68359165D01*
X115399456Y-68359165D02*
X115254313Y-68504308D01*
X115254313Y-68504308D02*
X115036599Y-68576879D01*
X115036599Y-68576879D02*
X114673742Y-68576879D01*
X116778313Y-68504308D02*
X116633170Y-68576879D01*
X116633170Y-68576879D02*
X116342885Y-68576879D01*
X116342885Y-68576879D02*
X116197742Y-68504308D01*
X116197742Y-68504308D02*
X116125170Y-68359165D01*
X116125170Y-68359165D02*
X116125170Y-67778593D01*
X116125170Y-67778593D02*
X116197742Y-67633450D01*
X116197742Y-67633450D02*
X116342885Y-67560879D01*
X116342885Y-67560879D02*
X116633170Y-67560879D01*
X116633170Y-67560879D02*
X116778313Y-67633450D01*
X116778313Y-67633450D02*
X116850885Y-67778593D01*
X116850885Y-67778593D02*
X116850885Y-67923736D01*
X116850885Y-67923736D02*
X116125170Y-68068879D01*
X118157171Y-68504308D02*
X118012028Y-68576879D01*
X118012028Y-68576879D02*
X117721742Y-68576879D01*
X117721742Y-68576879D02*
X117576599Y-68504308D01*
X117576599Y-68504308D02*
X117504028Y-68431736D01*
X117504028Y-68431736D02*
X117431456Y-68286593D01*
X117431456Y-68286593D02*
X117431456Y-67851165D01*
X117431456Y-67851165D02*
X117504028Y-67706022D01*
X117504028Y-67706022D02*
X117576599Y-67633450D01*
X117576599Y-67633450D02*
X117721742Y-67560879D01*
X117721742Y-67560879D02*
X118012028Y-67560879D01*
X118012028Y-67560879D02*
X118157171Y-67633450D01*
X119898885Y-67198022D02*
X119971457Y-67125450D01*
X119971457Y-67125450D02*
X120116600Y-67052879D01*
X120116600Y-67052879D02*
X120479457Y-67052879D01*
X120479457Y-67052879D02*
X120624600Y-67125450D01*
X120624600Y-67125450D02*
X120697171Y-67198022D01*
X120697171Y-67198022D02*
X120769742Y-67343165D01*
X120769742Y-67343165D02*
X120769742Y-67488308D01*
X120769742Y-67488308D02*
X120697171Y-67706022D01*
X120697171Y-67706022D02*
X119826314Y-68576879D01*
X119826314Y-68576879D02*
X120769742Y-68576879D01*
X121713171Y-67052879D02*
X121858314Y-67052879D01*
X121858314Y-67052879D02*
X122003457Y-67125450D01*
X122003457Y-67125450D02*
X122076029Y-67198022D01*
X122076029Y-67198022D02*
X122148600Y-67343165D01*
X122148600Y-67343165D02*
X122221171Y-67633450D01*
X122221171Y-67633450D02*
X122221171Y-67996308D01*
X122221171Y-67996308D02*
X122148600Y-68286593D01*
X122148600Y-68286593D02*
X122076029Y-68431736D01*
X122076029Y-68431736D02*
X122003457Y-68504308D01*
X122003457Y-68504308D02*
X121858314Y-68576879D01*
X121858314Y-68576879D02*
X121713171Y-68576879D01*
X121713171Y-68576879D02*
X121568029Y-68504308D01*
X121568029Y-68504308D02*
X121495457Y-68431736D01*
X121495457Y-68431736D02*
X121422886Y-68286593D01*
X121422886Y-68286593D02*
X121350314Y-67996308D01*
X121350314Y-67996308D02*
X121350314Y-67633450D01*
X121350314Y-67633450D02*
X121422886Y-67343165D01*
X121422886Y-67343165D02*
X121495457Y-67198022D01*
X121495457Y-67198022D02*
X121568029Y-67125450D01*
X121568029Y-67125450D02*
X121713171Y-67052879D01*
X122801743Y-67198022D02*
X122874315Y-67125450D01*
X122874315Y-67125450D02*
X123019458Y-67052879D01*
X123019458Y-67052879D02*
X123382315Y-67052879D01*
X123382315Y-67052879D02*
X123527458Y-67125450D01*
X123527458Y-67125450D02*
X123600029Y-67198022D01*
X123600029Y-67198022D02*
X123672600Y-67343165D01*
X123672600Y-67343165D02*
X123672600Y-67488308D01*
X123672600Y-67488308D02*
X123600029Y-67706022D01*
X123600029Y-67706022D02*
X122729172Y-68576879D01*
X122729172Y-68576879D02*
X123672600Y-68576879D01*
X124978887Y-67560879D02*
X124978887Y-68576879D01*
X124616029Y-66980308D02*
X124253172Y-68068879D01*
X124253172Y-68068879D02*
X125196601Y-68068879D01*
D13*
X102784123Y-66081639D02*
X102723647Y-66051401D01*
X102723647Y-66051401D02*
X102663171Y-65990925D01*
X102663171Y-65990925D02*
X102572457Y-65900210D01*
X102572457Y-65900210D02*
X102511980Y-65869972D01*
X102511980Y-65869972D02*
X102451504Y-65869972D01*
X102481742Y-66021163D02*
X102421266Y-65990925D01*
X102421266Y-65990925D02*
X102360790Y-65930448D01*
X102360790Y-65930448D02*
X102330552Y-65809496D01*
X102330552Y-65809496D02*
X102330552Y-65597829D01*
X102330552Y-65597829D02*
X102360790Y-65476877D01*
X102360790Y-65476877D02*
X102421266Y-65416401D01*
X102421266Y-65416401D02*
X102481742Y-65386163D01*
X102481742Y-65386163D02*
X102602695Y-65386163D01*
X102602695Y-65386163D02*
X102663171Y-65416401D01*
X102663171Y-65416401D02*
X102723647Y-65476877D01*
X102723647Y-65476877D02*
X102753885Y-65597829D01*
X102753885Y-65597829D02*
X102753885Y-65809496D01*
X102753885Y-65809496D02*
X102723647Y-65930448D01*
X102723647Y-65930448D02*
X102663171Y-65990925D01*
X102663171Y-65990925D02*
X102602695Y-66021163D01*
X102602695Y-66021163D02*
X102481742Y-66021163D01*
X103358647Y-66021163D02*
X102995790Y-66021163D01*
X103177218Y-66021163D02*
X103177218Y-65386163D01*
X103177218Y-65386163D02*
X103116742Y-65476877D01*
X103116742Y-65476877D02*
X103056266Y-65537353D01*
X103056266Y-65537353D02*
X102995790Y-65567591D01*
X97499109Y-82023163D02*
X97499109Y-81388163D01*
X97499109Y-81388163D02*
X97650299Y-81388163D01*
X97650299Y-81388163D02*
X97741014Y-81418401D01*
X97741014Y-81418401D02*
X97801490Y-81478877D01*
X97801490Y-81478877D02*
X97831728Y-81539353D01*
X97831728Y-81539353D02*
X97861966Y-81660305D01*
X97861966Y-81660305D02*
X97861966Y-81751020D01*
X97861966Y-81751020D02*
X97831728Y-81871972D01*
X97831728Y-81871972D02*
X97801490Y-81932448D01*
X97801490Y-81932448D02*
X97741014Y-81992925D01*
X97741014Y-81992925D02*
X97650299Y-82023163D01*
X97650299Y-82023163D02*
X97499109Y-82023163D01*
X98103871Y-81448639D02*
X98134109Y-81418401D01*
X98134109Y-81418401D02*
X98194585Y-81388163D01*
X98194585Y-81388163D02*
X98345776Y-81388163D01*
X98345776Y-81388163D02*
X98406252Y-81418401D01*
X98406252Y-81418401D02*
X98436490Y-81448639D01*
X98436490Y-81448639D02*
X98466728Y-81509115D01*
X98466728Y-81509115D02*
X98466728Y-81569591D01*
X98466728Y-81569591D02*
X98436490Y-81660305D01*
X98436490Y-81660305D02*
X98073633Y-82023163D01*
X98073633Y-82023163D02*
X98466728Y-82023163D01*
X97549909Y-72904563D02*
X97549909Y-72269563D01*
X97549909Y-72269563D02*
X97701099Y-72269563D01*
X97701099Y-72269563D02*
X97791814Y-72299801D01*
X97791814Y-72299801D02*
X97852290Y-72360277D01*
X97852290Y-72360277D02*
X97882528Y-72420753D01*
X97882528Y-72420753D02*
X97912766Y-72541705D01*
X97912766Y-72541705D02*
X97912766Y-72632420D01*
X97912766Y-72632420D02*
X97882528Y-72753372D01*
X97882528Y-72753372D02*
X97852290Y-72813848D01*
X97852290Y-72813848D02*
X97791814Y-72874325D01*
X97791814Y-72874325D02*
X97701099Y-72904563D01*
X97701099Y-72904563D02*
X97549909Y-72904563D01*
X98517528Y-72904563D02*
X98154671Y-72904563D01*
X98336099Y-72904563D02*
X98336099Y-72269563D01*
X98336099Y-72269563D02*
X98275623Y-72360277D01*
X98275623Y-72360277D02*
X98215147Y-72420753D01*
X98215147Y-72420753D02*
X98154671Y-72450991D01*
X96899185Y-61474563D02*
X96687518Y-61172182D01*
X96536328Y-61474563D02*
X96536328Y-60839563D01*
X96536328Y-60839563D02*
X96778233Y-60839563D01*
X96778233Y-60839563D02*
X96838709Y-60869801D01*
X96838709Y-60869801D02*
X96868947Y-60900039D01*
X96868947Y-60900039D02*
X96899185Y-60960515D01*
X96899185Y-60960515D02*
X96899185Y-61051229D01*
X96899185Y-61051229D02*
X96868947Y-61111705D01*
X96868947Y-61111705D02*
X96838709Y-61141944D01*
X96838709Y-61141944D02*
X96778233Y-61172182D01*
X96778233Y-61172182D02*
X96536328Y-61172182D01*
X97503947Y-61474563D02*
X97141090Y-61474563D01*
X97322518Y-61474563D02*
X97322518Y-60839563D01*
X97322518Y-60839563D02*
X97262042Y-60930277D01*
X97262042Y-60930277D02*
X97201566Y-60990753D01*
X97201566Y-60990753D02*
X97141090Y-61020991D01*
X98048233Y-60839563D02*
X97927280Y-60839563D01*
X97927280Y-60839563D02*
X97866804Y-60869801D01*
X97866804Y-60869801D02*
X97836566Y-60900039D01*
X97836566Y-60900039D02*
X97776090Y-60990753D01*
X97776090Y-60990753D02*
X97745852Y-61111705D01*
X97745852Y-61111705D02*
X97745852Y-61353610D01*
X97745852Y-61353610D02*
X97776090Y-61414086D01*
X97776090Y-61414086D02*
X97806328Y-61444325D01*
X97806328Y-61444325D02*
X97866804Y-61474563D01*
X97866804Y-61474563D02*
X97987757Y-61474563D01*
X97987757Y-61474563D02*
X98048233Y-61444325D01*
X98048233Y-61444325D02*
X98078471Y-61414086D01*
X98078471Y-61414086D02*
X98108709Y-61353610D01*
X98108709Y-61353610D02*
X98108709Y-61202420D01*
X98108709Y-61202420D02*
X98078471Y-61141944D01*
X98078471Y-61141944D02*
X98048233Y-61111705D01*
X98048233Y-61111705D02*
X97987757Y-61081467D01*
X97987757Y-61081467D02*
X97866804Y-61081467D01*
X97866804Y-61081467D02*
X97806328Y-61111705D01*
X97806328Y-61111705D02*
X97776090Y-61141944D01*
X97776090Y-61141944D02*
X97745852Y-61202420D01*
D14*
X126302709Y-65387359D02*
X126302709Y-64752359D01*
X126302709Y-64752359D02*
X126453899Y-64752359D01*
X126453899Y-64752359D02*
X126544614Y-64782597D01*
X126544614Y-64782597D02*
X126605090Y-64843073D01*
X126605090Y-64843073D02*
X126635328Y-64903549D01*
X126635328Y-64903549D02*
X126665566Y-65024501D01*
X126665566Y-65024501D02*
X126665566Y-65115216D01*
X126665566Y-65115216D02*
X126635328Y-65236168D01*
X126635328Y-65236168D02*
X126605090Y-65296644D01*
X126605090Y-65296644D02*
X126544614Y-65357121D01*
X126544614Y-65357121D02*
X126453899Y-65387359D01*
X126453899Y-65387359D02*
X126302709Y-65387359D01*
X127209852Y-64752359D02*
X127088899Y-64752359D01*
X127088899Y-64752359D02*
X127028423Y-64782597D01*
X127028423Y-64782597D02*
X126998185Y-64812835D01*
X126998185Y-64812835D02*
X126937709Y-64903549D01*
X126937709Y-64903549D02*
X126907471Y-65024501D01*
X126907471Y-65024501D02*
X126907471Y-65266406D01*
X126907471Y-65266406D02*
X126937709Y-65326882D01*
X126937709Y-65326882D02*
X126967947Y-65357121D01*
X126967947Y-65357121D02*
X127028423Y-65387359D01*
X127028423Y-65387359D02*
X127149376Y-65387359D01*
X127149376Y-65387359D02*
X127209852Y-65357121D01*
X127209852Y-65357121D02*
X127240090Y-65326882D01*
X127240090Y-65326882D02*
X127270328Y-65266406D01*
X127270328Y-65266406D02*
X127270328Y-65115216D01*
X127270328Y-65115216D02*
X127240090Y-65054740D01*
X127240090Y-65054740D02*
X127209852Y-65024501D01*
X127209852Y-65024501D02*
X127149376Y-64994263D01*
X127149376Y-64994263D02*
X127028423Y-64994263D01*
X127028423Y-64994263D02*
X126967947Y-65024501D01*
X126967947Y-65024501D02*
X126937709Y-65054740D01*
X126937709Y-65054740D02*
X126907471Y-65115216D01*
D13*
X97346709Y-90441963D02*
X97346709Y-89806963D01*
X97346709Y-89806963D02*
X97497899Y-89806963D01*
X97497899Y-89806963D02*
X97588614Y-89837201D01*
X97588614Y-89837201D02*
X97649090Y-89897677D01*
X97649090Y-89897677D02*
X97679328Y-89958153D01*
X97679328Y-89958153D02*
X97709566Y-90079105D01*
X97709566Y-90079105D02*
X97709566Y-90169820D01*
X97709566Y-90169820D02*
X97679328Y-90290772D01*
X97679328Y-90290772D02*
X97649090Y-90351248D01*
X97649090Y-90351248D02*
X97588614Y-90411725D01*
X97588614Y-90411725D02*
X97497899Y-90441963D01*
X97497899Y-90441963D02*
X97346709Y-90441963D01*
X97921233Y-89806963D02*
X98314328Y-89806963D01*
X98314328Y-89806963D02*
X98102661Y-90048867D01*
X98102661Y-90048867D02*
X98193376Y-90048867D01*
X98193376Y-90048867D02*
X98253852Y-90079105D01*
X98253852Y-90079105D02*
X98284090Y-90109344D01*
X98284090Y-90109344D02*
X98314328Y-90169820D01*
X98314328Y-90169820D02*
X98314328Y-90321010D01*
X98314328Y-90321010D02*
X98284090Y-90381486D01*
X98284090Y-90381486D02*
X98253852Y-90411725D01*
X98253852Y-90411725D02*
X98193376Y-90441963D01*
X98193376Y-90441963D02*
X98011947Y-90441963D01*
X98011947Y-90441963D02*
X97951471Y-90411725D01*
X97951471Y-90411725D02*
X97921233Y-90381486D01*
X109270963Y-79173809D02*
X109785010Y-79173809D01*
X109785010Y-79173809D02*
X109845486Y-79143571D01*
X109845486Y-79143571D02*
X109875725Y-79113333D01*
X109875725Y-79113333D02*
X109905963Y-79052857D01*
X109905963Y-79052857D02*
X109905963Y-78931904D01*
X109905963Y-78931904D02*
X109875725Y-78871428D01*
X109875725Y-78871428D02*
X109845486Y-78841190D01*
X109845486Y-78841190D02*
X109785010Y-78810952D01*
X109785010Y-78810952D02*
X109270963Y-78810952D01*
X109905963Y-78478333D02*
X109905963Y-78357381D01*
X109905963Y-78357381D02*
X109875725Y-78296904D01*
X109875725Y-78296904D02*
X109845486Y-78266666D01*
X109845486Y-78266666D02*
X109754772Y-78206190D01*
X109754772Y-78206190D02*
X109633820Y-78175952D01*
X109633820Y-78175952D02*
X109391915Y-78175952D01*
X109391915Y-78175952D02*
X109331439Y-78206190D01*
X109331439Y-78206190D02*
X109301201Y-78236428D01*
X109301201Y-78236428D02*
X109270963Y-78296904D01*
X109270963Y-78296904D02*
X109270963Y-78417857D01*
X109270963Y-78417857D02*
X109301201Y-78478333D01*
X109301201Y-78478333D02*
X109331439Y-78508571D01*
X109331439Y-78508571D02*
X109391915Y-78538809D01*
X109391915Y-78538809D02*
X109543105Y-78538809D01*
X109543105Y-78538809D02*
X109603582Y-78508571D01*
X109603582Y-78508571D02*
X109633820Y-78478333D01*
X109633820Y-78478333D02*
X109664058Y-78417857D01*
X109664058Y-78417857D02*
X109664058Y-78296904D01*
X109664058Y-78296904D02*
X109633820Y-78236428D01*
X109633820Y-78236428D02*
X109603582Y-78206190D01*
X109603582Y-78206190D02*
X109543105Y-78175952D01*
X107821185Y-68246686D02*
X107790947Y-68276925D01*
X107790947Y-68276925D02*
X107700233Y-68307163D01*
X107700233Y-68307163D02*
X107639757Y-68307163D01*
X107639757Y-68307163D02*
X107549042Y-68276925D01*
X107549042Y-68276925D02*
X107488566Y-68216448D01*
X107488566Y-68216448D02*
X107458328Y-68155972D01*
X107458328Y-68155972D02*
X107428090Y-68035020D01*
X107428090Y-68035020D02*
X107428090Y-67944305D01*
X107428090Y-67944305D02*
X107458328Y-67823353D01*
X107458328Y-67823353D02*
X107488566Y-67762877D01*
X107488566Y-67762877D02*
X107549042Y-67702401D01*
X107549042Y-67702401D02*
X107639757Y-67672163D01*
X107639757Y-67672163D02*
X107700233Y-67672163D01*
X107700233Y-67672163D02*
X107790947Y-67702401D01*
X107790947Y-67702401D02*
X107821185Y-67732639D01*
X108425947Y-68307163D02*
X108063090Y-68307163D01*
X108244518Y-68307163D02*
X108244518Y-67672163D01*
X108244518Y-67672163D02*
X108184042Y-67762877D01*
X108184042Y-67762877D02*
X108123566Y-67823353D01*
X108123566Y-67823353D02*
X108063090Y-67853591D01*
X109030709Y-68307163D02*
X108667852Y-68307163D01*
X108849280Y-68307163D02*
X108849280Y-67672163D01*
X108849280Y-67672163D02*
X108788804Y-67762877D01*
X108788804Y-67762877D02*
X108728328Y-67823353D01*
X108728328Y-67823353D02*
X108667852Y-67853591D01*
X92936785Y-82023163D02*
X92725118Y-81720782D01*
X92573928Y-82023163D02*
X92573928Y-81388163D01*
X92573928Y-81388163D02*
X92815833Y-81388163D01*
X92815833Y-81388163D02*
X92876309Y-81418401D01*
X92876309Y-81418401D02*
X92906547Y-81448639D01*
X92906547Y-81448639D02*
X92936785Y-81509115D01*
X92936785Y-81509115D02*
X92936785Y-81599829D01*
X92936785Y-81599829D02*
X92906547Y-81660305D01*
X92906547Y-81660305D02*
X92876309Y-81690544D01*
X92876309Y-81690544D02*
X92815833Y-81720782D01*
X92815833Y-81720782D02*
X92573928Y-81720782D01*
X93541547Y-82023163D02*
X93178690Y-82023163D01*
X93360118Y-82023163D02*
X93360118Y-81388163D01*
X93360118Y-81388163D02*
X93299642Y-81478877D01*
X93299642Y-81478877D02*
X93239166Y-81539353D01*
X93239166Y-81539353D02*
X93178690Y-81569591D01*
X93934642Y-81388163D02*
X93995119Y-81388163D01*
X93995119Y-81388163D02*
X94055595Y-81418401D01*
X94055595Y-81418401D02*
X94085833Y-81448639D01*
X94085833Y-81448639D02*
X94116071Y-81509115D01*
X94116071Y-81509115D02*
X94146309Y-81630067D01*
X94146309Y-81630067D02*
X94146309Y-81781258D01*
X94146309Y-81781258D02*
X94116071Y-81902210D01*
X94116071Y-81902210D02*
X94085833Y-81962686D01*
X94085833Y-81962686D02*
X94055595Y-81992925D01*
X94055595Y-81992925D02*
X93995119Y-82023163D01*
X93995119Y-82023163D02*
X93934642Y-82023163D01*
X93934642Y-82023163D02*
X93874166Y-81992925D01*
X93874166Y-81992925D02*
X93843928Y-81962686D01*
X93843928Y-81962686D02*
X93813690Y-81902210D01*
X93813690Y-81902210D02*
X93783452Y-81781258D01*
X93783452Y-81781258D02*
X93783452Y-81630067D01*
X93783452Y-81630067D02*
X93813690Y-81509115D01*
X93813690Y-81509115D02*
X93843928Y-81448639D01*
X93843928Y-81448639D02*
X93874166Y-81418401D01*
X93874166Y-81418401D02*
X93934642Y-81388163D01*
X125541905Y-92394819D02*
X125541905Y-93204342D01*
X125541905Y-93204342D02*
X125589524Y-93299580D01*
X125589524Y-93299580D02*
X125637143Y-93347200D01*
X125637143Y-93347200D02*
X125732381Y-93394819D01*
X125732381Y-93394819D02*
X125922857Y-93394819D01*
X125922857Y-93394819D02*
X126018095Y-93347200D01*
X126018095Y-93347200D02*
X126065714Y-93299580D01*
X126065714Y-93299580D02*
X126113333Y-93204342D01*
X126113333Y-93204342D02*
X126113333Y-92394819D01*
X127113333Y-93394819D02*
X126541905Y-93394819D01*
X126827619Y-93394819D02*
X126827619Y-92394819D01*
X126827619Y-92394819D02*
X126732381Y-92537676D01*
X126732381Y-92537676D02*
X126637143Y-92632914D01*
X126637143Y-92632914D02*
X126541905Y-92680533D01*
X128065714Y-93394819D02*
X127494286Y-93394819D01*
X127780000Y-93394819D02*
X127780000Y-92394819D01*
X127780000Y-92394819D02*
X127684762Y-92537676D01*
X127684762Y-92537676D02*
X127589524Y-92632914D01*
X127589524Y-92632914D02*
X127494286Y-92680533D01*
X102860323Y-83683839D02*
X102799847Y-83653601D01*
X102799847Y-83653601D02*
X102739371Y-83593125D01*
X102739371Y-83593125D02*
X102648657Y-83502410D01*
X102648657Y-83502410D02*
X102588180Y-83472172D01*
X102588180Y-83472172D02*
X102527704Y-83472172D01*
X102557942Y-83623363D02*
X102497466Y-83593125D01*
X102497466Y-83593125D02*
X102436990Y-83532648D01*
X102436990Y-83532648D02*
X102406752Y-83411696D01*
X102406752Y-83411696D02*
X102406752Y-83200029D01*
X102406752Y-83200029D02*
X102436990Y-83079077D01*
X102436990Y-83079077D02*
X102497466Y-83018601D01*
X102497466Y-83018601D02*
X102557942Y-82988363D01*
X102557942Y-82988363D02*
X102678895Y-82988363D01*
X102678895Y-82988363D02*
X102739371Y-83018601D01*
X102739371Y-83018601D02*
X102799847Y-83079077D01*
X102799847Y-83079077D02*
X102830085Y-83200029D01*
X102830085Y-83200029D02*
X102830085Y-83411696D01*
X102830085Y-83411696D02*
X102799847Y-83532648D01*
X102799847Y-83532648D02*
X102739371Y-83593125D01*
X102739371Y-83593125D02*
X102678895Y-83623363D01*
X102678895Y-83623363D02*
X102557942Y-83623363D01*
X103041752Y-82988363D02*
X103434847Y-82988363D01*
X103434847Y-82988363D02*
X103223180Y-83230267D01*
X103223180Y-83230267D02*
X103313895Y-83230267D01*
X103313895Y-83230267D02*
X103374371Y-83260505D01*
X103374371Y-83260505D02*
X103404609Y-83290744D01*
X103404609Y-83290744D02*
X103434847Y-83351220D01*
X103434847Y-83351220D02*
X103434847Y-83502410D01*
X103434847Y-83502410D02*
X103404609Y-83562886D01*
X103404609Y-83562886D02*
X103374371Y-83593125D01*
X103374371Y-83593125D02*
X103313895Y-83623363D01*
X103313895Y-83623363D02*
X103132466Y-83623363D01*
X103132466Y-83623363D02*
X103071990Y-83593125D01*
X103071990Y-83593125D02*
X103041752Y-83562886D01*
X106602590Y-78879063D02*
X106602590Y-79393110D01*
X106602590Y-79393110D02*
X106632828Y-79453586D01*
X106632828Y-79453586D02*
X106663066Y-79483825D01*
X106663066Y-79483825D02*
X106723542Y-79514063D01*
X106723542Y-79514063D02*
X106844495Y-79514063D01*
X106844495Y-79514063D02*
X106904971Y-79483825D01*
X106904971Y-79483825D02*
X106935209Y-79453586D01*
X106935209Y-79453586D02*
X106965447Y-79393110D01*
X106965447Y-79393110D02*
X106965447Y-78879063D01*
X107358542Y-79151205D02*
X107298066Y-79120967D01*
X107298066Y-79120967D02*
X107267828Y-79090729D01*
X107267828Y-79090729D02*
X107237590Y-79030253D01*
X107237590Y-79030253D02*
X107237590Y-79000015D01*
X107237590Y-79000015D02*
X107267828Y-78939539D01*
X107267828Y-78939539D02*
X107298066Y-78909301D01*
X107298066Y-78909301D02*
X107358542Y-78879063D01*
X107358542Y-78879063D02*
X107479495Y-78879063D01*
X107479495Y-78879063D02*
X107539971Y-78909301D01*
X107539971Y-78909301D02*
X107570209Y-78939539D01*
X107570209Y-78939539D02*
X107600447Y-79000015D01*
X107600447Y-79000015D02*
X107600447Y-79030253D01*
X107600447Y-79030253D02*
X107570209Y-79090729D01*
X107570209Y-79090729D02*
X107539971Y-79120967D01*
X107539971Y-79120967D02*
X107479495Y-79151205D01*
X107479495Y-79151205D02*
X107358542Y-79151205D01*
X107358542Y-79151205D02*
X107298066Y-79181444D01*
X107298066Y-79181444D02*
X107267828Y-79211682D01*
X107267828Y-79211682D02*
X107237590Y-79272158D01*
X107237590Y-79272158D02*
X107237590Y-79393110D01*
X107237590Y-79393110D02*
X107267828Y-79453586D01*
X107267828Y-79453586D02*
X107298066Y-79483825D01*
X107298066Y-79483825D02*
X107358542Y-79514063D01*
X107358542Y-79514063D02*
X107479495Y-79514063D01*
X107479495Y-79514063D02*
X107539971Y-79483825D01*
X107539971Y-79483825D02*
X107570209Y-79453586D01*
X107570209Y-79453586D02*
X107600447Y-79393110D01*
X107600447Y-79393110D02*
X107600447Y-79272158D01*
X107600447Y-79272158D02*
X107570209Y-79211682D01*
X107570209Y-79211682D02*
X107539971Y-79181444D01*
X107539971Y-79181444D02*
X107479495Y-79151205D01*
X97067309Y-65259163D02*
X97067309Y-64624163D01*
X97067309Y-64624163D02*
X97218499Y-64624163D01*
X97218499Y-64624163D02*
X97309214Y-64654401D01*
X97309214Y-64654401D02*
X97369690Y-64714877D01*
X97369690Y-64714877D02*
X97399928Y-64775353D01*
X97399928Y-64775353D02*
X97430166Y-64896305D01*
X97430166Y-64896305D02*
X97430166Y-64987020D01*
X97430166Y-64987020D02*
X97399928Y-65107972D01*
X97399928Y-65107972D02*
X97369690Y-65168448D01*
X97369690Y-65168448D02*
X97309214Y-65228925D01*
X97309214Y-65228925D02*
X97218499Y-65259163D01*
X97218499Y-65259163D02*
X97067309Y-65259163D01*
X97974452Y-64835829D02*
X97974452Y-65259163D01*
X97823261Y-64593925D02*
X97672071Y-65047496D01*
X97672071Y-65047496D02*
X98065166Y-65047496D01*
X107550609Y-97825628D02*
X107550609Y-98301819D01*
X107217276Y-97301819D02*
X107550609Y-97825628D01*
X107550609Y-97825628D02*
X107883942Y-97301819D01*
X108741085Y-98301819D02*
X108169657Y-98301819D01*
X108455371Y-98301819D02*
X108455371Y-97301819D01*
X108455371Y-97301819D02*
X108360133Y-97444676D01*
X108360133Y-97444676D02*
X108264895Y-97539914D01*
X108264895Y-97539914D02*
X108169657Y-97587533D01*
X102803566Y-82023163D02*
X102591899Y-81720782D01*
X102440709Y-82023163D02*
X102440709Y-81388163D01*
X102440709Y-81388163D02*
X102682614Y-81388163D01*
X102682614Y-81388163D02*
X102743090Y-81418401D01*
X102743090Y-81418401D02*
X102773328Y-81448639D01*
X102773328Y-81448639D02*
X102803566Y-81509115D01*
X102803566Y-81509115D02*
X102803566Y-81599829D01*
X102803566Y-81599829D02*
X102773328Y-81660305D01*
X102773328Y-81660305D02*
X102743090Y-81690544D01*
X102743090Y-81690544D02*
X102682614Y-81720782D01*
X102682614Y-81720782D02*
X102440709Y-81720782D01*
X103105947Y-82023163D02*
X103226899Y-82023163D01*
X103226899Y-82023163D02*
X103287376Y-81992925D01*
X103287376Y-81992925D02*
X103317614Y-81962686D01*
X103317614Y-81962686D02*
X103378090Y-81871972D01*
X103378090Y-81871972D02*
X103408328Y-81751020D01*
X103408328Y-81751020D02*
X103408328Y-81509115D01*
X103408328Y-81509115D02*
X103378090Y-81448639D01*
X103378090Y-81448639D02*
X103347852Y-81418401D01*
X103347852Y-81418401D02*
X103287376Y-81388163D01*
X103287376Y-81388163D02*
X103166423Y-81388163D01*
X103166423Y-81388163D02*
X103105947Y-81418401D01*
X103105947Y-81418401D02*
X103075709Y-81448639D01*
X103075709Y-81448639D02*
X103045471Y-81509115D01*
X103045471Y-81509115D02*
X103045471Y-81660305D01*
X103045471Y-81660305D02*
X103075709Y-81720782D01*
X103075709Y-81720782D02*
X103105947Y-81751020D01*
X103105947Y-81751020D02*
X103166423Y-81781258D01*
X103166423Y-81781258D02*
X103287376Y-81781258D01*
X103287376Y-81781258D02*
X103347852Y-81751020D01*
X103347852Y-81751020D02*
X103378090Y-81720782D01*
X103378090Y-81720782D02*
X103408328Y-81660305D01*
X102563385Y-90354363D02*
X102351718Y-90051982D01*
X102200528Y-90354363D02*
X102200528Y-89719363D01*
X102200528Y-89719363D02*
X102442433Y-89719363D01*
X102442433Y-89719363D02*
X102502909Y-89749601D01*
X102502909Y-89749601D02*
X102533147Y-89779839D01*
X102533147Y-89779839D02*
X102563385Y-89840315D01*
X102563385Y-89840315D02*
X102563385Y-89931029D01*
X102563385Y-89931029D02*
X102533147Y-89991505D01*
X102533147Y-89991505D02*
X102502909Y-90021744D01*
X102502909Y-90021744D02*
X102442433Y-90051982D01*
X102442433Y-90051982D02*
X102200528Y-90051982D01*
X103168147Y-90354363D02*
X102805290Y-90354363D01*
X102986718Y-90354363D02*
X102986718Y-89719363D01*
X102986718Y-89719363D02*
X102926242Y-89810077D01*
X102926242Y-89810077D02*
X102865766Y-89870553D01*
X102865766Y-89870553D02*
X102805290Y-89900791D01*
X103712433Y-89931029D02*
X103712433Y-90354363D01*
X103561242Y-89689125D02*
X103410052Y-90142696D01*
X103410052Y-90142696D02*
X103803147Y-90142696D01*
X104341990Y-72842463D02*
X104341990Y-73356510D01*
X104341990Y-73356510D02*
X104372228Y-73416986D01*
X104372228Y-73416986D02*
X104402466Y-73447225D01*
X104402466Y-73447225D02*
X104462942Y-73477463D01*
X104462942Y-73477463D02*
X104583895Y-73477463D01*
X104583895Y-73477463D02*
X104644371Y-73447225D01*
X104644371Y-73447225D02*
X104674609Y-73416986D01*
X104674609Y-73416986D02*
X104704847Y-73356510D01*
X104704847Y-73356510D02*
X104704847Y-72842463D01*
X104946752Y-72842463D02*
X105370085Y-72842463D01*
X105370085Y-72842463D02*
X105097942Y-73477463D01*
D14*
X136310309Y-65438159D02*
X136310309Y-64803159D01*
X136310309Y-64803159D02*
X136461499Y-64803159D01*
X136461499Y-64803159D02*
X136552214Y-64833397D01*
X136552214Y-64833397D02*
X136612690Y-64893873D01*
X136612690Y-64893873D02*
X136642928Y-64954349D01*
X136642928Y-64954349D02*
X136673166Y-65075301D01*
X136673166Y-65075301D02*
X136673166Y-65166016D01*
X136673166Y-65166016D02*
X136642928Y-65286968D01*
X136642928Y-65286968D02*
X136612690Y-65347444D01*
X136612690Y-65347444D02*
X136552214Y-65407921D01*
X136552214Y-65407921D02*
X136461499Y-65438159D01*
X136461499Y-65438159D02*
X136310309Y-65438159D01*
X137247690Y-64803159D02*
X136945309Y-64803159D01*
X136945309Y-64803159D02*
X136915071Y-65105540D01*
X136915071Y-65105540D02*
X136945309Y-65075301D01*
X136945309Y-65075301D02*
X137005785Y-65045063D01*
X137005785Y-65045063D02*
X137156976Y-65045063D01*
X137156976Y-65045063D02*
X137217452Y-65075301D01*
X137217452Y-65075301D02*
X137247690Y-65105540D01*
X137247690Y-65105540D02*
X137277928Y-65166016D01*
X137277928Y-65166016D02*
X137277928Y-65317206D01*
X137277928Y-65317206D02*
X137247690Y-65377682D01*
X137247690Y-65377682D02*
X137217452Y-65407921D01*
X137217452Y-65407921D02*
X137156976Y-65438159D01*
X137156976Y-65438159D02*
X137005785Y-65438159D01*
X137005785Y-65438159D02*
X136945309Y-65407921D01*
X136945309Y-65407921D02*
X136915071Y-65377682D01*
D13*
X102916566Y-72904563D02*
X102704899Y-72602182D01*
X102553709Y-72904563D02*
X102553709Y-72269563D01*
X102553709Y-72269563D02*
X102795614Y-72269563D01*
X102795614Y-72269563D02*
X102856090Y-72299801D01*
X102856090Y-72299801D02*
X102886328Y-72330039D01*
X102886328Y-72330039D02*
X102916566Y-72390515D01*
X102916566Y-72390515D02*
X102916566Y-72481229D01*
X102916566Y-72481229D02*
X102886328Y-72541705D01*
X102886328Y-72541705D02*
X102856090Y-72571944D01*
X102856090Y-72571944D02*
X102795614Y-72602182D01*
X102795614Y-72602182D02*
X102553709Y-72602182D01*
X103460852Y-72481229D02*
X103460852Y-72904563D01*
X103309661Y-72239325D02*
X103158471Y-72692896D01*
X103158471Y-72692896D02*
X103551566Y-72692896D01*
X107617985Y-93707163D02*
X107406318Y-93404782D01*
X107255128Y-93707163D02*
X107255128Y-93072163D01*
X107255128Y-93072163D02*
X107497033Y-93072163D01*
X107497033Y-93072163D02*
X107557509Y-93102401D01*
X107557509Y-93102401D02*
X107587747Y-93132639D01*
X107587747Y-93132639D02*
X107617985Y-93193115D01*
X107617985Y-93193115D02*
X107617985Y-93283829D01*
X107617985Y-93283829D02*
X107587747Y-93344305D01*
X107587747Y-93344305D02*
X107557509Y-93374544D01*
X107557509Y-93374544D02*
X107497033Y-93404782D01*
X107497033Y-93404782D02*
X107255128Y-93404782D01*
X108222747Y-93707163D02*
X107859890Y-93707163D01*
X108041318Y-93707163D02*
X108041318Y-93072163D01*
X108041318Y-93072163D02*
X107980842Y-93162877D01*
X107980842Y-93162877D02*
X107920366Y-93223353D01*
X107920366Y-93223353D02*
X107859890Y-93253591D01*
X108585604Y-93344305D02*
X108525128Y-93314067D01*
X108525128Y-93314067D02*
X108494890Y-93283829D01*
X108494890Y-93283829D02*
X108464652Y-93223353D01*
X108464652Y-93223353D02*
X108464652Y-93193115D01*
X108464652Y-93193115D02*
X108494890Y-93132639D01*
X108494890Y-93132639D02*
X108525128Y-93102401D01*
X108525128Y-93102401D02*
X108585604Y-93072163D01*
X108585604Y-93072163D02*
X108706557Y-93072163D01*
X108706557Y-93072163D02*
X108767033Y-93102401D01*
X108767033Y-93102401D02*
X108797271Y-93132639D01*
X108797271Y-93132639D02*
X108827509Y-93193115D01*
X108827509Y-93193115D02*
X108827509Y-93223353D01*
X108827509Y-93223353D02*
X108797271Y-93283829D01*
X108797271Y-93283829D02*
X108767033Y-93314067D01*
X108767033Y-93314067D02*
X108706557Y-93344305D01*
X108706557Y-93344305D02*
X108585604Y-93344305D01*
X108585604Y-93344305D02*
X108525128Y-93374544D01*
X108525128Y-93374544D02*
X108494890Y-93404782D01*
X108494890Y-93404782D02*
X108464652Y-93465258D01*
X108464652Y-93465258D02*
X108464652Y-93586210D01*
X108464652Y-93586210D02*
X108494890Y-93646686D01*
X108494890Y-93646686D02*
X108525128Y-93676925D01*
X108525128Y-93676925D02*
X108585604Y-93707163D01*
X108585604Y-93707163D02*
X108706557Y-93707163D01*
X108706557Y-93707163D02*
X108767033Y-93676925D01*
X108767033Y-93676925D02*
X108797271Y-93646686D01*
X108797271Y-93646686D02*
X108827509Y-93586210D01*
X108827509Y-93586210D02*
X108827509Y-93465258D01*
X108827509Y-93465258D02*
X108797271Y-93404782D01*
X108797271Y-93404782D02*
X108767033Y-93374544D01*
X108767033Y-93374544D02*
X108706557Y-93344305D01*
X102784123Y-75073239D02*
X102723647Y-75043001D01*
X102723647Y-75043001D02*
X102663171Y-74982525D01*
X102663171Y-74982525D02*
X102572457Y-74891810D01*
X102572457Y-74891810D02*
X102511980Y-74861572D01*
X102511980Y-74861572D02*
X102451504Y-74861572D01*
X102481742Y-75012763D02*
X102421266Y-74982525D01*
X102421266Y-74982525D02*
X102360790Y-74922048D01*
X102360790Y-74922048D02*
X102330552Y-74801096D01*
X102330552Y-74801096D02*
X102330552Y-74589429D01*
X102330552Y-74589429D02*
X102360790Y-74468477D01*
X102360790Y-74468477D02*
X102421266Y-74408001D01*
X102421266Y-74408001D02*
X102481742Y-74377763D01*
X102481742Y-74377763D02*
X102602695Y-74377763D01*
X102602695Y-74377763D02*
X102663171Y-74408001D01*
X102663171Y-74408001D02*
X102723647Y-74468477D01*
X102723647Y-74468477D02*
X102753885Y-74589429D01*
X102753885Y-74589429D02*
X102753885Y-74801096D01*
X102753885Y-74801096D02*
X102723647Y-74922048D01*
X102723647Y-74922048D02*
X102663171Y-74982525D01*
X102663171Y-74982525D02*
X102602695Y-75012763D01*
X102602695Y-75012763D02*
X102481742Y-75012763D01*
X102995790Y-74438239D02*
X103026028Y-74408001D01*
X103026028Y-74408001D02*
X103086504Y-74377763D01*
X103086504Y-74377763D02*
X103237695Y-74377763D01*
X103237695Y-74377763D02*
X103298171Y-74408001D01*
X103298171Y-74408001D02*
X103328409Y-74438239D01*
X103328409Y-74438239D02*
X103358647Y-74498715D01*
X103358647Y-74498715D02*
X103358647Y-74559191D01*
X103358647Y-74559191D02*
X103328409Y-74649905D01*
X103328409Y-74649905D02*
X102965552Y-75012763D01*
X102965552Y-75012763D02*
X103358647Y-75012763D01*
X135840305Y-91094419D02*
X135840305Y-91903942D01*
X135840305Y-91903942D02*
X135887924Y-91999180D01*
X135887924Y-91999180D02*
X135935543Y-92046800D01*
X135935543Y-92046800D02*
X136030781Y-92094419D01*
X136030781Y-92094419D02*
X136221257Y-92094419D01*
X136221257Y-92094419D02*
X136316495Y-92046800D01*
X136316495Y-92046800D02*
X136364114Y-91999180D01*
X136364114Y-91999180D02*
X136411733Y-91903942D01*
X136411733Y-91903942D02*
X136411733Y-91094419D01*
X137411733Y-92094419D02*
X136840305Y-92094419D01*
X137126019Y-92094419D02*
X137126019Y-91094419D01*
X137126019Y-91094419D02*
X137030781Y-91237276D01*
X137030781Y-91237276D02*
X136935543Y-91332514D01*
X136935543Y-91332514D02*
X136840305Y-91380133D01*
X138030781Y-91094419D02*
X138126019Y-91094419D01*
X138126019Y-91094419D02*
X138221257Y-91142038D01*
X138221257Y-91142038D02*
X138268876Y-91189657D01*
X138268876Y-91189657D02*
X138316495Y-91284895D01*
X138316495Y-91284895D02*
X138364114Y-91475371D01*
X138364114Y-91475371D02*
X138364114Y-91713466D01*
X138364114Y-91713466D02*
X138316495Y-91903942D01*
X138316495Y-91903942D02*
X138268876Y-91999180D01*
X138268876Y-91999180D02*
X138221257Y-92046800D01*
X138221257Y-92046800D02*
X138126019Y-92094419D01*
X138126019Y-92094419D02*
X138030781Y-92094419D01*
X138030781Y-92094419D02*
X137935543Y-92046800D01*
X137935543Y-92046800D02*
X137887924Y-91999180D01*
X137887924Y-91999180D02*
X137840305Y-91903942D01*
X137840305Y-91903942D02*
X137792686Y-91713466D01*
X137792686Y-91713466D02*
X137792686Y-91475371D01*
X137792686Y-91475371D02*
X137840305Y-91284895D01*
X137840305Y-91284895D02*
X137887924Y-91189657D01*
X137887924Y-91189657D02*
X137935543Y-91142038D01*
X137935543Y-91142038D02*
X138030781Y-91094419D01*
X93151385Y-90421518D02*
X92939718Y-90119137D01*
X92788528Y-90421518D02*
X92788528Y-89786518D01*
X92788528Y-89786518D02*
X93030433Y-89786518D01*
X93030433Y-89786518D02*
X93090909Y-89816756D01*
X93090909Y-89816756D02*
X93121147Y-89846994D01*
X93121147Y-89846994D02*
X93151385Y-89907470D01*
X93151385Y-89907470D02*
X93151385Y-89998184D01*
X93151385Y-89998184D02*
X93121147Y-90058660D01*
X93121147Y-90058660D02*
X93090909Y-90088899D01*
X93090909Y-90088899D02*
X93030433Y-90119137D01*
X93030433Y-90119137D02*
X92788528Y-90119137D01*
X93756147Y-90421518D02*
X93393290Y-90421518D01*
X93574718Y-90421518D02*
X93574718Y-89786518D01*
X93574718Y-89786518D02*
X93514242Y-89877232D01*
X93514242Y-89877232D02*
X93453766Y-89937708D01*
X93453766Y-89937708D02*
X93393290Y-89967946D01*
X94330671Y-89786518D02*
X94028290Y-89786518D01*
X94028290Y-89786518D02*
X93998052Y-90088899D01*
X93998052Y-90088899D02*
X94028290Y-90058660D01*
X94028290Y-90058660D02*
X94088766Y-90028422D01*
X94088766Y-90028422D02*
X94239957Y-90028422D01*
X94239957Y-90028422D02*
X94300433Y-90058660D01*
X94300433Y-90058660D02*
X94330671Y-90088899D01*
X94330671Y-90088899D02*
X94360909Y-90149375D01*
X94360909Y-90149375D02*
X94360909Y-90300565D01*
X94360909Y-90300565D02*
X94330671Y-90361041D01*
X94330671Y-90361041D02*
X94300433Y-90391280D01*
X94300433Y-90391280D02*
X94239957Y-90421518D01*
X94239957Y-90421518D02*
X94088766Y-90421518D01*
X94088766Y-90421518D02*
X94028290Y-90391280D01*
X94028290Y-90391280D02*
X93998052Y-90361041D01*
X105611385Y-93707163D02*
X105399718Y-93404782D01*
X105248528Y-93707163D02*
X105248528Y-93072163D01*
X105248528Y-93072163D02*
X105490433Y-93072163D01*
X105490433Y-93072163D02*
X105550909Y-93102401D01*
X105550909Y-93102401D02*
X105581147Y-93132639D01*
X105581147Y-93132639D02*
X105611385Y-93193115D01*
X105611385Y-93193115D02*
X105611385Y-93283829D01*
X105611385Y-93283829D02*
X105581147Y-93344305D01*
X105581147Y-93344305D02*
X105550909Y-93374544D01*
X105550909Y-93374544D02*
X105490433Y-93404782D01*
X105490433Y-93404782D02*
X105248528Y-93404782D01*
X106216147Y-93707163D02*
X105853290Y-93707163D01*
X106034718Y-93707163D02*
X106034718Y-93072163D01*
X106034718Y-93072163D02*
X105974242Y-93162877D01*
X105974242Y-93162877D02*
X105913766Y-93223353D01*
X105913766Y-93223353D02*
X105853290Y-93253591D01*
X106427814Y-93072163D02*
X106851147Y-93072163D01*
X106851147Y-93072163D02*
X106579004Y-93707163D01*
X107612185Y-88793263D02*
X107400518Y-88490882D01*
X107249328Y-88793263D02*
X107249328Y-88158263D01*
X107249328Y-88158263D02*
X107491233Y-88158263D01*
X107491233Y-88158263D02*
X107551709Y-88188501D01*
X107551709Y-88188501D02*
X107581947Y-88218739D01*
X107581947Y-88218739D02*
X107612185Y-88279215D01*
X107612185Y-88279215D02*
X107612185Y-88369929D01*
X107612185Y-88369929D02*
X107581947Y-88430405D01*
X107581947Y-88430405D02*
X107551709Y-88460644D01*
X107551709Y-88460644D02*
X107491233Y-88490882D01*
X107491233Y-88490882D02*
X107249328Y-88490882D01*
X108216947Y-88793263D02*
X107854090Y-88793263D01*
X108035518Y-88793263D02*
X108035518Y-88158263D01*
X108035518Y-88158263D02*
X107975042Y-88248977D01*
X107975042Y-88248977D02*
X107914566Y-88309453D01*
X107914566Y-88309453D02*
X107854090Y-88339691D01*
X108519328Y-88793263D02*
X108640280Y-88793263D01*
X108640280Y-88793263D02*
X108700757Y-88763025D01*
X108700757Y-88763025D02*
X108730995Y-88732786D01*
X108730995Y-88732786D02*
X108791471Y-88642072D01*
X108791471Y-88642072D02*
X108821709Y-88521120D01*
X108821709Y-88521120D02*
X108821709Y-88279215D01*
X108821709Y-88279215D02*
X108791471Y-88218739D01*
X108791471Y-88218739D02*
X108761233Y-88188501D01*
X108761233Y-88188501D02*
X108700757Y-88158263D01*
X108700757Y-88158263D02*
X108579804Y-88158263D01*
X108579804Y-88158263D02*
X108519328Y-88188501D01*
X108519328Y-88188501D02*
X108489090Y-88218739D01*
X108489090Y-88218739D02*
X108458852Y-88279215D01*
X108458852Y-88279215D02*
X108458852Y-88430405D01*
X108458852Y-88430405D02*
X108489090Y-88490882D01*
X108489090Y-88490882D02*
X108519328Y-88521120D01*
X108519328Y-88521120D02*
X108579804Y-88551358D01*
X108579804Y-88551358D02*
X108700757Y-88551358D01*
X108700757Y-88551358D02*
X108761233Y-88521120D01*
X108761233Y-88521120D02*
X108791471Y-88490882D01*
X108791471Y-88490882D02*
X108821709Y-88430405D01*
X93442366Y-72879163D02*
X93230699Y-72576782D01*
X93079509Y-72879163D02*
X93079509Y-72244163D01*
X93079509Y-72244163D02*
X93321414Y-72244163D01*
X93321414Y-72244163D02*
X93381890Y-72274401D01*
X93381890Y-72274401D02*
X93412128Y-72304639D01*
X93412128Y-72304639D02*
X93442366Y-72365115D01*
X93442366Y-72365115D02*
X93442366Y-72455829D01*
X93442366Y-72455829D02*
X93412128Y-72516305D01*
X93412128Y-72516305D02*
X93381890Y-72546544D01*
X93381890Y-72546544D02*
X93321414Y-72576782D01*
X93321414Y-72576782D02*
X93079509Y-72576782D01*
X94016890Y-72244163D02*
X93714509Y-72244163D01*
X93714509Y-72244163D02*
X93684271Y-72546544D01*
X93684271Y-72546544D02*
X93714509Y-72516305D01*
X93714509Y-72516305D02*
X93774985Y-72486067D01*
X93774985Y-72486067D02*
X93926176Y-72486067D01*
X93926176Y-72486067D02*
X93986652Y-72516305D01*
X93986652Y-72516305D02*
X94016890Y-72546544D01*
X94016890Y-72546544D02*
X94047128Y-72607020D01*
X94047128Y-72607020D02*
X94047128Y-72758210D01*
X94047128Y-72758210D02*
X94016890Y-72818686D01*
X94016890Y-72818686D02*
X93986652Y-72848925D01*
X93986652Y-72848925D02*
X93926176Y-72879163D01*
X93926176Y-72879163D02*
X93774985Y-72879163D01*
X93774985Y-72879163D02*
X93714509Y-72848925D01*
X93714509Y-72848925D02*
X93684271Y-72818686D01*
X141476185Y-66976686D02*
X141445947Y-67006925D01*
X141445947Y-67006925D02*
X141355233Y-67037163D01*
X141355233Y-67037163D02*
X141294757Y-67037163D01*
X141294757Y-67037163D02*
X141204042Y-67006925D01*
X141204042Y-67006925D02*
X141143566Y-66946448D01*
X141143566Y-66946448D02*
X141113328Y-66885972D01*
X141113328Y-66885972D02*
X141083090Y-66765020D01*
X141083090Y-66765020D02*
X141083090Y-66674305D01*
X141083090Y-66674305D02*
X141113328Y-66553353D01*
X141113328Y-66553353D02*
X141143566Y-66492877D01*
X141143566Y-66492877D02*
X141204042Y-66432401D01*
X141204042Y-66432401D02*
X141294757Y-66402163D01*
X141294757Y-66402163D02*
X141355233Y-66402163D01*
X141355233Y-66402163D02*
X141445947Y-66432401D01*
X141445947Y-66432401D02*
X141476185Y-66462639D01*
X142080947Y-67037163D02*
X141718090Y-67037163D01*
X141899518Y-67037163D02*
X141899518Y-66402163D01*
X141899518Y-66402163D02*
X141839042Y-66492877D01*
X141839042Y-66492877D02*
X141778566Y-66553353D01*
X141778566Y-66553353D02*
X141718090Y-66583591D01*
X142292614Y-66402163D02*
X142715947Y-66402163D01*
X142715947Y-66402163D02*
X142443804Y-67037163D01*
X105585985Y-88803063D02*
X105374318Y-88500682D01*
X105223128Y-88803063D02*
X105223128Y-88168063D01*
X105223128Y-88168063D02*
X105465033Y-88168063D01*
X105465033Y-88168063D02*
X105525509Y-88198301D01*
X105525509Y-88198301D02*
X105555747Y-88228539D01*
X105555747Y-88228539D02*
X105585985Y-88289015D01*
X105585985Y-88289015D02*
X105585985Y-88379729D01*
X105585985Y-88379729D02*
X105555747Y-88440205D01*
X105555747Y-88440205D02*
X105525509Y-88470444D01*
X105525509Y-88470444D02*
X105465033Y-88500682D01*
X105465033Y-88500682D02*
X105223128Y-88500682D01*
X105827890Y-88228539D02*
X105858128Y-88198301D01*
X105858128Y-88198301D02*
X105918604Y-88168063D01*
X105918604Y-88168063D02*
X106069795Y-88168063D01*
X106069795Y-88168063D02*
X106130271Y-88198301D01*
X106130271Y-88198301D02*
X106160509Y-88228539D01*
X106160509Y-88228539D02*
X106190747Y-88289015D01*
X106190747Y-88289015D02*
X106190747Y-88349491D01*
X106190747Y-88349491D02*
X106160509Y-88440205D01*
X106160509Y-88440205D02*
X105797652Y-88803063D01*
X105797652Y-88803063D02*
X106190747Y-88803063D01*
X106583842Y-88168063D02*
X106644319Y-88168063D01*
X106644319Y-88168063D02*
X106704795Y-88198301D01*
X106704795Y-88198301D02*
X106735033Y-88228539D01*
X106735033Y-88228539D02*
X106765271Y-88289015D01*
X106765271Y-88289015D02*
X106795509Y-88409967D01*
X106795509Y-88409967D02*
X106795509Y-88561158D01*
X106795509Y-88561158D02*
X106765271Y-88682110D01*
X106765271Y-88682110D02*
X106735033Y-88742586D01*
X106735033Y-88742586D02*
X106704795Y-88772825D01*
X106704795Y-88772825D02*
X106644319Y-88803063D01*
X106644319Y-88803063D02*
X106583842Y-88803063D01*
X106583842Y-88803063D02*
X106523366Y-88772825D01*
X106523366Y-88772825D02*
X106493128Y-88742586D01*
X106493128Y-88742586D02*
X106462890Y-88682110D01*
X106462890Y-88682110D02*
X106432652Y-88561158D01*
X106432652Y-88561158D02*
X106432652Y-88409967D01*
X106432652Y-88409967D02*
X106462890Y-88289015D01*
X106462890Y-88289015D02*
X106493128Y-88228539D01*
X106493128Y-88228539D02*
X106523366Y-88198301D01*
X106523366Y-88198301D02*
X106583842Y-88168063D01*
D15*
%TO.C,Q1*%
X101171600Y-66348200D02*
X101171600Y-69948200D01*
X101171600Y-69948200D02*
X104771600Y-69948200D01*
X104771600Y-66348200D02*
X101171600Y-66348200D01*
X104771600Y-69948200D02*
X104771600Y-66348200D01*
%TO.C,D2*%
X97230000Y-81075200D02*
X99690000Y-81075200D01*
X99690000Y-79605200D02*
X97230000Y-79605200D01*
X99690000Y-81075200D02*
X99690000Y-79605200D01*
%TO.C,D1*%
X97230000Y-71982000D02*
X99690000Y-71982000D01*
X99690000Y-70512000D02*
X97230000Y-70512000D01*
X99690000Y-71982000D02*
X99690000Y-70512000D01*
%TO.C,R16*%
X98501200Y-60490100D02*
X98501200Y-61887100D01*
X98501200Y-61887100D02*
X101803200Y-61887100D01*
X101803200Y-60490100D02*
X98501200Y-60490100D01*
X101803200Y-61887100D02*
X101803200Y-60490100D01*
%TO.C,D6*%
X128347600Y-65860600D02*
X130807600Y-65860600D01*
X130807600Y-64390600D02*
X128347600Y-64390600D01*
X130807600Y-65860600D02*
X130807600Y-64390600D01*
%TO.C,D3*%
X96990000Y-89457200D02*
X99450000Y-89457200D01*
X99450000Y-87987200D02*
X96990000Y-87987200D01*
X99450000Y-89457200D02*
X99450000Y-87987200D01*
%TO.C,U9*%
X110510000Y-70080000D02*
X110510000Y-86980000D01*
X110510000Y-70080000D02*
X127730000Y-70080000D01*
X127730000Y-70080000D02*
X127730000Y-87300000D01*
X127730000Y-87300000D02*
X110830000Y-87300000D01*
X110510000Y-87800000D02*
X110010000Y-87300000D01*
X110510000Y-87300000D01*
X110510000Y-87800000D01*
G36*
X110510000Y-87800000D02*
G01*
X110010000Y-87300000D01*
X110510000Y-87300000D01*
X110510000Y-87800000D01*
G37*
%TO.C,C11*%
X107719400Y-70555067D02*
X107719400Y-70262533D01*
X108739400Y-70555067D02*
X108739400Y-70262533D01*
%TO.C,R10*%
X91908600Y-79641700D02*
X91908600Y-81038700D01*
X91908600Y-81038700D02*
X95210600Y-81038700D01*
X95210600Y-79641700D02*
X91908600Y-79641700D01*
X95210600Y-81038700D02*
X95210600Y-79641700D01*
D14*
%TO.C,U11*%
X135625000Y-93325000D02*
X130345000Y-93325000D01*
X135625000Y-98605000D02*
X130345000Y-98605000D01*
D16*
X138300000Y-97870000D02*
G75*
G02*
X138100000Y-97870000I-100000J0D01*
G01*
X138100000Y-97870000D02*
G75*
G02*
X138300000Y-97870000I100000J0D01*
G01*
D15*
%TO.C,Q3*%
X101171600Y-84001200D02*
X101171600Y-87601200D01*
X101171600Y-87601200D02*
X104771600Y-87601200D01*
X104771600Y-84001200D02*
X101171600Y-84001200D01*
X104771600Y-87601200D02*
X104771600Y-84001200D01*
%TO.C,U8*%
X105551800Y-81737200D02*
X105551800Y-80937200D01*
X105551800Y-81737200D02*
X105551800Y-82537200D01*
X108671800Y-81737200D02*
X108671800Y-80937200D01*
X108671800Y-81737200D02*
X108671800Y-82537200D01*
X108951800Y-80677200D02*
X108621800Y-80437200D01*
X108951800Y-80197200D01*
X108951800Y-80677200D01*
G36*
X108951800Y-80677200D02*
G01*
X108621800Y-80437200D01*
X108951800Y-80197200D01*
X108951800Y-80677200D01*
G37*
%TO.C,D4*%
X98492200Y-64212800D02*
X98492200Y-65682800D01*
X98492200Y-65682800D02*
X100952200Y-65682800D01*
X100952200Y-64212800D02*
X98492200Y-64212800D01*
D13*
%TO.C,Y1*%
X110017400Y-97968800D02*
X109467400Y-97968800D01*
X110317400Y-94368800D02*
X110317400Y-96568800D01*
X110317400Y-96568800D02*
X109467400Y-96568800D01*
X112617400Y-92968800D02*
X115017400Y-92968800D01*
X112617400Y-97968800D02*
X115017400Y-97968800D01*
X117317400Y-96568800D02*
X117317400Y-94368800D01*
D15*
%TO.C,R9*%
X101360000Y-79641700D02*
X101360000Y-81038700D01*
X101360000Y-81038700D02*
X104662000Y-81038700D01*
X104662000Y-79641700D02*
X101360000Y-79641700D01*
X104662000Y-81038700D02*
X104662000Y-79641700D01*
%TO.C,R14*%
X101320600Y-88023700D02*
X101320600Y-89420700D01*
X101320600Y-89420700D02*
X104622600Y-89420700D01*
X104622600Y-88023700D02*
X101320600Y-88023700D01*
X104622600Y-89420700D02*
X104622600Y-88023700D01*
%TO.C,U7*%
X106614200Y-75855000D02*
X107914200Y-75855000D01*
X107914200Y-72735000D02*
X106644200Y-72735000D01*
X106264200Y-72785000D02*
X106024200Y-72455000D01*
X106504200Y-72455000D01*
X106264200Y-72785000D01*
G36*
X106264200Y-72785000D02*
G01*
X106024200Y-72455000D01*
X106504200Y-72455000D01*
X106264200Y-72785000D01*
G37*
%TO.C,D5*%
X132782200Y-64390600D02*
X132782200Y-65860600D01*
X132782200Y-65860600D02*
X135242200Y-65860600D01*
X135242200Y-64390600D02*
X132782200Y-64390600D01*
%TO.C,R4*%
X101360000Y-70548500D02*
X101360000Y-71945500D01*
X101360000Y-71945500D02*
X104662000Y-71945500D01*
X104662000Y-70548500D02*
X101360000Y-70548500D01*
X104662000Y-71945500D02*
X104662000Y-70548500D01*
%TO.C,R18*%
X107327700Y-89357200D02*
X107327700Y-92659200D01*
X107327700Y-92659200D02*
X108724700Y-92659200D01*
X108724700Y-89357200D02*
X107327700Y-89357200D01*
X108724700Y-92659200D02*
X108724700Y-89357200D01*
%TO.C,Q2*%
X101171600Y-75365200D02*
X101171600Y-78965200D01*
X101171600Y-78965200D02*
X104771600Y-78965200D01*
X104771600Y-75365200D02*
X101171600Y-75365200D01*
X104771600Y-78965200D02*
X104771600Y-75365200D01*
%TO.C,U10*%
X131758400Y-68449600D02*
X131758400Y-68049600D01*
X131758400Y-90649600D02*
X131758400Y-90249600D01*
X142358400Y-68049600D02*
X131758400Y-68049600D01*
X142358400Y-68449600D02*
X142358400Y-68049600D01*
X142358400Y-90249600D02*
X142358400Y-90649600D01*
X142358400Y-90649600D02*
X131758400Y-90649600D01*
X142998400Y-90579600D02*
X142518400Y-90579600D01*
X142758400Y-90249600D01*
X142998400Y-90579600D01*
G36*
X142998400Y-90579600D02*
G01*
X142518400Y-90579600D01*
X142758400Y-90249600D01*
X142998400Y-90579600D01*
G37*
%TO.C,R15*%
X91908600Y-88023700D02*
X91908600Y-89420700D01*
X91908600Y-89420700D02*
X95210600Y-89420700D01*
X95210600Y-88023700D02*
X91908600Y-88023700D01*
X95210600Y-89420700D02*
X95210600Y-88023700D01*
%TO.C,R17*%
X105321100Y-89357200D02*
X105321100Y-92659200D01*
X105321100Y-92659200D02*
X106718100Y-92659200D01*
X106718100Y-89357200D02*
X105321100Y-89357200D01*
X106718100Y-92659200D02*
X106718100Y-89357200D01*
%TO.C,R19*%
X107327700Y-84480400D02*
X107327700Y-87782400D01*
X107327700Y-87782400D02*
X108724700Y-87782400D01*
X108724700Y-84480400D02*
X107327700Y-84480400D01*
X108724700Y-87782400D02*
X108724700Y-84480400D01*
%TO.C,R5*%
X91908600Y-70548500D02*
X91908600Y-71945500D01*
X91908600Y-71945500D02*
X95210600Y-71945500D01*
X95210600Y-70548500D02*
X91908600Y-70548500D01*
X95210600Y-71945500D02*
X95210600Y-70548500D01*
%TO.C,R20*%
X105321100Y-84480400D02*
X105321100Y-87782400D01*
X105321100Y-87782400D02*
X106718100Y-87782400D01*
X106718100Y-84480400D02*
X105321100Y-84480400D01*
X106718100Y-87782400D02*
X106718100Y-84480400D01*
%TD*%
%LPC*%
D17*
%TO.C,Q1*%
X103971600Y-69098200D03*
X103971600Y-67198200D03*
X101971600Y-68148200D03*
%TD*%
D18*
%TO.C,D2*%
X98905000Y-80340200D03*
X97155000Y-80340200D03*
%TD*%
D19*
%TO.C,H3*%
X93370128Y-95780000D03*
%TD*%
D18*
%TO.C,D1*%
X98905000Y-71247000D03*
X97155000Y-71247000D03*
%TD*%
%TO.C,R16*%
X101027200Y-61188600D03*
X99277200Y-61188600D03*
%TD*%
%TO.C,D6*%
X130022600Y-65125600D03*
X128272600Y-65125600D03*
%TD*%
D19*
%TO.C,H2*%
X141375036Y-62790128D03*
%TD*%
D18*
%TO.C,D3*%
X98665000Y-88722200D03*
X96915000Y-88722200D03*
%TD*%
D20*
%TO.C,U9*%
X111520000Y-85490000D03*
X111520000Y-84690000D03*
X111520000Y-83890000D03*
X111520000Y-83090000D03*
X111520000Y-82290000D03*
X111520000Y-81490000D03*
X111520000Y-80690000D03*
X111520000Y-79890000D03*
X111520000Y-79090000D03*
X111520000Y-78290000D03*
X111520000Y-77490000D03*
X111520000Y-76690000D03*
X111520000Y-75890000D03*
X111520000Y-75090000D03*
X111520000Y-74290000D03*
X111520000Y-73490000D03*
X111520000Y-72690000D03*
X111520000Y-71890000D03*
X112320000Y-86290000D03*
X112320000Y-85490000D03*
X112320000Y-84690000D03*
X112320000Y-83890000D03*
X112320000Y-83090000D03*
X112320000Y-82290000D03*
X112320000Y-81490000D03*
X112320000Y-80690000D03*
X112320000Y-79890000D03*
X112320000Y-79090000D03*
X112320000Y-78290000D03*
X112320000Y-77490000D03*
X112320000Y-76690000D03*
X112320000Y-75890000D03*
X112320000Y-75090000D03*
X112320000Y-74290000D03*
X112320000Y-73490000D03*
X112320000Y-72690000D03*
X112320000Y-71890000D03*
X112320000Y-71090000D03*
X113120000Y-86290000D03*
X113120000Y-85490000D03*
X113120000Y-84690000D03*
X113120000Y-83890000D03*
X113120000Y-83090000D03*
X113120000Y-82290000D03*
X113120000Y-81490000D03*
X113120000Y-80690000D03*
X113120000Y-79890000D03*
X113120000Y-79090000D03*
X113120000Y-78290000D03*
X113120000Y-77490000D03*
X113120000Y-76690000D03*
X113120000Y-75890000D03*
X113120000Y-75090000D03*
X113120000Y-74290000D03*
X113120000Y-73490000D03*
X113120000Y-72690000D03*
X113120000Y-71890000D03*
X113120000Y-71090000D03*
X113920000Y-86290000D03*
X113920000Y-85490000D03*
X113920000Y-84690000D03*
X113920000Y-83890000D03*
X113920000Y-83090000D03*
X113920000Y-82290000D03*
X113920000Y-81490000D03*
X113920000Y-80690000D03*
X113920000Y-79890000D03*
X113920000Y-79090000D03*
X113920000Y-78290000D03*
X113920000Y-77490000D03*
X113920000Y-76690000D03*
X113920000Y-75890000D03*
X113920000Y-75090000D03*
X113920000Y-74290000D03*
X113920000Y-73490000D03*
X113920000Y-72690000D03*
X113920000Y-71890000D03*
X113920000Y-71090000D03*
X114720000Y-86290000D03*
X114720000Y-85490000D03*
X114720000Y-84690000D03*
X114720000Y-83890000D03*
X114720000Y-83090000D03*
X114720000Y-82290000D03*
X114720000Y-81490000D03*
X114720000Y-80690000D03*
X114720000Y-79890000D03*
X114720000Y-79090000D03*
X114720000Y-78290000D03*
X114720000Y-77490000D03*
X114720000Y-76690000D03*
X114720000Y-75890000D03*
X114720000Y-75090000D03*
X114720000Y-74290000D03*
X114720000Y-73490000D03*
X114720000Y-72690000D03*
X114720000Y-71890000D03*
X114720000Y-71090000D03*
X115520000Y-86290000D03*
X115520000Y-85490000D03*
X115520000Y-84690000D03*
X115520000Y-83890000D03*
X115520000Y-83090000D03*
X115520000Y-82290000D03*
X115520000Y-81490000D03*
X115520000Y-80690000D03*
X115520000Y-79890000D03*
X115520000Y-79090000D03*
X115520000Y-78290000D03*
X115520000Y-77490000D03*
X115520000Y-76690000D03*
X115520000Y-75890000D03*
X115520000Y-75090000D03*
X115520000Y-74290000D03*
X115520000Y-73490000D03*
X115520000Y-72690000D03*
X115520000Y-71890000D03*
X115520000Y-71090000D03*
X116320000Y-86290000D03*
X116320000Y-85490000D03*
X116320000Y-84690000D03*
X116320000Y-83890000D03*
X116320000Y-83090000D03*
X116320000Y-82290000D03*
X116320000Y-81490000D03*
X116320000Y-80690000D03*
X116320000Y-79890000D03*
X116320000Y-79090000D03*
X116320000Y-78290000D03*
X116320000Y-77490000D03*
X116320000Y-76690000D03*
X116320000Y-75890000D03*
X116320000Y-75090000D03*
X116320000Y-74290000D03*
X116320000Y-73490000D03*
X116320000Y-72690000D03*
X116320000Y-71890000D03*
X116320000Y-71090000D03*
X117120000Y-86290000D03*
X117120000Y-85490000D03*
X117120000Y-84690000D03*
X117120000Y-83890000D03*
X117120000Y-83090000D03*
X117120000Y-82290000D03*
X117120000Y-81490000D03*
X117120000Y-80690000D03*
X117120000Y-79890000D03*
X117120000Y-79090000D03*
X117120000Y-78290000D03*
X117120000Y-77490000D03*
X117120000Y-76690000D03*
X117120000Y-75890000D03*
X117120000Y-75090000D03*
X117120000Y-74290000D03*
X117120000Y-73490000D03*
X117120000Y-72690000D03*
X117120000Y-71890000D03*
X117120000Y-71090000D03*
X117920000Y-86290000D03*
X117920000Y-85490000D03*
X117920000Y-84690000D03*
X117920000Y-83890000D03*
X117920000Y-83090000D03*
X117920000Y-82290000D03*
X117920000Y-81490000D03*
X117920000Y-80690000D03*
X117920000Y-79890000D03*
X117920000Y-79090000D03*
X117920000Y-78290000D03*
X117920000Y-77490000D03*
X117920000Y-76690000D03*
X117920000Y-75890000D03*
X117920000Y-75090000D03*
X117920000Y-74290000D03*
X117920000Y-73490000D03*
X117920000Y-72690000D03*
X117920000Y-71890000D03*
X117920000Y-71090000D03*
X118720000Y-86290000D03*
X118720000Y-85490000D03*
X118720000Y-84690000D03*
X118720000Y-83890000D03*
X118720000Y-83090000D03*
X118720000Y-82290000D03*
X118720000Y-81490000D03*
X118720000Y-80690000D03*
X118720000Y-79890000D03*
X118720000Y-79090000D03*
X118720000Y-78290000D03*
X118720000Y-77490000D03*
X118720000Y-76690000D03*
X118720000Y-75890000D03*
X118720000Y-75090000D03*
X118720000Y-74290000D03*
X118720000Y-73490000D03*
X118720000Y-72690000D03*
X118720000Y-71890000D03*
X118720000Y-71090000D03*
X119520000Y-86290000D03*
X119520000Y-85490000D03*
X119520000Y-84690000D03*
X119520000Y-83890000D03*
X119520000Y-83090000D03*
X119520000Y-82290000D03*
X119520000Y-81490000D03*
X119520000Y-80690000D03*
X119520000Y-79890000D03*
X119520000Y-79090000D03*
X119520000Y-78290000D03*
X119520000Y-77490000D03*
X119520000Y-76690000D03*
X119520000Y-75890000D03*
X119520000Y-75090000D03*
X119520000Y-74290000D03*
X119520000Y-73490000D03*
X119520000Y-72690000D03*
X119520000Y-71890000D03*
X119520000Y-71090000D03*
X120320000Y-86290000D03*
X120320000Y-85490000D03*
X120320000Y-84690000D03*
X120320000Y-83890000D03*
X120320000Y-83090000D03*
X120320000Y-82290000D03*
X120320000Y-81490000D03*
X120320000Y-80690000D03*
X120320000Y-79890000D03*
X120320000Y-79090000D03*
X120320000Y-78290000D03*
X120320000Y-77490000D03*
X120320000Y-76690000D03*
X120320000Y-75890000D03*
X120320000Y-75090000D03*
X120320000Y-74290000D03*
X120320000Y-73490000D03*
X120320000Y-72690000D03*
X120320000Y-71890000D03*
X120320000Y-71090000D03*
X121120000Y-86290000D03*
X121120000Y-85490000D03*
X121120000Y-84690000D03*
X121120000Y-83890000D03*
X121120000Y-83090000D03*
X121120000Y-82290000D03*
X121120000Y-81490000D03*
X121120000Y-80690000D03*
X121120000Y-79890000D03*
X121120000Y-79090000D03*
X121120000Y-78290000D03*
X121120000Y-77490000D03*
X121120000Y-76690000D03*
X121120000Y-75890000D03*
X121120000Y-75090000D03*
X121120000Y-74290000D03*
X121120000Y-73490000D03*
X121120000Y-72690000D03*
X121120000Y-71890000D03*
X121120000Y-71090000D03*
X121920000Y-86290000D03*
X121920000Y-85490000D03*
X121920000Y-84690000D03*
X121920000Y-83890000D03*
X121920000Y-83090000D03*
X121920000Y-82290000D03*
X121920000Y-81490000D03*
X121920000Y-80690000D03*
X121920000Y-79890000D03*
X121920000Y-79090000D03*
X121920000Y-78290000D03*
X121920000Y-77490000D03*
X121920000Y-76690000D03*
X121920000Y-75890000D03*
X121920000Y-75090000D03*
X121920000Y-74290000D03*
X121920000Y-73490000D03*
X121920000Y-72690000D03*
X121920000Y-71890000D03*
X121920000Y-71090000D03*
X122720000Y-86290000D03*
X122720000Y-85490000D03*
X122720000Y-84690000D03*
X122720000Y-83890000D03*
X122720000Y-83090000D03*
X122720000Y-74290000D03*
X122720000Y-73490000D03*
X122720000Y-72690000D03*
X122720000Y-71890000D03*
X122720000Y-71090000D03*
X123520000Y-86290000D03*
X123520000Y-85490000D03*
X123520000Y-84690000D03*
X123520000Y-83890000D03*
X123520000Y-83090000D03*
X123520000Y-82290000D03*
X123520000Y-81490000D03*
X123520000Y-80690000D03*
X123520000Y-79890000D03*
X123520000Y-79090000D03*
X123520000Y-78290000D03*
X123520000Y-77490000D03*
X123520000Y-76690000D03*
X123520000Y-75890000D03*
X123520000Y-75090000D03*
X123520000Y-74290000D03*
X123520000Y-73490000D03*
X123520000Y-72690000D03*
X123520000Y-71890000D03*
X123520000Y-71090000D03*
X124320000Y-86290000D03*
X124320000Y-85490000D03*
X124320000Y-84690000D03*
X124320000Y-83890000D03*
X124320000Y-83090000D03*
X124320000Y-82290000D03*
X124320000Y-81490000D03*
X124320000Y-80690000D03*
X124320000Y-79890000D03*
X124320000Y-79090000D03*
X124320000Y-78290000D03*
X124320000Y-77490000D03*
X124320000Y-76690000D03*
X124320000Y-75890000D03*
X124320000Y-75090000D03*
X124320000Y-74290000D03*
X124320000Y-73490000D03*
X124320000Y-72690000D03*
X124320000Y-71890000D03*
X124320000Y-71090000D03*
X125120000Y-86290000D03*
X125120000Y-85490000D03*
X125120000Y-84690000D03*
X125120000Y-83890000D03*
X125120000Y-83090000D03*
X125120000Y-82290000D03*
X125120000Y-81490000D03*
X125120000Y-80690000D03*
X125120000Y-79890000D03*
X125120000Y-79090000D03*
X125120000Y-78290000D03*
X125120000Y-77490000D03*
X125120000Y-76690000D03*
X125120000Y-75890000D03*
X125120000Y-75090000D03*
X125120000Y-74290000D03*
X125120000Y-73490000D03*
X125120000Y-72690000D03*
X125120000Y-71890000D03*
X125120000Y-71090000D03*
X125920000Y-86290000D03*
X125920000Y-85490000D03*
X125920000Y-84690000D03*
X125920000Y-83890000D03*
X125920000Y-83090000D03*
X125920000Y-82290000D03*
X125920000Y-81490000D03*
X125920000Y-80690000D03*
X125920000Y-79890000D03*
X125920000Y-79090000D03*
X125920000Y-78290000D03*
X125920000Y-77490000D03*
X125920000Y-76690000D03*
X125920000Y-75890000D03*
X125920000Y-75090000D03*
X125920000Y-74290000D03*
X125920000Y-73490000D03*
X125920000Y-72690000D03*
X125920000Y-71890000D03*
X125920000Y-71090000D03*
X126720000Y-85490000D03*
X126720000Y-84690000D03*
X126720000Y-83090000D03*
X126720000Y-82290000D03*
X126720000Y-81490000D03*
X126720000Y-80690000D03*
X126720000Y-78290000D03*
X126720000Y-77490000D03*
X126720000Y-75890000D03*
X126720000Y-75090000D03*
X126720000Y-74290000D03*
X126720000Y-73490000D03*
X126720000Y-71890000D03*
%TD*%
D21*
%TO.C,C11*%
X108229400Y-71271300D03*
X108229400Y-69546300D03*
%TD*%
D18*
%TO.C,R10*%
X94434600Y-80340200D03*
X92684600Y-80340200D03*
%TD*%
D22*
%TO.C,U11*%
X136590000Y-97870000D03*
X136590000Y-96600000D03*
X136590000Y-95330000D03*
X136590000Y-94060000D03*
X129380000Y-94060000D03*
X129380000Y-95330000D03*
X129380000Y-96600000D03*
X129380000Y-97870000D03*
%TD*%
D17*
%TO.C,Q3*%
X103971600Y-86751200D03*
X103971600Y-84851200D03*
X101971600Y-85801200D03*
%TD*%
D23*
%TO.C,U8*%
X108061800Y-80599700D03*
X107111800Y-80599700D03*
X106161800Y-80599700D03*
X106161800Y-82874700D03*
X107111800Y-82874700D03*
X108061800Y-82874700D03*
%TD*%
D24*
%TO.C,D4*%
X99277200Y-64947800D03*
X101027200Y-64947800D03*
%TD*%
D19*
%TO.C,H4*%
X141369872Y-95780000D03*
%TD*%
D25*
%TO.C,Y1*%
X111277400Y-97668800D03*
X116357400Y-97668800D03*
X116357400Y-93268800D03*
X111277400Y-93268800D03*
%TD*%
D18*
%TO.C,R9*%
X103886000Y-80340200D03*
X102136000Y-80340200D03*
%TD*%
%TO.C,R14*%
X103846600Y-88722200D03*
X102096600Y-88722200D03*
%TD*%
D26*
%TO.C,U7*%
X106264200Y-73545000D03*
D27*
X106264200Y-75245000D03*
X108264200Y-75245000D03*
X108264200Y-73345000D03*
%TD*%
D24*
%TO.C,D5*%
X133567200Y-65125600D03*
X135317200Y-65125600D03*
%TD*%
D18*
%TO.C,R4*%
X103886000Y-71247000D03*
X102136000Y-71247000D03*
%TD*%
D28*
%TO.C,R18*%
X108026200Y-91920700D03*
X108026200Y-90095700D03*
%TD*%
D17*
%TO.C,Q2*%
X103971600Y-78115200D03*
X103971600Y-76215200D03*
X101971600Y-77165200D03*
%TD*%
D29*
%TO.C,U10*%
X142808400Y-89749600D03*
X142808400Y-88949600D03*
X142808400Y-88149600D03*
X142808400Y-87349600D03*
X142808400Y-86549600D03*
X142808400Y-85749600D03*
X142808400Y-84949600D03*
X142808400Y-84149600D03*
X142808400Y-83349600D03*
X142808400Y-82549600D03*
X142808400Y-81749600D03*
X142808400Y-80949600D03*
X142808400Y-80149600D03*
X142808400Y-79349600D03*
X142808400Y-78549600D03*
X142808400Y-77749600D03*
X142808400Y-76949600D03*
X142808400Y-76149600D03*
X142808400Y-75349600D03*
X142808400Y-74549600D03*
X142808400Y-73749600D03*
X142808400Y-72949600D03*
X142808400Y-72149600D03*
X142808400Y-71349600D03*
X142808400Y-70549600D03*
X142808400Y-69749600D03*
X142808400Y-68949600D03*
X131308400Y-68949600D03*
X131308400Y-69749600D03*
X131308400Y-70549600D03*
X131308400Y-71349600D03*
X131308400Y-72149600D03*
X131308400Y-72949600D03*
X131308400Y-73749600D03*
X131308400Y-74549600D03*
X131308400Y-75349600D03*
X131308400Y-76149600D03*
X131308400Y-76949600D03*
X131308400Y-77749600D03*
X131308400Y-78549600D03*
X131308400Y-79349600D03*
X131308400Y-80149600D03*
X131308400Y-80949600D03*
X131308400Y-81749600D03*
X131308400Y-82549600D03*
X131308400Y-83349600D03*
X131308400Y-84149600D03*
X131308400Y-84949600D03*
X131308400Y-85749600D03*
X131308400Y-86549600D03*
X131308400Y-87349600D03*
X131308400Y-88149600D03*
X131308400Y-88949600D03*
X131308400Y-89749600D03*
%TD*%
D18*
%TO.C,R15*%
X94434600Y-88722200D03*
X92684600Y-88722200D03*
%TD*%
D30*
%TO.C,R17*%
X106019600Y-90095700D03*
X106019600Y-91920700D03*
%TD*%
D28*
%TO.C,R19*%
X108026200Y-87043900D03*
X108026200Y-85218900D03*
%TD*%
D19*
%TO.C,H1*%
X93370000Y-62790128D03*
%TD*%
D18*
%TO.C,R5*%
X94434600Y-71247000D03*
X92684600Y-71247000D03*
%TD*%
D31*
%TO.C,C17*%
X140195300Y-66725800D03*
X138849100Y-66725800D03*
%TD*%
D28*
%TO.C,R20*%
X106019600Y-87043900D03*
X106019600Y-85218900D03*
%TD*%
%LPD*%
M02*
