%TF.GenerationSoftware,KiCad,Pcbnew,8.0.1*%
%TF.CreationDate,2024-12-16T00:39:24-05:00*%
%TF.ProjectId,cm,636d2e6b-6963-4616-945f-706362585858,rev?*%
%TF.SameCoordinates,Original*%
%TF.FileFunction,Copper,L4,Inr*%
%TF.FilePolarity,Positive*%
%FSLAX46Y46*%
G04 Gerber Fmt 4.6, Leading zero omitted, Abs format (unit mm)*
G04 Created by KiCad (PCBNEW 8.0.1) date 2024-12-16 00:39:24*
%MOMM*%
%LPD*%
G01*
G04 APERTURE LIST*
%TA.AperFunction,ViaPad*%
%ADD10C,0.350000*%
%TD*%
%TA.AperFunction,ViaPad*%
%ADD11C,0.403200*%
%TD*%
%TA.AperFunction,Conductor*%
%ADD12C,0.152400*%
%TD*%
%TA.AperFunction,Conductor*%
%ADD13C,0.203200*%
%TD*%
%TA.AperFunction,Conductor*%
%ADD14C,0.127000*%
%TD*%
G04 APERTURE END LIST*
D10*
%TO.N,GND*%
X128600000Y-75460600D03*
D11*
X100165258Y-78994000D03*
X99187000Y-84912200D03*
D10*
X111861600Y-60147200D03*
D11*
X99187000Y-85928200D03*
X99212400Y-76403200D03*
X99181942Y-67919600D03*
D10*
X111480600Y-61696600D03*
D11*
X99161600Y-77978000D03*
X98125258Y-78994000D03*
D10*
X144195800Y-85394800D03*
X132588000Y-87960200D03*
X115900000Y-73100000D03*
X129958900Y-62280800D03*
D11*
X98795258Y-86929845D03*
D10*
X131495800Y-62458600D03*
X110261400Y-60147200D03*
D11*
X98795258Y-78984000D03*
X99207342Y-66827400D03*
X100160200Y-69443600D03*
D10*
X115900000Y-80300000D03*
X112728000Y-71450000D03*
X123875800Y-60121800D03*
D11*
X99545258Y-86939845D03*
X100165258Y-86939845D03*
D10*
X116700000Y-72300000D03*
X132562600Y-83337400D03*
X115100000Y-75500000D03*
D11*
X98120200Y-69443600D03*
X99540200Y-69443600D03*
D10*
X122300000Y-84300000D03*
X117500400Y-85877400D03*
D11*
X99187000Y-85420200D03*
D10*
X123150000Y-72288400D03*
X124700000Y-84300000D03*
D11*
X98790200Y-69433600D03*
X98125258Y-86939845D03*
X99187000Y-76936600D03*
D10*
X111074200Y-60147200D03*
X115900000Y-73900000D03*
D11*
X99181942Y-67386200D03*
D10*
X115150000Y-81100000D03*
D11*
X99187000Y-84404200D03*
D10*
X115900000Y-79450000D03*
D11*
X99545258Y-78994000D03*
D10*
X115900000Y-72300000D03*
X119913400Y-85902800D03*
D11*
X99161600Y-68453000D03*
X99187000Y-77470000D03*
D10*
X109880400Y-61696600D03*
X144100000Y-80850000D03*
X128618261Y-74704200D03*
X110667800Y-61696600D03*
X113512600Y-83464400D03*
X144068800Y-70916800D03*
%TO.N,+5V*%
X101027200Y-59994800D03*
%TO.N,/Power/3V3_PG*%
X103962200Y-70231000D03*
D11*
X98196400Y-83845400D03*
D10*
%TO.N,/Power/2V5_PG*%
X103971600Y-79425800D03*
D11*
X98120200Y-75869800D03*
%TO.N,/Power/1V1_PG*%
X98094800Y-66294000D03*
D10*
X103971600Y-87579200D03*
D11*
%TO.N,+3V3*%
X119938800Y-81915000D03*
X91770200Y-92430600D03*
D10*
X130657600Y-97891600D03*
X119126000Y-75488800D03*
D11*
X91770200Y-91313000D03*
X92379800Y-91313000D03*
D10*
X133959600Y-67868800D03*
X144094200Y-89763600D03*
X107873800Y-60121800D03*
X132562600Y-80949800D03*
D11*
X92379800Y-91871800D03*
D10*
X119930000Y-75480000D03*
X133100000Y-62550000D03*
X144068800Y-79349600D03*
D11*
X117525800Y-81889600D03*
D10*
X117525800Y-75488800D03*
D11*
X117525800Y-82677000D03*
X91770200Y-91871800D03*
D10*
X122761000Y-78638400D03*
D11*
X115138200Y-78689200D03*
X115138200Y-79502000D03*
D10*
X116738400Y-75488800D03*
X144119600Y-88163400D03*
X135559800Y-62227200D03*
X109070000Y-61694200D03*
X107470000Y-61673800D03*
D11*
X92989400Y-91871800D03*
D10*
X109702600Y-93268800D03*
X108661200Y-60121800D03*
X128485700Y-62280800D03*
X144068800Y-68935600D03*
X132588000Y-85750400D03*
D11*
X92989400Y-91313000D03*
X119938800Y-82677000D03*
D10*
X129159000Y-64795400D03*
X109474000Y-60147200D03*
D11*
X92989400Y-92430600D03*
X92379800Y-92430600D03*
D10*
X108270000Y-61686400D03*
X144170400Y-83337400D03*
D11*
X115138200Y-77901800D03*
D10*
X122761000Y-79451200D03*
%TO.N,/Power/3V3_EN*%
X107086400Y-81864200D03*
X100228400Y-83845400D03*
%TO.N,/Power/2V5_EN*%
X106121200Y-81864200D03*
X100228400Y-75869800D03*
%TO.N,/Power/1V1_EN*%
X100228400Y-66344800D03*
X108026200Y-81864200D03*
%TO.N,ECP5_PRGMN_BTN*%
X126314200Y-85090000D03*
X130898700Y-62179200D03*
%TO.N,ECP5_INITN*%
X132918200Y-66268600D03*
X133070600Y-67147633D03*
X125526800Y-85090000D03*
%TO.N,Net-(D5-A)*%
X135280400Y-66227700D03*
%TO.N,Net-(D6-A)*%
X128051800Y-66852800D03*
%TO.N,IO_D1*%
X113919000Y-88773000D03*
%TO.N,IO_D2*%
X113512600Y-85877400D03*
%TO.N,IO_E6*%
X108650000Y-98450000D03*
X114350800Y-81920800D03*
%TO.N,IO_G1*%
X116840000Y-88773000D03*
%TO.N,IO_A3*%
X111099600Y-89281000D03*
%TO.N,IO_E2*%
X114325400Y-85902800D03*
%TO.N,IO_E8*%
X114325400Y-80264000D03*
X105467428Y-96967428D03*
%TO.N,IO_B3*%
X111912400Y-84302600D03*
X114650000Y-96950000D03*
%TO.N,IO_G5*%
X113050000Y-96950000D03*
X115925600Y-82702400D03*
%TO.N,IO_J1*%
X118338600Y-88773000D03*
%TO.N,IO_D6*%
X113538000Y-81889600D03*
X109550000Y-98724128D03*
%TO.N,IO_B4*%
X111912400Y-83489800D03*
X107050000Y-96950000D03*
%TO.N,IO_D5*%
X113512600Y-82677000D03*
X112895503Y-98702811D03*
%TO.N,IO_B1*%
X112318800Y-88773000D03*
%TO.N,IO_U1*%
X123870000Y-89700000D03*
%TO.N,IO_K1*%
X118350000Y-87750000D03*
%TO.N,IO_E1*%
X114706400Y-89306400D03*
%TO.N,IO_A4*%
X110718600Y-88722200D03*
%TO.N,IO_F2*%
X115112800Y-85902800D03*
%TO.N,IO_R1*%
X122270000Y-89700000D03*
%TO.N,IO_A2*%
X111506000Y-88773000D03*
%TO.N,/Hirose Connectors/IO_P1*%
X121500000Y-88800000D03*
%TO.N,IO_D8*%
X113538000Y-80289400D03*
X105050000Y-98450000D03*
%TO.N,IO_D7*%
X105850000Y-98450000D03*
X113538000Y-81076800D03*
%TO.N,IO_L1*%
X119150000Y-89700000D03*
%TO.N,IO_A5*%
X110312200Y-89281000D03*
%TO.N,IO_C5*%
X112725200Y-82677000D03*
X106250000Y-96950000D03*
%TO.N,IO_V1*%
X124650000Y-88800000D03*
%TO.N,IO_B5*%
X111937800Y-82677000D03*
X113300000Y-98450000D03*
%TO.N,IO_B2*%
X111887000Y-89306400D03*
%TO.N,IO_E5*%
X114325400Y-82677000D03*
X109050000Y-96950000D03*
%TO.N,IO_N1*%
X120221800Y-89700000D03*
%TO.N,IO_F1*%
X115519200Y-88773000D03*
%TO.N,IO_M1*%
X119650000Y-88800000D03*
%TO.N,IO_C4*%
X112725200Y-83489800D03*
X107500000Y-98450000D03*
%TO.N,IO_F4*%
X115112800Y-83489800D03*
X113950000Y-98450000D03*
X108661200Y-95950000D03*
%TO.N,IO_F5*%
X115138200Y-82677000D03*
X106650000Y-98450000D03*
%TO.N,IO_T1*%
X123100000Y-88800000D03*
%TO.N,IO_C3*%
X114650000Y-98450000D03*
X112725200Y-84277200D03*
%TO.N,IO_H1*%
X117525800Y-89700000D03*
%TO.N,IO_C1*%
X113106200Y-89306400D03*
%TO.N,IO_J20*%
X110258484Y-63003434D03*
%TO.N,ECP5_DONE*%
X127152400Y-85090000D03*
X131313552Y-66721352D03*
%TO.N,JTAG_TCK*%
X124485400Y-59944000D03*
X123926600Y-83489800D03*
%TO.N,JTAG_TDI*%
X137355450Y-68874900D03*
X123113800Y-83489800D03*
X137922000Y-65278000D03*
%TO.N,JTAG_TDO*%
X136550400Y-66227700D03*
X133477000Y-62150000D03*
X125526800Y-84302600D03*
X136550400Y-67513200D03*
%TO.N,JTAG_TMS*%
X124663200Y-64389000D03*
X124714000Y-83489800D03*
%TO.N,Net-(U9I-CFG_1)*%
X123926600Y-84302600D03*
%TO.N,/Flash + JTAG/FLASH_IO0*%
X128066800Y-94056200D03*
%TO.N,/Flash + JTAG/FLASH_IO1*%
X135305800Y-96596200D03*
X125526800Y-85877400D03*
%TO.N,/Flash + JTAG/FLASH_IO2*%
X135305800Y-95326200D03*
%TO.N,/Flash + JTAG/FLASH_IO3*%
X128066800Y-96596200D03*
%TO.N,/Flash + JTAG/FLASH_SCK*%
X124714000Y-85064600D03*
X128066800Y-95326200D03*
%TO.N,/Flash + JTAG/FLASH_CSN*%
X123113800Y-85877400D03*
X135280400Y-97866200D03*
%TO.N,/Flash + JTAG/WRITEN*%
X123113800Y-84277200D03*
%TO.N,/Flash + JTAG/CS1N*%
X123926600Y-85902800D03*
%TO.N,/Flash + JTAG/SN_CSN*%
X123113800Y-85090000D03*
%TO.N,SDRAM_A7*%
X116713000Y-73897000D03*
X132511800Y-72158600D03*
%TO.N,SDRAM_D11*%
X132588000Y-84150200D03*
X119126000Y-84277200D03*
%TO.N,SDRAM_CASN*%
X141376400Y-76911200D03*
X119126000Y-73888600D03*
%TO.N,SDRAM_D4*%
X136300000Y-84150200D03*
X119913400Y-72288400D03*
%TO.N,SDRAM_CSN*%
X121513600Y-73888600D03*
X136300000Y-75350000D03*
%TO.N,SDRAM_A11*%
X122326400Y-73888600D03*
X132511800Y-74574400D03*
%TO.N,SDRAM_D6*%
X120726200Y-73896200D03*
X136300000Y-81762600D03*
%TO.N,SDRAM_A2*%
X124714000Y-73101200D03*
X141325600Y-70561200D03*
%TO.N,SDRAM_A5*%
X123926600Y-73101200D03*
X132486400Y-70535800D03*
%TO.N,/Hirose Connectors/IO_E7*%
X113250000Y-60150000D03*
X114325400Y-81076800D03*
%TO.N,CLK_25MHZ*%
X116357400Y-91922600D03*
X115925600Y-85877400D03*
%TO.N,SDRAM_D14*%
X132588000Y-87350600D03*
X119913400Y-83464400D03*
%TO.N,SDRAM_DQM1*%
X117525800Y-84277200D03*
X130022600Y-76123800D03*
%TO.N,SDRAM_A6*%
X123926600Y-73888600D03*
X132486400Y-71348600D03*
%TO.N,SDRAM_D12*%
X132588000Y-84937600D03*
X119126000Y-83489800D03*
%TO.N,SDRAM_A1*%
X124714000Y-73888600D03*
X141325600Y-71374000D03*
%TO.N,SDRAM_A9*%
X132511800Y-73761600D03*
X118331200Y-73101200D03*
%TO.N,SDRAM_A4*%
X132461000Y-69773800D03*
X123926600Y-72288400D03*
%TO.N,SDRAM_D13*%
X132588000Y-86537800D03*
X119913400Y-84277200D03*
%TO.N,SDRAM_WEN*%
X141401800Y-77774800D03*
X119126000Y-73075800D03*
%TO.N,SDRAM_A0*%
X141325600Y-72161400D03*
X116713000Y-71500000D03*
%TO.N,SDRAM_D10*%
X132588000Y-82550000D03*
X118313200Y-83489800D03*
%TO.N,SDRAM_D1*%
X136300000Y-87325200D03*
X121513600Y-73075800D03*
%TO.N,SDRAM_D9*%
X118313200Y-84277200D03*
X132588000Y-81737200D03*
%TO.N,SDRAM_RASN*%
X141376400Y-76123800D03*
X119126000Y-74701400D03*
%TO.N,SDRAM_D8*%
X117525800Y-83464400D03*
X132562600Y-80162400D03*
%TO.N,SDRAM_D3*%
X120726200Y-72288400D03*
X136300000Y-84937600D03*
%TO.N,SDRAM_BA0*%
X141351000Y-74549000D03*
X118338600Y-73888600D03*
%TO.N,SDRAM_A10*%
X117525800Y-72313800D03*
X141325600Y-72948800D03*
%TO.N,SDRAM_D7*%
X141376400Y-80137000D03*
X119913400Y-73075800D03*
%TO.N,SDRAM_D15*%
X132613400Y-88950800D03*
X120726200Y-83515200D03*
%TO.N,SDRAM_CKE*%
X123113800Y-73075800D03*
X132511800Y-76123800D03*
%TO.N,SDRAM_D5*%
X120726200Y-73101200D03*
X136300000Y-82550000D03*
%TO.N,SDRAM_A8*%
X117525800Y-73101200D03*
X132511800Y-72974200D03*
%TO.N,SDRAM_DQM0*%
X119913400Y-73888600D03*
X141427200Y-78511400D03*
%TO.N,SDRAM_A12*%
X132511800Y-75361800D03*
X122326400Y-74676000D03*
%TO.N,SDRAM_BA1*%
X141351000Y-73761600D03*
X117525800Y-73888600D03*
%TO.N,SDRAM_CLK*%
X123113800Y-73888600D03*
X132511800Y-76962000D03*
%TO.N,SDRAM_A3*%
X124714000Y-72288400D03*
X141351000Y-69773800D03*
%TO.N,SDRAM_D2*%
X136300000Y-86537800D03*
X121513600Y-72288400D03*
%TO.N,SDRAM_D0*%
X120726200Y-84302600D03*
X136300000Y-88112600D03*
D11*
%TO.N,+1V1*%
X92354400Y-74422000D03*
X92964000Y-73863200D03*
X92354400Y-73863200D03*
X120726200Y-80314800D03*
X91744800Y-73863200D03*
X92964000Y-73304400D03*
X91744800Y-73304400D03*
X117500400Y-78689200D03*
X119126000Y-80314800D03*
X91744800Y-74422000D03*
X120726200Y-77063600D03*
X117525800Y-77063600D03*
X117500400Y-80289400D03*
X120726200Y-78689200D03*
X119126000Y-77063600D03*
X92964000Y-74422000D03*
X92354400Y-73304400D03*
%TO.N,+2V5*%
X115900200Y-75488800D03*
X92989400Y-81762600D03*
X92379800Y-82321400D03*
D10*
X128752600Y-80695800D03*
D11*
X91770200Y-82321400D03*
X91770200Y-81762600D03*
X92379800Y-82880200D03*
X92379800Y-81762600D03*
X92989400Y-82321400D03*
X115925600Y-81889600D03*
D10*
X128752600Y-81483200D03*
D11*
X91770200Y-82880200D03*
X122402600Y-75488800D03*
D10*
X128752600Y-79883000D03*
D11*
X92989400Y-82880200D03*
X122402600Y-81889600D03*
D10*
%TO.N,IO_C20*%
X107870000Y-63000000D03*
%TO.N,IO_G20*%
X109448600Y-62992000D03*
%TO.N,IO_L20*%
X111048800Y-63017400D03*
%TO.N,IO_E20*%
X108670710Y-63002593D03*
%TO.N,IO_H20*%
X109880400Y-62712600D03*
%TO.N,IO_K20*%
X110667800Y-62712600D03*
%TO.N,IO_M20*%
X111455200Y-62712600D03*
%TO.N,IO_D20*%
X108274372Y-62712600D03*
%TO.N,IO_F20*%
X109063943Y-62709918D03*
%TO.N,IO_B20*%
X105971800Y-62850000D03*
%TO.N,IO_P20*%
X112252110Y-62676607D03*
%TO.N,IO_T20*%
X113055400Y-62687200D03*
%TO.N,IO_R20*%
X112649000Y-62941200D03*
%TO.N,IO_U20*%
X113461800Y-62966600D03*
%TO.N,IO_N20*%
X111840602Y-63012998D03*
%TO.N,IO_N19*%
X120726200Y-71501000D03*
X115070000Y-60147200D03*
%TO.N,IO_A19*%
X111074200Y-71450200D03*
X105079800Y-64439800D03*
%TO.N,IO_L19*%
X119126000Y-71526400D03*
X113487200Y-61661300D03*
%TO.N,IO_T19*%
X115874800Y-60147200D03*
X123139200Y-71501000D03*
%TO.N,IO_M19*%
X119938800Y-71501000D03*
X114274600Y-61671200D03*
%TO.N,IO_B19*%
X105486200Y-64719200D03*
X111912400Y-71475600D03*
%TO.N,IO_K19*%
X112674400Y-60147200D03*
X118313200Y-71501000D03*
%TO.N,IO_J19*%
X112268000Y-61696600D03*
X117525800Y-71501000D03*
%TO.N,IO_P19*%
X121513600Y-71501000D03*
X115466630Y-61678363D03*
%TO.N,IO_U19*%
X123926600Y-71501000D03*
X116281200Y-61671200D03*
%TO.N,IO_A18*%
X111099600Y-72339200D03*
%TO.N,IO_A13*%
X111119572Y-76289572D03*
%TO.N,IO_A16*%
X111099600Y-73914000D03*
%TO.N,IO_A17*%
X111099600Y-73075800D03*
%TO.N,IO_A15*%
X111099600Y-74701400D03*
%TO.N,IO_A14*%
X110337600Y-75539600D03*
%TO.N,IO_A11*%
X111099600Y-77876400D03*
%TO.N,IO_A12*%
X111099600Y-77089000D03*
%TO.N,IO_B18*%
X120675400Y-60198000D03*
X111912400Y-72288400D03*
%TO.N,IO_B16*%
X119862600Y-60172600D03*
X111912400Y-73888600D03*
%TO.N,IO_B15*%
X119481600Y-61722000D03*
X111912400Y-74676000D03*
%TO.N,IO_B11*%
X111912400Y-77901800D03*
X118262400Y-60147200D03*
%TO.N,IO_B17*%
X111912400Y-73101200D03*
X120269000Y-61722000D03*
%TO.N,IO_B13*%
X119075200Y-60147200D03*
X111912400Y-76276200D03*
%TO.N,IO_B12*%
X118668800Y-61747400D03*
X111912400Y-77089000D03*
%TO.N,IO_A6*%
X111099600Y-81889600D03*
%TO.N,IO_A9*%
X111099600Y-79476600D03*
%TO.N,IO_A10*%
X111099600Y-78663800D03*
%TO.N,IO_A8*%
X111099600Y-80289400D03*
%TO.N,IO_A7*%
X110210600Y-81051400D03*
%TO.N,IO_B6*%
X116687600Y-60147200D03*
X111912400Y-81889600D03*
%TO.N,IO_B9*%
X117475000Y-60147200D03*
X111912400Y-79502000D03*
%TO.N,IO_B8*%
X111912400Y-80289400D03*
X117053100Y-61722000D03*
%TO.N,IO_B10*%
X117856000Y-61747400D03*
X111912400Y-78714600D03*
%TO.N,IO_C10*%
X112725200Y-78689200D03*
X124700000Y-96400000D03*
%TO.N,IO_C14*%
X122275600Y-60248800D03*
X112725200Y-75463400D03*
%TO.N,IO_C12*%
X123063000Y-60248800D03*
X112725200Y-77089000D03*
%TO.N,IO_C13*%
X122656600Y-61747400D03*
X112725200Y-76276200D03*
%TO.N,IO_C17*%
X112725200Y-73075800D03*
X121070000Y-61733800D03*
%TO.N,IO_C15*%
X121869200Y-61747400D03*
X112725200Y-74701400D03*
%TO.N,IO_C16*%
X112725200Y-73888600D03*
X121488200Y-60223400D03*
%TO.N,IO_D15*%
X106680000Y-64439800D03*
X113512600Y-74676000D03*
%TO.N,IO_D14*%
X107061000Y-64770000D03*
X113512600Y-75463400D03*
%TO.N,IO_D13*%
X106273600Y-64744600D03*
X113512600Y-76276200D03*
%TO.N,IO_D12*%
X113512600Y-77089000D03*
X105870857Y-64437118D03*
%TO.N,IO_D18*%
X119481600Y-64414400D03*
X114300000Y-72300000D03*
%TO.N,IO_D19*%
X114300000Y-71500000D03*
X119862600Y-64846200D03*
%TO.N,IO_F19*%
X121462800Y-65227200D03*
X115900200Y-71475600D03*
%TO.N,IO_F17*%
X121056400Y-64414400D03*
X115138200Y-73101200D03*
%TO.N,IO_E17*%
X119062500Y-64820800D03*
X114300000Y-73075800D03*
%TO.N,IO_E18*%
X120269000Y-64414400D03*
X115112800Y-72313800D03*
%TO.N,IO_E19*%
X115112800Y-71501000D03*
X120650000Y-64871600D03*
%TO.N,IO_D9*%
X103936800Y-96412800D03*
X113538000Y-79476600D03*
%TO.N,IO_E15*%
X114325400Y-75488800D03*
X103149400Y-94157800D03*
%TO.N,IO_E9*%
X103911400Y-92938600D03*
X114325400Y-79476600D03*
%TO.N,IO_D10*%
X103936800Y-95656400D03*
X113512600Y-78689200D03*
%TO.N,IO_E11*%
X103225600Y-96034600D03*
X114300000Y-77876400D03*
%TO.N,IO_E4*%
X114325400Y-83489800D03*
X107850000Y-96950000D03*
%TO.N,IO_E10*%
X103225600Y-96850200D03*
X114325400Y-78689200D03*
%TO.N,IO_E13*%
X103936800Y-93751400D03*
X115087400Y-76276200D03*
%TO.N,IO_E14*%
X103124000Y-93319600D03*
X114325400Y-76276200D03*
%TO.N,/Hirose Connectors/IO_N3*%
X122650000Y-96850000D03*
X121539000Y-85090000D03*
%TO.N,/Hirose Connectors/IO_N2*%
X123450000Y-96850000D03*
X121539000Y-85902800D03*
%TO.N,/Hirose Connectors/IO_P2*%
X122326400Y-85090000D03*
X123400000Y-62900000D03*
%TO.N,/Hirose Connectors/IO_N5*%
X121539000Y-82702400D03*
X113850000Y-60150000D03*
%TO.N,/Hirose Connectors/IO_P5*%
X114439700Y-60134500D03*
X122326400Y-82702400D03*
%TO.N,/Hirose Connectors/IO_P4*%
X122326400Y-83489800D03*
X122656600Y-62890400D03*
%TO.N,/Hirose Connectors/IO_N4*%
X121539000Y-83489800D03*
X121503700Y-62900000D03*
%TO.N,/Hirose Connectors/IO_P3*%
X121528200Y-84300000D03*
X124300000Y-96850000D03*
%TO.N,/Hirose Connectors/IO_K3*%
X119300000Y-98724128D03*
X118338600Y-85064600D03*
%TO.N,/Hirose Connectors/IO_C2*%
X118500000Y-98724128D03*
X112725200Y-85902800D03*
%TO.N,/Hirose Connectors/IO_F3*%
X115112800Y-84277200D03*
X120100000Y-98724128D03*
%TO.N,/Hirose Connectors/IO_J3*%
X117500400Y-85090000D03*
X118650000Y-96850000D03*
%TO.N,/Hirose Connectors/IO_C8*%
X122250000Y-96400000D03*
X112725200Y-80289400D03*
%TO.N,/Hirose Connectors/IO_L2*%
X120250000Y-96850000D03*
X119126000Y-85902800D03*
%TO.N,/Hirose Connectors/IO_K2*%
X119067428Y-95732572D03*
X118338600Y-85902800D03*
%TO.N,/Hirose Connectors/IO_M3*%
X121850000Y-96850000D03*
X119913400Y-85064600D03*
%TO.N,/Hirose Connectors/IO_D11*%
X113512600Y-77876400D03*
X123850000Y-96400000D03*
%TO.N,/Hirose Connectors/IO_C11*%
X112725200Y-77876400D03*
X119850000Y-96400000D03*
%TO.N,/Hirose Connectors/IO_E3*%
X117878200Y-96150000D03*
X114325400Y-84277200D03*
%TO.N,/Hirose Connectors/IO_C6*%
X112725200Y-81889600D03*
X120650000Y-96400000D03*
%TO.N,/Hirose Connectors/IO_L3*%
X121050000Y-96900000D03*
X119126000Y-85090000D03*
%TO.N,/Hirose Connectors/IO_D3*%
X113512600Y-84302600D03*
X118000000Y-98400000D03*
%TO.N,/Hirose Connectors/IO_H2*%
X116713000Y-85902800D03*
X118100000Y-96850000D03*
%TO.N,/Hirose Connectors/IO_C9*%
X123050000Y-96400000D03*
X112725200Y-79476600D03*
%TO.N,/Hirose Connectors/IO_C7*%
X112725200Y-81076800D03*
X121450000Y-96400000D03*
%TO.N,/Hirose Connectors/IO_H3*%
X116750000Y-85100000D03*
X114300000Y-95900000D03*
%TO.N,/Hirose Connectors/IO_G3*%
X116750000Y-84300000D03*
X113500000Y-95900000D03*
%TD*%
D12*
%TO.N,/Power/2V5_PG*%
X99364800Y-75869800D02*
X102920800Y-79425800D01*
X102920800Y-79425800D02*
X103971600Y-79425800D01*
X98120200Y-75869800D02*
X99364800Y-75869800D01*
D13*
%TO.N,/Power/1V1_PG*%
X103971600Y-87579200D02*
X98094800Y-87579200D01*
D12*
X97459800Y-66929000D02*
X98094800Y-66294000D01*
D13*
X98094800Y-87579200D02*
X97459800Y-86944200D01*
D12*
X97459800Y-86944200D02*
X97459800Y-66929000D01*
D13*
%TO.N,/Power/3V3_EN*%
X107086400Y-82169000D02*
X107086400Y-81864200D01*
X101498400Y-82575400D02*
X106680000Y-82575400D01*
X106680000Y-82575400D02*
X107086400Y-82169000D01*
X100228400Y-83845400D02*
X101498400Y-82575400D01*
D12*
%TO.N,/Power/2V5_EN*%
X106121200Y-81864200D02*
X106121200Y-80314800D01*
X106121200Y-80314800D02*
X101676200Y-75869800D01*
X101676200Y-75869800D02*
X100228400Y-75869800D01*
%TO.N,/Power/1V1_EN*%
X100228400Y-66344800D02*
X100761800Y-66878200D01*
X100761800Y-73888600D02*
X108026200Y-81153000D01*
X100761800Y-66878200D02*
X100761800Y-73888600D01*
X108026200Y-81153000D02*
X108026200Y-81864200D01*
%TO.N,SDRAM_A2*%
X125933200Y-71374000D02*
X126393200Y-70914000D01*
X126393200Y-70914000D02*
X140972800Y-70914000D01*
X125933200Y-72694800D02*
X125933200Y-71374000D01*
X141351000Y-70561200D02*
X141351000Y-70561200D01*
X125526800Y-73101200D02*
X125933200Y-72694800D01*
X124714000Y-73101200D02*
X125526800Y-73101200D01*
X141325600Y-70561200D02*
X141351000Y-70561200D01*
X140972800Y-70914000D02*
X141325600Y-70561200D01*
%TO.N,SDRAM_A5*%
X123926600Y-73101200D02*
X124333000Y-72694800D01*
X124333000Y-72694800D02*
X125095000Y-72694800D01*
X125120400Y-72669400D02*
X125120400Y-70764400D01*
X125095000Y-72694800D02*
X125120400Y-72669400D01*
X125349000Y-70535800D02*
X132486400Y-70535800D01*
X125120400Y-70764400D02*
X125349000Y-70535800D01*
%TO.N,SDRAM_A6*%
X127177800Y-71348600D02*
X132486400Y-71348600D01*
X126720600Y-71805800D02*
X127177800Y-71348600D01*
X123926600Y-73888600D02*
X124333000Y-73482200D01*
X126720600Y-72694800D02*
X126720600Y-71805800D01*
X125933200Y-73482200D02*
X126720600Y-72694800D01*
X124333000Y-73482200D02*
X125933200Y-73482200D01*
%TO.N,SDRAM_A1*%
X127685800Y-71780400D02*
X140919200Y-71780400D01*
X124714000Y-73888600D02*
X126314200Y-73888600D01*
X126314200Y-73888600D02*
X127254000Y-72948800D01*
X127254000Y-72212200D02*
X127685800Y-71780400D01*
X127254000Y-72948800D02*
X127254000Y-72212200D01*
X140919200Y-71780400D02*
X141325600Y-71374000D01*
%TO.N,SDRAM_A4*%
X124307600Y-70358000D02*
X124891800Y-69773800D01*
X124891800Y-69773800D02*
X132461000Y-69773800D01*
X124307600Y-71907400D02*
X124307600Y-70358000D01*
X123926600Y-72288400D02*
X124307600Y-71907400D01*
%TO.N,SDRAM_A3*%
X125148600Y-70152000D02*
X140972800Y-70152000D01*
X124714000Y-72288400D02*
X124714000Y-70586600D01*
X124714000Y-70586600D02*
X125148600Y-70152000D01*
X140972800Y-70152000D02*
X141351000Y-69773800D01*
%TO.N,IO_N19*%
X112115600Y-67945000D02*
X111658400Y-67487800D01*
X120726200Y-71501000D02*
X117170200Y-67945000D01*
X117170200Y-67945000D02*
X112115600Y-67945000D01*
X111658400Y-67487800D02*
X111658400Y-67208400D01*
X115400000Y-62402873D02*
X115070000Y-62072873D01*
X115400000Y-63466800D02*
X115400000Y-62402873D01*
X115070000Y-62072873D02*
X115070000Y-60147200D01*
X111658400Y-67208400D02*
X115400000Y-63466800D01*
%TO.N,IO_A19*%
X105079800Y-71145400D02*
X105079800Y-64439800D01*
X105384600Y-71450200D02*
X105079800Y-71145400D01*
X111074200Y-71450200D02*
X105384600Y-71450200D01*
%TO.N,IO_L19*%
X113661300Y-61661300D02*
X114450000Y-62450000D01*
X114450000Y-62450000D02*
X114450000Y-63400000D01*
X116281200Y-68681600D02*
X119126000Y-71526400D01*
X114450000Y-63400000D02*
X110871000Y-66979000D01*
X111836200Y-68681600D02*
X116281200Y-68681600D01*
X110871000Y-66979000D02*
X110871000Y-67716400D01*
X110871000Y-67716400D02*
X111836200Y-68681600D01*
X113508115Y-61661300D02*
X113661300Y-61661300D01*
D14*
X113487200Y-61661300D02*
X113508115Y-61661300D01*
D12*
%TO.N,IO_T19*%
X120281100Y-66167000D02*
X116433600Y-66167000D01*
X116150000Y-65883400D02*
X116150000Y-62200400D01*
X115874800Y-61925200D02*
X115874800Y-60147200D01*
X116433600Y-66167000D02*
X116150000Y-65883400D01*
X116150000Y-62200400D02*
X115874800Y-61925200D01*
X123139200Y-69025100D02*
X120281100Y-66167000D01*
X123139200Y-71501000D02*
X123139200Y-69025100D01*
%TO.N,IO_M19*%
X112039400Y-68326000D02*
X116763800Y-68326000D01*
X114900000Y-62300000D02*
X114900000Y-63400000D01*
X114900000Y-63400000D02*
X111183582Y-67116418D01*
X111183582Y-67116418D02*
X111183582Y-67470182D01*
X114274600Y-61671200D02*
X114274600Y-61674600D01*
X111183582Y-67470182D02*
X112039400Y-68326000D01*
X116763800Y-68326000D02*
X119938800Y-71501000D01*
X114274600Y-61674600D02*
X114900000Y-62300000D01*
%TO.N,IO_B19*%
X111912400Y-71475600D02*
X111480600Y-71043800D01*
X105791000Y-71043800D02*
X105486200Y-70739000D01*
X111480600Y-71043800D02*
X105791000Y-71043800D01*
X105486200Y-70739000D02*
X105486200Y-64719200D01*
%TO.N,IO_K19*%
X112674400Y-60147200D02*
X112674400Y-61772800D01*
X114050000Y-63300000D02*
X110553500Y-66796500D01*
X114050000Y-62564200D02*
X114050000Y-63300000D01*
X115798600Y-68986400D02*
X118313200Y-71501000D01*
X110553500Y-66796500D02*
X110553500Y-68033900D01*
X110553500Y-68033900D02*
X111506000Y-68986400D01*
X113538000Y-62052200D02*
X114050000Y-62564200D01*
X112953800Y-62052200D02*
X113538000Y-62052200D01*
X112674400Y-61772800D02*
X112953800Y-62052200D01*
X111506000Y-68986400D02*
X115798600Y-68986400D01*
%TO.N,IO_J19*%
X111302800Y-69367400D02*
X115392200Y-69367400D01*
X107035600Y-62357000D02*
X107035600Y-63614091D01*
X107035600Y-63614091D02*
X107899200Y-64477691D01*
X112268000Y-61696600D02*
X111760000Y-62204600D01*
X107899200Y-65963800D02*
X111302800Y-69367400D01*
X115392200Y-69367400D02*
X117525800Y-71501000D01*
X111760000Y-62204600D02*
X107188000Y-62204600D01*
X107188000Y-62204600D02*
X107035600Y-62357000D01*
X107899200Y-64477691D02*
X107899200Y-65963800D01*
%TO.N,IO_P19*%
X116358600Y-66600000D02*
X120117800Y-66600000D01*
X115750000Y-65991400D02*
X116358600Y-66600000D01*
X115750000Y-62283000D02*
X115750000Y-65991400D01*
X115466630Y-61999630D02*
X115750000Y-62283000D01*
X120117800Y-66600000D02*
X121513600Y-67995800D01*
X115466630Y-61678363D02*
X115466630Y-61999630D01*
X121513600Y-67995800D02*
X121513600Y-71501000D01*
%TO.N,IO_U19*%
X116550000Y-65546800D02*
X116865400Y-65862200D01*
X116865400Y-65862200D02*
X120562200Y-65862200D01*
X116550000Y-61940000D02*
X116550000Y-65546800D01*
X123926600Y-69226600D02*
X123926600Y-71501000D01*
X120562200Y-65862200D02*
X123926600Y-69226600D01*
X116281200Y-61671200D02*
X116550000Y-61940000D01*
%TO.N,IO_D15*%
X106680000Y-69697600D02*
X106934000Y-69951600D01*
X106934000Y-69951600D02*
X112982810Y-69951600D01*
X113512600Y-74676000D02*
X113512600Y-70481390D01*
X106680000Y-64439800D02*
X106680000Y-69697600D01*
X113512600Y-70481390D02*
X112982810Y-69951600D01*
%TO.N,IO_D14*%
X107061000Y-69291200D02*
X107416600Y-69646800D01*
X113919000Y-75057000D02*
X113512600Y-75463400D01*
X107061000Y-64770000D02*
X107061000Y-69291200D01*
X113258600Y-69646800D02*
X113919000Y-70307200D01*
X113919000Y-70307200D02*
X113919000Y-75057000D01*
X107416600Y-69646800D02*
X113258600Y-69646800D01*
%TO.N,IO_D13*%
X112420400Y-70383400D02*
X113106200Y-71069200D01*
X106273600Y-64744600D02*
X106273600Y-70205600D01*
X106451400Y-70383400D02*
X112420400Y-70383400D01*
X113106200Y-75869800D02*
X113512600Y-76276200D01*
X106273600Y-70205600D02*
X106451400Y-70383400D01*
X113106200Y-71069200D02*
X113106200Y-75869800D01*
D14*
%TO.N,IO_D12*%
X105870857Y-64437118D02*
X105867200Y-64440775D01*
D12*
X113080800Y-76657200D02*
X113512600Y-77089000D01*
X112290600Y-71041000D02*
X112290600Y-76432856D01*
X105867200Y-70434200D02*
X106146600Y-70713600D01*
D14*
X105867200Y-64440775D02*
X105867200Y-70434200D01*
D12*
X112514944Y-76657200D02*
X113080800Y-76657200D01*
X111963200Y-70713600D02*
X112290600Y-71041000D01*
X106146600Y-70713600D02*
X111963200Y-70713600D01*
X112290600Y-76432856D02*
X112514944Y-76657200D01*
%TO.N,/Hirose Connectors/IO_H3*%
X114300000Y-92900000D02*
X114300000Y-95900000D01*
X116334800Y-90865200D02*
X114300000Y-92900000D01*
X116750000Y-85100000D02*
X116334800Y-85515200D01*
X116334800Y-85515200D02*
X116334800Y-90865200D01*
%TO.N,/Hirose Connectors/IO_G3*%
X113500000Y-93450000D02*
X113500000Y-95900000D01*
X113900000Y-89326856D02*
X113900000Y-93050000D01*
X116350000Y-84700000D02*
X115500000Y-84700000D01*
X116750000Y-84300000D02*
X116350000Y-84700000D01*
X115500000Y-87726856D02*
X113900000Y-89326856D01*
X113900000Y-93050000D02*
X113500000Y-93450000D01*
X113500000Y-95900000D02*
X113500000Y-95750000D01*
X115500000Y-84700000D02*
X115500000Y-87726856D01*
%TD*%
%TA.AperFunction,Conductor*%
%TO.N,+2V5*%
G36*
X116681400Y-75067593D02*
G01*
X116707120Y-75112142D01*
X116698187Y-75162800D01*
X116658782Y-75195864D01*
X116647381Y-75200014D01*
X116584817Y-75222785D01*
X116503096Y-75291356D01*
X116449757Y-75383740D01*
X116431233Y-75488800D01*
X116449757Y-75593859D01*
X116503093Y-75686240D01*
X116503096Y-75686243D01*
X116584814Y-75754813D01*
X116584815Y-75754813D01*
X116584816Y-75754814D01*
X116685061Y-75791300D01*
X116685062Y-75791300D01*
X116791738Y-75791300D01*
X116791739Y-75791300D01*
X116891984Y-75754814D01*
X116973704Y-75686243D01*
X116978787Y-75677440D01*
X117027042Y-75593859D01*
X117027042Y-75593858D01*
X117027043Y-75593857D01*
X117045567Y-75488800D01*
X117027043Y-75383743D01*
X117027042Y-75383741D01*
X117027042Y-75383740D01*
X116973706Y-75291359D01*
X116973703Y-75291356D01*
X116891985Y-75222786D01*
X116850024Y-75207514D01*
X116818017Y-75195864D01*
X116778613Y-75162800D01*
X116769680Y-75112142D01*
X116795400Y-75067594D01*
X116843738Y-75050000D01*
X117420462Y-75050000D01*
X117468800Y-75067593D01*
X117494520Y-75112142D01*
X117485587Y-75162800D01*
X117446182Y-75195864D01*
X117434781Y-75200014D01*
X117372217Y-75222785D01*
X117290496Y-75291356D01*
X117237157Y-75383740D01*
X117218633Y-75488800D01*
X117237157Y-75593859D01*
X117290493Y-75686240D01*
X117290496Y-75686243D01*
X117372214Y-75754813D01*
X117372215Y-75754813D01*
X117372216Y-75754814D01*
X117472461Y-75791300D01*
X117472462Y-75791300D01*
X117579138Y-75791300D01*
X117579139Y-75791300D01*
X117679384Y-75754814D01*
X117761104Y-75686243D01*
X117766187Y-75677440D01*
X117814442Y-75593859D01*
X117814442Y-75593858D01*
X117814443Y-75593857D01*
X117832967Y-75488800D01*
X117814443Y-75383743D01*
X117814442Y-75383741D01*
X117814442Y-75383740D01*
X117761106Y-75291359D01*
X117761103Y-75291356D01*
X117679385Y-75222786D01*
X117637424Y-75207514D01*
X117605417Y-75195864D01*
X117566013Y-75162800D01*
X117557080Y-75112142D01*
X117582800Y-75067594D01*
X117631138Y-75050000D01*
X119020662Y-75050000D01*
X119069000Y-75067593D01*
X119094720Y-75112142D01*
X119085787Y-75162800D01*
X119046382Y-75195864D01*
X119034981Y-75200014D01*
X118972417Y-75222785D01*
X118890696Y-75291356D01*
X118837357Y-75383740D01*
X118818833Y-75488800D01*
X118837357Y-75593859D01*
X118890693Y-75686240D01*
X118890696Y-75686243D01*
X118972414Y-75754813D01*
X118972415Y-75754813D01*
X118972416Y-75754814D01*
X119072661Y-75791300D01*
X119072662Y-75791300D01*
X119179338Y-75791300D01*
X119179339Y-75791300D01*
X119279584Y-75754814D01*
X119361304Y-75686243D01*
X119366387Y-75677440D01*
X119414642Y-75593859D01*
X119414642Y-75593858D01*
X119414643Y-75593857D01*
X119433167Y-75488800D01*
X119414643Y-75383743D01*
X119414642Y-75383741D01*
X119414642Y-75383740D01*
X119361306Y-75291359D01*
X119361303Y-75291356D01*
X119279585Y-75222786D01*
X119237624Y-75207514D01*
X119205617Y-75195864D01*
X119166213Y-75162800D01*
X119157280Y-75112142D01*
X119183000Y-75067594D01*
X119231338Y-75050000D01*
X119800484Y-75050000D01*
X119848822Y-75067593D01*
X119874542Y-75112142D01*
X119865609Y-75162800D01*
X119826204Y-75195865D01*
X119776417Y-75213985D01*
X119694696Y-75282556D01*
X119641357Y-75374940D01*
X119622833Y-75480000D01*
X119641357Y-75585059D01*
X119694693Y-75677440D01*
X119694696Y-75677443D01*
X119776414Y-75746013D01*
X119776415Y-75746013D01*
X119776416Y-75746014D01*
X119876661Y-75782500D01*
X119876662Y-75782500D01*
X119983338Y-75782500D01*
X119983339Y-75782500D01*
X120083584Y-75746014D01*
X120165304Y-75677443D01*
X120176507Y-75658040D01*
X120218642Y-75585059D01*
X120218642Y-75585058D01*
X120218643Y-75585057D01*
X120237167Y-75480000D01*
X120218643Y-75374943D01*
X120218642Y-75374941D01*
X120218642Y-75374940D01*
X120165306Y-75282559D01*
X120165303Y-75282556D01*
X120083585Y-75213986D01*
X120033797Y-75195865D01*
X119994391Y-75162800D01*
X119985458Y-75112142D01*
X120011178Y-75067594D01*
X120059516Y-75050000D01*
X128417183Y-75050000D01*
X128465521Y-75067593D01*
X128491241Y-75112142D01*
X128482308Y-75162800D01*
X128450885Y-75189166D01*
X128452115Y-75191296D01*
X128446417Y-75194585D01*
X128364696Y-75263156D01*
X128311357Y-75355540D01*
X128292833Y-75460600D01*
X128311357Y-75565659D01*
X128364693Y-75658040D01*
X128364696Y-75658043D01*
X128446414Y-75726613D01*
X128446415Y-75726613D01*
X128446416Y-75726614D01*
X128546661Y-75763100D01*
X128546662Y-75763100D01*
X128653338Y-75763100D01*
X128653339Y-75763100D01*
X128753584Y-75726614D01*
X128835304Y-75658043D01*
X128865896Y-75605057D01*
X128888642Y-75565659D01*
X128888642Y-75565658D01*
X128888643Y-75565657D01*
X128907167Y-75460600D01*
X128888643Y-75355543D01*
X128888642Y-75355541D01*
X128888642Y-75355540D01*
X128835306Y-75263159D01*
X128835303Y-75263156D01*
X128753584Y-75194585D01*
X128747888Y-75191297D01*
X128749117Y-75189167D01*
X128717694Y-75162802D01*
X128708760Y-75112143D01*
X128734479Y-75067595D01*
X128782816Y-75050000D01*
X129274800Y-75050000D01*
X129323138Y-75067593D01*
X129348858Y-75112142D01*
X129350000Y-75125200D01*
X129350000Y-82174800D01*
X129332407Y-82223138D01*
X129287858Y-82248858D01*
X129274800Y-82250000D01*
X120255205Y-82250000D01*
X120206867Y-82232407D01*
X120181147Y-82187858D01*
X120190080Y-82137200D01*
X120192612Y-82133582D01*
X120194791Y-82129807D01*
X120194794Y-82129805D01*
X120252824Y-82029295D01*
X120272977Y-81915000D01*
X120252824Y-81800705D01*
X120194794Y-81700195D01*
X120164521Y-81674793D01*
X120105889Y-81625594D01*
X120105886Y-81625592D01*
X119996829Y-81585900D01*
X119880771Y-81585900D01*
X119844418Y-81599131D01*
X119771710Y-81625594D01*
X119682807Y-81700193D01*
X119682806Y-81700194D01*
X119624776Y-81800703D01*
X119604623Y-81915000D01*
X119624776Y-82029296D01*
X119686096Y-82135503D01*
X119683778Y-82136840D01*
X119697595Y-82174799D01*
X119680002Y-82223137D01*
X119635455Y-82248857D01*
X119622395Y-82250000D01*
X117814891Y-82250000D01*
X117766553Y-82232407D01*
X117740833Y-82187858D01*
X117749766Y-82137200D01*
X117766553Y-82117194D01*
X117768695Y-82115395D01*
X117781794Y-82104405D01*
X117839824Y-82003895D01*
X117859977Y-81889600D01*
X117839824Y-81775305D01*
X117781794Y-81674795D01*
X117692889Y-81600194D01*
X117692886Y-81600192D01*
X117583829Y-81560500D01*
X117467771Y-81560500D01*
X117431418Y-81573731D01*
X117358710Y-81600194D01*
X117269807Y-81674793D01*
X117269806Y-81674794D01*
X117211776Y-81775303D01*
X117191623Y-81889600D01*
X117211776Y-82003896D01*
X117269806Y-82104405D01*
X117285047Y-82117194D01*
X117310767Y-82161742D01*
X117301834Y-82212400D01*
X117262428Y-82245465D01*
X117236709Y-82250000D01*
X115575200Y-82250000D01*
X115526862Y-82232407D01*
X115501142Y-82187858D01*
X115500000Y-82174800D01*
X115500000Y-80492832D01*
X115517593Y-80444494D01*
X115562142Y-80418774D01*
X115612800Y-80427707D01*
X115640325Y-80455232D01*
X115664693Y-80497440D01*
X115664696Y-80497443D01*
X115746414Y-80566013D01*
X115746415Y-80566013D01*
X115746416Y-80566014D01*
X115846661Y-80602500D01*
X115846662Y-80602500D01*
X115953338Y-80602500D01*
X115953339Y-80602500D01*
X116053584Y-80566014D01*
X116135304Y-80497443D01*
X116159675Y-80455232D01*
X116188642Y-80405059D01*
X116188642Y-80405058D01*
X116188643Y-80405057D01*
X116207167Y-80300000D01*
X116205298Y-80289400D01*
X117166223Y-80289400D01*
X117186376Y-80403696D01*
X117244406Y-80504205D01*
X117333310Y-80578805D01*
X117333313Y-80578807D01*
X117442371Y-80618500D01*
X117558429Y-80618500D01*
X117667486Y-80578807D01*
X117667485Y-80578807D01*
X117667489Y-80578806D01*
X117756394Y-80504205D01*
X117814424Y-80403695D01*
X117830098Y-80314800D01*
X118791823Y-80314800D01*
X118811976Y-80429096D01*
X118870006Y-80529605D01*
X118958910Y-80604205D01*
X118958913Y-80604207D01*
X119067971Y-80643900D01*
X119184029Y-80643900D01*
X119293086Y-80604207D01*
X119293085Y-80604207D01*
X119293089Y-80604206D01*
X119381994Y-80529605D01*
X119440024Y-80429095D01*
X119460177Y-80314800D01*
X120392023Y-80314800D01*
X120412176Y-80429096D01*
X120470206Y-80529605D01*
X120559110Y-80604205D01*
X120559113Y-80604207D01*
X120668171Y-80643900D01*
X120784229Y-80643900D01*
X120893286Y-80604207D01*
X120893285Y-80604207D01*
X120893289Y-80604206D01*
X120982194Y-80529605D01*
X121040224Y-80429095D01*
X121060377Y-80314800D01*
X121040224Y-80200505D01*
X120982194Y-80099995D01*
X120951921Y-80074593D01*
X120893289Y-80025394D01*
X120893286Y-80025392D01*
X120784229Y-79985700D01*
X120668171Y-79985700D01*
X120635751Y-79997500D01*
X120559110Y-80025394D01*
X120470207Y-80099993D01*
X120470206Y-80099994D01*
X120412176Y-80200503D01*
X120392023Y-80314800D01*
X119460177Y-80314800D01*
X119440024Y-80200505D01*
X119381994Y-80099995D01*
X119351721Y-80074593D01*
X119293089Y-80025394D01*
X119293086Y-80025392D01*
X119184029Y-79985700D01*
X119067971Y-79985700D01*
X119035551Y-79997500D01*
X118958910Y-80025394D01*
X118870007Y-80099993D01*
X118870006Y-80099994D01*
X118811976Y-80200503D01*
X118791823Y-80314800D01*
X117830098Y-80314800D01*
X117834577Y-80289400D01*
X117814424Y-80175105D01*
X117756394Y-80074595D01*
X117707997Y-80033985D01*
X117667489Y-79999994D01*
X117667486Y-79999992D01*
X117558429Y-79960300D01*
X117442371Y-79960300D01*
X117406018Y-79973531D01*
X117333310Y-79999994D01*
X117244407Y-80074593D01*
X117244406Y-80074594D01*
X117186376Y-80175103D01*
X117166223Y-80289400D01*
X116205298Y-80289400D01*
X116188643Y-80194943D01*
X116188642Y-80194941D01*
X116188642Y-80194940D01*
X116135306Y-80102559D01*
X116135303Y-80102556D01*
X116053585Y-80033986D01*
X116003461Y-80015743D01*
X115953339Y-79997500D01*
X115846661Y-79997500D01*
X115846659Y-79997500D01*
X115746417Y-80033985D01*
X115664697Y-80102555D01*
X115640325Y-80144769D01*
X115600919Y-80177833D01*
X115549479Y-80177833D01*
X115510074Y-80144767D01*
X115500000Y-80107168D01*
X115500000Y-79642832D01*
X115517593Y-79594494D01*
X115562142Y-79568774D01*
X115612800Y-79577707D01*
X115640325Y-79605232D01*
X115664693Y-79647440D01*
X115664696Y-79647443D01*
X115746414Y-79716013D01*
X115746415Y-79716013D01*
X115746416Y-79716014D01*
X115846661Y-79752500D01*
X115846662Y-79752500D01*
X115953338Y-79752500D01*
X115953339Y-79752500D01*
X116053584Y-79716014D01*
X116135304Y-79647443D01*
X116153288Y-79616295D01*
X116188642Y-79555059D01*
X116188642Y-79555058D01*
X116188643Y-79555057D01*
X116206955Y-79451200D01*
X122453833Y-79451200D01*
X122472357Y-79556259D01*
X122525693Y-79648640D01*
X122525696Y-79648643D01*
X122607414Y-79717213D01*
X122607415Y-79717213D01*
X122607416Y-79717214D01*
X122707661Y-79753700D01*
X122707662Y-79753700D01*
X122814338Y-79753700D01*
X122814339Y-79753700D01*
X122914584Y-79717214D01*
X122996304Y-79648643D01*
X123021368Y-79605232D01*
X123049642Y-79556259D01*
X123049642Y-79556258D01*
X123049643Y-79556257D01*
X123068167Y-79451200D01*
X123049643Y-79346143D01*
X123049642Y-79346141D01*
X123049642Y-79346140D01*
X122996306Y-79253759D01*
X122996303Y-79253756D01*
X122914585Y-79185186D01*
X122864461Y-79166943D01*
X122814339Y-79148700D01*
X122707661Y-79148700D01*
X122707659Y-79148700D01*
X122607417Y-79185185D01*
X122525696Y-79253756D01*
X122472357Y-79346140D01*
X122453833Y-79451200D01*
X116206955Y-79451200D01*
X116207167Y-79450000D01*
X116188643Y-79344943D01*
X116188642Y-79344941D01*
X116188642Y-79344940D01*
X116135306Y-79252559D01*
X116135303Y-79252556D01*
X116053585Y-79183986D01*
X116003461Y-79165743D01*
X115953339Y-79147500D01*
X115846661Y-79147500D01*
X115846659Y-79147500D01*
X115746417Y-79183985D01*
X115664697Y-79252555D01*
X115640325Y-79294769D01*
X115600919Y-79327833D01*
X115549479Y-79327833D01*
X115510074Y-79294767D01*
X115500000Y-79257168D01*
X115500000Y-78689200D01*
X117166223Y-78689200D01*
X117186376Y-78803496D01*
X117244406Y-78904005D01*
X117333310Y-78978605D01*
X117333313Y-78978607D01*
X117442371Y-79018300D01*
X117558429Y-79018300D01*
X117667486Y-78978607D01*
X117667485Y-78978607D01*
X117667489Y-78978606D01*
X117756394Y-78904005D01*
X117814424Y-78803495D01*
X117834577Y-78689200D01*
X120392023Y-78689200D01*
X120412176Y-78803496D01*
X120470206Y-78904005D01*
X120559110Y-78978605D01*
X120559113Y-78978607D01*
X120668171Y-79018300D01*
X120784229Y-79018300D01*
X120893286Y-78978607D01*
X120893285Y-78978607D01*
X120893289Y-78978606D01*
X120982194Y-78904005D01*
X121040224Y-78803495D01*
X121060377Y-78689200D01*
X121051420Y-78638400D01*
X122453833Y-78638400D01*
X122472357Y-78743459D01*
X122525693Y-78835840D01*
X122525696Y-78835843D01*
X122607414Y-78904413D01*
X122607415Y-78904413D01*
X122607416Y-78904414D01*
X122707661Y-78940900D01*
X122707662Y-78940900D01*
X122814338Y-78940900D01*
X122814339Y-78940900D01*
X122914584Y-78904414D01*
X122996304Y-78835843D01*
X123049643Y-78743457D01*
X123068167Y-78638400D01*
X123049643Y-78533343D01*
X123049642Y-78533341D01*
X123049642Y-78533340D01*
X122996306Y-78440959D01*
X122996303Y-78440956D01*
X122914585Y-78372386D01*
X122864461Y-78354143D01*
X122814339Y-78335900D01*
X122707661Y-78335900D01*
X122707659Y-78335900D01*
X122607417Y-78372385D01*
X122525696Y-78440956D01*
X122472357Y-78533340D01*
X122453833Y-78638400D01*
X121051420Y-78638400D01*
X121040224Y-78574905D01*
X120982194Y-78474395D01*
X120942343Y-78440956D01*
X120893289Y-78399794D01*
X120893286Y-78399792D01*
X120784229Y-78360100D01*
X120668171Y-78360100D01*
X120634418Y-78372385D01*
X120559110Y-78399794D01*
X120470207Y-78474393D01*
X120470206Y-78474394D01*
X120412176Y-78574903D01*
X120392023Y-78689200D01*
X117834577Y-78689200D01*
X117814424Y-78574905D01*
X117756394Y-78474395D01*
X117716543Y-78440956D01*
X117667489Y-78399794D01*
X117667486Y-78399792D01*
X117558429Y-78360100D01*
X117442371Y-78360100D01*
X117408618Y-78372385D01*
X117333310Y-78399794D01*
X117244407Y-78474393D01*
X117244406Y-78474394D01*
X117186376Y-78574903D01*
X117166223Y-78689200D01*
X115500000Y-78689200D01*
X115500000Y-77063600D01*
X117191623Y-77063600D01*
X117211776Y-77177896D01*
X117269806Y-77278405D01*
X117358710Y-77353005D01*
X117358713Y-77353007D01*
X117467771Y-77392700D01*
X117583829Y-77392700D01*
X117692886Y-77353007D01*
X117692885Y-77353007D01*
X117692889Y-77353006D01*
X117781794Y-77278405D01*
X117839824Y-77177895D01*
X117859977Y-77063600D01*
X118791823Y-77063600D01*
X118811976Y-77177896D01*
X118870006Y-77278405D01*
X118958910Y-77353005D01*
X118958913Y-77353007D01*
X119067971Y-77392700D01*
X119184029Y-77392700D01*
X119293086Y-77353007D01*
X119293085Y-77353007D01*
X119293089Y-77353006D01*
X119381994Y-77278405D01*
X119440024Y-77177895D01*
X119460177Y-77063600D01*
X120392023Y-77063600D01*
X120412176Y-77177896D01*
X120470206Y-77278405D01*
X120559110Y-77353005D01*
X120559113Y-77353007D01*
X120668171Y-77392700D01*
X120784229Y-77392700D01*
X120893286Y-77353007D01*
X120893285Y-77353007D01*
X120893289Y-77353006D01*
X120982194Y-77278405D01*
X121040224Y-77177895D01*
X121060377Y-77063600D01*
X121040224Y-76949305D01*
X120982194Y-76848795D01*
X120893289Y-76774194D01*
X120893286Y-76774192D01*
X120784229Y-76734500D01*
X120668171Y-76734500D01*
X120631818Y-76747731D01*
X120559110Y-76774194D01*
X120470207Y-76848793D01*
X120470206Y-76848794D01*
X120412176Y-76949303D01*
X120392023Y-77063600D01*
X119460177Y-77063600D01*
X119440024Y-76949305D01*
X119381994Y-76848795D01*
X119293089Y-76774194D01*
X119293086Y-76774192D01*
X119184029Y-76734500D01*
X119067971Y-76734500D01*
X119031618Y-76747731D01*
X118958910Y-76774194D01*
X118870007Y-76848793D01*
X118870006Y-76848794D01*
X118811976Y-76949303D01*
X118791823Y-77063600D01*
X117859977Y-77063600D01*
X117839824Y-76949305D01*
X117781794Y-76848795D01*
X117692889Y-76774194D01*
X117692886Y-76774192D01*
X117583829Y-76734500D01*
X117467771Y-76734500D01*
X117431418Y-76747731D01*
X117358710Y-76774194D01*
X117269807Y-76848793D01*
X117269806Y-76848794D01*
X117211776Y-76949303D01*
X117191623Y-77063600D01*
X115500000Y-77063600D01*
X115500000Y-75125200D01*
X115517593Y-75076862D01*
X115562142Y-75051142D01*
X115575200Y-75050000D01*
X116633062Y-75050000D01*
X116681400Y-75067593D01*
G37*
%TD.AperFunction*%
%TD*%
M02*
