M48
INCH
T1C0.0079
%
G90
G05
T1
X3.612Y-2.886
X3.612Y-2.908
X3.612Y-2.93
X3.613Y-3.219
X3.613Y-3.241
X3.613Y-3.263
X3.613Y-3.595
X3.613Y-3.617
X3.613Y-3.639
X3.636Y-2.886
X3.636Y-2.908
X3.636Y-2.93
X3.637Y-3.219
X3.637Y-3.241
X3.637Y-3.263
X3.637Y-3.595
X3.637Y-3.617
X3.637Y-3.639
X3.66Y-2.886
X3.66Y-2.908
X3.66Y-2.93
X3.661Y-3.219
X3.661Y-3.241
X3.661Y-3.263
X3.661Y-3.595
X3.661Y-3.617
X3.661Y-3.639
X3.862Y-2.61
X3.863Y-2.734
X3.863Y-2.987
X3.8632Y-3.11
X3.8632Y-3.4228
X3.866Y-3.301
X3.8894Y-2.7336
X3.8896Y-3.1096
X3.8896Y-3.4224
X3.904Y-2.695
X3.904Y-3.07
X3.9048Y-2.653
X3.9048Y-2.674
X3.905Y-3.029
X3.905Y-3.05
X3.905Y-3.323
X3.905Y-3.343
X3.905Y-3.363
X3.905Y-3.383
X3.9058Y-2.631
X3.906Y-3.008
X3.9189Y-2.734
X3.9191Y-3.11
X3.9191Y-3.4228
X3.9433Y-2.734
X3.9435Y-3.11
X3.9435Y-3.4228
X3.946Y-2.612
X3.946Y-2.987
X3.946Y-3.301
X3.9774Y-2.362
X4.06Y-3.674
X4.061Y-3.707
X4.064Y-3.7809
X4.064Y-3.813
X4.091Y-3.659
X4.092Y-3.691
X4.092Y-3.766
X4.092Y-3.7958
X4.093Y-2.765
X4.0934Y-3.127
X4.0934Y-3.448
X4.1358Y-3.876
X4.137Y-2.537
X4.1523Y-3.8176
X4.153Y-2.548
X4.1673Y-3.876
X4.1681Y-2.5369
X4.1721Y-2.4744
X4.178Y-3.223
X4.1831Y-3.8169
X4.184Y-2.549
X4.1988Y-3.876
X4.2Y-2.537
X4.2146Y-3.8169
X4.215Y-2.55
X4.216Y-3.223
X4.2311Y-2.4281
X4.2323Y-3.876
X4.2461Y-3.8169
X4.2469Y-2.4803
X4.247Y-2.367
X4.253Y-3.223
X4.2626Y-2.4286
X4.2628Y-2.469
X4.2776Y-3.876
X4.278Y-2.367
X4.278Y-3.7776
X4.2784Y-2.4804
X4.2933Y-3.8169
X4.2939Y-2.4689
X4.2941Y-2.4289
X4.309Y-2.48
X4.31Y-2.368
X4.313Y-3.8868
X4.319Y-3.672
X4.326Y-2.429
X4.326Y-2.469
X4.339Y-3.191
X4.3409Y-2.4805
X4.341Y-2.368
X4.343Y-3.515
X4.344Y-2.974
X4.357Y-2.429
X4.357Y-2.469
X4.359Y-3.493
X4.372Y-2.481
X4.373Y-2.368
X4.373Y-2.813
X4.374Y-2.848
X4.374Y-2.877
X4.374Y-2.91
X4.374Y-2.941
X4.374Y-3.035
X4.374Y-3.066
X4.374Y-3.097
X4.374Y-3.129
X4.374Y-3.161
X4.374Y-3.224
X4.374Y-3.515
X4.3748Y-3.0035
X4.388Y-2.469
X4.389Y-2.429
X4.39Y-3.495
X4.4032Y-2.4808
X4.404Y-2.368
X4.405Y-3.516
X4.406Y-2.814
X4.406Y-2.846
X4.406Y-2.878
X4.406Y-2.909
X4.406Y-2.94
X4.406Y-3.003
X4.406Y-3.035
X4.406Y-3.067
X4.406Y-3.099
X4.406Y-3.13
X4.406Y-3.161
X4.406Y-3.224
X4.406Y-3.287
X4.406Y-3.319
X4.407Y-3.255
X4.4194Y-2.4676
X4.42Y-2.429
X4.422Y-3.495
X4.435Y-2.478
X4.436Y-2.368
X4.438Y-2.877
X4.438Y-2.909
X4.438Y-2.941
X4.438Y-2.971
X4.438Y-3.003
X4.438Y-3.035
X4.438Y-3.066
X4.438Y-3.098
X4.438Y-3.129
X4.438Y-3.161
X4.438Y-3.192
X4.438Y-3.224
X4.438Y-3.255
X4.438Y-3.287
X4.438Y-3.318
X4.438Y-3.382
X4.4381Y-2.813
X4.4447Y-3.8859
X4.4508Y-3.8169
X4.451Y-2.468
X4.453Y-3.516
X4.4587Y-2.3681
X4.4606Y-3.876
X4.467Y-2.479
X4.468Y-2.4276
X4.4685Y-3.7756
X4.469Y-2.94
X4.469Y-2.971
X4.469Y-3.003
X4.469Y-3.035
X4.469Y-3.066
X4.469Y-3.098
X4.469Y-3.255
X4.469Y-3.286
X4.469Y-3.319
X4.469Y-3.381
X4.47Y-3.129
X4.47Y-3.161
X4.47Y-3.192
X4.47Y-3.224
X4.4823Y-2.3681
X4.485Y-3.495
X4.4862Y-3.876
X4.499Y-2.428
X4.5Y-2.815
X4.5Y-2.8465
X4.5Y-2.877
X4.5Y-3.066
X4.5Y-3.7756
X4.501Y-2.972
X4.501Y-3.003
X4.501Y-3.098
X4.501Y-3.129
X4.501Y-3.16
X4.501Y-3.192
X4.501Y-3.255
X4.501Y-3.287
X4.501Y-3.318
X4.501Y-3.382
X4.502Y-3.2252
X4.5055Y-2.3675
X4.5138Y-3.8169
X4.5138Y-3.876
X4.516Y-3.516
X4.5303Y-2.368
X4.531Y-3.003
X4.5315Y-2.9724
X4.532Y-2.815
X4.532Y-2.847
X4.532Y-3.287
X4.532Y-3.318
X4.532Y-3.382
X4.533Y-2.878
X4.533Y-3.067
X4.533Y-3.098
X4.533Y-3.13
X4.533Y-3.255
X4.5335Y-3.1929
X4.5459Y-2.4283
X4.548Y-3.495
X4.562Y-2.368
X4.563Y-2.8465
X4.563Y-2.878
X4.563Y-2.9094
X4.563Y-3.128
X4.563Y-3.1614
X4.563Y-2.814
X4.563Y-2.972
X4.564Y-3.224
X4.564Y-3.256
X4.564Y-3.381
X4.578Y-2.428
X4.581Y-3.619
X4.594Y-2.368
X4.5945Y-2.8465
X4.595Y-2.815
X4.595Y-2.9093
X4.595Y-3.382
X4.596Y-2.972
X4.5965Y-3.3189
X4.5965Y-3.3504
X4.6Y-3.495
X4.6084Y-2.43
X4.625Y-2.368
X4.626Y-3.098
X4.626Y-3.161
X4.626Y-3.35
X4.626Y-3.381
X4.627Y-2.815
X4.627Y-2.847
X4.627Y-2.878
X4.627Y-2.909
X4.627Y-2.972
X4.627Y-3.034
X4.627Y-3.224
X4.627Y-3.255
X4.627Y-3.286
X4.627Y-3.318
X4.627Y-3.5315
X4.64Y-2.431
X4.6409Y-3.7854
X4.6457Y-3.874
X4.6496Y-3.813
X4.656Y-2.368
X4.658Y-2.815
X4.658Y-3.287
X4.658Y-3.318
X4.6587Y-2.878
X4.659Y-2.909
X4.659Y-3.349
X4.659Y-3.382
X4.659Y-3.495
X4.6594Y-3.4547
X4.6654Y-3.8868
X4.6713Y-3.813
X4.672Y-2.431
X4.6875Y-2.552
X4.6877Y-3.769
X4.688Y-2.368
X4.69Y-2.816
X4.69Y-2.877
X4.69Y-2.909
X4.69Y-2.941
X4.69Y-2.972
X4.69Y-3.034
X4.69Y-3.162
X4.69Y-3.287
X4.69Y-3.318
X4.69Y-3.35
X4.69Y-3.382
X4.6909Y-3.5315
X4.6969Y-3.8868
X4.704Y-2.43
X4.704Y-2.536
X4.7106Y-3.4961
X4.7185Y-3.7953
X4.719Y-2.369
X4.719Y-2.553
X4.721Y-2.846
X4.721Y-2.877
X4.721Y-2.909
X4.721Y-3.286
X4.721Y-3.318
X4.721Y-3.349
X4.721Y-3.382
X4.7217Y-2.9717
X4.722Y-2.815
X4.722Y-3.225
X4.722Y-3.255
X4.7283Y-3.8868
X4.7331Y-3.5315
X4.7343Y-3.813
X4.735Y-2.43
X4.735Y-2.536
X4.75Y-2.554
X4.75Y-3.7953
X4.751Y-2.37
X4.753Y-2.815
X4.753Y-2.846
X4.753Y-2.878
X4.753Y-2.9093
X4.753Y-3.034
X4.753Y-3.098
X4.753Y-3.162
X4.753Y-3.288
X4.753Y-3.319
X4.7657Y-3.815
X4.766Y-2.536
X4.7665Y-2.4305
X4.7815Y-3.7953
X4.782Y-2.568
X4.783Y-2.371
X4.7835Y-3.4961
X4.7836Y-2.4764
X4.784Y-2.815
X4.784Y-2.846
X4.784Y-2.877
X4.784Y-2.909
X4.7846Y-3.3189
X4.785Y-3.256
X4.785Y-3.287
X4.785Y-3.35
X4.785Y-3.382
X4.7972Y-3.813
X4.798Y-2.431
X4.813Y-3.7953
X4.8138Y-3.5315
X4.814Y-2.372
X4.815Y-3.3189
X4.816Y-2.909
X4.816Y-2.94
X4.816Y-3.256
X4.816Y-3.287
X4.816Y-3.35
X4.819Y-2.972
X4.819Y-3.224
X4.8287Y-3.813
X4.829Y-2.431
X4.829Y-2.476
X4.8331Y-3.096
X4.8331Y-3.128
X4.8445Y-3.7953
X4.845Y-2.372
X4.8465Y-3.4961
X4.847Y-2.877
X4.847Y-2.909
X4.847Y-3.287
X4.847Y-3.318
X4.847Y-3.35
X4.847Y-3.381
X4.848Y-2.815
X4.8484Y-2.846
X4.8583Y-2.4764
X4.8602Y-3.813
X4.876Y-3.7953
X4.8768Y-3.5315
X4.877Y-2.367
X4.879Y-2.815
X4.879Y-2.846
X4.879Y-2.878
X4.879Y-2.909
X4.879Y-3.287
X4.879Y-3.319
X4.879Y-3.382
X4.8937Y-3.813
X4.901Y-2.36
X4.9075Y-3.4961
X4.908Y-2.535
X4.9094Y-3.3189
X4.9094Y-3.7953
X4.91Y-2.846
X4.91Y-2.878
X4.91Y-2.909
X4.91Y-3.287
X4.91Y-3.349
X4.942Y-3.319
X4.942Y-3.35
X4.942Y-3.381
X4.973Y-3.35
X5.006Y-3.35
X5.0414Y-2.632
X5.042Y-3.703
X5.042Y-3.753
X5.042Y-3.803
X5.0585Y-2.452
X5.063Y-2.9709
X5.0637Y-2.9411
X5.069Y-3.145
X5.069Y-3.177
X5.069Y-3.208
X5.085Y-2.551
X5.1165Y-2.452
X5.119Y-2.997
X5.144Y-3.854
X5.1535Y-2.448
X5.1698Y-2.6268
X5.177Y-2.459
X5.215Y-2.747
X5.216Y-2.777
X5.216Y-2.809
X5.217Y-2.8409
X5.217Y-2.873
X5.217Y-2.904
X5.217Y-2.936
X5.217Y-2.967
X5.217Y-2.997
X5.217Y-3.03
X5.219Y-3.156
X5.219Y-3.187
X5.219Y-3.281
X5.22Y-3.218
X5.22Y-3.25
X5.22Y-3.313
X5.22Y-3.344
X5.22Y-3.376
X5.22Y-3.407
X5.22Y-3.439
X5.22Y-3.463
X5.221Y-3.502
X5.233Y-2.609
X5.239Y-2.6436
X5.2402Y-2.4626
X5.255Y-2.4469
X5.274Y-2.672
X5.326Y-2.6074
X5.326Y-3.853
X5.327Y-3.753
X5.327Y-3.803
X5.337Y-2.4499
X5.3661Y-2.9665
X5.3661Y-3.219
X5.3661Y-3.25
X5.3661Y-3.313
X5.3661Y-3.344
X5.3661Y-3.407
X5.3661Y-3.438
X5.3661Y-3.469
X5.376Y-2.6074
X5.376Y-2.658
X5.4077Y-2.7116
X5.43Y-2.57
X5.564Y-2.778
X5.564Y-2.81
X5.564Y-2.841
X5.564Y-2.872
X5.565Y-2.747
X5.565Y-2.904
X5.565Y-2.935
X5.566Y-2.997
X5.566Y-3.028
X5.566Y-3.155
X5.567Y-3.062
X5.568Y-3.091
X5.672Y-2.714
X5.672Y-2.792
X5.672Y-3.124
X5.673Y-3.534
X5.6732Y-3.1831
X5.674Y-3.471
X5.676Y-3.281
X5.677Y-3.362
M30
